%TF.GenerationSoftware,KiCad,Pcbnew,8.0.6-8.0.6-0~ubuntu24.04.1*%
%TF.CreationDate,2024-11-29T10:46:18-06:00*%
%TF.ProjectId,can_distance_sensor,63616e5f-6469-4737-9461-6e63655f7365,rev?*%
%TF.SameCoordinates,Original*%
%TF.FileFunction,Copper,L3,Inr*%
%TF.FilePolarity,Positive*%
%FSLAX46Y46*%
G04 Gerber Fmt 4.6, Leading zero omitted, Abs format (unit mm)*
G04 Created by KiCad (PCBNEW 8.0.6-8.0.6-0~ubuntu24.04.1) date 2024-11-29 10:46:18*
%MOMM*%
%LPD*%
G01*
G04 APERTURE LIST*
G04 Aperture macros list*
%AMRoundRect*
0 Rectangle with rounded corners*
0 $1 Rounding radius*
0 $2 $3 $4 $5 $6 $7 $8 $9 X,Y pos of 4 corners*
0 Add a 4 corners polygon primitive as box body*
4,1,4,$2,$3,$4,$5,$6,$7,$8,$9,$2,$3,0*
0 Add four circle primitives for the rounded corners*
1,1,$1+$1,$2,$3*
1,1,$1+$1,$4,$5*
1,1,$1+$1,$6,$7*
1,1,$1+$1,$8,$9*
0 Add four rect primitives between the rounded corners*
20,1,$1+$1,$2,$3,$4,$5,0*
20,1,$1+$1,$4,$5,$6,$7,0*
20,1,$1+$1,$6,$7,$8,$9,0*
20,1,$1+$1,$8,$9,$2,$3,0*%
G04 Aperture macros list end*
%TA.AperFunction,ComponentPad*%
%ADD10RoundRect,0.250000X0.625000X-0.350000X0.625000X0.350000X-0.625000X0.350000X-0.625000X-0.350000X0*%
%TD*%
%TA.AperFunction,ComponentPad*%
%ADD11O,1.750000X1.200000*%
%TD*%
%TA.AperFunction,ComponentPad*%
%ADD12O,1.600000X0.900000*%
%TD*%
%TA.AperFunction,ViaPad*%
%ADD13C,0.600000*%
%TD*%
G04 APERTURE END LIST*
D10*
%TO.N,VIN*%
%TO.C,J3*%
X210910000Y-108664000D03*
D11*
%TO.N,GND*%
X210910000Y-106664000D03*
%TO.N,Net-(J3-Pin_3)*%
X210910000Y-104664000D03*
%TO.N,Net-(J3-Pin_4)*%
X210910000Y-102664000D03*
%TD*%
D12*
%TO.N,GND*%
%TO.C,J1*%
X175768000Y-102364000D03*
X175768000Y-108964000D03*
%TD*%
D13*
%TO.N,3V3*%
X193675000Y-88773000D03*
X203200000Y-88773000D03*
%TO.N,BOOT*%
X198374000Y-90297000D03*
%TO.N,3V3*%
X186817000Y-88265000D03*
%TO.N,TOF_INT*%
X190119000Y-105791000D03*
X193294000Y-98552000D03*
%TO.N,TOF_XSHUT*%
X194183000Y-98552000D03*
X190754000Y-107696000D03*
%TO.N,GND*%
X203200000Y-96901000D03*
X183642000Y-121412000D03*
X185420000Y-122047000D03*
X188214000Y-119380000D03*
X192659000Y-123190000D03*
X194183000Y-121285000D03*
X198120000Y-120523000D03*
X209042000Y-114046000D03*
X204216000Y-116586000D03*
X201803000Y-116205000D03*
X203708000Y-100711000D03*
X199517000Y-100457000D03*
X195453000Y-95504000D03*
X193548000Y-95504000D03*
X193548000Y-91567000D03*
X191516000Y-91567000D03*
X195453000Y-91567000D03*
X195453000Y-93726000D03*
X191516000Y-93726000D03*
X191516000Y-95504000D03*
X193548000Y-93726000D03*
X187071000Y-99568000D03*
X178435000Y-110617000D03*
X180213000Y-105537000D03*
X183134000Y-90424000D03*
X181229000Y-94234000D03*
X184912000Y-96266000D03*
X207391000Y-99481702D03*
X189611000Y-103759000D03*
X201041000Y-106299000D03*
X197739000Y-106045000D03*
X194056000Y-107569000D03*
X190918802Y-105808911D03*
%TO.N,3V3*%
X208153000Y-94869000D03*
X197831090Y-97028000D03*
X192278000Y-89027000D03*
X192913000Y-88519000D03*
X190119000Y-87757000D03*
X191262000Y-88773000D03*
%TO.N,ID*%
X179451000Y-111379000D03*
X184404000Y-102235000D03*
%TO.N,3V3*%
X189230000Y-98171000D03*
X188564289Y-95912500D03*
X188341000Y-100711000D03*
%TO.N,CAN_RX*%
X198628000Y-104140000D03*
X200152000Y-104140000D03*
%TO.N,CAN_STB*%
X199009000Y-96266000D03*
X204343000Y-97663000D03*
%TO.N,Net-(R2-Pad2)*%
X205740000Y-96012000D03*
%TO.N,BOOT*%
X200643769Y-100207444D03*
%TO.N,VIN_MEAS*%
X210058000Y-94488000D03*
X199263000Y-91114500D03*
%TO.N,SWCLK*%
X189865000Y-98679000D03*
%TO.N,SWDIO*%
X187817234Y-96477303D03*
%TO.N,NRST*%
X198628000Y-92583000D03*
X188087000Y-90041000D03*
%TO.N,3V3*%
X181160179Y-97477821D03*
%TO.N,TOF_SDA*%
X187833000Y-103251000D03*
%TO.N,TOF_SCL*%
X190664990Y-98674418D03*
X191770000Y-99441000D03*
%TO.N,TOF_SCL_2V8*%
X196215000Y-99822000D03*
X196215000Y-103378000D03*
%TO.N,/Power/PRE_OUT*%
X201422000Y-118618000D03*
X192659000Y-113919000D03*
%TO.N,3V3*%
X178562000Y-114300000D03*
X181610000Y-111760000D03*
X205359000Y-104394000D03*
X205232000Y-106045000D03*
%TO.N,2V8*%
X184277000Y-107950000D03*
X180340000Y-117856000D03*
%TO.N,VCC*%
X189611000Y-111252000D03*
X181991000Y-103124000D03*
X185801000Y-105664000D03*
%TO.N,Net-(D1-A)*%
X176859163Y-96432776D03*
X180340000Y-103505000D03*
%TD*%
%TA.AperFunction,Conductor*%
%TO.N,3V3*%
G36*
X194942455Y-85864395D02*
G01*
X194947951Y-85864642D01*
X195829871Y-85924102D01*
X195835335Y-85924594D01*
X196713697Y-86023562D01*
X196719161Y-86024302D01*
X197592177Y-86162575D01*
X197597592Y-86163557D01*
X198463549Y-86340862D01*
X198468969Y-86342100D01*
X199326010Y-86558056D01*
X199331374Y-86559536D01*
X200177905Y-86813737D01*
X200183173Y-86815449D01*
X201017466Y-87107382D01*
X201022675Y-87109337D01*
X201842974Y-87438382D01*
X201848091Y-87440569D01*
X202168091Y-87585920D01*
X202652833Y-87806100D01*
X202657808Y-87808496D01*
X203229896Y-88099989D01*
X203445363Y-88209775D01*
X203450263Y-88212412D01*
X204218984Y-88648599D01*
X204223761Y-88651453D01*
X204972154Y-89121699D01*
X204976798Y-89124765D01*
X205703323Y-89628104D01*
X205707825Y-89631375D01*
X206089177Y-89921737D01*
X206346614Y-90117750D01*
X206411030Y-90166796D01*
X206415379Y-90170263D01*
X207014943Y-90670815D01*
X207093884Y-90736719D01*
X207098069Y-90740376D01*
X207633263Y-91229565D01*
X207750468Y-91336695D01*
X207754490Y-91340541D01*
X208379458Y-91965509D01*
X208383304Y-91969531D01*
X208979619Y-92621925D01*
X208983278Y-92626112D01*
X209549734Y-93304618D01*
X209553180Y-93308939D01*
X209613808Y-93388565D01*
X209755316Y-93574418D01*
X209780266Y-93639681D01*
X209765971Y-93708073D01*
X209716971Y-93757880D01*
X209710461Y-93761256D01*
X209708476Y-93762211D01*
X209555737Y-93858184D01*
X209428184Y-93985737D01*
X209332211Y-94138476D01*
X209272631Y-94308745D01*
X209272630Y-94308750D01*
X209252435Y-94487996D01*
X209252435Y-94488003D01*
X209272630Y-94667249D01*
X209272631Y-94667254D01*
X209332211Y-94837523D01*
X209428184Y-94990262D01*
X209555738Y-95117816D01*
X209708478Y-95213789D01*
X209878745Y-95273368D01*
X209878750Y-95273369D01*
X210057996Y-95293565D01*
X210058000Y-95293565D01*
X210058004Y-95293565D01*
X210237249Y-95273369D01*
X210237252Y-95273368D01*
X210237255Y-95273368D01*
X210407522Y-95213789D01*
X210560262Y-95117816D01*
X210616439Y-95061638D01*
X210677758Y-95028156D01*
X210747450Y-95033140D01*
X210803384Y-95075011D01*
X210809111Y-95083350D01*
X211068546Y-95496238D01*
X211071400Y-95501015D01*
X211507587Y-96269736D01*
X211510224Y-96274636D01*
X211911494Y-97062172D01*
X211913908Y-97067186D01*
X212279430Y-97871908D01*
X212281617Y-97877025D01*
X212610662Y-98697324D01*
X212612617Y-98702533D01*
X212904550Y-99536826D01*
X212906270Y-99542119D01*
X213160463Y-100388625D01*
X213161943Y-100393989D01*
X213377899Y-101251030D01*
X213379138Y-101256455D01*
X213556436Y-102122377D01*
X213557429Y-102127852D01*
X213695693Y-103000813D01*
X213696440Y-103006327D01*
X213795401Y-103884625D01*
X213795900Y-103890168D01*
X213855355Y-104772016D01*
X213855605Y-104777575D01*
X213875437Y-105661218D01*
X213875437Y-105666782D01*
X213855605Y-106550424D01*
X213855355Y-106555983D01*
X213795900Y-107437831D01*
X213795401Y-107443374D01*
X213696440Y-108321672D01*
X213695693Y-108327186D01*
X213557429Y-109200147D01*
X213556436Y-109205622D01*
X213379138Y-110071544D01*
X213377899Y-110076969D01*
X213161943Y-110934010D01*
X213160463Y-110939374D01*
X212906270Y-111785880D01*
X212904550Y-111791173D01*
X212612617Y-112625466D01*
X212610662Y-112630675D01*
X212281617Y-113450974D01*
X212279430Y-113456091D01*
X211913908Y-114260813D01*
X211911494Y-114265827D01*
X211510224Y-115053363D01*
X211507587Y-115058263D01*
X211071400Y-115826984D01*
X211068546Y-115831761D01*
X210598300Y-116580154D01*
X210595234Y-116584798D01*
X210091895Y-117311323D01*
X210088624Y-117315825D01*
X209553203Y-118019030D01*
X209549734Y-118023381D01*
X208983280Y-118701884D01*
X208979619Y-118706074D01*
X208383304Y-119358468D01*
X208379458Y-119362490D01*
X207754490Y-119987458D01*
X207750468Y-119991304D01*
X207098074Y-120587619D01*
X207093884Y-120591280D01*
X206415381Y-121157734D01*
X206411030Y-121161203D01*
X205707825Y-121696624D01*
X205703323Y-121699895D01*
X204976798Y-122203234D01*
X204972154Y-122206300D01*
X204223761Y-122676546D01*
X204218984Y-122679400D01*
X203450263Y-123115587D01*
X203445363Y-123118224D01*
X202657827Y-123519494D01*
X202652813Y-123521908D01*
X201848091Y-123887430D01*
X201842974Y-123889617D01*
X201022675Y-124218662D01*
X201017466Y-124220617D01*
X200183173Y-124512550D01*
X200177880Y-124514270D01*
X199331374Y-124768463D01*
X199326010Y-124769943D01*
X198468969Y-124985899D01*
X198463544Y-124987138D01*
X197597622Y-125164436D01*
X197592147Y-125165429D01*
X196719186Y-125303693D01*
X196713672Y-125304440D01*
X195835374Y-125403401D01*
X195829831Y-125403900D01*
X194947983Y-125463355D01*
X194942424Y-125463605D01*
X194058782Y-125483437D01*
X194053218Y-125483437D01*
X193169575Y-125463605D01*
X193164016Y-125463355D01*
X192282168Y-125403900D01*
X192276625Y-125403401D01*
X191398327Y-125304440D01*
X191392813Y-125303693D01*
X190519852Y-125165429D01*
X190514377Y-125164436D01*
X189648455Y-124987138D01*
X189643030Y-124985899D01*
X188785989Y-124769943D01*
X188780625Y-124768463D01*
X187934119Y-124514270D01*
X187928826Y-124512550D01*
X187094533Y-124220617D01*
X187089324Y-124218662D01*
X186269025Y-123889617D01*
X186263908Y-123887430D01*
X185459186Y-123521908D01*
X185454172Y-123519494D01*
X184807496Y-123189996D01*
X191853435Y-123189996D01*
X191853435Y-123190003D01*
X191873630Y-123369249D01*
X191873631Y-123369254D01*
X191933211Y-123539523D01*
X192029184Y-123692262D01*
X192156738Y-123819816D01*
X192247080Y-123876582D01*
X192267825Y-123889617D01*
X192309478Y-123915789D01*
X192479745Y-123975368D01*
X192479750Y-123975369D01*
X192658996Y-123995565D01*
X192659000Y-123995565D01*
X192659004Y-123995565D01*
X192838249Y-123975369D01*
X192838252Y-123975368D01*
X192838255Y-123975368D01*
X193008522Y-123915789D01*
X193161262Y-123819816D01*
X193288816Y-123692262D01*
X193384789Y-123539522D01*
X193444368Y-123369255D01*
X193444369Y-123369249D01*
X193464565Y-123190003D01*
X193464565Y-123189996D01*
X193444369Y-123010750D01*
X193444368Y-123010745D01*
X193384788Y-122840476D01*
X193342257Y-122772789D01*
X193288816Y-122687738D01*
X193161262Y-122560184D01*
X193143880Y-122549262D01*
X193008523Y-122464211D01*
X192838254Y-122404631D01*
X192838249Y-122404630D01*
X192659004Y-122384435D01*
X192658996Y-122384435D01*
X192479750Y-122404630D01*
X192479745Y-122404631D01*
X192309476Y-122464211D01*
X192156737Y-122560184D01*
X192029184Y-122687737D01*
X191933211Y-122840476D01*
X191873631Y-123010745D01*
X191873630Y-123010750D01*
X191853435Y-123189996D01*
X184807496Y-123189996D01*
X184666636Y-123118224D01*
X184661736Y-123115587D01*
X183893015Y-122679400D01*
X183888238Y-122676546D01*
X183511978Y-122440127D01*
X183465687Y-122387792D01*
X183455039Y-122318739D01*
X183483414Y-122254890D01*
X183541803Y-122216518D01*
X183591833Y-122211913D01*
X183641996Y-122217565D01*
X183642000Y-122217565D01*
X183642004Y-122217565D01*
X183821249Y-122197369D01*
X183821252Y-122197368D01*
X183821255Y-122197368D01*
X183991522Y-122137789D01*
X184136018Y-122046996D01*
X184614435Y-122046996D01*
X184614435Y-122047003D01*
X184634630Y-122226249D01*
X184634631Y-122226254D01*
X184694211Y-122396523D01*
X184736743Y-122464211D01*
X184790184Y-122549262D01*
X184917738Y-122676816D01*
X185070478Y-122772789D01*
X185240745Y-122832368D01*
X185240750Y-122832369D01*
X185419996Y-122852565D01*
X185420000Y-122852565D01*
X185420004Y-122852565D01*
X185599249Y-122832369D01*
X185599252Y-122832368D01*
X185599255Y-122832368D01*
X185769522Y-122772789D01*
X185922262Y-122676816D01*
X186049816Y-122549262D01*
X186145789Y-122396522D01*
X186205368Y-122226255D01*
X186206984Y-122211913D01*
X186225565Y-122047003D01*
X186225565Y-122046996D01*
X186205369Y-121867750D01*
X186205368Y-121867745D01*
X186177206Y-121787262D01*
X186145789Y-121697478D01*
X186145252Y-121696624D01*
X186095363Y-121617225D01*
X186049816Y-121544738D01*
X185922262Y-121417184D01*
X185769523Y-121321211D01*
X185666027Y-121284996D01*
X193377435Y-121284996D01*
X193377435Y-121285003D01*
X193397630Y-121464249D01*
X193397631Y-121464254D01*
X193457211Y-121634523D01*
X193537010Y-121761522D01*
X193553184Y-121787262D01*
X193680738Y-121914816D01*
X193833478Y-122010789D01*
X193922148Y-122041816D01*
X194003745Y-122070368D01*
X194003750Y-122070369D01*
X194182996Y-122090565D01*
X194183000Y-122090565D01*
X194183004Y-122090565D01*
X194362249Y-122070369D01*
X194362252Y-122070368D01*
X194362255Y-122070368D01*
X194532522Y-122010789D01*
X194685262Y-121914816D01*
X194812816Y-121787262D01*
X194908789Y-121634522D01*
X194968368Y-121464255D01*
X194973672Y-121417184D01*
X194988565Y-121285003D01*
X194988565Y-121284996D01*
X194968369Y-121105750D01*
X194968368Y-121105745D01*
X194953228Y-121062478D01*
X194908789Y-120935478D01*
X194892615Y-120909738D01*
X194812815Y-120782737D01*
X194685262Y-120655184D01*
X194532523Y-120559211D01*
X194429027Y-120522996D01*
X197314435Y-120522996D01*
X197314435Y-120523003D01*
X197334630Y-120702249D01*
X197334631Y-120702254D01*
X197394211Y-120872523D01*
X197433769Y-120935478D01*
X197490184Y-121025262D01*
X197617738Y-121152816D01*
X197770478Y-121248789D01*
X197873952Y-121284996D01*
X197940745Y-121308368D01*
X197940750Y-121308369D01*
X198119996Y-121328565D01*
X198120000Y-121328565D01*
X198120004Y-121328565D01*
X198299249Y-121308369D01*
X198299252Y-121308368D01*
X198299255Y-121308368D01*
X198469522Y-121248789D01*
X198622262Y-121152816D01*
X198749816Y-121025262D01*
X198845789Y-120872522D01*
X198905368Y-120702255D01*
X198913889Y-120626630D01*
X198925565Y-120523003D01*
X198925565Y-120522996D01*
X198905369Y-120343750D01*
X198905368Y-120343745D01*
X198845788Y-120173476D01*
X198803257Y-120105789D01*
X198749816Y-120020738D01*
X198622262Y-119893184D01*
X198604880Y-119882262D01*
X198469523Y-119797211D01*
X198299254Y-119737631D01*
X198299249Y-119737630D01*
X198120004Y-119717435D01*
X198119996Y-119717435D01*
X197940750Y-119737630D01*
X197940745Y-119737631D01*
X197770476Y-119797211D01*
X197617737Y-119893184D01*
X197490184Y-120020737D01*
X197394211Y-120173476D01*
X197334631Y-120343745D01*
X197334630Y-120343750D01*
X197314435Y-120522996D01*
X194429027Y-120522996D01*
X194362254Y-120499631D01*
X194362249Y-120499630D01*
X194183004Y-120479435D01*
X194182996Y-120479435D01*
X194003750Y-120499630D01*
X194003745Y-120499631D01*
X193833476Y-120559211D01*
X193680737Y-120655184D01*
X193553184Y-120782737D01*
X193457211Y-120935476D01*
X193397631Y-121105745D01*
X193397630Y-121105750D01*
X193377435Y-121284996D01*
X185666027Y-121284996D01*
X185599254Y-121261631D01*
X185599249Y-121261630D01*
X185420004Y-121241435D01*
X185419996Y-121241435D01*
X185240750Y-121261630D01*
X185240745Y-121261631D01*
X185070476Y-121321211D01*
X184917737Y-121417184D01*
X184790184Y-121544737D01*
X184694211Y-121697476D01*
X184634631Y-121867745D01*
X184634630Y-121867750D01*
X184614435Y-122046996D01*
X184136018Y-122046996D01*
X184144262Y-122041816D01*
X184271816Y-121914262D01*
X184367789Y-121761522D01*
X184427368Y-121591255D01*
X184432609Y-121544738D01*
X184447565Y-121412003D01*
X184447565Y-121411996D01*
X184427369Y-121232750D01*
X184427368Y-121232745D01*
X184402334Y-121161203D01*
X184367789Y-121062478D01*
X184271816Y-120909738D01*
X184144262Y-120782184D01*
X183991523Y-120686211D01*
X183821254Y-120626631D01*
X183821249Y-120626630D01*
X183642004Y-120606435D01*
X183641996Y-120606435D01*
X183462750Y-120626630D01*
X183462745Y-120626631D01*
X183292476Y-120686211D01*
X183139737Y-120782184D01*
X183012184Y-120909737D01*
X182916211Y-121062476D01*
X182856631Y-121232745D01*
X182856630Y-121232750D01*
X182836435Y-121411996D01*
X182836435Y-121412003D01*
X182856630Y-121591249D01*
X182856631Y-121591254D01*
X182916211Y-121761522D01*
X182916694Y-121762291D01*
X182916855Y-121762862D01*
X182919231Y-121767795D01*
X182918366Y-121768211D01*
X182935690Y-121829529D01*
X182915320Y-121896363D01*
X182862051Y-121941575D01*
X182792794Y-121950810D01*
X182741081Y-121930187D01*
X182408676Y-121699895D01*
X182404174Y-121696624D01*
X181700969Y-121161203D01*
X181696618Y-121157734D01*
X181018115Y-120591280D01*
X181013925Y-120587619D01*
X180982845Y-120559211D01*
X180361531Y-119991304D01*
X180357509Y-119987458D01*
X179750047Y-119379996D01*
X187408435Y-119379996D01*
X187408435Y-119380003D01*
X187428630Y-119559249D01*
X187428631Y-119559254D01*
X187488211Y-119729523D01*
X187530743Y-119797211D01*
X187584184Y-119882262D01*
X187711738Y-120009816D01*
X187864478Y-120105789D01*
X188034745Y-120165368D01*
X188034750Y-120165369D01*
X188213996Y-120185565D01*
X188214000Y-120185565D01*
X188214004Y-120185565D01*
X188393249Y-120165369D01*
X188393252Y-120165368D01*
X188393255Y-120165368D01*
X188563522Y-120105789D01*
X188716262Y-120009816D01*
X188843816Y-119882262D01*
X188939789Y-119729522D01*
X188999368Y-119559255D01*
X188999369Y-119559249D01*
X189019565Y-119380003D01*
X189019565Y-119379996D01*
X188999369Y-119200750D01*
X188999368Y-119200745D01*
X188971206Y-119120262D01*
X188939789Y-119030478D01*
X188843816Y-118877738D01*
X188716262Y-118750184D01*
X188563523Y-118654211D01*
X188460027Y-118617996D01*
X200616435Y-118617996D01*
X200616435Y-118618003D01*
X200636630Y-118797249D01*
X200636631Y-118797254D01*
X200696211Y-118967523D01*
X200735769Y-119030478D01*
X200792184Y-119120262D01*
X200919738Y-119247816D01*
X201072478Y-119343789D01*
X201175952Y-119379996D01*
X201242745Y-119403368D01*
X201242750Y-119403369D01*
X201421996Y-119423565D01*
X201422000Y-119423565D01*
X201422004Y-119423565D01*
X201601249Y-119403369D01*
X201601252Y-119403368D01*
X201601255Y-119403368D01*
X201771522Y-119343789D01*
X201924262Y-119247816D01*
X202051816Y-119120262D01*
X202147789Y-118967522D01*
X202207368Y-118797255D01*
X202217642Y-118706074D01*
X202227565Y-118618003D01*
X202227565Y-118617996D01*
X202207369Y-118438750D01*
X202207368Y-118438745D01*
X202147788Y-118268476D01*
X202051815Y-118115737D01*
X201924262Y-117988184D01*
X201771523Y-117892211D01*
X201601254Y-117832631D01*
X201601249Y-117832630D01*
X201422004Y-117812435D01*
X201421996Y-117812435D01*
X201242750Y-117832630D01*
X201242745Y-117832631D01*
X201072476Y-117892211D01*
X200919737Y-117988184D01*
X200792184Y-118115737D01*
X200696211Y-118268476D01*
X200636631Y-118438745D01*
X200636630Y-118438750D01*
X200616435Y-118617996D01*
X188460027Y-118617996D01*
X188393254Y-118594631D01*
X188393249Y-118594630D01*
X188214004Y-118574435D01*
X188213996Y-118574435D01*
X188034750Y-118594630D01*
X188034745Y-118594631D01*
X187864476Y-118654211D01*
X187711737Y-118750184D01*
X187584184Y-118877737D01*
X187488211Y-119030476D01*
X187428631Y-119200745D01*
X187428630Y-119200750D01*
X187408435Y-119379996D01*
X179750047Y-119379996D01*
X179732541Y-119362490D01*
X179728695Y-119358468D01*
X179215718Y-118797249D01*
X179132376Y-118706069D01*
X179128719Y-118701884D01*
X179095058Y-118661565D01*
X178562263Y-118023379D01*
X178558796Y-118019030D01*
X178434662Y-117855996D01*
X179534435Y-117855996D01*
X179534435Y-117856003D01*
X179554630Y-118035249D01*
X179554631Y-118035254D01*
X179614211Y-118205523D01*
X179653769Y-118268478D01*
X179710184Y-118358262D01*
X179837738Y-118485816D01*
X179990478Y-118581789D01*
X180093952Y-118617996D01*
X180160745Y-118641368D01*
X180160750Y-118641369D01*
X180339996Y-118661565D01*
X180340000Y-118661565D01*
X180340004Y-118661565D01*
X180519249Y-118641369D01*
X180519252Y-118641368D01*
X180519255Y-118641368D01*
X180689522Y-118581789D01*
X180842262Y-118485816D01*
X180969816Y-118358262D01*
X181065789Y-118205522D01*
X181125368Y-118035255D01*
X181126706Y-118023381D01*
X181145565Y-117856003D01*
X181145565Y-117855996D01*
X181125369Y-117676750D01*
X181125368Y-117676745D01*
X181065788Y-117506476D01*
X180980894Y-117371369D01*
X180969816Y-117353738D01*
X180842262Y-117226184D01*
X180689523Y-117130211D01*
X180519254Y-117070631D01*
X180519249Y-117070630D01*
X180340004Y-117050435D01*
X180339996Y-117050435D01*
X180160750Y-117070630D01*
X180160745Y-117070631D01*
X179990476Y-117130211D01*
X179837737Y-117226184D01*
X179710184Y-117353737D01*
X179614211Y-117506476D01*
X179554631Y-117676745D01*
X179554630Y-117676750D01*
X179534435Y-117855996D01*
X178434662Y-117855996D01*
X178023375Y-117315825D01*
X178020104Y-117311323D01*
X177516765Y-116584798D01*
X177513699Y-116580154D01*
X177277972Y-116204996D01*
X200997435Y-116204996D01*
X200997435Y-116205003D01*
X201017630Y-116384249D01*
X201017631Y-116384254D01*
X201077211Y-116554523D01*
X201173184Y-116707262D01*
X201300738Y-116834816D01*
X201453478Y-116930789D01*
X201623745Y-116990368D01*
X201623750Y-116990369D01*
X201802996Y-117010565D01*
X201803000Y-117010565D01*
X201803004Y-117010565D01*
X201982249Y-116990369D01*
X201982252Y-116990368D01*
X201982255Y-116990368D01*
X202152522Y-116930789D01*
X202305262Y-116834816D01*
X202432816Y-116707262D01*
X202509013Y-116585996D01*
X203410435Y-116585996D01*
X203410435Y-116586003D01*
X203430630Y-116765249D01*
X203430631Y-116765254D01*
X203490211Y-116935523D01*
X203562416Y-117050435D01*
X203586184Y-117088262D01*
X203713738Y-117215816D01*
X203866478Y-117311789D01*
X204036745Y-117371368D01*
X204036750Y-117371369D01*
X204215996Y-117391565D01*
X204216000Y-117391565D01*
X204216004Y-117391565D01*
X204395249Y-117371369D01*
X204395252Y-117371368D01*
X204395255Y-117371368D01*
X204565522Y-117311789D01*
X204718262Y-117215816D01*
X204845816Y-117088262D01*
X204941789Y-116935522D01*
X205001368Y-116765255D01*
X205001369Y-116765249D01*
X205021565Y-116586003D01*
X205021565Y-116585996D01*
X205001369Y-116406750D01*
X205001368Y-116406745D01*
X204941788Y-116236476D01*
X204845815Y-116083737D01*
X204718262Y-115956184D01*
X204565523Y-115860211D01*
X204395254Y-115800631D01*
X204395249Y-115800630D01*
X204216004Y-115780435D01*
X204215996Y-115780435D01*
X204036750Y-115800630D01*
X204036745Y-115800631D01*
X203866476Y-115860211D01*
X203713737Y-115956184D01*
X203586184Y-116083737D01*
X203490211Y-116236476D01*
X203430631Y-116406745D01*
X203430630Y-116406750D01*
X203410435Y-116585996D01*
X202509013Y-116585996D01*
X202528789Y-116554522D01*
X202588368Y-116384255D01*
X202588369Y-116384249D01*
X202608565Y-116205003D01*
X202608565Y-116204996D01*
X202588369Y-116025750D01*
X202588368Y-116025745D01*
X202528789Y-115855478D01*
X202512407Y-115829407D01*
X202432815Y-115702737D01*
X202305262Y-115575184D01*
X202152523Y-115479211D01*
X201982254Y-115419631D01*
X201982249Y-115419630D01*
X201803004Y-115399435D01*
X201802996Y-115399435D01*
X201623750Y-115419630D01*
X201623745Y-115419631D01*
X201453476Y-115479211D01*
X201300737Y-115575184D01*
X201173184Y-115702737D01*
X201077211Y-115855476D01*
X201017631Y-116025745D01*
X201017630Y-116025750D01*
X200997435Y-116204996D01*
X177277972Y-116204996D01*
X177043450Y-115831757D01*
X177040599Y-115826984D01*
X177025646Y-115800632D01*
X176604412Y-115058263D01*
X176601775Y-115053363D01*
X176393596Y-114644789D01*
X176200496Y-114265808D01*
X176198100Y-114260833D01*
X176042830Y-113918996D01*
X191853435Y-113918996D01*
X191853435Y-113919003D01*
X191873630Y-114098249D01*
X191873631Y-114098254D01*
X191933211Y-114268523D01*
X192013010Y-114395522D01*
X192029184Y-114421262D01*
X192156738Y-114548816D01*
X192309478Y-114644789D01*
X192398148Y-114675816D01*
X192479745Y-114704368D01*
X192479750Y-114704369D01*
X192658996Y-114724565D01*
X192659000Y-114724565D01*
X192659004Y-114724565D01*
X192838249Y-114704369D01*
X192838252Y-114704368D01*
X192838255Y-114704368D01*
X193008522Y-114644789D01*
X193161262Y-114548816D01*
X193288816Y-114421262D01*
X193384789Y-114268522D01*
X193444368Y-114098255D01*
X193444369Y-114098249D01*
X193450256Y-114045996D01*
X208236435Y-114045996D01*
X208236435Y-114046003D01*
X208256630Y-114225249D01*
X208256631Y-114225254D01*
X208316211Y-114395523D01*
X208360004Y-114465218D01*
X208412184Y-114548262D01*
X208539738Y-114675816D01*
X208692478Y-114771789D01*
X208862745Y-114831368D01*
X208862750Y-114831369D01*
X209041996Y-114851565D01*
X209042000Y-114851565D01*
X209042004Y-114851565D01*
X209221249Y-114831369D01*
X209221252Y-114831368D01*
X209221255Y-114831368D01*
X209391522Y-114771789D01*
X209544262Y-114675816D01*
X209671816Y-114548262D01*
X209767789Y-114395522D01*
X209827368Y-114225255D01*
X209827369Y-114225249D01*
X209847565Y-114046003D01*
X209847565Y-114045996D01*
X209827369Y-113866750D01*
X209827368Y-113866745D01*
X209767789Y-113696478D01*
X209671816Y-113543738D01*
X209544262Y-113416184D01*
X209391523Y-113320211D01*
X209221254Y-113260631D01*
X209221249Y-113260630D01*
X209042004Y-113240435D01*
X209041996Y-113240435D01*
X208862750Y-113260630D01*
X208862745Y-113260631D01*
X208692476Y-113320211D01*
X208539737Y-113416184D01*
X208412184Y-113543737D01*
X208316211Y-113696476D01*
X208256631Y-113866745D01*
X208256630Y-113866750D01*
X208236435Y-114045996D01*
X193450256Y-114045996D01*
X193464565Y-113919003D01*
X193464565Y-113918996D01*
X193444369Y-113739750D01*
X193444368Y-113739745D01*
X193429228Y-113696478D01*
X193384789Y-113569478D01*
X193368615Y-113543738D01*
X193288815Y-113416737D01*
X193161262Y-113289184D01*
X193008523Y-113193211D01*
X192838254Y-113133631D01*
X192838249Y-113133630D01*
X192659004Y-113113435D01*
X192658996Y-113113435D01*
X192479750Y-113133630D01*
X192479745Y-113133631D01*
X192309476Y-113193211D01*
X192156737Y-113289184D01*
X192029184Y-113416737D01*
X191933211Y-113569476D01*
X191873631Y-113739745D01*
X191873630Y-113739750D01*
X191853435Y-113918996D01*
X176042830Y-113918996D01*
X175872380Y-113543738D01*
X175832569Y-113456091D01*
X175830382Y-113450974D01*
X175501337Y-112630675D01*
X175499382Y-112625466D01*
X175207449Y-111791173D01*
X175205737Y-111785905D01*
X174951536Y-110939374D01*
X174950056Y-110934010D01*
X174870175Y-110616996D01*
X177629435Y-110616996D01*
X177629435Y-110617003D01*
X177649630Y-110796249D01*
X177649631Y-110796254D01*
X177709211Y-110966523D01*
X177805184Y-111119262D01*
X177932738Y-111246816D01*
X178085478Y-111342789D01*
X178188952Y-111378996D01*
X178255745Y-111402368D01*
X178255750Y-111402369D01*
X178434996Y-111422565D01*
X178435000Y-111422565D01*
X178435004Y-111422565D01*
X178524423Y-111412490D01*
X178593244Y-111424545D01*
X178644624Y-111471894D01*
X178661526Y-111521824D01*
X178665630Y-111558249D01*
X178725210Y-111728521D01*
X178764577Y-111791173D01*
X178821184Y-111881262D01*
X178948738Y-112008816D01*
X179101478Y-112104789D01*
X179271745Y-112164368D01*
X179271750Y-112164369D01*
X179450996Y-112184565D01*
X179451000Y-112184565D01*
X179451004Y-112184565D01*
X179630249Y-112164369D01*
X179630252Y-112164368D01*
X179630255Y-112164368D01*
X179800522Y-112104789D01*
X179953262Y-112008816D01*
X180080816Y-111881262D01*
X180176789Y-111728522D01*
X180236368Y-111558255D01*
X180240473Y-111521824D01*
X180256565Y-111379003D01*
X180256565Y-111378996D01*
X180242256Y-111251996D01*
X188805435Y-111251996D01*
X188805435Y-111252003D01*
X188825630Y-111431249D01*
X188825631Y-111431254D01*
X188885211Y-111601523D01*
X188965010Y-111728521D01*
X188981184Y-111754262D01*
X189108738Y-111881816D01*
X189261478Y-111977789D01*
X189350148Y-112008816D01*
X189431745Y-112037368D01*
X189431750Y-112037369D01*
X189610996Y-112057565D01*
X189611000Y-112057565D01*
X189611004Y-112057565D01*
X189790249Y-112037369D01*
X189790252Y-112037368D01*
X189790255Y-112037368D01*
X189960522Y-111977789D01*
X190113262Y-111881816D01*
X190240816Y-111754262D01*
X190336789Y-111601522D01*
X190396368Y-111431255D01*
X190397347Y-111422565D01*
X190416565Y-111252003D01*
X190416565Y-111251996D01*
X190396369Y-111072750D01*
X190396368Y-111072745D01*
X190381228Y-111029478D01*
X190336789Y-110902478D01*
X190320615Y-110876738D01*
X190297582Y-110840080D01*
X190240816Y-110749738D01*
X190113262Y-110622184D01*
X189960523Y-110526211D01*
X189790254Y-110466631D01*
X189790249Y-110466630D01*
X189611004Y-110446435D01*
X189610996Y-110446435D01*
X189431750Y-110466630D01*
X189431745Y-110466631D01*
X189261476Y-110526211D01*
X189108737Y-110622184D01*
X188981184Y-110749737D01*
X188885211Y-110902476D01*
X188825631Y-111072745D01*
X188825630Y-111072750D01*
X188805435Y-111251996D01*
X180242256Y-111251996D01*
X180236369Y-111199750D01*
X180236368Y-111199745D01*
X180208206Y-111119262D01*
X180176789Y-111029478D01*
X180080816Y-110876738D01*
X179953262Y-110749184D01*
X179800523Y-110653211D01*
X179630254Y-110593631D01*
X179630249Y-110593630D01*
X179451004Y-110573435D01*
X179450996Y-110573435D01*
X179361575Y-110583510D01*
X179292753Y-110571455D01*
X179241374Y-110524106D01*
X179224472Y-110474174D01*
X179220368Y-110437745D01*
X179160789Y-110267478D01*
X179064816Y-110114738D01*
X178937262Y-109987184D01*
X178784523Y-109891211D01*
X178614254Y-109831631D01*
X178614249Y-109831630D01*
X178435004Y-109811435D01*
X178434996Y-109811435D01*
X178255750Y-109831630D01*
X178255745Y-109831631D01*
X178085476Y-109891211D01*
X177932737Y-109987184D01*
X177805184Y-110114737D01*
X177709211Y-110267476D01*
X177649631Y-110437745D01*
X177649630Y-110437750D01*
X177629435Y-110616996D01*
X174870175Y-110616996D01*
X174832287Y-110466632D01*
X174734098Y-110076963D01*
X174732861Y-110071544D01*
X174693247Y-109878069D01*
X174699084Y-109808444D01*
X174741637Y-109753027D01*
X174807396Y-109729413D01*
X174875482Y-109745099D01*
X174883615Y-109750092D01*
X174967769Y-109806322D01*
X175140749Y-109877973D01*
X175324379Y-109914499D01*
X175324383Y-109914500D01*
X175324384Y-109914500D01*
X176211617Y-109914500D01*
X176211618Y-109914499D01*
X176395251Y-109877973D01*
X176568231Y-109806322D01*
X176723908Y-109702302D01*
X176856302Y-109569908D01*
X176960322Y-109414231D01*
X177031973Y-109241251D01*
X177068500Y-109057616D01*
X177068500Y-108870384D01*
X177031973Y-108686749D01*
X176960322Y-108513769D01*
X176960321Y-108513768D01*
X176960318Y-108513762D01*
X176856302Y-108358092D01*
X176856299Y-108358088D01*
X176723911Y-108225700D01*
X176723907Y-108225697D01*
X176568237Y-108121681D01*
X176568228Y-108121676D01*
X176395251Y-108050027D01*
X176395243Y-108050025D01*
X176211620Y-108013500D01*
X176211616Y-108013500D01*
X175324384Y-108013500D01*
X175324379Y-108013500D01*
X175140756Y-108050025D01*
X175140748Y-108050027D01*
X174967771Y-108121676D01*
X174967762Y-108121681D01*
X174812092Y-108225697D01*
X174812088Y-108225700D01*
X174679700Y-108358088D01*
X174679697Y-108358092D01*
X174646748Y-108407404D01*
X174593135Y-108452209D01*
X174523810Y-108460916D01*
X174460783Y-108430761D01*
X174424064Y-108371318D01*
X174421173Y-108357913D01*
X174420612Y-108354369D01*
X174416300Y-108327149D01*
X174415562Y-108321697D01*
X174373681Y-107949996D01*
X183471435Y-107949996D01*
X183471435Y-107950003D01*
X183491630Y-108129249D01*
X183491631Y-108129254D01*
X183551211Y-108299523D01*
X183633674Y-108430761D01*
X183647184Y-108452262D01*
X183774738Y-108579816D01*
X183927478Y-108675789D01*
X184097745Y-108735368D01*
X184097750Y-108735369D01*
X184276996Y-108755565D01*
X184277000Y-108755565D01*
X184277004Y-108755565D01*
X184456249Y-108735369D01*
X184456252Y-108735368D01*
X184456255Y-108735368D01*
X184626522Y-108675789D01*
X184779262Y-108579816D01*
X184906816Y-108452262D01*
X185002789Y-108299522D01*
X185062368Y-108129255D01*
X185062369Y-108129249D01*
X185082565Y-107950003D01*
X185082565Y-107949996D01*
X185062369Y-107770750D01*
X185062368Y-107770745D01*
X185036215Y-107696003D01*
X185036213Y-107695996D01*
X189948435Y-107695996D01*
X189948435Y-107696003D01*
X189968630Y-107875249D01*
X189968631Y-107875254D01*
X190028211Y-108045523D01*
X190076063Y-108121678D01*
X190124184Y-108198262D01*
X190251738Y-108325816D01*
X190404478Y-108421789D01*
X190491565Y-108452262D01*
X190574745Y-108481368D01*
X190574750Y-108481369D01*
X190753996Y-108501565D01*
X190754000Y-108501565D01*
X190754004Y-108501565D01*
X190933249Y-108481369D01*
X190933252Y-108481368D01*
X190933255Y-108481368D01*
X191103522Y-108421789D01*
X191256262Y-108325816D01*
X191383816Y-108198262D01*
X191479789Y-108045522D01*
X191539368Y-107875255D01*
X191542738Y-107845344D01*
X191559565Y-107696003D01*
X191559565Y-107695996D01*
X191545256Y-107568996D01*
X193250435Y-107568996D01*
X193250435Y-107569003D01*
X193270630Y-107748249D01*
X193270631Y-107748254D01*
X193330211Y-107918523D01*
X193410010Y-108045522D01*
X193426184Y-108071262D01*
X193553738Y-108198816D01*
X193596524Y-108225700D01*
X193657450Y-108263983D01*
X193706478Y-108294789D01*
X193799069Y-108327188D01*
X193876745Y-108354368D01*
X193876750Y-108354369D01*
X194055996Y-108374565D01*
X194056000Y-108374565D01*
X194056004Y-108374565D01*
X194235249Y-108354369D01*
X194235252Y-108354368D01*
X194235255Y-108354368D01*
X194405522Y-108294789D01*
X194558262Y-108198816D01*
X194685816Y-108071262D01*
X194781789Y-107918522D01*
X194841368Y-107748255D01*
X194841369Y-107748249D01*
X194861565Y-107569003D01*
X194861565Y-107568996D01*
X194841369Y-107389750D01*
X194841368Y-107389745D01*
X194826228Y-107346478D01*
X194781789Y-107219478D01*
X194765615Y-107193738D01*
X194698200Y-107086447D01*
X194685816Y-107066738D01*
X194558262Y-106939184D01*
X194405523Y-106843211D01*
X194235254Y-106783631D01*
X194235249Y-106783630D01*
X194056004Y-106763435D01*
X194055996Y-106763435D01*
X193876750Y-106783630D01*
X193876745Y-106783631D01*
X193706476Y-106843211D01*
X193553737Y-106939184D01*
X193426184Y-107066737D01*
X193330211Y-107219476D01*
X193270631Y-107389745D01*
X193270630Y-107389750D01*
X193250435Y-107568996D01*
X191545256Y-107568996D01*
X191539369Y-107516750D01*
X191539368Y-107516745D01*
X191511755Y-107437831D01*
X191479789Y-107346478D01*
X191463267Y-107320184D01*
X191440582Y-107284080D01*
X191383816Y-107193738D01*
X191256262Y-107066184D01*
X191103523Y-106970211D01*
X190933254Y-106910631D01*
X190933249Y-106910630D01*
X190754004Y-106890435D01*
X190753996Y-106890435D01*
X190574750Y-106910630D01*
X190574745Y-106910631D01*
X190404476Y-106970211D01*
X190251737Y-107066184D01*
X190124184Y-107193737D01*
X190028211Y-107346476D01*
X189968631Y-107516745D01*
X189968630Y-107516750D01*
X189948435Y-107695996D01*
X185036213Y-107695996D01*
X185002789Y-107600478D01*
X184906816Y-107447738D01*
X184779262Y-107320184D01*
X184626523Y-107224211D01*
X184456254Y-107164631D01*
X184456249Y-107164630D01*
X184277004Y-107144435D01*
X184276996Y-107144435D01*
X184097750Y-107164630D01*
X184097745Y-107164631D01*
X183927476Y-107224211D01*
X183774737Y-107320184D01*
X183647184Y-107447737D01*
X183551211Y-107600476D01*
X183491631Y-107770745D01*
X183491630Y-107770750D01*
X183471435Y-107949996D01*
X174373681Y-107949996D01*
X174316594Y-107443335D01*
X174316102Y-107437871D01*
X174256642Y-106555951D01*
X174256395Y-106550455D01*
X174236562Y-105666762D01*
X174236562Y-105661218D01*
X174239350Y-105536996D01*
X179407435Y-105536996D01*
X179407435Y-105537003D01*
X179427630Y-105716249D01*
X179427631Y-105716254D01*
X179487211Y-105886523D01*
X179551078Y-105988166D01*
X179583184Y-106039262D01*
X179710738Y-106166816D01*
X179801080Y-106223582D01*
X179829679Y-106241552D01*
X179863478Y-106262789D01*
X179952148Y-106293816D01*
X180033745Y-106322368D01*
X180033750Y-106322369D01*
X180212996Y-106342565D01*
X180213000Y-106342565D01*
X180213004Y-106342565D01*
X180392249Y-106322369D01*
X180392252Y-106322368D01*
X180392255Y-106322368D01*
X180562522Y-106262789D01*
X180715262Y-106166816D01*
X180842816Y-106039262D01*
X180938789Y-105886522D01*
X180998368Y-105716255D01*
X181000709Y-105695478D01*
X181004256Y-105663996D01*
X184995435Y-105663996D01*
X184995435Y-105664003D01*
X185015630Y-105843249D01*
X185015631Y-105843254D01*
X185075211Y-106013523D01*
X185155010Y-106140522D01*
X185171184Y-106166262D01*
X185298738Y-106293816D01*
X185451478Y-106389789D01*
X185540148Y-106420816D01*
X185621745Y-106449368D01*
X185621750Y-106449369D01*
X185800996Y-106469565D01*
X185801000Y-106469565D01*
X185801004Y-106469565D01*
X185980249Y-106449369D01*
X185980252Y-106449368D01*
X185980255Y-106449368D01*
X186150522Y-106389789D01*
X186303262Y-106293816D01*
X186430816Y-106166262D01*
X186526789Y-106013522D01*
X186586368Y-105843255D01*
X186586369Y-105843249D01*
X186592256Y-105790996D01*
X189313435Y-105790996D01*
X189313435Y-105791003D01*
X189333630Y-105970249D01*
X189333631Y-105970254D01*
X189393211Y-106140523D01*
X189489184Y-106293262D01*
X189616738Y-106420816D01*
X189769478Y-106516789D01*
X189873532Y-106553199D01*
X189939745Y-106576368D01*
X189939750Y-106576369D01*
X190118996Y-106596565D01*
X190119000Y-106596565D01*
X190119004Y-106596565D01*
X190298249Y-106576369D01*
X190298251Y-106576368D01*
X190298255Y-106576368D01*
X190298258Y-106576366D01*
X190298262Y-106576366D01*
X190458565Y-106520273D01*
X190528344Y-106516710D01*
X190565493Y-106532321D01*
X190569277Y-106534699D01*
X190739547Y-106594279D01*
X190739552Y-106594280D01*
X190918798Y-106614476D01*
X190918802Y-106614476D01*
X190918806Y-106614476D01*
X191098051Y-106594280D01*
X191098054Y-106594279D01*
X191098057Y-106594279D01*
X191268324Y-106534700D01*
X191421064Y-106438727D01*
X191548618Y-106311173D01*
X191644591Y-106158433D01*
X191684284Y-106044996D01*
X196933435Y-106044996D01*
X196933435Y-106045003D01*
X196953630Y-106224249D01*
X196953631Y-106224254D01*
X197013211Y-106394523D01*
X197092226Y-106520273D01*
X197109184Y-106547262D01*
X197236738Y-106674816D01*
X197389478Y-106770789D01*
X197476565Y-106801262D01*
X197559745Y-106830368D01*
X197559750Y-106830369D01*
X197738996Y-106850565D01*
X197739000Y-106850565D01*
X197739004Y-106850565D01*
X197918249Y-106830369D01*
X197918252Y-106830368D01*
X197918255Y-106830368D01*
X198088522Y-106770789D01*
X198241262Y-106674816D01*
X198368816Y-106547262D01*
X198464789Y-106394522D01*
X198498215Y-106298996D01*
X200235435Y-106298996D01*
X200235435Y-106299003D01*
X200255630Y-106478249D01*
X200255631Y-106478254D01*
X200315211Y-106648523D01*
X200400105Y-106783630D01*
X200411184Y-106801262D01*
X200538738Y-106928816D01*
X200691478Y-107024789D01*
X200861745Y-107084368D01*
X200861750Y-107084369D01*
X201040996Y-107104565D01*
X201041000Y-107104565D01*
X201041004Y-107104565D01*
X201220249Y-107084369D01*
X201220252Y-107084368D01*
X201220255Y-107084368D01*
X201390522Y-107024789D01*
X201543262Y-106928816D01*
X201670816Y-106801262D01*
X201766789Y-106648522D01*
X201826368Y-106478255D01*
X201834475Y-106406302D01*
X201846565Y-106299003D01*
X201846565Y-106298996D01*
X201826369Y-106119750D01*
X201826368Y-106119745D01*
X201800215Y-106045003D01*
X201766789Y-105949478D01*
X201765275Y-105947069D01*
X201714176Y-105865745D01*
X201670816Y-105796738D01*
X201543262Y-105669184D01*
X201539439Y-105666782D01*
X201390523Y-105573211D01*
X201220254Y-105513631D01*
X201220249Y-105513630D01*
X201041004Y-105493435D01*
X201040996Y-105493435D01*
X200861750Y-105513630D01*
X200861745Y-105513631D01*
X200691476Y-105573211D01*
X200538737Y-105669184D01*
X200411184Y-105796737D01*
X200315211Y-105949476D01*
X200255631Y-106119745D01*
X200255630Y-106119750D01*
X200235435Y-106298996D01*
X198498215Y-106298996D01*
X198524368Y-106224255D01*
X198530840Y-106166815D01*
X198544565Y-106045003D01*
X198544565Y-106044996D01*
X198524369Y-105865750D01*
X198524368Y-105865745D01*
X198516496Y-105843249D01*
X198464789Y-105695478D01*
X198448267Y-105669184D01*
X198387963Y-105573211D01*
X198368816Y-105542738D01*
X198241262Y-105415184D01*
X198186744Y-105380928D01*
X198088523Y-105319211D01*
X197918254Y-105259631D01*
X197918249Y-105259630D01*
X197739004Y-105239435D01*
X197738996Y-105239435D01*
X197559750Y-105259630D01*
X197559745Y-105259631D01*
X197389476Y-105319211D01*
X197236737Y-105415184D01*
X197109184Y-105542737D01*
X197013211Y-105695476D01*
X196953631Y-105865745D01*
X196953630Y-105865750D01*
X196933435Y-106044996D01*
X191684284Y-106044996D01*
X191704170Y-105988166D01*
X191706188Y-105970255D01*
X191724367Y-105808914D01*
X191724367Y-105808907D01*
X191704171Y-105629661D01*
X191704170Y-105629656D01*
X191644590Y-105459387D01*
X191548617Y-105306648D01*
X191421064Y-105179095D01*
X191268325Y-105083122D01*
X191098056Y-105023542D01*
X191098051Y-105023541D01*
X190918806Y-105003346D01*
X190918798Y-105003346D01*
X190739552Y-105023541D01*
X190739544Y-105023543D01*
X190579234Y-105079638D01*
X190509455Y-105083199D01*
X190472310Y-105067591D01*
X190468519Y-105065209D01*
X190298262Y-105005633D01*
X190298249Y-105005630D01*
X190119004Y-104985435D01*
X190118996Y-104985435D01*
X189939750Y-105005630D01*
X189939745Y-105005631D01*
X189769476Y-105065211D01*
X189616737Y-105161184D01*
X189489184Y-105288737D01*
X189393211Y-105441476D01*
X189333631Y-105611745D01*
X189333630Y-105611750D01*
X189313435Y-105790996D01*
X186592256Y-105790996D01*
X186606565Y-105664003D01*
X186606565Y-105663996D01*
X186586369Y-105484750D01*
X186586368Y-105484745D01*
X186571228Y-105441478D01*
X186526789Y-105314478D01*
X186510615Y-105288738D01*
X186479636Y-105239435D01*
X186430816Y-105161738D01*
X186303262Y-105034184D01*
X186286324Y-105023541D01*
X186150523Y-104938211D01*
X185980254Y-104878631D01*
X185980249Y-104878630D01*
X185801004Y-104858435D01*
X185800996Y-104858435D01*
X185621750Y-104878630D01*
X185621745Y-104878631D01*
X185451476Y-104938211D01*
X185298737Y-105034184D01*
X185171184Y-105161737D01*
X185075211Y-105314476D01*
X185015631Y-105484745D01*
X185015630Y-105484750D01*
X184995435Y-105663996D01*
X181004256Y-105663996D01*
X181018565Y-105537003D01*
X181018565Y-105536996D01*
X180998369Y-105357750D01*
X180998368Y-105357745D01*
X180983228Y-105314478D01*
X180938789Y-105187478D01*
X180922615Y-105161738D01*
X180873218Y-105083122D01*
X180842816Y-105034738D01*
X180715262Y-104907184D01*
X180669822Y-104878632D01*
X180562523Y-104811211D01*
X180392254Y-104751631D01*
X180392249Y-104751630D01*
X180213004Y-104731435D01*
X180212996Y-104731435D01*
X180033750Y-104751630D01*
X180033745Y-104751631D01*
X179863476Y-104811211D01*
X179710737Y-104907184D01*
X179583184Y-105034737D01*
X179487211Y-105187476D01*
X179427631Y-105357745D01*
X179427630Y-105357750D01*
X179407435Y-105536996D01*
X174239350Y-105536996D01*
X174256395Y-104777542D01*
X174256642Y-104772050D01*
X174316102Y-103890124D01*
X174316594Y-103884668D01*
X174359373Y-103504996D01*
X179534435Y-103504996D01*
X179534435Y-103505003D01*
X179554630Y-103684249D01*
X179554631Y-103684254D01*
X179614211Y-103854523D01*
X179710184Y-104007262D01*
X179837738Y-104134816D01*
X179990478Y-104230789D01*
X180077565Y-104261262D01*
X180160745Y-104290368D01*
X180160750Y-104290369D01*
X180339996Y-104310565D01*
X180340000Y-104310565D01*
X180340004Y-104310565D01*
X180519249Y-104290369D01*
X180519252Y-104290368D01*
X180519255Y-104290368D01*
X180689522Y-104230789D01*
X180842262Y-104134816D01*
X180969816Y-104007262D01*
X181065789Y-103854522D01*
X181125368Y-103684255D01*
X181127087Y-103668991D01*
X181154152Y-103604578D01*
X181211746Y-103565022D01*
X181281583Y-103562882D01*
X181341490Y-103598838D01*
X181355300Y-103616897D01*
X181361184Y-103626262D01*
X181488738Y-103753816D01*
X181641478Y-103849789D01*
X181730148Y-103880816D01*
X181811745Y-103909368D01*
X181811750Y-103909369D01*
X181990996Y-103929565D01*
X181991000Y-103929565D01*
X181991004Y-103929565D01*
X182170249Y-103909369D01*
X182170252Y-103909368D01*
X182170255Y-103909368D01*
X182340522Y-103849789D01*
X182493262Y-103753816D01*
X182620816Y-103626262D01*
X182716789Y-103473522D01*
X182776368Y-103303255D01*
X182776369Y-103303249D01*
X182782256Y-103250996D01*
X187027435Y-103250996D01*
X187027435Y-103251003D01*
X187047630Y-103430249D01*
X187047631Y-103430254D01*
X187107211Y-103600523D01*
X187159820Y-103684249D01*
X187203184Y-103753262D01*
X187330738Y-103880816D01*
X187376178Y-103909368D01*
X187436180Y-103947070D01*
X187483478Y-103976789D01*
X187572148Y-104007816D01*
X187653745Y-104036368D01*
X187653750Y-104036369D01*
X187832996Y-104056565D01*
X187833000Y-104056565D01*
X187833004Y-104056565D01*
X188012249Y-104036369D01*
X188012252Y-104036368D01*
X188012255Y-104036368D01*
X188182522Y-103976789D01*
X188335262Y-103880816D01*
X188457082Y-103758996D01*
X188805435Y-103758996D01*
X188805435Y-103759003D01*
X188825630Y-103938249D01*
X188825631Y-103938254D01*
X188885211Y-104108523D01*
X188968799Y-104241552D01*
X188981184Y-104261262D01*
X189108738Y-104388816D01*
X189261478Y-104484789D01*
X189425121Y-104542050D01*
X189431745Y-104544368D01*
X189431750Y-104544369D01*
X189610996Y-104564565D01*
X189611000Y-104564565D01*
X189611004Y-104564565D01*
X189790249Y-104544369D01*
X189790252Y-104544368D01*
X189790255Y-104544368D01*
X189960522Y-104484789D01*
X190113262Y-104388816D01*
X190240816Y-104261262D01*
X190336789Y-104108522D01*
X190396368Y-103938255D01*
X190399623Y-103909368D01*
X190416565Y-103759003D01*
X190416565Y-103758996D01*
X190396369Y-103579750D01*
X190396368Y-103579745D01*
X190377000Y-103524395D01*
X190336789Y-103409478D01*
X190318850Y-103380929D01*
X190317007Y-103377996D01*
X195409435Y-103377996D01*
X195409435Y-103378003D01*
X195429630Y-103557249D01*
X195429631Y-103557254D01*
X195489211Y-103727523D01*
X195569010Y-103854522D01*
X195585184Y-103880262D01*
X195712738Y-104007816D01*
X195865478Y-104103789D01*
X195954148Y-104134816D01*
X196035745Y-104163368D01*
X196035750Y-104163369D01*
X196214996Y-104183565D01*
X196215000Y-104183565D01*
X196215004Y-104183565D01*
X196394249Y-104163369D01*
X196394252Y-104163368D01*
X196394255Y-104163368D01*
X196461048Y-104139996D01*
X197822435Y-104139996D01*
X197822435Y-104140003D01*
X197842630Y-104319249D01*
X197842631Y-104319254D01*
X197902211Y-104489523D01*
X197970994Y-104598989D01*
X197998184Y-104642262D01*
X198125738Y-104769816D01*
X198278478Y-104865789D01*
X198396778Y-104907184D01*
X198448745Y-104925368D01*
X198448750Y-104925369D01*
X198627996Y-104945565D01*
X198628000Y-104945565D01*
X198628004Y-104945565D01*
X198807249Y-104925369D01*
X198807252Y-104925368D01*
X198807255Y-104925368D01*
X198977522Y-104865789D01*
X199130262Y-104769816D01*
X199257816Y-104642262D01*
X199285006Y-104598988D01*
X199337341Y-104552698D01*
X199406394Y-104542050D01*
X199470243Y-104570425D01*
X199494993Y-104598987D01*
X199522184Y-104642262D01*
X199649738Y-104769816D01*
X199802478Y-104865789D01*
X199920778Y-104907184D01*
X199972745Y-104925368D01*
X199972750Y-104925369D01*
X200151996Y-104945565D01*
X200152000Y-104945565D01*
X200152004Y-104945565D01*
X200331249Y-104925369D01*
X200331252Y-104925368D01*
X200331255Y-104925368D01*
X200501522Y-104865789D01*
X200654262Y-104769816D01*
X200781816Y-104642262D01*
X200877789Y-104489522D01*
X200937368Y-104319255D01*
X200940623Y-104290368D01*
X200957565Y-104140003D01*
X200957565Y-104139996D01*
X200937369Y-103960750D01*
X200937368Y-103960745D01*
X200910732Y-103884625D01*
X200877789Y-103790478D01*
X200852619Y-103750421D01*
X200813791Y-103688626D01*
X200781816Y-103637738D01*
X200654262Y-103510184D01*
X200501523Y-103414211D01*
X200331254Y-103354631D01*
X200331249Y-103354630D01*
X200152004Y-103334435D01*
X200151996Y-103334435D01*
X199972750Y-103354630D01*
X199972745Y-103354631D01*
X199802476Y-103414211D01*
X199649737Y-103510184D01*
X199522184Y-103637737D01*
X199522182Y-103637740D01*
X199494993Y-103681011D01*
X199442658Y-103727302D01*
X199373605Y-103737949D01*
X199309756Y-103709574D01*
X199285007Y-103681011D01*
X199257817Y-103637740D01*
X199257815Y-103637737D01*
X199130262Y-103510184D01*
X198977523Y-103414211D01*
X198807254Y-103354631D01*
X198807249Y-103354630D01*
X198628004Y-103334435D01*
X198627996Y-103334435D01*
X198448750Y-103354630D01*
X198448745Y-103354631D01*
X198278476Y-103414211D01*
X198125737Y-103510184D01*
X197998184Y-103637737D01*
X197902211Y-103790476D01*
X197842631Y-103960745D01*
X197842630Y-103960750D01*
X197822435Y-104139996D01*
X196461048Y-104139996D01*
X196564522Y-104103789D01*
X196717262Y-104007816D01*
X196844816Y-103880262D01*
X196940789Y-103727522D01*
X197000368Y-103557255D01*
X197002216Y-103540855D01*
X197020565Y-103378003D01*
X197020565Y-103377996D01*
X197000369Y-103198750D01*
X197000368Y-103198745D01*
X196985228Y-103155478D01*
X196940789Y-103028478D01*
X196925134Y-103003564D01*
X196898257Y-102960789D01*
X196844816Y-102875738D01*
X196717262Y-102748184D01*
X196671822Y-102719632D01*
X196564523Y-102652211D01*
X196394254Y-102592631D01*
X196394249Y-102592630D01*
X196258974Y-102577389D01*
X209534500Y-102577389D01*
X209534500Y-102750610D01*
X209561422Y-102920594D01*
X209561598Y-102921701D01*
X209615127Y-103086445D01*
X209693768Y-103240788D01*
X209795586Y-103380928D01*
X209918072Y-103503414D01*
X209920255Y-103505000D01*
X210001023Y-103563683D01*
X210043689Y-103619013D01*
X210049667Y-103688626D01*
X210017061Y-103750421D01*
X210001023Y-103764317D01*
X209918078Y-103824581D01*
X209918069Y-103824588D01*
X209795588Y-103947069D01*
X209795588Y-103947070D01*
X209795586Y-103947072D01*
X209751859Y-104007256D01*
X209693768Y-104087211D01*
X209615128Y-104241552D01*
X209561597Y-104406302D01*
X209540097Y-104542050D01*
X209534500Y-104577389D01*
X209534500Y-104750611D01*
X209534662Y-104751631D01*
X209559298Y-104907184D01*
X209561598Y-104921701D01*
X209615127Y-105086445D01*
X209693768Y-105240788D01*
X209795586Y-105380928D01*
X209918072Y-105503414D01*
X209932136Y-105513632D01*
X210001023Y-105563683D01*
X210043689Y-105619013D01*
X210049667Y-105688626D01*
X210017061Y-105750421D01*
X210001023Y-105764317D01*
X209918078Y-105824581D01*
X209918069Y-105824588D01*
X209795588Y-105947069D01*
X209795588Y-105947070D01*
X209795586Y-105947072D01*
X209751859Y-106007256D01*
X209693768Y-106087211D01*
X209615128Y-106241552D01*
X209561597Y-106406302D01*
X209534500Y-106577389D01*
X209534500Y-106750610D01*
X209559844Y-106910631D01*
X209561598Y-106921701D01*
X209615127Y-107086445D01*
X209693768Y-107240788D01*
X209795586Y-107380928D01*
X209795588Y-107380930D01*
X209903127Y-107488469D01*
X209936612Y-107549792D01*
X209931628Y-107619484D01*
X209889756Y-107675417D01*
X209880544Y-107681688D01*
X209816344Y-107721287D01*
X209692289Y-107845342D01*
X209600187Y-107994663D01*
X209600185Y-107994668D01*
X209581842Y-108050025D01*
X209545001Y-108161203D01*
X209545001Y-108161204D01*
X209545000Y-108161204D01*
X209534500Y-108263983D01*
X209534500Y-109064001D01*
X209534501Y-109064019D01*
X209545000Y-109166796D01*
X209545001Y-109166799D01*
X209582613Y-109280302D01*
X209600186Y-109333334D01*
X209692288Y-109482656D01*
X209816344Y-109606712D01*
X209965666Y-109698814D01*
X210132203Y-109753999D01*
X210234991Y-109764500D01*
X211585008Y-109764499D01*
X211687797Y-109753999D01*
X211854334Y-109698814D01*
X212003656Y-109606712D01*
X212127712Y-109482656D01*
X212219814Y-109333334D01*
X212274999Y-109166797D01*
X212285500Y-109064009D01*
X212285499Y-108263992D01*
X212281587Y-108225700D01*
X212274999Y-108161203D01*
X212274998Y-108161200D01*
X212245195Y-108071262D01*
X212219814Y-107994666D01*
X212127712Y-107845344D01*
X212003656Y-107721288D01*
X212003652Y-107721285D01*
X211939456Y-107681688D01*
X211892731Y-107629740D01*
X211881510Y-107560777D01*
X211909353Y-107496695D01*
X211916850Y-107488491D01*
X212024414Y-107380928D01*
X212126232Y-107240788D01*
X212204873Y-107086445D01*
X212258402Y-106921701D01*
X212285500Y-106750611D01*
X212285500Y-106577389D01*
X212258402Y-106406299D01*
X212204873Y-106241555D01*
X212126232Y-106087212D01*
X212024414Y-105947072D01*
X211901928Y-105824586D01*
X211818975Y-105764317D01*
X211776311Y-105708988D01*
X211770332Y-105639374D01*
X211802938Y-105577579D01*
X211818976Y-105563682D01*
X211901928Y-105503414D01*
X212024414Y-105380928D01*
X212126232Y-105240788D01*
X212204873Y-105086445D01*
X212258402Y-104921701D01*
X212285500Y-104750611D01*
X212285500Y-104577389D01*
X212258402Y-104406299D01*
X212204873Y-104241555D01*
X212126232Y-104087212D01*
X212024414Y-103947072D01*
X211901928Y-103824586D01*
X211818975Y-103764317D01*
X211776311Y-103708988D01*
X211770332Y-103639374D01*
X211802938Y-103577579D01*
X211818976Y-103563682D01*
X211901928Y-103503414D01*
X212024414Y-103380928D01*
X212126232Y-103240788D01*
X212204873Y-103086445D01*
X212258402Y-102921701D01*
X212285500Y-102750611D01*
X212285500Y-102577389D01*
X212258402Y-102406299D01*
X212204873Y-102241555D01*
X212126232Y-102087212D01*
X212024414Y-101947072D01*
X211901928Y-101824586D01*
X211761788Y-101722768D01*
X211607445Y-101644127D01*
X211442701Y-101590598D01*
X211442699Y-101590597D01*
X211442698Y-101590597D01*
X211311271Y-101569781D01*
X211271611Y-101563500D01*
X210548389Y-101563500D01*
X210508728Y-101569781D01*
X210377302Y-101590597D01*
X210212552Y-101644128D01*
X210058211Y-101722768D01*
X209978256Y-101780859D01*
X209918072Y-101824586D01*
X209918070Y-101824588D01*
X209918069Y-101824588D01*
X209795588Y-101947069D01*
X209795588Y-101947070D01*
X209795586Y-101947072D01*
X209751859Y-102007256D01*
X209693768Y-102087211D01*
X209615128Y-102241552D01*
X209561597Y-102406302D01*
X209534500Y-102577389D01*
X196258974Y-102577389D01*
X196215004Y-102572435D01*
X196214996Y-102572435D01*
X196035750Y-102592630D01*
X196035745Y-102592631D01*
X195865476Y-102652211D01*
X195712737Y-102748184D01*
X195585184Y-102875737D01*
X195489211Y-103028476D01*
X195429631Y-103198745D01*
X195429630Y-103198750D01*
X195409435Y-103377996D01*
X190317007Y-103377996D01*
X190277110Y-103314499D01*
X190240816Y-103256738D01*
X190113262Y-103129184D01*
X189960523Y-103033211D01*
X189790254Y-102973631D01*
X189790249Y-102973630D01*
X189611004Y-102953435D01*
X189610996Y-102953435D01*
X189431750Y-102973630D01*
X189431745Y-102973631D01*
X189261476Y-103033211D01*
X189108737Y-103129184D01*
X188981184Y-103256737D01*
X188885209Y-103409479D01*
X188858571Y-103485606D01*
X188818943Y-103540855D01*
X188826308Y-103571670D01*
X188825689Y-103579232D01*
X188805435Y-103758996D01*
X188457082Y-103758996D01*
X188462816Y-103753262D01*
X188558789Y-103600522D01*
X188585427Y-103524395D01*
X188625055Y-103469143D01*
X188617691Y-103438327D01*
X188618310Y-103430766D01*
X188618369Y-103430249D01*
X188635526Y-103277972D01*
X188638565Y-103251002D01*
X188638565Y-103250996D01*
X188618369Y-103071750D01*
X188618368Y-103071745D01*
X188603228Y-103028478D01*
X188558789Y-102901478D01*
X188542615Y-102875738D01*
X188481963Y-102779211D01*
X188462816Y-102748738D01*
X188335262Y-102621184D01*
X188289822Y-102592632D01*
X188182523Y-102525211D01*
X188012254Y-102465631D01*
X188012249Y-102465630D01*
X187833004Y-102445435D01*
X187832996Y-102445435D01*
X187653750Y-102465630D01*
X187653745Y-102465631D01*
X187483476Y-102525211D01*
X187330737Y-102621184D01*
X187203184Y-102748737D01*
X187107211Y-102901476D01*
X187047631Y-103071745D01*
X187047630Y-103071750D01*
X187027435Y-103250996D01*
X182782256Y-103250996D01*
X182796565Y-103124003D01*
X182796565Y-103123996D01*
X182776369Y-102944750D01*
X182776368Y-102944745D01*
X182761228Y-102901478D01*
X182716789Y-102774478D01*
X182701792Y-102750611D01*
X182620815Y-102621737D01*
X182493262Y-102494184D01*
X182340523Y-102398211D01*
X182170254Y-102338631D01*
X182170249Y-102338630D01*
X181991004Y-102318435D01*
X181990996Y-102318435D01*
X181811750Y-102338630D01*
X181811745Y-102338631D01*
X181641476Y-102398211D01*
X181488737Y-102494184D01*
X181361184Y-102621737D01*
X181265211Y-102774476D01*
X181205631Y-102944745D01*
X181205631Y-102944748D01*
X181203911Y-102960012D01*
X181176843Y-103024426D01*
X181119247Y-103063979D01*
X181049410Y-103066116D01*
X180989505Y-103030156D01*
X180975697Y-103012098D01*
X180969815Y-103002737D01*
X180842262Y-102875184D01*
X180689523Y-102779211D01*
X180519254Y-102719631D01*
X180519249Y-102719630D01*
X180340004Y-102699435D01*
X180339996Y-102699435D01*
X180160750Y-102719630D01*
X180160745Y-102719631D01*
X179990476Y-102779211D01*
X179837737Y-102875184D01*
X179710184Y-103002737D01*
X179614211Y-103155476D01*
X179554631Y-103325745D01*
X179554630Y-103325750D01*
X179534435Y-103504996D01*
X174359373Y-103504996D01*
X174415563Y-103006296D01*
X174416296Y-103000875D01*
X174421173Y-102970084D01*
X174451100Y-102906954D01*
X174510411Y-102870023D01*
X174580274Y-102871019D01*
X174638507Y-102909629D01*
X174646747Y-102920594D01*
X174679700Y-102969911D01*
X174812088Y-103102299D01*
X174812092Y-103102302D01*
X174967762Y-103206318D01*
X174967768Y-103206321D01*
X174967769Y-103206322D01*
X175140749Y-103277973D01*
X175324379Y-103314499D01*
X175324383Y-103314500D01*
X175324384Y-103314500D01*
X176211617Y-103314500D01*
X176211618Y-103314499D01*
X176395251Y-103277973D01*
X176568231Y-103206322D01*
X176723908Y-103102302D01*
X176856302Y-102969908D01*
X176960322Y-102814231D01*
X177031973Y-102641251D01*
X177068500Y-102457616D01*
X177068500Y-102270384D01*
X177061461Y-102234996D01*
X183598435Y-102234996D01*
X183598435Y-102235003D01*
X183618630Y-102414249D01*
X183618631Y-102414254D01*
X183678211Y-102584523D01*
X183701595Y-102621738D01*
X183774184Y-102737262D01*
X183901738Y-102864816D01*
X183990508Y-102920594D01*
X184030516Y-102945733D01*
X184054478Y-102960789D01*
X184176722Y-103003564D01*
X184224745Y-103020368D01*
X184224750Y-103020369D01*
X184403996Y-103040565D01*
X184404000Y-103040565D01*
X184404004Y-103040565D01*
X184583249Y-103020369D01*
X184583252Y-103020368D01*
X184583255Y-103020368D01*
X184753522Y-102960789D01*
X184906262Y-102864816D01*
X185033816Y-102737262D01*
X185129789Y-102584522D01*
X185189368Y-102414255D01*
X185190264Y-102406302D01*
X185209565Y-102235003D01*
X185209565Y-102234996D01*
X185189369Y-102055750D01*
X185189368Y-102055745D01*
X185186552Y-102047698D01*
X185129789Y-101885478D01*
X185033816Y-101732738D01*
X184906262Y-101605184D01*
X184862848Y-101577905D01*
X184753523Y-101509211D01*
X184583254Y-101449631D01*
X184583249Y-101449630D01*
X184404004Y-101429435D01*
X184403996Y-101429435D01*
X184224750Y-101449630D01*
X184224745Y-101449631D01*
X184054476Y-101509211D01*
X183901737Y-101605184D01*
X183774184Y-101732737D01*
X183678211Y-101885476D01*
X183618631Y-102055745D01*
X183618630Y-102055750D01*
X183598435Y-102234996D01*
X177061461Y-102234996D01*
X177031973Y-102086749D01*
X176960322Y-101913769D01*
X176960321Y-101913768D01*
X176960318Y-101913762D01*
X176856302Y-101758092D01*
X176856299Y-101758088D01*
X176723911Y-101625700D01*
X176723907Y-101625697D01*
X176568237Y-101521681D01*
X176568228Y-101521676D01*
X176395251Y-101450027D01*
X176395243Y-101450025D01*
X176211620Y-101413500D01*
X176211616Y-101413500D01*
X175324384Y-101413500D01*
X175324379Y-101413500D01*
X175140756Y-101450025D01*
X175140748Y-101450027D01*
X174967771Y-101521676D01*
X174967762Y-101521681D01*
X174883618Y-101577905D01*
X174816940Y-101598783D01*
X174749560Y-101580298D01*
X174702870Y-101528319D01*
X174691694Y-101459349D01*
X174693247Y-101449930D01*
X174693308Y-101449631D01*
X174732864Y-101256441D01*
X174734100Y-101251030D01*
X174736283Y-101242369D01*
X174950057Y-100393982D01*
X174951536Y-100388625D01*
X175205741Y-99542081D01*
X175207449Y-99536826D01*
X175398280Y-98991465D01*
X182438200Y-98991465D01*
X182438200Y-99128534D01*
X182464937Y-99262949D01*
X182464940Y-99262961D01*
X182517386Y-99389578D01*
X182517393Y-99389591D01*
X182593536Y-99503546D01*
X182593539Y-99503550D01*
X182690449Y-99600460D01*
X182690453Y-99600463D01*
X182804408Y-99676606D01*
X182804421Y-99676613D01*
X182881305Y-99708459D01*
X182931043Y-99729061D01*
X183065465Y-99755799D01*
X183065469Y-99755800D01*
X183065470Y-99755800D01*
X183202531Y-99755800D01*
X183202532Y-99755799D01*
X183336957Y-99729061D01*
X183463585Y-99676610D01*
X183577547Y-99600463D01*
X183610014Y-99567996D01*
X186265435Y-99567996D01*
X186265435Y-99568003D01*
X186285630Y-99747249D01*
X186285631Y-99747254D01*
X186345211Y-99917523D01*
X186368595Y-99954738D01*
X186441184Y-100070262D01*
X186568738Y-100197816D01*
X186614178Y-100226368D01*
X186678956Y-100267071D01*
X186721478Y-100293789D01*
X186808565Y-100324262D01*
X186891745Y-100353368D01*
X186891750Y-100353369D01*
X187070996Y-100373565D01*
X187071000Y-100373565D01*
X187071004Y-100373565D01*
X187250249Y-100353369D01*
X187250252Y-100353368D01*
X187250255Y-100353368D01*
X187420522Y-100293789D01*
X187573262Y-100197816D01*
X187700816Y-100070262D01*
X187796789Y-99917522D01*
X187856368Y-99747255D01*
X187858418Y-99729061D01*
X187876565Y-99568003D01*
X187876565Y-99567996D01*
X187856369Y-99388750D01*
X187856368Y-99388745D01*
X187832221Y-99319737D01*
X187796789Y-99218478D01*
X187780267Y-99192184D01*
X187757443Y-99155860D01*
X187700816Y-99065738D01*
X187573262Y-98938184D01*
X187420523Y-98842211D01*
X187250254Y-98782631D01*
X187250249Y-98782630D01*
X187071004Y-98762435D01*
X187070996Y-98762435D01*
X186891750Y-98782630D01*
X186891745Y-98782631D01*
X186721476Y-98842211D01*
X186568737Y-98938184D01*
X186441184Y-99065737D01*
X186345211Y-99218476D01*
X186285631Y-99388745D01*
X186285630Y-99388750D01*
X186265435Y-99567996D01*
X183610014Y-99567996D01*
X183674463Y-99503547D01*
X183750610Y-99389585D01*
X183803061Y-99262957D01*
X183829800Y-99128530D01*
X183829800Y-98991470D01*
X183803061Y-98857043D01*
X183800837Y-98851673D01*
X183750613Y-98730421D01*
X183750606Y-98730408D01*
X183716253Y-98678996D01*
X189059435Y-98678996D01*
X189059435Y-98679003D01*
X189079630Y-98858249D01*
X189079631Y-98858254D01*
X189139211Y-99028523D01*
X189202050Y-99128530D01*
X189235184Y-99181262D01*
X189362738Y-99308816D01*
X189408178Y-99337368D01*
X189511817Y-99402489D01*
X189515478Y-99404789D01*
X189618955Y-99440997D01*
X189685745Y-99464368D01*
X189685750Y-99464369D01*
X189864996Y-99484565D01*
X189865000Y-99484565D01*
X189865004Y-99484565D01*
X190044249Y-99464369D01*
X190044251Y-99464368D01*
X190044255Y-99464368D01*
X190044258Y-99464366D01*
X190044262Y-99464366D01*
X190129388Y-99434578D01*
X190214522Y-99404789D01*
X190214531Y-99404783D01*
X190216229Y-99403966D01*
X190217447Y-99403765D01*
X190221095Y-99402489D01*
X190221318Y-99403127D01*
X190285170Y-99392609D01*
X190310994Y-99398641D01*
X190315466Y-99400205D01*
X190315468Y-99400207D01*
X190362814Y-99416774D01*
X190485727Y-99459784D01*
X190485733Y-99459785D01*
X190485735Y-99459786D01*
X190485736Y-99459786D01*
X190485740Y-99459787D01*
X190664986Y-99479983D01*
X190664990Y-99479983D01*
X190664993Y-99479983D01*
X190841797Y-99460062D01*
X190910619Y-99472116D01*
X190961999Y-99519466D01*
X190978901Y-99569398D01*
X190984630Y-99620250D01*
X190984631Y-99620254D01*
X191044211Y-99790523D01*
X191069786Y-99831225D01*
X191140184Y-99943262D01*
X191267738Y-100070816D01*
X191420478Y-100166789D01*
X191590745Y-100226368D01*
X191590750Y-100226369D01*
X191769996Y-100246565D01*
X191770000Y-100246565D01*
X191770004Y-100246565D01*
X191949249Y-100226369D01*
X191949252Y-100226368D01*
X191949255Y-100226368D01*
X192119522Y-100166789D01*
X192272262Y-100070816D01*
X192399816Y-99943262D01*
X192476013Y-99821996D01*
X195409435Y-99821996D01*
X195409435Y-99822003D01*
X195429630Y-100001249D01*
X195429631Y-100001254D01*
X195489211Y-100171523D01*
X195585184Y-100324262D01*
X195712738Y-100451816D01*
X195865478Y-100547789D01*
X196035745Y-100607368D01*
X196035750Y-100607369D01*
X196214996Y-100627565D01*
X196215000Y-100627565D01*
X196215004Y-100627565D01*
X196394249Y-100607369D01*
X196394252Y-100607368D01*
X196394255Y-100607368D01*
X196564522Y-100547789D01*
X196709018Y-100456996D01*
X198711435Y-100456996D01*
X198711435Y-100457003D01*
X198731630Y-100636249D01*
X198731631Y-100636254D01*
X198791211Y-100806523D01*
X198870023Y-100931950D01*
X198887184Y-100959262D01*
X199014738Y-101086816D01*
X199014740Y-101086817D01*
X199125712Y-101156546D01*
X199167478Y-101182789D01*
X199254565Y-101213262D01*
X199337745Y-101242368D01*
X199337750Y-101242369D01*
X199516996Y-101262565D01*
X199517000Y-101262565D01*
X199517004Y-101262565D01*
X199696249Y-101242369D01*
X199696252Y-101242368D01*
X199696255Y-101242368D01*
X199866522Y-101182789D01*
X200019262Y-101086816D01*
X200146816Y-100959262D01*
X200146819Y-100959256D01*
X200150091Y-100955985D01*
X200211414Y-100922500D01*
X200281106Y-100927484D01*
X200291583Y-100931950D01*
X200294246Y-100933232D01*
X200294247Y-100933233D01*
X200368634Y-100959262D01*
X200464514Y-100992812D01*
X200464519Y-100992813D01*
X200643765Y-101013009D01*
X200643769Y-101013009D01*
X200643773Y-101013009D01*
X200823018Y-100992813D01*
X200823021Y-100992812D01*
X200823024Y-100992812D01*
X200993291Y-100933233D01*
X201146031Y-100837260D01*
X201272295Y-100710996D01*
X202902435Y-100710996D01*
X202902435Y-100711003D01*
X202922630Y-100890249D01*
X202922631Y-100890254D01*
X202982211Y-101060523D01*
X203078184Y-101213262D01*
X203205738Y-101340816D01*
X203358478Y-101436789D01*
X203422951Y-101459349D01*
X203528745Y-101496368D01*
X203528750Y-101496369D01*
X203707996Y-101516565D01*
X203708000Y-101516565D01*
X203708004Y-101516565D01*
X203887249Y-101496369D01*
X203887252Y-101496368D01*
X203887255Y-101496368D01*
X204057522Y-101436789D01*
X204210262Y-101340816D01*
X204337816Y-101213262D01*
X204433789Y-101060522D01*
X204493368Y-100890255D01*
X204499339Y-100837259D01*
X204513565Y-100711003D01*
X204513565Y-100710996D01*
X204493369Y-100531750D01*
X204493368Y-100531745D01*
X204467215Y-100457003D01*
X204433789Y-100361478D01*
X204337816Y-100208738D01*
X204210262Y-100081184D01*
X204057523Y-99985211D01*
X203887254Y-99925631D01*
X203887249Y-99925630D01*
X203708004Y-99905435D01*
X203707996Y-99905435D01*
X203528750Y-99925630D01*
X203528745Y-99925631D01*
X203358476Y-99985211D01*
X203205737Y-100081184D01*
X203078184Y-100208737D01*
X202982211Y-100361476D01*
X202922631Y-100531745D01*
X202922630Y-100531750D01*
X202902435Y-100710996D01*
X201272295Y-100710996D01*
X201273585Y-100709706D01*
X201369558Y-100556966D01*
X201429137Y-100386699D01*
X201431979Y-100361476D01*
X201449334Y-100207447D01*
X201449334Y-100207440D01*
X201429138Y-100028194D01*
X201429137Y-100028189D01*
X201390413Y-99917522D01*
X201369558Y-99857922D01*
X201273585Y-99705182D01*
X201146031Y-99577628D01*
X201028137Y-99503550D01*
X200993360Y-99481698D01*
X206585435Y-99481698D01*
X206585435Y-99481705D01*
X206605630Y-99660951D01*
X206605631Y-99660956D01*
X206665211Y-99831225D01*
X206735609Y-99943262D01*
X206761184Y-99983964D01*
X206888738Y-100111518D01*
X206976700Y-100166788D01*
X207041396Y-100207440D01*
X207041478Y-100207491D01*
X207153145Y-100246565D01*
X207211745Y-100267070D01*
X207211750Y-100267071D01*
X207390996Y-100287267D01*
X207391000Y-100287267D01*
X207391004Y-100287267D01*
X207570249Y-100267071D01*
X207570252Y-100267070D01*
X207570255Y-100267070D01*
X207740522Y-100207491D01*
X207893262Y-100111518D01*
X208020816Y-99983964D01*
X208116789Y-99831224D01*
X208176368Y-99660957D01*
X208177441Y-99651435D01*
X208196565Y-99481705D01*
X208196565Y-99481698D01*
X208176369Y-99302452D01*
X208176368Y-99302447D01*
X208134157Y-99181815D01*
X208116789Y-99132180D01*
X208020816Y-98979440D01*
X207893262Y-98851886D01*
X207869792Y-98837139D01*
X207740523Y-98755913D01*
X207570254Y-98696333D01*
X207570249Y-98696332D01*
X207391004Y-98676137D01*
X207390996Y-98676137D01*
X207211750Y-98696332D01*
X207211745Y-98696333D01*
X207041476Y-98755913D01*
X206888737Y-98851886D01*
X206761184Y-98979439D01*
X206665211Y-99132178D01*
X206605631Y-99302447D01*
X206605630Y-99302452D01*
X206585435Y-99481698D01*
X200993360Y-99481698D01*
X200993292Y-99481655D01*
X200823023Y-99422075D01*
X200823018Y-99422074D01*
X200643773Y-99401879D01*
X200643765Y-99401879D01*
X200464519Y-99422074D01*
X200464514Y-99422075D01*
X200294245Y-99481655D01*
X200141508Y-99577627D01*
X200010676Y-99708459D01*
X199949353Y-99741943D01*
X199879661Y-99736959D01*
X199869195Y-99732498D01*
X199866518Y-99731209D01*
X199696262Y-99671633D01*
X199696249Y-99671630D01*
X199517004Y-99651435D01*
X199516996Y-99651435D01*
X199337750Y-99671630D01*
X199337745Y-99671631D01*
X199167476Y-99731211D01*
X199014737Y-99827184D01*
X198887184Y-99954737D01*
X198791211Y-100107476D01*
X198731631Y-100277745D01*
X198731630Y-100277750D01*
X198711435Y-100456996D01*
X196709018Y-100456996D01*
X196717262Y-100451816D01*
X196844816Y-100324262D01*
X196940789Y-100171522D01*
X197000368Y-100001255D01*
X197002176Y-99985211D01*
X197020565Y-99822003D01*
X197020565Y-99821996D01*
X197000369Y-99642750D01*
X197000368Y-99642745D01*
X196985572Y-99600460D01*
X196940789Y-99472478D01*
X196844816Y-99319738D01*
X196717262Y-99192184D01*
X196711563Y-99188603D01*
X196564523Y-99096211D01*
X196394254Y-99036631D01*
X196394249Y-99036630D01*
X196215004Y-99016435D01*
X196214996Y-99016435D01*
X196035750Y-99036630D01*
X196035745Y-99036631D01*
X195865476Y-99096211D01*
X195712737Y-99192184D01*
X195585184Y-99319737D01*
X195489211Y-99472476D01*
X195429631Y-99642745D01*
X195429630Y-99642750D01*
X195409435Y-99821996D01*
X192476013Y-99821996D01*
X192495789Y-99790522D01*
X192555368Y-99620255D01*
X192557598Y-99600463D01*
X192575565Y-99441003D01*
X192575565Y-99440997D01*
X192561902Y-99319737D01*
X192555368Y-99261745D01*
X192555367Y-99261743D01*
X192554881Y-99257425D01*
X192566935Y-99188603D01*
X192614284Y-99137223D01*
X192681895Y-99119599D01*
X192748300Y-99141325D01*
X192765782Y-99155860D01*
X192791738Y-99181816D01*
X192944478Y-99277789D01*
X193114745Y-99337368D01*
X193114750Y-99337369D01*
X193293996Y-99357565D01*
X193294000Y-99357565D01*
X193294004Y-99357565D01*
X193473249Y-99337369D01*
X193473252Y-99337368D01*
X193473255Y-99337368D01*
X193643522Y-99277789D01*
X193667121Y-99262961D01*
X193672527Y-99259564D01*
X193739763Y-99240563D01*
X193804473Y-99259564D01*
X193833475Y-99277788D01*
X194003745Y-99337368D01*
X194003750Y-99337369D01*
X194182996Y-99357565D01*
X194183000Y-99357565D01*
X194183004Y-99357565D01*
X194362249Y-99337369D01*
X194362252Y-99337368D01*
X194362255Y-99337368D01*
X194532522Y-99277789D01*
X194685262Y-99181816D01*
X194812816Y-99054262D01*
X194908789Y-98901522D01*
X194968368Y-98731255D01*
X194968463Y-98730415D01*
X194988565Y-98552003D01*
X194988565Y-98551996D01*
X194968369Y-98372750D01*
X194968368Y-98372745D01*
X194953228Y-98329478D01*
X194908789Y-98202478D01*
X194892615Y-98176738D01*
X194812815Y-98049737D01*
X194685262Y-97922184D01*
X194532523Y-97826211D01*
X194362254Y-97766631D01*
X194362249Y-97766630D01*
X194183004Y-97746435D01*
X194182996Y-97746435D01*
X194003750Y-97766630D01*
X194003737Y-97766633D01*
X193833480Y-97826209D01*
X193804470Y-97844437D01*
X193737233Y-97863436D01*
X193672530Y-97844437D01*
X193643519Y-97826209D01*
X193473262Y-97766633D01*
X193473249Y-97766630D01*
X193294004Y-97746435D01*
X193293996Y-97746435D01*
X193114750Y-97766630D01*
X193114745Y-97766631D01*
X192944476Y-97826211D01*
X192791737Y-97922184D01*
X192664184Y-98049737D01*
X192568211Y-98202476D01*
X192508631Y-98372745D01*
X192508630Y-98372750D01*
X192488435Y-98551996D01*
X192488435Y-98552003D01*
X192509118Y-98735575D01*
X192497063Y-98804397D01*
X192449714Y-98855776D01*
X192382104Y-98873400D01*
X192315698Y-98851673D01*
X192298217Y-98837139D01*
X192272262Y-98811184D01*
X192119523Y-98715211D01*
X191949254Y-98655631D01*
X191949249Y-98655630D01*
X191770004Y-98635435D01*
X191769996Y-98635435D01*
X191593191Y-98655355D01*
X191524369Y-98643300D01*
X191472990Y-98595951D01*
X191456088Y-98546017D01*
X191450359Y-98495168D01*
X191450358Y-98495163D01*
X191392382Y-98329478D01*
X191390779Y-98324896D01*
X191294806Y-98172156D01*
X191167252Y-98044602D01*
X191068631Y-97982634D01*
X191014513Y-97948629D01*
X190844244Y-97889049D01*
X190844239Y-97889048D01*
X190664994Y-97868853D01*
X190664986Y-97868853D01*
X190485740Y-97889048D01*
X190485727Y-97889051D01*
X190315464Y-97948629D01*
X190313744Y-97949458D01*
X190312522Y-97949659D01*
X190308896Y-97950928D01*
X190308673Y-97950292D01*
X190244802Y-97960805D01*
X190218997Y-97954776D01*
X190044257Y-97893632D01*
X190044249Y-97893630D01*
X189865004Y-97873435D01*
X189864996Y-97873435D01*
X189685750Y-97893630D01*
X189685745Y-97893631D01*
X189515476Y-97953211D01*
X189362737Y-98049184D01*
X189235184Y-98176737D01*
X189139211Y-98329476D01*
X189079631Y-98499745D01*
X189079630Y-98499750D01*
X189059435Y-98678996D01*
X183716253Y-98678996D01*
X183674463Y-98616453D01*
X183674460Y-98616449D01*
X183577550Y-98519539D01*
X183577546Y-98519536D01*
X183463591Y-98443393D01*
X183463578Y-98443386D01*
X183336961Y-98390940D01*
X183336949Y-98390937D01*
X183202534Y-98364200D01*
X183202530Y-98364200D01*
X183065470Y-98364200D01*
X183065465Y-98364200D01*
X182931050Y-98390937D01*
X182931038Y-98390940D01*
X182804421Y-98443386D01*
X182804408Y-98443393D01*
X182690453Y-98519536D01*
X182690449Y-98519539D01*
X182593539Y-98616449D01*
X182593536Y-98616453D01*
X182517393Y-98730408D01*
X182517386Y-98730421D01*
X182464940Y-98857038D01*
X182464937Y-98857050D01*
X182438200Y-98991465D01*
X175398280Y-98991465D01*
X175499382Y-98702533D01*
X175501337Y-98697324D01*
X175526163Y-98635435D01*
X175830383Y-97877021D01*
X175832569Y-97871908D01*
X175846038Y-97842255D01*
X176176281Y-97115203D01*
X176221927Y-97062308D01*
X176288926Y-97042486D01*
X176355151Y-97061492D01*
X176356899Y-97062590D01*
X176356901Y-97062592D01*
X176509641Y-97158565D01*
X176636889Y-97203091D01*
X176679908Y-97218144D01*
X176679913Y-97218145D01*
X176859159Y-97238341D01*
X176859163Y-97238341D01*
X176859167Y-97238341D01*
X177038412Y-97218145D01*
X177038415Y-97218144D01*
X177038418Y-97218144D01*
X177208685Y-97158565D01*
X177361425Y-97062592D01*
X177488979Y-96935038D01*
X177584952Y-96782298D01*
X177644531Y-96612031D01*
X177664728Y-96432776D01*
X177648570Y-96289369D01*
X177645937Y-96265996D01*
X184106435Y-96265996D01*
X184106435Y-96266003D01*
X184126630Y-96445249D01*
X184126631Y-96445254D01*
X184186211Y-96615523D01*
X184282184Y-96768262D01*
X184409738Y-96895816D01*
X184475618Y-96937211D01*
X184543023Y-96979565D01*
X184562478Y-96991789D01*
X184680778Y-97033184D01*
X184732745Y-97051368D01*
X184732750Y-97051369D01*
X184911996Y-97071565D01*
X184912000Y-97071565D01*
X184912004Y-97071565D01*
X185091249Y-97051369D01*
X185091252Y-97051368D01*
X185091255Y-97051368D01*
X185261522Y-96991789D01*
X185414262Y-96895816D01*
X185541816Y-96768262D01*
X185637789Y-96615522D01*
X185686155Y-96477299D01*
X187011669Y-96477299D01*
X187011669Y-96477306D01*
X187031864Y-96656552D01*
X187031865Y-96656557D01*
X187091445Y-96826826D01*
X187138052Y-96901000D01*
X187187418Y-96979565D01*
X187314972Y-97107119D01*
X187467712Y-97203092D01*
X187568448Y-97238341D01*
X187637979Y-97262671D01*
X187637984Y-97262672D01*
X187817230Y-97282868D01*
X187817234Y-97282868D01*
X187817238Y-97282868D01*
X187996483Y-97262672D01*
X187996486Y-97262671D01*
X187996489Y-97262671D01*
X188166756Y-97203092D01*
X188319496Y-97107119D01*
X188447050Y-96979565D01*
X188543023Y-96826825D01*
X188602602Y-96656558D01*
X188604263Y-96641815D01*
X188622799Y-96477306D01*
X188622799Y-96477299D01*
X188602603Y-96298053D01*
X188602602Y-96298048D01*
X188591388Y-96266000D01*
X188543023Y-96127781D01*
X188517241Y-96086750D01*
X188447049Y-95975040D01*
X188319496Y-95847487D01*
X188166757Y-95751514D01*
X187996488Y-95691934D01*
X187996483Y-95691933D01*
X187817238Y-95671738D01*
X187817230Y-95671738D01*
X187637984Y-95691933D01*
X187637979Y-95691934D01*
X187467710Y-95751514D01*
X187314971Y-95847487D01*
X187187418Y-95975040D01*
X187091445Y-96127779D01*
X187031865Y-96298048D01*
X187031864Y-96298053D01*
X187011669Y-96477299D01*
X185686155Y-96477299D01*
X185697368Y-96445255D01*
X185698774Y-96432776D01*
X185717565Y-96266003D01*
X185717565Y-96265996D01*
X185697369Y-96086750D01*
X185697368Y-96086745D01*
X185671215Y-96012003D01*
X185637789Y-95916478D01*
X185541816Y-95763738D01*
X185414262Y-95636184D01*
X185304612Y-95567286D01*
X185261523Y-95540211D01*
X185091254Y-95480631D01*
X185091249Y-95480630D01*
X184912004Y-95460435D01*
X184911996Y-95460435D01*
X184732750Y-95480630D01*
X184732745Y-95480631D01*
X184562476Y-95540211D01*
X184409737Y-95636184D01*
X184282184Y-95763737D01*
X184186211Y-95916476D01*
X184126631Y-96086745D01*
X184126630Y-96086750D01*
X184106435Y-96265996D01*
X177645937Y-96265996D01*
X177644532Y-96253526D01*
X177644531Y-96253521D01*
X177602644Y-96133815D01*
X177584952Y-96083254D01*
X177488979Y-95930514D01*
X177361425Y-95802960D01*
X177208685Y-95706987D01*
X177208682Y-95706985D01*
X177111445Y-95672960D01*
X177054669Y-95632239D01*
X177028922Y-95567286D01*
X177042378Y-95498724D01*
X177047399Y-95489958D01*
X177513712Y-94747824D01*
X177516751Y-94743221D01*
X177869544Y-94233996D01*
X180423435Y-94233996D01*
X180423435Y-94234003D01*
X180443630Y-94413249D01*
X180443631Y-94413254D01*
X180503211Y-94583523D01*
X180530132Y-94626367D01*
X180599184Y-94736262D01*
X180726738Y-94863816D01*
X180743239Y-94874184D01*
X180848437Y-94940285D01*
X180879478Y-94959789D01*
X181049745Y-95019368D01*
X181049750Y-95019369D01*
X181228996Y-95039565D01*
X181229000Y-95039565D01*
X181229004Y-95039565D01*
X181408249Y-95019369D01*
X181408252Y-95019368D01*
X181408255Y-95019368D01*
X181578522Y-94959789D01*
X181731262Y-94863816D01*
X181858816Y-94736262D01*
X181954789Y-94583522D01*
X182014368Y-94413255D01*
X182026143Y-94308750D01*
X182034565Y-94234003D01*
X182034565Y-94233996D01*
X182014369Y-94054750D01*
X182014368Y-94054745D01*
X181954788Y-93884476D01*
X181858815Y-93731737D01*
X181853074Y-93725996D01*
X190710435Y-93725996D01*
X190710435Y-93726003D01*
X190730630Y-93905249D01*
X190730631Y-93905254D01*
X190790211Y-94075523D01*
X190829769Y-94138478D01*
X190886184Y-94228262D01*
X191013738Y-94355816D01*
X191105142Y-94413249D01*
X191166480Y-94451790D01*
X191298421Y-94497959D01*
X191355197Y-94538680D01*
X191380944Y-94603633D01*
X191367488Y-94672195D01*
X191319100Y-94722597D01*
X191298421Y-94732041D01*
X191166480Y-94778209D01*
X191013737Y-94874184D01*
X190886184Y-95001737D01*
X190790211Y-95154476D01*
X190730631Y-95324745D01*
X190730630Y-95324750D01*
X190710435Y-95503996D01*
X190710435Y-95504003D01*
X190730630Y-95683249D01*
X190730631Y-95683254D01*
X190790211Y-95853523D01*
X190886184Y-96006262D01*
X191013738Y-96133816D01*
X191166478Y-96229789D01*
X191336745Y-96289368D01*
X191336750Y-96289369D01*
X191515996Y-96309565D01*
X191516000Y-96309565D01*
X191516004Y-96309565D01*
X191695249Y-96289369D01*
X191695252Y-96289368D01*
X191695255Y-96289368D01*
X191865522Y-96229789D01*
X192018262Y-96133816D01*
X192145816Y-96006262D01*
X192241789Y-95853522D01*
X192301368Y-95683255D01*
X192303709Y-95662478D01*
X192321565Y-95504003D01*
X192321565Y-95503996D01*
X192301369Y-95324750D01*
X192301368Y-95324745D01*
X192262542Y-95213788D01*
X192241789Y-95154478D01*
X192145816Y-95001738D01*
X192018262Y-94874184D01*
X191865521Y-94778210D01*
X191733579Y-94732042D01*
X191676802Y-94691320D01*
X191651055Y-94626367D01*
X191664511Y-94557806D01*
X191712898Y-94507403D01*
X191733579Y-94497958D01*
X191800643Y-94474491D01*
X191865522Y-94451789D01*
X192018262Y-94355816D01*
X192145816Y-94228262D01*
X192241789Y-94075522D01*
X192301368Y-93905255D01*
X192303709Y-93884478D01*
X192321565Y-93726003D01*
X192321565Y-93725996D01*
X192742435Y-93725996D01*
X192742435Y-93726003D01*
X192762630Y-93905249D01*
X192762631Y-93905254D01*
X192822211Y-94075523D01*
X192861769Y-94138478D01*
X192918184Y-94228262D01*
X193045738Y-94355816D01*
X193137142Y-94413249D01*
X193198480Y-94451790D01*
X193330421Y-94497959D01*
X193387197Y-94538680D01*
X193412944Y-94603633D01*
X193399488Y-94672195D01*
X193351100Y-94722597D01*
X193330421Y-94732041D01*
X193198480Y-94778209D01*
X193045737Y-94874184D01*
X192918184Y-95001737D01*
X192822211Y-95154476D01*
X192762631Y-95324745D01*
X192762630Y-95324750D01*
X192742435Y-95503996D01*
X192742435Y-95504003D01*
X192762630Y-95683249D01*
X192762631Y-95683254D01*
X192822211Y-95853523D01*
X192918184Y-96006262D01*
X193045738Y-96133816D01*
X193198478Y-96229789D01*
X193368745Y-96289368D01*
X193368750Y-96289369D01*
X193547996Y-96309565D01*
X193548000Y-96309565D01*
X193548004Y-96309565D01*
X193727249Y-96289369D01*
X193727252Y-96289368D01*
X193727255Y-96289368D01*
X193897522Y-96229789D01*
X194050262Y-96133816D01*
X194177816Y-96006262D01*
X194273789Y-95853522D01*
X194333368Y-95683255D01*
X194335709Y-95662478D01*
X194353565Y-95504003D01*
X194353565Y-95503996D01*
X194333369Y-95324750D01*
X194333368Y-95324745D01*
X194294542Y-95213788D01*
X194273789Y-95154478D01*
X194177816Y-95001738D01*
X194050262Y-94874184D01*
X193897521Y-94778210D01*
X193765579Y-94732042D01*
X193708802Y-94691320D01*
X193683055Y-94626367D01*
X193696511Y-94557806D01*
X193744898Y-94507403D01*
X193765579Y-94497958D01*
X193832643Y-94474491D01*
X193897522Y-94451789D01*
X194050262Y-94355816D01*
X194177816Y-94228262D01*
X194273789Y-94075522D01*
X194333368Y-93905255D01*
X194335709Y-93884478D01*
X194353565Y-93726003D01*
X194353565Y-93725996D01*
X194647435Y-93725996D01*
X194647435Y-93726003D01*
X194667630Y-93905249D01*
X194667631Y-93905254D01*
X194727211Y-94075523D01*
X194766769Y-94138478D01*
X194823184Y-94228262D01*
X194950738Y-94355816D01*
X195042142Y-94413249D01*
X195103480Y-94451790D01*
X195235421Y-94497959D01*
X195292197Y-94538680D01*
X195317944Y-94603633D01*
X195304488Y-94672195D01*
X195256100Y-94722597D01*
X195235421Y-94732041D01*
X195103480Y-94778209D01*
X194950737Y-94874184D01*
X194823184Y-95001737D01*
X194727211Y-95154476D01*
X194667631Y-95324745D01*
X194667630Y-95324750D01*
X194647435Y-95503996D01*
X194647435Y-95504003D01*
X194667630Y-95683249D01*
X194667631Y-95683254D01*
X194727211Y-95853523D01*
X194823184Y-96006262D01*
X194950738Y-96133816D01*
X195103478Y-96229789D01*
X195273745Y-96289368D01*
X195273750Y-96289369D01*
X195452996Y-96309565D01*
X195453000Y-96309565D01*
X195453004Y-96309565D01*
X195632249Y-96289369D01*
X195632252Y-96289368D01*
X195632255Y-96289368D01*
X195699048Y-96265996D01*
X198203435Y-96265996D01*
X198203435Y-96266003D01*
X198223630Y-96445249D01*
X198223631Y-96445254D01*
X198283211Y-96615523D01*
X198379184Y-96768262D01*
X198506738Y-96895816D01*
X198572618Y-96937211D01*
X198640023Y-96979565D01*
X198659478Y-96991789D01*
X198777778Y-97033184D01*
X198829745Y-97051368D01*
X198829750Y-97051369D01*
X199008996Y-97071565D01*
X199009000Y-97071565D01*
X199009004Y-97071565D01*
X199188249Y-97051369D01*
X199188252Y-97051368D01*
X199188255Y-97051368D01*
X199358522Y-96991789D01*
X199503018Y-96900996D01*
X202394435Y-96900996D01*
X202394435Y-96901003D01*
X202414630Y-97080249D01*
X202414631Y-97080254D01*
X202474211Y-97250523D01*
X202513769Y-97313478D01*
X202570184Y-97403262D01*
X202697738Y-97530816D01*
X202850478Y-97626789D01*
X202953952Y-97662996D01*
X203020745Y-97686368D01*
X203020750Y-97686369D01*
X203199996Y-97706565D01*
X203200000Y-97706565D01*
X203200004Y-97706565D01*
X203379248Y-97686369D01*
X203379248Y-97686368D01*
X203379255Y-97686368D01*
X203387200Y-97683587D01*
X203456976Y-97680024D01*
X203517604Y-97714750D01*
X203549834Y-97776743D01*
X203551376Y-97786743D01*
X203557630Y-97842250D01*
X203557631Y-97842254D01*
X203617211Y-98012523D01*
X203640595Y-98049738D01*
X203713184Y-98165262D01*
X203840738Y-98292816D01*
X203993478Y-98388789D01*
X204149507Y-98443386D01*
X204163745Y-98448368D01*
X204163750Y-98448369D01*
X204342996Y-98468565D01*
X204343000Y-98468565D01*
X204343004Y-98468565D01*
X204522249Y-98448369D01*
X204522252Y-98448368D01*
X204522255Y-98448368D01*
X204692522Y-98388789D01*
X204845262Y-98292816D01*
X204972816Y-98165262D01*
X205068789Y-98012522D01*
X205128368Y-97842255D01*
X205134623Y-97786743D01*
X205148565Y-97663003D01*
X205148565Y-97662996D01*
X205128369Y-97483750D01*
X205128368Y-97483745D01*
X205068788Y-97313476D01*
X205008887Y-97218145D01*
X204972816Y-97160738D01*
X204845262Y-97033184D01*
X204692523Y-96937211D01*
X204522254Y-96877631D01*
X204522249Y-96877630D01*
X204343004Y-96857435D01*
X204342996Y-96857435D01*
X204163746Y-96877631D01*
X204155793Y-96880414D01*
X204086014Y-96883974D01*
X204025388Y-96849243D01*
X203993163Y-96787249D01*
X203991625Y-96777281D01*
X203985368Y-96721745D01*
X203925789Y-96551478D01*
X203829816Y-96398738D01*
X203702262Y-96271184D01*
X203699958Y-96269736D01*
X203549523Y-96175211D01*
X203379254Y-96115631D01*
X203379249Y-96115630D01*
X203200004Y-96095435D01*
X203199996Y-96095435D01*
X203020750Y-96115630D01*
X203020745Y-96115631D01*
X202850476Y-96175211D01*
X202697737Y-96271184D01*
X202570184Y-96398737D01*
X202474211Y-96551476D01*
X202414631Y-96721745D01*
X202414630Y-96721750D01*
X202394435Y-96900996D01*
X199503018Y-96900996D01*
X199511262Y-96895816D01*
X199638816Y-96768262D01*
X199734789Y-96615522D01*
X199794368Y-96445255D01*
X199795774Y-96432776D01*
X199814565Y-96266003D01*
X199814565Y-96265996D01*
X199794369Y-96086750D01*
X199794368Y-96086745D01*
X199768215Y-96012003D01*
X199768213Y-96011996D01*
X204934435Y-96011996D01*
X204934435Y-96012003D01*
X204954630Y-96191249D01*
X204954631Y-96191254D01*
X205014211Y-96361523D01*
X205086961Y-96477303D01*
X205110184Y-96514262D01*
X205237738Y-96641816D01*
X205390478Y-96737789D01*
X205517680Y-96782299D01*
X205560745Y-96797368D01*
X205560750Y-96797369D01*
X205739996Y-96817565D01*
X205740000Y-96817565D01*
X205740004Y-96817565D01*
X205919249Y-96797369D01*
X205919252Y-96797368D01*
X205919255Y-96797368D01*
X206089522Y-96737789D01*
X206242262Y-96641816D01*
X206369816Y-96514262D01*
X206465789Y-96361522D01*
X206525368Y-96191255D01*
X206533889Y-96115630D01*
X206545565Y-96012003D01*
X206545565Y-96011996D01*
X206525369Y-95832750D01*
X206525368Y-95832745D01*
X206481363Y-95706987D01*
X206465789Y-95662478D01*
X206449267Y-95636184D01*
X206369815Y-95509737D01*
X206242262Y-95382184D01*
X206089523Y-95286211D01*
X205919254Y-95226631D01*
X205919249Y-95226630D01*
X205740004Y-95206435D01*
X205739996Y-95206435D01*
X205560750Y-95226630D01*
X205560745Y-95226631D01*
X205390476Y-95286211D01*
X205237737Y-95382184D01*
X205110184Y-95509737D01*
X205014211Y-95662476D01*
X204954631Y-95832745D01*
X204954630Y-95832750D01*
X204934435Y-96011996D01*
X199768213Y-96011996D01*
X199734789Y-95916478D01*
X199638816Y-95763738D01*
X199511262Y-95636184D01*
X199401612Y-95567286D01*
X199358523Y-95540211D01*
X199188254Y-95480631D01*
X199188249Y-95480630D01*
X199009004Y-95460435D01*
X199008996Y-95460435D01*
X198829750Y-95480630D01*
X198829745Y-95480631D01*
X198659476Y-95540211D01*
X198506737Y-95636184D01*
X198379184Y-95763737D01*
X198283211Y-95916476D01*
X198223631Y-96086745D01*
X198223630Y-96086750D01*
X198203435Y-96265996D01*
X195699048Y-96265996D01*
X195802522Y-96229789D01*
X195955262Y-96133816D01*
X196082816Y-96006262D01*
X196178789Y-95853522D01*
X196238368Y-95683255D01*
X196240709Y-95662478D01*
X196258565Y-95504003D01*
X196258565Y-95503996D01*
X196238369Y-95324750D01*
X196238368Y-95324745D01*
X196199542Y-95213788D01*
X196178789Y-95154478D01*
X196082816Y-95001738D01*
X195955262Y-94874184D01*
X195802521Y-94778210D01*
X195670579Y-94732042D01*
X195613802Y-94691320D01*
X195588055Y-94626367D01*
X195601511Y-94557806D01*
X195649898Y-94507403D01*
X195670579Y-94497958D01*
X195737643Y-94474491D01*
X195802522Y-94451789D01*
X195955262Y-94355816D01*
X196082816Y-94228262D01*
X196178789Y-94075522D01*
X196238368Y-93905255D01*
X196240709Y-93884478D01*
X196258565Y-93726003D01*
X196258565Y-93725996D01*
X196238369Y-93546750D01*
X196238368Y-93546745D01*
X196204036Y-93448630D01*
X196178789Y-93376478D01*
X196082816Y-93223738D01*
X195955262Y-93096184D01*
X195937880Y-93085262D01*
X195802523Y-93000211D01*
X195632254Y-92940631D01*
X195632249Y-92940630D01*
X195453004Y-92920435D01*
X195452996Y-92920435D01*
X195273750Y-92940630D01*
X195273745Y-92940631D01*
X195103476Y-93000211D01*
X194950737Y-93096184D01*
X194823184Y-93223737D01*
X194727211Y-93376476D01*
X194667631Y-93546745D01*
X194667630Y-93546750D01*
X194647435Y-93725996D01*
X194353565Y-93725996D01*
X194333369Y-93546750D01*
X194333368Y-93546745D01*
X194299036Y-93448630D01*
X194273789Y-93376478D01*
X194177816Y-93223738D01*
X194050262Y-93096184D01*
X194032880Y-93085262D01*
X193897523Y-93000211D01*
X193727254Y-92940631D01*
X193727249Y-92940630D01*
X193548004Y-92920435D01*
X193547996Y-92920435D01*
X193368750Y-92940630D01*
X193368745Y-92940631D01*
X193198476Y-93000211D01*
X193045737Y-93096184D01*
X192918184Y-93223737D01*
X192822211Y-93376476D01*
X192762631Y-93546745D01*
X192762630Y-93546750D01*
X192742435Y-93725996D01*
X192321565Y-93725996D01*
X192301369Y-93546750D01*
X192301368Y-93546745D01*
X192267036Y-93448630D01*
X192241789Y-93376478D01*
X192145816Y-93223738D01*
X192018262Y-93096184D01*
X192000880Y-93085262D01*
X191865523Y-93000211D01*
X191695254Y-92940631D01*
X191695249Y-92940630D01*
X191516004Y-92920435D01*
X191515996Y-92920435D01*
X191336750Y-92940630D01*
X191336745Y-92940631D01*
X191166476Y-93000211D01*
X191013737Y-93096184D01*
X190886184Y-93223737D01*
X190790211Y-93376476D01*
X190730631Y-93546745D01*
X190730630Y-93546750D01*
X190710435Y-93725996D01*
X181853074Y-93725996D01*
X181731262Y-93604184D01*
X181578523Y-93508211D01*
X181408254Y-93448631D01*
X181408249Y-93448630D01*
X181229004Y-93428435D01*
X181228996Y-93428435D01*
X181049750Y-93448630D01*
X181049745Y-93448631D01*
X180879476Y-93508211D01*
X180726737Y-93604184D01*
X180599184Y-93731737D01*
X180503211Y-93884476D01*
X180443631Y-94054745D01*
X180443630Y-94054750D01*
X180423435Y-94233996D01*
X177869544Y-94233996D01*
X178020109Y-94016668D01*
X178023375Y-94012174D01*
X178558815Y-93308944D01*
X178562245Y-93304642D01*
X179128743Y-92626087D01*
X179132356Y-92621952D01*
X179728716Y-91969508D01*
X179732519Y-91965531D01*
X180326585Y-91371465D01*
X181422200Y-91371465D01*
X181422200Y-91508534D01*
X181448937Y-91642949D01*
X181448940Y-91642961D01*
X181501386Y-91769578D01*
X181501393Y-91769591D01*
X181577536Y-91883546D01*
X181577539Y-91883550D01*
X181674449Y-91980460D01*
X181674453Y-91980463D01*
X181788408Y-92056606D01*
X181788421Y-92056613D01*
X181889138Y-92098331D01*
X181915043Y-92109061D01*
X182049465Y-92135799D01*
X182049469Y-92135800D01*
X182049470Y-92135800D01*
X182186531Y-92135800D01*
X182186532Y-92135799D01*
X182320957Y-92109061D01*
X182447585Y-92056610D01*
X182561547Y-91980463D01*
X182658463Y-91883547D01*
X182734610Y-91769585D01*
X182787061Y-91642957D01*
X182813800Y-91508530D01*
X182813800Y-91371470D01*
X182810647Y-91355618D01*
X182816874Y-91286026D01*
X182859737Y-91230849D01*
X182925626Y-91207604D01*
X182947722Y-91209496D01*
X182947825Y-91208589D01*
X183133996Y-91229565D01*
X183134000Y-91229565D01*
X183134004Y-91229565D01*
X183320175Y-91208589D01*
X183320479Y-91211294D01*
X183377866Y-91214803D01*
X183434229Y-91256094D01*
X183459321Y-91321302D01*
X183457353Y-91355613D01*
X183454200Y-91371465D01*
X183454200Y-91508534D01*
X183480937Y-91642949D01*
X183480940Y-91642961D01*
X183533386Y-91769578D01*
X183533393Y-91769591D01*
X183609536Y-91883546D01*
X183609539Y-91883550D01*
X183706449Y-91980460D01*
X183706453Y-91980463D01*
X183820408Y-92056606D01*
X183820421Y-92056613D01*
X183921138Y-92098331D01*
X183947043Y-92109061D01*
X184081465Y-92135799D01*
X184081469Y-92135800D01*
X184081470Y-92135800D01*
X184218531Y-92135800D01*
X184218532Y-92135799D01*
X184352957Y-92109061D01*
X184479585Y-92056610D01*
X184593547Y-91980463D01*
X184690463Y-91883547D01*
X184766610Y-91769585D01*
X184819061Y-91642957D01*
X184834170Y-91566996D01*
X190710435Y-91566996D01*
X190710435Y-91567003D01*
X190730630Y-91746249D01*
X190730631Y-91746254D01*
X190790211Y-91916523D01*
X190862201Y-92031094D01*
X190886184Y-92069262D01*
X191013738Y-92196816D01*
X191166478Y-92292789D01*
X191336745Y-92352368D01*
X191336750Y-92352369D01*
X191515996Y-92372565D01*
X191516000Y-92372565D01*
X191516004Y-92372565D01*
X191695249Y-92352369D01*
X191695252Y-92352368D01*
X191695255Y-92352368D01*
X191865522Y-92292789D01*
X192018262Y-92196816D01*
X192145816Y-92069262D01*
X192241789Y-91916522D01*
X192301368Y-91746255D01*
X192301369Y-91746249D01*
X192321565Y-91567003D01*
X192321565Y-91566996D01*
X192742435Y-91566996D01*
X192742435Y-91567003D01*
X192762630Y-91746249D01*
X192762631Y-91746254D01*
X192822211Y-91916523D01*
X192894201Y-92031094D01*
X192918184Y-92069262D01*
X193045738Y-92196816D01*
X193198478Y-92292789D01*
X193368745Y-92352368D01*
X193368750Y-92352369D01*
X193547996Y-92372565D01*
X193548000Y-92372565D01*
X193548004Y-92372565D01*
X193727249Y-92352369D01*
X193727252Y-92352368D01*
X193727255Y-92352368D01*
X193897522Y-92292789D01*
X194050262Y-92196816D01*
X194177816Y-92069262D01*
X194273789Y-91916522D01*
X194333368Y-91746255D01*
X194333369Y-91746249D01*
X194353565Y-91567003D01*
X194353565Y-91566996D01*
X194647435Y-91566996D01*
X194647435Y-91567003D01*
X194667630Y-91746249D01*
X194667631Y-91746254D01*
X194727211Y-91916523D01*
X194799201Y-92031094D01*
X194823184Y-92069262D01*
X194950738Y-92196816D01*
X195103478Y-92292789D01*
X195273745Y-92352368D01*
X195273750Y-92352369D01*
X195452996Y-92372565D01*
X195453000Y-92372565D01*
X195453004Y-92372565D01*
X195632249Y-92352369D01*
X195632252Y-92352368D01*
X195632255Y-92352368D01*
X195802522Y-92292789D01*
X195955262Y-92196816D01*
X196082816Y-92069262D01*
X196178789Y-91916522D01*
X196238368Y-91746255D01*
X196238369Y-91746249D01*
X196258565Y-91567003D01*
X196258565Y-91566996D01*
X196238369Y-91387750D01*
X196238368Y-91387745D01*
X196227126Y-91355618D01*
X196178789Y-91217478D01*
X196174903Y-91211294D01*
X196122520Y-91127927D01*
X196082816Y-91064738D01*
X195955262Y-90937184D01*
X195952176Y-90935245D01*
X195802523Y-90841211D01*
X195632254Y-90781631D01*
X195632249Y-90781630D01*
X195453004Y-90761435D01*
X195452996Y-90761435D01*
X195273750Y-90781630D01*
X195273745Y-90781631D01*
X195103476Y-90841211D01*
X194950737Y-90937184D01*
X194823184Y-91064737D01*
X194727211Y-91217476D01*
X194667631Y-91387745D01*
X194667630Y-91387750D01*
X194647435Y-91566996D01*
X194353565Y-91566996D01*
X194333369Y-91387750D01*
X194333368Y-91387745D01*
X194322126Y-91355618D01*
X194273789Y-91217478D01*
X194269903Y-91211294D01*
X194217520Y-91127927D01*
X194177816Y-91064738D01*
X194050262Y-90937184D01*
X194047176Y-90935245D01*
X193897523Y-90841211D01*
X193727254Y-90781631D01*
X193727249Y-90781630D01*
X193548004Y-90761435D01*
X193547996Y-90761435D01*
X193368750Y-90781630D01*
X193368745Y-90781631D01*
X193198476Y-90841211D01*
X193045737Y-90937184D01*
X192918184Y-91064737D01*
X192822211Y-91217476D01*
X192762631Y-91387745D01*
X192762630Y-91387750D01*
X192742435Y-91566996D01*
X192321565Y-91566996D01*
X192301369Y-91387750D01*
X192301368Y-91387745D01*
X192290126Y-91355618D01*
X192241789Y-91217478D01*
X192237903Y-91211294D01*
X192185520Y-91127927D01*
X192145816Y-91064738D01*
X192018262Y-90937184D01*
X192015176Y-90935245D01*
X191865523Y-90841211D01*
X191695254Y-90781631D01*
X191695249Y-90781630D01*
X191516004Y-90761435D01*
X191515996Y-90761435D01*
X191336750Y-90781630D01*
X191336745Y-90781631D01*
X191166476Y-90841211D01*
X191013737Y-90937184D01*
X190886184Y-91064737D01*
X190790211Y-91217476D01*
X190730631Y-91387745D01*
X190730630Y-91387750D01*
X190710435Y-91566996D01*
X184834170Y-91566996D01*
X184845800Y-91508530D01*
X184845800Y-91371470D01*
X184819061Y-91237043D01*
X184809849Y-91214803D01*
X184766613Y-91110421D01*
X184766606Y-91110408D01*
X184690463Y-90996453D01*
X184690460Y-90996449D01*
X184593550Y-90899539D01*
X184593546Y-90899536D01*
X184479591Y-90823393D01*
X184479578Y-90823386D01*
X184352961Y-90770940D01*
X184352949Y-90770937D01*
X184218534Y-90744200D01*
X184218530Y-90744200D01*
X184081470Y-90744200D01*
X184081465Y-90744200D01*
X184065613Y-90747353D01*
X183996021Y-90741123D01*
X183940846Y-90698258D01*
X183917603Y-90632367D01*
X183919497Y-90610277D01*
X183918589Y-90610175D01*
X183939565Y-90424003D01*
X183939565Y-90423996D01*
X183919369Y-90244750D01*
X183919368Y-90244745D01*
X183893306Y-90170265D01*
X183859789Y-90074478D01*
X183838751Y-90040996D01*
X187281435Y-90040996D01*
X187281435Y-90041003D01*
X187301630Y-90220249D01*
X187301631Y-90220254D01*
X187361211Y-90390523D01*
X187420377Y-90484684D01*
X187457184Y-90543262D01*
X187584738Y-90670816D01*
X187628412Y-90698258D01*
X187734595Y-90764978D01*
X187737478Y-90766789D01*
X187830281Y-90799262D01*
X187907745Y-90826368D01*
X187907750Y-90826369D01*
X188086996Y-90846565D01*
X188087000Y-90846565D01*
X188087004Y-90846565D01*
X188266249Y-90826369D01*
X188266252Y-90826368D01*
X188266255Y-90826368D01*
X188436522Y-90766789D01*
X188589262Y-90670816D01*
X188716816Y-90543262D01*
X188812789Y-90390522D01*
X188845515Y-90296996D01*
X197568435Y-90296996D01*
X197568435Y-90297003D01*
X197588630Y-90476249D01*
X197588631Y-90476254D01*
X197648211Y-90646523D01*
X197707186Y-90740380D01*
X197744184Y-90799262D01*
X197871738Y-90926816D01*
X197962080Y-90983582D01*
X197982564Y-90996453D01*
X198024478Y-91022789D01*
X198194745Y-91082368D01*
X198194750Y-91082369D01*
X198288122Y-91092889D01*
X198358879Y-91100861D01*
X198423293Y-91127927D01*
X198462848Y-91185522D01*
X198468216Y-91210196D01*
X198477631Y-91293751D01*
X198477631Y-91293754D01*
X198510522Y-91387750D01*
X198537211Y-91464022D01*
X198619212Y-91594526D01*
X198622130Y-91599169D01*
X198641130Y-91666405D01*
X198620763Y-91733241D01*
X198567495Y-91778455D01*
X198531020Y-91788361D01*
X198448749Y-91797630D01*
X198448745Y-91797631D01*
X198278476Y-91857211D01*
X198125737Y-91953184D01*
X197998184Y-92080737D01*
X197902211Y-92233476D01*
X197842631Y-92403745D01*
X197842630Y-92403750D01*
X197822435Y-92582996D01*
X197822435Y-92583003D01*
X197842630Y-92762249D01*
X197842631Y-92762254D01*
X197902211Y-92932523D01*
X197944743Y-93000211D01*
X197998184Y-93085262D01*
X198125738Y-93212816D01*
X198216080Y-93269582D01*
X198271817Y-93304604D01*
X198278478Y-93308789D01*
X198448745Y-93368368D01*
X198448750Y-93368369D01*
X198627996Y-93388565D01*
X198628000Y-93388565D01*
X198628004Y-93388565D01*
X198807249Y-93368369D01*
X198807252Y-93368368D01*
X198807255Y-93368368D01*
X198977522Y-93308789D01*
X199130262Y-93212816D01*
X199257816Y-93085262D01*
X199353789Y-92932522D01*
X199413368Y-92762255D01*
X199428707Y-92626115D01*
X199433565Y-92583003D01*
X199433565Y-92582996D01*
X199413369Y-92403750D01*
X199413368Y-92403745D01*
X199353788Y-92233475D01*
X199275613Y-92109062D01*
X199268869Y-92098329D01*
X199249869Y-92031094D01*
X199270236Y-91964259D01*
X199323504Y-91919044D01*
X199359981Y-91909138D01*
X199442249Y-91899869D01*
X199442252Y-91899868D01*
X199442255Y-91899868D01*
X199612522Y-91840289D01*
X199765262Y-91744316D01*
X199892816Y-91616762D01*
X199988789Y-91464022D01*
X200048368Y-91293755D01*
X200048368Y-91293752D01*
X200048369Y-91293749D01*
X200068565Y-91114503D01*
X200068565Y-91114496D01*
X200048369Y-90935250D01*
X200048368Y-90935245D01*
X200035873Y-90899536D01*
X199988789Y-90764978D01*
X199977714Y-90747353D01*
X199927811Y-90667932D01*
X199892816Y-90612238D01*
X199765262Y-90484684D01*
X199668689Y-90424003D01*
X199612523Y-90388711D01*
X199442254Y-90329131D01*
X199442249Y-90329130D01*
X199278119Y-90310638D01*
X199213705Y-90283572D01*
X199174149Y-90225977D01*
X199168782Y-90201300D01*
X199159369Y-90117750D01*
X199159368Y-90117745D01*
X199144228Y-90074478D01*
X199099789Y-89947478D01*
X199083615Y-89921738D01*
X199003815Y-89794737D01*
X198876262Y-89667184D01*
X198723523Y-89571211D01*
X198553254Y-89511631D01*
X198553249Y-89511630D01*
X198374004Y-89491435D01*
X198373996Y-89491435D01*
X198194750Y-89511630D01*
X198194745Y-89511631D01*
X198024476Y-89571211D01*
X197871737Y-89667184D01*
X197744184Y-89794737D01*
X197648211Y-89947476D01*
X197588631Y-90117745D01*
X197588630Y-90117750D01*
X197568435Y-90296996D01*
X188845515Y-90296996D01*
X188872368Y-90220255D01*
X188874504Y-90201300D01*
X188892565Y-90041003D01*
X188892565Y-90040996D01*
X188872369Y-89861750D01*
X188872368Y-89861745D01*
X188812788Y-89691476D01*
X188716815Y-89538737D01*
X188589262Y-89411184D01*
X188436523Y-89315211D01*
X188266254Y-89255631D01*
X188266249Y-89255630D01*
X188087004Y-89235435D01*
X188086996Y-89235435D01*
X187907750Y-89255630D01*
X187907745Y-89255631D01*
X187737476Y-89315211D01*
X187584737Y-89411184D01*
X187457184Y-89538737D01*
X187361211Y-89691476D01*
X187301631Y-89861745D01*
X187301630Y-89861750D01*
X187281435Y-90040996D01*
X183838751Y-90040996D01*
X183763816Y-89921738D01*
X183636262Y-89794184D01*
X183483523Y-89698211D01*
X183313254Y-89638631D01*
X183313249Y-89638630D01*
X183134004Y-89618435D01*
X183133996Y-89618435D01*
X182954750Y-89638630D01*
X182954745Y-89638631D01*
X182784476Y-89698211D01*
X182631737Y-89794184D01*
X182504184Y-89921737D01*
X182408211Y-90074476D01*
X182348631Y-90244745D01*
X182348630Y-90244750D01*
X182328435Y-90423996D01*
X182328435Y-90424003D01*
X182349411Y-90610175D01*
X182346717Y-90610478D01*
X182343172Y-90667932D01*
X182301849Y-90724272D01*
X182236627Y-90749327D01*
X182202385Y-90747353D01*
X182186531Y-90744200D01*
X182186530Y-90744200D01*
X182049470Y-90744200D01*
X182049465Y-90744200D01*
X181915050Y-90770937D01*
X181915038Y-90770940D01*
X181788421Y-90823386D01*
X181788408Y-90823393D01*
X181674453Y-90899536D01*
X181674449Y-90899539D01*
X181577539Y-90996449D01*
X181577536Y-90996453D01*
X181501393Y-91110408D01*
X181501386Y-91110421D01*
X181448940Y-91237038D01*
X181448937Y-91237050D01*
X181422200Y-91371465D01*
X180326585Y-91371465D01*
X180357531Y-91340519D01*
X180361508Y-91336716D01*
X181013952Y-90740356D01*
X181018087Y-90736743D01*
X181696642Y-90170245D01*
X181700944Y-90166815D01*
X182404181Y-89631369D01*
X182408676Y-89628104D01*
X183135221Y-89124751D01*
X183139824Y-89121712D01*
X183888262Y-88651438D01*
X183892991Y-88648613D01*
X184661750Y-88212404D01*
X184666621Y-88209782D01*
X185454208Y-87808487D01*
X185459149Y-87806108D01*
X186263911Y-87440567D01*
X186269025Y-87438382D01*
X187089329Y-87109335D01*
X187094533Y-87107382D01*
X187928826Y-86815449D01*
X187934081Y-86813741D01*
X188780631Y-86559534D01*
X188785982Y-86558057D01*
X189643045Y-86342096D01*
X189648440Y-86340864D01*
X190514415Y-86163556D01*
X190519814Y-86162576D01*
X191392844Y-86024301D01*
X191398297Y-86023563D01*
X192276668Y-85924594D01*
X192282124Y-85924102D01*
X193164050Y-85864642D01*
X193169542Y-85864395D01*
X194053238Y-85844562D01*
X194058762Y-85844562D01*
X194942455Y-85864395D01*
G37*
%TD.AperFunction*%
%TD*%
M02*
