M48
; DRILL file {KiCad 8.0.6-8.0.6-0~ubuntu24.04.1} date 2024-11-24T16:01:12-0600
; FORMAT={-:-/ absolute / inch / decimal}
; #@! TF.CreationDate,2024-11-24T16:01:12-06:00
; #@! TF.GenerationSoftware,Kicad,Pcbnew,8.0.6-8.0.6-0~ubuntu24.04.1
; #@! TF.FileFunction,Plated,1,4,PTH
FMAT,2
INCH
; #@! TA.AperFunction,Plated,PTH,ViaDrill
T1C0.0118
; #@! TA.AperFunction,Plated,PTH,ComponentDrill
T2C0.0197
; #@! TA.AperFunction,Plated,PTH,ComponentDrill
T3C0.0295
%
G90
G05
T1
X7.045Y-5.095
X7.05Y-4.62
X7.085Y-4.495
X7.13Y-4.185
X7.16Y-4.495
X7.18Y-4.575
X7.185Y-4.69
X7.19Y-4.525
X7.2Y-4.115
X7.215Y-4.435
X7.26Y-4.24
X7.285Y-4.19
X7.2939Y-4.23
X7.3Y-3.86
X7.3192Y-4.4308
X7.325Y-3.675
X7.325Y-3.73
X7.325Y-3.78
X7.33Y-3.625
X7.33Y-4.745
X7.35Y-3.915
X7.355Y-5.245
X7.365Y-4.885
X7.39Y-4.395
X7.445Y-3.825
X7.45Y-4.565
X7.46Y-3.67
X7.46Y-4.45
X7.482Y-3.4865
X7.4831Y-3.9551
X7.49Y-4.265
X7.49Y-5.19
X7.495Y-3.7757
X7.5Y-4.745
X7.5006Y-3.5564
X7.505Y-4.405
X7.505Y-4.57
X7.51Y-4.455
X7.5122Y-3.7281
X7.535Y-3.975
X7.5628Y-4.6155
X7.57Y-4.005
X7.585Y-4.505
X7.5855Y-3.565
X7.605Y-5.19
X7.615Y-3.785
X7.615Y-4.66
X7.6226Y-3.5786
X7.625Y-3.955
X7.625Y-4.4
X7.65Y-3.4865
X7.65Y-3.52
X7.6584Y-4.4222
X7.66Y-4.935
X7.665Y-3.7271
X7.665Y-3.7586
X7.6743Y-4.5303
X7.675Y-3.96
X7.6901Y-4.4222
X7.6983Y-3.735
X7.7061Y-3.5505
X7.72Y-3.795
X7.735Y-4.66
X7.74Y-4.265
X7.74Y-5.29
X7.7492Y-3.8067
X7.75Y-4.46
X7.75Y-4.715
X7.755Y-4.505
X7.765Y-3.51
X7.775Y-3.83
X7.7833Y-3.9283
X7.7862Y-3.6462
X7.815Y-5.19
X7.845Y-4.35
X7.855Y-3.755
X7.86Y-3.795
X7.905Y-3.8
X7.91Y-4.35
X7.925Y-4.17
X7.94Y-3.67
X7.95Y-4.12
X7.97Y-3.93
X7.9704Y-5.1078
X7.98Y-4.23
X7.995Y-4.4
X8.02Y-3.795
X8.035Y-4.025
X8.06Y-5.175
X8.065Y-3.7897
X8.085Y-3.4865
X8.085Y-4.17
X8.105Y-4.66
X8.105Y-4.715
X8.105Y-4.765
X8.12Y-3.515
X8.12Y-4.22
X8.12Y-4.43
X8.12Y-4.535
X8.125Y-4.865
X8.14Y-4.115
X8.17Y-5.23
X8.18Y-3.755
X8.185Y-3.4865
X8.1938Y-3.8652
X8.195Y-4.23
X8.235Y-3.52
X8.235Y-3.7064
X8.235Y-4.66
X8.2525Y-4.1075
X8.27Y-3.745
X8.275Y-3.905
X8.275Y-5.075
X8.2772Y-3.94
X8.28Y-3.4865
X8.29Y-5.26
X8.31Y-3.675
X8.34Y-4.235
X8.385Y-3.78
X8.445Y-5.11
X8.485Y-5.155
T3
X8.3685Y-4.3869
X8.3685Y-4.4656
X8.3685Y-4.5444
X8.3685Y-4.6231
X8.3685Y-4.8806
X8.3685Y-4.9594
T2
G00X8.4504Y-3.8951
M15
G01X8.4228Y-3.8951
M16
G05
G00X8.4504Y-4.1549
M15
G01X8.4228Y-4.1549
M16
G05
M30
