%TF.GenerationSoftware,KiCad,Pcbnew,8.0.6-8.0.6-0~ubuntu24.04.1*%
%TF.CreationDate,2024-11-29T10:46:18-06:00*%
%TF.ProjectId,can_distance_sensor,63616e5f-6469-4737-9461-6e63655f7365,rev?*%
%TF.SameCoordinates,Original*%
%TF.FileFunction,Copper,L4,Bot*%
%TF.FilePolarity,Positive*%
%FSLAX46Y46*%
G04 Gerber Fmt 4.6, Leading zero omitted, Abs format (unit mm)*
G04 Created by KiCad (PCBNEW 8.0.6-8.0.6-0~ubuntu24.04.1) date 2024-11-29 10:46:18*
%MOMM*%
%LPD*%
G01*
G04 APERTURE LIST*
G04 Aperture macros list*
%AMRoundRect*
0 Rectangle with rounded corners*
0 $1 Rounding radius*
0 $2 $3 $4 $5 $6 $7 $8 $9 X,Y pos of 4 corners*
0 Add a 4 corners polygon primitive as box body*
4,1,4,$2,$3,$4,$5,$6,$7,$8,$9,$2,$3,0*
0 Add four circle primitives for the rounded corners*
1,1,$1+$1,$2,$3*
1,1,$1+$1,$4,$5*
1,1,$1+$1,$6,$7*
1,1,$1+$1,$8,$9*
0 Add four rect primitives between the rounded corners*
20,1,$1+$1,$2,$3,$4,$5,0*
20,1,$1+$1,$4,$5,$6,$7,0*
20,1,$1+$1,$6,$7,$8,$9,0*
20,1,$1+$1,$8,$9,$2,$3,0*%
G04 Aperture macros list end*
%TA.AperFunction,SMDPad,CuDef*%
%ADD10C,1.000000*%
%TD*%
%TA.AperFunction,ConnectorPad*%
%ADD11C,0.787400*%
%TD*%
%TA.AperFunction,ComponentPad*%
%ADD12RoundRect,0.250000X0.625000X-0.350000X0.625000X0.350000X-0.625000X0.350000X-0.625000X-0.350000X0*%
%TD*%
%TA.AperFunction,ComponentPad*%
%ADD13O,1.750000X1.200000*%
%TD*%
%TA.AperFunction,ComponentPad*%
%ADD14O,1.600000X0.900000*%
%TD*%
%TA.AperFunction,SMDPad,CuDef*%
%ADD15R,1.549400X1.295400*%
%TD*%
%TA.AperFunction,ViaPad*%
%ADD16C,0.600000*%
%TD*%
%TA.AperFunction,Conductor*%
%ADD17C,0.127000*%
%TD*%
%TA.AperFunction,Conductor*%
%ADD18C,0.508000*%
%TD*%
%TA.AperFunction,Conductor*%
%ADD19C,0.254000*%
%TD*%
G04 APERTURE END LIST*
D10*
%TO.P,TP8,1,1*%
%TO.N,2V8*%
X180340000Y-117856000D03*
%TD*%
D11*
%TO.P,J2,1,VTref*%
%TO.N,3V3*%
X182499000Y-97790000D03*
%TO.P,J2,2,SWDIO/TMS*%
%TO.N,SWDIO*%
X182499000Y-96520000D03*
%TO.P,J2,3,GND*%
%TO.N,GND*%
X182499000Y-95250000D03*
%TO.P,J2,4,SWCLK/TCK*%
%TO.N,SWCLK*%
X182499000Y-93980000D03*
%TO.P,J2,5,GND*%
%TO.N,GND*%
X182499000Y-92710000D03*
%TO.P,J2,6,SWO/TDO*%
%TO.N,unconnected-(J2-SWO{slash}TDO-Pad6)*%
X183769000Y-92710000D03*
%TO.P,J2,7,KEY*%
%TO.N,unconnected-(J2-KEY-Pad7)*%
X183769000Y-93980000D03*
%TO.P,J2,8,NC/TDI*%
%TO.N,unconnected-(J2-NC{slash}TDI-Pad8)*%
X183769000Y-95250000D03*
%TO.P,J2,9,GNDDetect*%
%TO.N,GND*%
X183769000Y-96520000D03*
%TO.P,J2,10,~{RESET}*%
%TO.N,NRST*%
X183769000Y-97790000D03*
%TD*%
D12*
%TO.P,J3,1,Pin_1*%
%TO.N,VIN*%
X210910000Y-108664000D03*
D13*
%TO.P,J3,2,Pin_2*%
%TO.N,GND*%
X210910000Y-106664000D03*
%TO.P,J3,3,Pin_3*%
%TO.N,Net-(J3-Pin_3)*%
X210910000Y-104664000D03*
%TO.P,J3,4,Pin_4*%
%TO.N,Net-(J3-Pin_4)*%
X210910000Y-102664000D03*
%TD*%
D14*
%TO.P,J1,6,Shield*%
%TO.N,GND*%
X175768000Y-102364000D03*
X175768000Y-108964000D03*
%TD*%
D10*
%TO.P,TP5,1,1*%
%TO.N,GND*%
X206375000Y-93218000D03*
%TD*%
%TO.P,TP3,1,1*%
%TO.N,TOF_INT*%
X195834000Y-105410000D03*
%TD*%
%TO.P,TP4,1,1*%
%TO.N,TOF_XSHUT*%
X187579000Y-105918000D03*
%TD*%
%TO.P,TP6,1,1*%
%TO.N,3V3*%
X178562000Y-113030000D03*
%TD*%
%TO.P,TP2,1,1*%
%TO.N,TOF_SCL*%
X191389000Y-103251000D03*
%TD*%
%TO.P,TP7,1,1*%
%TO.N,VCC*%
X187706000Y-111252000D03*
%TD*%
%TO.P,TP1,1,1*%
%TO.N,TOF_SDA*%
X187833000Y-103251000D03*
%TD*%
D15*
%TO.P,SW1,1,1*%
%TO.N,Net-(R2-Pad2)*%
X207683000Y-98334000D03*
%TO.P,SW1,2,2*%
X199733000Y-98333999D03*
%TO.P,SW1,3,3*%
%TO.N,BOOT*%
X207683000Y-102834001D03*
%TO.P,SW1,4,4*%
X199733000Y-102834001D03*
%TD*%
D16*
%TO.N,3V3*%
X193675000Y-88773000D03*
X203200000Y-88773000D03*
%TO.N,BOOT*%
X198374000Y-90297000D03*
%TO.N,3V3*%
X186817000Y-88265000D03*
%TO.N,TOF_INT*%
X190119000Y-105791000D03*
X193294000Y-98552000D03*
%TO.N,TOF_XSHUT*%
X194183000Y-98552000D03*
X190754000Y-107696000D03*
%TO.N,GND*%
X203200000Y-96901000D03*
X183642000Y-121412000D03*
X185420000Y-122047000D03*
X188214000Y-119380000D03*
X192659000Y-123190000D03*
X194183000Y-121285000D03*
X198120000Y-120523000D03*
X209042000Y-114046000D03*
X204216000Y-116586000D03*
X201803000Y-116205000D03*
X203708000Y-100711000D03*
X199517000Y-100457000D03*
X195453000Y-95504000D03*
X193548000Y-95504000D03*
X193548000Y-91567000D03*
X191516000Y-91567000D03*
X195453000Y-91567000D03*
X195453000Y-93726000D03*
X191516000Y-93726000D03*
X191516000Y-95504000D03*
X193548000Y-93726000D03*
X187071000Y-99568000D03*
X178435000Y-110617000D03*
X180213000Y-105537000D03*
X183134000Y-90424000D03*
X181229000Y-94234000D03*
X184912000Y-96266000D03*
X207391000Y-99481702D03*
X189611000Y-103759000D03*
X201041000Y-106299000D03*
X197739000Y-106045000D03*
X194056000Y-107569000D03*
X190918802Y-105808911D03*
%TO.N,3V3*%
X208153000Y-94869000D03*
X197831090Y-97028000D03*
X192278000Y-89027000D03*
X192913000Y-88519000D03*
X190119000Y-87757000D03*
X191262000Y-88773000D03*
%TO.N,ID*%
X179451000Y-111379000D03*
X184404000Y-102235000D03*
%TO.N,3V3*%
X189230000Y-98171000D03*
X188564289Y-95912500D03*
X188341000Y-100711000D03*
%TO.N,CAN_RX*%
X198628000Y-104140000D03*
X200152000Y-104140000D03*
%TO.N,CAN_STB*%
X199009000Y-96266000D03*
X204343000Y-97663000D03*
%TO.N,Net-(R2-Pad2)*%
X205740000Y-96012000D03*
%TO.N,BOOT*%
X200643769Y-100207444D03*
%TO.N,VIN_MEAS*%
X210058000Y-94488000D03*
X199263000Y-91114500D03*
%TO.N,SWCLK*%
X189865000Y-98679000D03*
%TO.N,SWDIO*%
X187817234Y-96477303D03*
%TO.N,NRST*%
X198628000Y-92583000D03*
X188087000Y-90041000D03*
%TO.N,3V3*%
X181160179Y-97477821D03*
%TO.N,TOF_SDA*%
X187833000Y-103251000D03*
%TO.N,TOF_SCL*%
X190664990Y-98674418D03*
X191770000Y-99441000D03*
%TO.N,TOF_SCL_2V8*%
X196215000Y-99822000D03*
X196215000Y-103378000D03*
%TO.N,/Power/PRE_OUT*%
X201422000Y-118618000D03*
X192659000Y-113919000D03*
%TO.N,3V3*%
X178562000Y-114300000D03*
X181610000Y-111760000D03*
X205359000Y-104394000D03*
X205232000Y-106045000D03*
%TO.N,2V8*%
X184277000Y-107950000D03*
X180340000Y-117856000D03*
%TO.N,VCC*%
X189611000Y-111252000D03*
X181991000Y-103124000D03*
X185801000Y-105664000D03*
%TO.N,Net-(D1-A)*%
X176859163Y-96432776D03*
X180340000Y-103505000D03*
%TD*%
D17*
%TO.N,BOOT*%
X198374000Y-91059000D02*
X198374000Y-90297000D01*
X198394590Y-96083500D02*
X199263000Y-95215090D01*
X198394590Y-101495591D02*
X198394590Y-96083500D01*
X199263000Y-91948000D02*
X198374000Y-91059000D01*
X199263000Y-95215090D02*
X199263000Y-91948000D01*
X199733000Y-102834001D02*
X198394590Y-101495591D01*
%TO.N,VIN_MEAS*%
X206629000Y-91059000D02*
X199318500Y-91059000D01*
X199318500Y-91059000D02*
X199263000Y-91114500D01*
X210058000Y-94488000D02*
X206629000Y-91059000D01*
%TO.N,NRST*%
X198628000Y-92583000D02*
X188087000Y-92583000D01*
X188087000Y-90041000D02*
X188087000Y-92583000D01*
X188087000Y-92583000D02*
X187579000Y-92583000D01*
%TO.N,TOF_INT*%
X195834000Y-105410000D02*
X194818000Y-104394000D01*
X194818000Y-104394000D02*
X194818000Y-97790000D01*
X194818000Y-97790000D02*
X193548000Y-97790000D01*
X193548000Y-97790000D02*
X193294000Y-98044000D01*
X193294000Y-98044000D02*
X193294000Y-98552000D01*
X193294000Y-102616000D02*
X190119000Y-105791000D01*
X193294000Y-98552000D02*
X193294000Y-102616000D01*
%TO.N,TOF_XSHUT*%
X194183000Y-98552000D02*
X194183000Y-106172000D01*
X194183000Y-106172000D02*
X192659000Y-107696000D01*
X192659000Y-107696000D02*
X190754000Y-107696000D01*
X188976000Y-105918000D02*
X190754000Y-107696000D01*
X187579000Y-105918000D02*
X188976000Y-105918000D01*
%TO.N,CAN_STB*%
X204343000Y-97247090D02*
X204343000Y-97663000D01*
X203361910Y-96266000D02*
X204343000Y-97247090D01*
X199009000Y-96266000D02*
X203361910Y-96266000D01*
%TO.N,BOOT*%
X199733000Y-102834001D02*
X199733000Y-101118213D01*
X199733000Y-101118213D02*
X200643769Y-100207444D01*
%TO.N,GND*%
X182499000Y-92710000D02*
X183134000Y-92075000D01*
X183134000Y-92075000D02*
X183134000Y-90424000D01*
%TO.N,SWCLK*%
X182105301Y-93586301D02*
X182499000Y-93980000D01*
X179832000Y-97409000D02*
X179832000Y-95295552D01*
X180665500Y-94462052D02*
X180665500Y-94000590D01*
X179832000Y-95295552D02*
X180665500Y-94462052D01*
X181079789Y-93586301D02*
X182105301Y-93586301D01*
X182568800Y-100145800D02*
X179832000Y-97409000D01*
X188398200Y-100145800D02*
X182568800Y-100145800D01*
X189865000Y-98679000D02*
X188398200Y-100145800D01*
%TO.N,GND*%
X181483000Y-94234000D02*
X181229000Y-94234000D01*
%TO.N,SWCLK*%
X180665500Y-94000590D02*
X181079789Y-93586301D01*
%TO.N,GND*%
X182499000Y-95250000D02*
X181483000Y-94234000D01*
%TO.N,NRST*%
X187579000Y-94536775D02*
X187579000Y-92583000D01*
X184325775Y-97790000D02*
X187579000Y-94536775D01*
X183769000Y-97790000D02*
X184325775Y-97790000D01*
%TO.N,GND*%
X183769000Y-96520000D02*
X184658000Y-96520000D01*
X184658000Y-96520000D02*
X184912000Y-96266000D01*
%TO.N,ID*%
X179578000Y-111252000D02*
X179451000Y-111379000D01*
X179578000Y-107823000D02*
X179578000Y-111252000D01*
X181610000Y-102235000D02*
X181102000Y-102743000D01*
X184404000Y-102235000D02*
X181610000Y-102235000D01*
X181102000Y-102743000D02*
X181102000Y-106299000D01*
X181102000Y-106299000D02*
X179578000Y-107823000D01*
%TO.N,SWDIO*%
X182499000Y-96520000D02*
X180594000Y-96520000D01*
X180213000Y-97327552D02*
X182704248Y-99818800D01*
X180213000Y-96901000D02*
X180213000Y-97327552D01*
X184475737Y-99818800D02*
X187817234Y-96477303D01*
X182704248Y-99818800D02*
X184475737Y-99818800D01*
X180594000Y-96520000D02*
X180213000Y-96901000D01*
%TO.N,CAN_RX*%
X198628000Y-104140000D02*
X200152000Y-104140000D01*
%TO.N,Net-(R2-Pad2)*%
X199733000Y-98333999D02*
X207682999Y-98333999D01*
X207682999Y-98333999D02*
X207683000Y-98334000D01*
X207683000Y-98334000D02*
X207683000Y-97955000D01*
X207683000Y-97955000D02*
X205740000Y-96012000D01*
%TO.N,BOOT*%
X199733000Y-102834001D02*
X207683000Y-102834001D01*
%TO.N,TOF_SCL*%
X191003418Y-98674418D02*
X190664990Y-98674418D01*
%TO.N,3V3*%
X181472358Y-97790000D02*
X181160179Y-97477821D01*
%TO.N,TOF_SCL*%
X191770000Y-99441000D02*
X191003418Y-98674418D01*
%TO.N,3V3*%
X182499000Y-97790000D02*
X181472358Y-97790000D01*
%TO.N,TOF_SCL*%
X191389000Y-103251000D02*
X191389000Y-99822000D01*
X191389000Y-99822000D02*
X191770000Y-99441000D01*
%TO.N,TOF_SCL_2V8*%
X196215000Y-103378000D02*
X196215000Y-99822000D01*
%TO.N,/Power/PRE_OUT*%
X201422000Y-118618000D02*
X193040000Y-118618000D01*
X193040000Y-118618000D02*
X193040000Y-114300000D01*
X193040000Y-114300000D02*
X192659000Y-113919000D01*
%TO.N,3V3*%
X178562000Y-113030000D02*
X178562000Y-114300000D01*
D18*
%TO.N,2V8*%
X180340000Y-117856000D02*
X180340000Y-108077000D01*
X180340000Y-108077000D02*
X180467000Y-107950000D01*
X180467000Y-107950000D02*
X184277000Y-107950000D01*
%TO.N,VCC*%
X185801000Y-105664000D02*
X185801000Y-110744000D01*
X186055000Y-110998000D02*
X186309000Y-111252000D01*
X185801000Y-110744000D02*
X186055000Y-110998000D01*
X186309000Y-111252000D02*
X189611000Y-111252000D01*
X181991000Y-103632000D02*
X182372000Y-104013000D01*
X185674000Y-105537000D02*
X185801000Y-105664000D01*
X181991000Y-103124000D02*
X181991000Y-103632000D01*
X182372000Y-104013000D02*
X182372000Y-105537000D01*
X182372000Y-105537000D02*
X185674000Y-105537000D01*
D19*
%TO.N,Net-(D1-A)*%
X180340000Y-103505000D02*
X180340000Y-99913613D01*
X180340000Y-99913613D02*
X176859163Y-96432776D01*
%TD*%
%TA.AperFunction,Conductor*%
%TO.N,GND*%
G36*
X206411061Y-91642685D02*
G01*
X206431703Y-91659319D01*
X206843709Y-92071325D01*
X206877194Y-92132648D01*
X206872210Y-92202340D01*
X206830338Y-92258273D01*
X206764874Y-92282690D01*
X206720033Y-92277667D01*
X206571030Y-92232468D01*
X206571034Y-92232468D01*
X206375000Y-92213161D01*
X206178967Y-92232468D01*
X205990466Y-92289649D01*
X205866476Y-92355923D01*
X207237076Y-93726523D01*
X207303348Y-93602537D01*
X207360531Y-93414032D01*
X207379838Y-93218000D01*
X207360531Y-93021967D01*
X207315332Y-92872966D01*
X207314709Y-92803100D01*
X207351957Y-92743987D01*
X207415251Y-92714396D01*
X207484496Y-92723721D01*
X207521674Y-92749290D01*
X209220744Y-94448360D01*
X209254229Y-94509683D01*
X209256283Y-94522158D01*
X209272630Y-94667249D01*
X209272631Y-94667254D01*
X209332211Y-94837523D01*
X209396781Y-94940285D01*
X209428184Y-94990262D01*
X209555738Y-95117816D01*
X209708478Y-95213789D01*
X209878745Y-95273368D01*
X209878750Y-95273369D01*
X210057996Y-95293565D01*
X210058000Y-95293565D01*
X210058004Y-95293565D01*
X210237249Y-95273369D01*
X210237252Y-95273368D01*
X210237255Y-95273368D01*
X210407522Y-95213789D01*
X210560262Y-95117816D01*
X210616439Y-95061638D01*
X210677758Y-95028156D01*
X210747450Y-95033140D01*
X210803384Y-95075011D01*
X210809111Y-95083350D01*
X211068546Y-95496238D01*
X211071400Y-95501015D01*
X211507587Y-96269736D01*
X211510224Y-96274636D01*
X211911494Y-97062172D01*
X211913908Y-97067186D01*
X212279430Y-97871908D01*
X212281617Y-97877025D01*
X212610662Y-98697324D01*
X212612617Y-98702533D01*
X212904550Y-99536826D01*
X212906270Y-99542119D01*
X213160463Y-100388625D01*
X213161943Y-100393989D01*
X213377899Y-101251030D01*
X213379138Y-101256455D01*
X213556436Y-102122377D01*
X213557429Y-102127852D01*
X213695693Y-103000813D01*
X213696440Y-103006327D01*
X213795401Y-103884625D01*
X213795900Y-103890168D01*
X213855355Y-104772016D01*
X213855605Y-104777575D01*
X213875437Y-105661218D01*
X213875437Y-105666782D01*
X213855605Y-106550424D01*
X213855355Y-106555983D01*
X213795900Y-107437831D01*
X213795401Y-107443374D01*
X213696440Y-108321672D01*
X213695693Y-108327186D01*
X213557429Y-109200147D01*
X213556436Y-109205622D01*
X213379138Y-110071544D01*
X213377899Y-110076969D01*
X213161943Y-110934010D01*
X213160463Y-110939374D01*
X212906270Y-111785880D01*
X212904550Y-111791173D01*
X212612617Y-112625466D01*
X212610662Y-112630675D01*
X212281617Y-113450974D01*
X212279430Y-113456091D01*
X211913908Y-114260813D01*
X211911494Y-114265827D01*
X211510224Y-115053363D01*
X211507587Y-115058263D01*
X211071400Y-115826984D01*
X211068546Y-115831761D01*
X210598300Y-116580154D01*
X210595234Y-116584798D01*
X210091895Y-117311323D01*
X210088624Y-117315825D01*
X209553203Y-118019030D01*
X209549734Y-118023381D01*
X208983280Y-118701884D01*
X208979619Y-118706074D01*
X208383304Y-119358468D01*
X208379458Y-119362490D01*
X207754490Y-119987458D01*
X207750468Y-119991304D01*
X207098074Y-120587619D01*
X207093884Y-120591280D01*
X206415381Y-121157734D01*
X206411030Y-121161203D01*
X205707825Y-121696624D01*
X205703323Y-121699895D01*
X204976798Y-122203234D01*
X204972154Y-122206300D01*
X204223761Y-122676546D01*
X204218984Y-122679400D01*
X203450263Y-123115587D01*
X203445363Y-123118224D01*
X202657827Y-123519494D01*
X202652813Y-123521908D01*
X201848091Y-123887430D01*
X201842974Y-123889617D01*
X201022675Y-124218662D01*
X201017466Y-124220617D01*
X200183173Y-124512550D01*
X200177880Y-124514270D01*
X199331374Y-124768463D01*
X199326010Y-124769943D01*
X198468969Y-124985899D01*
X198463544Y-124987138D01*
X197597622Y-125164436D01*
X197592147Y-125165429D01*
X196719186Y-125303693D01*
X196713672Y-125304440D01*
X195835374Y-125403401D01*
X195829831Y-125403900D01*
X194947983Y-125463355D01*
X194942424Y-125463605D01*
X194058782Y-125483437D01*
X194053218Y-125483437D01*
X193169575Y-125463605D01*
X193164016Y-125463355D01*
X192282168Y-125403900D01*
X192276625Y-125403401D01*
X191398327Y-125304440D01*
X191392813Y-125303693D01*
X190519852Y-125165429D01*
X190514377Y-125164436D01*
X189648455Y-124987138D01*
X189643030Y-124985899D01*
X188785989Y-124769943D01*
X188780625Y-124768463D01*
X187934119Y-124514270D01*
X187928826Y-124512550D01*
X187094533Y-124220617D01*
X187089324Y-124218662D01*
X186269025Y-123889617D01*
X186263908Y-123887430D01*
X185459186Y-123521908D01*
X185454172Y-123519494D01*
X184666636Y-123118224D01*
X184661736Y-123115587D01*
X183893015Y-122679400D01*
X183888238Y-122676546D01*
X183139845Y-122206300D01*
X183135201Y-122203234D01*
X182408676Y-121699895D01*
X182404174Y-121696624D01*
X181700969Y-121161203D01*
X181696618Y-121157734D01*
X181018115Y-120591280D01*
X181013925Y-120587619D01*
X180361531Y-119991304D01*
X180357509Y-119987458D01*
X179732541Y-119362490D01*
X179728695Y-119358468D01*
X179464396Y-119069314D01*
X179132376Y-118706069D01*
X179128719Y-118701884D01*
X179120391Y-118691909D01*
X178562263Y-118023379D01*
X178558796Y-118019030D01*
X178491008Y-117930000D01*
X178285331Y-117659870D01*
X178023375Y-117315825D01*
X178020104Y-117311323D01*
X177516765Y-116584798D01*
X177513699Y-116580154D01*
X177043453Y-115831761D01*
X177040599Y-115826984D01*
X176604412Y-115058263D01*
X176601775Y-115053363D01*
X176393596Y-114644789D01*
X176200496Y-114265808D01*
X176198100Y-114260833D01*
X175913178Y-113633557D01*
X175832569Y-113456091D01*
X175830382Y-113450974D01*
X175501337Y-112630675D01*
X175499382Y-112625466D01*
X175207449Y-111791173D01*
X175205737Y-111785905D01*
X174958955Y-110964080D01*
X174951536Y-110939374D01*
X174950056Y-110934010D01*
X174832287Y-110466632D01*
X174734098Y-110076963D01*
X174732861Y-110071544D01*
X174700604Y-109914000D01*
X174693104Y-109877370D01*
X174698941Y-109807747D01*
X174741494Y-109752330D01*
X174807252Y-109728716D01*
X174875338Y-109744402D01*
X174883475Y-109749397D01*
X174968000Y-109805875D01*
X174968008Y-109805880D01*
X175140894Y-109877491D01*
X175140902Y-109877493D01*
X175324428Y-109913999D01*
X175324431Y-109914000D01*
X175518000Y-109914000D01*
X175518000Y-109214000D01*
X176018000Y-109214000D01*
X176018000Y-109914000D01*
X176211569Y-109914000D01*
X176211571Y-109913999D01*
X176395097Y-109877493D01*
X176395105Y-109877491D01*
X176567991Y-109805880D01*
X176568000Y-109805875D01*
X176723589Y-109701913D01*
X176723593Y-109701910D01*
X176855910Y-109569593D01*
X176855913Y-109569589D01*
X176959875Y-109414000D01*
X176959880Y-109413991D01*
X177031492Y-109241103D01*
X177031493Y-109241100D01*
X177036884Y-109214000D01*
X176167728Y-109214000D01*
X176259614Y-109175940D01*
X176329940Y-109105614D01*
X176368000Y-109013728D01*
X176368000Y-108914272D01*
X176329940Y-108822386D01*
X176259614Y-108752060D01*
X176167728Y-108714000D01*
X177036884Y-108714000D01*
X177036884Y-108713999D01*
X177031493Y-108686899D01*
X177031492Y-108686896D01*
X176959880Y-108514008D01*
X176959875Y-108513999D01*
X176855913Y-108358410D01*
X176855910Y-108358406D01*
X176723593Y-108226089D01*
X176723589Y-108226086D01*
X176568000Y-108122124D01*
X176567991Y-108122119D01*
X176395105Y-108050508D01*
X176395097Y-108050506D01*
X176211570Y-108014000D01*
X176018000Y-108014000D01*
X176018000Y-108714000D01*
X175518000Y-108714000D01*
X175518000Y-108014000D01*
X175324430Y-108014000D01*
X175140902Y-108050506D01*
X175140894Y-108050508D01*
X174968008Y-108122119D01*
X174967999Y-108122124D01*
X174812410Y-108226086D01*
X174812406Y-108226089D01*
X174680089Y-108358406D01*
X174680086Y-108358410D01*
X174646863Y-108408132D01*
X174593250Y-108452937D01*
X174523925Y-108461644D01*
X174460898Y-108431489D01*
X174424179Y-108372046D01*
X174421288Y-108358640D01*
X174421251Y-108358406D01*
X174416301Y-108327155D01*
X174415562Y-108321697D01*
X174316594Y-107443335D01*
X174316102Y-107437871D01*
X174256642Y-106555951D01*
X174256395Y-106550455D01*
X174236562Y-105666762D01*
X174236562Y-105661218D01*
X174256395Y-104777542D01*
X174256642Y-104772050D01*
X174316102Y-103890124D01*
X174316594Y-103884668D01*
X174415563Y-103006296D01*
X174416300Y-103000850D01*
X174421288Y-102969357D01*
X174451218Y-102906224D01*
X174510530Y-102869294D01*
X174580392Y-102870292D01*
X174638625Y-102908903D01*
X174646863Y-102919868D01*
X174680083Y-102969585D01*
X174680089Y-102969593D01*
X174812406Y-103101910D01*
X174812410Y-103101913D01*
X174967999Y-103205875D01*
X174968008Y-103205880D01*
X175140894Y-103277491D01*
X175140902Y-103277493D01*
X175324428Y-103313999D01*
X175324431Y-103314000D01*
X175518000Y-103314000D01*
X175518000Y-102614000D01*
X176018000Y-102614000D01*
X176018000Y-103314000D01*
X176211569Y-103314000D01*
X176211571Y-103313999D01*
X176395097Y-103277493D01*
X176395105Y-103277491D01*
X176567991Y-103205880D01*
X176568000Y-103205875D01*
X176723589Y-103101913D01*
X176723593Y-103101910D01*
X176855910Y-102969593D01*
X176855913Y-102969589D01*
X176959875Y-102814000D01*
X176959880Y-102813991D01*
X177031492Y-102641103D01*
X177031493Y-102641100D01*
X177036884Y-102614000D01*
X176167728Y-102614000D01*
X176259614Y-102575940D01*
X176329940Y-102505614D01*
X176368000Y-102413728D01*
X176368000Y-102314272D01*
X176329940Y-102222386D01*
X176259614Y-102152060D01*
X176167728Y-102114000D01*
X177036884Y-102114000D01*
X177036884Y-102113999D01*
X177031493Y-102086899D01*
X177031492Y-102086896D01*
X176959880Y-101914008D01*
X176959875Y-101913999D01*
X176855913Y-101758410D01*
X176855910Y-101758406D01*
X176723593Y-101626089D01*
X176723589Y-101626086D01*
X176568000Y-101522124D01*
X176567991Y-101522119D01*
X176395105Y-101450508D01*
X176395097Y-101450506D01*
X176211570Y-101414000D01*
X176018000Y-101414000D01*
X176018000Y-102114000D01*
X175518000Y-102114000D01*
X175518000Y-101414000D01*
X175324430Y-101414000D01*
X175140902Y-101450506D01*
X175140894Y-101450508D01*
X174968008Y-101522119D01*
X174967999Y-101522124D01*
X174883475Y-101578602D01*
X174816797Y-101599480D01*
X174749417Y-101580995D01*
X174702727Y-101529016D01*
X174691551Y-101460046D01*
X174693101Y-101450642D01*
X174732864Y-101256440D01*
X174734100Y-101251030D01*
X174794077Y-101013009D01*
X174950057Y-100393982D01*
X174951536Y-100388625D01*
X175205741Y-99542081D01*
X175207449Y-99536826D01*
X175499382Y-98702533D01*
X175501337Y-98697324D01*
X175506602Y-98684200D01*
X175830383Y-97877021D01*
X175832569Y-97871908D01*
X175853400Y-97826047D01*
X176176281Y-97115203D01*
X176221927Y-97062308D01*
X176288926Y-97042486D01*
X176355151Y-97061492D01*
X176356899Y-97062590D01*
X176356901Y-97062592D01*
X176509641Y-97158565D01*
X176679908Y-97218144D01*
X176723798Y-97223089D01*
X176788211Y-97250154D01*
X176797596Y-97258628D01*
X179676181Y-100137213D01*
X179709666Y-100198536D01*
X179712500Y-100224894D01*
X179712500Y-102963328D01*
X179693494Y-103029300D01*
X179614211Y-103155476D01*
X179554631Y-103325745D01*
X179554630Y-103325750D01*
X179534435Y-103504996D01*
X179534435Y-103505003D01*
X179554630Y-103684249D01*
X179554631Y-103684254D01*
X179614211Y-103854523D01*
X179681670Y-103961883D01*
X179710184Y-104007262D01*
X179837738Y-104134816D01*
X179990478Y-104230789D01*
X180106975Y-104271553D01*
X180160745Y-104290368D01*
X180160750Y-104290369D01*
X180339996Y-104310565D01*
X180340000Y-104310565D01*
X180340004Y-104310565D01*
X180400117Y-104303792D01*
X180468939Y-104315847D01*
X180520318Y-104363196D01*
X180538000Y-104427012D01*
X180538000Y-106014021D01*
X180518315Y-106081060D01*
X180501681Y-106101702D01*
X179126688Y-107476694D01*
X179126686Y-107476696D01*
X179104302Y-107515469D01*
X179104301Y-107515470D01*
X179052434Y-107605305D01*
X179052433Y-107605306D01*
X179032040Y-107681420D01*
X179019045Y-107729921D01*
X179018982Y-107730157D01*
X179014000Y-107748748D01*
X179014000Y-110639644D01*
X178994315Y-110706683D01*
X178955977Y-110744635D01*
X178948738Y-110749183D01*
X178821184Y-110876737D01*
X178725211Y-111029476D01*
X178665631Y-111199745D01*
X178665630Y-111199750D01*
X178645435Y-111378996D01*
X178645435Y-111379003D01*
X178665630Y-111558249D01*
X178665631Y-111558254D01*
X178725212Y-111728526D01*
X178799757Y-111847162D01*
X178818758Y-111914398D01*
X178798391Y-111981233D01*
X178745123Y-112026448D01*
X178682611Y-112036537D01*
X178562001Y-112024659D01*
X178562000Y-112024659D01*
X178365870Y-112043975D01*
X178177266Y-112101188D01*
X178003467Y-112194086D01*
X178003460Y-112194090D01*
X177851116Y-112319116D01*
X177726090Y-112471460D01*
X177726086Y-112471467D01*
X177633188Y-112645266D01*
X177575975Y-112833870D01*
X177556659Y-113030000D01*
X177575975Y-113226129D01*
X177633188Y-113414733D01*
X177726086Y-113588532D01*
X177726090Y-113588539D01*
X177851118Y-113740885D01*
X177852917Y-113742684D01*
X177853558Y-113743858D01*
X177854981Y-113745592D01*
X177854652Y-113745861D01*
X177886402Y-113804007D01*
X177881418Y-113873699D01*
X177870231Y-113896334D01*
X177843832Y-113938348D01*
X177836209Y-113950481D01*
X177776633Y-114120737D01*
X177776630Y-114120750D01*
X177756435Y-114299996D01*
X177756435Y-114300003D01*
X177776630Y-114479249D01*
X177776631Y-114479254D01*
X177836211Y-114649523D01*
X177917990Y-114779672D01*
X177932184Y-114802262D01*
X178059738Y-114929816D01*
X178212478Y-115025789D01*
X178382745Y-115085368D01*
X178382750Y-115085369D01*
X178561996Y-115105565D01*
X178562000Y-115105565D01*
X178562004Y-115105565D01*
X178741249Y-115085369D01*
X178741252Y-115085368D01*
X178741255Y-115085368D01*
X178911522Y-115025789D01*
X179064262Y-114929816D01*
X179191816Y-114802262D01*
X179287789Y-114649522D01*
X179344458Y-114487570D01*
X179385180Y-114430795D01*
X179450133Y-114405048D01*
X179518694Y-114418504D01*
X179569097Y-114466891D01*
X179585500Y-114528526D01*
X179585500Y-117153895D01*
X179565815Y-117220934D01*
X179557353Y-117232560D01*
X179504091Y-117297460D01*
X179504086Y-117297467D01*
X179411188Y-117471266D01*
X179353975Y-117659870D01*
X179334659Y-117856000D01*
X179353975Y-118052129D01*
X179411188Y-118240733D01*
X179504086Y-118414532D01*
X179504090Y-118414539D01*
X179629116Y-118566883D01*
X179781460Y-118691909D01*
X179781467Y-118691913D01*
X179955266Y-118784811D01*
X179955269Y-118784811D01*
X179955273Y-118784814D01*
X180143868Y-118842024D01*
X180340000Y-118861341D01*
X180536132Y-118842024D01*
X180724727Y-118784814D01*
X180898538Y-118691910D01*
X181050883Y-118566883D01*
X181175910Y-118414538D01*
X181268814Y-118240727D01*
X181326024Y-118052132D01*
X181345341Y-117856000D01*
X181326024Y-117659868D01*
X181268814Y-117471273D01*
X181268811Y-117471269D01*
X181268811Y-117471266D01*
X181175913Y-117297467D01*
X181175911Y-117297465D01*
X181175910Y-117297462D01*
X181160666Y-117278888D01*
X181122647Y-117232560D01*
X181095334Y-117168250D01*
X181094500Y-117153895D01*
X181094500Y-113918996D01*
X191853435Y-113918996D01*
X191853435Y-113919003D01*
X191873630Y-114098249D01*
X191873631Y-114098254D01*
X191933211Y-114268523D01*
X192018996Y-114405048D01*
X192029184Y-114421262D01*
X192156738Y-114548816D01*
X192309478Y-114644789D01*
X192392954Y-114673998D01*
X192449730Y-114714720D01*
X192475478Y-114779672D01*
X192476000Y-114791040D01*
X192476000Y-118692252D01*
X192514435Y-118835696D01*
X192588687Y-118964304D01*
X192693696Y-119069313D01*
X192822304Y-119143565D01*
X192965748Y-119182000D01*
X193114252Y-119182000D01*
X200802560Y-119182000D01*
X200869599Y-119201685D01*
X200890241Y-119218319D01*
X200919738Y-119247816D01*
X201072478Y-119343789D01*
X201242745Y-119403368D01*
X201242750Y-119403369D01*
X201421996Y-119423565D01*
X201422000Y-119423565D01*
X201422004Y-119423565D01*
X201601249Y-119403369D01*
X201601252Y-119403368D01*
X201601255Y-119403368D01*
X201771522Y-119343789D01*
X201924262Y-119247816D01*
X202051816Y-119120262D01*
X202147789Y-118967522D01*
X202207368Y-118797255D01*
X202217642Y-118706074D01*
X202227565Y-118618003D01*
X202227565Y-118617996D01*
X202207369Y-118438750D01*
X202207368Y-118438745D01*
X202198898Y-118414538D01*
X202147789Y-118268478D01*
X202051816Y-118115738D01*
X201924262Y-117988184D01*
X201831663Y-117930000D01*
X201771523Y-117892211D01*
X201601254Y-117832631D01*
X201601249Y-117832630D01*
X201422004Y-117812435D01*
X201421996Y-117812435D01*
X201242750Y-117832630D01*
X201242745Y-117832631D01*
X201072476Y-117892211D01*
X200919737Y-117988184D01*
X200890241Y-118017681D01*
X200828918Y-118051166D01*
X200802560Y-118054000D01*
X193728000Y-118054000D01*
X193660961Y-118034315D01*
X193615206Y-117981511D01*
X193604000Y-117930000D01*
X193604000Y-114225750D01*
X193604000Y-114225748D01*
X193565565Y-114082304D01*
X193565565Y-114082303D01*
X193559312Y-114071473D01*
X193514151Y-113993252D01*
X193514149Y-113993250D01*
X193491315Y-113953699D01*
X193486367Y-113947251D01*
X193488953Y-113945266D01*
X193462770Y-113897315D01*
X193460716Y-113884840D01*
X193444369Y-113739750D01*
X193444368Y-113739745D01*
X193403458Y-113622832D01*
X193384789Y-113569478D01*
X193288816Y-113416738D01*
X193161262Y-113289184D01*
X193008523Y-113193211D01*
X192838254Y-113133631D01*
X192838249Y-113133630D01*
X192659004Y-113113435D01*
X192658996Y-113113435D01*
X192479750Y-113133630D01*
X192479745Y-113133631D01*
X192309476Y-113193211D01*
X192156737Y-113289184D01*
X192029184Y-113416737D01*
X191933211Y-113569476D01*
X191873631Y-113739745D01*
X191873630Y-113739750D01*
X191853435Y-113918996D01*
X181094500Y-113918996D01*
X181094500Y-112602473D01*
X181114185Y-112535434D01*
X181166989Y-112489679D01*
X181236147Y-112479735D01*
X181259455Y-112485431D01*
X181430745Y-112545368D01*
X181430750Y-112545369D01*
X181609996Y-112565565D01*
X181610000Y-112565565D01*
X181610004Y-112565565D01*
X181789249Y-112545369D01*
X181789252Y-112545368D01*
X181789255Y-112545368D01*
X181959522Y-112485789D01*
X182112262Y-112389816D01*
X182239816Y-112262262D01*
X182335789Y-112109522D01*
X182395368Y-111939255D01*
X182401840Y-111881815D01*
X182415565Y-111760003D01*
X182415565Y-111759996D01*
X182395369Y-111580750D01*
X182395368Y-111580745D01*
X182358242Y-111474645D01*
X182335789Y-111410478D01*
X182239816Y-111257738D01*
X182112262Y-111130184D01*
X182066429Y-111101385D01*
X181959523Y-111034211D01*
X181789254Y-110974631D01*
X181789249Y-110974630D01*
X181610004Y-110954435D01*
X181609996Y-110954435D01*
X181430750Y-110974630D01*
X181430742Y-110974632D01*
X181259454Y-111034568D01*
X181189675Y-111038129D01*
X181129048Y-111003400D01*
X181096821Y-110941406D01*
X181094500Y-110917526D01*
X181094500Y-108828500D01*
X181114185Y-108761461D01*
X181166989Y-108715706D01*
X181218500Y-108704500D01*
X183988460Y-108704500D01*
X184029415Y-108711459D01*
X184097737Y-108735366D01*
X184097743Y-108735367D01*
X184097745Y-108735368D01*
X184097746Y-108735368D01*
X184097750Y-108735369D01*
X184276996Y-108755565D01*
X184277000Y-108755565D01*
X184277004Y-108755565D01*
X184456249Y-108735369D01*
X184456252Y-108735368D01*
X184456255Y-108735368D01*
X184626522Y-108675789D01*
X184779262Y-108579816D01*
X184834819Y-108524259D01*
X184896142Y-108490774D01*
X184965834Y-108495758D01*
X185021767Y-108537630D01*
X185046184Y-108603094D01*
X185046500Y-108611940D01*
X185046500Y-110664552D01*
X185046499Y-110664578D01*
X185046499Y-110818314D01*
X185070051Y-110936713D01*
X185070051Y-110936717D01*
X185070052Y-110936717D01*
X185073574Y-110954426D01*
X185075495Y-110964080D01*
X185104544Y-111034211D01*
X185132370Y-111101389D01*
X185214941Y-111224966D01*
X185464610Y-111474634D01*
X185464620Y-111474645D01*
X185468940Y-111478965D01*
X185468941Y-111478966D01*
X185718610Y-111728634D01*
X185718629Y-111728655D01*
X185828028Y-111838054D01*
X185828035Y-111838060D01*
X185951608Y-111920628D01*
X185951609Y-111920628D01*
X185951610Y-111920629D01*
X186088920Y-111977505D01*
X186234683Y-112006499D01*
X186234687Y-112006500D01*
X186234688Y-112006500D01*
X187003896Y-112006500D01*
X187070935Y-112026185D01*
X187082561Y-112034647D01*
X187147460Y-112087909D01*
X187147467Y-112087913D01*
X187321266Y-112180811D01*
X187321269Y-112180811D01*
X187321273Y-112180814D01*
X187509868Y-112238024D01*
X187706000Y-112257341D01*
X187902132Y-112238024D01*
X188090727Y-112180814D01*
X188112063Y-112169410D01*
X188224105Y-112109522D01*
X188264538Y-112087910D01*
X188329439Y-112034647D01*
X188393749Y-112007334D01*
X188408104Y-112006500D01*
X189322460Y-112006500D01*
X189363415Y-112013459D01*
X189431737Y-112037366D01*
X189431743Y-112037367D01*
X189431745Y-112037368D01*
X189431746Y-112037368D01*
X189431750Y-112037369D01*
X189610996Y-112057565D01*
X189611000Y-112057565D01*
X189611004Y-112057565D01*
X189790249Y-112037369D01*
X189790252Y-112037368D01*
X189790255Y-112037368D01*
X189960522Y-111977789D01*
X190113262Y-111881816D01*
X190240816Y-111754262D01*
X190336789Y-111601522D01*
X190396368Y-111431255D01*
X190398709Y-111410478D01*
X190416565Y-111252003D01*
X190416565Y-111251996D01*
X190396369Y-111072750D01*
X190396368Y-111072745D01*
X190381228Y-111029478D01*
X190336789Y-110902478D01*
X190320615Y-110876738D01*
X190240815Y-110749737D01*
X190113262Y-110622184D01*
X189960523Y-110526211D01*
X189790254Y-110466631D01*
X189790249Y-110466630D01*
X189611004Y-110446435D01*
X189610996Y-110446435D01*
X189431750Y-110466630D01*
X189431737Y-110466633D01*
X189363415Y-110490541D01*
X189322460Y-110497500D01*
X188408104Y-110497500D01*
X188341065Y-110477815D01*
X188329439Y-110469353D01*
X188264539Y-110416090D01*
X188264532Y-110416086D01*
X188090733Y-110323188D01*
X188090727Y-110323186D01*
X187902132Y-110265976D01*
X187902129Y-110265975D01*
X187706000Y-110246659D01*
X187509870Y-110265975D01*
X187321266Y-110323188D01*
X187147467Y-110416086D01*
X187147460Y-110416090D01*
X187082561Y-110469353D01*
X187018251Y-110496666D01*
X187003896Y-110497500D01*
X186679500Y-110497500D01*
X186612461Y-110477815D01*
X186566706Y-110425011D01*
X186555500Y-110373500D01*
X186555500Y-106594515D01*
X186575185Y-106527476D01*
X186627989Y-106481721D01*
X186697147Y-106471777D01*
X186760703Y-106500802D01*
X186775351Y-106515848D01*
X186777379Y-106518319D01*
X186868116Y-106628883D01*
X187020460Y-106753909D01*
X187020467Y-106753913D01*
X187194266Y-106846811D01*
X187194269Y-106846811D01*
X187194273Y-106846814D01*
X187382868Y-106904024D01*
X187579000Y-106923341D01*
X187775132Y-106904024D01*
X187963727Y-106846814D01*
X187994494Y-106830369D01*
X188050632Y-106800362D01*
X188137538Y-106753910D01*
X188289883Y-106628883D01*
X188318088Y-106594515D01*
X188373222Y-106527335D01*
X188430968Y-106488001D01*
X188469075Y-106482000D01*
X188691022Y-106482000D01*
X188758061Y-106501685D01*
X188778702Y-106518318D01*
X189356064Y-107095681D01*
X189916743Y-107656360D01*
X189950228Y-107717683D01*
X189952282Y-107730157D01*
X189968630Y-107875250D01*
X189968631Y-107875254D01*
X190028211Y-108045523D01*
X190092171Y-108147314D01*
X190124184Y-108198262D01*
X190251738Y-108325816D01*
X190404478Y-108421789D01*
X190491565Y-108452262D01*
X190574745Y-108481368D01*
X190574750Y-108481369D01*
X190753996Y-108501565D01*
X190754000Y-108501565D01*
X190754004Y-108501565D01*
X190933249Y-108481369D01*
X190933252Y-108481368D01*
X190933255Y-108481368D01*
X191103522Y-108421789D01*
X191256262Y-108325816D01*
X191285759Y-108296319D01*
X191347082Y-108262834D01*
X191373440Y-108260000D01*
X192733251Y-108260000D01*
X192733253Y-108260000D01*
X192876696Y-108221565D01*
X193005304Y-108147313D01*
X193110313Y-108042304D01*
X193110313Y-108042302D01*
X193120517Y-108032099D01*
X193120521Y-108032094D01*
X194519094Y-106633521D01*
X194519099Y-106633517D01*
X194529302Y-106623313D01*
X194529304Y-106623313D01*
X194634313Y-106518304D01*
X194690598Y-106420816D01*
X194708565Y-106389697D01*
X194747000Y-106246253D01*
X194747000Y-106097748D01*
X194747000Y-105993818D01*
X194766685Y-105926779D01*
X194819489Y-105881024D01*
X194888647Y-105871080D01*
X194952203Y-105900105D01*
X194980357Y-105935363D01*
X194981972Y-105938384D01*
X194998091Y-105968539D01*
X195123116Y-106120883D01*
X195275460Y-106245909D01*
X195275467Y-106245913D01*
X195449266Y-106338811D01*
X195449269Y-106338811D01*
X195449273Y-106338814D01*
X195637868Y-106396024D01*
X195834000Y-106415341D01*
X196030132Y-106396024D01*
X196218727Y-106338814D01*
X196264111Y-106314556D01*
X196392532Y-106245913D01*
X196392538Y-106245910D01*
X196544883Y-106120883D01*
X196669910Y-105968538D01*
X196746549Y-105825157D01*
X196762811Y-105794733D01*
X196762811Y-105794732D01*
X196762814Y-105794727D01*
X196820024Y-105606132D01*
X196839341Y-105410000D01*
X196820024Y-105213868D01*
X196762814Y-105025273D01*
X196762811Y-105025269D01*
X196762811Y-105025266D01*
X196669913Y-104851467D01*
X196669909Y-104851460D01*
X196544883Y-104699116D01*
X196392539Y-104574090D01*
X196392532Y-104574086D01*
X196218733Y-104481188D01*
X196218727Y-104481186D01*
X196092997Y-104443046D01*
X196030129Y-104423975D01*
X195834000Y-104404659D01*
X195703262Y-104417534D01*
X195634616Y-104404514D01*
X195603428Y-104381812D01*
X195418319Y-104196703D01*
X195384834Y-104135380D01*
X195382000Y-104109022D01*
X195382000Y-103976440D01*
X195401685Y-103909401D01*
X195454489Y-103863646D01*
X195523647Y-103853702D01*
X195587203Y-103882727D01*
X195593681Y-103888759D01*
X195712738Y-104007816D01*
X195771082Y-104044476D01*
X195838613Y-104086909D01*
X195865478Y-104103789D01*
X195954148Y-104134816D01*
X196035745Y-104163368D01*
X196035750Y-104163369D01*
X196214996Y-104183565D01*
X196215000Y-104183565D01*
X196215004Y-104183565D01*
X196394249Y-104163369D01*
X196394252Y-104163368D01*
X196394255Y-104163368D01*
X196564522Y-104103789D01*
X196717262Y-104007816D01*
X196844816Y-103880262D01*
X196940789Y-103727522D01*
X197000368Y-103557255D01*
X197002352Y-103539648D01*
X197020565Y-103378003D01*
X197020565Y-103377996D01*
X197000369Y-103198750D01*
X197000368Y-103198745D01*
X196985228Y-103155478D01*
X196940789Y-103028478D01*
X196925134Y-103003564D01*
X196901582Y-102966080D01*
X196844816Y-102875738D01*
X196815319Y-102846241D01*
X196781834Y-102784918D01*
X196779000Y-102758560D01*
X196779000Y-100441440D01*
X196798685Y-100374401D01*
X196815319Y-100353759D01*
X196815677Y-100353401D01*
X196844816Y-100324262D01*
X196940789Y-100171522D01*
X197000368Y-100001255D01*
X197000369Y-100001249D01*
X197020565Y-99822003D01*
X197020565Y-99821996D01*
X197000369Y-99642750D01*
X197000368Y-99642745D01*
X196978051Y-99578966D01*
X196940789Y-99472478D01*
X196844816Y-99319738D01*
X196717262Y-99192184D01*
X196701549Y-99182311D01*
X196564523Y-99096211D01*
X196394254Y-99036631D01*
X196394249Y-99036630D01*
X196215004Y-99016435D01*
X196214996Y-99016435D01*
X196035750Y-99036630D01*
X196035745Y-99036631D01*
X195865476Y-99096211D01*
X195712737Y-99192184D01*
X195593681Y-99311241D01*
X195532358Y-99344726D01*
X195462666Y-99339742D01*
X195406733Y-99297870D01*
X195382316Y-99232406D01*
X195382000Y-99223560D01*
X195382000Y-97715750D01*
X195382000Y-97715748D01*
X195343565Y-97572304D01*
X195269313Y-97443696D01*
X195164304Y-97338687D01*
X195035696Y-97264435D01*
X194892252Y-97226000D01*
X193622252Y-97226000D01*
X193473747Y-97226000D01*
X193371865Y-97253298D01*
X193371865Y-97253299D01*
X193358011Y-97257011D01*
X193330302Y-97264435D01*
X193330301Y-97264436D01*
X193201699Y-97338685D01*
X193201693Y-97338689D01*
X192842689Y-97697693D01*
X192842685Y-97697699D01*
X192789395Y-97790000D01*
X192768434Y-97826305D01*
X192735659Y-97948627D01*
X192735658Y-97948630D01*
X192733410Y-97957019D01*
X192701318Y-98012603D01*
X192664184Y-98049737D01*
X192568211Y-98202476D01*
X192508631Y-98372745D01*
X192508630Y-98372750D01*
X192488435Y-98551996D01*
X192488435Y-98552003D01*
X192509118Y-98735575D01*
X192497063Y-98804397D01*
X192449714Y-98855776D01*
X192382104Y-98873400D01*
X192315698Y-98851673D01*
X192298217Y-98837139D01*
X192272262Y-98811184D01*
X192119523Y-98715211D01*
X191949254Y-98655631D01*
X191949250Y-98655630D01*
X191804157Y-98639282D01*
X191739743Y-98612215D01*
X191730360Y-98603743D01*
X191461801Y-98335185D01*
X191461799Y-98335182D01*
X191349723Y-98223106D01*
X191349718Y-98223102D01*
X191340413Y-98217730D01*
X191297418Y-98176312D01*
X191294808Y-98172158D01*
X191248739Y-98126089D01*
X191167252Y-98044602D01*
X191083131Y-97991745D01*
X191014513Y-97948629D01*
X190844244Y-97889049D01*
X190844239Y-97889048D01*
X190664994Y-97868853D01*
X190664986Y-97868853D01*
X190485740Y-97889048D01*
X190485727Y-97889051D01*
X190315464Y-97948629D01*
X190313744Y-97949458D01*
X190312522Y-97949659D01*
X190308896Y-97950928D01*
X190308673Y-97950292D01*
X190244802Y-97960805D01*
X190218997Y-97954776D01*
X190118975Y-97919777D01*
X190044255Y-97893632D01*
X190044248Y-97893631D01*
X190042118Y-97893145D01*
X190040876Y-97892450D01*
X190037683Y-97891333D01*
X190037878Y-97890773D01*
X189981141Y-97859035D01*
X189957989Y-97826047D01*
X189955790Y-97821481D01*
X189955789Y-97821478D01*
X189859816Y-97668738D01*
X189732262Y-97541184D01*
X189682044Y-97509630D01*
X189579523Y-97445211D01*
X189409254Y-97385631D01*
X189409249Y-97385630D01*
X189230004Y-97365435D01*
X189229996Y-97365435D01*
X189050750Y-97385630D01*
X189050745Y-97385631D01*
X188880476Y-97445211D01*
X188727737Y-97541184D01*
X188600184Y-97668737D01*
X188504211Y-97821476D01*
X188444631Y-97991745D01*
X188444630Y-97991750D01*
X188424435Y-98170996D01*
X188424435Y-98171003D01*
X188444630Y-98350249D01*
X188444631Y-98350254D01*
X188504211Y-98520523D01*
X188600184Y-98673262D01*
X188727739Y-98800817D01*
X188729856Y-98802147D01*
X188730930Y-98803361D01*
X188733184Y-98805159D01*
X188732869Y-98805553D01*
X188776146Y-98854483D01*
X188786792Y-98923537D01*
X188758415Y-98987385D01*
X188751562Y-98994820D01*
X188200903Y-99545481D01*
X188139580Y-99578966D01*
X188113222Y-99581800D01*
X185809715Y-99581800D01*
X185742676Y-99562115D01*
X185696921Y-99509311D01*
X185686977Y-99440153D01*
X185716002Y-99376597D01*
X185722034Y-99370119D01*
X186235112Y-98857041D01*
X187777595Y-97314556D01*
X187838916Y-97281073D01*
X187851382Y-97279020D01*
X187926311Y-97270578D01*
X187996484Y-97262672D01*
X187996487Y-97262671D01*
X187996489Y-97262671D01*
X188166756Y-97203092D01*
X188319496Y-97107119D01*
X188447050Y-96979565D01*
X188543023Y-96826825D01*
X188556035Y-96789636D01*
X188596753Y-96732863D01*
X188659190Y-96707371D01*
X188743544Y-96697868D01*
X188913811Y-96638289D01*
X189066551Y-96542316D01*
X189194105Y-96414762D01*
X189290078Y-96262022D01*
X189349657Y-96091755D01*
X189354601Y-96047875D01*
X189369854Y-95912503D01*
X189369854Y-95912496D01*
X189349658Y-95733250D01*
X189349657Y-95733245D01*
X189325735Y-95664880D01*
X189290078Y-95562978D01*
X189194105Y-95410238D01*
X189066551Y-95282684D01*
X188977345Y-95226632D01*
X188913812Y-95186711D01*
X188743543Y-95127131D01*
X188743538Y-95127130D01*
X188564293Y-95106935D01*
X188564285Y-95106935D01*
X188385039Y-95127130D01*
X188385034Y-95127131D01*
X188214765Y-95186711D01*
X188062026Y-95282684D01*
X187934473Y-95410237D01*
X187838501Y-95562975D01*
X187838500Y-95562976D01*
X187825487Y-95600166D01*
X187784764Y-95656942D01*
X187722330Y-95682430D01*
X187637982Y-95691933D01*
X187510047Y-95736699D01*
X187440268Y-95740260D01*
X187379642Y-95705530D01*
X187347415Y-95643537D01*
X187353821Y-95573961D01*
X187381411Y-95531978D01*
X187915094Y-94998296D01*
X187915099Y-94998292D01*
X187925302Y-94988088D01*
X187925304Y-94988088D01*
X188030313Y-94883079D01*
X188104565Y-94754471D01*
X188127934Y-94667255D01*
X188143000Y-94611028D01*
X188143000Y-94462522D01*
X188143000Y-93271000D01*
X188162685Y-93203961D01*
X188215489Y-93158206D01*
X188267000Y-93147000D01*
X198008560Y-93147000D01*
X198075599Y-93166685D01*
X198096241Y-93183319D01*
X198125738Y-93212816D01*
X198278478Y-93308789D01*
X198381963Y-93345000D01*
X198448745Y-93368368D01*
X198448750Y-93368369D01*
X198588883Y-93384158D01*
X198653297Y-93411224D01*
X198692852Y-93468819D01*
X198699000Y-93507378D01*
X198699000Y-94930111D01*
X198679315Y-94997150D01*
X198662681Y-95017792D01*
X197943278Y-95737194D01*
X197943274Y-95737199D01*
X197890049Y-95829389D01*
X197890049Y-95829390D01*
X197869025Y-95865802D01*
X197835345Y-95991504D01*
X197835344Y-95991507D01*
X197830590Y-96009247D01*
X197830590Y-96111677D01*
X197810905Y-96178716D01*
X197758101Y-96224471D01*
X197720474Y-96234897D01*
X197651840Y-96242630D01*
X197481568Y-96302210D01*
X197328827Y-96398184D01*
X197201274Y-96525737D01*
X197105301Y-96678476D01*
X197045721Y-96848745D01*
X197045720Y-96848750D01*
X197025525Y-97027996D01*
X197025525Y-97028003D01*
X197045720Y-97207249D01*
X197045721Y-97207254D01*
X197105301Y-97377523D01*
X197188310Y-97509630D01*
X197201274Y-97530262D01*
X197328828Y-97657816D01*
X197416713Y-97713038D01*
X197476037Y-97750314D01*
X197481568Y-97753789D01*
X197651835Y-97813368D01*
X197720474Y-97821101D01*
X197784886Y-97848166D01*
X197824442Y-97905760D01*
X197830590Y-97944321D01*
X197830590Y-101569843D01*
X197864316Y-101695715D01*
X197869024Y-101713285D01*
X197869026Y-101713290D01*
X197943274Y-101841891D01*
X197943279Y-101841897D01*
X198055351Y-101953969D01*
X198055357Y-101953974D01*
X198421481Y-102320098D01*
X198454966Y-102381421D01*
X198457800Y-102407779D01*
X198457800Y-103263480D01*
X198438115Y-103330519D01*
X198385311Y-103376274D01*
X198374755Y-103380521D01*
X198278480Y-103414209D01*
X198125737Y-103510184D01*
X197998184Y-103637737D01*
X197902211Y-103790476D01*
X197842631Y-103960745D01*
X197842630Y-103960750D01*
X197822435Y-104139996D01*
X197822435Y-104140003D01*
X197842630Y-104319249D01*
X197842631Y-104319254D01*
X197902211Y-104489523D01*
X197998184Y-104642262D01*
X198125738Y-104769816D01*
X198184413Y-104806684D01*
X198255684Y-104851467D01*
X198278478Y-104865789D01*
X198365565Y-104896262D01*
X198448745Y-104925368D01*
X198448750Y-104925369D01*
X198627996Y-104945565D01*
X198628000Y-104945565D01*
X198628004Y-104945565D01*
X198807249Y-104925369D01*
X198807252Y-104925368D01*
X198807255Y-104925368D01*
X198977522Y-104865789D01*
X199130262Y-104769816D01*
X199159759Y-104740319D01*
X199221082Y-104706834D01*
X199247440Y-104704000D01*
X199532560Y-104704000D01*
X199599599Y-104723685D01*
X199620241Y-104740319D01*
X199649738Y-104769816D01*
X199708413Y-104806684D01*
X199779684Y-104851467D01*
X199802478Y-104865789D01*
X199889565Y-104896262D01*
X199972745Y-104925368D01*
X199972750Y-104925369D01*
X200151996Y-104945565D01*
X200152000Y-104945565D01*
X200152004Y-104945565D01*
X200331249Y-104925369D01*
X200331252Y-104925368D01*
X200331255Y-104925368D01*
X200501522Y-104865789D01*
X200654262Y-104769816D01*
X200781816Y-104642262D01*
X200877789Y-104489522D01*
X200937368Y-104319255D01*
X200938347Y-104310565D01*
X200957565Y-104140003D01*
X200957565Y-104139996D01*
X200937369Y-103960748D01*
X200937368Y-103960745D01*
X200907245Y-103874662D01*
X200903683Y-103804884D01*
X200925020Y-103759397D01*
X200951496Y-103724032D01*
X200951968Y-103722768D01*
X200983195Y-103639042D01*
X201001791Y-103589184D01*
X201008200Y-103529574D01*
X201008200Y-103522001D01*
X201027885Y-103454962D01*
X201080689Y-103409207D01*
X201132200Y-103398001D01*
X205051880Y-103398001D01*
X205118919Y-103417686D01*
X205164674Y-103470490D01*
X205174618Y-103539648D01*
X205145593Y-103603204D01*
X205092835Y-103639042D01*
X205009480Y-103668209D01*
X204856737Y-103764184D01*
X204729184Y-103891737D01*
X204633211Y-104044476D01*
X204573631Y-104214745D01*
X204573630Y-104214750D01*
X204553435Y-104393996D01*
X204553435Y-104394003D01*
X204573630Y-104573249D01*
X204573631Y-104573254D01*
X204633211Y-104743523D01*
X204729184Y-104896262D01*
X204856738Y-105023816D01*
X204949882Y-105082342D01*
X204996173Y-105134677D01*
X205006821Y-105203730D01*
X204978446Y-105267579D01*
X204924867Y-105304377D01*
X204882478Y-105319210D01*
X204729737Y-105415184D01*
X204602184Y-105542737D01*
X204506211Y-105695476D01*
X204446631Y-105865745D01*
X204446630Y-105865750D01*
X204426435Y-106044996D01*
X204426435Y-106045003D01*
X204446630Y-106224249D01*
X204446631Y-106224254D01*
X204506211Y-106394523D01*
X204583973Y-106518280D01*
X204602184Y-106547262D01*
X204729738Y-106674816D01*
X204791096Y-106713370D01*
X204855613Y-106753909D01*
X204882478Y-106770789D01*
X204990950Y-106808745D01*
X205052745Y-106830368D01*
X205052750Y-106830369D01*
X205231996Y-106850565D01*
X205232000Y-106850565D01*
X205232004Y-106850565D01*
X205411249Y-106830369D01*
X205411252Y-106830368D01*
X205411255Y-106830368D01*
X205581522Y-106770789D01*
X205734262Y-106674816D01*
X205861816Y-106547262D01*
X205957789Y-106394522D01*
X206017368Y-106224255D01*
X206020395Y-106197388D01*
X206037565Y-106045003D01*
X206037565Y-106044996D01*
X206017369Y-105865750D01*
X206017368Y-105865745D01*
X205992518Y-105794727D01*
X205957789Y-105695478D01*
X205951076Y-105684795D01*
X205861815Y-105542737D01*
X205734262Y-105415184D01*
X205641117Y-105356657D01*
X205594826Y-105304322D01*
X205584178Y-105235268D01*
X205612553Y-105171420D01*
X205666135Y-105134621D01*
X205678688Y-105130228D01*
X205708522Y-105119789D01*
X205861262Y-105023816D01*
X205988816Y-104896262D01*
X206084789Y-104743522D01*
X206144368Y-104573255D01*
X206144369Y-104573249D01*
X206164565Y-104394003D01*
X206164565Y-104393996D01*
X206144369Y-104214750D01*
X206144368Y-104214745D01*
X206118215Y-104140003D01*
X206084789Y-104044478D01*
X205988816Y-103891738D01*
X205861262Y-103764184D01*
X205708522Y-103668211D01*
X205708519Y-103668209D01*
X205625165Y-103639042D01*
X205568389Y-103598321D01*
X205542642Y-103533368D01*
X205556098Y-103464806D01*
X205604486Y-103414404D01*
X205666120Y-103398001D01*
X206283801Y-103398001D01*
X206350840Y-103417686D01*
X206396595Y-103470490D01*
X206407801Y-103522001D01*
X206407801Y-103529577D01*
X206414208Y-103589184D01*
X206464502Y-103724029D01*
X206464506Y-103724036D01*
X206550752Y-103839245D01*
X206550755Y-103839248D01*
X206665964Y-103925494D01*
X206665971Y-103925498D01*
X206800817Y-103975792D01*
X206800816Y-103975792D01*
X206806844Y-103976440D01*
X206860427Y-103982201D01*
X208505572Y-103982200D01*
X208565183Y-103975792D01*
X208700031Y-103925497D01*
X208815246Y-103839247D01*
X208901496Y-103724032D01*
X208951791Y-103589184D01*
X208958200Y-103529574D01*
X208958199Y-102577389D01*
X209534500Y-102577389D01*
X209534500Y-102750610D01*
X209561307Y-102919868D01*
X209561598Y-102921701D01*
X209615127Y-103086445D01*
X209693768Y-103240788D01*
X209795586Y-103380928D01*
X209918072Y-103503414D01*
X209920255Y-103505000D01*
X210001023Y-103563683D01*
X210043689Y-103619013D01*
X210049667Y-103688626D01*
X210017061Y-103750421D01*
X210001023Y-103764317D01*
X209918078Y-103824581D01*
X209918069Y-103824588D01*
X209795588Y-103947069D01*
X209795588Y-103947070D01*
X209795586Y-103947072D01*
X209774720Y-103975792D01*
X209693768Y-104087211D01*
X209615128Y-104241552D01*
X209561597Y-104406302D01*
X209534500Y-104577389D01*
X209534500Y-104750610D01*
X209561128Y-104918738D01*
X209561598Y-104921701D01*
X209615127Y-105086445D01*
X209693768Y-105240788D01*
X209795586Y-105380928D01*
X209918072Y-105503414D01*
X209972197Y-105542738D01*
X210001449Y-105563991D01*
X210044114Y-105619322D01*
X210050093Y-105688935D01*
X210017487Y-105750730D01*
X210001448Y-105764627D01*
X209918404Y-105824961D01*
X209918399Y-105824965D01*
X209795967Y-105947397D01*
X209694195Y-106087475D01*
X209615591Y-106241744D01*
X209562085Y-106406415D01*
X209560884Y-106413999D01*
X209560885Y-106414000D01*
X210629670Y-106414000D01*
X210609925Y-106433745D01*
X210560556Y-106519255D01*
X210535000Y-106614630D01*
X210535000Y-106713370D01*
X210560556Y-106808745D01*
X210609925Y-106894255D01*
X210629670Y-106914000D01*
X209560885Y-106914000D01*
X209562085Y-106921584D01*
X209615591Y-107086255D01*
X209694195Y-107240524D01*
X209795967Y-107380602D01*
X209903565Y-107488200D01*
X209937050Y-107549523D01*
X209932066Y-107619215D01*
X209890194Y-107675148D01*
X209880981Y-107681420D01*
X209816342Y-107721289D01*
X209692289Y-107845342D01*
X209600187Y-107994663D01*
X209600185Y-107994668D01*
X209581682Y-108050506D01*
X209545001Y-108161203D01*
X209545001Y-108161204D01*
X209545000Y-108161204D01*
X209534500Y-108263983D01*
X209534500Y-109064001D01*
X209534501Y-109064019D01*
X209545000Y-109166796D01*
X209545001Y-109166799D01*
X209582613Y-109280302D01*
X209600186Y-109333334D01*
X209692288Y-109482656D01*
X209816344Y-109606712D01*
X209965666Y-109698814D01*
X210132203Y-109753999D01*
X210234991Y-109764500D01*
X211585008Y-109764499D01*
X211687797Y-109753999D01*
X211854334Y-109698814D01*
X212003656Y-109606712D01*
X212127712Y-109482656D01*
X212219814Y-109333334D01*
X212274999Y-109166797D01*
X212285500Y-109064009D01*
X212285499Y-108263992D01*
X212274999Y-108161203D01*
X212219814Y-107994666D01*
X212127712Y-107845344D01*
X212003656Y-107721288D01*
X212003655Y-107721287D01*
X211939019Y-107681420D01*
X211892294Y-107629472D01*
X211881071Y-107560510D01*
X211908914Y-107496428D01*
X211916434Y-107488199D01*
X212024035Y-107380598D01*
X212125804Y-107240524D01*
X212204408Y-107086255D01*
X212257914Y-106921584D01*
X212259115Y-106914000D01*
X211190330Y-106914000D01*
X211210075Y-106894255D01*
X211259444Y-106808745D01*
X211285000Y-106713370D01*
X211285000Y-106614630D01*
X211259444Y-106519255D01*
X211210075Y-106433745D01*
X211190330Y-106414000D01*
X212259115Y-106414000D01*
X212259115Y-106413999D01*
X212257914Y-106406415D01*
X212204408Y-106241744D01*
X212125804Y-106087475D01*
X212024032Y-105947397D01*
X211901602Y-105824967D01*
X211818551Y-105764628D01*
X211775885Y-105709298D01*
X211769906Y-105639685D01*
X211802511Y-105577889D01*
X211818551Y-105563991D01*
X211847803Y-105542738D01*
X211901928Y-105503414D01*
X212024414Y-105380928D01*
X212126232Y-105240788D01*
X212204873Y-105086445D01*
X212258402Y-104921701D01*
X212285500Y-104750611D01*
X212285500Y-104577389D01*
X212258402Y-104406299D01*
X212204873Y-104241555D01*
X212126232Y-104087212D01*
X212024414Y-103947072D01*
X211901928Y-103824586D01*
X211818975Y-103764317D01*
X211776311Y-103708988D01*
X211770332Y-103639374D01*
X211802938Y-103577579D01*
X211818976Y-103563682D01*
X211827822Y-103557255D01*
X211901928Y-103503414D01*
X212024414Y-103380928D01*
X212126232Y-103240788D01*
X212204873Y-103086445D01*
X212258402Y-102921701D01*
X212285500Y-102750611D01*
X212285500Y-102577389D01*
X212258402Y-102406299D01*
X212204873Y-102241555D01*
X212126232Y-102087212D01*
X212024414Y-101947072D01*
X211901928Y-101824586D01*
X211761788Y-101722768D01*
X211607445Y-101644127D01*
X211442701Y-101590598D01*
X211442699Y-101590597D01*
X211442698Y-101590597D01*
X211311271Y-101569781D01*
X211271611Y-101563500D01*
X210548389Y-101563500D01*
X210508728Y-101569781D01*
X210377302Y-101590597D01*
X210212552Y-101644128D01*
X210058211Y-101722768D01*
X210009155Y-101758410D01*
X209918072Y-101824586D01*
X209918070Y-101824588D01*
X209918069Y-101824588D01*
X209795588Y-101947069D01*
X209795588Y-101947070D01*
X209795586Y-101947072D01*
X209751859Y-102007256D01*
X209693768Y-102087211D01*
X209615128Y-102241552D01*
X209561597Y-102406302D01*
X209534500Y-102577389D01*
X208958199Y-102577389D01*
X208958199Y-102138429D01*
X208951791Y-102078818D01*
X208943187Y-102055750D01*
X208901497Y-101943972D01*
X208901493Y-101943965D01*
X208815247Y-101828756D01*
X208815244Y-101828753D01*
X208700035Y-101742507D01*
X208700028Y-101742503D01*
X208565182Y-101692209D01*
X208565183Y-101692209D01*
X208505583Y-101685802D01*
X208505581Y-101685801D01*
X208505573Y-101685801D01*
X208505564Y-101685801D01*
X206860429Y-101685801D01*
X206860423Y-101685802D01*
X206800816Y-101692209D01*
X206665971Y-101742503D01*
X206665964Y-101742507D01*
X206550755Y-101828753D01*
X206550752Y-101828756D01*
X206464506Y-101943965D01*
X206464502Y-101943972D01*
X206414208Y-102078818D01*
X206408937Y-102127852D01*
X206407801Y-102138424D01*
X206407800Y-102138436D01*
X206407800Y-102146001D01*
X206388115Y-102213040D01*
X206335311Y-102258795D01*
X206283800Y-102270001D01*
X201132199Y-102270001D01*
X201065160Y-102250316D01*
X201019405Y-102197512D01*
X201008199Y-102146001D01*
X201008199Y-102138430D01*
X201008198Y-102138424D01*
X201008197Y-102138417D01*
X201001791Y-102078818D01*
X200993187Y-102055750D01*
X200951497Y-101943972D01*
X200951493Y-101943965D01*
X200865247Y-101828756D01*
X200865244Y-101828753D01*
X200750035Y-101742507D01*
X200750028Y-101742503D01*
X200615182Y-101692209D01*
X200615183Y-101692209D01*
X200555583Y-101685802D01*
X200555581Y-101685801D01*
X200555573Y-101685801D01*
X200555565Y-101685801D01*
X200421000Y-101685801D01*
X200353961Y-101666116D01*
X200308206Y-101613312D01*
X200297000Y-101561801D01*
X200297000Y-101403190D01*
X200316685Y-101336151D01*
X200333315Y-101315513D01*
X200604130Y-101044697D01*
X200665451Y-101011214D01*
X200677917Y-101009161D01*
X200752846Y-101000719D01*
X200823019Y-100992813D01*
X200823022Y-100992812D01*
X200823024Y-100992812D01*
X200993291Y-100933233D01*
X201146031Y-100837260D01*
X201273585Y-100709706D01*
X201369558Y-100556966D01*
X201429137Y-100386699D01*
X201431979Y-100361478D01*
X201449334Y-100207447D01*
X201449334Y-100207440D01*
X201429138Y-100028194D01*
X201429137Y-100028189D01*
X201369557Y-99857920D01*
X201298320Y-99744548D01*
X201273585Y-99705182D01*
X201146031Y-99577628D01*
X201109521Y-99554687D01*
X200993289Y-99481653D01*
X200967065Y-99472477D01*
X200910289Y-99431755D01*
X200884543Y-99366802D01*
X200898000Y-99298240D01*
X200908755Y-99281124D01*
X200951496Y-99224030D01*
X201001791Y-99089182D01*
X201008200Y-99029572D01*
X201008200Y-99021999D01*
X201027885Y-98954960D01*
X201080689Y-98909205D01*
X201132200Y-98897999D01*
X206283801Y-98897999D01*
X206350840Y-98917684D01*
X206396595Y-98970488D01*
X206407801Y-99021999D01*
X206407801Y-99029576D01*
X206414208Y-99089183D01*
X206464502Y-99224028D01*
X206464506Y-99224035D01*
X206550752Y-99339244D01*
X206550755Y-99339247D01*
X206665964Y-99425493D01*
X206665971Y-99425497D01*
X206800817Y-99475791D01*
X206800816Y-99475791D01*
X206807744Y-99476535D01*
X206860427Y-99482200D01*
X208505572Y-99482199D01*
X208565183Y-99475791D01*
X208700031Y-99425496D01*
X208815246Y-99339246D01*
X208901496Y-99224031D01*
X208951791Y-99089183D01*
X208958200Y-99029573D01*
X208958199Y-97638428D01*
X208951791Y-97578817D01*
X208951790Y-97578815D01*
X208901497Y-97443971D01*
X208901493Y-97443964D01*
X208815247Y-97328755D01*
X208815244Y-97328752D01*
X208700035Y-97242506D01*
X208700028Y-97242502D01*
X208565182Y-97192208D01*
X208565183Y-97192208D01*
X208505583Y-97185801D01*
X208505581Y-97185800D01*
X208505573Y-97185800D01*
X208505565Y-97185800D01*
X207762778Y-97185800D01*
X207695739Y-97166115D01*
X207675097Y-97149481D01*
X206577255Y-96051639D01*
X206543770Y-95990316D01*
X206541716Y-95977841D01*
X206540646Y-95968347D01*
X206534994Y-95918181D01*
X206525369Y-95832749D01*
X206525368Y-95832745D01*
X206506382Y-95778487D01*
X206465789Y-95662478D01*
X206462310Y-95656942D01*
X206423257Y-95594789D01*
X206369816Y-95509738D01*
X206242262Y-95382184D01*
X206224878Y-95371261D01*
X206089523Y-95286211D01*
X205919254Y-95226631D01*
X205919249Y-95226630D01*
X205740004Y-95206435D01*
X205739996Y-95206435D01*
X205560750Y-95226630D01*
X205560745Y-95226631D01*
X205390476Y-95286211D01*
X205237737Y-95382184D01*
X205110184Y-95509737D01*
X205014211Y-95662476D01*
X204954631Y-95832745D01*
X204954630Y-95832750D01*
X204934435Y-96011996D01*
X204934435Y-96012003D01*
X204954630Y-96191249D01*
X204954631Y-96191254D01*
X205014211Y-96361523D01*
X205065498Y-96443145D01*
X205110184Y-96514262D01*
X205237738Y-96641816D01*
X205390478Y-96737789D01*
X205538660Y-96789640D01*
X205560745Y-96797368D01*
X205560749Y-96797369D01*
X205661616Y-96808733D01*
X205705841Y-96813716D01*
X205770255Y-96840782D01*
X205779639Y-96849255D01*
X206383664Y-97453280D01*
X206417149Y-97514603D01*
X206413158Y-97570595D01*
X206415993Y-97571265D01*
X206414208Y-97578816D01*
X206409061Y-97626696D01*
X206407801Y-97638423D01*
X206407800Y-97638435D01*
X206407800Y-97645999D01*
X206388115Y-97713038D01*
X206335311Y-97758793D01*
X206283800Y-97769999D01*
X205271434Y-97769999D01*
X205204395Y-97750314D01*
X205158640Y-97697510D01*
X205148214Y-97659882D01*
X205128369Y-97483750D01*
X205128368Y-97483745D01*
X205091199Y-97377522D01*
X205068789Y-97313478D01*
X205049555Y-97282868D01*
X205011993Y-97223088D01*
X204972816Y-97160738D01*
X204901976Y-97089898D01*
X204869881Y-97034305D01*
X204868565Y-97029395D01*
X204868565Y-97029394D01*
X204858138Y-97011334D01*
X204794313Y-96900786D01*
X204689304Y-96795777D01*
X204689303Y-96795776D01*
X204684973Y-96791446D01*
X204684962Y-96791436D01*
X203820293Y-95926767D01*
X203820291Y-95926764D01*
X203708216Y-95814689D01*
X203708214Y-95814687D01*
X203622475Y-95765185D01*
X203579608Y-95740436D01*
X203579607Y-95740435D01*
X203552772Y-95733245D01*
X203528409Y-95726717D01*
X203528408Y-95726716D01*
X203449337Y-95705530D01*
X203436163Y-95702000D01*
X203436162Y-95702000D01*
X199847908Y-95702000D01*
X199780869Y-95682315D01*
X199735114Y-95629511D01*
X199725170Y-95560353D01*
X199740521Y-95516000D01*
X199741970Y-95513490D01*
X199788565Y-95432786D01*
X199805050Y-95371262D01*
X199827000Y-95289343D01*
X199827000Y-95140838D01*
X199827000Y-94868996D01*
X207347435Y-94868996D01*
X207347435Y-94869003D01*
X207367630Y-95048249D01*
X207367631Y-95048254D01*
X207427211Y-95218523D01*
X207523183Y-95371261D01*
X207523184Y-95371262D01*
X207650738Y-95498816D01*
X207803478Y-95594789D01*
X207973745Y-95654368D01*
X207973750Y-95654369D01*
X208152996Y-95674565D01*
X208153000Y-95674565D01*
X208153004Y-95674565D01*
X208332249Y-95654369D01*
X208332252Y-95654368D01*
X208332255Y-95654368D01*
X208502522Y-95594789D01*
X208655262Y-95498816D01*
X208782816Y-95371262D01*
X208878789Y-95218522D01*
X208938368Y-95048255D01*
X208940633Y-95028156D01*
X208958565Y-94869003D01*
X208958565Y-94868996D01*
X208938369Y-94689750D01*
X208938368Y-94689745D01*
X208919205Y-94634980D01*
X208878789Y-94519478D01*
X208872634Y-94509683D01*
X208834103Y-94448360D01*
X208782816Y-94366738D01*
X208655262Y-94239184D01*
X208598521Y-94203531D01*
X208502523Y-94143211D01*
X208332254Y-94083631D01*
X208332249Y-94083630D01*
X208153004Y-94063435D01*
X208152996Y-94063435D01*
X207973750Y-94083630D01*
X207973745Y-94083631D01*
X207803476Y-94143211D01*
X207650737Y-94239184D01*
X207523184Y-94366737D01*
X207427211Y-94519476D01*
X207367631Y-94689745D01*
X207367630Y-94689750D01*
X207347435Y-94868996D01*
X199827000Y-94868996D01*
X199827000Y-94080075D01*
X205866476Y-94080075D01*
X205990462Y-94146348D01*
X206178969Y-94203531D01*
X206178965Y-94203531D01*
X206375000Y-94222838D01*
X206571032Y-94203531D01*
X206759537Y-94146348D01*
X206883523Y-94080076D01*
X206883523Y-94080075D01*
X206375001Y-93571553D01*
X206375000Y-93571553D01*
X205866476Y-94080075D01*
X199827000Y-94080075D01*
X199827000Y-93218000D01*
X205370161Y-93218000D01*
X205389468Y-93414032D01*
X205446651Y-93602537D01*
X205512923Y-93726522D01*
X206021447Y-93218000D01*
X205512923Y-92709476D01*
X205446649Y-92833466D01*
X205389468Y-93021967D01*
X205370161Y-93218000D01*
X199827000Y-93218000D01*
X199827000Y-91873748D01*
X199805130Y-91792126D01*
X199806793Y-91722278D01*
X199837226Y-91672351D01*
X199850263Y-91659315D01*
X199911588Y-91625833D01*
X199937941Y-91623000D01*
X206344022Y-91623000D01*
X206411061Y-91642685D01*
G37*
%TD.AperFunction*%
%TA.AperFunction,Conductor*%
G36*
X193538334Y-103271795D02*
G01*
X193594267Y-103313667D01*
X193618684Y-103379131D01*
X193619000Y-103387977D01*
X193619000Y-105887022D01*
X193599315Y-105954061D01*
X193582681Y-105974703D01*
X192461703Y-107095681D01*
X192400380Y-107129166D01*
X192374022Y-107132000D01*
X191373440Y-107132000D01*
X191306401Y-107112315D01*
X191285759Y-107095681D01*
X191256262Y-107066184D01*
X191103523Y-106970211D01*
X190933254Y-106910631D01*
X190933250Y-106910630D01*
X190788157Y-106894282D01*
X190723743Y-106867215D01*
X190714360Y-106858743D01*
X190519443Y-106663826D01*
X190485958Y-106602503D01*
X190490942Y-106532811D01*
X190532814Y-106476878D01*
X190541138Y-106471161D01*
X190621262Y-106420816D01*
X190748816Y-106293262D01*
X190844789Y-106140522D01*
X190904368Y-105970255D01*
X190904562Y-105968539D01*
X190920716Y-105825157D01*
X190947782Y-105760743D01*
X190956245Y-105751369D01*
X193407321Y-103300294D01*
X193468642Y-103266811D01*
X193538334Y-103271795D01*
G37*
%TD.AperFunction*%
%TA.AperFunction,Conductor*%
G36*
X190310994Y-99398641D02*
G01*
X190315466Y-99400205D01*
X190315468Y-99400207D01*
X190358813Y-99415374D01*
X190485727Y-99459784D01*
X190485733Y-99459785D01*
X190485735Y-99459786D01*
X190485736Y-99459786D01*
X190485740Y-99459787D01*
X190664986Y-99479983D01*
X190664990Y-99479983D01*
X190664992Y-99479983D01*
X190723230Y-99473421D01*
X190792052Y-99485475D01*
X190843431Y-99532824D01*
X190861056Y-99600434D01*
X190856889Y-99628734D01*
X190825861Y-99744536D01*
X190825858Y-99744548D01*
X190825000Y-99747746D01*
X190825000Y-102360924D01*
X190805315Y-102427963D01*
X190779666Y-102456776D01*
X190678114Y-102540118D01*
X190553090Y-102692460D01*
X190553086Y-102692467D01*
X190460188Y-102866266D01*
X190402975Y-103054870D01*
X190383659Y-103251000D01*
X190402975Y-103447129D01*
X190402976Y-103447132D01*
X190450935Y-103605232D01*
X190460188Y-103635733D01*
X190553086Y-103809532D01*
X190553090Y-103809539D01*
X190678116Y-103961883D01*
X190831813Y-104088019D01*
X190871147Y-104145765D01*
X190873018Y-104215609D01*
X190840829Y-104271553D01*
X190158639Y-104953743D01*
X190097316Y-104987228D01*
X190084842Y-104989282D01*
X189939749Y-105005630D01*
X189939745Y-105005631D01*
X189769476Y-105065211D01*
X189616737Y-105161184D01*
X189489184Y-105288737D01*
X189489182Y-105288740D01*
X189426260Y-105388878D01*
X189373925Y-105435169D01*
X189304871Y-105445816D01*
X189259267Y-105430292D01*
X189193698Y-105392436D01*
X189193697Y-105392435D01*
X189172223Y-105386681D01*
X189150751Y-105380928D01*
X189150750Y-105380927D01*
X189073377Y-105360196D01*
X189050253Y-105354000D01*
X189050252Y-105354000D01*
X188469075Y-105354000D01*
X188402036Y-105334315D01*
X188373222Y-105308665D01*
X188289883Y-105207116D01*
X188137539Y-105082090D01*
X188137532Y-105082086D01*
X187963733Y-104989188D01*
X187963727Y-104989186D01*
X187775132Y-104931976D01*
X187775129Y-104931975D01*
X187579000Y-104912659D01*
X187382870Y-104931975D01*
X187194266Y-104989188D01*
X187020467Y-105082086D01*
X187020460Y-105082090D01*
X186868116Y-105207116D01*
X186742486Y-105360196D01*
X186684740Y-105399530D01*
X186614895Y-105401401D01*
X186555127Y-105365213D01*
X186529591Y-105322485D01*
X186526789Y-105314478D01*
X186467989Y-105220899D01*
X186430816Y-105161738D01*
X186303262Y-105034184D01*
X186150522Y-104938211D01*
X186150519Y-104938210D01*
X186150516Y-104938208D01*
X186134705Y-104932676D01*
X186106771Y-104918738D01*
X186031392Y-104868372D01*
X186031391Y-104868371D01*
X186031389Y-104868370D01*
X186031386Y-104868368D01*
X186031381Y-104868366D01*
X185935206Y-104828530D01*
X185935204Y-104828529D01*
X185894084Y-104811496D01*
X185894080Y-104811495D01*
X185869894Y-104806684D01*
X185748314Y-104782499D01*
X185748312Y-104782499D01*
X185599688Y-104782499D01*
X185593574Y-104782499D01*
X185593554Y-104782500D01*
X183250500Y-104782500D01*
X183183461Y-104762815D01*
X183137706Y-104710011D01*
X183126500Y-104658500D01*
X183126500Y-103938687D01*
X183126499Y-103938683D01*
X183116849Y-103890168D01*
X183097505Y-103792920D01*
X183040629Y-103655610D01*
X183028687Y-103637738D01*
X182958060Y-103532035D01*
X182958054Y-103532028D01*
X182848651Y-103422625D01*
X182848628Y-103422604D01*
X182813823Y-103387798D01*
X182780339Y-103326474D01*
X182778286Y-103286234D01*
X182782256Y-103251000D01*
X186827659Y-103251000D01*
X186846975Y-103447129D01*
X186846976Y-103447132D01*
X186894935Y-103605232D01*
X186904188Y-103635733D01*
X186997086Y-103809532D01*
X186997090Y-103809539D01*
X187122116Y-103961883D01*
X187274460Y-104086909D01*
X187274467Y-104086913D01*
X187448266Y-104179811D01*
X187448269Y-104179811D01*
X187448273Y-104179814D01*
X187636868Y-104237024D01*
X187833000Y-104256341D01*
X188029132Y-104237024D01*
X188217727Y-104179814D01*
X188248494Y-104163369D01*
X188350169Y-104109022D01*
X188391538Y-104086910D01*
X188543883Y-103961883D01*
X188668910Y-103809538D01*
X188735876Y-103684254D01*
X188761811Y-103635733D01*
X188761811Y-103635732D01*
X188761814Y-103635727D01*
X188819024Y-103447132D01*
X188838341Y-103251000D01*
X188819024Y-103054868D01*
X188761814Y-102866273D01*
X188761811Y-102866269D01*
X188761811Y-102866266D01*
X188668913Y-102692467D01*
X188668909Y-102692460D01*
X188543883Y-102540116D01*
X188391539Y-102415090D01*
X188391532Y-102415086D01*
X188217733Y-102322188D01*
X188217727Y-102322186D01*
X188029132Y-102264976D01*
X188029129Y-102264975D01*
X187833000Y-102245659D01*
X187636870Y-102264975D01*
X187448266Y-102322188D01*
X187274467Y-102415086D01*
X187274460Y-102415090D01*
X187122116Y-102540116D01*
X186997090Y-102692460D01*
X186997086Y-102692467D01*
X186904188Y-102866266D01*
X186846975Y-103054870D01*
X186827659Y-103251000D01*
X182782256Y-103251000D01*
X182796565Y-103124002D01*
X182796565Y-103123996D01*
X182775589Y-102937825D01*
X182778505Y-102937496D01*
X182781977Y-102880853D01*
X182823275Y-102824496D01*
X182888488Y-102799413D01*
X182898594Y-102799000D01*
X183784560Y-102799000D01*
X183851599Y-102818685D01*
X183872241Y-102835319D01*
X183901738Y-102864816D01*
X183971902Y-102908903D01*
X184030516Y-102945733D01*
X184054478Y-102960789D01*
X184176722Y-103003564D01*
X184224745Y-103020368D01*
X184224750Y-103020369D01*
X184403996Y-103040565D01*
X184404000Y-103040565D01*
X184404004Y-103040565D01*
X184583249Y-103020369D01*
X184583252Y-103020368D01*
X184583255Y-103020368D01*
X184753522Y-102960789D01*
X184906262Y-102864816D01*
X185033816Y-102737262D01*
X185129789Y-102584522D01*
X185189368Y-102414255D01*
X185189369Y-102414249D01*
X185209565Y-102235003D01*
X185209565Y-102234996D01*
X185189369Y-102055750D01*
X185189368Y-102055745D01*
X185153755Y-101953969D01*
X185129789Y-101885478D01*
X185102401Y-101841891D01*
X185039953Y-101742505D01*
X185033816Y-101732738D01*
X184906262Y-101605184D01*
X184883047Y-101590597D01*
X184753523Y-101509211D01*
X184583254Y-101449631D01*
X184583249Y-101449630D01*
X184404004Y-101429435D01*
X184403996Y-101429435D01*
X184224750Y-101449630D01*
X184224745Y-101449631D01*
X184054476Y-101509211D01*
X183901737Y-101605184D01*
X183872241Y-101634681D01*
X183810918Y-101668166D01*
X183784560Y-101671000D01*
X181535747Y-101671000D01*
X181392300Y-101709435D01*
X181351944Y-101732737D01*
X181351942Y-101732738D01*
X181263699Y-101783685D01*
X181263693Y-101783689D01*
X181179181Y-101868202D01*
X181117858Y-101901687D01*
X181048166Y-101896703D01*
X180992233Y-101854831D01*
X180967816Y-101789367D01*
X180967500Y-101780521D01*
X180967500Y-99851809D01*
X180967499Y-99851805D01*
X180961571Y-99822003D01*
X180943386Y-99730578D01*
X180897688Y-99620255D01*
X180896083Y-99616380D01*
X180896082Y-99616379D01*
X180893212Y-99611009D01*
X180895499Y-99609786D01*
X180878559Y-99553177D01*
X180897896Y-99486036D01*
X180950462Y-99440009D01*
X181019568Y-99429707D01*
X181083274Y-99458403D01*
X181090230Y-99464846D01*
X182222496Y-100597113D01*
X182222497Y-100597114D01*
X182222499Y-100597115D01*
X182351100Y-100671363D01*
X182351101Y-100671363D01*
X182351104Y-100671365D01*
X182494548Y-100709801D01*
X182494551Y-100709801D01*
X182650649Y-100709801D01*
X182650665Y-100709800D01*
X187424486Y-100709800D01*
X187491525Y-100729485D01*
X187537280Y-100782289D01*
X187547706Y-100819916D01*
X187555630Y-100890250D01*
X187555631Y-100890254D01*
X187615211Y-101060523D01*
X187675547Y-101156546D01*
X187711184Y-101213262D01*
X187838738Y-101340816D01*
X187929080Y-101397582D01*
X187955209Y-101414000D01*
X187991478Y-101436789D01*
X188030685Y-101450508D01*
X188161745Y-101496368D01*
X188161750Y-101496369D01*
X188340996Y-101516565D01*
X188341000Y-101516565D01*
X188341004Y-101516565D01*
X188520249Y-101496369D01*
X188520252Y-101496368D01*
X188520255Y-101496368D01*
X188690522Y-101436789D01*
X188843262Y-101340816D01*
X188970816Y-101213262D01*
X189066789Y-101060522D01*
X189126368Y-100890255D01*
X189132339Y-100837259D01*
X189146565Y-100711003D01*
X189146565Y-100710996D01*
X189126369Y-100531750D01*
X189126366Y-100531737D01*
X189070061Y-100370829D01*
X189066499Y-100301050D01*
X189099419Y-100242195D01*
X189825361Y-99516253D01*
X189886682Y-99482770D01*
X189899148Y-99480717D01*
X189974077Y-99472275D01*
X190044250Y-99464369D01*
X190044253Y-99464368D01*
X190044255Y-99464368D01*
X190044257Y-99464367D01*
X190044262Y-99464366D01*
X190131453Y-99433856D01*
X190214522Y-99404789D01*
X190214531Y-99404783D01*
X190216229Y-99403966D01*
X190217447Y-99403765D01*
X190221095Y-99402489D01*
X190221318Y-99403127D01*
X190285170Y-99392609D01*
X190310994Y-99398641D01*
G37*
%TD.AperFunction*%
%TA.AperFunction,Conductor*%
G36*
X200004614Y-99501883D02*
G01*
X200050369Y-99554687D01*
X200060313Y-99623845D01*
X200031288Y-99687401D01*
X200025256Y-99693879D01*
X200013953Y-99705181D01*
X199917980Y-99857920D01*
X199858400Y-100028189D01*
X199858399Y-100028193D01*
X199842051Y-100173286D01*
X199814984Y-100237700D01*
X199806512Y-100247083D01*
X199386698Y-100666898D01*
X199281689Y-100771906D01*
X199281685Y-100771912D01*
X199207436Y-100900514D01*
X199207435Y-100900517D01*
X199202365Y-100919440D01*
X199166000Y-100979101D01*
X199103153Y-101009630D01*
X199033778Y-101001335D01*
X198979900Y-100956850D01*
X198958625Y-100890298D01*
X198958590Y-100887347D01*
X198958590Y-99606198D01*
X198978275Y-99539159D01*
X199031079Y-99493404D01*
X199082590Y-99482198D01*
X199937575Y-99482198D01*
X200004614Y-99501883D01*
G37*
%TD.AperFunction*%
%TA.AperFunction,Conductor*%
G36*
X194942455Y-85864395D02*
G01*
X194947951Y-85864642D01*
X195829871Y-85924102D01*
X195835335Y-85924594D01*
X196713697Y-86023562D01*
X196719161Y-86024302D01*
X197592177Y-86162575D01*
X197597592Y-86163557D01*
X198463549Y-86340862D01*
X198468969Y-86342100D01*
X199326010Y-86558056D01*
X199331374Y-86559536D01*
X200177905Y-86813737D01*
X200183173Y-86815449D01*
X201017466Y-87107382D01*
X201022675Y-87109337D01*
X201842974Y-87438382D01*
X201848091Y-87440569D01*
X202168091Y-87585920D01*
X202652833Y-87806100D01*
X202657808Y-87808496D01*
X202779280Y-87870389D01*
X202830075Y-87918363D01*
X202846870Y-87986184D01*
X202824333Y-88052319D01*
X202788957Y-88085866D01*
X202697740Y-88143182D01*
X202697737Y-88143184D01*
X202570184Y-88270737D01*
X202474211Y-88423476D01*
X202414631Y-88593745D01*
X202414630Y-88593750D01*
X202394435Y-88772996D01*
X202394435Y-88773003D01*
X202414630Y-88952249D01*
X202414631Y-88952254D01*
X202474211Y-89122523D01*
X202474621Y-89123175D01*
X202570184Y-89275262D01*
X202697738Y-89402816D01*
X202788080Y-89459582D01*
X202837919Y-89490898D01*
X202850478Y-89498789D01*
X202919435Y-89522918D01*
X203020745Y-89558368D01*
X203020750Y-89558369D01*
X203199996Y-89578565D01*
X203200000Y-89578565D01*
X203200004Y-89578565D01*
X203379249Y-89558369D01*
X203379252Y-89558368D01*
X203379255Y-89558368D01*
X203549522Y-89498789D01*
X203702262Y-89402816D01*
X203829816Y-89275262D01*
X203925789Y-89122522D01*
X203985368Y-88952255D01*
X204005565Y-88773000D01*
X204005564Y-88772995D01*
X204003263Y-88752567D01*
X204015317Y-88683745D01*
X204062666Y-88632365D01*
X204130277Y-88614741D01*
X204187679Y-88630836D01*
X204218985Y-88648600D01*
X204223757Y-88651450D01*
X204702485Y-88952255D01*
X204972154Y-89121699D01*
X204976798Y-89124765D01*
X205703323Y-89628104D01*
X205707825Y-89631375D01*
X206411041Y-90166805D01*
X206415391Y-90170274D01*
X206541806Y-90275812D01*
X206580654Y-90333886D01*
X206581937Y-90403744D01*
X206545248Y-90463206D01*
X206482236Y-90493393D01*
X206462338Y-90495000D01*
X199817404Y-90495000D01*
X199751432Y-90475994D01*
X199612523Y-90388711D01*
X199442254Y-90329131D01*
X199442249Y-90329130D01*
X199278119Y-90310638D01*
X199213705Y-90283572D01*
X199174149Y-90225977D01*
X199168782Y-90201300D01*
X199159369Y-90117750D01*
X199159368Y-90117745D01*
X199099788Y-89947476D01*
X199014894Y-89812369D01*
X199003816Y-89794738D01*
X198876262Y-89667184D01*
X198723523Y-89571211D01*
X198553254Y-89511631D01*
X198553249Y-89511630D01*
X198374004Y-89491435D01*
X198373996Y-89491435D01*
X198194750Y-89511630D01*
X198194745Y-89511631D01*
X198024476Y-89571211D01*
X197871737Y-89667184D01*
X197744184Y-89794737D01*
X197648211Y-89947476D01*
X197588631Y-90117745D01*
X197588630Y-90117750D01*
X197568435Y-90296996D01*
X197568435Y-90297003D01*
X197588630Y-90476249D01*
X197588631Y-90476254D01*
X197648211Y-90646523D01*
X197744184Y-90799262D01*
X197773681Y-90828759D01*
X197807166Y-90890082D01*
X197810000Y-90916440D01*
X197810000Y-91133252D01*
X197848435Y-91276696D01*
X197922687Y-91405304D01*
X197922689Y-91405306D01*
X198034761Y-91517378D01*
X198034767Y-91517383D01*
X198227556Y-91710172D01*
X198261041Y-91771495D01*
X198256057Y-91841187D01*
X198214185Y-91897120D01*
X198205848Y-91902846D01*
X198125740Y-91953182D01*
X198125737Y-91953184D01*
X198096241Y-91982681D01*
X198034918Y-92016166D01*
X198008560Y-92019000D01*
X188775000Y-92019000D01*
X188707961Y-91999315D01*
X188662206Y-91946511D01*
X188651000Y-91895000D01*
X188651000Y-90660440D01*
X188670685Y-90593401D01*
X188687319Y-90572759D01*
X188716816Y-90543262D01*
X188812789Y-90390522D01*
X188872368Y-90220255D01*
X188874504Y-90201300D01*
X188892565Y-90041003D01*
X188892565Y-90040996D01*
X188872369Y-89861750D01*
X188872368Y-89861745D01*
X188848921Y-89794737D01*
X188812789Y-89691478D01*
X188791009Y-89656816D01*
X188729150Y-89558368D01*
X188716816Y-89538738D01*
X188589262Y-89411184D01*
X188436523Y-89315211D01*
X188266254Y-89255631D01*
X188266249Y-89255630D01*
X188087004Y-89235435D01*
X188086996Y-89235435D01*
X187907750Y-89255630D01*
X187907745Y-89255631D01*
X187737476Y-89315211D01*
X187584737Y-89411184D01*
X187457184Y-89538737D01*
X187361211Y-89691476D01*
X187301631Y-89861745D01*
X187301630Y-89861750D01*
X187281435Y-90040996D01*
X187281435Y-90041003D01*
X187301630Y-90220249D01*
X187301631Y-90220254D01*
X187361211Y-90390523D01*
X187457184Y-90543262D01*
X187486681Y-90572759D01*
X187520166Y-90634082D01*
X187523000Y-90660440D01*
X187523000Y-91918960D01*
X187503315Y-91985999D01*
X187450511Y-92031754D01*
X187431094Y-92038735D01*
X187361302Y-92057435D01*
X187361301Y-92057436D01*
X187232699Y-92131685D01*
X187232693Y-92131689D01*
X187127689Y-92236693D01*
X187127685Y-92236699D01*
X187053436Y-92365301D01*
X187053435Y-92365304D01*
X187015000Y-92508748D01*
X187015000Y-94251796D01*
X186995315Y-94318835D01*
X186978681Y-94339477D01*
X184863864Y-96454292D01*
X184802541Y-96487777D01*
X184732849Y-96482793D01*
X184676916Y-96440921D01*
X184652862Y-96379571D01*
X184647984Y-96333162D01*
X184589935Y-96154502D01*
X184589932Y-96154496D01*
X184496003Y-95991807D01*
X184474880Y-95968347D01*
X184444650Y-95905355D01*
X184453275Y-95836020D01*
X184474876Y-95802405D01*
X184496408Y-95778493D01*
X184496410Y-95778488D01*
X184496412Y-95778487D01*
X184590389Y-95615712D01*
X184590388Y-95615712D01*
X184590392Y-95615707D01*
X184648478Y-95436939D01*
X184668126Y-95250000D01*
X184648478Y-95063061D01*
X184590392Y-94884293D01*
X184590389Y-94884287D01*
X184496411Y-94721511D01*
X184496409Y-94721508D01*
X184475217Y-94697972D01*
X184444987Y-94634980D01*
X184453612Y-94565645D01*
X184475217Y-94532028D01*
X184486517Y-94519478D01*
X184496408Y-94508493D01*
X184590392Y-94345707D01*
X184648478Y-94166939D01*
X184668126Y-93980000D01*
X184648478Y-93793061D01*
X184590392Y-93614293D01*
X184583605Y-93602537D01*
X184496411Y-93451511D01*
X184496409Y-93451508D01*
X184475217Y-93427972D01*
X184444987Y-93364980D01*
X184453612Y-93295645D01*
X184475217Y-93262028D01*
X184496408Y-93238493D01*
X184590392Y-93075707D01*
X184648478Y-92896939D01*
X184668126Y-92710000D01*
X184648478Y-92523061D01*
X184590392Y-92344293D01*
X184497757Y-92183844D01*
X184481285Y-92115946D01*
X184504138Y-92049919D01*
X184536253Y-92018745D01*
X184593547Y-91980463D01*
X184690463Y-91883547D01*
X184766610Y-91769585D01*
X184819061Y-91642957D01*
X184845800Y-91508530D01*
X184845800Y-91371470D01*
X184819061Y-91237043D01*
X184819059Y-91237038D01*
X184766613Y-91110421D01*
X184766606Y-91110408D01*
X184690463Y-90996453D01*
X184690460Y-90996449D01*
X184593550Y-90899539D01*
X184593546Y-90899536D01*
X184479591Y-90823393D01*
X184479578Y-90823386D01*
X184352961Y-90770940D01*
X184352949Y-90770937D01*
X184218534Y-90744200D01*
X184218530Y-90744200D01*
X184081470Y-90744200D01*
X184081465Y-90744200D01*
X183947050Y-90770937D01*
X183947038Y-90770940D01*
X183820421Y-90823386D01*
X183820408Y-90823393D01*
X183706453Y-90899536D01*
X183706449Y-90899539D01*
X183609539Y-90996449D01*
X183609536Y-90996453D01*
X183533393Y-91110408D01*
X183533386Y-91110421D01*
X183480940Y-91237038D01*
X183480937Y-91237050D01*
X183454200Y-91371465D01*
X183454200Y-91508534D01*
X183480937Y-91642949D01*
X183480940Y-91642961D01*
X183510416Y-91714123D01*
X183517885Y-91783593D01*
X183486609Y-91846072D01*
X183446291Y-91874854D01*
X183319437Y-91931333D01*
X183319432Y-91931336D01*
X183206459Y-92013416D01*
X183140652Y-92036896D01*
X183072599Y-92021070D01*
X183060689Y-92013416D01*
X182948316Y-91931772D01*
X182948311Y-91931769D01*
X182821516Y-91875316D01*
X182768279Y-91830066D01*
X182747958Y-91763217D01*
X182757389Y-91714590D01*
X182787061Y-91642957D01*
X182813800Y-91508530D01*
X182813800Y-91371470D01*
X182787061Y-91237043D01*
X182787059Y-91237038D01*
X182734613Y-91110421D01*
X182734606Y-91110408D01*
X182658463Y-90996453D01*
X182658460Y-90996449D01*
X182561550Y-90899539D01*
X182561546Y-90899536D01*
X182447591Y-90823393D01*
X182447578Y-90823386D01*
X182320961Y-90770940D01*
X182320949Y-90770937D01*
X182186534Y-90744200D01*
X182186530Y-90744200D01*
X182049470Y-90744200D01*
X182049465Y-90744200D01*
X181915050Y-90770937D01*
X181915038Y-90770940D01*
X181788421Y-90823386D01*
X181788408Y-90823393D01*
X181674453Y-90899536D01*
X181674449Y-90899539D01*
X181577539Y-90996449D01*
X181577536Y-90996453D01*
X181501393Y-91110408D01*
X181501386Y-91110421D01*
X181448940Y-91237038D01*
X181448937Y-91237050D01*
X181422200Y-91371465D01*
X181422200Y-91508534D01*
X181448937Y-91642949D01*
X181448940Y-91642961D01*
X181501386Y-91769578D01*
X181501393Y-91769591D01*
X181577536Y-91883546D01*
X181577539Y-91883550D01*
X181674449Y-91980460D01*
X181674453Y-91980463D01*
X181732161Y-92019023D01*
X181776966Y-92072636D01*
X181785673Y-92141961D01*
X181770657Y-92184124D01*
X181678069Y-92344491D01*
X181678064Y-92344502D01*
X181620015Y-92523162D01*
X181600377Y-92709999D01*
X181618807Y-92885339D01*
X181606238Y-92954069D01*
X181558506Y-93005093D01*
X181495486Y-93022301D01*
X181005536Y-93022301D01*
X180862093Y-93060736D01*
X180862090Y-93060737D01*
X180733488Y-93134986D01*
X180733482Y-93134990D01*
X180214189Y-93654283D01*
X180214185Y-93654289D01*
X180139936Y-93782891D01*
X180139935Y-93782894D01*
X180101500Y-93926338D01*
X180101500Y-94177073D01*
X180081815Y-94244112D01*
X180065181Y-94264754D01*
X179380689Y-94949245D01*
X179380685Y-94949251D01*
X179323525Y-95048255D01*
X179306434Y-95077857D01*
X179306433Y-95077858D01*
X179270015Y-95213781D01*
X179270014Y-95213786D01*
X179268000Y-95221301D01*
X179268000Y-97483254D01*
X179284610Y-97545247D01*
X179284611Y-97545247D01*
X179284611Y-97545248D01*
X179306435Y-97626696D01*
X179306436Y-97626699D01*
X179335372Y-97676817D01*
X179351845Y-97744717D01*
X179328993Y-97810744D01*
X179274072Y-97853934D01*
X179204518Y-97860576D01*
X179142415Y-97828560D01*
X179140304Y-97826498D01*
X177685015Y-96371209D01*
X177651530Y-96309886D01*
X177649477Y-96297424D01*
X177644531Y-96253521D01*
X177584952Y-96083254D01*
X177567106Y-96054853D01*
X177544669Y-96019144D01*
X177488979Y-95930514D01*
X177361425Y-95802960D01*
X177322486Y-95778493D01*
X177208682Y-95706985D01*
X177111445Y-95672960D01*
X177054669Y-95632239D01*
X177028922Y-95567286D01*
X177042378Y-95498724D01*
X177047399Y-95489958D01*
X177513712Y-94747824D01*
X177516751Y-94743221D01*
X178020109Y-94016668D01*
X178023375Y-94012174D01*
X178558815Y-93308944D01*
X178562245Y-93304642D01*
X179128743Y-92626087D01*
X179132356Y-92621952D01*
X179728716Y-91969508D01*
X179732519Y-91965531D01*
X180357531Y-91340519D01*
X180361508Y-91336716D01*
X181013952Y-90740356D01*
X181018087Y-90736743D01*
X181696642Y-90170245D01*
X181700958Y-90166805D01*
X182404181Y-89631369D01*
X182408676Y-89628104D01*
X183135221Y-89124751D01*
X183139824Y-89121712D01*
X183888262Y-88651438D01*
X183892991Y-88648613D01*
X184661750Y-88212404D01*
X184666621Y-88209782D01*
X185454208Y-87808487D01*
X185459149Y-87806108D01*
X186091499Y-87518880D01*
X186160676Y-87509078D01*
X186224173Y-87538233D01*
X186261827Y-87597088D01*
X186261685Y-87666957D01*
X186230461Y-87719460D01*
X186187184Y-87762737D01*
X186091211Y-87915476D01*
X186031631Y-88085745D01*
X186031630Y-88085750D01*
X186011435Y-88264996D01*
X186011435Y-88265003D01*
X186031630Y-88444249D01*
X186031631Y-88444254D01*
X186091211Y-88614523D01*
X186187184Y-88767262D01*
X186314738Y-88894816D01*
X186467478Y-88990789D01*
X186637745Y-89050368D01*
X186637750Y-89050369D01*
X186816996Y-89070565D01*
X186817000Y-89070565D01*
X186817004Y-89070565D01*
X186996249Y-89050369D01*
X186996252Y-89050368D01*
X186996255Y-89050368D01*
X187166522Y-88990789D01*
X187319262Y-88894816D01*
X187446816Y-88767262D01*
X187542789Y-88614522D01*
X187602368Y-88444255D01*
X187604709Y-88423478D01*
X187622565Y-88265003D01*
X187622565Y-88264996D01*
X187602369Y-88085750D01*
X187602368Y-88085745D01*
X187569950Y-87993100D01*
X187542789Y-87915478D01*
X187526267Y-87889184D01*
X187475573Y-87808505D01*
X187446816Y-87762738D01*
X187441074Y-87756996D01*
X189313435Y-87756996D01*
X189313435Y-87757003D01*
X189333630Y-87936249D01*
X189333631Y-87936254D01*
X189393211Y-88106523D01*
X189477800Y-88241144D01*
X189489184Y-88259262D01*
X189616738Y-88386816D01*
X189769478Y-88482789D01*
X189809491Y-88496790D01*
X189939745Y-88542368D01*
X189939750Y-88542369D01*
X190118996Y-88562565D01*
X190119000Y-88562565D01*
X190119004Y-88562565D01*
X190298249Y-88542369D01*
X190298249Y-88542368D01*
X190298255Y-88542368D01*
X190303702Y-88540461D01*
X190373479Y-88536896D01*
X190434109Y-88571620D01*
X190466340Y-88633612D01*
X190467883Y-88671384D01*
X190456435Y-88772995D01*
X190456435Y-88773003D01*
X190476630Y-88952249D01*
X190476631Y-88952254D01*
X190536211Y-89122523D01*
X190536621Y-89123175D01*
X190632184Y-89275262D01*
X190759738Y-89402816D01*
X190850080Y-89459582D01*
X190899919Y-89490898D01*
X190912478Y-89498789D01*
X190981435Y-89522918D01*
X191082745Y-89558368D01*
X191082750Y-89558369D01*
X191261996Y-89578565D01*
X191262000Y-89578565D01*
X191262004Y-89578565D01*
X191441249Y-89558369D01*
X191441252Y-89558368D01*
X191441255Y-89558368D01*
X191441256Y-89558367D01*
X191441259Y-89558367D01*
X191497354Y-89538738D01*
X191542565Y-89522917D01*
X191612342Y-89519355D01*
X191671200Y-89552278D01*
X191775738Y-89656816D01*
X191928478Y-89752789D01*
X192098745Y-89812368D01*
X192098750Y-89812369D01*
X192277996Y-89832565D01*
X192278000Y-89832565D01*
X192278004Y-89832565D01*
X192457249Y-89812369D01*
X192457252Y-89812368D01*
X192457255Y-89812368D01*
X192627522Y-89752789D01*
X192780262Y-89656816D01*
X192907816Y-89529262D01*
X192976111Y-89420570D01*
X193028445Y-89374281D01*
X193097498Y-89363633D01*
X193161347Y-89392008D01*
X193168785Y-89398863D01*
X193172738Y-89402816D01*
X193263080Y-89459582D01*
X193312919Y-89490898D01*
X193325478Y-89498789D01*
X193394435Y-89522918D01*
X193495745Y-89558368D01*
X193495750Y-89558369D01*
X193674996Y-89578565D01*
X193675000Y-89578565D01*
X193675004Y-89578565D01*
X193854249Y-89558369D01*
X193854252Y-89558368D01*
X193854255Y-89558368D01*
X194024522Y-89498789D01*
X194177262Y-89402816D01*
X194304816Y-89275262D01*
X194400789Y-89122522D01*
X194460368Y-88952255D01*
X194480565Y-88773000D01*
X194480564Y-88772995D01*
X194460369Y-88593750D01*
X194460368Y-88593745D01*
X194400788Y-88423476D01*
X194323963Y-88301211D01*
X194304816Y-88270738D01*
X194177262Y-88143184D01*
X194177259Y-88143182D01*
X194024523Y-88047211D01*
X193854254Y-87987631D01*
X193854249Y-87987630D01*
X193675004Y-87967435D01*
X193674997Y-87967435D01*
X193571229Y-87979126D01*
X193502407Y-87967071D01*
X193469665Y-87943587D01*
X193415262Y-87889184D01*
X193262523Y-87793211D01*
X193092254Y-87733631D01*
X193092249Y-87733630D01*
X192913004Y-87713435D01*
X192912996Y-87713435D01*
X192733750Y-87733630D01*
X192733745Y-87733631D01*
X192563476Y-87793211D01*
X192410737Y-87889184D01*
X192283184Y-88016737D01*
X192187208Y-88169483D01*
X192185002Y-88174064D01*
X192138176Y-88225920D01*
X192100884Y-88241144D01*
X192098747Y-88241631D01*
X191997434Y-88277082D01*
X191927655Y-88280643D01*
X191868799Y-88247721D01*
X191764262Y-88143184D01*
X191611523Y-88047211D01*
X191441254Y-87987631D01*
X191441249Y-87987630D01*
X191262004Y-87967435D01*
X191261996Y-87967435D01*
X191082750Y-87987630D01*
X191082740Y-87987633D01*
X191077287Y-87989541D01*
X191007508Y-87993100D01*
X190946882Y-87958370D01*
X190914657Y-87896375D01*
X190913116Y-87858614D01*
X190924565Y-87757002D01*
X190924565Y-87756996D01*
X190904369Y-87577750D01*
X190904368Y-87577745D01*
X190890542Y-87538233D01*
X190844789Y-87407478D01*
X190825670Y-87377051D01*
X190748815Y-87254737D01*
X190621262Y-87127184D01*
X190468523Y-87031211D01*
X190298254Y-86971631D01*
X190298249Y-86971630D01*
X190119004Y-86951435D01*
X190118996Y-86951435D01*
X189939750Y-86971630D01*
X189939745Y-86971631D01*
X189769476Y-87031211D01*
X189616737Y-87127184D01*
X189489184Y-87254737D01*
X189393211Y-87407476D01*
X189333631Y-87577745D01*
X189333630Y-87577750D01*
X189313435Y-87756996D01*
X187441074Y-87756996D01*
X187319262Y-87635184D01*
X187258633Y-87597088D01*
X187166523Y-87539211D01*
X186996254Y-87479631D01*
X186996250Y-87479630D01*
X186837229Y-87461713D01*
X186772815Y-87434646D01*
X186733260Y-87377051D01*
X186731123Y-87307214D01*
X186767081Y-87247308D01*
X186804944Y-87223409D01*
X187089329Y-87109335D01*
X187094533Y-87107382D01*
X187928826Y-86815449D01*
X187934081Y-86813741D01*
X188780631Y-86559534D01*
X188785982Y-86558057D01*
X189643045Y-86342096D01*
X189648440Y-86340864D01*
X190514415Y-86163556D01*
X190519814Y-86162576D01*
X191392844Y-86024301D01*
X191398297Y-86023563D01*
X192276668Y-85924594D01*
X192282124Y-85924102D01*
X193164050Y-85864642D01*
X193169542Y-85864395D01*
X194053238Y-85844562D01*
X194058762Y-85844562D01*
X194942455Y-85864395D01*
G37*
%TD.AperFunction*%
%TA.AperFunction,Conductor*%
G36*
X203143971Y-96849685D02*
G01*
X203164613Y-96866319D01*
X203560706Y-97262412D01*
X203594191Y-97323735D01*
X203590067Y-97391046D01*
X203557633Y-97483739D01*
X203557630Y-97483750D01*
X203537786Y-97659882D01*
X203510720Y-97724296D01*
X203453125Y-97763851D01*
X203414566Y-97769999D01*
X201132199Y-97769999D01*
X201065160Y-97750314D01*
X201019405Y-97697510D01*
X201008199Y-97645999D01*
X201008199Y-97638428D01*
X201008199Y-97638427D01*
X201001791Y-97578816D01*
X200999362Y-97572304D01*
X200951497Y-97443970D01*
X200951493Y-97443963D01*
X200865247Y-97328754D01*
X200865244Y-97328751D01*
X200750035Y-97242505D01*
X200750028Y-97242501D01*
X200615182Y-97192207D01*
X200615183Y-97192207D01*
X200555583Y-97185800D01*
X200555581Y-97185799D01*
X200555573Y-97185799D01*
X200555565Y-97185799D01*
X199480171Y-97185799D01*
X199413132Y-97166114D01*
X199367377Y-97113310D01*
X199357433Y-97044152D01*
X199386458Y-96980596D01*
X199414199Y-96956805D01*
X199449092Y-96934880D01*
X199511262Y-96895816D01*
X199540759Y-96866319D01*
X199602082Y-96832834D01*
X199628440Y-96830000D01*
X203076932Y-96830000D01*
X203143971Y-96849685D01*
G37*
%TD.AperFunction*%
%TA.AperFunction,Conductor*%
G36*
X181591064Y-94169986D02*
G01*
X181636819Y-94222790D01*
X181641956Y-94235983D01*
X181677605Y-94345700D01*
X181677610Y-94345712D01*
X181771586Y-94508485D01*
X181771591Y-94508491D01*
X181771592Y-94508493D01*
X181774887Y-94512153D01*
X181793120Y-94532403D01*
X181823349Y-94595395D01*
X181814723Y-94664730D01*
X181793120Y-94698345D01*
X181772000Y-94721801D01*
X181771996Y-94721806D01*
X181678067Y-94884496D01*
X181678064Y-94884502D01*
X181620015Y-95063162D01*
X181600377Y-95250000D01*
X181620015Y-95436837D01*
X181678064Y-95615497D01*
X181678067Y-95615503D01*
X181767266Y-95770000D01*
X181783739Y-95837900D01*
X181760886Y-95903927D01*
X181705965Y-95947118D01*
X181659879Y-95956000D01*
X180520000Y-95956000D01*
X180452961Y-95936315D01*
X180407206Y-95883511D01*
X180396000Y-95832000D01*
X180396000Y-95580529D01*
X180415685Y-95513490D01*
X180432315Y-95492852D01*
X181001594Y-94923572D01*
X181001599Y-94923569D01*
X181011802Y-94913365D01*
X181011804Y-94913365D01*
X181116813Y-94808356D01*
X181191065Y-94679748D01*
X181209478Y-94611028D01*
X181229500Y-94536305D01*
X181229500Y-94387799D01*
X181229500Y-94285568D01*
X181249185Y-94218529D01*
X181265819Y-94197887D01*
X181277086Y-94186620D01*
X181338409Y-94153135D01*
X181364767Y-94150301D01*
X181524025Y-94150301D01*
X181591064Y-94169986D01*
G37*
%TD.AperFunction*%
%TD*%
M02*
