%TF.GenerationSoftware,KiCad,Pcbnew,8.0.6-8.0.6-0~ubuntu24.04.1*%
%TF.CreationDate,2024-11-29T10:46:18-06:00*%
%TF.ProjectId,can_distance_sensor,63616e5f-6469-4737-9461-6e63655f7365,rev?*%
%TF.SameCoordinates,Original*%
%TF.FileFunction,Copper,L1,Top*%
%TF.FilePolarity,Positive*%
%FSLAX46Y46*%
G04 Gerber Fmt 4.6, Leading zero omitted, Abs format (unit mm)*
G04 Created by KiCad (PCBNEW 8.0.6-8.0.6-0~ubuntu24.04.1) date 2024-11-29 10:46:18*
%MOMM*%
%LPD*%
G01*
G04 APERTURE LIST*
G04 Aperture macros list*
%AMRoundRect*
0 Rectangle with rounded corners*
0 $1 Rounding radius*
0 $2 $3 $4 $5 $6 $7 $8 $9 X,Y pos of 4 corners*
0 Add a 4 corners polygon primitive as box body*
4,1,4,$2,$3,$4,$5,$6,$7,$8,$9,$2,$3,0*
0 Add four circle primitives for the rounded corners*
1,1,$1+$1,$2,$3*
1,1,$1+$1,$4,$5*
1,1,$1+$1,$6,$7*
1,1,$1+$1,$8,$9*
0 Add four rect primitives between the rounded corners*
20,1,$1+$1,$2,$3,$4,$5,0*
20,1,$1+$1,$4,$5,$6,$7,0*
20,1,$1+$1,$6,$7,$8,$9,0*
20,1,$1+$1,$8,$9,$2,$3,0*%
G04 Aperture macros list end*
%TA.AperFunction,SMDPad,CuDef*%
%ADD10RoundRect,0.225000X-0.225000X-0.250000X0.225000X-0.250000X0.225000X0.250000X-0.225000X0.250000X0*%
%TD*%
%TA.AperFunction,SMDPad,CuDef*%
%ADD11RoundRect,0.225000X-0.250000X0.225000X-0.250000X-0.225000X0.250000X-0.225000X0.250000X0.225000X0*%
%TD*%
%TA.AperFunction,SMDPad,CuDef*%
%ADD12RoundRect,0.250000X0.375000X1.075000X-0.375000X1.075000X-0.375000X-1.075000X0.375000X-1.075000X0*%
%TD*%
%TA.AperFunction,SMDPad,CuDef*%
%ADD13RoundRect,0.075000X-0.362500X-0.075000X0.362500X-0.075000X0.362500X0.075000X-0.362500X0.075000X0*%
%TD*%
%TA.AperFunction,HeatsinkPad*%
%ADD14R,1.600000X2.400000*%
%TD*%
%TA.AperFunction,SMDPad,CuDef*%
%ADD15RoundRect,0.135000X0.185000X-0.135000X0.185000X0.135000X-0.185000X0.135000X-0.185000X-0.135000X0*%
%TD*%
%TA.AperFunction,SMDPad,CuDef*%
%ADD16RoundRect,0.225000X0.250000X-0.225000X0.250000X0.225000X-0.250000X0.225000X-0.250000X-0.225000X0*%
%TD*%
%TA.AperFunction,SMDPad,CuDef*%
%ADD17RoundRect,0.062500X0.375000X0.062500X-0.375000X0.062500X-0.375000X-0.062500X0.375000X-0.062500X0*%
%TD*%
%TA.AperFunction,SMDPad,CuDef*%
%ADD18RoundRect,0.062500X0.062500X0.375000X-0.062500X0.375000X-0.062500X-0.375000X0.062500X-0.375000X0*%
%TD*%
%TA.AperFunction,HeatsinkPad*%
%ADD19R,5.600000X5.600000*%
%TD*%
%TA.AperFunction,HeatsinkPad*%
%ADD20R,1.000000X1.600000*%
%TD*%
%TA.AperFunction,SMDPad,CuDef*%
%ADD21RoundRect,0.093750X-0.093750X-0.106250X0.093750X-0.106250X0.093750X0.106250X-0.093750X0.106250X0*%
%TD*%
%TA.AperFunction,SMDPad,CuDef*%
%ADD22RoundRect,0.135000X-0.185000X0.135000X-0.185000X-0.135000X0.185000X-0.135000X0.185000X0.135000X0*%
%TD*%
%TA.AperFunction,SMDPad,CuDef*%
%ADD23RoundRect,0.135000X0.135000X0.185000X-0.135000X0.185000X-0.135000X-0.185000X0.135000X-0.185000X0*%
%TD*%
%TA.AperFunction,SMDPad,CuDef*%
%ADD24RoundRect,0.140000X0.170000X-0.140000X0.170000X0.140000X-0.170000X0.140000X-0.170000X-0.140000X0*%
%TD*%
%TA.AperFunction,SMDPad,CuDef*%
%ADD25RoundRect,0.150000X0.150000X-0.587500X0.150000X0.587500X-0.150000X0.587500X-0.150000X-0.587500X0*%
%TD*%
%TA.AperFunction,SMDPad,CuDef*%
%ADD26RoundRect,0.140000X0.140000X0.170000X-0.140000X0.170000X-0.140000X-0.170000X0.140000X-0.170000X0*%
%TD*%
%TA.AperFunction,SMDPad,CuDef*%
%ADD27RoundRect,0.225000X-0.225000X-0.375000X0.225000X-0.375000X0.225000X0.375000X-0.225000X0.375000X0*%
%TD*%
%TA.AperFunction,SMDPad,CuDef*%
%ADD28RoundRect,0.150000X-0.587500X-0.150000X0.587500X-0.150000X0.587500X0.150000X-0.587500X0.150000X0*%
%TD*%
%TA.AperFunction,SMDPad,CuDef*%
%ADD29R,1.422400X0.431800*%
%TD*%
%TA.AperFunction,SMDPad,CuDef*%
%ADD30RoundRect,0.140000X-0.170000X0.140000X-0.170000X-0.140000X0.170000X-0.140000X0.170000X0.140000X0*%
%TD*%
%TA.AperFunction,SMDPad,CuDef*%
%ADD31RoundRect,0.225000X-0.375000X0.225000X-0.375000X-0.225000X0.375000X-0.225000X0.375000X0.225000X0*%
%TD*%
%TA.AperFunction,ComponentPad*%
%ADD32RoundRect,0.250000X0.625000X-0.350000X0.625000X0.350000X-0.625000X0.350000X-0.625000X-0.350000X0*%
%TD*%
%TA.AperFunction,ComponentPad*%
%ADD33O,1.750000X1.200000*%
%TD*%
%TA.AperFunction,SMDPad,CuDef*%
%ADD34RoundRect,0.225000X0.225000X0.375000X-0.225000X0.375000X-0.225000X-0.375000X0.225000X-0.375000X0*%
%TD*%
%TA.AperFunction,SMDPad,CuDef*%
%ADD35RoundRect,0.150000X0.150000X-0.512500X0.150000X0.512500X-0.150000X0.512500X-0.150000X-0.512500X0*%
%TD*%
%TA.AperFunction,SMDPad,CuDef*%
%ADD36RoundRect,0.218750X0.256250X-0.218750X0.256250X0.218750X-0.256250X0.218750X-0.256250X-0.218750X0*%
%TD*%
%TA.AperFunction,SMDPad,CuDef*%
%ADD37RoundRect,0.225000X0.375000X-0.225000X0.375000X0.225000X-0.375000X0.225000X-0.375000X-0.225000X0*%
%TD*%
%TA.AperFunction,SMDPad,CuDef*%
%ADD38RoundRect,0.150000X-0.512500X-0.150000X0.512500X-0.150000X0.512500X0.150000X-0.512500X0.150000X0*%
%TD*%
%TA.AperFunction,SMDPad,CuDef*%
%ADD39RoundRect,0.135000X-0.135000X-0.185000X0.135000X-0.185000X0.135000X0.185000X-0.135000X0.185000X0*%
%TD*%
%TA.AperFunction,SMDPad,CuDef*%
%ADD40RoundRect,0.140000X-0.140000X-0.170000X0.140000X-0.170000X0.140000X0.170000X-0.140000X0.170000X0*%
%TD*%
%TA.AperFunction,SMDPad,CuDef*%
%ADD41R,1.200000X1.400000*%
%TD*%
%TA.AperFunction,SMDPad,CuDef*%
%ADD42R,0.508000X0.508000*%
%TD*%
%TA.AperFunction,SMDPad,CuDef*%
%ADD43RoundRect,0.100000X-0.575000X0.100000X-0.575000X-0.100000X0.575000X-0.100000X0.575000X0.100000X0*%
%TD*%
%TA.AperFunction,ComponentPad*%
%ADD44O,1.600000X0.900000*%
%TD*%
%TA.AperFunction,SMDPad,CuDef*%
%ADD45RoundRect,0.250000X-0.450000X0.550000X-0.450000X-0.550000X0.450000X-0.550000X0.450000X0.550000X0*%
%TD*%
%TA.AperFunction,SMDPad,CuDef*%
%ADD46RoundRect,0.250000X-0.700000X0.700000X-0.700000X-0.700000X0.700000X-0.700000X0.700000X0.700000X0*%
%TD*%
%TA.AperFunction,ViaPad*%
%ADD47C,0.600000*%
%TD*%
%TA.AperFunction,Conductor*%
%ADD48C,0.127000*%
%TD*%
%TA.AperFunction,Conductor*%
%ADD49C,0.508000*%
%TD*%
%TA.AperFunction,Conductor*%
%ADD50C,0.254000*%
%TD*%
G04 APERTURE END LIST*
D10*
%TO.P,C26,1*%
%TO.N,2V8*%
X199377000Y-107696000D03*
%TO.P,C26,2*%
%TO.N,GND*%
X200927000Y-107696000D03*
%TD*%
D11*
%TO.P,C20,1*%
%TO.N,/Power/PRE_OUT*%
X194564000Y-114033000D03*
%TO.P,C20,2*%
%TO.N,GND*%
X194564000Y-115583000D03*
%TD*%
D10*
%TO.P,C16,1*%
%TO.N,+12V*%
X205727000Y-114300000D03*
%TO.P,C16,2*%
%TO.N,GND*%
X207277000Y-114300000D03*
%TD*%
D12*
%TO.P,L1,1,1*%
%TO.N,/Power/LX*%
X199520000Y-111252000D03*
%TO.P,L1,2,2*%
%TO.N,/Power/PRE_OUT*%
X196720000Y-111252000D03*
%TD*%
D13*
%TO.P,U6,1,TXD*%
%TO.N,CAN_TX*%
X201254500Y-102149000D03*
%TO.P,U6,2,GND*%
%TO.N,GND*%
X201254500Y-102799000D03*
%TO.P,U6,3,VCC*%
%TO.N,VCC*%
X201254500Y-103449000D03*
%TO.P,U6,4,RXD*%
%TO.N,CAN_RX*%
X201254500Y-104099000D03*
%TO.P,U6,5,VIO*%
%TO.N,3V3*%
X204129500Y-104099000D03*
%TO.P,U6,6,CANL*%
%TO.N,Net-(J3-Pin_3)*%
X204129500Y-103449000D03*
%TO.P,U6,7,CANH*%
%TO.N,Net-(J3-Pin_4)*%
X204129500Y-102799000D03*
%TO.P,U6,8,~{STB}*%
%TO.N,CAN_STB*%
X204129500Y-102149000D03*
D14*
%TO.P,U6,9*%
%TO.N,N/C*%
X202692000Y-103124000D03*
%TD*%
D15*
%TO.P,R13,1*%
%TO.N,Net-(U4-FB)*%
X204216000Y-118620000D03*
%TO.P,R13,2*%
%TO.N,GND*%
X204216000Y-117600000D03*
%TD*%
%TO.P,R12,1*%
%TO.N,/Power/PRE_OUT*%
X202692000Y-118620000D03*
%TO.P,R12,2*%
%TO.N,Net-(U4-FB)*%
X202692000Y-117600000D03*
%TD*%
D11*
%TO.P,C28,1*%
%TO.N,3V3*%
X181356000Y-113671000D03*
%TO.P,C28,2*%
%TO.N,GND*%
X181356000Y-115221000D03*
%TD*%
D16*
%TO.P,C27,1*%
%TO.N,VCC*%
X188722000Y-115221000D03*
%TO.P,C27,2*%
%TO.N,GND*%
X188722000Y-113671000D03*
%TD*%
D11*
%TO.P,C17,2*%
%TO.N,GND*%
X183642000Y-120155000D03*
%TO.P,C17,1*%
%TO.N,2V8*%
X183642000Y-118605000D03*
%TD*%
%TO.P,C15,2*%
%TO.N,GND*%
X191262000Y-120155000D03*
%TO.P,C15,1*%
%TO.N,VCC*%
X191262000Y-118605000D03*
%TD*%
D16*
%TO.P,C1,2*%
%TO.N,GND*%
X194818000Y-86347000D03*
%TO.P,C1,1*%
%TO.N,3V3*%
X194818000Y-87897000D03*
%TD*%
D17*
%TO.P,U2,1,VBAT*%
%TO.N,3V3*%
X196985500Y-96476000D03*
%TO.P,U2,2,PC13*%
%TO.N,CAN_STB*%
X196985500Y-95976000D03*
%TO.P,U2,3,PC14*%
%TO.N,unconnected-(U2-PC14-Pad3)*%
X196985500Y-95476000D03*
%TO.P,U2,4,PC15*%
%TO.N,unconnected-(U2-PC15-Pad4)*%
X196985500Y-94976000D03*
%TO.P,U2,5,PF0*%
%TO.N,/STM32/OSC_IN*%
X196985500Y-94476000D03*
%TO.P,U2,6,PF1*%
%TO.N,Net-(U2-PF1)*%
X196985500Y-93976000D03*
%TO.P,U2,7,PG10*%
%TO.N,NRST*%
X196985500Y-93476000D03*
%TO.P,U2,8,PA0*%
%TO.N,VIN_MEAS*%
X196985500Y-92976000D03*
%TO.P,U2,9,PA1*%
%TO.N,unconnected-(U2-PA1-Pad9)*%
X196985500Y-92476000D03*
%TO.P,U2,10,PA2*%
%TO.N,unconnected-(U2-PA2-Pad10)*%
X196985500Y-91976000D03*
%TO.P,U2,11,PA3*%
%TO.N,unconnected-(U2-PA3-Pad11)*%
X196985500Y-91476000D03*
%TO.P,U2,12,PA4*%
%TO.N,unconnected-(U2-PA4-Pad12)*%
X196985500Y-90976000D03*
D18*
%TO.P,U2,13,PA5*%
%TO.N,BOOT*%
X196298000Y-90288500D03*
%TO.P,U2,14,PA6*%
%TO.N,LED2*%
X195798000Y-90288500D03*
%TO.P,U2,15,PA7*%
%TO.N,LED1*%
X195298000Y-90288500D03*
%TO.P,U2,16,PC4*%
%TO.N,unconnected-(U2-PC4-Pad16)*%
X194798000Y-90288500D03*
%TO.P,U2,17,PB0*%
%TO.N,unconnected-(U2-PB0-Pad17)*%
X194298000Y-90288500D03*
%TO.P,U2,18,PB1*%
%TO.N,unconnected-(U2-PB1-Pad18)*%
X193798000Y-90288500D03*
%TO.P,U2,19,PB2*%
%TO.N,unconnected-(U2-PB2-Pad19)*%
X193298000Y-90288500D03*
%TO.P,U2,20,VREF+*%
%TO.N,3V3*%
X192798000Y-90288500D03*
%TO.P,U2,21,VDDA*%
X192298000Y-90288500D03*
%TO.P,U2,22,PB10*%
%TO.N,unconnected-(U2-PB10-Pad22)*%
X191798000Y-90288500D03*
%TO.P,U2,23,VDD*%
%TO.N,3V3*%
X191298000Y-90288500D03*
%TO.P,U2,24,PB11*%
%TO.N,unconnected-(U2-PB11-Pad24)*%
X190798000Y-90288500D03*
D17*
%TO.P,U2,25,PB12*%
%TO.N,unconnected-(U2-PB12-Pad25)*%
X190110500Y-90976000D03*
%TO.P,U2,26,PB13*%
%TO.N,unconnected-(U2-PB13-Pad26)*%
X190110500Y-91476000D03*
%TO.P,U2,27,PB14*%
%TO.N,unconnected-(U2-PB14-Pad27)*%
X190110500Y-91976000D03*
%TO.P,U2,28,PB15*%
%TO.N,unconnected-(U2-PB15-Pad28)*%
X190110500Y-92476000D03*
%TO.P,U2,29,PC6*%
%TO.N,unconnected-(U2-PC6-Pad29)*%
X190110500Y-92976000D03*
%TO.P,U2,30,PA8*%
%TO.N,unconnected-(U2-PA8-Pad30)*%
X190110500Y-93476000D03*
%TO.P,U2,31,PA9*%
%TO.N,unconnected-(U2-PA9-Pad31)*%
X190110500Y-93976000D03*
%TO.P,U2,32,PA10*%
%TO.N,ID*%
X190110500Y-94476000D03*
%TO.P,U2,33,PA11*%
%TO.N,DM*%
X190110500Y-94976000D03*
%TO.P,U2,34,PA12*%
%TO.N,DP*%
X190110500Y-95476000D03*
%TO.P,U2,35,VDD*%
%TO.N,3V3*%
X190110500Y-95976000D03*
%TO.P,U2,36,PA13*%
%TO.N,SWDIO*%
X190110500Y-96476000D03*
D18*
%TO.P,U2,37,PA14*%
%TO.N,SWCLK*%
X190798000Y-97163500D03*
%TO.P,U2,38,PA15*%
%TO.N,TOF_SCL*%
X191298000Y-97163500D03*
%TO.P,U2,39,PC10*%
%TO.N,unconnected-(U2-PC10-Pad39)*%
X191798000Y-97163500D03*
%TO.P,U2,40,PC11*%
%TO.N,unconnected-(U2-PC11-Pad40)*%
X192298000Y-97163500D03*
%TO.P,U2,41,PB3*%
%TO.N,unconnected-(U2-PB3-Pad41)*%
X192798000Y-97163500D03*
%TO.P,U2,42,PB4*%
%TO.N,unconnected-(U2-PB4-Pad42)*%
X193298000Y-97163500D03*
%TO.P,U2,43,PB5*%
%TO.N,TOF_INT*%
X193798000Y-97163500D03*
%TO.P,U2,44,PB6*%
%TO.N,TOF_XSHUT*%
X194298000Y-97163500D03*
%TO.P,U2,45,PB7*%
%TO.N,TOF_SDA*%
X194798000Y-97163500D03*
%TO.P,U2,46,PB8*%
%TO.N,CAN_RX*%
X195298000Y-97163500D03*
%TO.P,U2,47,PB9*%
%TO.N,CAN_TX*%
X195798000Y-97163500D03*
%TO.P,U2,48,VDD*%
%TO.N,3V3*%
X196298000Y-97163500D03*
D19*
%TO.P,U2,49,VSS*%
%TO.N,GND*%
X193548000Y-93726000D03*
%TD*%
D20*
%TO.P,U5,7,GND*%
%TO.N,GND*%
X188214000Y-119380000D03*
D21*
%TO.P,U5,6,IN*%
%TO.N,VCC*%
X189101500Y-118730000D03*
%TO.P,U5,5,DNC*%
%TO.N,unconnected-(U5-DNC-Pad5)*%
X189101500Y-119380000D03*
%TO.P,U5,4,EN*%
%TO.N,VCC*%
X189101500Y-120030000D03*
%TO.P,U5,3,GND*%
%TO.N,GND*%
X187326500Y-120030000D03*
%TO.P,U5,2,FB*%
%TO.N,Net-(U5-FB)*%
X187326500Y-119380000D03*
%TO.P,U5,1,OUT*%
%TO.N,2V8*%
X187326500Y-118730000D03*
%TD*%
%TO.P,U3,1,OUT*%
%TO.N,3V3*%
X184786500Y-113796000D03*
%TO.P,U3,2,FB*%
%TO.N,Net-(U3-FB)*%
X184786500Y-114446000D03*
%TO.P,U3,3,GND*%
%TO.N,GND*%
X184786500Y-115096000D03*
%TO.P,U3,4,EN*%
%TO.N,VCC*%
X186561500Y-115096000D03*
%TO.P,U3,5,DNC*%
%TO.N,unconnected-(U3-DNC-Pad5)*%
X186561500Y-114446000D03*
%TO.P,U3,6,IN*%
%TO.N,VCC*%
X186561500Y-113796000D03*
D20*
%TO.P,U3,7,GND*%
%TO.N,GND*%
X185674000Y-114446000D03*
%TD*%
D22*
%TO.P,R15,2*%
%TO.N,GND*%
X185420000Y-121160000D03*
%TO.P,R15,1*%
%TO.N,Net-(U5-FB)*%
X185420000Y-120140000D03*
%TD*%
%TO.P,R14,2*%
%TO.N,Net-(U5-FB)*%
X185420000Y-118874000D03*
%TO.P,R14,1*%
%TO.N,2V8*%
X185420000Y-117854000D03*
%TD*%
D23*
%TO.P,R22,1*%
%TO.N,2V8*%
X198122000Y-102362000D03*
%TO.P,R22,2*%
%TO.N,Net-(U8-EN)*%
X197102000Y-102362000D03*
%TD*%
D22*
%TO.P,R10,1*%
%TO.N,3V3*%
X183134000Y-112666000D03*
%TO.P,R10,2*%
%TO.N,Net-(U3-FB)*%
X183134000Y-113686000D03*
%TD*%
%TO.P,R11,1*%
%TO.N,Net-(U3-FB)*%
X183134000Y-114952000D03*
%TO.P,R11,2*%
%TO.N,GND*%
X183134000Y-115972000D03*
%TD*%
D16*
%TO.P,C18,1*%
%TO.N,Net-(U4-BST)*%
X199390000Y-115837000D03*
%TO.P,C18,2*%
%TO.N,/Power/LX*%
X199390000Y-114287000D03*
%TD*%
D24*
%TO.P,C7,2*%
%TO.N,GND*%
X191262000Y-86642000D03*
%TO.P,C7,1*%
%TO.N,3V3*%
X191262000Y-87602000D03*
%TD*%
D25*
%TO.P,D7,1,K*%
%TO.N,Net-(J3-Pin_3)*%
X206060000Y-102537500D03*
%TO.P,D7,2,K*%
%TO.N,Net-(J3-Pin_4)*%
X207960000Y-102537500D03*
%TO.P,D7,3,A*%
%TO.N,GND*%
X207010000Y-100662500D03*
%TD*%
D26*
%TO.P,C5,1*%
%TO.N,3V3*%
X188313000Y-98679000D03*
%TO.P,C5,2*%
%TO.N,GND*%
X187353000Y-98679000D03*
%TD*%
D27*
%TO.P,D5,1,K*%
%TO.N,VCC*%
X191390000Y-111252000D03*
%TO.P,D5,2,A*%
%TO.N,/Power/PRE_OUT*%
X194690000Y-111252000D03*
%TD*%
D26*
%TO.P,C22,1*%
%TO.N,VIN_MEAS*%
X203934000Y-121666000D03*
%TO.P,C22,2*%
%TO.N,GND*%
X202974000Y-121666000D03*
%TD*%
D28*
%TO.P,Q1,1,G*%
%TO.N,GND*%
X205564500Y-109794000D03*
%TO.P,Q1,2,S*%
%TO.N,+12V*%
X205564500Y-111694000D03*
%TO.P,Q1,3,D*%
%TO.N,VIN*%
X207439500Y-110744000D03*
%TD*%
D24*
%TO.P,C9,1*%
%TO.N,GND*%
X201930000Y-97254000D03*
%TO.P,C9,2*%
%TO.N,/STM32/OSC_IN*%
X201930000Y-96294000D03*
%TD*%
D29*
%TO.P,U8,1,VCCA*%
%TO.N,3V3*%
X189852300Y-100625001D03*
%TO.P,U8,2,SCLA*%
%TO.N,TOF_SCL*%
X189852300Y-101274999D03*
%TO.P,U8,3,SDAA*%
%TO.N,TOF_SDA*%
X189852300Y-101925001D03*
%TO.P,U8,4,GND*%
%TO.N,GND*%
X189852300Y-102574999D03*
%TO.P,U8,5,EN*%
%TO.N,Net-(U8-EN)*%
X194195700Y-102574999D03*
%TO.P,U8,6,SDAB*%
%TO.N,TOF_SDA_2V8*%
X194195700Y-101925001D03*
%TO.P,U8,7,SCLB*%
%TO.N,TOF_SCL_2V8*%
X194195700Y-101274999D03*
%TO.P,U8,8,VCCB*%
%TO.N,2V8*%
X194195700Y-100625001D03*
%TD*%
D30*
%TO.P,C8,1*%
%TO.N,BOOT*%
X202946000Y-99088000D03*
%TO.P,C8,2*%
%TO.N,GND*%
X202946000Y-100048000D03*
%TD*%
D31*
%TO.P,D4,1,K*%
%TO.N,/Power/LX*%
X197104000Y-115952000D03*
%TO.P,D4,2,A*%
%TO.N,GND*%
X197104000Y-119252000D03*
%TD*%
D32*
%TO.P,J3,1,Pin_1*%
%TO.N,VIN*%
X210910000Y-108664000D03*
D33*
%TO.P,J3,2,Pin_2*%
%TO.N,GND*%
X210910000Y-106664000D03*
%TO.P,J3,3,Pin_3*%
%TO.N,Net-(J3-Pin_3)*%
X210910000Y-104664000D03*
%TO.P,J3,4,Pin_4*%
%TO.N,Net-(J3-Pin_4)*%
X210910000Y-102664000D03*
%TD*%
D34*
%TO.P,D6,1,K*%
%TO.N,VIN_MEAS*%
X197484000Y-123190000D03*
%TO.P,D6,2,A*%
%TO.N,GND*%
X194184000Y-123190000D03*
%TD*%
D35*
%TO.P,U4,1,BST*%
%TO.N,Net-(U4-BST)*%
X201488000Y-114421500D03*
%TO.P,U4,2,GND*%
%TO.N,GND*%
X202438000Y-114421500D03*
%TO.P,U4,3,FB*%
%TO.N,Net-(U4-FB)*%
X203388000Y-114421500D03*
%TO.P,U4,4,EN*%
%TO.N,+12V*%
X203388000Y-112146500D03*
%TO.P,U4,5,VIN*%
X202438000Y-112146500D03*
%TO.P,U4,6,LX*%
%TO.N,/Power/LX*%
X201488000Y-112146500D03*
%TD*%
D24*
%TO.P,C6,1*%
%TO.N,3V3*%
X192659000Y-87602000D03*
%TO.P,C6,2*%
%TO.N,GND*%
X192659000Y-86642000D03*
%TD*%
D30*
%TO.P,C23,1*%
%TO.N,VCC*%
X202946000Y-106962000D03*
%TO.P,C23,2*%
%TO.N,GND*%
X202946000Y-107922000D03*
%TD*%
D23*
%TO.P,R23,1*%
%TO.N,2V8*%
X198122000Y-101092000D03*
%TO.P,R23,2*%
%TO.N,TOF_SDA_2V8*%
X197102000Y-101092000D03*
%TD*%
D15*
%TO.P,R7,1*%
%TO.N,NRST*%
X188087000Y-88900000D03*
%TO.P,R7,2*%
%TO.N,3V3*%
X188087000Y-87880000D03*
%TD*%
D22*
%TO.P,R9,1*%
%TO.N,Net-(D3-A)*%
X201295000Y-87755000D03*
%TO.P,R9,2*%
%TO.N,3V3*%
X201295000Y-88775000D03*
%TD*%
D36*
%TO.P,D2,1,K*%
%TO.N,LED1*%
X197993000Y-88417500D03*
%TO.P,D2,2,A*%
%TO.N,Net-(D2-A)*%
X197993000Y-86842500D03*
%TD*%
D37*
%TO.P,D1,1,K*%
%TO.N,VCC*%
X178816000Y-99694000D03*
%TO.P,D1,2,A*%
%TO.N,Net-(D1-A)*%
X178816000Y-96394000D03*
%TD*%
D23*
%TO.P,R17,1*%
%TO.N,VIN_MEAS*%
X196725000Y-121285000D03*
%TO.P,R17,2*%
%TO.N,GND*%
X195705000Y-121285000D03*
%TD*%
%TO.P,R1,1*%
%TO.N,ID*%
X182120000Y-108966000D03*
%TO.P,R1,2*%
%TO.N,Net-(J1-ID)*%
X181100000Y-108966000D03*
%TD*%
D22*
%TO.P,R8,1*%
%TO.N,Net-(D2-A)*%
X196342000Y-86485000D03*
%TO.P,R8,2*%
%TO.N,3V3*%
X196342000Y-87505000D03*
%TD*%
D38*
%TO.P,U1,1,I/O1*%
%TO.N,Net-(J1-D-)*%
X181742500Y-104714000D03*
%TO.P,U1,2,GND*%
%TO.N,GND*%
X181742500Y-105664000D03*
%TO.P,U1,3,I/O2*%
%TO.N,Net-(J1-D+)*%
X181742500Y-106614000D03*
%TO.P,U1,4,I/O2*%
%TO.N,Net-(R4-Pad1)*%
X184017500Y-106614000D03*
%TO.P,U1,5,VBUS*%
%TO.N,VCC*%
X184017500Y-105664000D03*
%TO.P,U1,6,I/O1*%
%TO.N,Net-(R5-Pad1)*%
X184017500Y-104714000D03*
%TD*%
D30*
%TO.P,C24,1*%
%TO.N,3V3*%
X205232000Y-106962000D03*
%TO.P,C24,2*%
%TO.N,GND*%
X205232000Y-107922000D03*
%TD*%
D23*
%TO.P,R21,1*%
%TO.N,2V8*%
X198122000Y-99822000D03*
%TO.P,R21,2*%
%TO.N,TOF_SCL_2V8*%
X197102000Y-99822000D03*
%TD*%
D22*
%TO.P,R3,1*%
%TO.N,BOOT*%
X201676000Y-99058000D03*
%TO.P,R3,2*%
%TO.N,GND*%
X201676000Y-100078000D03*
%TD*%
%TO.P,R16,1*%
%TO.N,+12V*%
X206248000Y-117600000D03*
%TO.P,R16,2*%
%TO.N,VIN_MEAS*%
X206248000Y-118620000D03*
%TD*%
D16*
%TO.P,C4,1*%
%TO.N,GND*%
X176530000Y-99835000D03*
%TO.P,C4,2*%
%TO.N,Net-(D1-A)*%
X176530000Y-98285000D03*
%TD*%
D36*
%TO.P,D3,1,K*%
%TO.N,LED2*%
X199644000Y-88798500D03*
%TO.P,D3,2,A*%
%TO.N,Net-(D3-A)*%
X199644000Y-87223500D03*
%TD*%
D15*
%TO.P,R5,1*%
%TO.N,Net-(R5-Pad1)*%
X185420000Y-102618000D03*
%TO.P,R5,2*%
%TO.N,DM*%
X185420000Y-101598000D03*
%TD*%
D39*
%TO.P,R19,1*%
%TO.N,2V8*%
X188974000Y-106807000D03*
%TO.P,R19,2*%
%TO.N,TOF_XSHUT*%
X189994000Y-106807000D03*
%TD*%
D40*
%TO.P,C2,1*%
%TO.N,3V3*%
X199418000Y-97536000D03*
%TO.P,C2,2*%
%TO.N,GND*%
X200378000Y-97536000D03*
%TD*%
D41*
%TO.P,Y1,1,1*%
%TO.N,/STM32/OSC_OUT*%
X201461000Y-92118000D03*
%TO.P,Y1,2,2*%
%TO.N,unconnected-(Y1-Pad2)*%
X201461000Y-94318000D03*
%TO.P,Y1,3,3*%
%TO.N,/STM32/OSC_IN*%
X203161000Y-94318000D03*
%TO.P,Y1,4,4*%
%TO.N,unconnected-(Y1-Pad4)*%
X203161000Y-92118000D03*
%TD*%
D15*
%TO.P,R4,1*%
%TO.N,Net-(R4-Pad1)*%
X186690000Y-102618000D03*
%TO.P,R4,2*%
%TO.N,DP*%
X186690000Y-101598000D03*
%TD*%
D40*
%TO.P,C25,1*%
%TO.N,2V8*%
X198910000Y-105918000D03*
%TO.P,C25,2*%
%TO.N,GND*%
X199870000Y-105918000D03*
%TD*%
D39*
%TO.P,R6,1*%
%TO.N,Net-(U2-PF1)*%
X198753000Y-93980000D03*
%TO.P,R6,2*%
%TO.N,/STM32/OSC_OUT*%
X199773000Y-93980000D03*
%TD*%
D42*
%TO.P,U7,1,AVDDVCSEL*%
%TO.N,2V8*%
X195655999Y-106463973D03*
%TO.P,U7,2,AVSSVCSEL*%
%TO.N,GND*%
X194856001Y-106463973D03*
%TO.P,U7,3,GND*%
X194056000Y-106463973D03*
%TO.P,U7,4,GND2*%
X193255999Y-106463973D03*
%TO.P,U7,5,XSHUT*%
%TO.N,TOF_XSHUT*%
X192456001Y-106463973D03*
%TO.P,U7,6,GND3*%
%TO.N,GND*%
X192456054Y-105664000D03*
%TO.P,U7,7,GPIO1*%
%TO.N,TOF_INT*%
X192456001Y-104864027D03*
%TO.P,U7,8,DNC*%
%TO.N,unconnected-(U7-DNC-Pad8)*%
X193255999Y-104864027D03*
%TO.P,U7,9,SDA*%
%TO.N,TOF_SDA_2V8*%
X194056000Y-104864027D03*
%TO.P,U7,10,SCL*%
%TO.N,TOF_SCL_2V8*%
X194856001Y-104864027D03*
%TO.P,U7,11,AVDD*%
%TO.N,2V8*%
X195655999Y-104864027D03*
%TO.P,U7,12,GND4*%
%TO.N,GND*%
X195655946Y-105664000D03*
%TD*%
D23*
%TO.P,R2,1*%
%TO.N,3V3*%
X208155000Y-96012000D03*
%TO.P,R2,2*%
%TO.N,Net-(R2-Pad2)*%
X207135000Y-96012000D03*
%TD*%
D43*
%TO.P,J1,1,VBUS*%
%TO.N,Net-(D1-A)*%
X178443000Y-104364000D03*
%TO.P,J1,2,D-*%
%TO.N,Net-(J1-D-)*%
X178443000Y-105014000D03*
%TO.P,J1,3,D+*%
%TO.N,Net-(J1-D+)*%
X178443000Y-105664000D03*
%TO.P,J1,4,ID*%
%TO.N,Net-(J1-ID)*%
X178443000Y-106314000D03*
%TO.P,J1,5,GND*%
%TO.N,GND*%
X178443000Y-106964000D03*
D44*
%TO.P,J1,6,Shield*%
X175768000Y-102364000D03*
D45*
X178218000Y-102464000D03*
D46*
X175768000Y-104464000D03*
X175768000Y-106864000D03*
D45*
X178218000Y-108864000D03*
D44*
X175768000Y-108964000D03*
%TD*%
D22*
%TO.P,R18,1*%
%TO.N,Net-(J3-Pin_4)*%
X207264000Y-104900000D03*
%TO.P,R18,2*%
%TO.N,Net-(J3-Pin_3)*%
X207264000Y-105920000D03*
%TD*%
D26*
%TO.P,C10,1*%
%TO.N,GND*%
X202410000Y-90043000D03*
%TO.P,C10,2*%
%TO.N,/STM32/OSC_OUT*%
X201450000Y-90043000D03*
%TD*%
D39*
%TO.P,R20,1*%
%TO.N,2V8*%
X188974000Y-104775000D03*
%TO.P,R20,2*%
%TO.N,TOF_INT*%
X189994000Y-104775000D03*
%TD*%
D26*
%TO.P,C3,1*%
%TO.N,3V3*%
X188313000Y-97409000D03*
%TO.P,C3,2*%
%TO.N,GND*%
X187353000Y-97409000D03*
%TD*%
D47*
%TO.N,3V3*%
X193675000Y-88773000D03*
X203200000Y-88773000D03*
%TO.N,BOOT*%
X198374000Y-90297000D03*
%TO.N,3V3*%
X186817000Y-88265000D03*
%TO.N,TOF_INT*%
X190119000Y-105791000D03*
X193294000Y-98552000D03*
%TO.N,TOF_XSHUT*%
X194183000Y-98552000D03*
X190754000Y-107696000D03*
%TO.N,GND*%
X203200000Y-96901000D03*
X183642000Y-121412000D03*
X185420000Y-122047000D03*
X188214000Y-119380000D03*
X192659000Y-123190000D03*
X194183000Y-121285000D03*
X198120000Y-120523000D03*
X209042000Y-114046000D03*
X204216000Y-116586000D03*
X201803000Y-116205000D03*
X203708000Y-100711000D03*
X199517000Y-100457000D03*
X195453000Y-95504000D03*
X193548000Y-95504000D03*
X193548000Y-91567000D03*
X191516000Y-91567000D03*
X195453000Y-91567000D03*
X195453000Y-93726000D03*
X191516000Y-93726000D03*
X191516000Y-95504000D03*
X193548000Y-93726000D03*
X187071000Y-99568000D03*
X178435000Y-110617000D03*
X180213000Y-105537000D03*
X183134000Y-90424000D03*
X181229000Y-94234000D03*
X184912000Y-96266000D03*
X207391000Y-99481702D03*
X189611000Y-103759000D03*
X201041000Y-106299000D03*
X197739000Y-106045000D03*
X194056000Y-107569000D03*
X190918802Y-105808911D03*
%TO.N,3V3*%
X208153000Y-94869000D03*
X197831090Y-97028000D03*
X192278000Y-89027000D03*
X192913000Y-88519000D03*
X190119000Y-87757000D03*
X191262000Y-88773000D03*
%TO.N,ID*%
X179451000Y-111379000D03*
X184404000Y-102235000D03*
%TO.N,3V3*%
X189230000Y-98171000D03*
X188564289Y-95912500D03*
X188341000Y-100711000D03*
%TO.N,CAN_RX*%
X198628000Y-104140000D03*
X200152000Y-104140000D03*
%TO.N,CAN_STB*%
X199009000Y-96266000D03*
X204343000Y-97663000D03*
%TO.N,Net-(R2-Pad2)*%
X205740000Y-96012000D03*
%TO.N,BOOT*%
X200643769Y-100207444D03*
%TO.N,VIN_MEAS*%
X210058000Y-94488000D03*
X199263000Y-91114500D03*
%TO.N,SWCLK*%
X189865000Y-98679000D03*
%TO.N,SWDIO*%
X187817234Y-96477303D03*
%TO.N,NRST*%
X198628000Y-92583000D03*
X188087000Y-90041000D03*
%TO.N,3V3*%
X181160179Y-97477821D03*
%TO.N,TOF_SDA*%
X187833000Y-103251000D03*
%TO.N,TOF_SCL*%
X190664990Y-98674418D03*
X191770000Y-99441000D03*
%TO.N,TOF_SCL_2V8*%
X196215000Y-99822000D03*
X196215000Y-103378000D03*
%TO.N,/Power/PRE_OUT*%
X201422000Y-118618000D03*
X192659000Y-113919000D03*
%TO.N,3V3*%
X178562000Y-114300000D03*
X181610000Y-111760000D03*
X205359000Y-104394000D03*
X205232000Y-106045000D03*
%TO.N,2V8*%
X184277000Y-107950000D03*
X180340000Y-117856000D03*
%TO.N,VCC*%
X189611000Y-111252000D03*
X181991000Y-103124000D03*
X185801000Y-105664000D03*
%TO.N,Net-(D1-A)*%
X176859163Y-96432776D03*
X180340000Y-103505000D03*
%TD*%
D48*
%TO.N,3V3*%
X194818000Y-87897000D02*
X194551000Y-87897000D01*
X194551000Y-87897000D02*
X193675000Y-88773000D01*
X196342000Y-87505000D02*
X196342000Y-87884000D01*
X196342000Y-87884000D02*
X196088000Y-88138000D01*
X196088000Y-88138000D02*
X195834000Y-88138000D01*
X195593000Y-87897000D02*
X194818000Y-87897000D01*
X195834000Y-88138000D02*
X195593000Y-87897000D01*
%TO.N,Net-(D2-A)*%
X196342000Y-86485000D02*
X197635500Y-86485000D01*
X197635500Y-86485000D02*
X197993000Y-86842500D01*
%TO.N,3V3*%
X201295000Y-88775000D02*
X203198000Y-88775000D01*
X203198000Y-88775000D02*
X203200000Y-88773000D01*
%TO.N,Net-(D3-A)*%
X199644000Y-87223500D02*
X200763500Y-87223500D01*
X200763500Y-87223500D02*
X201295000Y-87755000D01*
%TO.N,LED2*%
X195798000Y-90288500D02*
X195798000Y-89444000D01*
X195798000Y-89444000D02*
X195834000Y-89408000D01*
X195834000Y-89408000D02*
X199034500Y-89408000D01*
X199034500Y-89408000D02*
X199644000Y-88798500D01*
%TO.N,BOOT*%
X198365500Y-90288500D02*
X198374000Y-90297000D01*
X196298000Y-90288500D02*
X198365500Y-90288500D01*
%TO.N,LED1*%
X195453000Y-88900000D02*
X195453000Y-89154000D01*
X195453000Y-89154000D02*
X195298000Y-89309000D01*
X197358000Y-88900000D02*
X195453000Y-88900000D01*
X197993000Y-88265000D02*
X197358000Y-88900000D01*
X195298000Y-89309000D02*
X195298000Y-90288500D01*
%TO.N,3V3*%
X198339090Y-97536000D02*
X197831090Y-97028000D01*
X196433500Y-97028000D02*
X197831090Y-97028000D01*
X196298000Y-97163500D02*
X196433500Y-97028000D01*
X199418000Y-97536000D02*
X198339090Y-97536000D01*
X196985500Y-96476000D02*
X197537500Y-97028000D01*
X197537500Y-97028000D02*
X197831090Y-97028000D01*
%TO.N,VIN_MEAS*%
X197422999Y-92976000D02*
X199263000Y-91135999D01*
X196985500Y-92976000D02*
X197422999Y-92976000D01*
X199263000Y-91135999D02*
X199263000Y-91114500D01*
%TO.N,3V3*%
X188087000Y-87880000D02*
X187202000Y-87880000D01*
X187202000Y-87880000D02*
X186817000Y-88265000D01*
%TO.N,2V8*%
X196760973Y-104864027D02*
X197231000Y-104394000D01*
X197231000Y-104394000D02*
X198122000Y-103503000D01*
X198910000Y-105918000D02*
X198755000Y-105918000D01*
X198755000Y-105918000D02*
X197231000Y-104394000D01*
%TO.N,TOF_INT*%
X193798000Y-97163500D02*
X193798000Y-98048000D01*
%TO.N,TOF_SDA*%
X191350908Y-98785410D02*
X192730500Y-98785410D01*
X193060590Y-99115500D02*
X194416410Y-99115500D01*
X194416410Y-99115500D02*
X194798000Y-98733910D01*
X187706000Y-101925001D02*
X187761500Y-101869501D01*
X187761500Y-99441000D02*
X190695318Y-99441000D01*
X190695318Y-99441000D02*
X191350908Y-98785410D01*
%TO.N,TOF_INT*%
X193798000Y-98048000D02*
X193294000Y-98552000D01*
%TO.N,GND*%
X192456054Y-105664000D02*
X191063713Y-105664000D01*
%TO.N,TOF_INT*%
X190119000Y-105027000D02*
X189994000Y-104902000D01*
%TO.N,TOF_SDA*%
X194798000Y-98733910D02*
X194798000Y-97163500D01*
X187761500Y-101869501D02*
X187761500Y-99441000D01*
%TO.N,GND*%
X191063713Y-105664000D02*
X190918802Y-105808911D01*
%TO.N,TOF_SDA*%
X192730500Y-98785410D02*
X193060590Y-99115500D01*
%TO.N,TOF_INT*%
X190119000Y-105791000D02*
X190119000Y-105027000D01*
%TO.N,2V8*%
X197866000Y-98806000D02*
X198122000Y-99062000D01*
X194195700Y-100625001D02*
X194195700Y-99798658D01*
%TO.N,TOF_XSHUT*%
X194298000Y-97163500D02*
X194298000Y-98437000D01*
%TO.N,2V8*%
X194195700Y-99798658D02*
X195188358Y-98806000D01*
X198122000Y-99062000D02*
X198122000Y-99822000D01*
X195188358Y-98806000D02*
X197866000Y-98806000D01*
%TO.N,TOF_XSHUT*%
X194298000Y-98437000D02*
X194183000Y-98552000D01*
D49*
%TO.N,2V8*%
X189474000Y-108450000D02*
X188974000Y-107950000D01*
X198448000Y-108450000D02*
X189474000Y-108450000D01*
X199202000Y-107696000D02*
X198448000Y-108450000D01*
D48*
%TO.N,TOF_XSHUT*%
X190754000Y-106680000D02*
X189994000Y-106680000D01*
X190754000Y-107696000D02*
X190754000Y-106680000D01*
X191135000Y-106680000D02*
X190754000Y-106680000D01*
D50*
%TO.N,Net-(J3-Pin_4)*%
X207960000Y-102537500D02*
X207960000Y-104204000D01*
X207960000Y-104204000D02*
X207264000Y-104900000D01*
D48*
%TO.N,GND*%
X200378000Y-97536000D02*
X201648000Y-97536000D01*
X201648000Y-97536000D02*
X201930000Y-97254000D01*
X201930000Y-97254000D02*
X202847000Y-97254000D01*
X202847000Y-97254000D02*
X203200000Y-96901000D01*
X183642000Y-120155000D02*
X183642000Y-121412000D01*
X185420000Y-121160000D02*
X185420000Y-122047000D01*
X194184000Y-123190000D02*
X192659000Y-123190000D01*
X195705000Y-121285000D02*
X194183000Y-121285000D01*
X197104000Y-119252000D02*
X198120000Y-120268000D01*
X198120000Y-120268000D02*
X198120000Y-120523000D01*
X207452000Y-114300000D02*
X208788000Y-114300000D01*
X208788000Y-114300000D02*
X209042000Y-114046000D01*
X204216000Y-117600000D02*
X204216000Y-116586000D01*
X202438000Y-114421500D02*
X202438000Y-115570000D01*
X202438000Y-115570000D02*
X201803000Y-116205000D01*
X202946000Y-100048000D02*
X203045000Y-100048000D01*
X203045000Y-100048000D02*
X203708000Y-100711000D01*
X201676000Y-100078000D02*
X202916000Y-100078000D01*
X202916000Y-100078000D02*
X202946000Y-100048000D01*
%TO.N,CAN_RX*%
X199190000Y-99368000D02*
X199190000Y-99987090D01*
X198247000Y-98425000D02*
X199190000Y-99368000D01*
%TO.N,GND*%
X200817001Y-102799000D02*
X199517000Y-101498999D01*
%TO.N,CAN_RX*%
X199190000Y-99987090D02*
X198953500Y-100223590D01*
X198953500Y-103814500D02*
X198628000Y-104140000D01*
%TO.N,CAN_TX*%
X196203449Y-98044000D02*
X198628000Y-98044000D01*
X198628000Y-98044000D02*
X200080500Y-99496500D01*
X200080500Y-100975000D02*
X201254500Y-102149000D01*
%TO.N,CAN_RX*%
X198953500Y-100223590D02*
X198953500Y-103814500D01*
%TO.N,CAN_TX*%
X200080500Y-99496500D02*
X200080500Y-100975000D01*
X195798000Y-97638551D02*
X196203449Y-98044000D01*
%TO.N,BOOT*%
X201170000Y-99058000D02*
X200643769Y-99584231D01*
%TO.N,CAN_RX*%
X195298000Y-97163500D02*
X195298000Y-97600999D01*
%TO.N,BOOT*%
X200643769Y-99584231D02*
X200643769Y-100207444D01*
%TO.N,CAN_RX*%
X196122001Y-98425000D02*
X198247000Y-98425000D01*
%TO.N,GND*%
X201254500Y-102799000D02*
X200817001Y-102799000D01*
%TO.N,CAN_TX*%
X195798000Y-97163500D02*
X195798000Y-97638551D01*
%TO.N,CAN_RX*%
X195298000Y-97600999D02*
X196122001Y-98425000D01*
%TO.N,BOOT*%
X201676000Y-99058000D02*
X201170000Y-99058000D01*
%TO.N,GND*%
X199517000Y-101498999D02*
X199517000Y-100457000D01*
%TO.N,DP*%
X186507500Y-101415500D02*
X186690000Y-101598000D01*
%TO.N,GND*%
X187353000Y-98679000D02*
X187353000Y-99286000D01*
%TO.N,DP*%
X189463410Y-95321500D02*
X188176127Y-95321500D01*
X189617910Y-95476000D02*
X189463410Y-95321500D01*
X190110500Y-95476000D02*
X189617910Y-95476000D01*
X186507500Y-96990127D02*
X186507500Y-101415500D01*
X188176127Y-95321500D02*
X186507500Y-96990127D01*
%TO.N,GND*%
X187353000Y-99286000D02*
X187071000Y-99568000D01*
X187353000Y-97409000D02*
X187353000Y-98679000D01*
X178443000Y-106964000D02*
X179832000Y-108353000D01*
X179832000Y-108353000D02*
X179832000Y-110363000D01*
X178689000Y-110363000D02*
X178435000Y-110617000D01*
X179832000Y-110363000D02*
X178689000Y-110363000D01*
%TO.N,Net-(J1-D-)*%
X180239090Y-104714000D02*
X181742500Y-104714000D01*
X179939090Y-105014000D02*
X180239090Y-104714000D01*
X178443000Y-105014000D02*
X179939090Y-105014000D01*
%TO.N,Net-(J1-D+)*%
X179543090Y-105664000D02*
X180493090Y-106614000D01*
X180493090Y-106614000D02*
X181742500Y-106614000D01*
X178443000Y-105664000D02*
X179543090Y-105664000D01*
%TO.N,GND*%
X181742500Y-105664000D02*
X180340000Y-105664000D01*
X180340000Y-105664000D02*
X180213000Y-105537000D01*
D50*
%TO.N,Net-(J3-Pin_4)*%
X208582702Y-98854702D02*
X209042000Y-99314000D01*
X207131288Y-98854702D02*
X208582702Y-98854702D01*
X209042000Y-99314000D02*
X209042000Y-102489000D01*
X204922000Y-102443999D02*
X204922000Y-101063990D01*
X204129500Y-102799000D02*
X204566999Y-102799000D01*
D48*
%TO.N,GND*%
X207010000Y-100662500D02*
X207010000Y-99862702D01*
D50*
%TO.N,Net-(J3-Pin_4)*%
X204922000Y-101063990D02*
X207131288Y-98854702D01*
X204566999Y-102799000D02*
X204922000Y-102443999D01*
D48*
%TO.N,GND*%
X207010000Y-99862702D02*
X207391000Y-99481702D01*
X189852300Y-102574999D02*
X189852300Y-103517700D01*
X189852300Y-103517700D02*
X189611000Y-103759000D01*
X201102000Y-107696000D02*
X201102000Y-106360000D01*
X201102000Y-106360000D02*
X201041000Y-106299000D01*
X199870000Y-105918000D02*
X200660000Y-105918000D01*
X200660000Y-105918000D02*
X201041000Y-106299000D01*
%TO.N,2V8*%
X198910000Y-106227999D02*
X198910000Y-105918000D01*
X198529499Y-106608500D02*
X198910000Y-106227999D01*
X195800526Y-106608500D02*
X198529499Y-106608500D01*
X195655999Y-106463973D02*
X195800526Y-106608500D01*
%TO.N,GND*%
X195655946Y-105664000D02*
X197358000Y-105664000D01*
X197358000Y-105664000D02*
X197739000Y-106045000D01*
X193255999Y-106463973D02*
X193255999Y-107403999D01*
X193255999Y-107403999D02*
X193421000Y-107569000D01*
X193421000Y-107569000D02*
X194056000Y-107569000D01*
X194856001Y-106463973D02*
X194856001Y-107403999D01*
X194856001Y-107403999D02*
X194691000Y-107569000D01*
X194691000Y-107569000D02*
X194056000Y-107569000D01*
X194056000Y-106463973D02*
X194056000Y-107569000D01*
%TO.N,3V3*%
X208155000Y-96012000D02*
X208155000Y-94871000D01*
X208155000Y-94871000D02*
X208153000Y-94869000D01*
X192798000Y-90288500D02*
X192798000Y-89547000D01*
X192798000Y-89547000D02*
X192278000Y-89027000D01*
X192298000Y-90288500D02*
X192298000Y-89047000D01*
X192298000Y-89047000D02*
X192278000Y-89027000D01*
X192786000Y-87602000D02*
X192786000Y-88392000D01*
X192786000Y-88392000D02*
X192913000Y-88519000D01*
X191262000Y-87602000D02*
X190274000Y-87602000D01*
X190274000Y-87602000D02*
X190119000Y-87757000D01*
X191298000Y-90288500D02*
X191298000Y-88809000D01*
X191298000Y-88809000D02*
X191262000Y-88773000D01*
%TO.N,ID*%
X190110500Y-94476000D02*
X187636566Y-94476000D01*
X182118000Y-110109000D02*
X182120000Y-110107000D01*
X187636566Y-94476000D02*
X184404000Y-97708566D01*
X179451000Y-111379000D02*
X181102000Y-111379000D01*
X182118000Y-110363000D02*
X182118000Y-110109000D01*
X181102000Y-111379000D02*
X182118000Y-110363000D01*
X184404000Y-97708566D02*
X184404000Y-102235000D01*
X182120000Y-110107000D02*
X182120000Y-108966000D01*
%TO.N,3V3*%
X188313000Y-98679000D02*
X188722000Y-98679000D01*
X188722000Y-98679000D02*
X189230000Y-98171000D01*
X189103000Y-97409000D02*
X189103000Y-98044000D01*
X189103000Y-98044000D02*
X189230000Y-98171000D01*
X188440000Y-97409000D02*
X189103000Y-97409000D01*
X188627789Y-95976000D02*
X188564289Y-95912500D01*
X190110500Y-95976000D02*
X188627789Y-95976000D01*
%TO.N,SWDIO*%
X187818537Y-96476000D02*
X187817234Y-96477303D01*
X190110500Y-96476000D02*
X187818537Y-96476000D01*
%TO.N,DM*%
X188059179Y-94976000D02*
X185420000Y-97615179D01*
%TO.N,SWDIO*%
X187844273Y-96477303D02*
X187817234Y-96477303D01*
X187967970Y-96601000D02*
X187844273Y-96477303D01*
%TO.N,DM*%
X190110500Y-94976000D02*
X188059179Y-94976000D01*
X185420000Y-97615179D02*
X185420000Y-101598000D01*
%TO.N,3V3*%
X189852300Y-100625001D02*
X188426999Y-100625001D01*
X188426999Y-100625001D02*
X188341000Y-100711000D01*
%TO.N,2V8*%
X198122000Y-101092000D02*
X198122000Y-102362000D01*
X198122000Y-99822000D02*
X198122000Y-101092000D01*
%TO.N,CAN_RX*%
X200152000Y-104140000D02*
X201213500Y-104140000D01*
X201213500Y-104140000D02*
X201254500Y-104099000D01*
%TO.N,CAN_STB*%
X196985500Y-95976000D02*
X198719000Y-95976000D01*
X198719000Y-95976000D02*
X199009000Y-96266000D01*
X204343000Y-101935500D02*
X204129500Y-102149000D01*
X204343000Y-97663000D02*
X204343000Y-101935500D01*
%TO.N,Net-(R2-Pad2)*%
X205740000Y-96012000D02*
X207135000Y-96012000D01*
%TO.N,BOOT*%
X201676000Y-99058000D02*
X202916000Y-99058000D01*
X202916000Y-99058000D02*
X202946000Y-99088000D01*
%TO.N,/STM32/OSC_OUT*%
X201461000Y-92118000D02*
X201450000Y-92107000D01*
X201450000Y-92107000D02*
X201450000Y-90043000D01*
X199773000Y-93980000D02*
X199773000Y-92327000D01*
X199773000Y-92327000D02*
X199898000Y-92202000D01*
X199898000Y-92202000D02*
X200152000Y-92202000D01*
X200152000Y-92202000D02*
X200236000Y-92118000D01*
X200236000Y-92118000D02*
X201461000Y-92118000D01*
%TO.N,Net-(U2-PF1)*%
X196985500Y-93976000D02*
X198749000Y-93976000D01*
X198749000Y-93976000D02*
X198753000Y-93980000D01*
%TO.N,/STM32/OSC_IN*%
X203161000Y-94318000D02*
X203161000Y-95924000D01*
X203161000Y-95924000D02*
X202791000Y-96294000D01*
X202791000Y-96294000D02*
X201930000Y-96294000D01*
X196985500Y-94476000D02*
X198108000Y-94476000D01*
X198108000Y-94476000D02*
X199771000Y-96139000D01*
X199771000Y-96139000D02*
X200025000Y-96139000D01*
X200025000Y-96139000D02*
X200180000Y-96294000D01*
X200180000Y-96294000D02*
X201930000Y-96294000D01*
%TO.N,SWCLK*%
X190798000Y-97163500D02*
X189865000Y-98096500D01*
X189865000Y-98096500D02*
X189865000Y-98679000D01*
%TO.N,TOF_SCL*%
X191298000Y-97163500D02*
X191298000Y-98041408D01*
X191298000Y-98041408D02*
X190664990Y-98674418D01*
%TO.N,NRST*%
X196985500Y-93476000D02*
X197735000Y-93476000D01*
X197735000Y-93476000D02*
X198628000Y-92583000D01*
X188087000Y-90041000D02*
X188087000Y-88900000D01*
%TO.N,TOF_SDA*%
X189852300Y-101925001D02*
X187706000Y-101925001D01*
X187706000Y-103124000D02*
X187833000Y-103251000D01*
X187706000Y-101925001D02*
X187706000Y-103124000D01*
%TO.N,TOF_SCL*%
X191643000Y-101219000D02*
X191643000Y-99568000D01*
X191587001Y-101274999D02*
X191643000Y-101219000D01*
X191643000Y-99568000D02*
X191770000Y-99441000D01*
X189852300Y-101274999D02*
X191587001Y-101274999D01*
%TO.N,TOF_SDA_2V8*%
X194056000Y-104864027D02*
X194056000Y-103632000D01*
X194056000Y-103632000D02*
X192659000Y-103632000D01*
X192659000Y-103632000D02*
X192532000Y-103505000D01*
X192532000Y-103505000D02*
X192532000Y-102362000D01*
X192532000Y-102362000D02*
X192968999Y-101925001D01*
X192968999Y-101925001D02*
X194195700Y-101925001D01*
%TO.N,2V8*%
X198122000Y-103503000D02*
X198122000Y-102362000D01*
X195655999Y-104864027D02*
X196760973Y-104864027D01*
%TO.N,TOF_SCL_2V8*%
X194856001Y-104864027D02*
X194856001Y-104736999D01*
X194856001Y-104736999D02*
X196215000Y-103378000D01*
X194195700Y-101274999D02*
X195397001Y-101274999D01*
X195397001Y-101274999D02*
X196215000Y-100457000D01*
X196215000Y-100457000D02*
X196215000Y-99822000D01*
X196215000Y-99822000D02*
X197102000Y-99822000D01*
%TO.N,TOF_SDA_2V8*%
X194195700Y-101925001D02*
X195508999Y-101925001D01*
X195508999Y-101925001D02*
X196342000Y-101092000D01*
X196342000Y-101092000D02*
X197102000Y-101092000D01*
%TO.N,Net-(U8-EN)*%
X194195700Y-102574999D02*
X196889001Y-102574999D01*
X196889001Y-102574999D02*
X197102000Y-102362000D01*
%TO.N,VIN_MEAS*%
X210312000Y-98044000D02*
X210312000Y-94742000D01*
X212471000Y-100203000D02*
X210312000Y-98044000D01*
X210312000Y-94742000D02*
X210058000Y-94488000D01*
X212710867Y-100442867D02*
X212471000Y-100203000D01*
X212710867Y-112157133D02*
X212710867Y-100442867D01*
X206248000Y-118620000D02*
X212710867Y-112157133D01*
%TO.N,/Power/PRE_OUT*%
X202692000Y-118620000D02*
X201424000Y-118620000D01*
X192659000Y-113919000D02*
X193040000Y-113919000D01*
X201424000Y-118620000D02*
X201422000Y-118618000D01*
X193040000Y-113919000D02*
X193101000Y-113858000D01*
X193101000Y-113858000D02*
X194564000Y-113858000D01*
%TO.N,Net-(U3-FB)*%
X183134000Y-113686000D02*
X183134000Y-114952000D01*
X184786500Y-114446000D02*
X183640000Y-114446000D01*
X183640000Y-114446000D02*
X183134000Y-114952000D01*
D50*
%TO.N,3V3*%
X181356000Y-113671000D02*
X181356000Y-112014000D01*
X181356000Y-112014000D02*
X181610000Y-111760000D01*
X183134000Y-112666000D02*
X182361000Y-112666000D01*
X182361000Y-112666000D02*
X181356000Y-113671000D01*
X184786500Y-113796000D02*
X184786500Y-113539500D01*
X184786500Y-113539500D02*
X183913000Y-112666000D01*
X183913000Y-112666000D02*
X183134000Y-112666000D01*
D48*
%TO.N,VIN_MEAS*%
X197484000Y-123190000D02*
X197484000Y-122044000D01*
X197484000Y-122044000D02*
X196725000Y-121285000D01*
X197484000Y-123190000D02*
X202946000Y-123190000D01*
X202946000Y-123190000D02*
X203934000Y-122202000D01*
X203934000Y-122202000D02*
X203934000Y-121666000D01*
X206248000Y-118620000D02*
X206248000Y-119352000D01*
X206248000Y-119352000D02*
X203934000Y-121666000D01*
%TO.N,+12V*%
X206248000Y-117600000D02*
X206248000Y-116840000D01*
X206248000Y-116840000D02*
X205552000Y-116144000D01*
X205552000Y-116144000D02*
X205552000Y-114300000D01*
%TO.N,Net-(U4-FB)*%
X203198000Y-117600000D02*
X203200000Y-117602000D01*
X203200000Y-117602000D02*
X203454000Y-117602000D01*
X203454000Y-117602000D02*
X203454000Y-118618000D01*
X203456000Y-118620000D02*
X204216000Y-118620000D01*
X203454000Y-118618000D02*
X203456000Y-118620000D01*
X202692000Y-117600000D02*
X203198000Y-117600000D01*
X203388000Y-114421500D02*
X203388000Y-115509000D01*
X203388000Y-115509000D02*
X202692000Y-116205000D01*
X202692000Y-116205000D02*
X202692000Y-117600000D01*
%TO.N,Net-(U4-BST)*%
X199390000Y-115837000D02*
X201028000Y-115837000D01*
X201488000Y-115377000D02*
X201488000Y-114421500D01*
X201028000Y-115837000D02*
X201488000Y-115377000D01*
D49*
%TO.N,+12V*%
X202438000Y-110490000D02*
X203454000Y-110490000D01*
X203388000Y-112146500D02*
X203388000Y-110556000D01*
X203454000Y-110490000D02*
X204343000Y-110490000D01*
X203388000Y-110556000D02*
X203454000Y-110490000D01*
X202438000Y-112146500D02*
X202438000Y-110490000D01*
X204343000Y-110490000D02*
X204470000Y-110617000D01*
X204470000Y-110617000D02*
X204487500Y-110617000D01*
X204487500Y-110617000D02*
X205564500Y-111694000D01*
X205564500Y-111694000D02*
X205564500Y-114287500D01*
D50*
X205564500Y-114287500D02*
X205552000Y-114300000D01*
D49*
%TO.N,VIN*%
X207439500Y-110744000D02*
X208830000Y-110744000D01*
X208830000Y-110744000D02*
X210910000Y-108664000D01*
D50*
%TO.N,Net-(J3-Pin_4)*%
X209042000Y-102489000D02*
X209217000Y-102664000D01*
X209217000Y-102664000D02*
X210910000Y-102664000D01*
X209042000Y-102489000D02*
X208788000Y-102489000D01*
X208788000Y-102489000D02*
X208739500Y-102537500D01*
X208739500Y-102537500D02*
X207960000Y-102537500D01*
%TO.N,Net-(J3-Pin_3)*%
X207264000Y-105920000D02*
X208024000Y-105920000D01*
X208024000Y-105920000D02*
X209280000Y-104664000D01*
X209280000Y-104664000D02*
X210910000Y-104664000D01*
X206060000Y-102537500D02*
X205987750Y-102609750D01*
X205987750Y-102609750D02*
X205987750Y-105276750D01*
X205987750Y-105276750D02*
X206631000Y-105920000D01*
X206631000Y-105920000D02*
X207264000Y-105920000D01*
X204129500Y-103449000D02*
X205148500Y-103449000D01*
X205148500Y-103449000D02*
X206060000Y-102537500D01*
%TO.N,3V3*%
X204129500Y-104099000D02*
X205064000Y-104099000D01*
X205064000Y-104099000D02*
X205359000Y-104394000D01*
X205232000Y-106962000D02*
X205232000Y-106045000D01*
%TO.N,VCC*%
X201254500Y-103449000D02*
X199573000Y-103449000D01*
X199517000Y-103505000D02*
X199517000Y-105029000D01*
X202946000Y-106299000D02*
X202946000Y-106962000D01*
X199573000Y-103449000D02*
X199517000Y-103505000D01*
X199517000Y-105029000D02*
X200406000Y-105029000D01*
X200406000Y-105029000D02*
X201041000Y-105664000D01*
X201041000Y-105664000D02*
X202311000Y-105664000D01*
X202311000Y-105664000D02*
X202946000Y-106299000D01*
X191390000Y-111252000D02*
X191390000Y-109221000D01*
X191390000Y-109221000D02*
X191389000Y-109220000D01*
X191389000Y-109220000D02*
X203835000Y-109220000D01*
X203835000Y-109220000D02*
X203835000Y-107315000D01*
X203835000Y-107315000D02*
X203482000Y-106962000D01*
X203482000Y-106962000D02*
X202946000Y-106962000D01*
D49*
%TO.N,2V8*%
X184277000Y-107950000D02*
X188974000Y-107950000D01*
X188974000Y-107950000D02*
X188974000Y-106680000D01*
X188974000Y-106680000D02*
X188974000Y-104902000D01*
D50*
X199202000Y-107696000D02*
X199202000Y-106873000D01*
X199202000Y-106873000D02*
X198910000Y-106581000D01*
X198910000Y-106581000D02*
X198910000Y-105918000D01*
D48*
%TO.N,TOF_INT*%
X192456001Y-104864027D02*
X190031973Y-104864027D01*
X190031973Y-104864027D02*
X189994000Y-104902000D01*
%TO.N,TOF_XSHUT*%
X192456001Y-106463973D02*
X191351027Y-106463973D01*
X191351027Y-106463973D02*
X191135000Y-106680000D01*
D50*
%TO.N,2V8*%
X183642000Y-118605000D02*
X181089000Y-118605000D01*
X181089000Y-118605000D02*
X180340000Y-117856000D01*
X185420000Y-117854000D02*
X184393000Y-117854000D01*
X184393000Y-117854000D02*
X183642000Y-118605000D01*
D48*
%TO.N,Net-(U5-FB)*%
X185420000Y-118874000D02*
X185420000Y-120140000D01*
X187326500Y-119380000D02*
X185926000Y-119380000D01*
X185926000Y-119380000D02*
X185420000Y-118874000D01*
D50*
%TO.N,2V8*%
X187326500Y-118730000D02*
X187056000Y-118730000D01*
X187056000Y-118730000D02*
X186180000Y-117854000D01*
X186180000Y-117854000D02*
X185420000Y-117854000D01*
%TO.N,VCC*%
X189101500Y-120030000D02*
X190231000Y-120030000D01*
X190231000Y-120030000D02*
X190246000Y-120015000D01*
X189101500Y-118730000D02*
X190246000Y-118730000D01*
X190246000Y-118730000D02*
X191137000Y-118730000D01*
X190246000Y-120015000D02*
X190246000Y-118730000D01*
X191137000Y-118730000D02*
X191262000Y-118605000D01*
X186561500Y-113796000D02*
X187702000Y-113796000D01*
X187706000Y-113792000D02*
X187706000Y-115189000D01*
X187702000Y-113796000D02*
X187706000Y-113792000D01*
X186561500Y-115096000D02*
X187613000Y-115096000D01*
X187960000Y-115189000D02*
X187992000Y-115221000D01*
X187613000Y-115096000D02*
X187706000Y-115189000D01*
X187706000Y-115189000D02*
X187960000Y-115189000D01*
X187992000Y-115221000D02*
X188722000Y-115221000D01*
D49*
X191262000Y-118605000D02*
X191262000Y-115189000D01*
X188722000Y-115221000D02*
X191230000Y-115221000D01*
X191230000Y-115221000D02*
X191262000Y-115189000D01*
X191262000Y-115189000D02*
X191262000Y-114808000D01*
X191262000Y-114808000D02*
X191390000Y-114680000D01*
X191390000Y-114680000D02*
X191390000Y-111252000D01*
X189611000Y-111252000D02*
X191390000Y-111252000D01*
X178816000Y-99694000D02*
X178816000Y-99949000D01*
X178816000Y-99949000D02*
X181991000Y-103124000D01*
X185801000Y-105664000D02*
X184017500Y-105664000D01*
D50*
%TO.N,Net-(D1-A)*%
X176530000Y-98285000D02*
X176530000Y-96761939D01*
X176530000Y-96761939D02*
X176859163Y-96432776D01*
X176859163Y-96432776D02*
X178777224Y-96432776D01*
X178777224Y-96432776D02*
X178816000Y-96394000D01*
X178443000Y-104364000D02*
X179481000Y-104364000D01*
X179481000Y-104364000D02*
X180340000Y-103505000D01*
D48*
%TO.N,Net-(J1-ID)*%
X178443000Y-106314000D02*
X179466000Y-106314000D01*
X180340000Y-108458000D02*
X180467000Y-108585000D01*
X179466000Y-106314000D02*
X180340000Y-107188000D01*
X180340000Y-107188000D02*
X180340000Y-108458000D01*
X180467000Y-108585000D02*
X180719000Y-108585000D01*
X180719000Y-108585000D02*
X181100000Y-108966000D01*
%TO.N,Net-(R4-Pad1)*%
X184017500Y-106614000D02*
X186502000Y-106614000D01*
X186502000Y-106614000D02*
X186690000Y-106426000D01*
X186690000Y-106426000D02*
X186690000Y-102618000D01*
%TO.N,Net-(R5-Pad1)*%
X185420000Y-102618000D02*
X185420000Y-104394000D01*
X185420000Y-104394000D02*
X185100000Y-104714000D01*
X185100000Y-104714000D02*
X184017500Y-104714000D01*
%TD*%
%TA.AperFunction,Conductor*%
%TO.N,GND*%
G36*
X182957667Y-107132006D02*
G01*
X182981855Y-107159921D01*
X182982139Y-107159702D01*
X182986179Y-107164911D01*
X182986732Y-107165548D01*
X182986919Y-107165865D01*
X182986921Y-107165867D01*
X182986923Y-107165870D01*
X183103129Y-107282076D01*
X183103133Y-107282079D01*
X183103135Y-107282081D01*
X183244602Y-107365744D01*
X183285248Y-107377553D01*
X183402426Y-107411597D01*
X183402429Y-107411597D01*
X183402431Y-107411598D01*
X183439306Y-107414500D01*
X183443707Y-107414500D01*
X183510746Y-107434185D01*
X183556501Y-107486989D01*
X183566445Y-107556147D01*
X183552735Y-107593484D01*
X183554231Y-107594205D01*
X183551213Y-107600470D01*
X183491631Y-107770745D01*
X183491630Y-107770750D01*
X183471435Y-107949996D01*
X183471435Y-107950003D01*
X183491630Y-108129249D01*
X183491631Y-108129254D01*
X183551211Y-108299523D01*
X183568593Y-108327186D01*
X183647184Y-108452262D01*
X183774738Y-108579816D01*
X183846976Y-108625206D01*
X183927334Y-108675699D01*
X183927478Y-108675789D01*
X184065786Y-108724185D01*
X184097745Y-108735368D01*
X184097750Y-108735369D01*
X184276996Y-108755565D01*
X184277000Y-108755565D01*
X184277004Y-108755565D01*
X184456249Y-108735369D01*
X184456251Y-108735368D01*
X184456255Y-108735368D01*
X184456258Y-108735366D01*
X184456262Y-108735366D01*
X184524585Y-108711459D01*
X184565540Y-108704500D01*
X188610113Y-108704500D01*
X188677152Y-108724185D01*
X188697794Y-108740819D01*
X188883600Y-108926625D01*
X188883610Y-108926636D01*
X188993031Y-109036057D01*
X189034866Y-109064010D01*
X189116606Y-109118627D01*
X189116607Y-109118627D01*
X189116611Y-109118630D01*
X189189932Y-109149000D01*
X189253920Y-109175505D01*
X189253923Y-109175505D01*
X189253928Y-109175507D01*
X189278103Y-109180315D01*
X189278110Y-109180316D01*
X189399686Y-109204501D01*
X189399688Y-109204501D01*
X189554426Y-109204501D01*
X189554446Y-109204500D01*
X190638500Y-109204500D01*
X190705539Y-109224185D01*
X190751294Y-109276989D01*
X190762500Y-109328500D01*
X190762500Y-110204034D01*
X190742815Y-110271073D01*
X190715407Y-110301303D01*
X190711958Y-110304029D01*
X190592030Y-110423958D01*
X190583002Y-110438596D01*
X190531054Y-110485321D01*
X190477463Y-110497500D01*
X189899540Y-110497500D01*
X189858585Y-110490541D01*
X189790262Y-110466633D01*
X189790249Y-110466630D01*
X189611004Y-110446435D01*
X189610996Y-110446435D01*
X189431750Y-110466630D01*
X189431745Y-110466631D01*
X189261476Y-110526211D01*
X189108737Y-110622184D01*
X188981184Y-110749737D01*
X188885211Y-110902476D01*
X188825631Y-111072745D01*
X188825630Y-111072750D01*
X188805435Y-111251996D01*
X188805435Y-111252003D01*
X188825630Y-111431249D01*
X188825631Y-111431254D01*
X188885211Y-111601523D01*
X188965010Y-111728522D01*
X188981184Y-111754262D01*
X189108738Y-111881816D01*
X189135028Y-111898335D01*
X189220748Y-111952197D01*
X189261478Y-111977789D01*
X189399786Y-112026185D01*
X189431745Y-112037368D01*
X189431750Y-112037369D01*
X189610996Y-112057565D01*
X189611000Y-112057565D01*
X189611004Y-112057565D01*
X189790249Y-112037369D01*
X189790251Y-112037368D01*
X189790255Y-112037368D01*
X189790258Y-112037366D01*
X189790262Y-112037366D01*
X189858585Y-112013459D01*
X189899540Y-112006500D01*
X190477463Y-112006500D01*
X190544502Y-112026185D01*
X190583002Y-112065404D01*
X190592031Y-112080043D01*
X190599181Y-112087193D01*
X190632666Y-112148516D01*
X190635500Y-112174874D01*
X190635500Y-114342500D01*
X190615815Y-114409539D01*
X190563011Y-114455294D01*
X190511500Y-114466500D01*
X189694108Y-114466500D01*
X189627069Y-114446815D01*
X189581314Y-114394011D01*
X189571370Y-114324853D01*
X189588570Y-114277403D01*
X189633542Y-114204492D01*
X189633547Y-114204481D01*
X189686855Y-114043606D01*
X189696999Y-113944322D01*
X189697000Y-113944309D01*
X189697000Y-113921000D01*
X188596000Y-113921000D01*
X188528961Y-113901315D01*
X188483206Y-113848511D01*
X188472000Y-113797000D01*
X188472000Y-113421000D01*
X188972000Y-113421000D01*
X189696999Y-113421000D01*
X189696999Y-113397692D01*
X189696998Y-113397677D01*
X189686855Y-113298392D01*
X189633547Y-113137518D01*
X189633542Y-113137507D01*
X189544575Y-112993271D01*
X189544572Y-112993267D01*
X189424732Y-112873427D01*
X189424728Y-112873424D01*
X189280492Y-112784457D01*
X189280481Y-112784452D01*
X189119606Y-112731144D01*
X189020322Y-112721000D01*
X188972000Y-112721000D01*
X188972000Y-113421000D01*
X188472000Y-113421000D01*
X188472000Y-112721000D01*
X188471999Y-112720999D01*
X188423693Y-112721000D01*
X188423675Y-112721001D01*
X188324392Y-112731144D01*
X188163518Y-112784452D01*
X188163507Y-112784457D01*
X188019271Y-112873424D01*
X188019267Y-112873427D01*
X187899426Y-112993268D01*
X187830140Y-113105598D01*
X187778192Y-113152322D01*
X187724602Y-113164500D01*
X187644197Y-113164500D01*
X187636062Y-113166118D01*
X187611873Y-113168500D01*
X186974358Y-113168500D01*
X186926906Y-113159061D01*
X186810383Y-113110796D01*
X186810378Y-113110794D01*
X186694211Y-113095501D01*
X186694208Y-113095500D01*
X186694202Y-113095500D01*
X186428798Y-113095500D01*
X186428792Y-113095500D01*
X186428788Y-113095501D01*
X186312621Y-113110794D01*
X186312616Y-113110796D01*
X186168063Y-113170671D01*
X186043926Y-113265926D01*
X185948671Y-113390063D01*
X185888796Y-113534616D01*
X185888794Y-113534621D01*
X185873501Y-113650788D01*
X185873500Y-113650804D01*
X185873500Y-113941195D01*
X185873501Y-113941211D01*
X185888794Y-114057378D01*
X185888795Y-114057379D01*
X185895493Y-114073551D01*
X185902959Y-114143021D01*
X185895493Y-114168449D01*
X185888795Y-114184620D01*
X185888794Y-114184621D01*
X185873501Y-114300788D01*
X185873500Y-114300804D01*
X185873500Y-114591195D01*
X185873501Y-114591211D01*
X185888794Y-114707378D01*
X185888795Y-114707379D01*
X185895493Y-114723551D01*
X185902959Y-114793021D01*
X185895493Y-114818449D01*
X185888795Y-114834620D01*
X185888794Y-114834621D01*
X185873501Y-114950788D01*
X185873500Y-114950804D01*
X185873500Y-115241195D01*
X185873501Y-115241211D01*
X185888794Y-115357378D01*
X185888796Y-115357383D01*
X185948671Y-115501936D01*
X185948672Y-115501938D01*
X185948673Y-115501939D01*
X186043926Y-115626074D01*
X186168061Y-115721327D01*
X186168062Y-115721327D01*
X186168063Y-115721328D01*
X186173307Y-115723500D01*
X186312620Y-115781205D01*
X186428798Y-115796500D01*
X186428805Y-115796500D01*
X186694195Y-115796500D01*
X186694202Y-115796500D01*
X186810380Y-115781205D01*
X186902169Y-115743185D01*
X186926906Y-115732939D01*
X186974358Y-115723500D01*
X187338850Y-115723500D01*
X187403275Y-115742417D01*
X187403387Y-115742208D01*
X187404393Y-115742745D01*
X187405889Y-115743185D01*
X187407742Y-115744399D01*
X187408762Y-115745080D01*
X187408763Y-115745081D01*
X187408765Y-115745082D01*
X187408767Y-115745083D01*
X187426239Y-115752320D01*
X187456071Y-115764677D01*
X187494790Y-115780715D01*
X187522966Y-115792386D01*
X187644192Y-115816499D01*
X187644196Y-115816500D01*
X187644197Y-115816500D01*
X187765263Y-115816500D01*
X187802730Y-115823953D01*
X187803136Y-115822617D01*
X187808961Y-115824384D01*
X187808966Y-115824386D01*
X187808970Y-115824386D01*
X187814796Y-115826154D01*
X187814220Y-115828049D01*
X187868052Y-115856201D01*
X187887498Y-115880345D01*
X187899031Y-115899043D01*
X188018955Y-116018967D01*
X188018959Y-116018970D01*
X188163294Y-116107998D01*
X188163297Y-116107999D01*
X188163303Y-116108003D01*
X188324292Y-116161349D01*
X188423655Y-116171500D01*
X189020344Y-116171499D01*
X189020352Y-116171498D01*
X189020355Y-116171498D01*
X189074760Y-116165940D01*
X189119708Y-116161349D01*
X189280697Y-116108003D01*
X189425044Y-116018968D01*
X189432193Y-116011819D01*
X189493516Y-115978334D01*
X189519874Y-115975500D01*
X190383500Y-115975500D01*
X190450539Y-115995185D01*
X190496294Y-116047989D01*
X190507500Y-116099500D01*
X190507500Y-117807126D01*
X190487815Y-117874165D01*
X190471181Y-117894807D01*
X190439032Y-117926955D01*
X190439031Y-117926956D01*
X190367085Y-118043598D01*
X190315137Y-118090322D01*
X190261547Y-118102500D01*
X189514358Y-118102500D01*
X189466906Y-118093061D01*
X189350383Y-118044796D01*
X189350378Y-118044794D01*
X189234211Y-118029501D01*
X189234208Y-118029500D01*
X189234202Y-118029500D01*
X188968798Y-118029500D01*
X188968792Y-118029500D01*
X188968788Y-118029501D01*
X188852621Y-118044794D01*
X188852616Y-118044796D01*
X188708063Y-118104671D01*
X188583926Y-118199926D01*
X188488671Y-118324063D01*
X188428796Y-118468616D01*
X188428794Y-118468621D01*
X188413501Y-118584788D01*
X188413500Y-118584804D01*
X188413500Y-118875195D01*
X188413501Y-118875211D01*
X188428794Y-118991378D01*
X188428795Y-118991379D01*
X188435493Y-119007551D01*
X188442959Y-119077021D01*
X188435493Y-119102449D01*
X188428795Y-119118620D01*
X188428794Y-119118621D01*
X188413501Y-119234788D01*
X188413500Y-119234804D01*
X188413500Y-119525195D01*
X188413501Y-119525211D01*
X188428794Y-119641378D01*
X188428795Y-119641379D01*
X188435493Y-119657551D01*
X188442959Y-119727021D01*
X188435493Y-119752449D01*
X188428795Y-119768620D01*
X188428794Y-119768621D01*
X188413501Y-119884788D01*
X188413500Y-119884804D01*
X188413500Y-120175195D01*
X188413501Y-120175211D01*
X188428794Y-120291378D01*
X188428796Y-120291383D01*
X188488671Y-120435936D01*
X188488672Y-120435938D01*
X188488673Y-120435939D01*
X188583926Y-120560074D01*
X188708061Y-120655327D01*
X188852620Y-120715205D01*
X188968798Y-120730500D01*
X188968805Y-120730500D01*
X189234195Y-120730500D01*
X189234202Y-120730500D01*
X189350380Y-120715205D01*
X189442169Y-120677185D01*
X189466906Y-120666939D01*
X189514358Y-120657500D01*
X190262135Y-120657500D01*
X190329174Y-120677185D01*
X190367673Y-120716402D01*
X190439426Y-120832731D01*
X190559267Y-120952572D01*
X190559271Y-120952575D01*
X190703507Y-121041542D01*
X190703518Y-121041547D01*
X190864393Y-121094855D01*
X190963683Y-121104999D01*
X191512000Y-121104999D01*
X191560308Y-121104999D01*
X191560322Y-121104998D01*
X191659607Y-121094855D01*
X191820481Y-121041547D01*
X191820492Y-121041542D01*
X191831098Y-121035000D01*
X194935069Y-121035000D01*
X195455000Y-121035000D01*
X195455000Y-120472154D01*
X195454998Y-120472153D01*
X195315811Y-120512591D01*
X195315808Y-120512593D01*
X195177714Y-120594261D01*
X195177705Y-120594268D01*
X195064268Y-120707705D01*
X195064261Y-120707714D01*
X194982593Y-120845808D01*
X194982592Y-120845811D01*
X194937833Y-120999871D01*
X194937832Y-120999877D01*
X194935069Y-121035000D01*
X191831098Y-121035000D01*
X191964728Y-120952575D01*
X191964732Y-120952572D01*
X192084572Y-120832732D01*
X192084575Y-120832728D01*
X192173542Y-120688492D01*
X192173547Y-120688481D01*
X192226855Y-120527606D01*
X192236999Y-120428322D01*
X192237000Y-120428309D01*
X192237000Y-120405000D01*
X191512000Y-120405000D01*
X191512000Y-121104999D01*
X190963683Y-121104999D01*
X191011999Y-121104998D01*
X191012000Y-121104998D01*
X191012000Y-120029000D01*
X191031685Y-119961961D01*
X191084489Y-119916206D01*
X191136000Y-119905000D01*
X192236999Y-119905000D01*
X192236999Y-119881692D01*
X192236998Y-119881677D01*
X192226855Y-119782392D01*
X192173547Y-119621518D01*
X192173542Y-119621507D01*
X192114214Y-119525322D01*
X196004001Y-119525322D01*
X196014144Y-119624607D01*
X196067452Y-119785481D01*
X196067457Y-119785492D01*
X196156424Y-119929728D01*
X196156427Y-119929732D01*
X196276267Y-120049572D01*
X196276271Y-120049575D01*
X196420507Y-120138542D01*
X196420518Y-120138547D01*
X196581393Y-120191855D01*
X196680683Y-120201999D01*
X196853999Y-120201999D01*
X197354000Y-120201999D01*
X197527308Y-120201999D01*
X197527322Y-120201998D01*
X197626607Y-120191855D01*
X197787481Y-120138547D01*
X197787492Y-120138542D01*
X197931728Y-120049575D01*
X197931732Y-120049572D01*
X198051572Y-119929732D01*
X198051575Y-119929728D01*
X198140542Y-119785492D01*
X198140547Y-119785481D01*
X198193855Y-119624606D01*
X198203999Y-119525322D01*
X198204000Y-119525309D01*
X198204000Y-119502000D01*
X197354000Y-119502000D01*
X197354000Y-120201999D01*
X196853999Y-120201999D01*
X196854000Y-120201998D01*
X196854000Y-119502000D01*
X196004001Y-119502000D01*
X196004001Y-119525322D01*
X192114214Y-119525322D01*
X192084575Y-119477271D01*
X192084572Y-119477267D01*
X192075339Y-119468034D01*
X192041854Y-119406711D01*
X192046838Y-119337019D01*
X192075343Y-119292668D01*
X192084968Y-119283044D01*
X192174003Y-119138697D01*
X192227028Y-118978677D01*
X196004000Y-118978677D01*
X196004000Y-119002000D01*
X196854000Y-119002000D01*
X197354000Y-119002000D01*
X198203999Y-119002000D01*
X198203999Y-118978692D01*
X198203998Y-118978677D01*
X198193855Y-118879392D01*
X198140547Y-118718518D01*
X198140542Y-118718507D01*
X198051575Y-118574271D01*
X198051572Y-118574267D01*
X197931732Y-118454427D01*
X197931728Y-118454424D01*
X197787492Y-118365457D01*
X197787481Y-118365452D01*
X197626606Y-118312144D01*
X197527322Y-118302000D01*
X197354000Y-118302000D01*
X197354000Y-119002000D01*
X196854000Y-119002000D01*
X196854000Y-118302000D01*
X196680693Y-118302000D01*
X196680676Y-118302001D01*
X196581392Y-118312144D01*
X196420518Y-118365452D01*
X196420507Y-118365457D01*
X196276271Y-118454424D01*
X196276267Y-118454427D01*
X196156427Y-118574267D01*
X196156424Y-118574271D01*
X196067457Y-118718507D01*
X196067452Y-118718518D01*
X196014144Y-118879393D01*
X196004000Y-118978677D01*
X192227028Y-118978677D01*
X192227349Y-118977708D01*
X192237500Y-118878345D01*
X192237499Y-118331656D01*
X192236723Y-118324063D01*
X192227349Y-118232292D01*
X192227348Y-118232289D01*
X192188727Y-118115738D01*
X192174003Y-118071303D01*
X192173999Y-118071297D01*
X192173998Y-118071294D01*
X192084970Y-117926959D01*
X192084967Y-117926955D01*
X192052819Y-117894807D01*
X192019334Y-117833484D01*
X192016500Y-117807126D01*
X192016500Y-115856322D01*
X193589001Y-115856322D01*
X193599144Y-115955607D01*
X193652452Y-116116481D01*
X193652457Y-116116492D01*
X193741424Y-116260728D01*
X193741427Y-116260732D01*
X193861267Y-116380572D01*
X193861271Y-116380575D01*
X194005507Y-116469542D01*
X194005518Y-116469547D01*
X194166393Y-116522855D01*
X194265683Y-116532999D01*
X194814000Y-116532999D01*
X194862308Y-116532999D01*
X194862322Y-116532998D01*
X194961607Y-116522855D01*
X195122481Y-116469547D01*
X195122492Y-116469542D01*
X195266728Y-116380575D01*
X195266732Y-116380572D01*
X195386572Y-116260732D01*
X195386575Y-116260728D01*
X195475542Y-116116492D01*
X195475547Y-116116481D01*
X195528855Y-115955606D01*
X195538999Y-115856322D01*
X195539000Y-115856309D01*
X195539000Y-115833000D01*
X194814000Y-115833000D01*
X194814000Y-116532999D01*
X194265683Y-116532999D01*
X194313999Y-116532998D01*
X194314000Y-116532998D01*
X194314000Y-115833000D01*
X193589001Y-115833000D01*
X193589001Y-115856322D01*
X192016500Y-115856322D01*
X192016500Y-115269446D01*
X192016501Y-115269425D01*
X192016501Y-115138053D01*
X192036186Y-115071014D01*
X192037400Y-115069161D01*
X192058629Y-115037390D01*
X192069974Y-115010000D01*
X192115505Y-114900080D01*
X192144500Y-114754312D01*
X192144500Y-114754299D01*
X192144960Y-114749633D01*
X192171114Y-114684843D01*
X192228145Y-114644479D01*
X192297945Y-114641355D01*
X192309319Y-114644734D01*
X192479737Y-114704366D01*
X192479743Y-114704367D01*
X192479745Y-114704368D01*
X192479746Y-114704368D01*
X192479750Y-114704369D01*
X192658996Y-114724565D01*
X192659000Y-114724565D01*
X192708696Y-114718965D01*
X192777517Y-114731019D01*
X192828897Y-114778367D01*
X192840234Y-114803024D01*
X192845385Y-114818501D01*
X192845386Y-114818503D01*
X192923171Y-114939537D01*
X192923179Y-114939548D01*
X192968923Y-114992340D01*
X192968926Y-114992343D01*
X192968930Y-114992347D01*
X193077664Y-115086567D01*
X193077667Y-115086568D01*
X193077668Y-115086569D01*
X193190399Y-115138053D01*
X193208541Y-115146338D01*
X193275580Y-115166023D01*
X193275584Y-115166024D01*
X193418000Y-115186500D01*
X193418003Y-115186500D01*
X193465000Y-115186500D01*
X193532039Y-115206185D01*
X193577794Y-115258989D01*
X193589000Y-115310500D01*
X193589000Y-115333000D01*
X195554285Y-115333000D01*
X195581930Y-115317904D01*
X195651621Y-115322886D01*
X195707556Y-115364756D01*
X195728439Y-115408402D01*
X195740369Y-115455143D01*
X195740371Y-115455148D01*
X195786501Y-115572393D01*
X195872726Y-115687575D01*
X195872730Y-115687579D01*
X195872735Y-115687585D01*
X195922120Y-115736970D01*
X195922126Y-115736975D01*
X195922131Y-115736980D01*
X195953809Y-115760694D01*
X195995681Y-115816625D01*
X196003500Y-115859961D01*
X196003500Y-116041181D01*
X195983815Y-116108220D01*
X195959112Y-116134771D01*
X195959803Y-116135568D01*
X195903659Y-116184216D01*
X195809433Y-116292957D01*
X195809430Y-116292961D01*
X195749664Y-116423827D01*
X195729976Y-116490875D01*
X195729570Y-116493699D01*
X195709500Y-116633293D01*
X195709500Y-116970000D01*
X195709501Y-116970009D01*
X195721052Y-117077450D01*
X195721054Y-117077462D01*
X195732260Y-117128972D01*
X195766383Y-117231497D01*
X195766386Y-117231503D01*
X195844171Y-117352537D01*
X195844179Y-117352548D01*
X195889923Y-117405340D01*
X195889926Y-117405343D01*
X195889930Y-117405347D01*
X195998664Y-117499567D01*
X195998667Y-117499568D01*
X195998668Y-117499569D01*
X196092925Y-117542616D01*
X196129541Y-117559338D01*
X196196580Y-117579023D01*
X196196584Y-117579024D01*
X196339000Y-117599500D01*
X196339003Y-117599500D01*
X198376990Y-117599500D01*
X198377000Y-117599500D01*
X198484456Y-117587947D01*
X198535967Y-117576741D01*
X198570197Y-117565347D01*
X198638497Y-117542616D01*
X198638501Y-117542613D01*
X198638504Y-117542613D01*
X198759543Y-117464825D01*
X198812347Y-117419070D01*
X198906567Y-117310336D01*
X198966338Y-117179459D01*
X198986023Y-117112420D01*
X198986024Y-117112416D01*
X199006500Y-116970000D01*
X199006500Y-116911499D01*
X199026185Y-116844460D01*
X199078989Y-116798705D01*
X199130495Y-116787499D01*
X199688344Y-116787499D01*
X199688352Y-116787498D01*
X199688355Y-116787498D01*
X199773503Y-116778800D01*
X199787708Y-116777349D01*
X199948697Y-116724003D01*
X200093044Y-116634968D01*
X200212968Y-116515044D01*
X200246980Y-116459903D01*
X200298928Y-116413178D01*
X200352518Y-116401000D01*
X201102251Y-116401000D01*
X201102253Y-116401000D01*
X201245696Y-116362565D01*
X201247201Y-116361696D01*
X201374304Y-116288313D01*
X201479313Y-116183304D01*
X201479313Y-116183302D01*
X201489517Y-116173099D01*
X201489521Y-116173094D01*
X201824094Y-115838521D01*
X201824099Y-115838517D01*
X201834302Y-115828313D01*
X201834304Y-115828313D01*
X201939313Y-115723304D01*
X201996372Y-115624474D01*
X202046938Y-115576261D01*
X202115545Y-115563037D01*
X202138354Y-115567400D01*
X202185507Y-115581099D01*
X202185510Y-115581100D01*
X202224785Y-115584191D01*
X202224705Y-115585202D01*
X202287192Y-115606207D01*
X202330870Y-115660741D01*
X202338132Y-115730233D01*
X202306670Y-115792618D01*
X202303850Y-115795533D01*
X202240686Y-115858697D01*
X202240685Y-115858699D01*
X202166435Y-115987303D01*
X202166435Y-115987304D01*
X202157952Y-116018968D01*
X202157000Y-116022520D01*
X202156999Y-116022522D01*
X202128000Y-116130748D01*
X202128000Y-116893904D01*
X202108315Y-116960943D01*
X202091681Y-116981585D01*
X202000869Y-117072396D01*
X202000863Y-117072404D01*
X201919131Y-117210606D01*
X201919129Y-117210611D01*
X201874335Y-117364791D01*
X201874334Y-117364797D01*
X201871500Y-117400811D01*
X201871500Y-117752432D01*
X201851815Y-117819471D01*
X201799011Y-117865226D01*
X201729853Y-117875170D01*
X201706546Y-117869474D01*
X201601257Y-117832632D01*
X201601249Y-117832630D01*
X201422004Y-117812435D01*
X201421996Y-117812435D01*
X201242750Y-117832630D01*
X201242745Y-117832631D01*
X201072476Y-117892211D01*
X200919737Y-117988184D01*
X200792184Y-118115737D01*
X200696211Y-118268476D01*
X200636631Y-118438745D01*
X200636630Y-118438750D01*
X200616435Y-118617996D01*
X200616435Y-118618003D01*
X200636630Y-118797249D01*
X200636631Y-118797254D01*
X200696211Y-118967523D01*
X200748252Y-119050345D01*
X200792184Y-119120262D01*
X200919738Y-119247816D01*
X200975803Y-119283044D01*
X201071013Y-119342869D01*
X201072478Y-119343789D01*
X201237687Y-119401598D01*
X201242745Y-119403368D01*
X201242750Y-119403369D01*
X201421996Y-119423565D01*
X201422000Y-119423565D01*
X201422004Y-119423565D01*
X201601249Y-119403369D01*
X201601252Y-119403368D01*
X201601255Y-119403368D01*
X201771522Y-119343789D01*
X201924262Y-119247816D01*
X201924985Y-119247092D01*
X201925567Y-119246774D01*
X201929705Y-119243475D01*
X201930282Y-119244199D01*
X201986303Y-119213603D01*
X202055995Y-119218581D01*
X202100355Y-119247088D01*
X202114397Y-119261131D01*
X202114400Y-119261133D01*
X202114402Y-119261135D01*
X202252607Y-119342869D01*
X202255774Y-119343789D01*
X202406791Y-119387664D01*
X202406794Y-119387664D01*
X202406796Y-119387665D01*
X202442819Y-119390500D01*
X202941180Y-119390499D01*
X202977204Y-119387665D01*
X203131393Y-119342869D01*
X203269598Y-119261135D01*
X203310414Y-119220319D01*
X203371737Y-119186834D01*
X203398095Y-119184000D01*
X203509905Y-119184000D01*
X203576944Y-119203685D01*
X203597587Y-119220320D01*
X203638396Y-119261130D01*
X203638400Y-119261133D01*
X203638402Y-119261135D01*
X203776607Y-119342869D01*
X203779774Y-119343789D01*
X203930791Y-119387664D01*
X203930794Y-119387664D01*
X203930796Y-119387665D01*
X203966819Y-119390500D01*
X204465180Y-119390499D01*
X204501204Y-119387665D01*
X204655393Y-119342869D01*
X204793598Y-119261135D01*
X204907135Y-119147598D01*
X204988869Y-119009393D01*
X205021851Y-118895865D01*
X205033664Y-118855208D01*
X205033664Y-118855206D01*
X205033665Y-118855204D01*
X205036500Y-118819181D01*
X205036499Y-118420820D01*
X205033665Y-118384796D01*
X204988869Y-118230607D01*
X204954581Y-118172629D01*
X204937398Y-118104905D01*
X204954582Y-118046386D01*
X204988404Y-117989196D01*
X204988405Y-117989194D01*
X205028844Y-117850000D01*
X204476409Y-117850000D01*
X204466680Y-117849618D01*
X204465186Y-117849500D01*
X204465181Y-117849500D01*
X204142000Y-117849500D01*
X204074961Y-117829815D01*
X204029206Y-117777011D01*
X204018000Y-117725500D01*
X204018000Y-117527750D01*
X204018000Y-117527748D01*
X203979565Y-117384304D01*
X203979564Y-117384302D01*
X203976457Y-117376802D01*
X203978913Y-117375784D01*
X203972005Y-117350000D01*
X204466000Y-117350000D01*
X205028844Y-117350000D01*
X204988404Y-117210805D01*
X204906738Y-117072714D01*
X204906731Y-117072705D01*
X204793294Y-116959268D01*
X204793285Y-116959261D01*
X204655191Y-116877593D01*
X204655188Y-116877592D01*
X204501130Y-116832834D01*
X204466000Y-116830068D01*
X204466000Y-117350000D01*
X203972005Y-117350000D01*
X203966000Y-117327584D01*
X203966000Y-116830068D01*
X203965999Y-116830068D01*
X203930869Y-116832834D01*
X203930868Y-116832834D01*
X203776811Y-116877592D01*
X203776808Y-116877593D01*
X203638716Y-116959260D01*
X203638706Y-116959268D01*
X203596292Y-117001682D01*
X203534969Y-117035166D01*
X203508612Y-117038000D01*
X203400095Y-117038000D01*
X203333056Y-117018315D01*
X203312414Y-117001681D01*
X203292319Y-116981586D01*
X203258834Y-116920263D01*
X203256000Y-116893905D01*
X203256000Y-116489978D01*
X203275685Y-116422939D01*
X203292319Y-116402297D01*
X203533761Y-116160855D01*
X203839313Y-115855304D01*
X203913565Y-115726696D01*
X203952001Y-115583252D01*
X203952001Y-115491307D01*
X203971686Y-115424268D01*
X203988315Y-115403630D01*
X204056081Y-115335865D01*
X204139744Y-115194398D01*
X204183588Y-115043489D01*
X204185597Y-115036573D01*
X204185598Y-115036567D01*
X204188236Y-115003044D01*
X204188500Y-114999694D01*
X204188500Y-113843306D01*
X204185598Y-113806431D01*
X204183072Y-113797738D01*
X204139745Y-113648606D01*
X204139744Y-113648603D01*
X204139744Y-113648602D01*
X204056081Y-113507135D01*
X204056079Y-113507133D01*
X204056076Y-113507129D01*
X203939870Y-113390923D01*
X203939867Y-113390921D01*
X203939865Y-113390919D01*
X203939549Y-113390732D01*
X203939353Y-113390522D01*
X203933702Y-113386139D01*
X203934409Y-113385227D01*
X203891866Y-113339664D01*
X203879362Y-113270923D01*
X203906006Y-113206333D01*
X203933921Y-113182144D01*
X203933702Y-113181861D01*
X203938911Y-113177820D01*
X203939550Y-113177267D01*
X203939865Y-113177081D01*
X204056081Y-113060865D01*
X204139744Y-112919398D01*
X204173505Y-112803191D01*
X204185597Y-112761573D01*
X204185598Y-112761567D01*
X204188500Y-112724694D01*
X204188500Y-112241878D01*
X204208185Y-112174839D01*
X204260989Y-112129084D01*
X204330147Y-112119140D01*
X204393703Y-112148165D01*
X204419230Y-112178754D01*
X204445533Y-112223230D01*
X204458918Y-112245864D01*
X204458923Y-112245870D01*
X204575129Y-112362076D01*
X204575133Y-112362079D01*
X204575135Y-112362081D01*
X204716602Y-112445744D01*
X204720593Y-112446903D01*
X204723349Y-112448663D01*
X204723764Y-112448843D01*
X204723735Y-112448909D01*
X204779478Y-112484507D01*
X204808686Y-112547978D01*
X204810000Y-112565980D01*
X204810000Y-113811818D01*
X204803706Y-113850822D01*
X204786651Y-113902290D01*
X204776500Y-114001647D01*
X204776500Y-114598337D01*
X204776501Y-114598355D01*
X204786650Y-114697707D01*
X204786651Y-114697710D01*
X204839996Y-114858694D01*
X204840001Y-114858705D01*
X204929029Y-115003040D01*
X204929032Y-115003044D01*
X204951681Y-115025693D01*
X204985166Y-115087016D01*
X204988000Y-115113374D01*
X204988000Y-116218254D01*
X205003472Y-116275999D01*
X205003473Y-116275999D01*
X205003473Y-116276000D01*
X205026435Y-116361696D01*
X205100687Y-116490304D01*
X205100689Y-116490306D01*
X205212761Y-116602378D01*
X205212767Y-116602383D01*
X205535647Y-116925263D01*
X205569132Y-116986586D01*
X205564148Y-117056278D01*
X205554698Y-117076064D01*
X205475133Y-117210602D01*
X205475129Y-117210611D01*
X205430335Y-117364791D01*
X205430334Y-117364797D01*
X205427500Y-117400811D01*
X205427500Y-117799169D01*
X205427501Y-117799191D01*
X205430335Y-117835205D01*
X205475129Y-117989388D01*
X205475132Y-117989395D01*
X205509128Y-118046881D01*
X205526309Y-118114605D01*
X205509128Y-118173119D01*
X205475132Y-118230604D01*
X205475129Y-118230611D01*
X205430335Y-118384791D01*
X205430334Y-118384797D01*
X205427500Y-118420811D01*
X205427500Y-118819169D01*
X205427501Y-118819191D01*
X205430335Y-118855205D01*
X205475129Y-119009388D01*
X205475131Y-119009394D01*
X205544292Y-119126339D01*
X205561475Y-119194063D01*
X205539315Y-119260326D01*
X205525241Y-119277141D01*
X203983203Y-120819181D01*
X203921880Y-120852666D01*
X203895522Y-120855500D01*
X203729302Y-120855500D01*
X203693008Y-120858356D01*
X203693002Y-120858357D01*
X203537609Y-120903504D01*
X203537604Y-120903506D01*
X203516628Y-120915911D01*
X203448903Y-120933092D01*
X203390389Y-120915911D01*
X203370191Y-120903966D01*
X203370190Y-120903965D01*
X203224001Y-120861493D01*
X203224000Y-120861494D01*
X203224000Y-121167645D01*
X203206734Y-121230763D01*
X203201507Y-121239600D01*
X203201504Y-121239608D01*
X203156357Y-121395002D01*
X203156356Y-121395008D01*
X203153500Y-121431302D01*
X203153500Y-121792000D01*
X203133815Y-121859039D01*
X203081011Y-121904794D01*
X203029500Y-121916000D01*
X202195210Y-121916000D01*
X202196854Y-121936910D01*
X202241968Y-122092195D01*
X202324278Y-122231374D01*
X202324285Y-122231383D01*
X202438616Y-122345714D01*
X202438625Y-122345721D01*
X202522404Y-122395268D01*
X202570088Y-122446337D01*
X202582591Y-122515079D01*
X202555945Y-122579668D01*
X202498610Y-122619598D01*
X202459283Y-122626000D01*
X198500207Y-122626000D01*
X198433168Y-122606315D01*
X198387413Y-122553511D01*
X198382501Y-122541003D01*
X198371074Y-122506518D01*
X198371003Y-122506303D01*
X198370999Y-122506297D01*
X198370998Y-122506294D01*
X198281970Y-122361959D01*
X198281967Y-122361955D01*
X198162043Y-122242031D01*
X198106902Y-122208019D01*
X198060178Y-122156070D01*
X198048000Y-122102481D01*
X198048000Y-121969749D01*
X198048000Y-121969748D01*
X198039223Y-121936993D01*
X198009565Y-121826304D01*
X197935313Y-121697696D01*
X197830304Y-121592687D01*
X197830303Y-121592686D01*
X197825973Y-121588356D01*
X197825962Y-121588346D01*
X197653615Y-121415999D01*
X202195209Y-121415999D01*
X202195210Y-121416000D01*
X202724000Y-121416000D01*
X202724000Y-120861494D01*
X202723998Y-120861493D01*
X202577809Y-120903965D01*
X202577806Y-120903967D01*
X202438625Y-120986278D01*
X202438616Y-120986285D01*
X202324285Y-121100616D01*
X202324278Y-121100625D01*
X202241968Y-121239804D01*
X202241966Y-121239809D01*
X202196855Y-121395081D01*
X202196854Y-121395087D01*
X202195209Y-121415999D01*
X197653615Y-121415999D01*
X197531818Y-121294202D01*
X197498333Y-121232879D01*
X197495499Y-121206521D01*
X197495499Y-121035831D01*
X197495498Y-121035806D01*
X197495217Y-121032236D01*
X197492665Y-120999796D01*
X197447869Y-120845607D01*
X197366135Y-120707402D01*
X197366133Y-120707400D01*
X197366130Y-120707396D01*
X197252603Y-120593869D01*
X197252595Y-120593863D01*
X197114393Y-120512131D01*
X197114388Y-120512129D01*
X196960208Y-120467335D01*
X196960202Y-120467334D01*
X196924181Y-120464500D01*
X196525830Y-120464500D01*
X196525808Y-120464501D01*
X196489794Y-120467335D01*
X196335611Y-120512129D01*
X196335607Y-120512130D01*
X196277628Y-120546419D01*
X196209903Y-120563600D01*
X196151388Y-120546419D01*
X196094189Y-120512592D01*
X196094188Y-120512591D01*
X195955001Y-120472153D01*
X195955000Y-120472154D01*
X195955000Y-121024591D01*
X195954618Y-121034316D01*
X195954500Y-121035803D01*
X195954500Y-121534170D01*
X195954501Y-121534182D01*
X195954618Y-121535663D01*
X195955000Y-121545393D01*
X195955000Y-122097844D01*
X196094194Y-122057405D01*
X196094196Y-122057404D01*
X196151386Y-122023582D01*
X196219109Y-122006398D01*
X196277629Y-122023581D01*
X196335607Y-122057869D01*
X196376268Y-122069682D01*
X196489791Y-122102664D01*
X196489794Y-122102664D01*
X196489796Y-122102665D01*
X196525819Y-122105500D01*
X196643126Y-122105499D01*
X196710165Y-122125183D01*
X196755920Y-122177987D01*
X196765864Y-122247145D01*
X196736840Y-122310701D01*
X196730808Y-122317179D01*
X196686032Y-122361955D01*
X196686029Y-122361959D01*
X196597001Y-122506294D01*
X196596996Y-122506305D01*
X196543651Y-122667290D01*
X196533500Y-122766647D01*
X196533500Y-123613337D01*
X196533501Y-123613355D01*
X196543650Y-123712707D01*
X196543651Y-123712710D01*
X196596996Y-123873694D01*
X196597001Y-123873705D01*
X196686029Y-124018040D01*
X196686032Y-124018044D01*
X196805955Y-124137967D01*
X196805959Y-124137970D01*
X196950294Y-124226998D01*
X196950297Y-124226999D01*
X196950303Y-124227003D01*
X197111292Y-124280349D01*
X197210655Y-124290500D01*
X197757344Y-124290499D01*
X197757352Y-124290498D01*
X197757355Y-124290498D01*
X197811760Y-124284940D01*
X197856708Y-124280349D01*
X198017697Y-124227003D01*
X198162044Y-124137968D01*
X198281968Y-124018044D01*
X198371003Y-123873697D01*
X198382501Y-123838996D01*
X198422273Y-123781552D01*
X198486789Y-123754728D01*
X198500207Y-123754000D01*
X201538868Y-123754000D01*
X201605907Y-123773685D01*
X201651662Y-123826489D01*
X201661606Y-123895647D01*
X201632581Y-123959203D01*
X201585032Y-123993086D01*
X201022675Y-124218662D01*
X201017466Y-124220617D01*
X200183173Y-124512550D01*
X200177880Y-124514270D01*
X199331374Y-124768463D01*
X199326010Y-124769943D01*
X198468969Y-124985899D01*
X198463544Y-124987138D01*
X197597622Y-125164436D01*
X197592147Y-125165429D01*
X196719186Y-125303693D01*
X196713672Y-125304440D01*
X195835374Y-125403401D01*
X195829831Y-125403900D01*
X194947983Y-125463355D01*
X194942424Y-125463605D01*
X194058782Y-125483437D01*
X194053218Y-125483437D01*
X193169575Y-125463605D01*
X193164016Y-125463355D01*
X192282168Y-125403900D01*
X192276625Y-125403401D01*
X191398327Y-125304440D01*
X191392813Y-125303693D01*
X190519852Y-125165429D01*
X190514377Y-125164436D01*
X189648455Y-124987138D01*
X189643030Y-124985899D01*
X188785989Y-124769943D01*
X188780625Y-124768463D01*
X187934119Y-124514270D01*
X187928826Y-124512550D01*
X187094533Y-124220617D01*
X187089324Y-124218662D01*
X186269025Y-123889617D01*
X186263908Y-123887430D01*
X185660440Y-123613322D01*
X193234001Y-123613322D01*
X193244144Y-123712607D01*
X193297452Y-123873481D01*
X193297457Y-123873492D01*
X193386424Y-124017728D01*
X193386427Y-124017732D01*
X193506267Y-124137572D01*
X193506271Y-124137575D01*
X193650507Y-124226542D01*
X193650518Y-124226547D01*
X193811393Y-124279855D01*
X193910683Y-124289999D01*
X194434000Y-124289999D01*
X194457308Y-124289999D01*
X194457322Y-124289998D01*
X194556607Y-124279855D01*
X194717481Y-124226547D01*
X194717492Y-124226542D01*
X194861728Y-124137575D01*
X194861732Y-124137572D01*
X194981572Y-124017732D01*
X194981575Y-124017728D01*
X195070542Y-123873492D01*
X195070547Y-123873481D01*
X195123855Y-123712606D01*
X195133999Y-123613322D01*
X195134000Y-123613309D01*
X195134000Y-123440000D01*
X194434000Y-123440000D01*
X194434000Y-124289999D01*
X193910683Y-124289999D01*
X193934000Y-124289998D01*
X193934000Y-123440000D01*
X193234001Y-123440000D01*
X193234001Y-123613322D01*
X185660440Y-123613322D01*
X185459186Y-123521908D01*
X185454172Y-123519494D01*
X184666636Y-123118224D01*
X184661736Y-123115587D01*
X184046829Y-122766677D01*
X193234000Y-122766677D01*
X193234000Y-122940000D01*
X193934000Y-122940000D01*
X194434000Y-122940000D01*
X195133999Y-122940000D01*
X195133999Y-122766692D01*
X195133998Y-122766677D01*
X195123855Y-122667392D01*
X195070547Y-122506518D01*
X195070542Y-122506507D01*
X194981575Y-122362271D01*
X194981572Y-122362267D01*
X194861732Y-122242427D01*
X194861728Y-122242424D01*
X194717492Y-122153457D01*
X194717481Y-122153452D01*
X194556606Y-122100144D01*
X194457322Y-122090000D01*
X194434000Y-122090000D01*
X194434000Y-122940000D01*
X193934000Y-122940000D01*
X193934000Y-122089999D01*
X193910693Y-122090000D01*
X193910674Y-122090001D01*
X193811392Y-122100144D01*
X193650518Y-122153452D01*
X193650507Y-122153457D01*
X193506271Y-122242424D01*
X193506267Y-122242427D01*
X193386427Y-122362267D01*
X193386424Y-122362271D01*
X193297457Y-122506507D01*
X193297452Y-122506518D01*
X193244144Y-122667393D01*
X193234000Y-122766677D01*
X184046829Y-122766677D01*
X183893015Y-122679400D01*
X183888238Y-122676546D01*
X183139845Y-122206300D01*
X183135201Y-122203234D01*
X182408676Y-121699895D01*
X182404174Y-121696624D01*
X182027731Y-121410000D01*
X184607156Y-121410000D01*
X184647595Y-121549194D01*
X184729261Y-121687285D01*
X184729268Y-121687294D01*
X184842705Y-121800731D01*
X184842714Y-121800738D01*
X184980808Y-121882406D01*
X184980811Y-121882407D01*
X185134871Y-121927166D01*
X185134877Y-121927167D01*
X185170000Y-121929931D01*
X185170000Y-121929930D01*
X185670000Y-121929930D01*
X185705122Y-121927167D01*
X185705128Y-121927166D01*
X185859188Y-121882407D01*
X185859191Y-121882406D01*
X185997285Y-121800738D01*
X185997294Y-121800731D01*
X186110731Y-121687294D01*
X186110738Y-121687285D01*
X186192404Y-121549194D01*
X186196528Y-121535000D01*
X194935069Y-121535000D01*
X194937832Y-121570122D01*
X194937833Y-121570128D01*
X194982592Y-121724188D01*
X194982593Y-121724191D01*
X195064261Y-121862285D01*
X195064268Y-121862294D01*
X195177705Y-121975731D01*
X195177714Y-121975738D01*
X195315805Y-122057404D01*
X195455000Y-122097844D01*
X195455000Y-121535000D01*
X194935069Y-121535000D01*
X186196528Y-121535000D01*
X186232844Y-121410000D01*
X185670000Y-121410000D01*
X185670000Y-121929930D01*
X185170000Y-121929930D01*
X185170000Y-121410000D01*
X184607156Y-121410000D01*
X182027731Y-121410000D01*
X181700969Y-121161203D01*
X181696618Y-121157734D01*
X181018115Y-120591280D01*
X181013925Y-120587619D01*
X181013651Y-120587369D01*
X180839647Y-120428322D01*
X182667001Y-120428322D01*
X182677144Y-120527607D01*
X182730452Y-120688481D01*
X182730457Y-120688492D01*
X182819424Y-120832728D01*
X182819427Y-120832732D01*
X182939267Y-120952572D01*
X182939271Y-120952575D01*
X183083507Y-121041542D01*
X183083518Y-121041547D01*
X183244393Y-121094855D01*
X183343683Y-121104999D01*
X183391999Y-121104998D01*
X183392000Y-121104998D01*
X183392000Y-120405000D01*
X182667001Y-120405000D01*
X182667001Y-120428322D01*
X180839647Y-120428322D01*
X180361531Y-119991304D01*
X180357509Y-119987458D01*
X179732541Y-119362490D01*
X179728695Y-119358468D01*
X179132376Y-118706069D01*
X179128719Y-118701884D01*
X179058684Y-118617996D01*
X178562263Y-118023379D01*
X178558796Y-118019030D01*
X178522064Y-117970788D01*
X178434662Y-117855996D01*
X179534435Y-117855996D01*
X179534435Y-117856003D01*
X179554630Y-118035249D01*
X179554631Y-118035254D01*
X179614211Y-118205523D01*
X179653769Y-118268478D01*
X179710184Y-118358262D01*
X179837738Y-118485816D01*
X179841827Y-118488385D01*
X179978506Y-118574267D01*
X179990478Y-118581789D01*
X180160745Y-118641368D01*
X180204635Y-118646313D01*
X180269048Y-118673378D01*
X180278433Y-118681852D01*
X180601589Y-119005008D01*
X180646926Y-119050345D01*
X180688994Y-119092413D01*
X180688996Y-119092414D01*
X180728218Y-119118621D01*
X180791767Y-119161083D01*
X180825215Y-119174937D01*
X180905965Y-119208386D01*
X180957220Y-119218581D01*
X181027192Y-119232499D01*
X181027196Y-119232500D01*
X181027197Y-119232500D01*
X181150803Y-119232500D01*
X182719034Y-119232500D01*
X182786073Y-119252185D01*
X182816299Y-119279588D01*
X182819031Y-119283043D01*
X182828660Y-119292672D01*
X182862145Y-119353995D01*
X182857161Y-119423687D01*
X182828663Y-119468031D01*
X182819428Y-119477265D01*
X182819424Y-119477271D01*
X182730457Y-119621507D01*
X182730452Y-119621518D01*
X182677144Y-119782393D01*
X182667000Y-119881677D01*
X182667000Y-119905000D01*
X183768000Y-119905000D01*
X183835039Y-119924685D01*
X183880794Y-119977489D01*
X183892000Y-120029000D01*
X183892000Y-121104999D01*
X183940308Y-121104999D01*
X183940322Y-121104998D01*
X184039607Y-121094855D01*
X184200481Y-121041547D01*
X184200492Y-121041542D01*
X184344727Y-120952576D01*
X184411830Y-120885473D01*
X184473153Y-120851988D01*
X184542845Y-120856972D01*
X184598673Y-120898702D01*
X184607156Y-120910000D01*
X185159591Y-120910000D01*
X185169318Y-120910382D01*
X185169516Y-120910397D01*
X185170819Y-120910500D01*
X185669180Y-120910499D01*
X185669193Y-120910498D01*
X185670668Y-120910382D01*
X185680393Y-120910000D01*
X186232844Y-120910000D01*
X186192404Y-120770805D01*
X186158581Y-120713612D01*
X186141398Y-120645888D01*
X186158582Y-120587369D01*
X186192867Y-120529396D01*
X186192869Y-120529393D01*
X186226101Y-120415008D01*
X186237664Y-120375208D01*
X186237665Y-120375202D01*
X186240499Y-120339188D01*
X186240500Y-120339181D01*
X186240499Y-120067998D01*
X186260183Y-120000961D01*
X186312987Y-119955206D01*
X186364499Y-119944000D01*
X186811047Y-119944000D01*
X186878086Y-119963685D01*
X186886535Y-119969626D01*
X186919766Y-119995126D01*
X186960968Y-120051554D01*
X186965121Y-120121300D01*
X186930908Y-120182220D01*
X186869190Y-120214972D01*
X186844278Y-120217500D01*
X186644574Y-120217500D01*
X186654283Y-120291248D01*
X186654284Y-120291253D01*
X186714108Y-120435682D01*
X186714108Y-120435683D01*
X186809283Y-120559716D01*
X186933317Y-120654891D01*
X187077746Y-120714715D01*
X187077758Y-120714719D01*
X187138998Y-120722780D01*
X187139000Y-120722779D01*
X187139000Y-120204500D01*
X187158685Y-120137461D01*
X187211489Y-120091706D01*
X187263000Y-120080500D01*
X187390000Y-120080500D01*
X187457039Y-120100185D01*
X187502794Y-120152989D01*
X187514000Y-120204500D01*
X187514000Y-120722779D01*
X187514001Y-120722780D01*
X187575241Y-120714719D01*
X187575253Y-120714715D01*
X187719682Y-120654891D01*
X187719683Y-120654891D01*
X187843716Y-120559716D01*
X187938891Y-120435683D01*
X187938891Y-120435682D01*
X187998715Y-120291253D01*
X187998716Y-120291248D01*
X188008426Y-120217500D01*
X187808722Y-120217500D01*
X187741683Y-120197815D01*
X187695928Y-120145011D01*
X187685984Y-120075853D01*
X187715009Y-120012297D01*
X187733235Y-119995125D01*
X187785257Y-119955206D01*
X187844074Y-119910074D01*
X187849732Y-119902699D01*
X187858701Y-119891013D01*
X187915129Y-119849811D01*
X187957076Y-119842500D01*
X188008425Y-119842500D01*
X188008425Y-119842499D01*
X187998716Y-119768749D01*
X187992238Y-119753109D01*
X187984768Y-119683640D01*
X187992238Y-119658199D01*
X187999205Y-119641380D01*
X188014500Y-119525202D01*
X188014500Y-119234798D01*
X187999205Y-119118620D01*
X187992508Y-119102454D01*
X187985039Y-119032986D01*
X187992509Y-119007545D01*
X187994806Y-119002000D01*
X187999205Y-118991380D01*
X188014500Y-118875202D01*
X188014500Y-118584798D01*
X187999205Y-118468620D01*
X187946647Y-118341734D01*
X187939328Y-118324063D01*
X187939327Y-118324062D01*
X187939327Y-118324061D01*
X187844074Y-118199926D01*
X187719939Y-118104673D01*
X187719938Y-118104672D01*
X187719936Y-118104671D01*
X187575383Y-118044796D01*
X187575378Y-118044794D01*
X187459211Y-118029501D01*
X187459208Y-118029500D01*
X187459202Y-118029500D01*
X187459195Y-118029500D01*
X187294281Y-118029500D01*
X187227242Y-118009815D01*
X187206600Y-117993181D01*
X186580011Y-117366591D01*
X186580009Y-117366589D01*
X186570360Y-117360142D01*
X186560775Y-117353738D01*
X186521633Y-117327584D01*
X186477238Y-117297920D01*
X186477226Y-117297913D01*
X186443785Y-117284062D01*
X186363035Y-117250614D01*
X186363027Y-117250612D01*
X186241807Y-117226500D01*
X186241803Y-117226500D01*
X186054576Y-117226500D01*
X185991455Y-117209232D01*
X185859393Y-117131131D01*
X185859388Y-117131129D01*
X185705208Y-117086335D01*
X185705202Y-117086334D01*
X185669181Y-117083500D01*
X185170830Y-117083500D01*
X185170808Y-117083501D01*
X185134794Y-117086335D01*
X184980611Y-117131129D01*
X184980606Y-117131131D01*
X184848545Y-117209232D01*
X184785424Y-117226500D01*
X184331194Y-117226500D01*
X184209970Y-117250613D01*
X184209960Y-117250616D01*
X184095773Y-117297913D01*
X184095760Y-117297920D01*
X183992992Y-117366588D01*
X183992988Y-117366591D01*
X183741398Y-117618181D01*
X183680075Y-117651666D01*
X183653717Y-117654500D01*
X183343663Y-117654500D01*
X183343644Y-117654501D01*
X183244292Y-117664650D01*
X183244289Y-117664651D01*
X183083305Y-117717996D01*
X183083294Y-117718001D01*
X182938959Y-117807029D01*
X182938955Y-117807032D01*
X182819031Y-117926956D01*
X182816299Y-117930412D01*
X182759277Y-117970788D01*
X182719034Y-117977500D01*
X181400281Y-117977500D01*
X181333242Y-117957815D01*
X181312600Y-117941181D01*
X181165852Y-117794433D01*
X181132367Y-117733110D01*
X181130314Y-117720648D01*
X181125368Y-117676745D01*
X181065789Y-117506478D01*
X180969816Y-117353738D01*
X180842262Y-117226184D01*
X180821065Y-117212865D01*
X180689523Y-117130211D01*
X180519254Y-117070631D01*
X180519249Y-117070630D01*
X180340004Y-117050435D01*
X180339996Y-117050435D01*
X180160750Y-117070630D01*
X180160745Y-117070631D01*
X179990476Y-117130211D01*
X179837737Y-117226184D01*
X179710184Y-117353737D01*
X179614211Y-117506476D01*
X179554631Y-117676745D01*
X179554630Y-117676750D01*
X179534435Y-117855996D01*
X178434662Y-117855996D01*
X178416871Y-117832630D01*
X178023375Y-117315825D01*
X178020104Y-117311323D01*
X177516765Y-116584798D01*
X177513699Y-116580154D01*
X177376433Y-116361696D01*
X177288656Y-116222000D01*
X182321156Y-116222000D01*
X182361595Y-116361194D01*
X182443261Y-116499285D01*
X182443268Y-116499294D01*
X182556705Y-116612731D01*
X182556714Y-116612738D01*
X182694808Y-116694406D01*
X182694811Y-116694407D01*
X182848871Y-116739166D01*
X182848877Y-116739167D01*
X182884000Y-116741931D01*
X182884000Y-116741930D01*
X183384000Y-116741930D01*
X183419122Y-116739167D01*
X183419128Y-116739166D01*
X183573188Y-116694407D01*
X183573191Y-116694406D01*
X183711285Y-116612738D01*
X183711294Y-116612731D01*
X183824731Y-116499294D01*
X183824738Y-116499285D01*
X183906404Y-116361194D01*
X183946844Y-116222000D01*
X183384000Y-116222000D01*
X183384000Y-116741930D01*
X182884000Y-116741930D01*
X182884000Y-116222000D01*
X182321156Y-116222000D01*
X177288656Y-116222000D01*
X177043450Y-115831757D01*
X177040599Y-115826984D01*
X177020967Y-115792386D01*
X176851840Y-115494322D01*
X180381001Y-115494322D01*
X180391144Y-115593607D01*
X180444452Y-115754481D01*
X180444457Y-115754492D01*
X180533424Y-115898728D01*
X180533427Y-115898732D01*
X180653267Y-116018572D01*
X180653271Y-116018575D01*
X180797507Y-116107542D01*
X180797518Y-116107547D01*
X180958393Y-116160855D01*
X181057683Y-116170999D01*
X181105999Y-116170998D01*
X181106000Y-116170998D01*
X181106000Y-115471000D01*
X180381001Y-115471000D01*
X180381001Y-115494322D01*
X176851840Y-115494322D01*
X176721046Y-115263815D01*
X176604412Y-115058263D01*
X176601775Y-115053363D01*
X176499144Y-114851939D01*
X176217916Y-114299996D01*
X177756435Y-114299996D01*
X177756435Y-114300003D01*
X177776630Y-114479249D01*
X177776631Y-114479254D01*
X177836211Y-114649523D01*
X177887419Y-114731019D01*
X177932184Y-114802262D01*
X178059738Y-114929816D01*
X178103022Y-114957013D01*
X178208524Y-115023305D01*
X178212478Y-115025789D01*
X178336428Y-115069161D01*
X178382745Y-115085368D01*
X178382750Y-115085369D01*
X178561996Y-115105565D01*
X178562000Y-115105565D01*
X178562004Y-115105565D01*
X178741249Y-115085369D01*
X178741252Y-115085368D01*
X178741255Y-115085368D01*
X178911522Y-115025789D01*
X179064262Y-114929816D01*
X179191816Y-114802262D01*
X179287789Y-114649522D01*
X179347368Y-114479255D01*
X179350068Y-114455294D01*
X179367565Y-114300003D01*
X179367565Y-114299996D01*
X179347369Y-114120750D01*
X179347368Y-114120745D01*
X179320412Y-114043710D01*
X179287789Y-113950478D01*
X179283930Y-113944337D01*
X179200253Y-113811166D01*
X179191816Y-113797738D01*
X179064262Y-113670184D01*
X179033419Y-113650804D01*
X178911523Y-113574211D01*
X178741254Y-113514631D01*
X178741249Y-113514630D01*
X178562004Y-113494435D01*
X178561996Y-113494435D01*
X178382750Y-113514630D01*
X178382745Y-113514631D01*
X178212476Y-113574211D01*
X178059737Y-113670184D01*
X177932184Y-113797737D01*
X177836211Y-113950476D01*
X177776631Y-114120745D01*
X177776630Y-114120750D01*
X177756435Y-114299996D01*
X176217916Y-114299996D01*
X176200496Y-114265808D01*
X176198100Y-114260833D01*
X175921009Y-113650798D01*
X175832569Y-113456091D01*
X175830382Y-113450974D01*
X175501337Y-112630675D01*
X175499382Y-112625466D01*
X175207449Y-111791173D01*
X175205737Y-111785905D01*
X174951536Y-110939374D01*
X174950056Y-110934010D01*
X174832287Y-110466632D01*
X174734098Y-110076963D01*
X174732861Y-110071544D01*
X174727221Y-110044000D01*
X174693104Y-109877370D01*
X174698941Y-109807747D01*
X174741494Y-109752330D01*
X174807252Y-109728716D01*
X174875338Y-109744402D01*
X174883475Y-109749397D01*
X174968000Y-109805875D01*
X174968008Y-109805880D01*
X175140894Y-109877491D01*
X175140902Y-109877493D01*
X175324428Y-109913999D01*
X175324431Y-109914000D01*
X175518000Y-109914000D01*
X175518000Y-109214000D01*
X176018000Y-109214000D01*
X176018000Y-109914000D01*
X176211569Y-109914000D01*
X176211571Y-109913999D01*
X176395097Y-109877493D01*
X176395105Y-109877491D01*
X176567991Y-109805880D01*
X176568000Y-109805875D01*
X176723588Y-109701914D01*
X176844107Y-109581395D01*
X176905430Y-109547910D01*
X176975122Y-109552894D01*
X177031056Y-109594765D01*
X177049495Y-109630072D01*
X177083641Y-109733119D01*
X177083643Y-109733124D01*
X177175684Y-109882345D01*
X177299654Y-110006315D01*
X177448875Y-110098356D01*
X177448880Y-110098358D01*
X177615302Y-110153505D01*
X177615309Y-110153506D01*
X177718019Y-110163999D01*
X177967999Y-110163999D01*
X178468000Y-110163999D01*
X178717972Y-110163999D01*
X178717986Y-110163998D01*
X178820697Y-110153505D01*
X178987119Y-110098358D01*
X178987124Y-110098356D01*
X179136345Y-110006315D01*
X179260315Y-109882345D01*
X179352356Y-109733124D01*
X179352358Y-109733119D01*
X179407505Y-109566697D01*
X179407506Y-109566690D01*
X179417999Y-109463986D01*
X179418000Y-109463973D01*
X179418000Y-109114000D01*
X178468000Y-109114000D01*
X178468000Y-110163999D01*
X177967999Y-110163999D01*
X177968000Y-110163998D01*
X177968000Y-109114000D01*
X177111000Y-109114000D01*
X177101023Y-109123976D01*
X177091315Y-109157039D01*
X177038511Y-109202794D01*
X176987000Y-109214000D01*
X176167728Y-109214000D01*
X176259614Y-109175940D01*
X176329940Y-109105614D01*
X176368000Y-109013728D01*
X176368000Y-108914272D01*
X176329940Y-108822386D01*
X176259614Y-108752060D01*
X176167728Y-108714000D01*
X176975000Y-108714000D01*
X176984976Y-108704023D01*
X176994685Y-108670961D01*
X177047489Y-108625206D01*
X177099000Y-108614000D01*
X179417999Y-108614000D01*
X179417999Y-108264028D01*
X179417998Y-108264013D01*
X179407505Y-108161302D01*
X179352358Y-107994880D01*
X179352356Y-107994875D01*
X179260315Y-107845654D01*
X179227073Y-107812412D01*
X179193588Y-107751089D01*
X179198572Y-107681397D01*
X179240444Y-107625464D01*
X179267304Y-107610169D01*
X179320586Y-107588099D01*
X179445926Y-107491923D01*
X179533685Y-107377553D01*
X179590113Y-107336350D01*
X179659859Y-107332195D01*
X179719742Y-107365358D01*
X179739681Y-107385297D01*
X179773166Y-107446620D01*
X179776000Y-107472978D01*
X179776000Y-108383747D01*
X179776000Y-108532253D01*
X179799144Y-108618629D01*
X179808630Y-108654031D01*
X179814436Y-108675699D01*
X179888684Y-108804300D01*
X179888689Y-108804306D01*
X180000761Y-108916378D01*
X180000767Y-108916383D01*
X180011346Y-108926962D01*
X180011356Y-108926973D01*
X180015686Y-108931303D01*
X180015687Y-108931304D01*
X180120696Y-109036313D01*
X180233115Y-109101218D01*
X180249304Y-109110565D01*
X180249306Y-109110566D01*
X180253490Y-109112299D01*
X180307893Y-109156140D01*
X180329654Y-109217132D01*
X180332335Y-109251205D01*
X180377129Y-109405388D01*
X180377131Y-109405393D01*
X180458863Y-109543595D01*
X180458869Y-109543603D01*
X180572396Y-109657130D01*
X180572400Y-109657133D01*
X180572402Y-109657135D01*
X180710607Y-109738869D01*
X180729652Y-109744402D01*
X180864791Y-109783664D01*
X180864794Y-109783664D01*
X180864796Y-109783665D01*
X180900819Y-109786500D01*
X181299180Y-109786499D01*
X181335204Y-109783665D01*
X181397405Y-109765594D01*
X181467274Y-109765793D01*
X181525944Y-109803735D01*
X181554788Y-109867373D01*
X181556000Y-109884670D01*
X181556000Y-110011427D01*
X181554940Y-110027609D01*
X181554000Y-110034750D01*
X181554000Y-110078022D01*
X181534315Y-110145061D01*
X181517681Y-110165703D01*
X180904703Y-110778681D01*
X180843380Y-110812166D01*
X180817022Y-110815000D01*
X180070440Y-110815000D01*
X180003401Y-110795315D01*
X179982759Y-110778681D01*
X179953262Y-110749184D01*
X179800523Y-110653211D01*
X179630254Y-110593631D01*
X179630249Y-110593630D01*
X179451004Y-110573435D01*
X179450996Y-110573435D01*
X179271750Y-110593630D01*
X179271745Y-110593631D01*
X179101476Y-110653211D01*
X178948737Y-110749184D01*
X178821184Y-110876737D01*
X178725211Y-111029476D01*
X178665631Y-111199745D01*
X178665630Y-111199750D01*
X178645435Y-111378996D01*
X178645435Y-111379003D01*
X178665630Y-111558249D01*
X178665631Y-111558254D01*
X178725211Y-111728523D01*
X178764577Y-111791173D01*
X178821184Y-111881262D01*
X178948738Y-112008816D01*
X178974280Y-112024865D01*
X179100855Y-112104398D01*
X179101478Y-112104789D01*
X179226443Y-112148516D01*
X179271745Y-112164368D01*
X179271750Y-112164369D01*
X179450996Y-112184565D01*
X179451000Y-112184565D01*
X179451004Y-112184565D01*
X179630249Y-112164369D01*
X179630252Y-112164368D01*
X179630255Y-112164368D01*
X179800522Y-112104789D01*
X179953262Y-112008816D01*
X179982759Y-111979319D01*
X180044082Y-111945834D01*
X180070440Y-111943000D01*
X180604500Y-111943000D01*
X180671539Y-111962685D01*
X180717294Y-112015489D01*
X180728500Y-112067000D01*
X180728500Y-112757228D01*
X180708815Y-112824267D01*
X180669599Y-112862765D01*
X180652958Y-112873029D01*
X180533029Y-112992959D01*
X180444001Y-113137294D01*
X180443996Y-113137305D01*
X180390651Y-113298290D01*
X180380500Y-113397647D01*
X180380500Y-113944337D01*
X180380501Y-113944355D01*
X180390650Y-114043707D01*
X180390651Y-114043710D01*
X180443996Y-114204694D01*
X180444001Y-114204705D01*
X180533029Y-114349040D01*
X180533032Y-114349044D01*
X180542660Y-114358672D01*
X180576145Y-114419995D01*
X180571161Y-114489687D01*
X180542663Y-114534031D01*
X180533428Y-114543265D01*
X180533424Y-114543271D01*
X180444457Y-114687507D01*
X180444452Y-114687518D01*
X180391144Y-114848393D01*
X180381000Y-114947677D01*
X180381000Y-114971000D01*
X181482000Y-114971000D01*
X181549039Y-114990685D01*
X181594794Y-115043489D01*
X181606000Y-115095000D01*
X181606000Y-116170999D01*
X181654308Y-116170999D01*
X181654322Y-116170998D01*
X181753607Y-116160855D01*
X181914481Y-116107547D01*
X181914492Y-116107542D01*
X182058728Y-116018575D01*
X182058732Y-116018572D01*
X182178572Y-115898732D01*
X182178575Y-115898728D01*
X182251252Y-115780903D01*
X182303200Y-115734178D01*
X182356790Y-115722000D01*
X182873591Y-115722000D01*
X182883318Y-115722382D01*
X182883516Y-115722397D01*
X182884819Y-115722500D01*
X183383180Y-115722499D01*
X183383193Y-115722498D01*
X183384668Y-115722382D01*
X183394393Y-115722000D01*
X183946844Y-115722000D01*
X183906404Y-115582805D01*
X183872581Y-115525612D01*
X183855398Y-115457888D01*
X183872582Y-115399369D01*
X183874740Y-115395721D01*
X183880506Y-115385969D01*
X183898662Y-115355271D01*
X183949731Y-115307588D01*
X184018473Y-115295085D01*
X184083062Y-115321731D01*
X184119954Y-115370941D01*
X184174108Y-115501682D01*
X184174108Y-115501683D01*
X184269283Y-115625716D01*
X184393317Y-115720891D01*
X184537746Y-115780715D01*
X184537758Y-115780719D01*
X184598998Y-115788780D01*
X184599000Y-115788779D01*
X184599000Y-115270500D01*
X184618685Y-115203461D01*
X184671489Y-115157706D01*
X184723000Y-115146500D01*
X184850000Y-115146500D01*
X184917039Y-115166185D01*
X184962794Y-115218989D01*
X184974000Y-115270500D01*
X184974000Y-115788779D01*
X184974001Y-115788780D01*
X185035241Y-115780719D01*
X185035253Y-115780715D01*
X185179682Y-115720891D01*
X185179683Y-115720891D01*
X185303716Y-115625716D01*
X185398891Y-115501683D01*
X185398891Y-115501682D01*
X185458715Y-115357253D01*
X185458716Y-115357248D01*
X185468426Y-115283500D01*
X185268722Y-115283500D01*
X185201683Y-115263815D01*
X185155928Y-115211011D01*
X185145984Y-115141853D01*
X185175009Y-115078297D01*
X185193235Y-115061125D01*
X185225239Y-115036567D01*
X185304074Y-114976074D01*
X185309732Y-114968699D01*
X185318701Y-114957013D01*
X185375129Y-114915811D01*
X185417076Y-114908500D01*
X185468425Y-114908500D01*
X185468425Y-114908499D01*
X185458716Y-114834749D01*
X185452238Y-114819109D01*
X185444768Y-114749640D01*
X185452238Y-114724199D01*
X185459205Y-114707380D01*
X185474500Y-114591202D01*
X185474500Y-114300798D01*
X185459205Y-114184620D01*
X185452508Y-114168454D01*
X185445039Y-114098986D01*
X185452509Y-114073545D01*
X185459205Y-114057380D01*
X185474500Y-113941202D01*
X185474500Y-113650798D01*
X185459205Y-113534620D01*
X185399327Y-113390061D01*
X185399326Y-113390060D01*
X185398693Y-113388531D01*
X185391636Y-113365265D01*
X185389886Y-113356466D01*
X185354481Y-113270992D01*
X185342583Y-113242267D01*
X185329082Y-113222062D01*
X185273914Y-113139496D01*
X185273913Y-113139494D01*
X185234477Y-113100058D01*
X185186508Y-113052089D01*
X184759885Y-112625466D01*
X184313011Y-112178591D01*
X184313010Y-112178590D01*
X184291726Y-112164369D01*
X184291725Y-112164368D01*
X184210230Y-112109915D01*
X184147194Y-112083805D01*
X184147193Y-112083804D01*
X184147193Y-112083805D01*
X184096035Y-112062614D01*
X184096032Y-112062613D01*
X184096028Y-112062612D01*
X183974807Y-112038500D01*
X183974803Y-112038500D01*
X183768576Y-112038500D01*
X183705455Y-112021232D01*
X183573393Y-111943131D01*
X183573388Y-111943129D01*
X183419208Y-111898335D01*
X183419202Y-111898334D01*
X183383181Y-111895500D01*
X182884830Y-111895500D01*
X182884808Y-111895501D01*
X182848794Y-111898335D01*
X182694611Y-111943129D01*
X182694602Y-111943133D01*
X182587741Y-112006330D01*
X182520017Y-112023513D01*
X182453755Y-112001353D01*
X182409992Y-111946886D01*
X182401401Y-111885715D01*
X182415565Y-111760003D01*
X182415565Y-111759996D01*
X182395369Y-111580750D01*
X182395368Y-111580745D01*
X182381670Y-111541598D01*
X182335789Y-111410478D01*
X182239816Y-111257738D01*
X182218027Y-111235949D01*
X182184542Y-111174626D01*
X182189526Y-111104934D01*
X182218023Y-111060591D01*
X182454094Y-110824520D01*
X182454099Y-110824517D01*
X182464302Y-110814313D01*
X182464304Y-110814313D01*
X182569313Y-110709304D01*
X182643565Y-110580696D01*
X182677699Y-110453304D01*
X182677699Y-110453301D01*
X182677701Y-110453299D01*
X182681999Y-110437258D01*
X182682000Y-110437252D01*
X182682000Y-110204569D01*
X182683061Y-110188381D01*
X182683998Y-110181256D01*
X182684000Y-110181253D01*
X182684000Y-110032748D01*
X182684000Y-109672095D01*
X182703685Y-109605056D01*
X182720320Y-109584413D01*
X182761130Y-109543603D01*
X182761135Y-109543598D01*
X182842869Y-109405393D01*
X182887665Y-109251204D01*
X182890500Y-109215181D01*
X182890499Y-108716820D01*
X182887665Y-108680796D01*
X182842869Y-108526607D01*
X182761135Y-108388402D01*
X182761133Y-108388400D01*
X182761130Y-108388396D01*
X182647603Y-108274869D01*
X182647595Y-108274863D01*
X182509393Y-108193131D01*
X182509388Y-108193129D01*
X182355208Y-108148335D01*
X182355202Y-108148334D01*
X182319181Y-108145500D01*
X181920830Y-108145500D01*
X181920808Y-108145501D01*
X181884794Y-108148335D01*
X181730611Y-108193129D01*
X181730604Y-108193132D01*
X181673119Y-108227128D01*
X181605395Y-108244309D01*
X181546881Y-108227128D01*
X181489395Y-108193132D01*
X181489388Y-108193129D01*
X181335208Y-108148335D01*
X181335202Y-108148334D01*
X181299188Y-108145500D01*
X181299181Y-108145500D01*
X181118990Y-108145500D01*
X181056991Y-108128887D01*
X180965999Y-108076353D01*
X180917784Y-108025785D01*
X180904000Y-107968966D01*
X180904000Y-107511837D01*
X180923685Y-107444798D01*
X180976489Y-107399043D01*
X181045647Y-107389099D01*
X181062589Y-107392759D01*
X181127431Y-107411598D01*
X181164306Y-107414500D01*
X181164314Y-107414500D01*
X182320686Y-107414500D01*
X182320694Y-107414500D01*
X182357569Y-107411598D01*
X182357571Y-107411597D01*
X182357573Y-107411597D01*
X182405561Y-107397655D01*
X182515398Y-107365744D01*
X182656865Y-107282081D01*
X182773081Y-107165865D01*
X182773267Y-107165549D01*
X182773477Y-107165353D01*
X182777861Y-107159702D01*
X182778772Y-107160409D01*
X182824336Y-107117866D01*
X182893077Y-107105362D01*
X182957667Y-107132006D01*
G37*
%TD.AperFunction*%
%TA.AperFunction,Conductor*%
G36*
X212091826Y-109637497D02*
G01*
X212136596Y-109691139D01*
X212146867Y-109740553D01*
X212146867Y-111872154D01*
X212127182Y-111939193D01*
X212110548Y-111959835D01*
X207056239Y-117014144D01*
X206994916Y-117047629D01*
X206925224Y-117042645D01*
X206880877Y-117014144D01*
X206848320Y-116981587D01*
X206814835Y-116920264D01*
X206812001Y-116893906D01*
X206812001Y-116765750D01*
X206812001Y-116765748D01*
X206773565Y-116622304D01*
X206757982Y-116595314D01*
X206699315Y-116493699D01*
X206699310Y-116493693D01*
X206152319Y-115946702D01*
X206118834Y-115885379D01*
X206116000Y-115859021D01*
X206116000Y-115349491D01*
X206135685Y-115282452D01*
X206188489Y-115236697D01*
X206200992Y-115231786D01*
X206260697Y-115212003D01*
X206405044Y-115122968D01*
X206414668Y-115113343D01*
X206475987Y-115079856D01*
X206545679Y-115084835D01*
X206590034Y-115113339D01*
X206599267Y-115122572D01*
X206599271Y-115122575D01*
X206743507Y-115211542D01*
X206743518Y-115211547D01*
X206904393Y-115264855D01*
X207003683Y-115274999D01*
X207527000Y-115274999D01*
X207550308Y-115274999D01*
X207550322Y-115274998D01*
X207649607Y-115264855D01*
X207810481Y-115211547D01*
X207810492Y-115211542D01*
X207954728Y-115122575D01*
X207954732Y-115122572D01*
X208074572Y-115002732D01*
X208074575Y-115002728D01*
X208163542Y-114858492D01*
X208163547Y-114858481D01*
X208216855Y-114697606D01*
X208226999Y-114598322D01*
X208227000Y-114598309D01*
X208227000Y-114550000D01*
X207527000Y-114550000D01*
X207527000Y-115274999D01*
X207003683Y-115274999D01*
X207027000Y-115274998D01*
X207027000Y-114050000D01*
X207527000Y-114050000D01*
X208226999Y-114050000D01*
X208226999Y-114001692D01*
X208226998Y-114001677D01*
X208216855Y-113902392D01*
X208163547Y-113741518D01*
X208163542Y-113741507D01*
X208074575Y-113597271D01*
X208074572Y-113597267D01*
X207954732Y-113477427D01*
X207954728Y-113477424D01*
X207810492Y-113388457D01*
X207810481Y-113388452D01*
X207649606Y-113335144D01*
X207550322Y-113325000D01*
X207527000Y-113325000D01*
X207527000Y-114050000D01*
X207027000Y-114050000D01*
X207027000Y-113324999D01*
X207003693Y-113325000D01*
X207003674Y-113325001D01*
X206904392Y-113335144D01*
X206743518Y-113388452D01*
X206743507Y-113388457D01*
X206599271Y-113477424D01*
X206599265Y-113477428D01*
X206590031Y-113486663D01*
X206528707Y-113520146D01*
X206459015Y-113515159D01*
X206414672Y-113486660D01*
X206405045Y-113477033D01*
X206405044Y-113477032D01*
X206377900Y-113460289D01*
X206331178Y-113408341D01*
X206319000Y-113354752D01*
X206319000Y-112565980D01*
X206338685Y-112498941D01*
X206391489Y-112453186D01*
X206408398Y-112446906D01*
X206412398Y-112445744D01*
X206553865Y-112362081D01*
X206670081Y-112245865D01*
X206753744Y-112104398D01*
X206799598Y-111946569D01*
X206802500Y-111909694D01*
X206802500Y-111668500D01*
X206822185Y-111601461D01*
X206874989Y-111555706D01*
X206926500Y-111544500D01*
X208092686Y-111544500D01*
X208092694Y-111544500D01*
X208129569Y-111541598D01*
X208129571Y-111541597D01*
X208129573Y-111541597D01*
X208260964Y-111503424D01*
X208295559Y-111498500D01*
X208749554Y-111498500D01*
X208749574Y-111498501D01*
X208755688Y-111498501D01*
X208904313Y-111498501D01*
X209033952Y-111472713D01*
X209050080Y-111469505D01*
X209117856Y-111441431D01*
X209187389Y-111412630D01*
X209310966Y-111330059D01*
X210840205Y-109800817D01*
X210901528Y-109767333D01*
X210927886Y-109764499D01*
X211585002Y-109764499D01*
X211585008Y-109764499D01*
X211687797Y-109753999D01*
X211854334Y-109698814D01*
X211957771Y-109635013D01*
X212025163Y-109616574D01*
X212091826Y-109637497D01*
G37*
%TD.AperFunction*%
%TA.AperFunction,Conductor*%
G36*
X209734471Y-105311185D02*
G01*
X209767751Y-105342616D01*
X209795582Y-105380924D01*
X209795586Y-105380928D01*
X209918072Y-105503414D01*
X209972197Y-105542738D01*
X210001449Y-105563991D01*
X210044114Y-105619322D01*
X210050093Y-105688935D01*
X210017487Y-105750730D01*
X210001448Y-105764627D01*
X209918404Y-105824961D01*
X209918399Y-105824965D01*
X209795967Y-105947397D01*
X209694195Y-106087475D01*
X209615591Y-106241744D01*
X209562085Y-106406415D01*
X209560884Y-106413999D01*
X209560885Y-106414000D01*
X210629670Y-106414000D01*
X210609925Y-106433745D01*
X210560556Y-106519255D01*
X210535000Y-106614630D01*
X210535000Y-106713370D01*
X210560556Y-106808745D01*
X210609925Y-106894255D01*
X210629670Y-106914000D01*
X209560885Y-106914000D01*
X209562085Y-106921584D01*
X209615591Y-107086255D01*
X209694195Y-107240524D01*
X209795967Y-107380602D01*
X209903565Y-107488200D01*
X209937050Y-107549523D01*
X209932066Y-107619215D01*
X209890194Y-107675148D01*
X209880981Y-107681420D01*
X209816342Y-107721289D01*
X209692289Y-107845342D01*
X209600187Y-107994663D01*
X209600185Y-107994668D01*
X209600115Y-107994880D01*
X209545001Y-108161203D01*
X209545001Y-108161204D01*
X209545000Y-108161204D01*
X209534500Y-108263983D01*
X209534500Y-108921112D01*
X209514815Y-108988151D01*
X209498181Y-109008793D01*
X208553794Y-109953181D01*
X208492471Y-109986666D01*
X208466113Y-109989500D01*
X208295559Y-109989500D01*
X208260964Y-109984576D01*
X208129573Y-109946402D01*
X208129567Y-109946401D01*
X208092701Y-109943500D01*
X208092694Y-109943500D01*
X206786306Y-109943500D01*
X206786298Y-109943500D01*
X206749432Y-109946401D01*
X206749426Y-109946402D01*
X206591606Y-109992254D01*
X206591603Y-109992255D01*
X206533306Y-110026732D01*
X206470185Y-110044000D01*
X205438500Y-110044000D01*
X205371461Y-110024315D01*
X205325706Y-109971511D01*
X205314500Y-109920000D01*
X205314500Y-109544000D01*
X205814500Y-109544000D01*
X206799295Y-109544000D01*
X206799295Y-109543998D01*
X206799100Y-109541513D01*
X206753281Y-109383801D01*
X206669685Y-109242447D01*
X206669678Y-109242438D01*
X206553561Y-109126321D01*
X206553552Y-109126314D01*
X206412196Y-109042717D01*
X206412193Y-109042716D01*
X206254495Y-108996900D01*
X206254489Y-108996899D01*
X206217649Y-108994000D01*
X205814500Y-108994000D01*
X205814500Y-109544000D01*
X205314500Y-109544000D01*
X205314500Y-108994000D01*
X204911350Y-108994000D01*
X204874510Y-108996899D01*
X204874504Y-108996900D01*
X204716806Y-109042716D01*
X204716805Y-109042716D01*
X204649620Y-109082449D01*
X204581896Y-109099630D01*
X204515634Y-109077470D01*
X204471871Y-109023004D01*
X204462500Y-108975716D01*
X204462500Y-108666501D01*
X204482185Y-108599462D01*
X204534989Y-108553707D01*
X204604147Y-108543763D01*
X204662503Y-108568523D01*
X204666627Y-108571722D01*
X204805804Y-108654031D01*
X204961089Y-108699145D01*
X204982000Y-108700789D01*
X205482000Y-108700789D01*
X205502910Y-108699145D01*
X205658195Y-108654031D01*
X205797374Y-108571721D01*
X205797383Y-108571714D01*
X205911714Y-108457383D01*
X205911721Y-108457374D01*
X205994031Y-108318195D01*
X206036504Y-108172000D01*
X205482000Y-108172000D01*
X205482000Y-108700789D01*
X204982000Y-108700789D01*
X204982000Y-107866500D01*
X205001685Y-107799461D01*
X205054489Y-107753706D01*
X205106000Y-107742500D01*
X205466682Y-107742500D01*
X205466690Y-107742500D01*
X205502993Y-107739643D01*
X205502995Y-107739642D01*
X205502997Y-107739642D01*
X205658389Y-107694496D01*
X205658389Y-107694495D01*
X205658395Y-107694494D01*
X205667233Y-107689267D01*
X205730352Y-107672000D01*
X206036504Y-107672000D01*
X205994031Y-107525803D01*
X205982090Y-107505613D01*
X205964906Y-107437889D01*
X205982089Y-107379369D01*
X205994494Y-107358395D01*
X206037667Y-107209794D01*
X206039642Y-107202997D01*
X206039643Y-107202991D01*
X206042500Y-107166690D01*
X206042500Y-106757310D01*
X206039643Y-106721007D01*
X206039642Y-106721002D01*
X206039642Y-106721001D01*
X205994496Y-106565610D01*
X205994494Y-106565608D01*
X205994494Y-106565605D01*
X205962635Y-106511734D01*
X205945453Y-106444014D01*
X205956043Y-106401296D01*
X205955487Y-106401102D01*
X205957563Y-106395167D01*
X205957654Y-106394801D01*
X205957783Y-106394531D01*
X205957789Y-106394522D01*
X205960084Y-106387960D01*
X206000802Y-106331184D01*
X206065753Y-106305433D01*
X206134316Y-106318885D01*
X206164809Y-106341229D01*
X206230988Y-106407408D01*
X206230996Y-106407414D01*
X206333756Y-106476076D01*
X206333758Y-106476077D01*
X206333767Y-106476083D01*
X206348133Y-106482033D01*
X206348135Y-106482035D01*
X206348136Y-106482035D01*
X206375632Y-106493424D01*
X206447965Y-106523386D01*
X206529370Y-106539578D01*
X206569192Y-106547499D01*
X206569196Y-106547500D01*
X206569197Y-106547500D01*
X206629424Y-106547500D01*
X206692545Y-106564768D01*
X206824607Y-106642869D01*
X206865268Y-106654682D01*
X206978791Y-106687664D01*
X206978794Y-106687664D01*
X206978796Y-106687665D01*
X207014819Y-106690500D01*
X207513180Y-106690499D01*
X207549204Y-106687665D01*
X207703393Y-106642869D01*
X207835455Y-106564768D01*
X207898576Y-106547500D01*
X208085804Y-106547500D01*
X208085805Y-106547499D01*
X208207035Y-106523386D01*
X208306863Y-106482035D01*
X208321233Y-106476083D01*
X208424008Y-106407411D01*
X208511411Y-106320008D01*
X209503600Y-105327819D01*
X209564923Y-105294334D01*
X209591281Y-105291500D01*
X209667432Y-105291500D01*
X209734471Y-105311185D01*
G37*
%TD.AperFunction*%
%TA.AperFunction,Conductor*%
G36*
X176018000Y-106614000D02*
G01*
X177154341Y-106614000D01*
X177221380Y-106633685D01*
X177267135Y-106686489D01*
X177277280Y-106754186D01*
X177275987Y-106763999D01*
X177275988Y-106764000D01*
X177318500Y-106764000D01*
X177385539Y-106783685D01*
X177416875Y-106812513D01*
X177439715Y-106842279D01*
X177439716Y-106842280D01*
X177439718Y-106842282D01*
X177565159Y-106938536D01*
X177565160Y-106938536D01*
X177569184Y-106941624D01*
X177610386Y-106998052D01*
X177614541Y-107067798D01*
X177580329Y-107128719D01*
X177518611Y-107161471D01*
X177493697Y-107164000D01*
X177319362Y-107164000D01*
X177252323Y-107144315D01*
X177231681Y-107127681D01*
X177218000Y-107114000D01*
X176018000Y-107114000D01*
X176018000Y-108714000D01*
X175518000Y-108714000D01*
X175518000Y-102614000D01*
X176018000Y-102614000D01*
X176018000Y-106614000D01*
G37*
%TD.AperFunction*%
%TA.AperFunction,Conductor*%
G36*
X200777348Y-106233992D02*
G01*
X200785084Y-106237197D01*
X200857966Y-106267386D01*
X200979192Y-106291499D01*
X200979196Y-106291500D01*
X200979197Y-106291500D01*
X201999719Y-106291500D01*
X202066758Y-106311185D01*
X202087400Y-106327819D01*
X202168144Y-106408563D01*
X202201629Y-106469886D01*
X202196645Y-106539578D01*
X202187201Y-106559356D01*
X202183505Y-106565605D01*
X202183504Y-106565609D01*
X202138358Y-106721001D01*
X202138356Y-106721008D01*
X202135500Y-106757302D01*
X202135500Y-107166697D01*
X202138356Y-107202991D01*
X202138357Y-107202997D01*
X202183504Y-107358390D01*
X202183507Y-107358397D01*
X202195910Y-107379370D01*
X202213093Y-107447094D01*
X202195912Y-107505608D01*
X202183968Y-107525804D01*
X202141496Y-107672000D01*
X202447648Y-107672000D01*
X202510766Y-107689267D01*
X202519605Y-107694494D01*
X202519608Y-107694494D01*
X202519610Y-107694496D01*
X202675002Y-107739642D01*
X202675005Y-107739642D01*
X202675007Y-107739643D01*
X202711310Y-107742500D01*
X202711318Y-107742500D01*
X203072000Y-107742500D01*
X203139039Y-107762185D01*
X203184794Y-107814989D01*
X203196000Y-107866500D01*
X203196000Y-108048000D01*
X203176315Y-108115039D01*
X203123511Y-108160794D01*
X203072000Y-108172000D01*
X202141496Y-108172000D01*
X202183968Y-108318195D01*
X202235529Y-108405379D01*
X202252712Y-108473103D01*
X202230552Y-108539365D01*
X202176086Y-108583129D01*
X202128797Y-108592500D01*
X201827230Y-108592500D01*
X201760191Y-108572815D01*
X201714436Y-108520011D01*
X201704492Y-108450853D01*
X201721692Y-108403402D01*
X201813544Y-108254488D01*
X201813547Y-108254481D01*
X201866855Y-108093606D01*
X201876999Y-107994322D01*
X201877000Y-107994309D01*
X201877000Y-107946000D01*
X200801000Y-107946000D01*
X200733961Y-107926315D01*
X200688206Y-107873511D01*
X200677000Y-107822000D01*
X200677000Y-107446000D01*
X201177000Y-107446000D01*
X201876999Y-107446000D01*
X201876999Y-107397692D01*
X201876998Y-107397677D01*
X201866855Y-107298392D01*
X201813547Y-107137518D01*
X201813542Y-107137507D01*
X201724575Y-106993271D01*
X201724572Y-106993267D01*
X201604732Y-106873427D01*
X201604728Y-106873424D01*
X201460492Y-106784457D01*
X201460481Y-106784452D01*
X201299606Y-106731144D01*
X201200322Y-106721000D01*
X201177000Y-106721000D01*
X201177000Y-107446000D01*
X200677000Y-107446000D01*
X200677000Y-106720999D01*
X200653693Y-106721000D01*
X200653669Y-106721002D01*
X200586560Y-106727857D01*
X200517868Y-106715087D01*
X200466984Y-106667206D01*
X200450064Y-106599415D01*
X200472481Y-106533239D01*
X200486280Y-106516817D01*
X200519714Y-106483383D01*
X200519721Y-106483374D01*
X200602030Y-106344196D01*
X200610814Y-106313961D01*
X200648419Y-106255074D01*
X200711891Y-106225866D01*
X200777348Y-106233992D01*
G37*
%TD.AperFunction*%
%TA.AperFunction,Conductor*%
G36*
X194844538Y-106233658D02*
G01*
X194890293Y-106286462D01*
X194901499Y-106337973D01*
X194901499Y-106765843D01*
X194901500Y-106765849D01*
X194907907Y-106825456D01*
X194958201Y-106960301D01*
X194958202Y-106960302D01*
X194958203Y-106960304D01*
X195044453Y-107075519D01*
X195056309Y-107084394D01*
X195098182Y-107140326D01*
X195106001Y-107183663D01*
X195106001Y-107217973D01*
X195157829Y-107217973D01*
X195157845Y-107217972D01*
X195217373Y-107211571D01*
X195224930Y-107209786D01*
X195225599Y-107212621D01*
X195281624Y-107208605D01*
X195288829Y-107210720D01*
X195294509Y-107212062D01*
X195294511Y-107212062D01*
X195294516Y-107212064D01*
X195354126Y-107218473D01*
X195957871Y-107218472D01*
X196017482Y-107212064D01*
X196021085Y-107210720D01*
X196102598Y-107180318D01*
X196145931Y-107172500D01*
X198312189Y-107172500D01*
X198379228Y-107192185D01*
X198424983Y-107244989D01*
X198435546Y-107309101D01*
X198432763Y-107336350D01*
X198430207Y-107361366D01*
X198403810Y-107426058D01*
X198394531Y-107436443D01*
X198171792Y-107659182D01*
X198110472Y-107692666D01*
X198084113Y-107695500D01*
X191670322Y-107695500D01*
X191603283Y-107675815D01*
X191557528Y-107623011D01*
X191547102Y-107585383D01*
X191539369Y-107516750D01*
X191539368Y-107516748D01*
X191539368Y-107516745D01*
X191479789Y-107346478D01*
X191473425Y-107336350D01*
X191449140Y-107297700D01*
X191430139Y-107230463D01*
X191450506Y-107163628D01*
X191478650Y-107133349D01*
X191481297Y-107131316D01*
X191481304Y-107131313D01*
X191548325Y-107064292D01*
X191609648Y-107030807D01*
X191636006Y-107027973D01*
X191746793Y-107027973D01*
X191813832Y-107047658D01*
X191837623Y-107069808D01*
X191838184Y-107069248D01*
X191844456Y-107075520D01*
X191959665Y-107161766D01*
X191959672Y-107161770D01*
X191988441Y-107172500D01*
X192094518Y-107212064D01*
X192154128Y-107218473D01*
X192757873Y-107218472D01*
X192817484Y-107212064D01*
X192825029Y-107210281D01*
X192825605Y-107212721D01*
X192883063Y-107208608D01*
X192887102Y-107209794D01*
X192894623Y-107211571D01*
X192954154Y-107217972D01*
X192954171Y-107217973D01*
X193005999Y-107217973D01*
X193505999Y-107217973D01*
X193557827Y-107217973D01*
X193557843Y-107217972D01*
X193617371Y-107211571D01*
X193624928Y-107209786D01*
X193625548Y-107212410D01*
X193682330Y-107208337D01*
X193688082Y-107210025D01*
X193694624Y-107211571D01*
X193754155Y-107217972D01*
X193754172Y-107217973D01*
X193806000Y-107217973D01*
X194306000Y-107217973D01*
X194357828Y-107217973D01*
X194357844Y-107217972D01*
X194417372Y-107211571D01*
X194424929Y-107209786D01*
X194425549Y-107212410D01*
X194482331Y-107208337D01*
X194488083Y-107210025D01*
X194494625Y-107211571D01*
X194554156Y-107217972D01*
X194554173Y-107217973D01*
X194606001Y-107217973D01*
X194606001Y-106713973D01*
X194306000Y-106713973D01*
X194306000Y-107217973D01*
X193806000Y-107217973D01*
X193806000Y-106713973D01*
X193505999Y-106713973D01*
X193505999Y-107217973D01*
X193005999Y-107217973D01*
X193005999Y-107183663D01*
X193025684Y-107116624D01*
X193055689Y-107084395D01*
X193067547Y-107075519D01*
X193153797Y-106960304D01*
X193204092Y-106825456D01*
X193210501Y-106765846D01*
X193210500Y-106337972D01*
X193230184Y-106270934D01*
X193282988Y-106225179D01*
X193334500Y-106213973D01*
X194777499Y-106213973D01*
X194844538Y-106233658D01*
G37*
%TD.AperFunction*%
%TA.AperFunction,Conductor*%
G36*
X192722440Y-99571660D02*
G01*
X192727229Y-99574285D01*
X192839317Y-99639000D01*
X192839319Y-99639001D01*
X192839318Y-99639001D01*
X192842310Y-99640728D01*
X192842894Y-99641065D01*
X192986338Y-99679501D01*
X192986340Y-99679501D01*
X193142439Y-99679501D01*
X193142455Y-99679500D01*
X193321157Y-99679500D01*
X193388196Y-99699185D01*
X193433951Y-99751989D01*
X193443895Y-99821147D01*
X193414870Y-99884703D01*
X193364490Y-99919682D01*
X193242171Y-99965303D01*
X193242164Y-99965307D01*
X193126955Y-100051553D01*
X193126952Y-100051556D01*
X193040706Y-100166765D01*
X193040702Y-100166772D01*
X193000719Y-100273975D01*
X192990409Y-100301618D01*
X192984000Y-100361228D01*
X192984000Y-100361235D01*
X192984000Y-100361236D01*
X192984000Y-100888771D01*
X192984001Y-100888775D01*
X192989158Y-100936745D01*
X192989158Y-100963251D01*
X192984000Y-101011226D01*
X192984000Y-101011231D01*
X192984000Y-101011232D01*
X192984000Y-101241937D01*
X192964315Y-101308976D01*
X192911511Y-101354731D01*
X192892094Y-101361711D01*
X192753610Y-101398818D01*
X192751302Y-101399436D01*
X192622698Y-101473686D01*
X192622692Y-101473690D01*
X192080689Y-102015693D01*
X192080685Y-102015699D01*
X192022333Y-102116768D01*
X192006436Y-102144301D01*
X192006435Y-102144303D01*
X192006435Y-102144304D01*
X191974973Y-102261727D01*
X191969595Y-102281798D01*
X191969591Y-102281812D01*
X191968000Y-102287747D01*
X191968000Y-103579252D01*
X191985383Y-103644127D01*
X192006435Y-103722697D01*
X192006436Y-103722698D01*
X192009221Y-103727522D01*
X192080687Y-103851304D01*
X192080689Y-103851306D01*
X192140752Y-103911369D01*
X192174237Y-103972692D01*
X192169253Y-104042384D01*
X192127381Y-104098317D01*
X192096404Y-104115232D01*
X191959672Y-104166229D01*
X191959665Y-104166233D01*
X191844456Y-104252479D01*
X191838184Y-104258752D01*
X191836743Y-104257311D01*
X191790127Y-104292209D01*
X191746793Y-104300027D01*
X190766556Y-104300027D01*
X190699517Y-104280342D01*
X190659824Y-104239149D01*
X190635135Y-104197402D01*
X190635132Y-104197399D01*
X190635130Y-104197396D01*
X190521603Y-104083869D01*
X190521595Y-104083863D01*
X190383393Y-104002131D01*
X190383388Y-104002129D01*
X190229208Y-103957335D01*
X190229202Y-103957334D01*
X190193181Y-103954500D01*
X189794830Y-103954500D01*
X189794808Y-103954501D01*
X189758794Y-103957335D01*
X189604611Y-104002129D01*
X189604604Y-104002132D01*
X189547119Y-104036128D01*
X189479395Y-104053309D01*
X189420881Y-104036128D01*
X189363395Y-104002132D01*
X189363388Y-104002129D01*
X189209208Y-103957335D01*
X189209202Y-103957334D01*
X189173181Y-103954500D01*
X188774830Y-103954500D01*
X188774808Y-103954501D01*
X188738794Y-103957335D01*
X188584611Y-104002129D01*
X188584608Y-104002130D01*
X188522332Y-104038960D01*
X188454608Y-104056141D01*
X188436094Y-104049949D01*
X188437308Y-104059044D01*
X188407637Y-104122300D01*
X188402438Y-104127828D01*
X188332866Y-104197400D01*
X188332863Y-104197404D01*
X188251131Y-104335606D01*
X188251129Y-104335611D01*
X188206335Y-104489791D01*
X188206334Y-104489797D01*
X188203500Y-104525811D01*
X188203500Y-105024169D01*
X188203501Y-105024191D01*
X188206335Y-105060203D01*
X188214576Y-105088568D01*
X188219500Y-105123164D01*
X188219500Y-106458832D01*
X188214577Y-106493424D01*
X188206336Y-106521789D01*
X188206334Y-106521802D01*
X188203500Y-106557811D01*
X188203500Y-107056169D01*
X188203501Y-107056194D01*
X188203941Y-107061775D01*
X188189575Y-107130152D01*
X188140522Y-107179907D01*
X188080323Y-107195500D01*
X187017479Y-107195500D01*
X186950440Y-107175815D01*
X186904685Y-107123011D01*
X186894741Y-107053853D01*
X186923766Y-106990297D01*
X186929798Y-106983819D01*
X186953313Y-106960304D01*
X186953313Y-106960302D01*
X186963517Y-106950099D01*
X186963521Y-106950094D01*
X187026094Y-106887521D01*
X187026099Y-106887517D01*
X187036302Y-106877313D01*
X187036304Y-106877313D01*
X187141313Y-106772304D01*
X187188852Y-106689965D01*
X187215563Y-106643700D01*
X187215563Y-106643698D01*
X187215565Y-106643696D01*
X187227778Y-106598117D01*
X187254000Y-106500253D01*
X187254000Y-106351748D01*
X187254000Y-104056959D01*
X187273685Y-103989920D01*
X187326489Y-103944165D01*
X187395647Y-103934221D01*
X187443970Y-103951964D01*
X187476958Y-103972692D01*
X187483478Y-103976789D01*
X187653745Y-104036368D01*
X187653750Y-104036369D01*
X187832996Y-104056565D01*
X187833000Y-104056565D01*
X187833004Y-104056565D01*
X188012249Y-104036369D01*
X188012252Y-104036368D01*
X188012255Y-104036368D01*
X188182522Y-103976789D01*
X188189043Y-103972692D01*
X188221768Y-103952129D01*
X188248784Y-103935153D01*
X188316019Y-103916153D01*
X188338592Y-103923031D01*
X188337214Y-103910035D01*
X188368579Y-103847601D01*
X188371474Y-103844603D01*
X188462816Y-103753262D01*
X188558789Y-103600522D01*
X188618368Y-103430255D01*
X188619790Y-103417639D01*
X188634013Y-103291397D01*
X188636327Y-103270861D01*
X188663393Y-103206448D01*
X188720988Y-103166893D01*
X188790825Y-103164755D01*
X188833858Y-103185479D01*
X188899006Y-103234249D01*
X188899013Y-103234253D01*
X189033720Y-103284495D01*
X189033727Y-103284497D01*
X189093255Y-103290898D01*
X189093272Y-103290899D01*
X189636400Y-103290899D01*
X189636400Y-102765400D01*
X189656085Y-102698361D01*
X189708889Y-102652606D01*
X189760397Y-102641400D01*
X189944201Y-102641400D01*
X190011239Y-102661085D01*
X190056994Y-102713889D01*
X190068200Y-102765400D01*
X190068200Y-103290899D01*
X190611328Y-103290899D01*
X190611344Y-103290898D01*
X190670872Y-103284497D01*
X190670879Y-103284495D01*
X190805586Y-103234253D01*
X190805593Y-103234249D01*
X190920687Y-103148089D01*
X190920690Y-103148086D01*
X191006850Y-103032992D01*
X191006854Y-103032985D01*
X191057096Y-102898278D01*
X191057098Y-102898271D01*
X191063499Y-102838743D01*
X191063500Y-102838726D01*
X191063500Y-102790899D01*
X190902938Y-102790899D01*
X190835899Y-102771214D01*
X190790144Y-102718410D01*
X190780200Y-102649252D01*
X190809225Y-102585696D01*
X190828626Y-102567633D01*
X190843932Y-102556174D01*
X190921046Y-102498447D01*
X190974381Y-102427201D01*
X190988166Y-102408787D01*
X191044100Y-102366917D01*
X191058231Y-102364367D01*
X191063500Y-102359099D01*
X191063500Y-102311271D01*
X191063499Y-102311257D01*
X191058590Y-102265603D01*
X191058590Y-102239090D01*
X191059030Y-102235003D01*
X191064000Y-102188774D01*
X191063999Y-101962998D01*
X191083683Y-101895960D01*
X191136487Y-101850205D01*
X191187999Y-101838999D01*
X191661252Y-101838999D01*
X191661254Y-101838999D01*
X191804697Y-101800564D01*
X191809138Y-101798000D01*
X191933305Y-101726312D01*
X192038314Y-101621303D01*
X192094313Y-101565304D01*
X192168565Y-101436696D01*
X192173524Y-101418189D01*
X192174308Y-101415266D01*
X192188657Y-101361712D01*
X192207001Y-101293252D01*
X192207001Y-101144747D01*
X192207001Y-101137152D01*
X192207000Y-101137134D01*
X192207000Y-100180354D01*
X192226685Y-100113315D01*
X192265029Y-100075360D01*
X192272262Y-100070816D01*
X192399816Y-99943262D01*
X192495789Y-99790522D01*
X192548204Y-99640727D01*
X192588926Y-99583952D01*
X192653878Y-99558204D01*
X192722440Y-99571660D01*
G37*
%TD.AperFunction*%
%TA.AperFunction,Conductor*%
G36*
X197274332Y-105250796D02*
G01*
X197318681Y-105279297D01*
X197872203Y-105832819D01*
X197905688Y-105894142D01*
X197900704Y-105963834D01*
X197858832Y-106019767D01*
X197793368Y-106044184D01*
X197784522Y-106044500D01*
X196533946Y-106044500D01*
X196466907Y-106024815D01*
X196421152Y-105972011D01*
X196409946Y-105920500D01*
X196409946Y-105914000D01*
X196375708Y-105914000D01*
X196308669Y-105894315D01*
X196276442Y-105864311D01*
X196267545Y-105852427D01*
X196152330Y-105766177D01*
X196152328Y-105766176D01*
X196148442Y-105763267D01*
X196106571Y-105707333D01*
X196101587Y-105637641D01*
X196135072Y-105576318D01*
X196148442Y-105564733D01*
X196152328Y-105561823D01*
X196152330Y-105561823D01*
X196267545Y-105475573D01*
X196267547Y-105475569D01*
X196273816Y-105469302D01*
X196275256Y-105470742D01*
X196321873Y-105435845D01*
X196365207Y-105428027D01*
X196835224Y-105428027D01*
X196835226Y-105428027D01*
X196978669Y-105389592D01*
X196993675Y-105380928D01*
X197107277Y-105315340D01*
X197143320Y-105279296D01*
X197204640Y-105245812D01*
X197274332Y-105250796D01*
G37*
%TD.AperFunction*%
%TA.AperFunction,Conductor*%
G36*
X191813832Y-105447712D02*
G01*
X191837623Y-105469862D01*
X191838184Y-105469302D01*
X191844456Y-105475574D01*
X191963557Y-105564734D01*
X192005428Y-105620668D01*
X192010412Y-105690359D01*
X191976926Y-105751682D01*
X191963557Y-105763266D01*
X191844456Y-105852425D01*
X191838184Y-105858698D01*
X191836743Y-105857257D01*
X191790127Y-105892155D01*
X191746793Y-105899973D01*
X191276774Y-105899973D01*
X191199188Y-105920761D01*
X191199188Y-105920762D01*
X191177235Y-105926644D01*
X191133329Y-105938408D01*
X191104996Y-105954767D01*
X191037095Y-105971238D01*
X190971069Y-105948385D01*
X190927879Y-105893464D01*
X190919777Y-105833495D01*
X190924565Y-105791002D01*
X190924565Y-105790996D01*
X190904369Y-105611750D01*
X190904368Y-105611748D01*
X190904368Y-105611745D01*
X190897802Y-105592983D01*
X190894240Y-105523205D01*
X190928968Y-105462577D01*
X190990961Y-105430349D01*
X191014844Y-105428027D01*
X191746793Y-105428027D01*
X191813832Y-105447712D01*
G37*
%TD.AperFunction*%
%TA.AperFunction,Conductor*%
G36*
X180504359Y-105348861D02*
G01*
X180552081Y-105380872D01*
X180582704Y-105414000D01*
X180848185Y-105414000D01*
X180911306Y-105431268D01*
X180969602Y-105465744D01*
X180981849Y-105469302D01*
X181127426Y-105511597D01*
X181127429Y-105511597D01*
X181127431Y-105511598D01*
X181164306Y-105514500D01*
X181164314Y-105514500D01*
X181868500Y-105514500D01*
X181935539Y-105534185D01*
X181981294Y-105586989D01*
X181992500Y-105638500D01*
X181992500Y-105689500D01*
X181972815Y-105756539D01*
X181920011Y-105802294D01*
X181868500Y-105813500D01*
X181164298Y-105813500D01*
X181127432Y-105816401D01*
X181127426Y-105816402D01*
X180969606Y-105862254D01*
X180969603Y-105862255D01*
X180911306Y-105896732D01*
X180848185Y-105914000D01*
X180642068Y-105914000D01*
X180575029Y-105894315D01*
X180554387Y-105877681D01*
X180301387Y-105624681D01*
X180267902Y-105563358D01*
X180272886Y-105493666D01*
X180301385Y-105449321D01*
X180373346Y-105377360D01*
X180434667Y-105343877D01*
X180504359Y-105348861D01*
G37*
%TD.AperFunction*%
%TA.AperFunction,Conductor*%
G36*
X193793028Y-85870090D02*
G01*
X193839956Y-85921854D01*
X193851704Y-85988487D01*
X193843000Y-86073677D01*
X193843000Y-86097000D01*
X194944000Y-86097000D01*
X195011039Y-86116685D01*
X195056794Y-86169489D01*
X195068000Y-86221000D01*
X195068000Y-86473000D01*
X195048315Y-86540039D01*
X194995511Y-86585794D01*
X194944000Y-86597000D01*
X193843001Y-86597000D01*
X193843001Y-86620322D01*
X193853144Y-86719607D01*
X193906452Y-86880481D01*
X193906457Y-86880492D01*
X193995424Y-87024728D01*
X193995427Y-87024732D01*
X194004660Y-87033965D01*
X194038145Y-87095288D01*
X194033161Y-87164980D01*
X194004663Y-87209324D01*
X193995033Y-87218953D01*
X193995029Y-87218959D01*
X193906001Y-87363294D01*
X193905996Y-87363305D01*
X193852651Y-87524290D01*
X193842500Y-87623647D01*
X193842500Y-87756521D01*
X193822815Y-87823560D01*
X193806185Y-87844197D01*
X193758992Y-87891391D01*
X193714639Y-87935744D01*
X193653315Y-87969228D01*
X193640841Y-87971282D01*
X193604185Y-87975412D01*
X193535363Y-87963357D01*
X193483984Y-87916008D01*
X193466360Y-87848398D01*
X193466682Y-87842496D01*
X193469500Y-87806690D01*
X193469500Y-87397310D01*
X193466643Y-87361007D01*
X193464141Y-87352396D01*
X193421495Y-87205609D01*
X193421494Y-87205605D01*
X193413791Y-87192580D01*
X193409089Y-87184630D01*
X193391906Y-87116909D01*
X193409091Y-87058384D01*
X193421032Y-87038194D01*
X193463504Y-86892000D01*
X193157352Y-86892000D01*
X193094233Y-86874732D01*
X193085395Y-86869506D01*
X193085393Y-86869505D01*
X193085389Y-86869503D01*
X192929997Y-86824357D01*
X192929991Y-86824356D01*
X192893697Y-86821500D01*
X192893690Y-86821500D01*
X192424310Y-86821500D01*
X192424302Y-86821500D01*
X192388008Y-86824356D01*
X192388002Y-86824357D01*
X192232610Y-86869503D01*
X192232605Y-86869506D01*
X192223766Y-86874732D01*
X192160648Y-86892000D01*
X191760352Y-86892000D01*
X191697233Y-86874732D01*
X191688395Y-86869506D01*
X191688393Y-86869505D01*
X191688389Y-86869503D01*
X191532997Y-86824357D01*
X191532991Y-86824356D01*
X191496697Y-86821500D01*
X191496690Y-86821500D01*
X191027310Y-86821500D01*
X191027302Y-86821500D01*
X190991008Y-86824356D01*
X190991002Y-86824357D01*
X190835610Y-86869503D01*
X190835605Y-86869506D01*
X190826766Y-86874732D01*
X190763648Y-86892000D01*
X190457494Y-86892000D01*
X190431465Y-86926667D01*
X190375471Y-86968458D01*
X190305773Y-86973342D01*
X190304717Y-86973106D01*
X190298254Y-86971631D01*
X190119004Y-86951435D01*
X190118996Y-86951435D01*
X189939750Y-86971630D01*
X189939745Y-86971631D01*
X189769476Y-87031211D01*
X189616737Y-87127184D01*
X189489184Y-87254737D01*
X189393211Y-87407476D01*
X189333631Y-87577745D01*
X189333630Y-87577750D01*
X189313435Y-87756996D01*
X189313435Y-87757003D01*
X189333630Y-87936249D01*
X189333631Y-87936254D01*
X189393211Y-88106523D01*
X189421049Y-88150826D01*
X189489184Y-88259262D01*
X189616738Y-88386816D01*
X189769478Y-88482789D01*
X189924107Y-88536896D01*
X189939745Y-88542368D01*
X189939750Y-88542369D01*
X190118996Y-88562565D01*
X190119000Y-88562565D01*
X190119004Y-88562565D01*
X190298249Y-88542369D01*
X190298249Y-88542368D01*
X190298255Y-88542368D01*
X190303702Y-88540461D01*
X190373479Y-88536896D01*
X190434109Y-88571620D01*
X190466340Y-88633612D01*
X190467883Y-88671384D01*
X190456435Y-88772995D01*
X190456435Y-88773003D01*
X190476630Y-88952249D01*
X190476631Y-88952254D01*
X190536211Y-89122523D01*
X190589778Y-89207774D01*
X190608778Y-89275011D01*
X190588410Y-89341846D01*
X190535142Y-89387060D01*
X190532238Y-89388307D01*
X190451573Y-89421720D01*
X190451571Y-89421721D01*
X190333964Y-89511964D01*
X190267257Y-89598899D01*
X190243719Y-89629574D01*
X190186991Y-89766527D01*
X190186990Y-89766529D01*
X190172501Y-89876589D01*
X190172500Y-89876605D01*
X190172500Y-90226500D01*
X190152815Y-90293539D01*
X190100011Y-90339294D01*
X190048500Y-90350500D01*
X189698596Y-90350500D01*
X189588536Y-90364988D01*
X189588527Y-90364991D01*
X189451574Y-90421719D01*
X189333964Y-90511964D01*
X189243719Y-90629574D01*
X189186991Y-90766527D01*
X189186990Y-90766529D01*
X189172500Y-90876598D01*
X189172500Y-91075403D01*
X189186989Y-91185468D01*
X189189094Y-91193322D01*
X189185814Y-91194200D01*
X189191581Y-91248073D01*
X189188517Y-91258522D01*
X189189095Y-91258677D01*
X189186990Y-91266529D01*
X189172500Y-91376598D01*
X189172500Y-91575403D01*
X189186989Y-91685468D01*
X189189094Y-91693322D01*
X189185814Y-91694200D01*
X189191581Y-91748073D01*
X189188517Y-91758522D01*
X189189095Y-91758677D01*
X189186990Y-91766529D01*
X189172500Y-91876598D01*
X189172500Y-92075403D01*
X189186989Y-92185468D01*
X189189094Y-92193322D01*
X189185814Y-92194200D01*
X189191581Y-92248073D01*
X189188517Y-92258522D01*
X189189095Y-92258677D01*
X189186990Y-92266529D01*
X189172500Y-92376598D01*
X189172500Y-92575403D01*
X189186989Y-92685468D01*
X189189094Y-92693322D01*
X189185814Y-92694200D01*
X189191581Y-92748073D01*
X189188517Y-92758522D01*
X189189095Y-92758677D01*
X189186990Y-92766529D01*
X189172500Y-92876598D01*
X189172500Y-93075403D01*
X189186989Y-93185468D01*
X189189094Y-93193322D01*
X189185814Y-93194200D01*
X189191581Y-93248073D01*
X189188517Y-93258522D01*
X189189095Y-93258677D01*
X189186990Y-93266529D01*
X189172500Y-93376598D01*
X189172500Y-93575403D01*
X189186989Y-93685468D01*
X189189094Y-93693322D01*
X189185814Y-93694200D01*
X189191581Y-93748073D01*
X189188517Y-93758522D01*
X189189095Y-93758677D01*
X189186991Y-93766528D01*
X189182033Y-93804187D01*
X189153766Y-93868083D01*
X189095441Y-93906553D01*
X189059094Y-93912000D01*
X187718431Y-93912000D01*
X187718415Y-93911999D01*
X187710819Y-93911999D01*
X187562314Y-93911999D01*
X187430629Y-93947284D01*
X187418866Y-93950436D01*
X187290265Y-94024684D01*
X187290259Y-94024689D01*
X183952688Y-97362260D01*
X183884712Y-97479998D01*
X183878435Y-97490868D01*
X183878435Y-97490869D01*
X183847319Y-97606998D01*
X183840000Y-97634311D01*
X183840000Y-98482627D01*
X183820315Y-98549666D01*
X183767511Y-98595421D01*
X183698353Y-98605365D01*
X183634797Y-98576340D01*
X183628319Y-98570308D01*
X183577550Y-98519539D01*
X183577546Y-98519536D01*
X183463591Y-98443393D01*
X183463578Y-98443386D01*
X183336961Y-98390940D01*
X183336949Y-98390937D01*
X183202534Y-98364200D01*
X183202530Y-98364200D01*
X183065470Y-98364200D01*
X183065465Y-98364200D01*
X182931050Y-98390937D01*
X182931038Y-98390940D01*
X182804421Y-98443386D01*
X182804408Y-98443393D01*
X182690453Y-98519536D01*
X182690449Y-98519539D01*
X182593539Y-98616449D01*
X182593536Y-98616453D01*
X182517393Y-98730408D01*
X182517386Y-98730421D01*
X182464940Y-98857038D01*
X182464937Y-98857050D01*
X182438200Y-98991465D01*
X182438200Y-99128534D01*
X182464937Y-99262949D01*
X182464940Y-99262961D01*
X182517386Y-99389578D01*
X182517393Y-99389591D01*
X182593536Y-99503546D01*
X182593539Y-99503550D01*
X182690449Y-99600460D01*
X182690453Y-99600463D01*
X182804408Y-99676606D01*
X182804421Y-99676613D01*
X182919805Y-99724406D01*
X182931043Y-99729061D01*
X183046311Y-99751989D01*
X183065465Y-99755799D01*
X183065469Y-99755800D01*
X183065470Y-99755800D01*
X183202531Y-99755800D01*
X183202532Y-99755799D01*
X183336957Y-99729061D01*
X183463585Y-99676610D01*
X183577547Y-99600463D01*
X183600697Y-99577313D01*
X183628319Y-99549692D01*
X183689642Y-99516207D01*
X183759334Y-99521191D01*
X183815267Y-99563063D01*
X183839684Y-99628527D01*
X183840000Y-99637373D01*
X183840000Y-101615560D01*
X183820315Y-101682599D01*
X183803681Y-101703241D01*
X183774184Y-101732737D01*
X183678211Y-101885476D01*
X183618631Y-102055745D01*
X183618630Y-102055750D01*
X183598435Y-102234996D01*
X183598435Y-102235003D01*
X183618630Y-102414249D01*
X183618631Y-102414254D01*
X183678211Y-102584523D01*
X183762338Y-102718410D01*
X183774184Y-102737262D01*
X183901738Y-102864816D01*
X183960085Y-102901478D01*
X184030516Y-102945733D01*
X184054478Y-102960789D01*
X184176722Y-103003564D01*
X184224745Y-103020368D01*
X184224750Y-103020369D01*
X184403996Y-103040565D01*
X184404000Y-103040565D01*
X184404004Y-103040565D01*
X184570576Y-103021797D01*
X184639397Y-103033851D01*
X184690777Y-103081201D01*
X184691191Y-103081895D01*
X184728865Y-103145598D01*
X184728867Y-103145600D01*
X184728869Y-103145603D01*
X184819681Y-103236415D01*
X184853166Y-103297738D01*
X184856000Y-103324096D01*
X184856000Y-103816162D01*
X184836315Y-103883201D01*
X184783511Y-103928956D01*
X184714353Y-103938900D01*
X184697405Y-103935238D01*
X184632573Y-103916402D01*
X184632567Y-103916401D01*
X184595701Y-103913500D01*
X184595694Y-103913500D01*
X183439306Y-103913500D01*
X183439298Y-103913500D01*
X183402432Y-103916401D01*
X183402426Y-103916402D01*
X183244606Y-103962254D01*
X183244603Y-103962255D01*
X183103137Y-104045917D01*
X183103129Y-104045923D01*
X182986923Y-104162129D01*
X182986914Y-104162140D01*
X182986729Y-104162455D01*
X182986519Y-104162650D01*
X182982139Y-104168298D01*
X182981227Y-104167591D01*
X182935657Y-104210136D01*
X182866915Y-104222637D01*
X182802327Y-104195988D01*
X182778143Y-104168078D01*
X182777861Y-104168298D01*
X182773823Y-104163092D01*
X182773271Y-104162455D01*
X182773085Y-104162140D01*
X182773076Y-104162129D01*
X182656870Y-104045923D01*
X182656862Y-104045917D01*
X182508683Y-103958285D01*
X182510229Y-103955669D01*
X182467415Y-103920050D01*
X182446389Y-103853419D01*
X182464724Y-103785998D01*
X182488606Y-103759008D01*
X182488338Y-103758740D01*
X182492736Y-103754341D01*
X182493059Y-103753977D01*
X182493251Y-103753822D01*
X182493262Y-103753816D01*
X182620816Y-103626262D01*
X182716789Y-103473522D01*
X182776368Y-103303255D01*
X182777605Y-103292275D01*
X182796565Y-103124003D01*
X182796565Y-103123996D01*
X182776369Y-102944750D01*
X182776368Y-102944745D01*
X182760106Y-102898271D01*
X182716789Y-102774478D01*
X182700615Y-102748738D01*
X182645539Y-102661085D01*
X182620816Y-102621738D01*
X182493262Y-102494184D01*
X182340522Y-102398211D01*
X182340521Y-102398210D01*
X182334627Y-102394507D01*
X182335131Y-102393704D01*
X182309640Y-102375615D01*
X179952818Y-100018793D01*
X179919333Y-99957470D01*
X179916499Y-99931120D01*
X179916499Y-99420656D01*
X179913324Y-99389578D01*
X179906349Y-99321292D01*
X179906348Y-99321289D01*
X179880868Y-99244395D01*
X179853003Y-99160303D01*
X179852999Y-99160297D01*
X179852998Y-99160294D01*
X179763970Y-99015959D01*
X179763967Y-99015955D01*
X179644044Y-98896032D01*
X179644040Y-98896029D01*
X179499705Y-98807001D01*
X179499699Y-98806998D01*
X179499697Y-98806997D01*
X179493670Y-98805000D01*
X179338709Y-98753651D01*
X179239346Y-98743500D01*
X178392662Y-98743500D01*
X178392644Y-98743501D01*
X178293292Y-98753650D01*
X178293289Y-98753651D01*
X178132305Y-98806996D01*
X178132294Y-98807001D01*
X177987959Y-98896029D01*
X177987955Y-98896032D01*
X177868032Y-99015955D01*
X177868029Y-99015959D01*
X177779001Y-99160294D01*
X177778996Y-99160305D01*
X177725651Y-99321290D01*
X177719114Y-99385275D01*
X177692717Y-99449967D01*
X177635536Y-99490118D01*
X177565725Y-99492981D01*
X177505449Y-99457646D01*
X177478050Y-99411676D01*
X177441547Y-99301518D01*
X177441542Y-99301507D01*
X177352575Y-99157271D01*
X177352572Y-99157267D01*
X177343339Y-99148034D01*
X177309854Y-99086711D01*
X177314838Y-99017019D01*
X177343343Y-98972668D01*
X177352968Y-98963044D01*
X177442003Y-98818697D01*
X177495349Y-98657708D01*
X177505500Y-98558345D01*
X177505499Y-98011656D01*
X177502881Y-97986031D01*
X177495349Y-97912292D01*
X177495348Y-97912289D01*
X177473615Y-97846703D01*
X177442003Y-97751303D01*
X177441999Y-97751297D01*
X177441998Y-97751294D01*
X177352970Y-97606959D01*
X177352969Y-97606958D01*
X177352968Y-97606956D01*
X177233044Y-97487032D01*
X177233043Y-97487031D01*
X177233041Y-97487029D01*
X177218107Y-97477817D01*
X180354614Y-97477817D01*
X180354614Y-97477824D01*
X180374809Y-97657070D01*
X180374810Y-97657075D01*
X180434390Y-97827344D01*
X180484663Y-97907352D01*
X180530363Y-97980083D01*
X180657917Y-98107637D01*
X180674814Y-98118254D01*
X180796570Y-98194759D01*
X180810657Y-98203610D01*
X180950677Y-98252605D01*
X180980924Y-98263189D01*
X180980929Y-98263190D01*
X181160175Y-98283386D01*
X181160179Y-98283386D01*
X181160183Y-98283386D01*
X181339428Y-98263190D01*
X181339431Y-98263189D01*
X181339434Y-98263189D01*
X181509701Y-98203610D01*
X181662441Y-98107637D01*
X181789995Y-97980083D01*
X181885968Y-97827343D01*
X181945547Y-97657076D01*
X181945548Y-97657070D01*
X181965744Y-97477824D01*
X181965744Y-97477817D01*
X181945548Y-97298571D01*
X181945547Y-97298566D01*
X181916642Y-97215961D01*
X181885968Y-97128299D01*
X181869128Y-97101499D01*
X181822001Y-97026496D01*
X181789995Y-96975559D01*
X181662441Y-96848005D01*
X181637765Y-96832500D01*
X181509702Y-96752032D01*
X181339433Y-96692452D01*
X181339428Y-96692451D01*
X181160183Y-96672256D01*
X181160175Y-96672256D01*
X180980929Y-96692451D01*
X180980924Y-96692452D01*
X180810655Y-96752032D01*
X180657916Y-96848005D01*
X180530363Y-96975558D01*
X180434390Y-97128297D01*
X180374810Y-97298566D01*
X180374809Y-97298571D01*
X180354614Y-97477817D01*
X177218107Y-97477817D01*
X177216401Y-97476765D01*
X177169678Y-97424817D01*
X177157500Y-97371228D01*
X177157500Y-97259259D01*
X177177185Y-97192220D01*
X177215528Y-97154265D01*
X177251821Y-97131461D01*
X177334863Y-97079281D01*
X177400835Y-97060276D01*
X177804901Y-97060276D01*
X177871940Y-97079961D01*
X177892582Y-97096594D01*
X177987956Y-97191968D01*
X177987958Y-97191969D01*
X177987959Y-97191970D01*
X178132294Y-97280998D01*
X178132297Y-97280999D01*
X178132303Y-97281003D01*
X178293292Y-97334349D01*
X178392655Y-97344500D01*
X179239344Y-97344499D01*
X179239352Y-97344498D01*
X179239355Y-97344498D01*
X179293760Y-97338940D01*
X179338708Y-97334349D01*
X179499697Y-97281003D01*
X179644044Y-97191968D01*
X179763968Y-97072044D01*
X179853003Y-96927697D01*
X179906349Y-96766708D01*
X179916500Y-96667345D01*
X179916499Y-96120656D01*
X179909064Y-96047875D01*
X179906349Y-96021292D01*
X179906348Y-96021289D01*
X179858403Y-95876600D01*
X179853003Y-95860303D01*
X179852999Y-95860297D01*
X179852998Y-95860294D01*
X179763970Y-95715959D01*
X179763967Y-95715955D01*
X179644044Y-95596032D01*
X179644040Y-95596029D01*
X179499705Y-95507001D01*
X179499699Y-95506998D01*
X179499697Y-95506997D01*
X179447854Y-95489818D01*
X179338709Y-95453651D01*
X179239346Y-95443500D01*
X178392662Y-95443500D01*
X178392644Y-95443501D01*
X178293292Y-95453650D01*
X178293289Y-95453651D01*
X178132305Y-95506996D01*
X178132294Y-95507001D01*
X177987959Y-95596029D01*
X177987955Y-95596032D01*
X177868032Y-95715955D01*
X177868029Y-95715959D01*
X177849270Y-95746373D01*
X177797322Y-95793098D01*
X177743732Y-95805276D01*
X177400835Y-95805276D01*
X177334863Y-95786270D01*
X177208682Y-95706985D01*
X177111445Y-95672960D01*
X177054669Y-95632239D01*
X177028922Y-95567286D01*
X177042378Y-95498724D01*
X177047399Y-95489958D01*
X177513712Y-94747824D01*
X177516751Y-94743221D01*
X178020109Y-94016668D01*
X178023375Y-94012174D01*
X178558815Y-93308944D01*
X178562245Y-93304642D01*
X179128743Y-92626087D01*
X179132356Y-92621952D01*
X179728716Y-91969508D01*
X179732519Y-91965531D01*
X180326585Y-91371465D01*
X181422200Y-91371465D01*
X181422200Y-91508534D01*
X181448937Y-91642949D01*
X181448940Y-91642961D01*
X181501386Y-91769578D01*
X181501393Y-91769591D01*
X181577536Y-91883546D01*
X181577539Y-91883550D01*
X181674449Y-91980460D01*
X181674453Y-91980463D01*
X181788408Y-92056606D01*
X181788421Y-92056613D01*
X181915038Y-92109059D01*
X181915043Y-92109061D01*
X182049465Y-92135799D01*
X182049469Y-92135800D01*
X182049470Y-92135800D01*
X182186531Y-92135800D01*
X182186532Y-92135799D01*
X182320957Y-92109061D01*
X182447585Y-92056610D01*
X182561547Y-91980463D01*
X182658463Y-91883547D01*
X182734610Y-91769585D01*
X182735878Y-91766525D01*
X182765835Y-91694200D01*
X182787061Y-91642957D01*
X182813800Y-91508530D01*
X182813800Y-91371470D01*
X182813799Y-91371465D01*
X183454200Y-91371465D01*
X183454200Y-91508534D01*
X183480937Y-91642949D01*
X183480940Y-91642961D01*
X183533386Y-91769578D01*
X183533393Y-91769591D01*
X183609536Y-91883546D01*
X183609539Y-91883550D01*
X183706449Y-91980460D01*
X183706453Y-91980463D01*
X183820408Y-92056606D01*
X183820421Y-92056613D01*
X183947038Y-92109059D01*
X183947043Y-92109061D01*
X184081465Y-92135799D01*
X184081469Y-92135800D01*
X184081470Y-92135800D01*
X184218531Y-92135800D01*
X184218532Y-92135799D01*
X184352957Y-92109061D01*
X184479585Y-92056610D01*
X184593547Y-91980463D01*
X184690463Y-91883547D01*
X184766610Y-91769585D01*
X184767878Y-91766525D01*
X184797835Y-91694200D01*
X184819061Y-91642957D01*
X184845800Y-91508530D01*
X184845800Y-91371470D01*
X184819061Y-91237043D01*
X184779265Y-91140966D01*
X184766613Y-91110421D01*
X184766606Y-91110408D01*
X184690463Y-90996453D01*
X184690460Y-90996449D01*
X184593550Y-90899539D01*
X184593546Y-90899536D01*
X184479591Y-90823393D01*
X184479578Y-90823386D01*
X184352961Y-90770940D01*
X184352949Y-90770937D01*
X184218534Y-90744200D01*
X184218530Y-90744200D01*
X184081470Y-90744200D01*
X184081465Y-90744200D01*
X183947050Y-90770937D01*
X183947038Y-90770940D01*
X183820421Y-90823386D01*
X183820408Y-90823393D01*
X183706453Y-90899536D01*
X183706449Y-90899539D01*
X183609539Y-90996449D01*
X183609536Y-90996453D01*
X183533393Y-91110408D01*
X183533386Y-91110421D01*
X183480940Y-91237038D01*
X183480937Y-91237050D01*
X183454200Y-91371465D01*
X182813799Y-91371465D01*
X182787061Y-91237043D01*
X182747265Y-91140966D01*
X182734613Y-91110421D01*
X182734606Y-91110408D01*
X182658463Y-90996453D01*
X182658460Y-90996449D01*
X182561550Y-90899539D01*
X182561546Y-90899536D01*
X182447591Y-90823393D01*
X182447578Y-90823386D01*
X182320961Y-90770940D01*
X182320949Y-90770937D01*
X182186534Y-90744200D01*
X182186530Y-90744200D01*
X182049470Y-90744200D01*
X182049465Y-90744200D01*
X181915050Y-90770937D01*
X181915038Y-90770940D01*
X181788421Y-90823386D01*
X181788408Y-90823393D01*
X181674453Y-90899536D01*
X181674449Y-90899539D01*
X181577539Y-90996449D01*
X181577536Y-90996453D01*
X181501393Y-91110408D01*
X181501386Y-91110421D01*
X181448940Y-91237038D01*
X181448937Y-91237050D01*
X181422200Y-91371465D01*
X180326585Y-91371465D01*
X180357531Y-91340519D01*
X180361508Y-91336716D01*
X181013952Y-90740356D01*
X181018087Y-90736743D01*
X181696642Y-90170245D01*
X181700944Y-90166815D01*
X182404181Y-89631369D01*
X182408676Y-89628104D01*
X182425268Y-89616609D01*
X183135221Y-89124751D01*
X183139824Y-89121712D01*
X183888262Y-88651438D01*
X183892991Y-88648613D01*
X184661750Y-88212404D01*
X184666621Y-88209782D01*
X185454208Y-87808487D01*
X185459149Y-87806108D01*
X186091499Y-87518880D01*
X186160676Y-87509078D01*
X186224173Y-87538233D01*
X186261827Y-87597088D01*
X186261685Y-87666957D01*
X186230461Y-87719460D01*
X186187184Y-87762737D01*
X186091211Y-87915476D01*
X186031631Y-88085745D01*
X186031630Y-88085750D01*
X186011435Y-88264996D01*
X186011435Y-88265003D01*
X186031630Y-88444249D01*
X186031631Y-88444254D01*
X186091211Y-88614523D01*
X186187184Y-88767262D01*
X186314738Y-88894816D01*
X186467478Y-88990789D01*
X186530425Y-89012815D01*
X186637745Y-89050368D01*
X186637750Y-89050369D01*
X186816996Y-89070565D01*
X186817000Y-89070565D01*
X186817004Y-89070565D01*
X186996249Y-89050369D01*
X186996251Y-89050368D01*
X186996255Y-89050368D01*
X186996258Y-89050366D01*
X186996262Y-89050366D01*
X187103576Y-89012815D01*
X187173355Y-89009252D01*
X187233982Y-89043981D01*
X187266210Y-89105974D01*
X187268149Y-89120130D01*
X187269335Y-89135204D01*
X187314129Y-89289388D01*
X187314131Y-89289393D01*
X187395863Y-89427595D01*
X187395869Y-89427603D01*
X187406484Y-89438218D01*
X187439969Y-89499541D01*
X187434985Y-89569233D01*
X187423797Y-89591870D01*
X187361212Y-89691474D01*
X187301631Y-89861745D01*
X187301630Y-89861750D01*
X187281435Y-90040996D01*
X187281435Y-90041003D01*
X187301630Y-90220249D01*
X187301631Y-90220254D01*
X187361211Y-90390523D01*
X187410767Y-90469390D01*
X187457184Y-90543262D01*
X187584738Y-90670816D01*
X187650755Y-90712297D01*
X187737062Y-90766528D01*
X187737478Y-90766789D01*
X187827480Y-90798282D01*
X187907745Y-90826368D01*
X187907750Y-90826369D01*
X188086996Y-90846565D01*
X188087000Y-90846565D01*
X188087004Y-90846565D01*
X188266249Y-90826369D01*
X188266252Y-90826368D01*
X188266255Y-90826368D01*
X188436522Y-90766789D01*
X188589262Y-90670816D01*
X188716816Y-90543262D01*
X188812789Y-90390522D01*
X188872368Y-90220255D01*
X188874504Y-90201300D01*
X188892565Y-90041003D01*
X188892565Y-90040996D01*
X188872369Y-89861750D01*
X188872368Y-89861745D01*
X188812788Y-89691475D01*
X188765743Y-89616605D01*
X188750201Y-89591870D01*
X188731201Y-89524635D01*
X188751568Y-89457800D01*
X188767507Y-89438225D01*
X188778135Y-89427598D01*
X188859869Y-89289393D01*
X188904665Y-89135204D01*
X188907500Y-89099181D01*
X188907499Y-88700820D01*
X188904665Y-88664796D01*
X188859869Y-88510607D01*
X188825869Y-88453117D01*
X188808688Y-88385398D01*
X188825869Y-88326882D01*
X188859869Y-88269393D01*
X188861145Y-88265003D01*
X188904664Y-88115208D01*
X188904665Y-88115202D01*
X188905862Y-88099989D01*
X188907500Y-88079181D01*
X188907499Y-87680820D01*
X188904665Y-87644796D01*
X188859869Y-87490607D01*
X188778135Y-87352402D01*
X188778133Y-87352400D01*
X188778130Y-87352396D01*
X188664603Y-87238869D01*
X188664595Y-87238863D01*
X188526393Y-87157131D01*
X188526388Y-87157129D01*
X188372208Y-87112335D01*
X188372202Y-87112334D01*
X188336181Y-87109500D01*
X187837830Y-87109500D01*
X187837805Y-87109501D01*
X187823759Y-87110607D01*
X187755382Y-87096241D01*
X187705627Y-87047188D01*
X187690290Y-86979022D01*
X187714241Y-86913386D01*
X187769876Y-86871118D01*
X187773079Y-86869948D01*
X187928826Y-86815449D01*
X187934081Y-86813741D01*
X188780631Y-86559534D01*
X188785982Y-86558057D01*
X189643045Y-86342096D01*
X189648440Y-86340864D01*
X190323196Y-86202708D01*
X190392821Y-86208545D01*
X190448238Y-86251098D01*
X190471852Y-86316857D01*
X190467146Y-86358782D01*
X190457496Y-86392000D01*
X193463504Y-86392000D01*
X193421031Y-86245804D01*
X193338721Y-86106625D01*
X193338714Y-86106616D01*
X193303237Y-86071139D01*
X193269752Y-86009816D01*
X193274736Y-85940124D01*
X193316608Y-85884191D01*
X193382072Y-85859774D01*
X193388117Y-85859489D01*
X193725567Y-85851916D01*
X193793028Y-85870090D01*
G37*
%TD.AperFunction*%
%TA.AperFunction,Conductor*%
G36*
X208338460Y-99501887D02*
G01*
X208359102Y-99518521D01*
X208378181Y-99537600D01*
X208411666Y-99598923D01*
X208414500Y-99625281D01*
X208414500Y-101195915D01*
X208394815Y-101262954D01*
X208342011Y-101308709D01*
X208272853Y-101318653D01*
X208255907Y-101314992D01*
X208212570Y-101302402D01*
X208212567Y-101302401D01*
X208175701Y-101299500D01*
X208175694Y-101299500D01*
X207934000Y-101299500D01*
X207866961Y-101279815D01*
X207821206Y-101227011D01*
X207810000Y-101175500D01*
X207810000Y-100912500D01*
X207260000Y-100912500D01*
X207260000Y-101568184D01*
X207242733Y-101631304D01*
X207208254Y-101689605D01*
X207208254Y-101689606D01*
X207162402Y-101847426D01*
X207162401Y-101847432D01*
X207159500Y-101884298D01*
X207159500Y-103190701D01*
X207162401Y-103227567D01*
X207162402Y-103227573D01*
X207208254Y-103385393D01*
X207208255Y-103385396D01*
X207208256Y-103385398D01*
X207225351Y-103414304D01*
X207278052Y-103503418D01*
X207291919Y-103526865D01*
X207296178Y-103531124D01*
X207329665Y-103592444D01*
X207332500Y-103618808D01*
X207332500Y-103892718D01*
X207312815Y-103959757D01*
X207296181Y-103980400D01*
X207183398Y-104093182D01*
X207122075Y-104126666D01*
X207095718Y-104129500D01*
X207014831Y-104129500D01*
X207014807Y-104129501D01*
X206978794Y-104132335D01*
X206824611Y-104177129D01*
X206824607Y-104177130D01*
X206802370Y-104190282D01*
X206734645Y-104207463D01*
X206668383Y-104185303D01*
X206624621Y-104130836D01*
X206615250Y-104083549D01*
X206615250Y-103691058D01*
X206634935Y-103624019D01*
X206651564Y-103603381D01*
X206728081Y-103526865D01*
X206811744Y-103385398D01*
X206850791Y-103251000D01*
X206857597Y-103227573D01*
X206857598Y-103227567D01*
X206858339Y-103218151D01*
X206860500Y-103190694D01*
X206860500Y-101884306D01*
X206857598Y-101847431D01*
X206855148Y-101838999D01*
X206820626Y-101720174D01*
X206811744Y-101689602D01*
X206777267Y-101631304D01*
X206760000Y-101568184D01*
X206760000Y-100536500D01*
X206779685Y-100469461D01*
X206832489Y-100423706D01*
X206884000Y-100412500D01*
X207810000Y-100412500D01*
X207810000Y-100009365D01*
X207809999Y-100009350D01*
X207807100Y-99972510D01*
X207807099Y-99972504D01*
X207761283Y-99814806D01*
X207761282Y-99814803D01*
X207675246Y-99669323D01*
X207658063Y-99601599D01*
X207680223Y-99535336D01*
X207734689Y-99491573D01*
X207781978Y-99482202D01*
X208271421Y-99482202D01*
X208338460Y-99501887D01*
G37*
%TD.AperFunction*%
%TA.AperFunction,Conductor*%
G36*
X175604662Y-98830529D02*
G01*
X175653005Y-98875454D01*
X175707029Y-98963040D01*
X175707032Y-98963044D01*
X175716660Y-98972672D01*
X175750145Y-99033995D01*
X175745161Y-99103687D01*
X175716663Y-99148031D01*
X175707428Y-99157265D01*
X175707424Y-99157271D01*
X175618457Y-99301507D01*
X175618452Y-99301518D01*
X175565144Y-99462393D01*
X175555000Y-99561677D01*
X175555000Y-99585000D01*
X176656000Y-99585000D01*
X176723039Y-99604685D01*
X176768794Y-99657489D01*
X176780000Y-99709000D01*
X176780000Y-100784999D01*
X176828308Y-100784999D01*
X176828322Y-100784998D01*
X176927607Y-100774855D01*
X177088481Y-100721547D01*
X177088492Y-100721542D01*
X177232728Y-100632575D01*
X177232732Y-100632572D01*
X177352572Y-100512732D01*
X177352575Y-100512728D01*
X177441542Y-100368492D01*
X177441547Y-100368481D01*
X177494856Y-100207606D01*
X177501376Y-100143780D01*
X177527771Y-100079088D01*
X177584951Y-100038936D01*
X177654762Y-100036072D01*
X177715040Y-100071405D01*
X177742440Y-100117376D01*
X177778997Y-100227696D01*
X177779001Y-100227705D01*
X177868029Y-100372040D01*
X177868032Y-100372044D01*
X177987955Y-100491967D01*
X177987959Y-100491970D01*
X178132294Y-100580998D01*
X178132297Y-100580999D01*
X178132303Y-100581003D01*
X178293292Y-100634349D01*
X178392655Y-100644500D01*
X178393081Y-100644499D01*
X178393169Y-100644525D01*
X178395804Y-100644660D01*
X178395771Y-100645289D01*
X178460123Y-100664165D01*
X178480793Y-100680818D01*
X178752294Y-100952319D01*
X178785779Y-101013642D01*
X178780795Y-101083334D01*
X178738923Y-101139267D01*
X178673459Y-101163684D01*
X178664613Y-101164000D01*
X178468000Y-101164000D01*
X178468000Y-102214000D01*
X179417999Y-102214000D01*
X179417999Y-101917386D01*
X179437684Y-101850347D01*
X179490488Y-101804592D01*
X179559646Y-101794648D01*
X179623202Y-101823673D01*
X179629680Y-101829705D01*
X180301195Y-102501220D01*
X180334680Y-102562543D01*
X180329696Y-102632235D01*
X180287824Y-102688168D01*
X180227398Y-102712121D01*
X180160749Y-102719630D01*
X180160745Y-102719631D01*
X179990476Y-102779211D01*
X179837737Y-102875184D01*
X179710184Y-103002737D01*
X179646994Y-103103304D01*
X179594659Y-103149595D01*
X179525605Y-103160243D01*
X179461757Y-103131868D01*
X179423385Y-103073478D01*
X179418000Y-103037332D01*
X179418000Y-102714000D01*
X177099000Y-102714000D01*
X177031961Y-102694315D01*
X176986206Y-102641511D01*
X176981672Y-102620672D01*
X176975000Y-102614000D01*
X176167728Y-102614000D01*
X176259614Y-102575940D01*
X176329940Y-102505614D01*
X176368000Y-102413728D01*
X176368000Y-102314272D01*
X176329940Y-102222386D01*
X176259614Y-102152060D01*
X176167728Y-102114000D01*
X176987000Y-102114000D01*
X177054039Y-102133685D01*
X177099794Y-102186489D01*
X177104327Y-102207327D01*
X177111000Y-102214000D01*
X177968000Y-102214000D01*
X177968000Y-101164000D01*
X177718029Y-101164000D01*
X177718012Y-101164001D01*
X177615302Y-101174494D01*
X177448880Y-101229641D01*
X177448875Y-101229643D01*
X177299654Y-101321684D01*
X177175684Y-101445654D01*
X177083643Y-101594875D01*
X177083641Y-101594880D01*
X177049495Y-101697927D01*
X177009722Y-101755372D01*
X176945206Y-101782195D01*
X176876430Y-101769880D01*
X176844108Y-101746604D01*
X176723593Y-101626089D01*
X176723589Y-101626086D01*
X176568000Y-101522124D01*
X176567991Y-101522119D01*
X176395105Y-101450508D01*
X176395097Y-101450506D01*
X176211570Y-101414000D01*
X176018000Y-101414000D01*
X176018000Y-102114000D01*
X175518000Y-102114000D01*
X175518000Y-101414000D01*
X175324430Y-101414000D01*
X175140902Y-101450506D01*
X175140894Y-101450508D01*
X174968008Y-101522119D01*
X174967999Y-101522124D01*
X174883475Y-101578602D01*
X174816797Y-101599480D01*
X174749417Y-101580995D01*
X174702727Y-101529016D01*
X174691551Y-101460046D01*
X174693101Y-101450642D01*
X174732864Y-101256440D01*
X174734100Y-101251030D01*
X174736392Y-101241937D01*
X174950057Y-100393982D01*
X174951536Y-100388625D01*
X174952080Y-100386815D01*
X175035707Y-100108322D01*
X175555001Y-100108322D01*
X175565144Y-100207607D01*
X175618452Y-100368481D01*
X175618457Y-100368492D01*
X175707424Y-100512728D01*
X175707427Y-100512732D01*
X175827267Y-100632572D01*
X175827271Y-100632575D01*
X175971507Y-100721542D01*
X175971518Y-100721547D01*
X176132393Y-100774855D01*
X176231683Y-100784999D01*
X176279999Y-100784998D01*
X176280000Y-100784998D01*
X176280000Y-100085000D01*
X175555001Y-100085000D01*
X175555001Y-100108322D01*
X175035707Y-100108322D01*
X175205741Y-99542081D01*
X175207449Y-99536826D01*
X175430426Y-98899596D01*
X175471147Y-98842820D01*
X175536100Y-98817073D01*
X175604662Y-98830529D01*
G37*
%TD.AperFunction*%
%TA.AperFunction,Conductor*%
G36*
X199722703Y-101415266D02*
G01*
X199729181Y-101421298D01*
X199741261Y-101433378D01*
X199741267Y-101433383D01*
X200280181Y-101972297D01*
X200313666Y-102033620D01*
X200316500Y-102059978D01*
X200316500Y-102261727D01*
X200331312Y-102374233D01*
X200353252Y-102427201D01*
X200360720Y-102496671D01*
X200353252Y-102522103D01*
X200331800Y-102573895D01*
X200317000Y-102686302D01*
X200317000Y-102697500D01*
X200297315Y-102764539D01*
X200244511Y-102810294D01*
X200193000Y-102821500D01*
X199641500Y-102821500D01*
X199574461Y-102801815D01*
X199528706Y-102749011D01*
X199517500Y-102697500D01*
X199517500Y-101508979D01*
X199537185Y-101441940D01*
X199589989Y-101396185D01*
X199659147Y-101386241D01*
X199722703Y-101415266D01*
G37*
%TD.AperFunction*%
%TA.AperFunction,Conductor*%
G36*
X204187679Y-88630836D02*
G01*
X204218985Y-88648600D01*
X204223757Y-88651450D01*
X204702485Y-88952255D01*
X204972154Y-89121699D01*
X204976798Y-89124765D01*
X205703323Y-89628104D01*
X205707825Y-89631375D01*
X206411030Y-90166796D01*
X206415379Y-90170263D01*
X207073626Y-90719807D01*
X207093884Y-90736719D01*
X207098069Y-90740376D01*
X207653512Y-91248073D01*
X207750468Y-91336695D01*
X207754490Y-91340541D01*
X208379458Y-91965509D01*
X208383304Y-91969531D01*
X208979619Y-92621925D01*
X208983278Y-92626112D01*
X209549734Y-93304618D01*
X209553180Y-93308939D01*
X209706661Y-93510516D01*
X209755316Y-93574418D01*
X209780266Y-93639681D01*
X209765971Y-93708073D01*
X209716971Y-93757880D01*
X209710461Y-93761256D01*
X209708476Y-93762211D01*
X209555737Y-93858184D01*
X209428184Y-93985737D01*
X209332211Y-94138476D01*
X209272631Y-94308745D01*
X209272630Y-94308750D01*
X209252435Y-94487996D01*
X209252435Y-94488003D01*
X209272630Y-94667249D01*
X209272631Y-94667254D01*
X209332211Y-94837523D01*
X209401306Y-94947486D01*
X209428184Y-94990262D01*
X209555738Y-95117816D01*
X209689973Y-95202162D01*
X209736263Y-95254494D01*
X209748000Y-95307154D01*
X209748000Y-98118254D01*
X209777321Y-98227686D01*
X209786433Y-98261692D01*
X209786436Y-98261699D01*
X209860684Y-98390300D01*
X209860689Y-98390306D01*
X209972761Y-98502378D01*
X209972767Y-98502383D01*
X212110548Y-100640164D01*
X212144033Y-100701487D01*
X212146867Y-100727845D01*
X212146867Y-101770163D01*
X212127182Y-101837202D01*
X212074378Y-101882957D01*
X212005220Y-101892901D01*
X211941664Y-101863876D01*
X211935186Y-101857844D01*
X211901930Y-101824588D01*
X211901928Y-101824586D01*
X211761788Y-101722768D01*
X211696701Y-101689605D01*
X211607447Y-101644128D01*
X211607446Y-101644127D01*
X211607445Y-101644127D01*
X211442701Y-101590598D01*
X211442699Y-101590597D01*
X211442698Y-101590597D01*
X211311271Y-101569781D01*
X211271611Y-101563500D01*
X210548389Y-101563500D01*
X210508728Y-101569781D01*
X210377302Y-101590597D01*
X210212552Y-101644128D01*
X210058211Y-101722768D01*
X209987978Y-101773796D01*
X209918072Y-101824586D01*
X209918070Y-101824588D01*
X209918069Y-101824588D01*
X209881181Y-101861477D01*
X209819858Y-101894962D01*
X209750166Y-101889978D01*
X209694233Y-101848106D01*
X209669816Y-101782642D01*
X209669500Y-101773796D01*
X209669500Y-99252197D01*
X209667949Y-99244402D01*
X209667948Y-99244395D01*
X209645387Y-99130972D01*
X209645384Y-99130963D01*
X209627054Y-99086711D01*
X209601238Y-99024384D01*
X209598084Y-99016769D01*
X209562186Y-98963044D01*
X209546455Y-98939500D01*
X209529411Y-98913992D01*
X209442008Y-98826589D01*
X209220784Y-98605365D01*
X208982713Y-98367293D01*
X208982712Y-98367292D01*
X208973215Y-98360947D01*
X208963847Y-98354687D01*
X208879935Y-98298619D01*
X208879934Y-98298618D01*
X208879932Y-98298617D01*
X208824595Y-98275696D01*
X208765737Y-98251316D01*
X208765729Y-98251314D01*
X208644509Y-98227202D01*
X208644505Y-98227202D01*
X207069485Y-98227202D01*
X207069483Y-98227202D01*
X206948258Y-98251315D01*
X206948248Y-98251318D01*
X206834062Y-98298615D01*
X206834049Y-98298622D01*
X206771371Y-98340503D01*
X206750143Y-98354687D01*
X206745457Y-98357817D01*
X206731277Y-98367292D01*
X206731276Y-98367293D01*
X205118681Y-99979889D01*
X205057358Y-100013374D01*
X204987666Y-100008390D01*
X204931733Y-99966518D01*
X204907316Y-99901054D01*
X204907000Y-99892208D01*
X204907000Y-98282440D01*
X204926685Y-98215401D01*
X204943319Y-98194759D01*
X204957433Y-98180645D01*
X204972816Y-98165262D01*
X205068789Y-98012522D01*
X205128368Y-97842255D01*
X205129142Y-97835389D01*
X205148565Y-97663003D01*
X205148565Y-97662996D01*
X205128369Y-97483750D01*
X205128368Y-97483745D01*
X205107748Y-97424817D01*
X205068789Y-97313478D01*
X205067990Y-97312207D01*
X204992439Y-97191968D01*
X204972816Y-97160738D01*
X204845262Y-97033184D01*
X204790956Y-96999061D01*
X204692523Y-96937211D01*
X204522254Y-96877631D01*
X204522249Y-96877630D01*
X204343004Y-96857435D01*
X204342996Y-96857435D01*
X204163750Y-96877630D01*
X204163745Y-96877631D01*
X203993476Y-96937211D01*
X203840737Y-97033184D01*
X203713184Y-97160737D01*
X203617211Y-97313476D01*
X203557631Y-97483745D01*
X203557630Y-97483750D01*
X203537435Y-97662996D01*
X203537435Y-97663003D01*
X203557630Y-97842249D01*
X203557631Y-97842254D01*
X203617211Y-98012523D01*
X203713184Y-98165262D01*
X203742681Y-98194759D01*
X203776166Y-98256082D01*
X203779000Y-98282440D01*
X203779000Y-98405833D01*
X203759315Y-98472872D01*
X203706511Y-98518627D01*
X203637353Y-98528571D01*
X203573797Y-98499546D01*
X203567319Y-98493514D01*
X203511692Y-98437887D01*
X203511684Y-98437881D01*
X203372393Y-98355505D01*
X203372390Y-98355504D01*
X203216997Y-98310357D01*
X203216991Y-98310356D01*
X203180697Y-98307500D01*
X203180690Y-98307500D01*
X202711310Y-98307500D01*
X202711302Y-98307500D01*
X202675008Y-98310356D01*
X202675002Y-98310357D01*
X202519609Y-98355504D01*
X202519608Y-98355504D01*
X202396323Y-98428414D01*
X202328599Y-98445596D01*
X202262337Y-98423436D01*
X202257206Y-98419663D01*
X202253599Y-98416865D01*
X202115393Y-98335131D01*
X202115388Y-98335129D01*
X201961208Y-98290335D01*
X201961202Y-98290334D01*
X201925181Y-98287500D01*
X201426830Y-98287500D01*
X201426808Y-98287501D01*
X201390794Y-98290335D01*
X201236611Y-98335129D01*
X201236606Y-98335131D01*
X201098407Y-98416861D01*
X201098397Y-98416869D01*
X201017497Y-98497768D01*
X200961913Y-98529860D01*
X200952306Y-98532434D01*
X200952301Y-98532436D01*
X200823699Y-98606685D01*
X200823693Y-98606689D01*
X200718685Y-98711698D01*
X200493680Y-98936702D01*
X200432357Y-98970187D01*
X200362665Y-98965203D01*
X200318318Y-98936702D01*
X199897410Y-98515794D01*
X199863925Y-98454471D01*
X199868909Y-98384779D01*
X199910781Y-98328846D01*
X199976245Y-98304429D01*
X200019686Y-98309036D01*
X200128000Y-98340503D01*
X200128000Y-98034352D01*
X200145267Y-97971233D01*
X200150494Y-97962395D01*
X200150553Y-97962194D01*
X200195642Y-97806997D01*
X200195643Y-97806991D01*
X200197029Y-97789383D01*
X200198500Y-97770690D01*
X200198500Y-97410000D01*
X200218185Y-97342961D01*
X200270989Y-97297206D01*
X200322500Y-97286000D01*
X200504000Y-97286000D01*
X200571039Y-97305685D01*
X200616794Y-97358489D01*
X200628000Y-97410000D01*
X200628000Y-98340503D01*
X200774195Y-98298031D01*
X200913374Y-98215721D01*
X200913383Y-98215714D01*
X201027714Y-98101383D01*
X201027721Y-98101374D01*
X201110031Y-97962195D01*
X201110032Y-97962194D01*
X201122012Y-97920956D01*
X201159617Y-97862070D01*
X201223089Y-97832862D01*
X201292276Y-97842607D01*
X201328770Y-97867868D01*
X201364616Y-97903714D01*
X201364625Y-97903721D01*
X201503804Y-97986031D01*
X201659089Y-98031145D01*
X201680000Y-98032789D01*
X202180000Y-98032789D01*
X202200910Y-98031145D01*
X202356195Y-97986031D01*
X202495374Y-97903721D01*
X202495383Y-97903714D01*
X202609714Y-97789383D01*
X202609721Y-97789374D01*
X202692031Y-97650195D01*
X202734504Y-97504000D01*
X202180000Y-97504000D01*
X202180000Y-98032789D01*
X201680000Y-98032789D01*
X201680000Y-97198500D01*
X201699685Y-97131461D01*
X201752489Y-97085706D01*
X201804000Y-97074500D01*
X202164682Y-97074500D01*
X202164690Y-97074500D01*
X202200993Y-97071643D01*
X202200995Y-97071642D01*
X202200997Y-97071642D01*
X202356389Y-97026496D01*
X202356389Y-97026495D01*
X202356395Y-97026494D01*
X202365233Y-97021267D01*
X202428352Y-97004000D01*
X202734505Y-97004000D01*
X202738213Y-96999061D01*
X202738363Y-96946725D01*
X202776306Y-96888055D01*
X202839944Y-96859212D01*
X202857240Y-96858000D01*
X202865251Y-96858000D01*
X202865253Y-96858000D01*
X203008696Y-96819565D01*
X203016822Y-96814872D01*
X203047141Y-96797369D01*
X203047142Y-96797368D01*
X203068789Y-96784870D01*
X203137304Y-96745313D01*
X203242313Y-96640304D01*
X203242313Y-96640302D01*
X203252517Y-96630099D01*
X203252521Y-96630094D01*
X203497094Y-96385521D01*
X203497099Y-96385517D01*
X203507302Y-96375313D01*
X203507304Y-96375313D01*
X203612313Y-96270304D01*
X203686565Y-96141696D01*
X203687528Y-96138100D01*
X203697337Y-96101498D01*
X203711704Y-96047875D01*
X203721318Y-96011996D01*
X204934435Y-96011996D01*
X204934435Y-96012003D01*
X204954630Y-96191249D01*
X204954631Y-96191254D01*
X205014211Y-96361523D01*
X205110184Y-96514262D01*
X205237738Y-96641816D01*
X205286183Y-96672256D01*
X205377381Y-96729560D01*
X205390478Y-96737789D01*
X205525022Y-96784868D01*
X205560745Y-96797368D01*
X205560750Y-96797369D01*
X205739996Y-96817565D01*
X205740000Y-96817565D01*
X205740004Y-96817565D01*
X205919249Y-96797369D01*
X205919252Y-96797368D01*
X205919255Y-96797368D01*
X206089522Y-96737789D01*
X206242262Y-96641816D01*
X206271759Y-96612319D01*
X206333082Y-96578834D01*
X206359440Y-96576000D01*
X206428905Y-96576000D01*
X206495944Y-96595685D01*
X206516581Y-96612314D01*
X206607402Y-96703135D01*
X206745607Y-96784869D01*
X206745614Y-96784871D01*
X206899791Y-96829664D01*
X206899794Y-96829664D01*
X206899796Y-96829665D01*
X206935819Y-96832500D01*
X207334180Y-96832499D01*
X207370204Y-96829665D01*
X207524393Y-96784869D01*
X207581882Y-96750869D01*
X207649602Y-96733688D01*
X207708117Y-96750869D01*
X207765607Y-96784869D01*
X207765610Y-96784869D01*
X207765612Y-96784871D01*
X207919791Y-96829664D01*
X207919794Y-96829664D01*
X207919796Y-96829665D01*
X207955819Y-96832500D01*
X208354180Y-96832499D01*
X208390204Y-96829665D01*
X208544393Y-96784869D01*
X208682598Y-96703135D01*
X208796135Y-96589598D01*
X208877869Y-96451393D01*
X208922665Y-96297204D01*
X208925500Y-96261181D01*
X208925499Y-95762820D01*
X208922665Y-95726796D01*
X208877869Y-95572607D01*
X208808926Y-95456031D01*
X208791744Y-95388309D01*
X208810666Y-95326940D01*
X208878787Y-95218526D01*
X208878787Y-95218524D01*
X208878789Y-95218522D01*
X208938368Y-95048255D01*
X208938369Y-95048249D01*
X208958565Y-94869003D01*
X208958565Y-94868996D01*
X208938369Y-94689750D01*
X208938368Y-94689745D01*
X208878788Y-94519476D01*
X208839582Y-94457080D01*
X208782816Y-94366738D01*
X208655262Y-94239184D01*
X208634280Y-94226000D01*
X208502523Y-94143211D01*
X208332254Y-94083631D01*
X208332249Y-94083630D01*
X208153004Y-94063435D01*
X208152996Y-94063435D01*
X207973750Y-94083630D01*
X207973745Y-94083631D01*
X207803476Y-94143211D01*
X207650737Y-94239184D01*
X207523184Y-94366737D01*
X207427211Y-94519476D01*
X207367631Y-94689745D01*
X207367630Y-94689750D01*
X207347435Y-94868996D01*
X207347435Y-94869003D01*
X207368235Y-95053617D01*
X207356180Y-95122439D01*
X207308831Y-95173818D01*
X207245015Y-95191500D01*
X206935830Y-95191500D01*
X206935808Y-95191501D01*
X206899794Y-95194335D01*
X206745611Y-95239129D01*
X206745606Y-95239131D01*
X206607404Y-95320863D01*
X206607400Y-95320866D01*
X206561993Y-95366273D01*
X206516584Y-95411682D01*
X206455264Y-95445166D01*
X206428905Y-95448000D01*
X206359440Y-95448000D01*
X206292401Y-95428315D01*
X206271759Y-95411681D01*
X206242262Y-95382184D01*
X206089523Y-95286211D01*
X205919254Y-95226631D01*
X205919249Y-95226630D01*
X205740004Y-95206435D01*
X205739996Y-95206435D01*
X205560750Y-95226630D01*
X205560745Y-95226631D01*
X205390476Y-95286211D01*
X205237737Y-95382184D01*
X205110184Y-95509737D01*
X205014211Y-95662476D01*
X204954631Y-95832745D01*
X204954630Y-95832750D01*
X204934435Y-96011996D01*
X203721318Y-96011996D01*
X203725000Y-95998253D01*
X203725000Y-95849747D01*
X203725000Y-95638900D01*
X203744685Y-95571861D01*
X203797489Y-95526106D01*
X203835747Y-95515610D01*
X203868483Y-95512091D01*
X204003328Y-95461797D01*
X204003327Y-95461797D01*
X204003331Y-95461796D01*
X204118546Y-95375546D01*
X204204796Y-95260331D01*
X204255091Y-95125483D01*
X204261500Y-95065873D01*
X204261499Y-93570128D01*
X204255091Y-93510517D01*
X204205142Y-93376598D01*
X204204797Y-93375671D01*
X204204796Y-93375669D01*
X204142394Y-93292311D01*
X204117977Y-93226847D01*
X204132828Y-93158574D01*
X204142394Y-93143689D01*
X204149589Y-93134078D01*
X204204796Y-93060331D01*
X204255091Y-92925483D01*
X204261500Y-92865873D01*
X204261499Y-91370128D01*
X204255091Y-91310517D01*
X204248839Y-91293755D01*
X204204797Y-91175671D01*
X204204793Y-91175664D01*
X204118547Y-91060455D01*
X204118544Y-91060452D01*
X204003335Y-90974206D01*
X204003328Y-90974202D01*
X203868482Y-90923908D01*
X203868483Y-90923908D01*
X203808883Y-90917501D01*
X203808881Y-90917500D01*
X203808873Y-90917500D01*
X203808865Y-90917500D01*
X203049959Y-90917500D01*
X202982920Y-90897815D01*
X202937165Y-90845011D01*
X202927221Y-90775853D01*
X202956246Y-90712297D01*
X202962278Y-90705818D01*
X203059717Y-90608379D01*
X203059721Y-90608374D01*
X203142031Y-90469195D01*
X203142033Y-90469190D01*
X203187144Y-90313918D01*
X203187145Y-90313912D01*
X203188790Y-90293000D01*
X202354500Y-90293000D01*
X202287461Y-90273315D01*
X202241706Y-90220511D01*
X202230500Y-90169000D01*
X202230500Y-89917000D01*
X202250185Y-89849961D01*
X202302989Y-89804206D01*
X202354500Y-89793000D01*
X203188790Y-89793000D01*
X203187145Y-89772088D01*
X203174173Y-89727439D01*
X203174372Y-89657569D01*
X203212314Y-89598899D01*
X203275952Y-89570055D01*
X203279366Y-89569623D01*
X203379249Y-89558369D01*
X203379252Y-89558368D01*
X203379255Y-89558368D01*
X203549522Y-89498789D01*
X203702262Y-89402816D01*
X203829816Y-89275262D01*
X203925789Y-89122522D01*
X203985368Y-88952255D01*
X203985369Y-88952249D01*
X204005565Y-88773003D01*
X204005565Y-88772997D01*
X204003263Y-88752567D01*
X204015317Y-88683745D01*
X204062666Y-88632365D01*
X204130277Y-88614741D01*
X204187679Y-88630836D01*
G37*
%TD.AperFunction*%
%TA.AperFunction,Conductor*%
G36*
X202510766Y-99815267D02*
G01*
X202519605Y-99820494D01*
X202519608Y-99820494D01*
X202519610Y-99820496D01*
X202675002Y-99865642D01*
X202675005Y-99865642D01*
X202675007Y-99865643D01*
X202711310Y-99868500D01*
X202711318Y-99868500D01*
X203072000Y-99868500D01*
X203139039Y-99888185D01*
X203184794Y-99940989D01*
X203196000Y-99992500D01*
X203196000Y-100826789D01*
X203216910Y-100825145D01*
X203372195Y-100780031D01*
X203511374Y-100697721D01*
X203511383Y-100697714D01*
X203567319Y-100641779D01*
X203628642Y-100608294D01*
X203698334Y-100613278D01*
X203754267Y-100655150D01*
X203778684Y-100720614D01*
X203779000Y-100729460D01*
X203779000Y-101318271D01*
X203759315Y-101385310D01*
X203706511Y-101431065D01*
X203637353Y-101441009D01*
X203611668Y-101434453D01*
X203599485Y-101429909D01*
X203599483Y-101429908D01*
X203539883Y-101423501D01*
X203539881Y-101423500D01*
X203539873Y-101423500D01*
X203539864Y-101423500D01*
X201844129Y-101423500D01*
X201844123Y-101423501D01*
X201784516Y-101429908D01*
X201649669Y-101480203D01*
X201643942Y-101483331D01*
X201584513Y-101498500D01*
X201452979Y-101498500D01*
X201385940Y-101478815D01*
X201365298Y-101462181D01*
X201196367Y-101293250D01*
X201006857Y-101103741D01*
X200973373Y-101042419D01*
X200978357Y-100972728D01*
X201020228Y-100916794D01*
X201028568Y-100911067D01*
X201146029Y-100837262D01*
X201151475Y-100832919D01*
X201152963Y-100834785D01*
X201204433Y-100806649D01*
X201265445Y-100808726D01*
X201390871Y-100845166D01*
X201390877Y-100845167D01*
X201426000Y-100847931D01*
X201426000Y-100414414D01*
X201429110Y-100386815D01*
X201429133Y-100386710D01*
X201429137Y-100386699D01*
X201435751Y-100328000D01*
X201926000Y-100328000D01*
X201926000Y-100847930D01*
X201961122Y-100845167D01*
X201961128Y-100845166D01*
X202115188Y-100800407D01*
X202115191Y-100800406D01*
X202253287Y-100718737D01*
X202257159Y-100715734D01*
X202322195Y-100690198D01*
X202390712Y-100703876D01*
X202396282Y-100706980D01*
X202519804Y-100780031D01*
X202675089Y-100825145D01*
X202696000Y-100826789D01*
X202696000Y-100298000D01*
X202533747Y-100298000D01*
X202483996Y-100325166D01*
X202457638Y-100328000D01*
X201926000Y-100328000D01*
X201435751Y-100328000D01*
X201449334Y-100207444D01*
X201444751Y-100166772D01*
X201429137Y-100028189D01*
X201429109Y-100028064D01*
X201426000Y-100000473D01*
X201426000Y-99952499D01*
X201445685Y-99885460D01*
X201498489Y-99839705D01*
X201549996Y-99828499D01*
X201925180Y-99828499D01*
X201925193Y-99828498D01*
X201926668Y-99828382D01*
X201936393Y-99828000D01*
X202098253Y-99828000D01*
X202148004Y-99800834D01*
X202174362Y-99798000D01*
X202447648Y-99798000D01*
X202510766Y-99815267D01*
G37*
%TD.AperFunction*%
%TA.AperFunction,Conductor*%
G36*
X187427789Y-97178007D02*
G01*
X187473609Y-97206798D01*
X187472045Y-97209286D01*
X187514156Y-97247301D01*
X187532500Y-97312207D01*
X187532500Y-97643697D01*
X187535356Y-97679991D01*
X187535357Y-97679997D01*
X187580503Y-97835389D01*
X187580505Y-97835393D01*
X187580506Y-97835395D01*
X187585732Y-97844233D01*
X187603000Y-97907352D01*
X187603000Y-98180645D01*
X187585734Y-98243763D01*
X187580507Y-98252600D01*
X187580504Y-98252608D01*
X187535357Y-98408002D01*
X187535356Y-98408008D01*
X187532500Y-98444302D01*
X187532500Y-98805000D01*
X187512815Y-98872039D01*
X187460011Y-98917794D01*
X187408500Y-98929000D01*
X187227000Y-98929000D01*
X187159961Y-98909315D01*
X187114206Y-98856511D01*
X187103000Y-98805000D01*
X187103000Y-97283000D01*
X187122685Y-97215961D01*
X187175489Y-97170206D01*
X187227000Y-97159000D01*
X187361816Y-97159000D01*
X187427789Y-97178007D01*
G37*
%TD.AperFunction*%
%TA.AperFunction,Conductor*%
G36*
X195580514Y-91210501D02*
G01*
X195580674Y-91209905D01*
X195588524Y-91212008D01*
X195588526Y-91212008D01*
X195588528Y-91212009D01*
X195698599Y-91226500D01*
X195897400Y-91226499D01*
X195910039Y-91224835D01*
X195979073Y-91235600D01*
X196031329Y-91281980D01*
X196050215Y-91349249D01*
X196049164Y-91363952D01*
X196047500Y-91376596D01*
X196047500Y-91575403D01*
X196061989Y-91685468D01*
X196064094Y-91693322D01*
X196060814Y-91694200D01*
X196066581Y-91748073D01*
X196063517Y-91758522D01*
X196064095Y-91758677D01*
X196061990Y-91766529D01*
X196047500Y-91876598D01*
X196047500Y-92075403D01*
X196061989Y-92185468D01*
X196064094Y-92193322D01*
X196060814Y-92194200D01*
X196066581Y-92248073D01*
X196063517Y-92258522D01*
X196064095Y-92258677D01*
X196061990Y-92266529D01*
X196047500Y-92376598D01*
X196047500Y-92575403D01*
X196061989Y-92685468D01*
X196064094Y-92693322D01*
X196060814Y-92694200D01*
X196066581Y-92748073D01*
X196063517Y-92758522D01*
X196064095Y-92758677D01*
X196061990Y-92766529D01*
X196047500Y-92876598D01*
X196047500Y-93075403D01*
X196061989Y-93185468D01*
X196064094Y-93193322D01*
X196060814Y-93194200D01*
X196066581Y-93248073D01*
X196063517Y-93258522D01*
X196064095Y-93258677D01*
X196061990Y-93266529D01*
X196047500Y-93376598D01*
X196047500Y-93575403D01*
X196061989Y-93685468D01*
X196064094Y-93693322D01*
X196060814Y-93694200D01*
X196066581Y-93748073D01*
X196063517Y-93758522D01*
X196064095Y-93758677D01*
X196061990Y-93766529D01*
X196047500Y-93876598D01*
X196047500Y-94075403D01*
X196061989Y-94185468D01*
X196064094Y-94193322D01*
X196060814Y-94194200D01*
X196066581Y-94248073D01*
X196063517Y-94258522D01*
X196064095Y-94258677D01*
X196061990Y-94266529D01*
X196047500Y-94376598D01*
X196047500Y-94575403D01*
X196061989Y-94685468D01*
X196064094Y-94693322D01*
X196060814Y-94694200D01*
X196066581Y-94748073D01*
X196063517Y-94758522D01*
X196064095Y-94758677D01*
X196061990Y-94766529D01*
X196047500Y-94876598D01*
X196047500Y-95075403D01*
X196061989Y-95185468D01*
X196064094Y-95193322D01*
X196060814Y-95194200D01*
X196066581Y-95248073D01*
X196063517Y-95258522D01*
X196064095Y-95258677D01*
X196061990Y-95266529D01*
X196047500Y-95376598D01*
X196047500Y-95575403D01*
X196061989Y-95685468D01*
X196064094Y-95693322D01*
X196060814Y-95694200D01*
X196066581Y-95748073D01*
X196063517Y-95758522D01*
X196064095Y-95758677D01*
X196061990Y-95766529D01*
X196047500Y-95876598D01*
X196047500Y-96075400D01*
X196049165Y-96088045D01*
X196038396Y-96157080D01*
X195992013Y-96209333D01*
X195924743Y-96228215D01*
X195910046Y-96227164D01*
X195897401Y-96225500D01*
X195698596Y-96225500D01*
X195588531Y-96239989D01*
X195580678Y-96242094D01*
X195579802Y-96238824D01*
X195525853Y-96244567D01*
X195515477Y-96241518D01*
X195515323Y-96242095D01*
X195507470Y-96239990D01*
X195397401Y-96225500D01*
X195198596Y-96225500D01*
X195088531Y-96239989D01*
X195080678Y-96242094D01*
X195079802Y-96238824D01*
X195025853Y-96244567D01*
X195015477Y-96241518D01*
X195015323Y-96242095D01*
X195007470Y-96239990D01*
X194897401Y-96225500D01*
X194698596Y-96225500D01*
X194588531Y-96239989D01*
X194580678Y-96242094D01*
X194579802Y-96238824D01*
X194525853Y-96244567D01*
X194515477Y-96241518D01*
X194515323Y-96242095D01*
X194507470Y-96239990D01*
X194397401Y-96225500D01*
X194198596Y-96225500D01*
X194088531Y-96239989D01*
X194080678Y-96242094D01*
X194079802Y-96238824D01*
X194025853Y-96244567D01*
X194015477Y-96241518D01*
X194015323Y-96242095D01*
X194007470Y-96239990D01*
X193897401Y-96225500D01*
X193698596Y-96225500D01*
X193588531Y-96239989D01*
X193580678Y-96242094D01*
X193579802Y-96238824D01*
X193525853Y-96244567D01*
X193515477Y-96241518D01*
X193515323Y-96242095D01*
X193507470Y-96239990D01*
X193397401Y-96225500D01*
X193198596Y-96225500D01*
X193088531Y-96239989D01*
X193080678Y-96242094D01*
X193079802Y-96238824D01*
X193025853Y-96244567D01*
X193015477Y-96241518D01*
X193015323Y-96242095D01*
X193007470Y-96239990D01*
X192897401Y-96225500D01*
X192698596Y-96225500D01*
X192588531Y-96239989D01*
X192580678Y-96242094D01*
X192579802Y-96238824D01*
X192525853Y-96244567D01*
X192515477Y-96241518D01*
X192515323Y-96242095D01*
X192507470Y-96239990D01*
X192397401Y-96225500D01*
X192198596Y-96225500D01*
X192088531Y-96239989D01*
X192080678Y-96242094D01*
X192079802Y-96238824D01*
X192025853Y-96244567D01*
X192015477Y-96241518D01*
X192015323Y-96242095D01*
X192007470Y-96239990D01*
X191897401Y-96225500D01*
X191698596Y-96225500D01*
X191588531Y-96239989D01*
X191580678Y-96242094D01*
X191579802Y-96238824D01*
X191525853Y-96244567D01*
X191515477Y-96241518D01*
X191515323Y-96242095D01*
X191507470Y-96239990D01*
X191397401Y-96225500D01*
X191198598Y-96225500D01*
X191185953Y-96227165D01*
X191116918Y-96216395D01*
X191064665Y-96170012D01*
X191045784Y-96102742D01*
X191046836Y-96088039D01*
X191048500Y-96075401D01*
X191048499Y-95876600D01*
X191046352Y-95860294D01*
X191044105Y-95843224D01*
X191034009Y-95766528D01*
X191034008Y-95766525D01*
X191031905Y-95758674D01*
X191035207Y-95757789D01*
X191029392Y-95704075D01*
X191032501Y-95693485D01*
X191031905Y-95693326D01*
X191034008Y-95685475D01*
X191034008Y-95685474D01*
X191034009Y-95685472D01*
X191048500Y-95575401D01*
X191048499Y-95376600D01*
X191048360Y-95375547D01*
X191034009Y-95266529D01*
X191034009Y-95266528D01*
X191034008Y-95266525D01*
X191031905Y-95258674D01*
X191035207Y-95257789D01*
X191029392Y-95204075D01*
X191032501Y-95193485D01*
X191031905Y-95193326D01*
X191034008Y-95185475D01*
X191034008Y-95185474D01*
X191034009Y-95185472D01*
X191048500Y-95075401D01*
X191048499Y-94876600D01*
X191034009Y-94766528D01*
X191034008Y-94766525D01*
X191031905Y-94758674D01*
X191035207Y-94757789D01*
X191029392Y-94704075D01*
X191032501Y-94693485D01*
X191031905Y-94693326D01*
X191034008Y-94685475D01*
X191034008Y-94685474D01*
X191034009Y-94685472D01*
X191048500Y-94575401D01*
X191048499Y-94376600D01*
X191034009Y-94266528D01*
X191034008Y-94266525D01*
X191031905Y-94258674D01*
X191035207Y-94257789D01*
X191029392Y-94204075D01*
X191032501Y-94193485D01*
X191031905Y-94193326D01*
X191034008Y-94185475D01*
X191034008Y-94185474D01*
X191034009Y-94185472D01*
X191048500Y-94075401D01*
X191048499Y-93876600D01*
X191034009Y-93766528D01*
X191034008Y-93766525D01*
X191031905Y-93758674D01*
X191035207Y-93757789D01*
X191029392Y-93704075D01*
X191032501Y-93693485D01*
X191031905Y-93693326D01*
X191034008Y-93685475D01*
X191034008Y-93685474D01*
X191034009Y-93685472D01*
X191048500Y-93575401D01*
X191048499Y-93376600D01*
X191048376Y-93375669D01*
X191034009Y-93266529D01*
X191034009Y-93266528D01*
X191034008Y-93266525D01*
X191031905Y-93258674D01*
X191035207Y-93257789D01*
X191029392Y-93204075D01*
X191032501Y-93193485D01*
X191031905Y-93193326D01*
X191034008Y-93185475D01*
X191034008Y-93185474D01*
X191034009Y-93185472D01*
X191048500Y-93075401D01*
X191048499Y-92876600D01*
X191034009Y-92766528D01*
X191034008Y-92766525D01*
X191031905Y-92758674D01*
X191035207Y-92757789D01*
X191029392Y-92704075D01*
X191032501Y-92693485D01*
X191031905Y-92693326D01*
X191034008Y-92685475D01*
X191034008Y-92685474D01*
X191034009Y-92685472D01*
X191048500Y-92575401D01*
X191048499Y-92376600D01*
X191034009Y-92266528D01*
X191034008Y-92266525D01*
X191031905Y-92258674D01*
X191035207Y-92257789D01*
X191029392Y-92204075D01*
X191032501Y-92193485D01*
X191031905Y-92193326D01*
X191034008Y-92185475D01*
X191034008Y-92185474D01*
X191034009Y-92185472D01*
X191048500Y-92075401D01*
X191048499Y-91876600D01*
X191034009Y-91766528D01*
X191034008Y-91766525D01*
X191031905Y-91758674D01*
X191035207Y-91757789D01*
X191029392Y-91704075D01*
X191032501Y-91693485D01*
X191031905Y-91693326D01*
X191034008Y-91685475D01*
X191034008Y-91685474D01*
X191034009Y-91685472D01*
X191048500Y-91575401D01*
X191048499Y-91376600D01*
X191048498Y-91376596D01*
X191046835Y-91363960D01*
X191057601Y-91294925D01*
X191103981Y-91242669D01*
X191171249Y-91223784D01*
X191185959Y-91224836D01*
X191186945Y-91224965D01*
X191198599Y-91226500D01*
X191397400Y-91226499D01*
X191397401Y-91226499D01*
X191418024Y-91223784D01*
X191507472Y-91212009D01*
X191507475Y-91212007D01*
X191515326Y-91209905D01*
X191516210Y-91213207D01*
X191569925Y-91207392D01*
X191580514Y-91210501D01*
X191580674Y-91209905D01*
X191588524Y-91212008D01*
X191588526Y-91212008D01*
X191588528Y-91212009D01*
X191698599Y-91226500D01*
X191897400Y-91226499D01*
X191897401Y-91226499D01*
X191918024Y-91223784D01*
X192007472Y-91212009D01*
X192007475Y-91212007D01*
X192015326Y-91209905D01*
X192016210Y-91213207D01*
X192069925Y-91207392D01*
X192080514Y-91210501D01*
X192080674Y-91209905D01*
X192088524Y-91212008D01*
X192088526Y-91212008D01*
X192088528Y-91212009D01*
X192198599Y-91226500D01*
X192397400Y-91226499D01*
X192397401Y-91226499D01*
X192418024Y-91223784D01*
X192507472Y-91212009D01*
X192507475Y-91212007D01*
X192515326Y-91209905D01*
X192516210Y-91213207D01*
X192569925Y-91207392D01*
X192580514Y-91210501D01*
X192580674Y-91209905D01*
X192588524Y-91212008D01*
X192588526Y-91212008D01*
X192588528Y-91212009D01*
X192698599Y-91226500D01*
X192897400Y-91226499D01*
X192897401Y-91226499D01*
X192918024Y-91223784D01*
X193007472Y-91212009D01*
X193007475Y-91212007D01*
X193015326Y-91209905D01*
X193016210Y-91213207D01*
X193069925Y-91207392D01*
X193080514Y-91210501D01*
X193080674Y-91209905D01*
X193088524Y-91212008D01*
X193088526Y-91212008D01*
X193088528Y-91212009D01*
X193198599Y-91226500D01*
X193397400Y-91226499D01*
X193397401Y-91226499D01*
X193418024Y-91223784D01*
X193507472Y-91212009D01*
X193507475Y-91212007D01*
X193515326Y-91209905D01*
X193516210Y-91213207D01*
X193569925Y-91207392D01*
X193580514Y-91210501D01*
X193580674Y-91209905D01*
X193588524Y-91212008D01*
X193588526Y-91212008D01*
X193588528Y-91212009D01*
X193698599Y-91226500D01*
X193897400Y-91226499D01*
X193897401Y-91226499D01*
X193918024Y-91223784D01*
X194007472Y-91212009D01*
X194007475Y-91212007D01*
X194015326Y-91209905D01*
X194016210Y-91213207D01*
X194069925Y-91207392D01*
X194080514Y-91210501D01*
X194080674Y-91209905D01*
X194088524Y-91212008D01*
X194088526Y-91212008D01*
X194088528Y-91212009D01*
X194198599Y-91226500D01*
X194397400Y-91226499D01*
X194397401Y-91226499D01*
X194418024Y-91223784D01*
X194507472Y-91212009D01*
X194507475Y-91212007D01*
X194515326Y-91209905D01*
X194516210Y-91213207D01*
X194569925Y-91207392D01*
X194580514Y-91210501D01*
X194580674Y-91209905D01*
X194588524Y-91212008D01*
X194588526Y-91212008D01*
X194588528Y-91212009D01*
X194698599Y-91226500D01*
X194897400Y-91226499D01*
X194897401Y-91226499D01*
X194918024Y-91223784D01*
X195007472Y-91212009D01*
X195007475Y-91212007D01*
X195015326Y-91209905D01*
X195016210Y-91213207D01*
X195069925Y-91207392D01*
X195080514Y-91210501D01*
X195080674Y-91209905D01*
X195088524Y-91212008D01*
X195088526Y-91212008D01*
X195088528Y-91212009D01*
X195198599Y-91226500D01*
X195397400Y-91226499D01*
X195397401Y-91226499D01*
X195418024Y-91223784D01*
X195507472Y-91212009D01*
X195507475Y-91212007D01*
X195515326Y-91209905D01*
X195516210Y-91213207D01*
X195569925Y-91207392D01*
X195580514Y-91210501D01*
G37*
%TD.AperFunction*%
%TD*%
%TA.AperFunction,Conductor*%
%TO.N,/Power/LX*%
G36*
X198774587Y-109620685D02*
G01*
X198820342Y-109673489D01*
X198830286Y-109742647D01*
X198801261Y-109806203D01*
X198793744Y-109813202D01*
X198794082Y-109813540D01*
X198787809Y-109819812D01*
X198701649Y-109934906D01*
X198701645Y-109934913D01*
X198651403Y-110069620D01*
X198651401Y-110069627D01*
X198645000Y-110129155D01*
X198645000Y-111127000D01*
X200395000Y-111127000D01*
X200395000Y-110129172D01*
X200394999Y-110129155D01*
X200388598Y-110069627D01*
X200388596Y-110069620D01*
X200338354Y-109934913D01*
X200338350Y-109934906D01*
X200252190Y-109819812D01*
X200245918Y-109813540D01*
X200248313Y-109811144D01*
X200216261Y-109768310D01*
X200211291Y-109698617D01*
X200244789Y-109637301D01*
X200306119Y-109603828D01*
X200332452Y-109601000D01*
X201806000Y-109601000D01*
X201873039Y-109620685D01*
X201918794Y-109673489D01*
X201930000Y-109725000D01*
X201930000Y-111132377D01*
X201910315Y-111199416D01*
X201857511Y-111245171D01*
X201788353Y-111255115D01*
X201767683Y-111250308D01*
X201763147Y-111248834D01*
X201669486Y-111234000D01*
X201613000Y-111234000D01*
X201613000Y-112147500D01*
X201593315Y-112214539D01*
X201540511Y-112260294D01*
X201489000Y-112271500D01*
X200938001Y-112271500D01*
X200938001Y-112690479D01*
X200952835Y-112784149D01*
X200952837Y-112784155D01*
X201010356Y-112897041D01*
X201010363Y-112897050D01*
X201058632Y-112945319D01*
X201092117Y-113006642D01*
X201087133Y-113076334D01*
X201045261Y-113132267D01*
X200979797Y-113156684D01*
X200970951Y-113157000D01*
X200406000Y-113157000D01*
X200406000Y-114938000D01*
X200386315Y-115005039D01*
X200333511Y-115050794D01*
X200282000Y-115062000D01*
X200068022Y-115062000D01*
X200000983Y-115042315D01*
X199955228Y-114989511D01*
X199945284Y-114920353D01*
X199974309Y-114856797D01*
X199979040Y-114851715D01*
X200061184Y-114741984D01*
X200061185Y-114741983D01*
X200108916Y-114614010D01*
X200114999Y-114557428D01*
X200115000Y-114557427D01*
X200115000Y-114412000D01*
X198665001Y-114412000D01*
X198665001Y-114557439D01*
X198671081Y-114614007D01*
X198718813Y-114741981D01*
X198718815Y-114741984D01*
X198805985Y-114858429D01*
X198804638Y-114859437D01*
X198833144Y-114911642D01*
X198828160Y-114981334D01*
X198786288Y-115037267D01*
X198720824Y-115061684D01*
X198711978Y-115062000D01*
X198501000Y-115062000D01*
X198501000Y-116970000D01*
X198481315Y-117037039D01*
X198428511Y-117082794D01*
X198377000Y-117094000D01*
X196339000Y-117094000D01*
X196271961Y-117074315D01*
X196226206Y-117021511D01*
X196215000Y-116970000D01*
X196215000Y-116633293D01*
X196234685Y-116566254D01*
X196287489Y-116520499D01*
X196356647Y-116510555D01*
X196413311Y-116534026D01*
X196499016Y-116598185D01*
X196626991Y-116645917D01*
X196626994Y-116645918D01*
X196683556Y-116651999D01*
X196978999Y-116651999D01*
X197229000Y-116651999D01*
X197524433Y-116651999D01*
X197524439Y-116651998D01*
X197581007Y-116645918D01*
X197708981Y-116598186D01*
X197708984Y-116598184D01*
X197818329Y-116516329D01*
X197900184Y-116406984D01*
X197900185Y-116406983D01*
X197947916Y-116279010D01*
X197953999Y-116222428D01*
X197954000Y-116222427D01*
X197954000Y-116077000D01*
X197229000Y-116077000D01*
X197229000Y-116651999D01*
X196978999Y-116651999D01*
X196979000Y-116651998D01*
X196979000Y-115827000D01*
X197229000Y-115827000D01*
X197953999Y-115827000D01*
X197953999Y-115681566D01*
X197953998Y-115681560D01*
X197947918Y-115624992D01*
X197900186Y-115497018D01*
X197900184Y-115497015D01*
X197818329Y-115387670D01*
X197708984Y-115305815D01*
X197708983Y-115305814D01*
X197581010Y-115258083D01*
X197524428Y-115252000D01*
X197229000Y-115252000D01*
X197229000Y-115827000D01*
X196979000Y-115827000D01*
X196979000Y-115252000D01*
X196683566Y-115252000D01*
X196683559Y-115252001D01*
X196626992Y-115258081D01*
X196499018Y-115305813D01*
X196499012Y-115305817D01*
X196413310Y-115369973D01*
X196347846Y-115394390D01*
X196279573Y-115379538D01*
X196230168Y-115330133D01*
X196215000Y-115270706D01*
X196215000Y-114016571D01*
X198665000Y-114016571D01*
X198665000Y-114162000D01*
X199265000Y-114162000D01*
X199515000Y-114162000D01*
X200114999Y-114162000D01*
X200114999Y-114016566D01*
X200114998Y-114016560D01*
X200108918Y-113959992D01*
X200061186Y-113832018D01*
X200061184Y-113832015D01*
X199979329Y-113722670D01*
X199869984Y-113640815D01*
X199869983Y-113640814D01*
X199742010Y-113593083D01*
X199685428Y-113587000D01*
X199515000Y-113587000D01*
X199515000Y-114162000D01*
X199265000Y-114162000D01*
X199265000Y-113587000D01*
X199094566Y-113587000D01*
X199094559Y-113587001D01*
X199037992Y-113593081D01*
X198910018Y-113640813D01*
X198910015Y-113640815D01*
X198800670Y-113722670D01*
X198718815Y-113832015D01*
X198718814Y-113832016D01*
X198671083Y-113959989D01*
X198665000Y-114016571D01*
X196215000Y-114016571D01*
X196215000Y-113662000D01*
X196234685Y-113594961D01*
X196287489Y-113549206D01*
X196339000Y-113538000D01*
X198247000Y-113538000D01*
X198247000Y-112374844D01*
X198645000Y-112374844D01*
X198651401Y-112434372D01*
X198651403Y-112434379D01*
X198701645Y-112569086D01*
X198701649Y-112569093D01*
X198787809Y-112684187D01*
X198787812Y-112684190D01*
X198902906Y-112770350D01*
X198902913Y-112770354D01*
X199037620Y-112820596D01*
X199037627Y-112820598D01*
X199097155Y-112826999D01*
X199097172Y-112827000D01*
X199395000Y-112827000D01*
X199645000Y-112827000D01*
X199942828Y-112827000D01*
X199942844Y-112826999D01*
X200002372Y-112820598D01*
X200002379Y-112820596D01*
X200137086Y-112770354D01*
X200137093Y-112770350D01*
X200252187Y-112684190D01*
X200252190Y-112684187D01*
X200338350Y-112569093D01*
X200338354Y-112569086D01*
X200388596Y-112434379D01*
X200388598Y-112434372D01*
X200394999Y-112374844D01*
X200395000Y-112374827D01*
X200395000Y-111602513D01*
X200938000Y-111602513D01*
X200938000Y-112021500D01*
X201363000Y-112021500D01*
X201363000Y-111234000D01*
X201362999Y-111233999D01*
X201306521Y-111234000D01*
X201212849Y-111248835D01*
X201212844Y-111248837D01*
X201099958Y-111306356D01*
X201099949Y-111306363D01*
X201010363Y-111395949D01*
X201010360Y-111395953D01*
X200952833Y-111508855D01*
X200938000Y-111602513D01*
X200395000Y-111602513D01*
X200395000Y-111377000D01*
X199645000Y-111377000D01*
X199645000Y-112827000D01*
X199395000Y-112827000D01*
X199395000Y-111377000D01*
X198645000Y-111377000D01*
X198645000Y-112374844D01*
X198247000Y-112374844D01*
X198247000Y-109725000D01*
X198266685Y-109657961D01*
X198319489Y-109612206D01*
X198371000Y-109601000D01*
X198707548Y-109601000D01*
X198774587Y-109620685D01*
G37*
%TD.AperFunction*%
%TD*%
%TA.AperFunction,Conductor*%
%TO.N,/Power/PRE_OUT*%
G36*
X195974587Y-109620685D02*
G01*
X196020342Y-109673489D01*
X196030286Y-109742647D01*
X196001261Y-109806203D01*
X195993744Y-109813202D01*
X195994082Y-109813540D01*
X195987809Y-109819812D01*
X195901649Y-109934906D01*
X195901645Y-109934913D01*
X195851403Y-110069620D01*
X195851401Y-110069627D01*
X195845000Y-110129155D01*
X195845000Y-111127000D01*
X196721000Y-111127000D01*
X196788039Y-111146685D01*
X196833794Y-111199489D01*
X196845000Y-111251000D01*
X196845000Y-112827000D01*
X197142828Y-112827000D01*
X197142844Y-112826999D01*
X197202372Y-112820598D01*
X197202379Y-112820596D01*
X197337086Y-112770354D01*
X197337093Y-112770350D01*
X197452187Y-112684190D01*
X197452190Y-112684187D01*
X197515734Y-112599305D01*
X197571668Y-112557434D01*
X197641359Y-112552450D01*
X197702682Y-112585936D01*
X197736166Y-112647259D01*
X197739000Y-112673616D01*
X197739000Y-113033000D01*
X197719315Y-113100039D01*
X197666511Y-113145794D01*
X197615000Y-113157000D01*
X195834000Y-113157000D01*
X195834000Y-114557000D01*
X195814315Y-114624039D01*
X195761511Y-114669794D01*
X195710000Y-114681000D01*
X195338416Y-114681000D01*
X195271377Y-114661315D01*
X195225622Y-114608511D01*
X195215678Y-114539353D01*
X195233214Y-114497011D01*
X195230935Y-114495767D01*
X195235185Y-114487983D01*
X195282916Y-114360010D01*
X195288999Y-114303428D01*
X195289000Y-114303427D01*
X195289000Y-114158000D01*
X193839001Y-114158000D01*
X193839001Y-114303439D01*
X193845081Y-114360007D01*
X193892813Y-114487981D01*
X193897065Y-114495767D01*
X193894294Y-114497279D01*
X193913269Y-114548163D01*
X193898412Y-114616435D01*
X193849003Y-114665837D01*
X193789584Y-114681000D01*
X193418000Y-114681000D01*
X193350961Y-114661315D01*
X193305206Y-114608511D01*
X193294000Y-114557000D01*
X193294000Y-113762571D01*
X193839000Y-113762571D01*
X193839000Y-113908000D01*
X194439000Y-113908000D01*
X194689000Y-113908000D01*
X195288999Y-113908000D01*
X195288999Y-113762566D01*
X195288998Y-113762560D01*
X195282918Y-113705992D01*
X195235186Y-113578018D01*
X195235184Y-113578015D01*
X195153329Y-113468670D01*
X195043984Y-113386815D01*
X195043983Y-113386814D01*
X194916010Y-113339083D01*
X194859428Y-113333000D01*
X194689000Y-113333000D01*
X194689000Y-113908000D01*
X194439000Y-113908000D01*
X194439000Y-113333000D01*
X194268566Y-113333000D01*
X194268559Y-113333001D01*
X194211992Y-113339081D01*
X194084018Y-113386813D01*
X194084015Y-113386815D01*
X193974670Y-113468670D01*
X193892815Y-113578015D01*
X193892814Y-113578016D01*
X193845083Y-113705989D01*
X193839000Y-113762571D01*
X193294000Y-113762571D01*
X193294000Y-112374844D01*
X195845000Y-112374844D01*
X195851401Y-112434372D01*
X195851403Y-112434379D01*
X195901645Y-112569086D01*
X195901649Y-112569093D01*
X195987809Y-112684187D01*
X195987812Y-112684190D01*
X196102906Y-112770350D01*
X196102913Y-112770354D01*
X196237620Y-112820596D01*
X196237627Y-112820598D01*
X196297155Y-112826999D01*
X196297172Y-112827000D01*
X196595000Y-112827000D01*
X196595000Y-111377000D01*
X195845000Y-111377000D01*
X195845000Y-112374844D01*
X193294000Y-112374844D01*
X193294000Y-111672439D01*
X193990001Y-111672439D01*
X193996081Y-111729007D01*
X194043813Y-111856981D01*
X194043815Y-111856984D01*
X194125670Y-111966329D01*
X194235015Y-112048184D01*
X194235016Y-112048185D01*
X194362991Y-112095917D01*
X194362994Y-112095918D01*
X194419555Y-112101999D01*
X194564999Y-112101999D01*
X194815000Y-112101999D01*
X194960433Y-112101999D01*
X194960439Y-112101998D01*
X195017007Y-112095918D01*
X195144981Y-112048186D01*
X195144984Y-112048184D01*
X195254329Y-111966329D01*
X195336184Y-111856984D01*
X195336185Y-111856983D01*
X195383916Y-111729010D01*
X195389999Y-111672428D01*
X195390000Y-111672427D01*
X195390000Y-111377000D01*
X194815000Y-111377000D01*
X194815000Y-112101999D01*
X194564999Y-112101999D01*
X194565000Y-112101998D01*
X194565000Y-111377000D01*
X193990001Y-111377000D01*
X193990001Y-111672439D01*
X193294000Y-111672439D01*
X193294000Y-110831571D01*
X193990000Y-110831571D01*
X193990000Y-111127000D01*
X194565000Y-111127000D01*
X194815000Y-111127000D01*
X195389999Y-111127000D01*
X195389999Y-110831566D01*
X195389998Y-110831560D01*
X195383918Y-110774992D01*
X195336186Y-110647018D01*
X195336184Y-110647015D01*
X195254329Y-110537670D01*
X195144984Y-110455815D01*
X195144983Y-110455814D01*
X195017010Y-110408083D01*
X194960428Y-110402000D01*
X194815000Y-110402000D01*
X194815000Y-111127000D01*
X194565000Y-111127000D01*
X194565000Y-110402000D01*
X194419566Y-110402000D01*
X194419559Y-110402001D01*
X194362992Y-110408081D01*
X194235018Y-110455813D01*
X194235015Y-110455815D01*
X194125670Y-110537670D01*
X194043815Y-110647015D01*
X194043814Y-110647016D01*
X193996083Y-110774989D01*
X193990000Y-110831571D01*
X193294000Y-110831571D01*
X193294000Y-109725000D01*
X193313685Y-109657961D01*
X193366489Y-109612206D01*
X193418000Y-109601000D01*
X195907548Y-109601000D01*
X195974587Y-109620685D01*
G37*
%TD.AperFunction*%
%TD*%
M02*
