%TF.GenerationSoftware,KiCad,Pcbnew,8.0.6-8.0.6-0~ubuntu24.04.1*%
%TF.CreationDate,2024-11-24T16:58:16-06:00*%
%TF.ProjectId,can_distance_sensor,63616e5f-6469-4737-9461-6e63655f7365,rev?*%
%TF.SameCoordinates,Original*%
%TF.FileFunction,Legend,Top*%
%TF.FilePolarity,Positive*%
%FSLAX46Y46*%
G04 Gerber Fmt 4.6, Leading zero omitted, Abs format (unit mm)*
G04 Created by KiCad (PCBNEW 8.0.6-8.0.6-0~ubuntu24.04.1) date 2024-11-24 16:58:16*
%MOMM*%
%LPD*%
G01*
G04 APERTURE LIST*
%ADD10C,0.150000*%
%ADD11C,0.063500*%
%ADD12C,0.152400*%
%ADD13C,0.120000*%
%ADD14C,0.508000*%
G04 APERTURE END LIST*
D10*
X197966180Y-89916095D02*
X197156657Y-89916095D01*
X197156657Y-89916095D02*
X197061419Y-89963714D01*
X197061419Y-89963714D02*
X197013800Y-90011333D01*
X197013800Y-90011333D02*
X196966180Y-90106571D01*
X196966180Y-90106571D02*
X196966180Y-90297047D01*
X196966180Y-90297047D02*
X197013800Y-90392285D01*
X197013800Y-90392285D02*
X197061419Y-90439904D01*
X197061419Y-90439904D02*
X197156657Y-90487523D01*
X197156657Y-90487523D02*
X197966180Y-90487523D01*
X197966180Y-91439904D02*
X197966180Y-90963714D01*
X197966180Y-90963714D02*
X197489990Y-90916095D01*
X197489990Y-90916095D02*
X197537609Y-90963714D01*
X197537609Y-90963714D02*
X197585228Y-91058952D01*
X197585228Y-91058952D02*
X197585228Y-91297047D01*
X197585228Y-91297047D02*
X197537609Y-91392285D01*
X197537609Y-91392285D02*
X197489990Y-91439904D01*
X197489990Y-91439904D02*
X197394752Y-91487523D01*
X197394752Y-91487523D02*
X197156657Y-91487523D01*
X197156657Y-91487523D02*
X197061419Y-91439904D01*
X197061419Y-91439904D02*
X197013800Y-91392285D01*
X197013800Y-91392285D02*
X196966180Y-91297047D01*
X196966180Y-91297047D02*
X196966180Y-91058952D01*
X196966180Y-91058952D02*
X197013800Y-90963714D01*
X197013800Y-90963714D02*
X197061419Y-90916095D01*
X196442680Y-91477973D02*
X196204585Y-91477973D01*
X196299823Y-91239878D02*
X196204585Y-91477973D01*
X196204585Y-91477973D02*
X196299823Y-91716068D01*
X196014109Y-91335116D02*
X196204585Y-91477973D01*
X196204585Y-91477973D02*
X196014109Y-91620830D01*
X195352319Y-91477972D02*
X195590414Y-91477972D01*
X195495176Y-91716067D02*
X195590414Y-91477972D01*
X195590414Y-91477972D02*
X195495176Y-91239877D01*
X195780890Y-91620829D02*
X195590414Y-91477972D01*
X195590414Y-91477972D02*
X195780890Y-91335115D01*
D11*
X183741785Y-91095461D02*
X183530118Y-90793080D01*
X183378928Y-91095461D02*
X183378928Y-90460461D01*
X183378928Y-90460461D02*
X183620833Y-90460461D01*
X183620833Y-90460461D02*
X183681309Y-90490699D01*
X183681309Y-90490699D02*
X183711547Y-90520937D01*
X183711547Y-90520937D02*
X183741785Y-90581413D01*
X183741785Y-90581413D02*
X183741785Y-90672127D01*
X183741785Y-90672127D02*
X183711547Y-90732603D01*
X183711547Y-90732603D02*
X183681309Y-90762842D01*
X183681309Y-90762842D02*
X183620833Y-90793080D01*
X183620833Y-90793080D02*
X183378928Y-90793080D01*
X184346547Y-91095461D02*
X183983690Y-91095461D01*
X184165118Y-91095461D02*
X184165118Y-90460461D01*
X184165118Y-90460461D02*
X184104642Y-90551175D01*
X184104642Y-90551175D02*
X184044166Y-90611651D01*
X184044166Y-90611651D02*
X183983690Y-90641889D01*
X184558214Y-90460461D02*
X184951309Y-90460461D01*
X184951309Y-90460461D02*
X184739642Y-90702365D01*
X184739642Y-90702365D02*
X184830357Y-90702365D01*
X184830357Y-90702365D02*
X184890833Y-90732603D01*
X184890833Y-90732603D02*
X184921071Y-90762842D01*
X184921071Y-90762842D02*
X184951309Y-90823318D01*
X184951309Y-90823318D02*
X184951309Y-90974508D01*
X184951309Y-90974508D02*
X184921071Y-91034984D01*
X184921071Y-91034984D02*
X184890833Y-91065223D01*
X184890833Y-91065223D02*
X184830357Y-91095461D01*
X184830357Y-91095461D02*
X184648928Y-91095461D01*
X184648928Y-91095461D02*
X184588452Y-91065223D01*
X184588452Y-91065223D02*
X184558214Y-91034984D01*
X184298166Y-93762461D02*
X184086499Y-93460080D01*
X183935309Y-93762461D02*
X183935309Y-93127461D01*
X183935309Y-93127461D02*
X184177214Y-93127461D01*
X184177214Y-93127461D02*
X184237690Y-93157699D01*
X184237690Y-93157699D02*
X184267928Y-93187937D01*
X184267928Y-93187937D02*
X184298166Y-93248413D01*
X184298166Y-93248413D02*
X184298166Y-93339127D01*
X184298166Y-93339127D02*
X184267928Y-93399603D01*
X184267928Y-93399603D02*
X184237690Y-93429842D01*
X184237690Y-93429842D02*
X184177214Y-93460080D01*
X184177214Y-93460080D02*
X183935309Y-93460080D01*
X184661023Y-93399603D02*
X184600547Y-93369365D01*
X184600547Y-93369365D02*
X184570309Y-93339127D01*
X184570309Y-93339127D02*
X184540071Y-93278651D01*
X184540071Y-93278651D02*
X184540071Y-93248413D01*
X184540071Y-93248413D02*
X184570309Y-93187937D01*
X184570309Y-93187937D02*
X184600547Y-93157699D01*
X184600547Y-93157699D02*
X184661023Y-93127461D01*
X184661023Y-93127461D02*
X184781976Y-93127461D01*
X184781976Y-93127461D02*
X184842452Y-93157699D01*
X184842452Y-93157699D02*
X184872690Y-93187937D01*
X184872690Y-93187937D02*
X184902928Y-93248413D01*
X184902928Y-93248413D02*
X184902928Y-93278651D01*
X184902928Y-93278651D02*
X184872690Y-93339127D01*
X184872690Y-93339127D02*
X184842452Y-93369365D01*
X184842452Y-93369365D02*
X184781976Y-93399603D01*
X184781976Y-93399603D02*
X184661023Y-93399603D01*
X184661023Y-93399603D02*
X184600547Y-93429842D01*
X184600547Y-93429842D02*
X184570309Y-93460080D01*
X184570309Y-93460080D02*
X184540071Y-93520556D01*
X184540071Y-93520556D02*
X184540071Y-93641508D01*
X184540071Y-93641508D02*
X184570309Y-93701984D01*
X184570309Y-93701984D02*
X184600547Y-93732223D01*
X184600547Y-93732223D02*
X184661023Y-93762461D01*
X184661023Y-93762461D02*
X184781976Y-93762461D01*
X184781976Y-93762461D02*
X184842452Y-93732223D01*
X184842452Y-93732223D02*
X184872690Y-93701984D01*
X184872690Y-93701984D02*
X184902928Y-93641508D01*
X184902928Y-93641508D02*
X184902928Y-93520556D01*
X184902928Y-93520556D02*
X184872690Y-93460080D01*
X184872690Y-93460080D02*
X184842452Y-93429842D01*
X184842452Y-93429842D02*
X184781976Y-93399603D01*
X189586984Y-117072833D02*
X189617223Y-117103071D01*
X189617223Y-117103071D02*
X189647461Y-117193785D01*
X189647461Y-117193785D02*
X189647461Y-117254261D01*
X189647461Y-117254261D02*
X189617223Y-117344976D01*
X189617223Y-117344976D02*
X189556746Y-117405452D01*
X189556746Y-117405452D02*
X189496270Y-117435690D01*
X189496270Y-117435690D02*
X189375318Y-117465928D01*
X189375318Y-117465928D02*
X189284603Y-117465928D01*
X189284603Y-117465928D02*
X189163651Y-117435690D01*
X189163651Y-117435690D02*
X189103175Y-117405452D01*
X189103175Y-117405452D02*
X189042699Y-117344976D01*
X189042699Y-117344976D02*
X189012461Y-117254261D01*
X189012461Y-117254261D02*
X189012461Y-117193785D01*
X189012461Y-117193785D02*
X189042699Y-117103071D01*
X189042699Y-117103071D02*
X189072937Y-117072833D01*
X189012461Y-116861166D02*
X189012461Y-116437833D01*
X189012461Y-116437833D02*
X189647461Y-116709976D01*
X206043461Y-110450690D02*
X205408461Y-110450690D01*
X205408461Y-110450690D02*
X205408461Y-110299500D01*
X205408461Y-110299500D02*
X205438699Y-110208785D01*
X205438699Y-110208785D02*
X205499175Y-110148309D01*
X205499175Y-110148309D02*
X205559651Y-110118071D01*
X205559651Y-110118071D02*
X205680603Y-110087833D01*
X205680603Y-110087833D02*
X205771318Y-110087833D01*
X205771318Y-110087833D02*
X205892270Y-110118071D01*
X205892270Y-110118071D02*
X205952746Y-110148309D01*
X205952746Y-110148309D02*
X206013223Y-110208785D01*
X206013223Y-110208785D02*
X206043461Y-110299500D01*
X206043461Y-110299500D02*
X206043461Y-110450690D01*
X205408461Y-109876166D02*
X205408461Y-109452833D01*
X205408461Y-109452833D02*
X206043461Y-109724976D01*
X188377461Y-126646214D02*
X188075080Y-126857881D01*
X188377461Y-127009071D02*
X187742461Y-127009071D01*
X187742461Y-127009071D02*
X187742461Y-126767166D01*
X187742461Y-126767166D02*
X187772699Y-126706690D01*
X187772699Y-126706690D02*
X187802937Y-126676452D01*
X187802937Y-126676452D02*
X187863413Y-126646214D01*
X187863413Y-126646214D02*
X187954127Y-126646214D01*
X187954127Y-126646214D02*
X188014603Y-126676452D01*
X188014603Y-126676452D02*
X188044842Y-126706690D01*
X188044842Y-126706690D02*
X188075080Y-126767166D01*
X188075080Y-126767166D02*
X188075080Y-127009071D01*
X188377461Y-126041452D02*
X188377461Y-126404309D01*
X188377461Y-126222881D02*
X187742461Y-126222881D01*
X187742461Y-126222881D02*
X187833175Y-126283357D01*
X187833175Y-126283357D02*
X187893651Y-126343833D01*
X187893651Y-126343833D02*
X187923889Y-126404309D01*
X187802937Y-125799547D02*
X187772699Y-125769309D01*
X187772699Y-125769309D02*
X187742461Y-125708833D01*
X187742461Y-125708833D02*
X187742461Y-125557642D01*
X187742461Y-125557642D02*
X187772699Y-125497166D01*
X187772699Y-125497166D02*
X187802937Y-125466928D01*
X187802937Y-125466928D02*
X187863413Y-125436690D01*
X187863413Y-125436690D02*
X187923889Y-125436690D01*
X187923889Y-125436690D02*
X188014603Y-125466928D01*
X188014603Y-125466928D02*
X188377461Y-125829785D01*
X188377461Y-125829785D02*
X188377461Y-125436690D01*
X199111984Y-132488214D02*
X199142223Y-132518452D01*
X199142223Y-132518452D02*
X199172461Y-132609166D01*
X199172461Y-132609166D02*
X199172461Y-132669642D01*
X199172461Y-132669642D02*
X199142223Y-132760357D01*
X199142223Y-132760357D02*
X199081746Y-132820833D01*
X199081746Y-132820833D02*
X199021270Y-132851071D01*
X199021270Y-132851071D02*
X198900318Y-132881309D01*
X198900318Y-132881309D02*
X198809603Y-132881309D01*
X198809603Y-132881309D02*
X198688651Y-132851071D01*
X198688651Y-132851071D02*
X198628175Y-132820833D01*
X198628175Y-132820833D02*
X198567699Y-132760357D01*
X198567699Y-132760357D02*
X198537461Y-132669642D01*
X198537461Y-132669642D02*
X198537461Y-132609166D01*
X198537461Y-132609166D02*
X198567699Y-132518452D01*
X198567699Y-132518452D02*
X198597937Y-132488214D01*
X198597937Y-132246309D02*
X198567699Y-132216071D01*
X198567699Y-132216071D02*
X198537461Y-132155595D01*
X198537461Y-132155595D02*
X198537461Y-132004404D01*
X198537461Y-132004404D02*
X198567699Y-131943928D01*
X198567699Y-131943928D02*
X198597937Y-131913690D01*
X198597937Y-131913690D02*
X198658413Y-131883452D01*
X198658413Y-131883452D02*
X198718889Y-131883452D01*
X198718889Y-131883452D02*
X198809603Y-131913690D01*
X198809603Y-131913690D02*
X199172461Y-132276547D01*
X199172461Y-132276547D02*
X199172461Y-131883452D01*
X198537461Y-131490357D02*
X198537461Y-131429880D01*
X198537461Y-131429880D02*
X198567699Y-131369404D01*
X198567699Y-131369404D02*
X198597937Y-131339166D01*
X198597937Y-131339166D02*
X198658413Y-131308928D01*
X198658413Y-131308928D02*
X198779365Y-131278690D01*
X198779365Y-131278690D02*
X198930556Y-131278690D01*
X198930556Y-131278690D02*
X199051508Y-131308928D01*
X199051508Y-131308928D02*
X199111984Y-131339166D01*
X199111984Y-131339166D02*
X199142223Y-131369404D01*
X199142223Y-131369404D02*
X199172461Y-131429880D01*
X199172461Y-131429880D02*
X199172461Y-131490357D01*
X199172461Y-131490357D02*
X199142223Y-131550833D01*
X199142223Y-131550833D02*
X199111984Y-131581071D01*
X199111984Y-131581071D02*
X199051508Y-131611309D01*
X199051508Y-131611309D02*
X198930556Y-131641547D01*
X198930556Y-131641547D02*
X198779365Y-131641547D01*
X198779365Y-131641547D02*
X198658413Y-131611309D01*
X198658413Y-131611309D02*
X198597937Y-131581071D01*
X198597937Y-131581071D02*
X198567699Y-131550833D01*
X198567699Y-131550833D02*
X198537461Y-131490357D01*
X185773785Y-109830984D02*
X185743547Y-109861223D01*
X185743547Y-109861223D02*
X185652833Y-109891461D01*
X185652833Y-109891461D02*
X185592357Y-109891461D01*
X185592357Y-109891461D02*
X185501642Y-109861223D01*
X185501642Y-109861223D02*
X185441166Y-109800746D01*
X185441166Y-109800746D02*
X185410928Y-109740270D01*
X185410928Y-109740270D02*
X185380690Y-109619318D01*
X185380690Y-109619318D02*
X185380690Y-109528603D01*
X185380690Y-109528603D02*
X185410928Y-109407651D01*
X185410928Y-109407651D02*
X185441166Y-109347175D01*
X185441166Y-109347175D02*
X185501642Y-109286699D01*
X185501642Y-109286699D02*
X185592357Y-109256461D01*
X185592357Y-109256461D02*
X185652833Y-109256461D01*
X185652833Y-109256461D02*
X185743547Y-109286699D01*
X185743547Y-109286699D02*
X185773785Y-109316937D01*
X186378547Y-109891461D02*
X186015690Y-109891461D01*
X186197118Y-109891461D02*
X186197118Y-109256461D01*
X186197118Y-109256461D02*
X186136642Y-109347175D01*
X186136642Y-109347175D02*
X186076166Y-109407651D01*
X186076166Y-109407651D02*
X186015690Y-109437889D01*
X186953071Y-109256461D02*
X186650690Y-109256461D01*
X186650690Y-109256461D02*
X186620452Y-109558842D01*
X186620452Y-109558842D02*
X186650690Y-109528603D01*
X186650690Y-109528603D02*
X186711166Y-109498365D01*
X186711166Y-109498365D02*
X186862357Y-109498365D01*
X186862357Y-109498365D02*
X186922833Y-109528603D01*
X186922833Y-109528603D02*
X186953071Y-109558842D01*
X186953071Y-109558842D02*
X186983309Y-109619318D01*
X186983309Y-109619318D02*
X186983309Y-109770508D01*
X186983309Y-109770508D02*
X186953071Y-109830984D01*
X186953071Y-109830984D02*
X186922833Y-109861223D01*
X186922833Y-109861223D02*
X186862357Y-109891461D01*
X186862357Y-109891461D02*
X186711166Y-109891461D01*
X186711166Y-109891461D02*
X186650690Y-109861223D01*
X186650690Y-109861223D02*
X186620452Y-109830984D01*
X184044166Y-97384984D02*
X184013928Y-97415223D01*
X184013928Y-97415223D02*
X183923214Y-97445461D01*
X183923214Y-97445461D02*
X183862738Y-97445461D01*
X183862738Y-97445461D02*
X183772023Y-97415223D01*
X183772023Y-97415223D02*
X183711547Y-97354746D01*
X183711547Y-97354746D02*
X183681309Y-97294270D01*
X183681309Y-97294270D02*
X183651071Y-97173318D01*
X183651071Y-97173318D02*
X183651071Y-97082603D01*
X183651071Y-97082603D02*
X183681309Y-96961651D01*
X183681309Y-96961651D02*
X183711547Y-96901175D01*
X183711547Y-96901175D02*
X183772023Y-96840699D01*
X183772023Y-96840699D02*
X183862738Y-96810461D01*
X183862738Y-96810461D02*
X183923214Y-96810461D01*
X183923214Y-96810461D02*
X184013928Y-96840699D01*
X184013928Y-96840699D02*
X184044166Y-96870937D01*
X184618690Y-96810461D02*
X184316309Y-96810461D01*
X184316309Y-96810461D02*
X184286071Y-97112842D01*
X184286071Y-97112842D02*
X184316309Y-97082603D01*
X184316309Y-97082603D02*
X184376785Y-97052365D01*
X184376785Y-97052365D02*
X184527976Y-97052365D01*
X184527976Y-97052365D02*
X184588452Y-97082603D01*
X184588452Y-97082603D02*
X184618690Y-97112842D01*
X184618690Y-97112842D02*
X184648928Y-97173318D01*
X184648928Y-97173318D02*
X184648928Y-97324508D01*
X184648928Y-97324508D02*
X184618690Y-97384984D01*
X184618690Y-97384984D02*
X184588452Y-97415223D01*
X184588452Y-97415223D02*
X184527976Y-97445461D01*
X184527976Y-97445461D02*
X184376785Y-97445461D01*
X184376785Y-97445461D02*
X184316309Y-97415223D01*
X184316309Y-97415223D02*
X184286071Y-97384984D01*
X207687333Y-88322461D02*
X207687333Y-88776032D01*
X207687333Y-88776032D02*
X207657094Y-88866746D01*
X207657094Y-88866746D02*
X207596618Y-88927223D01*
X207596618Y-88927223D02*
X207505904Y-88957461D01*
X207505904Y-88957461D02*
X207445428Y-88957461D01*
X207959476Y-88382937D02*
X207989714Y-88352699D01*
X207989714Y-88352699D02*
X208050190Y-88322461D01*
X208050190Y-88322461D02*
X208201381Y-88322461D01*
X208201381Y-88322461D02*
X208261857Y-88352699D01*
X208261857Y-88352699D02*
X208292095Y-88382937D01*
X208292095Y-88382937D02*
X208322333Y-88443413D01*
X208322333Y-88443413D02*
X208322333Y-88503889D01*
X208322333Y-88503889D02*
X208292095Y-88594603D01*
X208292095Y-88594603D02*
X207929238Y-88957461D01*
X207929238Y-88957461D02*
X208322333Y-88957461D01*
X190920309Y-123639461D02*
X190920309Y-123004461D01*
X190920309Y-123004461D02*
X191071499Y-123004461D01*
X191071499Y-123004461D02*
X191162214Y-123034699D01*
X191162214Y-123034699D02*
X191222690Y-123095175D01*
X191222690Y-123095175D02*
X191252928Y-123155651D01*
X191252928Y-123155651D02*
X191283166Y-123276603D01*
X191283166Y-123276603D02*
X191283166Y-123367318D01*
X191283166Y-123367318D02*
X191252928Y-123488270D01*
X191252928Y-123488270D02*
X191222690Y-123548746D01*
X191222690Y-123548746D02*
X191162214Y-123609223D01*
X191162214Y-123609223D02*
X191071499Y-123639461D01*
X191071499Y-123639461D02*
X190920309Y-123639461D01*
X191857690Y-123004461D02*
X191555309Y-123004461D01*
X191555309Y-123004461D02*
X191525071Y-123306842D01*
X191525071Y-123306842D02*
X191555309Y-123276603D01*
X191555309Y-123276603D02*
X191615785Y-123246365D01*
X191615785Y-123246365D02*
X191766976Y-123246365D01*
X191766976Y-123246365D02*
X191827452Y-123276603D01*
X191827452Y-123276603D02*
X191857690Y-123306842D01*
X191857690Y-123306842D02*
X191887928Y-123367318D01*
X191887928Y-123367318D02*
X191887928Y-123518508D01*
X191887928Y-123518508D02*
X191857690Y-123578984D01*
X191857690Y-123578984D02*
X191827452Y-123609223D01*
X191827452Y-123609223D02*
X191766976Y-123639461D01*
X191766976Y-123639461D02*
X191615785Y-123639461D01*
X191615785Y-123639461D02*
X191555309Y-123609223D01*
X191555309Y-123609223D02*
X191525071Y-123578984D01*
X209014785Y-134104984D02*
X208984547Y-134135223D01*
X208984547Y-134135223D02*
X208893833Y-134165461D01*
X208893833Y-134165461D02*
X208833357Y-134165461D01*
X208833357Y-134165461D02*
X208742642Y-134135223D01*
X208742642Y-134135223D02*
X208682166Y-134074746D01*
X208682166Y-134074746D02*
X208651928Y-134014270D01*
X208651928Y-134014270D02*
X208621690Y-133893318D01*
X208621690Y-133893318D02*
X208621690Y-133802603D01*
X208621690Y-133802603D02*
X208651928Y-133681651D01*
X208651928Y-133681651D02*
X208682166Y-133621175D01*
X208682166Y-133621175D02*
X208742642Y-133560699D01*
X208742642Y-133560699D02*
X208833357Y-133530461D01*
X208833357Y-133530461D02*
X208893833Y-133530461D01*
X208893833Y-133530461D02*
X208984547Y-133560699D01*
X208984547Y-133560699D02*
X209014785Y-133590937D01*
X209256690Y-133590937D02*
X209286928Y-133560699D01*
X209286928Y-133560699D02*
X209347404Y-133530461D01*
X209347404Y-133530461D02*
X209498595Y-133530461D01*
X209498595Y-133530461D02*
X209559071Y-133560699D01*
X209559071Y-133560699D02*
X209589309Y-133590937D01*
X209589309Y-133590937D02*
X209619547Y-133651413D01*
X209619547Y-133651413D02*
X209619547Y-133711889D01*
X209619547Y-133711889D02*
X209589309Y-133802603D01*
X209589309Y-133802603D02*
X209226452Y-134165461D01*
X209226452Y-134165461D02*
X209619547Y-134165461D01*
X210163833Y-133742127D02*
X210163833Y-134165461D01*
X210012642Y-133500223D02*
X209861452Y-133953794D01*
X209861452Y-133953794D02*
X210254547Y-133953794D01*
X207457523Y-124442937D02*
X207397047Y-124412699D01*
X207397047Y-124412699D02*
X207336571Y-124352223D01*
X207336571Y-124352223D02*
X207245857Y-124261508D01*
X207245857Y-124261508D02*
X207185380Y-124231270D01*
X207185380Y-124231270D02*
X207124904Y-124231270D01*
X207155142Y-124382461D02*
X207094666Y-124352223D01*
X207094666Y-124352223D02*
X207034190Y-124291746D01*
X207034190Y-124291746D02*
X207003952Y-124170794D01*
X207003952Y-124170794D02*
X207003952Y-123959127D01*
X207003952Y-123959127D02*
X207034190Y-123838175D01*
X207034190Y-123838175D02*
X207094666Y-123777699D01*
X207094666Y-123777699D02*
X207155142Y-123747461D01*
X207155142Y-123747461D02*
X207276095Y-123747461D01*
X207276095Y-123747461D02*
X207336571Y-123777699D01*
X207336571Y-123777699D02*
X207397047Y-123838175D01*
X207397047Y-123838175D02*
X207427285Y-123959127D01*
X207427285Y-123959127D02*
X207427285Y-124170794D01*
X207427285Y-124170794D02*
X207397047Y-124291746D01*
X207397047Y-124291746D02*
X207336571Y-124352223D01*
X207336571Y-124352223D02*
X207276095Y-124382461D01*
X207276095Y-124382461D02*
X207155142Y-124382461D01*
X208032047Y-124382461D02*
X207669190Y-124382461D01*
X207850618Y-124382461D02*
X207850618Y-123747461D01*
X207850618Y-123747461D02*
X207790142Y-123838175D01*
X207790142Y-123838175D02*
X207729666Y-123898651D01*
X207729666Y-123898651D02*
X207669190Y-123928889D01*
X202664785Y-107544984D02*
X202634547Y-107575223D01*
X202634547Y-107575223D02*
X202543833Y-107605461D01*
X202543833Y-107605461D02*
X202483357Y-107605461D01*
X202483357Y-107605461D02*
X202392642Y-107575223D01*
X202392642Y-107575223D02*
X202332166Y-107514746D01*
X202332166Y-107514746D02*
X202301928Y-107454270D01*
X202301928Y-107454270D02*
X202271690Y-107333318D01*
X202271690Y-107333318D02*
X202271690Y-107242603D01*
X202271690Y-107242603D02*
X202301928Y-107121651D01*
X202301928Y-107121651D02*
X202332166Y-107061175D01*
X202332166Y-107061175D02*
X202392642Y-107000699D01*
X202392642Y-107000699D02*
X202483357Y-106970461D01*
X202483357Y-106970461D02*
X202543833Y-106970461D01*
X202543833Y-106970461D02*
X202634547Y-107000699D01*
X202634547Y-107000699D02*
X202664785Y-107030937D01*
X203269547Y-107605461D02*
X202906690Y-107605461D01*
X203088118Y-107605461D02*
X203088118Y-106970461D01*
X203088118Y-106970461D02*
X203027642Y-107061175D01*
X203027642Y-107061175D02*
X202967166Y-107121651D01*
X202967166Y-107121651D02*
X202906690Y-107151889D01*
X203511452Y-107030937D02*
X203541690Y-107000699D01*
X203541690Y-107000699D02*
X203602166Y-106970461D01*
X203602166Y-106970461D02*
X203753357Y-106970461D01*
X203753357Y-106970461D02*
X203813833Y-107000699D01*
X203813833Y-107000699D02*
X203844071Y-107030937D01*
X203844071Y-107030937D02*
X203874309Y-107091413D01*
X203874309Y-107091413D02*
X203874309Y-107151889D01*
X203874309Y-107151889D02*
X203844071Y-107242603D01*
X203844071Y-107242603D02*
X203481214Y-107605461D01*
X203481214Y-107605461D02*
X203874309Y-107605461D01*
X186584166Y-99035984D02*
X186553928Y-99066223D01*
X186553928Y-99066223D02*
X186463214Y-99096461D01*
X186463214Y-99096461D02*
X186402738Y-99096461D01*
X186402738Y-99096461D02*
X186312023Y-99066223D01*
X186312023Y-99066223D02*
X186251547Y-99005746D01*
X186251547Y-99005746D02*
X186221309Y-98945270D01*
X186221309Y-98945270D02*
X186191071Y-98824318D01*
X186191071Y-98824318D02*
X186191071Y-98733603D01*
X186191071Y-98733603D02*
X186221309Y-98612651D01*
X186221309Y-98612651D02*
X186251547Y-98552175D01*
X186251547Y-98552175D02*
X186312023Y-98491699D01*
X186312023Y-98491699D02*
X186402738Y-98461461D01*
X186402738Y-98461461D02*
X186463214Y-98461461D01*
X186463214Y-98461461D02*
X186553928Y-98491699D01*
X186553928Y-98491699D02*
X186584166Y-98521937D01*
X186886547Y-99096461D02*
X187007499Y-99096461D01*
X187007499Y-99096461D02*
X187067976Y-99066223D01*
X187067976Y-99066223D02*
X187098214Y-99035984D01*
X187098214Y-99035984D02*
X187158690Y-98945270D01*
X187158690Y-98945270D02*
X187188928Y-98824318D01*
X187188928Y-98824318D02*
X187188928Y-98582413D01*
X187188928Y-98582413D02*
X187158690Y-98521937D01*
X187158690Y-98521937D02*
X187128452Y-98491699D01*
X187128452Y-98491699D02*
X187067976Y-98461461D01*
X187067976Y-98461461D02*
X186947023Y-98461461D01*
X186947023Y-98461461D02*
X186886547Y-98491699D01*
X186886547Y-98491699D02*
X186856309Y-98521937D01*
X186856309Y-98521937D02*
X186826071Y-98582413D01*
X186826071Y-98582413D02*
X186826071Y-98733603D01*
X186826071Y-98733603D02*
X186856309Y-98794080D01*
X186856309Y-98794080D02*
X186886547Y-98824318D01*
X186886547Y-98824318D02*
X186947023Y-98854556D01*
X186947023Y-98854556D02*
X187067976Y-98854556D01*
X187067976Y-98854556D02*
X187128452Y-98824318D01*
X187128452Y-98824318D02*
X187158690Y-98794080D01*
X187158690Y-98794080D02*
X187188928Y-98733603D01*
X208809166Y-95225984D02*
X208778928Y-95256223D01*
X208778928Y-95256223D02*
X208688214Y-95286461D01*
X208688214Y-95286461D02*
X208627738Y-95286461D01*
X208627738Y-95286461D02*
X208537023Y-95256223D01*
X208537023Y-95256223D02*
X208476547Y-95195746D01*
X208476547Y-95195746D02*
X208446309Y-95135270D01*
X208446309Y-95135270D02*
X208416071Y-95014318D01*
X208416071Y-95014318D02*
X208416071Y-94923603D01*
X208416071Y-94923603D02*
X208446309Y-94802651D01*
X208446309Y-94802651D02*
X208476547Y-94742175D01*
X208476547Y-94742175D02*
X208537023Y-94681699D01*
X208537023Y-94681699D02*
X208627738Y-94651461D01*
X208627738Y-94651461D02*
X208688214Y-94651461D01*
X208688214Y-94651461D02*
X208778928Y-94681699D01*
X208778928Y-94681699D02*
X208809166Y-94711937D01*
X209172023Y-94923603D02*
X209111547Y-94893365D01*
X209111547Y-94893365D02*
X209081309Y-94863127D01*
X209081309Y-94863127D02*
X209051071Y-94802651D01*
X209051071Y-94802651D02*
X209051071Y-94772413D01*
X209051071Y-94772413D02*
X209081309Y-94711937D01*
X209081309Y-94711937D02*
X209111547Y-94681699D01*
X209111547Y-94681699D02*
X209172023Y-94651461D01*
X209172023Y-94651461D02*
X209292976Y-94651461D01*
X209292976Y-94651461D02*
X209353452Y-94681699D01*
X209353452Y-94681699D02*
X209383690Y-94711937D01*
X209383690Y-94711937D02*
X209413928Y-94772413D01*
X209413928Y-94772413D02*
X209413928Y-94802651D01*
X209413928Y-94802651D02*
X209383690Y-94863127D01*
X209383690Y-94863127D02*
X209353452Y-94893365D01*
X209353452Y-94893365D02*
X209292976Y-94923603D01*
X209292976Y-94923603D02*
X209172023Y-94923603D01*
X209172023Y-94923603D02*
X209111547Y-94953842D01*
X209111547Y-94953842D02*
X209081309Y-94984080D01*
X209081309Y-94984080D02*
X209051071Y-95044556D01*
X209051071Y-95044556D02*
X209051071Y-95165508D01*
X209051071Y-95165508D02*
X209081309Y-95225984D01*
X209081309Y-95225984D02*
X209111547Y-95256223D01*
X209111547Y-95256223D02*
X209172023Y-95286461D01*
X209172023Y-95286461D02*
X209292976Y-95286461D01*
X209292976Y-95286461D02*
X209353452Y-95256223D01*
X209353452Y-95256223D02*
X209383690Y-95225984D01*
X209383690Y-95225984D02*
X209413928Y-95165508D01*
X209413928Y-95165508D02*
X209413928Y-95044556D01*
X209413928Y-95044556D02*
X209383690Y-94984080D01*
X209383690Y-94984080D02*
X209353452Y-94953842D01*
X209353452Y-94953842D02*
X209292976Y-94923603D01*
X195108461Y-133183690D02*
X194473461Y-133183690D01*
X194473461Y-133183690D02*
X194473461Y-133032500D01*
X194473461Y-133032500D02*
X194503699Y-132941785D01*
X194503699Y-132941785D02*
X194564175Y-132881309D01*
X194564175Y-132881309D02*
X194624651Y-132851071D01*
X194624651Y-132851071D02*
X194745603Y-132820833D01*
X194745603Y-132820833D02*
X194836318Y-132820833D01*
X194836318Y-132820833D02*
X194957270Y-132851071D01*
X194957270Y-132851071D02*
X195017746Y-132881309D01*
X195017746Y-132881309D02*
X195078223Y-132941785D01*
X195078223Y-132941785D02*
X195108461Y-133032500D01*
X195108461Y-133032500D02*
X195108461Y-133183690D01*
X194685127Y-132276547D02*
X195108461Y-132276547D01*
X194443223Y-132427738D02*
X194896794Y-132578928D01*
X194896794Y-132578928D02*
X194896794Y-132185833D01*
X214799333Y-120432461D02*
X214799333Y-120886032D01*
X214799333Y-120886032D02*
X214769094Y-120976746D01*
X214769094Y-120976746D02*
X214708618Y-121037223D01*
X214708618Y-121037223D02*
X214617904Y-121067461D01*
X214617904Y-121067461D02*
X214557428Y-121067461D01*
X215404095Y-120432461D02*
X215101714Y-120432461D01*
X215101714Y-120432461D02*
X215071476Y-120734842D01*
X215071476Y-120734842D02*
X215101714Y-120704603D01*
X215101714Y-120704603D02*
X215162190Y-120674365D01*
X215162190Y-120674365D02*
X215313381Y-120674365D01*
X215313381Y-120674365D02*
X215373857Y-120704603D01*
X215373857Y-120704603D02*
X215404095Y-120734842D01*
X215404095Y-120734842D02*
X215434333Y-120795318D01*
X215434333Y-120795318D02*
X215434333Y-120946508D01*
X215434333Y-120946508D02*
X215404095Y-121006984D01*
X215404095Y-121006984D02*
X215373857Y-121037223D01*
X215373857Y-121037223D02*
X215313381Y-121067461D01*
X215313381Y-121067461D02*
X215162190Y-121067461D01*
X215162190Y-121067461D02*
X215101714Y-121037223D01*
X215101714Y-121037223D02*
X215071476Y-121006984D01*
X200811190Y-111469461D02*
X200811190Y-111983508D01*
X200811190Y-111983508D02*
X200841428Y-112043984D01*
X200841428Y-112043984D02*
X200871666Y-112074223D01*
X200871666Y-112074223D02*
X200932142Y-112104461D01*
X200932142Y-112104461D02*
X201053095Y-112104461D01*
X201053095Y-112104461D02*
X201113571Y-112074223D01*
X201113571Y-112074223D02*
X201143809Y-112043984D01*
X201143809Y-112043984D02*
X201174047Y-111983508D01*
X201174047Y-111983508D02*
X201174047Y-111469461D01*
X201748571Y-111469461D02*
X201627618Y-111469461D01*
X201627618Y-111469461D02*
X201567142Y-111499699D01*
X201567142Y-111499699D02*
X201536904Y-111529937D01*
X201536904Y-111529937D02*
X201476428Y-111620651D01*
X201476428Y-111620651D02*
X201446190Y-111741603D01*
X201446190Y-111741603D02*
X201446190Y-111983508D01*
X201446190Y-111983508D02*
X201476428Y-112043984D01*
X201476428Y-112043984D02*
X201506666Y-112074223D01*
X201506666Y-112074223D02*
X201567142Y-112104461D01*
X201567142Y-112104461D02*
X201688095Y-112104461D01*
X201688095Y-112104461D02*
X201748571Y-112074223D01*
X201748571Y-112074223D02*
X201778809Y-112043984D01*
X201778809Y-112043984D02*
X201809047Y-111983508D01*
X201809047Y-111983508D02*
X201809047Y-111832318D01*
X201809047Y-111832318D02*
X201778809Y-111771842D01*
X201778809Y-111771842D02*
X201748571Y-111741603D01*
X201748571Y-111741603D02*
X201688095Y-111711365D01*
X201688095Y-111711365D02*
X201567142Y-111711365D01*
X201567142Y-111711365D02*
X201506666Y-111741603D01*
X201506666Y-111741603D02*
X201476428Y-111771842D01*
X201476428Y-111771842D02*
X201446190Y-111832318D01*
X212637309Y-134910461D02*
X212637309Y-134275461D01*
X212637309Y-134275461D02*
X212788499Y-134275461D01*
X212788499Y-134275461D02*
X212879214Y-134305699D01*
X212879214Y-134305699D02*
X212939690Y-134366175D01*
X212939690Y-134366175D02*
X212969928Y-134426651D01*
X212969928Y-134426651D02*
X213000166Y-134547603D01*
X213000166Y-134547603D02*
X213000166Y-134638318D01*
X213000166Y-134638318D02*
X212969928Y-134759270D01*
X212969928Y-134759270D02*
X212939690Y-134819746D01*
X212939690Y-134819746D02*
X212879214Y-134880223D01*
X212879214Y-134880223D02*
X212788499Y-134910461D01*
X212788499Y-134910461D02*
X212637309Y-134910461D01*
X213544452Y-134275461D02*
X213423499Y-134275461D01*
X213423499Y-134275461D02*
X213363023Y-134305699D01*
X213363023Y-134305699D02*
X213332785Y-134335937D01*
X213332785Y-134335937D02*
X213272309Y-134426651D01*
X213272309Y-134426651D02*
X213242071Y-134547603D01*
X213242071Y-134547603D02*
X213242071Y-134789508D01*
X213242071Y-134789508D02*
X213272309Y-134849984D01*
X213272309Y-134849984D02*
X213302547Y-134880223D01*
X213302547Y-134880223D02*
X213363023Y-134910461D01*
X213363023Y-134910461D02*
X213483976Y-134910461D01*
X213483976Y-134910461D02*
X213544452Y-134880223D01*
X213544452Y-134880223D02*
X213574690Y-134849984D01*
X213574690Y-134849984D02*
X213604928Y-134789508D01*
X213604928Y-134789508D02*
X213604928Y-134638318D01*
X213604928Y-134638318D02*
X213574690Y-134577842D01*
X213574690Y-134577842D02*
X213544452Y-134547603D01*
X213544452Y-134547603D02*
X213483976Y-134517365D01*
X213483976Y-134517365D02*
X213363023Y-134517365D01*
X213363023Y-134517365D02*
X213302547Y-134547603D01*
X213302547Y-134547603D02*
X213272309Y-134577842D01*
X213272309Y-134577842D02*
X213242071Y-134638318D01*
X203986190Y-129576461D02*
X203986190Y-130090508D01*
X203986190Y-130090508D02*
X204016428Y-130150984D01*
X204016428Y-130150984D02*
X204046666Y-130181223D01*
X204046666Y-130181223D02*
X204107142Y-130211461D01*
X204107142Y-130211461D02*
X204228095Y-130211461D01*
X204228095Y-130211461D02*
X204288571Y-130181223D01*
X204288571Y-130181223D02*
X204318809Y-130150984D01*
X204318809Y-130150984D02*
X204349047Y-130090508D01*
X204349047Y-130090508D02*
X204349047Y-129576461D01*
X204923571Y-129788127D02*
X204923571Y-130211461D01*
X204772380Y-129546223D02*
X204621190Y-129999794D01*
X204621190Y-129999794D02*
X205014285Y-129999794D01*
X201778984Y-97133833D02*
X201809223Y-97164071D01*
X201809223Y-97164071D02*
X201839461Y-97254785D01*
X201839461Y-97254785D02*
X201839461Y-97315261D01*
X201839461Y-97315261D02*
X201809223Y-97405976D01*
X201809223Y-97405976D02*
X201748746Y-97466452D01*
X201748746Y-97466452D02*
X201688270Y-97496690D01*
X201688270Y-97496690D02*
X201567318Y-97526928D01*
X201567318Y-97526928D02*
X201476603Y-97526928D01*
X201476603Y-97526928D02*
X201355651Y-97496690D01*
X201355651Y-97496690D02*
X201295175Y-97466452D01*
X201295175Y-97466452D02*
X201234699Y-97405976D01*
X201234699Y-97405976D02*
X201204461Y-97315261D01*
X201204461Y-97315261D02*
X201204461Y-97254785D01*
X201204461Y-97254785D02*
X201234699Y-97164071D01*
X201234699Y-97164071D02*
X201264937Y-97133833D01*
X201204461Y-96589547D02*
X201204461Y-96710500D01*
X201204461Y-96710500D02*
X201234699Y-96770976D01*
X201234699Y-96770976D02*
X201264937Y-96801214D01*
X201264937Y-96801214D02*
X201355651Y-96861690D01*
X201355651Y-96861690D02*
X201476603Y-96891928D01*
X201476603Y-96891928D02*
X201718508Y-96891928D01*
X201718508Y-96891928D02*
X201778984Y-96861690D01*
X201778984Y-96861690D02*
X201809223Y-96831452D01*
X201809223Y-96831452D02*
X201839461Y-96770976D01*
X201839461Y-96770976D02*
X201839461Y-96650023D01*
X201839461Y-96650023D02*
X201809223Y-96589547D01*
X201809223Y-96589547D02*
X201778984Y-96559309D01*
X201778984Y-96559309D02*
X201718508Y-96529071D01*
X201718508Y-96529071D02*
X201567318Y-96529071D01*
X201567318Y-96529071D02*
X201506842Y-96559309D01*
X201506842Y-96559309D02*
X201476603Y-96589547D01*
X201476603Y-96589547D02*
X201446365Y-96650023D01*
X201446365Y-96650023D02*
X201446365Y-96770976D01*
X201446365Y-96770976D02*
X201476603Y-96831452D01*
X201476603Y-96831452D02*
X201506842Y-96861690D01*
X201506842Y-96861690D02*
X201567318Y-96891928D01*
X207109785Y-117433984D02*
X207079547Y-117464223D01*
X207079547Y-117464223D02*
X206988833Y-117494461D01*
X206988833Y-117494461D02*
X206928357Y-117494461D01*
X206928357Y-117494461D02*
X206837642Y-117464223D01*
X206837642Y-117464223D02*
X206777166Y-117403746D01*
X206777166Y-117403746D02*
X206746928Y-117343270D01*
X206746928Y-117343270D02*
X206716690Y-117222318D01*
X206716690Y-117222318D02*
X206716690Y-117131603D01*
X206716690Y-117131603D02*
X206746928Y-117010651D01*
X206746928Y-117010651D02*
X206777166Y-116950175D01*
X206777166Y-116950175D02*
X206837642Y-116889699D01*
X206837642Y-116889699D02*
X206928357Y-116859461D01*
X206928357Y-116859461D02*
X206988833Y-116859461D01*
X206988833Y-116859461D02*
X207079547Y-116889699D01*
X207079547Y-116889699D02*
X207109785Y-116919937D01*
X207351690Y-116919937D02*
X207381928Y-116889699D01*
X207381928Y-116889699D02*
X207442404Y-116859461D01*
X207442404Y-116859461D02*
X207593595Y-116859461D01*
X207593595Y-116859461D02*
X207654071Y-116889699D01*
X207654071Y-116889699D02*
X207684309Y-116919937D01*
X207684309Y-116919937D02*
X207714547Y-116980413D01*
X207714547Y-116980413D02*
X207714547Y-117040889D01*
X207714547Y-117040889D02*
X207684309Y-117131603D01*
X207684309Y-117131603D02*
X207321452Y-117494461D01*
X207321452Y-117494461D02*
X207714547Y-117494461D01*
X208289071Y-116859461D02*
X207986690Y-116859461D01*
X207986690Y-116859461D02*
X207956452Y-117161842D01*
X207956452Y-117161842D02*
X207986690Y-117131603D01*
X207986690Y-117131603D02*
X208047166Y-117101365D01*
X208047166Y-117101365D02*
X208198357Y-117101365D01*
X208198357Y-117101365D02*
X208258833Y-117131603D01*
X208258833Y-117131603D02*
X208289071Y-117161842D01*
X208289071Y-117161842D02*
X208319309Y-117222318D01*
X208319309Y-117222318D02*
X208319309Y-117373508D01*
X208319309Y-117373508D02*
X208289071Y-117433984D01*
X208289071Y-117433984D02*
X208258833Y-117464223D01*
X208258833Y-117464223D02*
X208198357Y-117494461D01*
X208198357Y-117494461D02*
X208047166Y-117494461D01*
X208047166Y-117494461D02*
X207986690Y-117464223D01*
X207986690Y-117464223D02*
X207956452Y-117433984D01*
X183995785Y-94905461D02*
X183784118Y-94603080D01*
X183632928Y-94905461D02*
X183632928Y-94270461D01*
X183632928Y-94270461D02*
X183874833Y-94270461D01*
X183874833Y-94270461D02*
X183935309Y-94300699D01*
X183935309Y-94300699D02*
X183965547Y-94330937D01*
X183965547Y-94330937D02*
X183995785Y-94391413D01*
X183995785Y-94391413D02*
X183995785Y-94482127D01*
X183995785Y-94482127D02*
X183965547Y-94542603D01*
X183965547Y-94542603D02*
X183935309Y-94572842D01*
X183935309Y-94572842D02*
X183874833Y-94603080D01*
X183874833Y-94603080D02*
X183632928Y-94603080D01*
X184237690Y-94330937D02*
X184267928Y-94300699D01*
X184267928Y-94300699D02*
X184328404Y-94270461D01*
X184328404Y-94270461D02*
X184479595Y-94270461D01*
X184479595Y-94270461D02*
X184540071Y-94300699D01*
X184540071Y-94300699D02*
X184570309Y-94330937D01*
X184570309Y-94330937D02*
X184600547Y-94391413D01*
X184600547Y-94391413D02*
X184600547Y-94451889D01*
X184600547Y-94451889D02*
X184570309Y-94542603D01*
X184570309Y-94542603D02*
X184207452Y-94905461D01*
X184207452Y-94905461D02*
X184600547Y-94905461D01*
X184963404Y-94542603D02*
X184902928Y-94512365D01*
X184902928Y-94512365D02*
X184872690Y-94482127D01*
X184872690Y-94482127D02*
X184842452Y-94421651D01*
X184842452Y-94421651D02*
X184842452Y-94391413D01*
X184842452Y-94391413D02*
X184872690Y-94330937D01*
X184872690Y-94330937D02*
X184902928Y-94300699D01*
X184902928Y-94300699D02*
X184963404Y-94270461D01*
X184963404Y-94270461D02*
X185084357Y-94270461D01*
X185084357Y-94270461D02*
X185144833Y-94300699D01*
X185144833Y-94300699D02*
X185175071Y-94330937D01*
X185175071Y-94330937D02*
X185205309Y-94391413D01*
X185205309Y-94391413D02*
X185205309Y-94421651D01*
X185205309Y-94421651D02*
X185175071Y-94482127D01*
X185175071Y-94482127D02*
X185144833Y-94512365D01*
X185144833Y-94512365D02*
X185084357Y-94542603D01*
X185084357Y-94542603D02*
X184963404Y-94542603D01*
X184963404Y-94542603D02*
X184902928Y-94572842D01*
X184902928Y-94572842D02*
X184872690Y-94603080D01*
X184872690Y-94603080D02*
X184842452Y-94663556D01*
X184842452Y-94663556D02*
X184842452Y-94784508D01*
X184842452Y-94784508D02*
X184872690Y-94844984D01*
X184872690Y-94844984D02*
X184902928Y-94875223D01*
X184902928Y-94875223D02*
X184963404Y-94905461D01*
X184963404Y-94905461D02*
X185084357Y-94905461D01*
X185084357Y-94905461D02*
X185144833Y-94875223D01*
X185144833Y-94875223D02*
X185175071Y-94844984D01*
X185175071Y-94844984D02*
X185205309Y-94784508D01*
X185205309Y-94784508D02*
X185205309Y-94663556D01*
X185205309Y-94663556D02*
X185175071Y-94603080D01*
X185175071Y-94603080D02*
X185144833Y-94572842D01*
X185144833Y-94572842D02*
X185084357Y-94542603D01*
X184425166Y-106081461D02*
X184213499Y-105779080D01*
X184062309Y-106081461D02*
X184062309Y-105446461D01*
X184062309Y-105446461D02*
X184304214Y-105446461D01*
X184304214Y-105446461D02*
X184364690Y-105476699D01*
X184364690Y-105476699D02*
X184394928Y-105506937D01*
X184394928Y-105506937D02*
X184425166Y-105567413D01*
X184425166Y-105567413D02*
X184425166Y-105658127D01*
X184425166Y-105658127D02*
X184394928Y-105718603D01*
X184394928Y-105718603D02*
X184364690Y-105748842D01*
X184364690Y-105748842D02*
X184304214Y-105779080D01*
X184304214Y-105779080D02*
X184062309Y-105779080D01*
X184636833Y-105446461D02*
X185060166Y-105446461D01*
X185060166Y-105446461D02*
X184788023Y-106081461D01*
X180376461Y-115978214D02*
X180074080Y-116189881D01*
X180376461Y-116341071D02*
X179741461Y-116341071D01*
X179741461Y-116341071D02*
X179741461Y-116099166D01*
X179741461Y-116099166D02*
X179771699Y-116038690D01*
X179771699Y-116038690D02*
X179801937Y-116008452D01*
X179801937Y-116008452D02*
X179862413Y-115978214D01*
X179862413Y-115978214D02*
X179953127Y-115978214D01*
X179953127Y-115978214D02*
X180013603Y-116008452D01*
X180013603Y-116008452D02*
X180043842Y-116038690D01*
X180043842Y-116038690D02*
X180074080Y-116099166D01*
X180074080Y-116099166D02*
X180074080Y-116341071D01*
X180376461Y-115373452D02*
X180376461Y-115736309D01*
X180376461Y-115554881D02*
X179741461Y-115554881D01*
X179741461Y-115554881D02*
X179832175Y-115615357D01*
X179832175Y-115615357D02*
X179892651Y-115675833D01*
X179892651Y-115675833D02*
X179922889Y-115736309D01*
X179741461Y-114980357D02*
X179741461Y-114919880D01*
X179741461Y-114919880D02*
X179771699Y-114859404D01*
X179771699Y-114859404D02*
X179801937Y-114829166D01*
X179801937Y-114829166D02*
X179862413Y-114798928D01*
X179862413Y-114798928D02*
X179983365Y-114768690D01*
X179983365Y-114768690D02*
X180134556Y-114768690D01*
X180134556Y-114768690D02*
X180255508Y-114798928D01*
X180255508Y-114798928D02*
X180315984Y-114829166D01*
X180315984Y-114829166D02*
X180346223Y-114859404D01*
X180346223Y-114859404D02*
X180376461Y-114919880D01*
X180376461Y-114919880D02*
X180376461Y-114980357D01*
X180376461Y-114980357D02*
X180346223Y-115040833D01*
X180346223Y-115040833D02*
X180315984Y-115071071D01*
X180315984Y-115071071D02*
X180255508Y-115101309D01*
X180255508Y-115101309D02*
X180134556Y-115131547D01*
X180134556Y-115131547D02*
X179983365Y-115131547D01*
X179983365Y-115131547D02*
X179862413Y-115101309D01*
X179862413Y-115101309D02*
X179801937Y-115071071D01*
X179801937Y-115071071D02*
X179771699Y-115040833D01*
X179771699Y-115040833D02*
X179741461Y-114980357D01*
X202410785Y-106147984D02*
X202380547Y-106178223D01*
X202380547Y-106178223D02*
X202289833Y-106208461D01*
X202289833Y-106208461D02*
X202229357Y-106208461D01*
X202229357Y-106208461D02*
X202138642Y-106178223D01*
X202138642Y-106178223D02*
X202078166Y-106117746D01*
X202078166Y-106117746D02*
X202047928Y-106057270D01*
X202047928Y-106057270D02*
X202017690Y-105936318D01*
X202017690Y-105936318D02*
X202017690Y-105845603D01*
X202017690Y-105845603D02*
X202047928Y-105724651D01*
X202047928Y-105724651D02*
X202078166Y-105664175D01*
X202078166Y-105664175D02*
X202138642Y-105603699D01*
X202138642Y-105603699D02*
X202229357Y-105573461D01*
X202229357Y-105573461D02*
X202289833Y-105573461D01*
X202289833Y-105573461D02*
X202380547Y-105603699D01*
X202380547Y-105603699D02*
X202410785Y-105633937D01*
X203015547Y-106208461D02*
X202652690Y-106208461D01*
X202834118Y-106208461D02*
X202834118Y-105573461D01*
X202834118Y-105573461D02*
X202773642Y-105664175D01*
X202773642Y-105664175D02*
X202713166Y-105724651D01*
X202713166Y-105724651D02*
X202652690Y-105754889D01*
X203227214Y-105573461D02*
X203620309Y-105573461D01*
X203620309Y-105573461D02*
X203408642Y-105815365D01*
X203408642Y-105815365D02*
X203499357Y-105815365D01*
X203499357Y-105815365D02*
X203559833Y-105845603D01*
X203559833Y-105845603D02*
X203590071Y-105875842D01*
X203590071Y-105875842D02*
X203620309Y-105936318D01*
X203620309Y-105936318D02*
X203620309Y-106087508D01*
X203620309Y-106087508D02*
X203590071Y-106147984D01*
X203590071Y-106147984D02*
X203559833Y-106178223D01*
X203559833Y-106178223D02*
X203499357Y-106208461D01*
X203499357Y-106208461D02*
X203317928Y-106208461D01*
X203317928Y-106208461D02*
X203257452Y-106178223D01*
X203257452Y-106178223D02*
X203227214Y-106147984D01*
X184806166Y-113034984D02*
X184775928Y-113065223D01*
X184775928Y-113065223D02*
X184685214Y-113095461D01*
X184685214Y-113095461D02*
X184624738Y-113095461D01*
X184624738Y-113095461D02*
X184534023Y-113065223D01*
X184534023Y-113065223D02*
X184473547Y-113004746D01*
X184473547Y-113004746D02*
X184443309Y-112944270D01*
X184443309Y-112944270D02*
X184413071Y-112823318D01*
X184413071Y-112823318D02*
X184413071Y-112732603D01*
X184413071Y-112732603D02*
X184443309Y-112611651D01*
X184443309Y-112611651D02*
X184473547Y-112551175D01*
X184473547Y-112551175D02*
X184534023Y-112490699D01*
X184534023Y-112490699D02*
X184624738Y-112460461D01*
X184624738Y-112460461D02*
X184685214Y-112460461D01*
X184685214Y-112460461D02*
X184775928Y-112490699D01*
X184775928Y-112490699D02*
X184806166Y-112520937D01*
X185410928Y-113095461D02*
X185048071Y-113095461D01*
X185229499Y-113095461D02*
X185229499Y-112460461D01*
X185229499Y-112460461D02*
X185169023Y-112551175D01*
X185169023Y-112551175D02*
X185108547Y-112611651D01*
X185108547Y-112611651D02*
X185048071Y-112641889D01*
X182030309Y-107097461D02*
X182030309Y-106462461D01*
X182030309Y-106462461D02*
X182181499Y-106462461D01*
X182181499Y-106462461D02*
X182272214Y-106492699D01*
X182272214Y-106492699D02*
X182332690Y-106553175D01*
X182332690Y-106553175D02*
X182362928Y-106613651D01*
X182362928Y-106613651D02*
X182393166Y-106734603D01*
X182393166Y-106734603D02*
X182393166Y-106825318D01*
X182393166Y-106825318D02*
X182362928Y-106946270D01*
X182362928Y-106946270D02*
X182332690Y-107006746D01*
X182332690Y-107006746D02*
X182272214Y-107067223D01*
X182272214Y-107067223D02*
X182181499Y-107097461D01*
X182181499Y-107097461D02*
X182030309Y-107097461D01*
X182635071Y-106522937D02*
X182665309Y-106492699D01*
X182665309Y-106492699D02*
X182725785Y-106462461D01*
X182725785Y-106462461D02*
X182876976Y-106462461D01*
X182876976Y-106462461D02*
X182937452Y-106492699D01*
X182937452Y-106492699D02*
X182967690Y-106522937D01*
X182967690Y-106522937D02*
X182997928Y-106583413D01*
X182997928Y-106583413D02*
X182997928Y-106643889D01*
X182997928Y-106643889D02*
X182967690Y-106734603D01*
X182967690Y-106734603D02*
X182604833Y-107097461D01*
X182604833Y-107097461D02*
X182997928Y-107097461D01*
X210478309Y-97318461D02*
X210478309Y-96683461D01*
X210478309Y-96683461D02*
X210629499Y-96683461D01*
X210629499Y-96683461D02*
X210720214Y-96713699D01*
X210720214Y-96713699D02*
X210780690Y-96774175D01*
X210780690Y-96774175D02*
X210810928Y-96834651D01*
X210810928Y-96834651D02*
X210841166Y-96955603D01*
X210841166Y-96955603D02*
X210841166Y-97046318D01*
X210841166Y-97046318D02*
X210810928Y-97167270D01*
X210810928Y-97167270D02*
X210780690Y-97227746D01*
X210780690Y-97227746D02*
X210720214Y-97288223D01*
X210720214Y-97288223D02*
X210629499Y-97318461D01*
X210629499Y-97318461D02*
X210478309Y-97318461D01*
X211445928Y-97318461D02*
X211083071Y-97318461D01*
X211264499Y-97318461D02*
X211264499Y-96683461D01*
X211264499Y-96683461D02*
X211204023Y-96774175D01*
X211204023Y-96774175D02*
X211143547Y-96834651D01*
X211143547Y-96834651D02*
X211083071Y-96864889D01*
X213967785Y-129830461D02*
X213756118Y-129528080D01*
X213604928Y-129830461D02*
X213604928Y-129195461D01*
X213604928Y-129195461D02*
X213846833Y-129195461D01*
X213846833Y-129195461D02*
X213907309Y-129225699D01*
X213907309Y-129225699D02*
X213937547Y-129255937D01*
X213937547Y-129255937D02*
X213967785Y-129316413D01*
X213967785Y-129316413D02*
X213967785Y-129407127D01*
X213967785Y-129407127D02*
X213937547Y-129467603D01*
X213937547Y-129467603D02*
X213907309Y-129497842D01*
X213907309Y-129497842D02*
X213846833Y-129528080D01*
X213846833Y-129528080D02*
X213604928Y-129528080D01*
X214209690Y-129255937D02*
X214239928Y-129225699D01*
X214239928Y-129225699D02*
X214300404Y-129195461D01*
X214300404Y-129195461D02*
X214451595Y-129195461D01*
X214451595Y-129195461D02*
X214512071Y-129225699D01*
X214512071Y-129225699D02*
X214542309Y-129255937D01*
X214542309Y-129255937D02*
X214572547Y-129316413D01*
X214572547Y-129316413D02*
X214572547Y-129376889D01*
X214572547Y-129376889D02*
X214542309Y-129467603D01*
X214542309Y-129467603D02*
X214179452Y-129830461D01*
X214179452Y-129830461D02*
X214572547Y-129830461D01*
X214965642Y-129195461D02*
X215026119Y-129195461D01*
X215026119Y-129195461D02*
X215086595Y-129225699D01*
X215086595Y-129225699D02*
X215116833Y-129255937D01*
X215116833Y-129255937D02*
X215147071Y-129316413D01*
X215147071Y-129316413D02*
X215177309Y-129437365D01*
X215177309Y-129437365D02*
X215177309Y-129588556D01*
X215177309Y-129588556D02*
X215147071Y-129709508D01*
X215147071Y-129709508D02*
X215116833Y-129769984D01*
X215116833Y-129769984D02*
X215086595Y-129800223D01*
X215086595Y-129800223D02*
X215026119Y-129830461D01*
X215026119Y-129830461D02*
X214965642Y-129830461D01*
X214965642Y-129830461D02*
X214905166Y-129800223D01*
X214905166Y-129800223D02*
X214874928Y-129769984D01*
X214874928Y-129769984D02*
X214844690Y-129709508D01*
X214844690Y-129709508D02*
X214814452Y-129588556D01*
X214814452Y-129588556D02*
X214814452Y-129437365D01*
X214814452Y-129437365D02*
X214844690Y-129316413D01*
X214844690Y-129316413D02*
X214874928Y-129255937D01*
X214874928Y-129255937D02*
X214905166Y-129225699D01*
X214905166Y-129225699D02*
X214965642Y-129195461D01*
X202967166Y-97445461D02*
X202755499Y-97143080D01*
X202604309Y-97445461D02*
X202604309Y-96810461D01*
X202604309Y-96810461D02*
X202846214Y-96810461D01*
X202846214Y-96810461D02*
X202906690Y-96840699D01*
X202906690Y-96840699D02*
X202936928Y-96870937D01*
X202936928Y-96870937D02*
X202967166Y-96931413D01*
X202967166Y-96931413D02*
X202967166Y-97022127D01*
X202967166Y-97022127D02*
X202936928Y-97082603D01*
X202936928Y-97082603D02*
X202906690Y-97112842D01*
X202906690Y-97112842D02*
X202846214Y-97143080D01*
X202846214Y-97143080D02*
X202604309Y-97143080D01*
X203571928Y-97445461D02*
X203209071Y-97445461D01*
X203390499Y-97445461D02*
X203390499Y-96810461D01*
X203390499Y-96810461D02*
X203330023Y-96901175D01*
X203330023Y-96901175D02*
X203269547Y-96961651D01*
X203269547Y-96961651D02*
X203209071Y-96991889D01*
X182027461Y-115294833D02*
X181725080Y-115506500D01*
X182027461Y-115657690D02*
X181392461Y-115657690D01*
X181392461Y-115657690D02*
X181392461Y-115415785D01*
X181392461Y-115415785D02*
X181422699Y-115355309D01*
X181422699Y-115355309D02*
X181452937Y-115325071D01*
X181452937Y-115325071D02*
X181513413Y-115294833D01*
X181513413Y-115294833D02*
X181604127Y-115294833D01*
X181604127Y-115294833D02*
X181664603Y-115325071D01*
X181664603Y-115325071D02*
X181694842Y-115355309D01*
X181694842Y-115355309D02*
X181725080Y-115415785D01*
X181725080Y-115415785D02*
X181725080Y-115657690D01*
X182027461Y-114992452D02*
X182027461Y-114871500D01*
X182027461Y-114871500D02*
X181997223Y-114811023D01*
X181997223Y-114811023D02*
X181966984Y-114780785D01*
X181966984Y-114780785D02*
X181876270Y-114720309D01*
X181876270Y-114720309D02*
X181755318Y-114690071D01*
X181755318Y-114690071D02*
X181513413Y-114690071D01*
X181513413Y-114690071D02*
X181452937Y-114720309D01*
X181452937Y-114720309D02*
X181422699Y-114750547D01*
X181422699Y-114750547D02*
X181392461Y-114811023D01*
X181392461Y-114811023D02*
X181392461Y-114931976D01*
X181392461Y-114931976D02*
X181422699Y-114992452D01*
X181422699Y-114992452D02*
X181452937Y-115022690D01*
X181452937Y-115022690D02*
X181513413Y-115052928D01*
X181513413Y-115052928D02*
X181664603Y-115052928D01*
X181664603Y-115052928D02*
X181725080Y-115022690D01*
X181725080Y-115022690D02*
X181755318Y-114992452D01*
X181755318Y-114992452D02*
X181785556Y-114931976D01*
X181785556Y-114931976D02*
X181785556Y-114811023D01*
X181785556Y-114811023D02*
X181755318Y-114750547D01*
X181755318Y-114750547D02*
X181725080Y-114720309D01*
X181725080Y-114720309D02*
X181664603Y-114690071D01*
X196998166Y-128139461D02*
X196695785Y-128139461D01*
X196695785Y-128139461D02*
X196695785Y-127504461D01*
X197542452Y-128139461D02*
X197179595Y-128139461D01*
X197361023Y-128139461D02*
X197361023Y-127504461D01*
X197361023Y-127504461D02*
X197300547Y-127595175D01*
X197300547Y-127595175D02*
X197240071Y-127655651D01*
X197240071Y-127655651D02*
X197179595Y-127685889D01*
X206145190Y-104290461D02*
X206145190Y-104804508D01*
X206145190Y-104804508D02*
X206175428Y-104864984D01*
X206175428Y-104864984D02*
X206205666Y-104895223D01*
X206205666Y-104895223D02*
X206266142Y-104925461D01*
X206266142Y-104925461D02*
X206387095Y-104925461D01*
X206387095Y-104925461D02*
X206447571Y-104895223D01*
X206447571Y-104895223D02*
X206477809Y-104864984D01*
X206477809Y-104864984D02*
X206508047Y-104804508D01*
X206508047Y-104804508D02*
X206508047Y-104290461D01*
X207143047Y-104925461D02*
X206780190Y-104925461D01*
X206961618Y-104925461D02*
X206961618Y-104290461D01*
X206961618Y-104290461D02*
X206901142Y-104381175D01*
X206901142Y-104381175D02*
X206840666Y-104441651D01*
X206840666Y-104441651D02*
X206780190Y-104471889D01*
X194663785Y-119753984D02*
X194633547Y-119784223D01*
X194633547Y-119784223D02*
X194542833Y-119814461D01*
X194542833Y-119814461D02*
X194482357Y-119814461D01*
X194482357Y-119814461D02*
X194391642Y-119784223D01*
X194391642Y-119784223D02*
X194331166Y-119723746D01*
X194331166Y-119723746D02*
X194300928Y-119663270D01*
X194300928Y-119663270D02*
X194270690Y-119542318D01*
X194270690Y-119542318D02*
X194270690Y-119451603D01*
X194270690Y-119451603D02*
X194300928Y-119330651D01*
X194300928Y-119330651D02*
X194331166Y-119270175D01*
X194331166Y-119270175D02*
X194391642Y-119209699D01*
X194391642Y-119209699D02*
X194482357Y-119179461D01*
X194482357Y-119179461D02*
X194542833Y-119179461D01*
X194542833Y-119179461D02*
X194633547Y-119209699D01*
X194633547Y-119209699D02*
X194663785Y-119239937D01*
X194905690Y-119239937D02*
X194935928Y-119209699D01*
X194935928Y-119209699D02*
X194996404Y-119179461D01*
X194996404Y-119179461D02*
X195147595Y-119179461D01*
X195147595Y-119179461D02*
X195208071Y-119209699D01*
X195208071Y-119209699D02*
X195238309Y-119239937D01*
X195238309Y-119239937D02*
X195268547Y-119300413D01*
X195268547Y-119300413D02*
X195268547Y-119360889D01*
X195268547Y-119360889D02*
X195238309Y-119451603D01*
X195238309Y-119451603D02*
X194875452Y-119814461D01*
X194875452Y-119814461D02*
X195268547Y-119814461D01*
X195812833Y-119179461D02*
X195691880Y-119179461D01*
X195691880Y-119179461D02*
X195631404Y-119209699D01*
X195631404Y-119209699D02*
X195601166Y-119239937D01*
X195601166Y-119239937D02*
X195540690Y-119330651D01*
X195540690Y-119330651D02*
X195510452Y-119451603D01*
X195510452Y-119451603D02*
X195510452Y-119693508D01*
X195510452Y-119693508D02*
X195540690Y-119753984D01*
X195540690Y-119753984D02*
X195570928Y-119784223D01*
X195570928Y-119784223D02*
X195631404Y-119814461D01*
X195631404Y-119814461D02*
X195752357Y-119814461D01*
X195752357Y-119814461D02*
X195812833Y-119784223D01*
X195812833Y-119784223D02*
X195843071Y-119753984D01*
X195843071Y-119753984D02*
X195873309Y-119693508D01*
X195873309Y-119693508D02*
X195873309Y-119542318D01*
X195873309Y-119542318D02*
X195843071Y-119481842D01*
X195843071Y-119481842D02*
X195812833Y-119451603D01*
X195812833Y-119451603D02*
X195752357Y-119421365D01*
X195752357Y-119421365D02*
X195631404Y-119421365D01*
X195631404Y-119421365D02*
X195570928Y-119451603D01*
X195570928Y-119451603D02*
X195540690Y-119481842D01*
X195540690Y-119481842D02*
X195510452Y-119542318D01*
X196695785Y-96837461D02*
X196484118Y-96535080D01*
X196332928Y-96837461D02*
X196332928Y-96202461D01*
X196332928Y-96202461D02*
X196574833Y-96202461D01*
X196574833Y-96202461D02*
X196635309Y-96232699D01*
X196635309Y-96232699D02*
X196665547Y-96262937D01*
X196665547Y-96262937D02*
X196695785Y-96323413D01*
X196695785Y-96323413D02*
X196695785Y-96414127D01*
X196695785Y-96414127D02*
X196665547Y-96474603D01*
X196665547Y-96474603D02*
X196635309Y-96504842D01*
X196635309Y-96504842D02*
X196574833Y-96535080D01*
X196574833Y-96535080D02*
X196332928Y-96535080D01*
X196937690Y-96262937D02*
X196967928Y-96232699D01*
X196967928Y-96232699D02*
X197028404Y-96202461D01*
X197028404Y-96202461D02*
X197179595Y-96202461D01*
X197179595Y-96202461D02*
X197240071Y-96232699D01*
X197240071Y-96232699D02*
X197270309Y-96262937D01*
X197270309Y-96262937D02*
X197300547Y-96323413D01*
X197300547Y-96323413D02*
X197300547Y-96383889D01*
X197300547Y-96383889D02*
X197270309Y-96474603D01*
X197270309Y-96474603D02*
X196907452Y-96837461D01*
X196907452Y-96837461D02*
X197300547Y-96837461D01*
X197512214Y-96202461D02*
X197935547Y-96202461D01*
X197935547Y-96202461D02*
X197663404Y-96837461D01*
X192937190Y-96649461D02*
X192937190Y-97163508D01*
X192937190Y-97163508D02*
X192967428Y-97223984D01*
X192967428Y-97223984D02*
X192997666Y-97254223D01*
X192997666Y-97254223D02*
X193058142Y-97284461D01*
X193058142Y-97284461D02*
X193179095Y-97284461D01*
X193179095Y-97284461D02*
X193239571Y-97254223D01*
X193239571Y-97254223D02*
X193269809Y-97223984D01*
X193269809Y-97223984D02*
X193300047Y-97163508D01*
X193300047Y-97163508D02*
X193300047Y-96649461D01*
X193572190Y-96709937D02*
X193602428Y-96679699D01*
X193602428Y-96679699D02*
X193662904Y-96649461D01*
X193662904Y-96649461D02*
X193814095Y-96649461D01*
X193814095Y-96649461D02*
X193874571Y-96679699D01*
X193874571Y-96679699D02*
X193904809Y-96709937D01*
X193904809Y-96709937D02*
X193935047Y-96770413D01*
X193935047Y-96770413D02*
X193935047Y-96830889D01*
X193935047Y-96830889D02*
X193904809Y-96921603D01*
X193904809Y-96921603D02*
X193541952Y-97284461D01*
X193541952Y-97284461D02*
X193935047Y-97284461D01*
X189547461Y-132996214D02*
X189245080Y-133207881D01*
X189547461Y-133359071D02*
X188912461Y-133359071D01*
X188912461Y-133359071D02*
X188912461Y-133117166D01*
X188912461Y-133117166D02*
X188942699Y-133056690D01*
X188942699Y-133056690D02*
X188972937Y-133026452D01*
X188972937Y-133026452D02*
X189033413Y-132996214D01*
X189033413Y-132996214D02*
X189124127Y-132996214D01*
X189124127Y-132996214D02*
X189184603Y-133026452D01*
X189184603Y-133026452D02*
X189214842Y-133056690D01*
X189214842Y-133056690D02*
X189245080Y-133117166D01*
X189245080Y-133117166D02*
X189245080Y-133359071D01*
X189547461Y-132391452D02*
X189547461Y-132754309D01*
X189547461Y-132572881D02*
X188912461Y-132572881D01*
X188912461Y-132572881D02*
X189003175Y-132633357D01*
X189003175Y-132633357D02*
X189063651Y-132693833D01*
X189063651Y-132693833D02*
X189093889Y-132754309D01*
X189547461Y-131786690D02*
X189547461Y-132149547D01*
X189547461Y-131968119D02*
X188912461Y-131968119D01*
X188912461Y-131968119D02*
X189003175Y-132028595D01*
X189003175Y-132028595D02*
X189063651Y-132089071D01*
X189063651Y-132089071D02*
X189093889Y-132149547D01*
X179856190Y-129551461D02*
X179856190Y-128916461D01*
X179856190Y-129218842D02*
X180219047Y-129218842D01*
X180219047Y-129551461D02*
X180219047Y-128916461D01*
X180491190Y-128976937D02*
X180521428Y-128946699D01*
X180521428Y-128946699D02*
X180581904Y-128916461D01*
X180581904Y-128916461D02*
X180733095Y-128916461D01*
X180733095Y-128916461D02*
X180793571Y-128946699D01*
X180793571Y-128946699D02*
X180823809Y-128976937D01*
X180823809Y-128976937D02*
X180854047Y-129037413D01*
X180854047Y-129037413D02*
X180854047Y-129097889D01*
X180854047Y-129097889D02*
X180823809Y-129188603D01*
X180823809Y-129188603D02*
X180460952Y-129551461D01*
X180460952Y-129551461D02*
X180854047Y-129551461D01*
X208957333Y-121702461D02*
X208957333Y-122156032D01*
X208957333Y-122156032D02*
X208927094Y-122246746D01*
X208927094Y-122246746D02*
X208866618Y-122307223D01*
X208866618Y-122307223D02*
X208775904Y-122337461D01*
X208775904Y-122337461D02*
X208715428Y-122337461D01*
X209531857Y-121914127D02*
X209531857Y-122337461D01*
X209380666Y-121672223D02*
X209229476Y-122125794D01*
X209229476Y-122125794D02*
X209622571Y-122125794D01*
X206015166Y-95286461D02*
X205803499Y-94984080D01*
X205652309Y-95286461D02*
X205652309Y-94651461D01*
X205652309Y-94651461D02*
X205894214Y-94651461D01*
X205894214Y-94651461D02*
X205954690Y-94681699D01*
X205954690Y-94681699D02*
X205984928Y-94711937D01*
X205984928Y-94711937D02*
X206015166Y-94772413D01*
X206015166Y-94772413D02*
X206015166Y-94863127D01*
X206015166Y-94863127D02*
X205984928Y-94923603D01*
X205984928Y-94923603D02*
X205954690Y-94953842D01*
X205954690Y-94953842D02*
X205894214Y-94984080D01*
X205894214Y-94984080D02*
X205652309Y-94984080D01*
X206226833Y-94651461D02*
X206619928Y-94651461D01*
X206619928Y-94651461D02*
X206408261Y-94893365D01*
X206408261Y-94893365D02*
X206498976Y-94893365D01*
X206498976Y-94893365D02*
X206559452Y-94923603D01*
X206559452Y-94923603D02*
X206589690Y-94953842D01*
X206589690Y-94953842D02*
X206619928Y-95014318D01*
X206619928Y-95014318D02*
X206619928Y-95165508D01*
X206619928Y-95165508D02*
X206589690Y-95225984D01*
X206589690Y-95225984D02*
X206559452Y-95256223D01*
X206559452Y-95256223D02*
X206498976Y-95286461D01*
X206498976Y-95286461D02*
X206317547Y-95286461D01*
X206317547Y-95286461D02*
X206257071Y-95256223D01*
X206257071Y-95256223D02*
X206226833Y-95225984D01*
X210792785Y-129576461D02*
X210581118Y-129274080D01*
X210429928Y-129576461D02*
X210429928Y-128941461D01*
X210429928Y-128941461D02*
X210671833Y-128941461D01*
X210671833Y-128941461D02*
X210732309Y-128971699D01*
X210732309Y-128971699D02*
X210762547Y-129001937D01*
X210762547Y-129001937D02*
X210792785Y-129062413D01*
X210792785Y-129062413D02*
X210792785Y-129153127D01*
X210792785Y-129153127D02*
X210762547Y-129213603D01*
X210762547Y-129213603D02*
X210732309Y-129243842D01*
X210732309Y-129243842D02*
X210671833Y-129274080D01*
X210671833Y-129274080D02*
X210429928Y-129274080D01*
X211397547Y-129576461D02*
X211034690Y-129576461D01*
X211216118Y-129576461D02*
X211216118Y-128941461D01*
X211216118Y-128941461D02*
X211155642Y-129032175D01*
X211155642Y-129032175D02*
X211095166Y-129092651D01*
X211095166Y-129092651D02*
X211034690Y-129122889D01*
X211699928Y-129576461D02*
X211820880Y-129576461D01*
X211820880Y-129576461D02*
X211881357Y-129546223D01*
X211881357Y-129546223D02*
X211911595Y-129515984D01*
X211911595Y-129515984D02*
X211972071Y-129425270D01*
X211972071Y-129425270D02*
X212002309Y-129304318D01*
X212002309Y-129304318D02*
X212002309Y-129062413D01*
X212002309Y-129062413D02*
X211972071Y-129001937D01*
X211972071Y-129001937D02*
X211941833Y-128971699D01*
X211941833Y-128971699D02*
X211881357Y-128941461D01*
X211881357Y-128941461D02*
X211760404Y-128941461D01*
X211760404Y-128941461D02*
X211699928Y-128971699D01*
X211699928Y-128971699D02*
X211669690Y-129001937D01*
X211669690Y-129001937D02*
X211639452Y-129062413D01*
X211639452Y-129062413D02*
X211639452Y-129213603D01*
X211639452Y-129213603D02*
X211669690Y-129274080D01*
X211669690Y-129274080D02*
X211699928Y-129304318D01*
X211699928Y-129304318D02*
X211760404Y-129334556D01*
X211760404Y-129334556D02*
X211881357Y-129334556D01*
X211881357Y-129334556D02*
X211941833Y-129304318D01*
X211941833Y-129304318D02*
X211972071Y-129274080D01*
X211972071Y-129274080D02*
X212002309Y-129213603D01*
X182598785Y-117892461D02*
X182387118Y-117590080D01*
X182235928Y-117892461D02*
X182235928Y-117257461D01*
X182235928Y-117257461D02*
X182477833Y-117257461D01*
X182477833Y-117257461D02*
X182538309Y-117287699D01*
X182538309Y-117287699D02*
X182568547Y-117317937D01*
X182568547Y-117317937D02*
X182598785Y-117378413D01*
X182598785Y-117378413D02*
X182598785Y-117469127D01*
X182598785Y-117469127D02*
X182568547Y-117529603D01*
X182568547Y-117529603D02*
X182538309Y-117559842D01*
X182538309Y-117559842D02*
X182477833Y-117590080D01*
X182477833Y-117590080D02*
X182235928Y-117590080D01*
X183203547Y-117892461D02*
X182840690Y-117892461D01*
X183022118Y-117892461D02*
X183022118Y-117257461D01*
X183022118Y-117257461D02*
X182961642Y-117348175D01*
X182961642Y-117348175D02*
X182901166Y-117408651D01*
X182901166Y-117408651D02*
X182840690Y-117438889D01*
X183566404Y-117529603D02*
X183505928Y-117499365D01*
X183505928Y-117499365D02*
X183475690Y-117469127D01*
X183475690Y-117469127D02*
X183445452Y-117408651D01*
X183445452Y-117408651D02*
X183445452Y-117378413D01*
X183445452Y-117378413D02*
X183475690Y-117317937D01*
X183475690Y-117317937D02*
X183505928Y-117287699D01*
X183505928Y-117287699D02*
X183566404Y-117257461D01*
X183566404Y-117257461D02*
X183687357Y-117257461D01*
X183687357Y-117257461D02*
X183747833Y-117287699D01*
X183747833Y-117287699D02*
X183778071Y-117317937D01*
X183778071Y-117317937D02*
X183808309Y-117378413D01*
X183808309Y-117378413D02*
X183808309Y-117408651D01*
X183808309Y-117408651D02*
X183778071Y-117469127D01*
X183778071Y-117469127D02*
X183747833Y-117499365D01*
X183747833Y-117499365D02*
X183687357Y-117529603D01*
X183687357Y-117529603D02*
X183566404Y-117529603D01*
X183566404Y-117529603D02*
X183505928Y-117559842D01*
X183505928Y-117559842D02*
X183475690Y-117590080D01*
X183475690Y-117590080D02*
X183445452Y-117650556D01*
X183445452Y-117650556D02*
X183445452Y-117771508D01*
X183445452Y-117771508D02*
X183475690Y-117831984D01*
X183475690Y-117831984D02*
X183505928Y-117862223D01*
X183505928Y-117862223D02*
X183566404Y-117892461D01*
X183566404Y-117892461D02*
X183687357Y-117892461D01*
X183687357Y-117892461D02*
X183747833Y-117862223D01*
X183747833Y-117862223D02*
X183778071Y-117831984D01*
X183778071Y-117831984D02*
X183808309Y-117771508D01*
X183808309Y-117771508D02*
X183808309Y-117650556D01*
X183808309Y-117650556D02*
X183778071Y-117590080D01*
X183778071Y-117590080D02*
X183747833Y-117559842D01*
X183747833Y-117559842D02*
X183687357Y-117529603D01*
X205253166Y-106909984D02*
X205222928Y-106940223D01*
X205222928Y-106940223D02*
X205132214Y-106970461D01*
X205132214Y-106970461D02*
X205071738Y-106970461D01*
X205071738Y-106970461D02*
X204981023Y-106940223D01*
X204981023Y-106940223D02*
X204920547Y-106879746D01*
X204920547Y-106879746D02*
X204890309Y-106819270D01*
X204890309Y-106819270D02*
X204860071Y-106698318D01*
X204860071Y-106698318D02*
X204860071Y-106607603D01*
X204860071Y-106607603D02*
X204890309Y-106486651D01*
X204890309Y-106486651D02*
X204920547Y-106426175D01*
X204920547Y-106426175D02*
X204981023Y-106365699D01*
X204981023Y-106365699D02*
X205071738Y-106335461D01*
X205071738Y-106335461D02*
X205132214Y-106335461D01*
X205132214Y-106335461D02*
X205222928Y-106365699D01*
X205222928Y-106365699D02*
X205253166Y-106395937D01*
X205797452Y-106547127D02*
X205797452Y-106970461D01*
X205646261Y-106305223D02*
X205495071Y-106758794D01*
X205495071Y-106758794D02*
X205888166Y-106758794D01*
X179236309Y-106970461D02*
X179236309Y-106335461D01*
X179236309Y-106335461D02*
X179387499Y-106335461D01*
X179387499Y-106335461D02*
X179478214Y-106365699D01*
X179478214Y-106365699D02*
X179538690Y-106426175D01*
X179538690Y-106426175D02*
X179568928Y-106486651D01*
X179568928Y-106486651D02*
X179599166Y-106607603D01*
X179599166Y-106607603D02*
X179599166Y-106698318D01*
X179599166Y-106698318D02*
X179568928Y-106819270D01*
X179568928Y-106819270D02*
X179538690Y-106879746D01*
X179538690Y-106879746D02*
X179478214Y-106940223D01*
X179478214Y-106940223D02*
X179387499Y-106970461D01*
X179387499Y-106970461D02*
X179236309Y-106970461D01*
X179810833Y-106335461D02*
X180203928Y-106335461D01*
X180203928Y-106335461D02*
X179992261Y-106577365D01*
X179992261Y-106577365D02*
X180082976Y-106577365D01*
X180082976Y-106577365D02*
X180143452Y-106607603D01*
X180143452Y-106607603D02*
X180173690Y-106637842D01*
X180173690Y-106637842D02*
X180203928Y-106698318D01*
X180203928Y-106698318D02*
X180203928Y-106849508D01*
X180203928Y-106849508D02*
X180173690Y-106909984D01*
X180173690Y-106909984D02*
X180143452Y-106940223D01*
X180143452Y-106940223D02*
X180082976Y-106970461D01*
X180082976Y-106970461D02*
X179901547Y-106970461D01*
X179901547Y-106970461D02*
X179841071Y-106940223D01*
X179841071Y-106940223D02*
X179810833Y-106909984D01*
X202586166Y-104303461D02*
X202374499Y-104001080D01*
X202223309Y-104303461D02*
X202223309Y-103668461D01*
X202223309Y-103668461D02*
X202465214Y-103668461D01*
X202465214Y-103668461D02*
X202525690Y-103698699D01*
X202525690Y-103698699D02*
X202555928Y-103728937D01*
X202555928Y-103728937D02*
X202586166Y-103789413D01*
X202586166Y-103789413D02*
X202586166Y-103880127D01*
X202586166Y-103880127D02*
X202555928Y-103940603D01*
X202555928Y-103940603D02*
X202525690Y-103970842D01*
X202525690Y-103970842D02*
X202465214Y-104001080D01*
X202465214Y-104001080D02*
X202223309Y-104001080D01*
X203160690Y-103668461D02*
X202858309Y-103668461D01*
X202858309Y-103668461D02*
X202828071Y-103970842D01*
X202828071Y-103970842D02*
X202858309Y-103940603D01*
X202858309Y-103940603D02*
X202918785Y-103910365D01*
X202918785Y-103910365D02*
X203069976Y-103910365D01*
X203069976Y-103910365D02*
X203130452Y-103940603D01*
X203130452Y-103940603D02*
X203160690Y-103970842D01*
X203160690Y-103970842D02*
X203190928Y-104031318D01*
X203190928Y-104031318D02*
X203190928Y-104182508D01*
X203190928Y-104182508D02*
X203160690Y-104242984D01*
X203160690Y-104242984D02*
X203130452Y-104273223D01*
X203130452Y-104273223D02*
X203069976Y-104303461D01*
X203069976Y-104303461D02*
X202918785Y-104303461D01*
X202918785Y-104303461D02*
X202858309Y-104273223D01*
X202858309Y-104273223D02*
X202828071Y-104242984D01*
X194409785Y-113226984D02*
X194379547Y-113257223D01*
X194379547Y-113257223D02*
X194288833Y-113287461D01*
X194288833Y-113287461D02*
X194228357Y-113287461D01*
X194228357Y-113287461D02*
X194137642Y-113257223D01*
X194137642Y-113257223D02*
X194077166Y-113196746D01*
X194077166Y-113196746D02*
X194046928Y-113136270D01*
X194046928Y-113136270D02*
X194016690Y-113015318D01*
X194016690Y-113015318D02*
X194016690Y-112924603D01*
X194016690Y-112924603D02*
X194046928Y-112803651D01*
X194046928Y-112803651D02*
X194077166Y-112743175D01*
X194077166Y-112743175D02*
X194137642Y-112682699D01*
X194137642Y-112682699D02*
X194228357Y-112652461D01*
X194228357Y-112652461D02*
X194288833Y-112652461D01*
X194288833Y-112652461D02*
X194379547Y-112682699D01*
X194379547Y-112682699D02*
X194409785Y-112712937D01*
X195014547Y-113287461D02*
X194651690Y-113287461D01*
X194833118Y-113287461D02*
X194833118Y-112652461D01*
X194833118Y-112652461D02*
X194772642Y-112743175D01*
X194772642Y-112743175D02*
X194712166Y-112803651D01*
X194712166Y-112803651D02*
X194651690Y-112833889D01*
X195558833Y-112864127D02*
X195558833Y-113287461D01*
X195407642Y-112622223D02*
X195256452Y-113075794D01*
X195256452Y-113075794D02*
X195649547Y-113075794D01*
X203172785Y-134910461D02*
X202961118Y-134608080D01*
X202809928Y-134910461D02*
X202809928Y-134275461D01*
X202809928Y-134275461D02*
X203051833Y-134275461D01*
X203051833Y-134275461D02*
X203112309Y-134305699D01*
X203112309Y-134305699D02*
X203142547Y-134335937D01*
X203142547Y-134335937D02*
X203172785Y-134396413D01*
X203172785Y-134396413D02*
X203172785Y-134487127D01*
X203172785Y-134487127D02*
X203142547Y-134547603D01*
X203142547Y-134547603D02*
X203112309Y-134577842D01*
X203112309Y-134577842D02*
X203051833Y-134608080D01*
X203051833Y-134608080D02*
X202809928Y-134608080D01*
X203777547Y-134910461D02*
X203414690Y-134910461D01*
X203596118Y-134910461D02*
X203596118Y-134275461D01*
X203596118Y-134275461D02*
X203535642Y-134366175D01*
X203535642Y-134366175D02*
X203475166Y-134426651D01*
X203475166Y-134426651D02*
X203414690Y-134456889D01*
X204321833Y-134275461D02*
X204200880Y-134275461D01*
X204200880Y-134275461D02*
X204140404Y-134305699D01*
X204140404Y-134305699D02*
X204110166Y-134335937D01*
X204110166Y-134335937D02*
X204049690Y-134426651D01*
X204049690Y-134426651D02*
X204019452Y-134547603D01*
X204019452Y-134547603D02*
X204019452Y-134789508D01*
X204019452Y-134789508D02*
X204049690Y-134849984D01*
X204049690Y-134849984D02*
X204079928Y-134880223D01*
X204079928Y-134880223D02*
X204140404Y-134910461D01*
X204140404Y-134910461D02*
X204261357Y-134910461D01*
X204261357Y-134910461D02*
X204321833Y-134880223D01*
X204321833Y-134880223D02*
X204352071Y-134849984D01*
X204352071Y-134849984D02*
X204382309Y-134789508D01*
X204382309Y-134789508D02*
X204382309Y-134638318D01*
X204382309Y-134638318D02*
X204352071Y-134577842D01*
X204352071Y-134577842D02*
X204321833Y-134547603D01*
X204321833Y-134547603D02*
X204261357Y-134517365D01*
X204261357Y-134517365D02*
X204140404Y-134517365D01*
X204140404Y-134517365D02*
X204079928Y-134547603D01*
X204079928Y-134547603D02*
X204049690Y-134577842D01*
X204049690Y-134577842D02*
X204019452Y-134638318D01*
X201570166Y-100178984D02*
X201539928Y-100209223D01*
X201539928Y-100209223D02*
X201449214Y-100239461D01*
X201449214Y-100239461D02*
X201388738Y-100239461D01*
X201388738Y-100239461D02*
X201298023Y-100209223D01*
X201298023Y-100209223D02*
X201237547Y-100148746D01*
X201237547Y-100148746D02*
X201207309Y-100088270D01*
X201207309Y-100088270D02*
X201177071Y-99967318D01*
X201177071Y-99967318D02*
X201177071Y-99876603D01*
X201177071Y-99876603D02*
X201207309Y-99755651D01*
X201207309Y-99755651D02*
X201237547Y-99695175D01*
X201237547Y-99695175D02*
X201298023Y-99634699D01*
X201298023Y-99634699D02*
X201388738Y-99604461D01*
X201388738Y-99604461D02*
X201449214Y-99604461D01*
X201449214Y-99604461D02*
X201539928Y-99634699D01*
X201539928Y-99634699D02*
X201570166Y-99664937D01*
X201812071Y-99664937D02*
X201842309Y-99634699D01*
X201842309Y-99634699D02*
X201902785Y-99604461D01*
X201902785Y-99604461D02*
X202053976Y-99604461D01*
X202053976Y-99604461D02*
X202114452Y-99634699D01*
X202114452Y-99634699D02*
X202144690Y-99664937D01*
X202144690Y-99664937D02*
X202174928Y-99725413D01*
X202174928Y-99725413D02*
X202174928Y-99785889D01*
X202174928Y-99785889D02*
X202144690Y-99876603D01*
X202144690Y-99876603D02*
X201781833Y-100239461D01*
X201781833Y-100239461D02*
X202174928Y-100239461D01*
X179743785Y-118056984D02*
X179713547Y-118087223D01*
X179713547Y-118087223D02*
X179622833Y-118117461D01*
X179622833Y-118117461D02*
X179562357Y-118117461D01*
X179562357Y-118117461D02*
X179471642Y-118087223D01*
X179471642Y-118087223D02*
X179411166Y-118026746D01*
X179411166Y-118026746D02*
X179380928Y-117966270D01*
X179380928Y-117966270D02*
X179350690Y-117845318D01*
X179350690Y-117845318D02*
X179350690Y-117754603D01*
X179350690Y-117754603D02*
X179380928Y-117633651D01*
X179380928Y-117633651D02*
X179411166Y-117573175D01*
X179411166Y-117573175D02*
X179471642Y-117512699D01*
X179471642Y-117512699D02*
X179562357Y-117482461D01*
X179562357Y-117482461D02*
X179622833Y-117482461D01*
X179622833Y-117482461D02*
X179713547Y-117512699D01*
X179713547Y-117512699D02*
X179743785Y-117542937D01*
X180348547Y-118117461D02*
X179985690Y-118117461D01*
X180167118Y-118117461D02*
X180167118Y-117482461D01*
X180167118Y-117482461D02*
X180106642Y-117573175D01*
X180106642Y-117573175D02*
X180046166Y-117633651D01*
X180046166Y-117633651D02*
X179985690Y-117663889D01*
X180560214Y-117482461D02*
X180983547Y-117482461D01*
X180983547Y-117482461D02*
X180711404Y-118117461D01*
X178640618Y-100572080D02*
X178640618Y-100874461D01*
X178428952Y-100239461D02*
X178640618Y-100572080D01*
X178640618Y-100572080D02*
X178852285Y-100239461D01*
X179396571Y-100874461D02*
X179033714Y-100874461D01*
X179215142Y-100874461D02*
X179215142Y-100239461D01*
X179215142Y-100239461D02*
X179154666Y-100330175D01*
X179154666Y-100330175D02*
X179094190Y-100390651D01*
X179094190Y-100390651D02*
X179033714Y-100420889D01*
X181761190Y-129123461D02*
X181761190Y-129637508D01*
X181761190Y-129637508D02*
X181791428Y-129697984D01*
X181791428Y-129697984D02*
X181821666Y-129728223D01*
X181821666Y-129728223D02*
X181882142Y-129758461D01*
X181882142Y-129758461D02*
X182003095Y-129758461D01*
X182003095Y-129758461D02*
X182063571Y-129728223D01*
X182063571Y-129728223D02*
X182093809Y-129697984D01*
X182093809Y-129697984D02*
X182124047Y-129637508D01*
X182124047Y-129637508D02*
X182124047Y-129123461D01*
X182365952Y-129123461D02*
X182759047Y-129123461D01*
X182759047Y-129123461D02*
X182547380Y-129365365D01*
X182547380Y-129365365D02*
X182638095Y-129365365D01*
X182638095Y-129365365D02*
X182698571Y-129395603D01*
X182698571Y-129395603D02*
X182728809Y-129425842D01*
X182728809Y-129425842D02*
X182759047Y-129486318D01*
X182759047Y-129486318D02*
X182759047Y-129637508D01*
X182759047Y-129637508D02*
X182728809Y-129697984D01*
X182728809Y-129697984D02*
X182698571Y-129728223D01*
X182698571Y-129728223D02*
X182638095Y-129758461D01*
X182638095Y-129758461D02*
X182456666Y-129758461D01*
X182456666Y-129758461D02*
X182396190Y-129728223D01*
X182396190Y-129728223D02*
X182365952Y-129697984D01*
X203221166Y-101001461D02*
X203009499Y-100699080D01*
X202858309Y-101001461D02*
X202858309Y-100366461D01*
X202858309Y-100366461D02*
X203100214Y-100366461D01*
X203100214Y-100366461D02*
X203160690Y-100396699D01*
X203160690Y-100396699D02*
X203190928Y-100426937D01*
X203190928Y-100426937D02*
X203221166Y-100487413D01*
X203221166Y-100487413D02*
X203221166Y-100578127D01*
X203221166Y-100578127D02*
X203190928Y-100638603D01*
X203190928Y-100638603D02*
X203160690Y-100668842D01*
X203160690Y-100668842D02*
X203100214Y-100699080D01*
X203100214Y-100699080D02*
X202858309Y-100699080D01*
X203765452Y-100578127D02*
X203765452Y-101001461D01*
X203614261Y-100336223D02*
X203463071Y-100789794D01*
X203463071Y-100789794D02*
X203856166Y-100789794D01*
X186281785Y-114783984D02*
X186251547Y-114814223D01*
X186251547Y-114814223D02*
X186160833Y-114844461D01*
X186160833Y-114844461D02*
X186100357Y-114844461D01*
X186100357Y-114844461D02*
X186009642Y-114814223D01*
X186009642Y-114814223D02*
X185949166Y-114753746D01*
X185949166Y-114753746D02*
X185918928Y-114693270D01*
X185918928Y-114693270D02*
X185888690Y-114572318D01*
X185888690Y-114572318D02*
X185888690Y-114481603D01*
X185888690Y-114481603D02*
X185918928Y-114360651D01*
X185918928Y-114360651D02*
X185949166Y-114300175D01*
X185949166Y-114300175D02*
X186009642Y-114239699D01*
X186009642Y-114239699D02*
X186100357Y-114209461D01*
X186100357Y-114209461D02*
X186160833Y-114209461D01*
X186160833Y-114209461D02*
X186251547Y-114239699D01*
X186251547Y-114239699D02*
X186281785Y-114269937D01*
X186523690Y-114269937D02*
X186553928Y-114239699D01*
X186553928Y-114239699D02*
X186614404Y-114209461D01*
X186614404Y-114209461D02*
X186765595Y-114209461D01*
X186765595Y-114209461D02*
X186826071Y-114239699D01*
X186826071Y-114239699D02*
X186856309Y-114269937D01*
X186856309Y-114269937D02*
X186886547Y-114330413D01*
X186886547Y-114330413D02*
X186886547Y-114390889D01*
X186886547Y-114390889D02*
X186856309Y-114481603D01*
X186856309Y-114481603D02*
X186493452Y-114844461D01*
X186493452Y-114844461D02*
X186886547Y-114844461D01*
X187098214Y-114209461D02*
X187491309Y-114209461D01*
X187491309Y-114209461D02*
X187279642Y-114451365D01*
X187279642Y-114451365D02*
X187370357Y-114451365D01*
X187370357Y-114451365D02*
X187430833Y-114481603D01*
X187430833Y-114481603D02*
X187461071Y-114511842D01*
X187461071Y-114511842D02*
X187491309Y-114572318D01*
X187491309Y-114572318D02*
X187491309Y-114723508D01*
X187491309Y-114723508D02*
X187461071Y-114783984D01*
X187461071Y-114783984D02*
X187430833Y-114814223D01*
X187430833Y-114814223D02*
X187370357Y-114844461D01*
X187370357Y-114844461D02*
X187188928Y-114844461D01*
X187188928Y-114844461D02*
X187128452Y-114814223D01*
X187128452Y-114814223D02*
X187098214Y-114783984D01*
X185900785Y-117792461D02*
X185689118Y-117490080D01*
X185537928Y-117792461D02*
X185537928Y-117157461D01*
X185537928Y-117157461D02*
X185779833Y-117157461D01*
X185779833Y-117157461D02*
X185840309Y-117187699D01*
X185840309Y-117187699D02*
X185870547Y-117217937D01*
X185870547Y-117217937D02*
X185900785Y-117278413D01*
X185900785Y-117278413D02*
X185900785Y-117369127D01*
X185900785Y-117369127D02*
X185870547Y-117429603D01*
X185870547Y-117429603D02*
X185840309Y-117459842D01*
X185840309Y-117459842D02*
X185779833Y-117490080D01*
X185779833Y-117490080D02*
X185537928Y-117490080D01*
X186505547Y-117792461D02*
X186142690Y-117792461D01*
X186324118Y-117792461D02*
X186324118Y-117157461D01*
X186324118Y-117157461D02*
X186263642Y-117248175D01*
X186263642Y-117248175D02*
X186203166Y-117308651D01*
X186203166Y-117308651D02*
X186142690Y-117338889D01*
X186717214Y-117157461D02*
X187140547Y-117157461D01*
X187140547Y-117157461D02*
X186868404Y-117792461D01*
X184122785Y-92304984D02*
X184092547Y-92335223D01*
X184092547Y-92335223D02*
X184001833Y-92365461D01*
X184001833Y-92365461D02*
X183941357Y-92365461D01*
X183941357Y-92365461D02*
X183850642Y-92335223D01*
X183850642Y-92335223D02*
X183790166Y-92274746D01*
X183790166Y-92274746D02*
X183759928Y-92214270D01*
X183759928Y-92214270D02*
X183729690Y-92093318D01*
X183729690Y-92093318D02*
X183729690Y-92002603D01*
X183729690Y-92002603D02*
X183759928Y-91881651D01*
X183759928Y-91881651D02*
X183790166Y-91821175D01*
X183790166Y-91821175D02*
X183850642Y-91760699D01*
X183850642Y-91760699D02*
X183941357Y-91730461D01*
X183941357Y-91730461D02*
X184001833Y-91730461D01*
X184001833Y-91730461D02*
X184092547Y-91760699D01*
X184092547Y-91760699D02*
X184122785Y-91790937D01*
X184364690Y-91790937D02*
X184394928Y-91760699D01*
X184394928Y-91760699D02*
X184455404Y-91730461D01*
X184455404Y-91730461D02*
X184606595Y-91730461D01*
X184606595Y-91730461D02*
X184667071Y-91760699D01*
X184667071Y-91760699D02*
X184697309Y-91790937D01*
X184697309Y-91790937D02*
X184727547Y-91851413D01*
X184727547Y-91851413D02*
X184727547Y-91911889D01*
X184727547Y-91911889D02*
X184697309Y-92002603D01*
X184697309Y-92002603D02*
X184334452Y-92365461D01*
X184334452Y-92365461D02*
X184727547Y-92365461D01*
X184939214Y-91730461D02*
X185362547Y-91730461D01*
X185362547Y-91730461D02*
X185090404Y-92365461D01*
X182520166Y-103795461D02*
X182308499Y-103493080D01*
X182157309Y-103795461D02*
X182157309Y-103160461D01*
X182157309Y-103160461D02*
X182399214Y-103160461D01*
X182399214Y-103160461D02*
X182459690Y-103190699D01*
X182459690Y-103190699D02*
X182489928Y-103220937D01*
X182489928Y-103220937D02*
X182520166Y-103281413D01*
X182520166Y-103281413D02*
X182520166Y-103372127D01*
X182520166Y-103372127D02*
X182489928Y-103432603D01*
X182489928Y-103432603D02*
X182459690Y-103462842D01*
X182459690Y-103462842D02*
X182399214Y-103493080D01*
X182399214Y-103493080D02*
X182157309Y-103493080D01*
X183064452Y-103160461D02*
X182943499Y-103160461D01*
X182943499Y-103160461D02*
X182883023Y-103190699D01*
X182883023Y-103190699D02*
X182852785Y-103220937D01*
X182852785Y-103220937D02*
X182792309Y-103311651D01*
X182792309Y-103311651D02*
X182762071Y-103432603D01*
X182762071Y-103432603D02*
X182762071Y-103674508D01*
X182762071Y-103674508D02*
X182792309Y-103734984D01*
X182792309Y-103734984D02*
X182822547Y-103765223D01*
X182822547Y-103765223D02*
X182883023Y-103795461D01*
X182883023Y-103795461D02*
X183003976Y-103795461D01*
X183003976Y-103795461D02*
X183064452Y-103765223D01*
X183064452Y-103765223D02*
X183094690Y-103734984D01*
X183094690Y-103734984D02*
X183124928Y-103674508D01*
X183124928Y-103674508D02*
X183124928Y-103523318D01*
X183124928Y-103523318D02*
X183094690Y-103462842D01*
X183094690Y-103462842D02*
X183064452Y-103432603D01*
X183064452Y-103432603D02*
X183003976Y-103402365D01*
X183003976Y-103402365D02*
X182883023Y-103402365D01*
X182883023Y-103402365D02*
X182822547Y-103432603D01*
X182822547Y-103432603D02*
X182792309Y-103462842D01*
X182792309Y-103462842D02*
X182762071Y-103523318D01*
X190856984Y-117629214D02*
X190887223Y-117659452D01*
X190887223Y-117659452D02*
X190917461Y-117750166D01*
X190917461Y-117750166D02*
X190917461Y-117810642D01*
X190917461Y-117810642D02*
X190887223Y-117901357D01*
X190887223Y-117901357D02*
X190826746Y-117961833D01*
X190826746Y-117961833D02*
X190766270Y-117992071D01*
X190766270Y-117992071D02*
X190645318Y-118022309D01*
X190645318Y-118022309D02*
X190554603Y-118022309D01*
X190554603Y-118022309D02*
X190433651Y-117992071D01*
X190433651Y-117992071D02*
X190373175Y-117961833D01*
X190373175Y-117961833D02*
X190312699Y-117901357D01*
X190312699Y-117901357D02*
X190282461Y-117810642D01*
X190282461Y-117810642D02*
X190282461Y-117750166D01*
X190282461Y-117750166D02*
X190312699Y-117659452D01*
X190312699Y-117659452D02*
X190342937Y-117629214D01*
X190917461Y-117024452D02*
X190917461Y-117387309D01*
X190917461Y-117205881D02*
X190282461Y-117205881D01*
X190282461Y-117205881D02*
X190373175Y-117266357D01*
X190373175Y-117266357D02*
X190433651Y-117326833D01*
X190433651Y-117326833D02*
X190463889Y-117387309D01*
X190917461Y-116419690D02*
X190917461Y-116782547D01*
X190917461Y-116601119D02*
X190282461Y-116601119D01*
X190282461Y-116601119D02*
X190373175Y-116661595D01*
X190373175Y-116661595D02*
X190433651Y-116722071D01*
X190433651Y-116722071D02*
X190463889Y-116782547D01*
X206220785Y-132436984D02*
X206190547Y-132467223D01*
X206190547Y-132467223D02*
X206099833Y-132497461D01*
X206099833Y-132497461D02*
X206039357Y-132497461D01*
X206039357Y-132497461D02*
X205948642Y-132467223D01*
X205948642Y-132467223D02*
X205888166Y-132406746D01*
X205888166Y-132406746D02*
X205857928Y-132346270D01*
X205857928Y-132346270D02*
X205827690Y-132225318D01*
X205827690Y-132225318D02*
X205827690Y-132134603D01*
X205827690Y-132134603D02*
X205857928Y-132013651D01*
X205857928Y-132013651D02*
X205888166Y-131953175D01*
X205888166Y-131953175D02*
X205948642Y-131892699D01*
X205948642Y-131892699D02*
X206039357Y-131862461D01*
X206039357Y-131862461D02*
X206099833Y-131862461D01*
X206099833Y-131862461D02*
X206190547Y-131892699D01*
X206190547Y-131892699D02*
X206220785Y-131922937D01*
X206825547Y-132497461D02*
X206462690Y-132497461D01*
X206644118Y-132497461D02*
X206644118Y-131862461D01*
X206644118Y-131862461D02*
X206583642Y-131953175D01*
X206583642Y-131953175D02*
X206523166Y-132013651D01*
X206523166Y-132013651D02*
X206462690Y-132043889D01*
X207188404Y-132134603D02*
X207127928Y-132104365D01*
X207127928Y-132104365D02*
X207097690Y-132074127D01*
X207097690Y-132074127D02*
X207067452Y-132013651D01*
X207067452Y-132013651D02*
X207067452Y-131983413D01*
X207067452Y-131983413D02*
X207097690Y-131922937D01*
X207097690Y-131922937D02*
X207127928Y-131892699D01*
X207127928Y-131892699D02*
X207188404Y-131862461D01*
X207188404Y-131862461D02*
X207309357Y-131862461D01*
X207309357Y-131862461D02*
X207369833Y-131892699D01*
X207369833Y-131892699D02*
X207400071Y-131922937D01*
X207400071Y-131922937D02*
X207430309Y-131983413D01*
X207430309Y-131983413D02*
X207430309Y-132013651D01*
X207430309Y-132013651D02*
X207400071Y-132074127D01*
X207400071Y-132074127D02*
X207369833Y-132104365D01*
X207369833Y-132104365D02*
X207309357Y-132134603D01*
X207309357Y-132134603D02*
X207188404Y-132134603D01*
X207188404Y-132134603D02*
X207127928Y-132164842D01*
X207127928Y-132164842D02*
X207097690Y-132195080D01*
X207097690Y-132195080D02*
X207067452Y-132255556D01*
X207067452Y-132255556D02*
X207067452Y-132376508D01*
X207067452Y-132376508D02*
X207097690Y-132436984D01*
X207097690Y-132436984D02*
X207127928Y-132467223D01*
X207127928Y-132467223D02*
X207188404Y-132497461D01*
X207188404Y-132497461D02*
X207309357Y-132497461D01*
X207309357Y-132497461D02*
X207369833Y-132467223D01*
X207369833Y-132467223D02*
X207400071Y-132436984D01*
X207400071Y-132436984D02*
X207430309Y-132376508D01*
X207430309Y-132376508D02*
X207430309Y-132255556D01*
X207430309Y-132255556D02*
X207400071Y-132195080D01*
X207400071Y-132195080D02*
X207369833Y-132164842D01*
X207369833Y-132164842D02*
X207309357Y-132134603D01*
X200124785Y-134910461D02*
X199913118Y-134608080D01*
X199761928Y-134910461D02*
X199761928Y-134275461D01*
X199761928Y-134275461D02*
X200003833Y-134275461D01*
X200003833Y-134275461D02*
X200064309Y-134305699D01*
X200064309Y-134305699D02*
X200094547Y-134335937D01*
X200094547Y-134335937D02*
X200124785Y-134396413D01*
X200124785Y-134396413D02*
X200124785Y-134487127D01*
X200124785Y-134487127D02*
X200094547Y-134547603D01*
X200094547Y-134547603D02*
X200064309Y-134577842D01*
X200064309Y-134577842D02*
X200003833Y-134608080D01*
X200003833Y-134608080D02*
X199761928Y-134608080D01*
X200729547Y-134910461D02*
X200366690Y-134910461D01*
X200548118Y-134910461D02*
X200548118Y-134275461D01*
X200548118Y-134275461D02*
X200487642Y-134366175D01*
X200487642Y-134366175D02*
X200427166Y-134426651D01*
X200427166Y-134426651D02*
X200366690Y-134456889D01*
X201304071Y-134275461D02*
X201001690Y-134275461D01*
X201001690Y-134275461D02*
X200971452Y-134577842D01*
X200971452Y-134577842D02*
X201001690Y-134547603D01*
X201001690Y-134547603D02*
X201062166Y-134517365D01*
X201062166Y-134517365D02*
X201213357Y-134517365D01*
X201213357Y-134517365D02*
X201273833Y-134547603D01*
X201273833Y-134547603D02*
X201304071Y-134577842D01*
X201304071Y-134577842D02*
X201334309Y-134638318D01*
X201334309Y-134638318D02*
X201334309Y-134789508D01*
X201334309Y-134789508D02*
X201304071Y-134849984D01*
X201304071Y-134849984D02*
X201273833Y-134880223D01*
X201273833Y-134880223D02*
X201213357Y-134910461D01*
X201213357Y-134910461D02*
X201062166Y-134910461D01*
X201062166Y-134910461D02*
X201001690Y-134880223D01*
X201001690Y-134880223D02*
X200971452Y-134849984D01*
X211222166Y-95286461D02*
X211010499Y-94984080D01*
X210859309Y-95286461D02*
X210859309Y-94651461D01*
X210859309Y-94651461D02*
X211101214Y-94651461D01*
X211101214Y-94651461D02*
X211161690Y-94681699D01*
X211161690Y-94681699D02*
X211191928Y-94711937D01*
X211191928Y-94711937D02*
X211222166Y-94772413D01*
X211222166Y-94772413D02*
X211222166Y-94863127D01*
X211222166Y-94863127D02*
X211191928Y-94923603D01*
X211191928Y-94923603D02*
X211161690Y-94953842D01*
X211161690Y-94953842D02*
X211101214Y-94984080D01*
X211101214Y-94984080D02*
X210859309Y-94984080D01*
X211464071Y-94711937D02*
X211494309Y-94681699D01*
X211494309Y-94681699D02*
X211554785Y-94651461D01*
X211554785Y-94651461D02*
X211705976Y-94651461D01*
X211705976Y-94651461D02*
X211766452Y-94681699D01*
X211766452Y-94681699D02*
X211796690Y-94711937D01*
X211796690Y-94711937D02*
X211826928Y-94772413D01*
X211826928Y-94772413D02*
X211826928Y-94832889D01*
X211826928Y-94832889D02*
X211796690Y-94923603D01*
X211796690Y-94923603D02*
X211433833Y-95286461D01*
X211433833Y-95286461D02*
X211826928Y-95286461D01*
X209445461Y-102446666D02*
X209899032Y-102446666D01*
X209899032Y-102446666D02*
X209989746Y-102476905D01*
X209989746Y-102476905D02*
X210050223Y-102537381D01*
X210050223Y-102537381D02*
X210080461Y-102628095D01*
X210080461Y-102628095D02*
X210080461Y-102688571D01*
X210080461Y-101811666D02*
X210080461Y-102174523D01*
X210080461Y-101993095D02*
X209445461Y-101993095D01*
X209445461Y-101993095D02*
X209536175Y-102053571D01*
X209536175Y-102053571D02*
X209596651Y-102114047D01*
X209596651Y-102114047D02*
X209626889Y-102174523D01*
X201651984Y-91213214D02*
X201682223Y-91243452D01*
X201682223Y-91243452D02*
X201712461Y-91334166D01*
X201712461Y-91334166D02*
X201712461Y-91394642D01*
X201712461Y-91394642D02*
X201682223Y-91485357D01*
X201682223Y-91485357D02*
X201621746Y-91545833D01*
X201621746Y-91545833D02*
X201561270Y-91576071D01*
X201561270Y-91576071D02*
X201440318Y-91606309D01*
X201440318Y-91606309D02*
X201349603Y-91606309D01*
X201349603Y-91606309D02*
X201228651Y-91576071D01*
X201228651Y-91576071D02*
X201168175Y-91545833D01*
X201168175Y-91545833D02*
X201107699Y-91485357D01*
X201107699Y-91485357D02*
X201077461Y-91394642D01*
X201077461Y-91394642D02*
X201077461Y-91334166D01*
X201077461Y-91334166D02*
X201107699Y-91243452D01*
X201107699Y-91243452D02*
X201137937Y-91213214D01*
X201137937Y-90971309D02*
X201107699Y-90941071D01*
X201107699Y-90941071D02*
X201077461Y-90880595D01*
X201077461Y-90880595D02*
X201077461Y-90729404D01*
X201077461Y-90729404D02*
X201107699Y-90668928D01*
X201107699Y-90668928D02*
X201137937Y-90638690D01*
X201137937Y-90638690D02*
X201198413Y-90608452D01*
X201198413Y-90608452D02*
X201258889Y-90608452D01*
X201258889Y-90608452D02*
X201349603Y-90638690D01*
X201349603Y-90638690D02*
X201712461Y-91001547D01*
X201712461Y-91001547D02*
X201712461Y-90608452D01*
X201349603Y-90245595D02*
X201319365Y-90306071D01*
X201319365Y-90306071D02*
X201289127Y-90336309D01*
X201289127Y-90336309D02*
X201228651Y-90366547D01*
X201228651Y-90366547D02*
X201198413Y-90366547D01*
X201198413Y-90366547D02*
X201137937Y-90336309D01*
X201137937Y-90336309D02*
X201107699Y-90306071D01*
X201107699Y-90306071D02*
X201077461Y-90245595D01*
X201077461Y-90245595D02*
X201077461Y-90124642D01*
X201077461Y-90124642D02*
X201107699Y-90064166D01*
X201107699Y-90064166D02*
X201137937Y-90033928D01*
X201137937Y-90033928D02*
X201198413Y-90003690D01*
X201198413Y-90003690D02*
X201228651Y-90003690D01*
X201228651Y-90003690D02*
X201289127Y-90033928D01*
X201289127Y-90033928D02*
X201319365Y-90064166D01*
X201319365Y-90064166D02*
X201349603Y-90124642D01*
X201349603Y-90124642D02*
X201349603Y-90245595D01*
X201349603Y-90245595D02*
X201379842Y-90306071D01*
X201379842Y-90306071D02*
X201410080Y-90336309D01*
X201410080Y-90336309D02*
X201470556Y-90366547D01*
X201470556Y-90366547D02*
X201591508Y-90366547D01*
X201591508Y-90366547D02*
X201651984Y-90336309D01*
X201651984Y-90336309D02*
X201682223Y-90306071D01*
X201682223Y-90306071D02*
X201712461Y-90245595D01*
X201712461Y-90245595D02*
X201712461Y-90124642D01*
X201712461Y-90124642D02*
X201682223Y-90064166D01*
X201682223Y-90064166D02*
X201651984Y-90033928D01*
X201651984Y-90033928D02*
X201591508Y-90003690D01*
X201591508Y-90003690D02*
X201470556Y-90003690D01*
X201470556Y-90003690D02*
X201410080Y-90033928D01*
X201410080Y-90033928D02*
X201379842Y-90064166D01*
X201379842Y-90064166D02*
X201349603Y-90124642D01*
X209492461Y-114835214D02*
X209190080Y-115046881D01*
X209492461Y-115198071D02*
X208857461Y-115198071D01*
X208857461Y-115198071D02*
X208857461Y-114956166D01*
X208857461Y-114956166D02*
X208887699Y-114895690D01*
X208887699Y-114895690D02*
X208917937Y-114865452D01*
X208917937Y-114865452D02*
X208978413Y-114835214D01*
X208978413Y-114835214D02*
X209069127Y-114835214D01*
X209069127Y-114835214D02*
X209129603Y-114865452D01*
X209129603Y-114865452D02*
X209159842Y-114895690D01*
X209159842Y-114895690D02*
X209190080Y-114956166D01*
X209190080Y-114956166D02*
X209190080Y-115198071D01*
X208917937Y-114593309D02*
X208887699Y-114563071D01*
X208887699Y-114563071D02*
X208857461Y-114502595D01*
X208857461Y-114502595D02*
X208857461Y-114351404D01*
X208857461Y-114351404D02*
X208887699Y-114290928D01*
X208887699Y-114290928D02*
X208917937Y-114260690D01*
X208917937Y-114260690D02*
X208978413Y-114230452D01*
X208978413Y-114230452D02*
X209038889Y-114230452D01*
X209038889Y-114230452D02*
X209129603Y-114260690D01*
X209129603Y-114260690D02*
X209492461Y-114623547D01*
X209492461Y-114623547D02*
X209492461Y-114230452D01*
X209492461Y-113625690D02*
X209492461Y-113988547D01*
X209492461Y-113807119D02*
X208857461Y-113807119D01*
X208857461Y-113807119D02*
X208948175Y-113867595D01*
X208948175Y-113867595D02*
X209008651Y-113928071D01*
X209008651Y-113928071D02*
X209038889Y-113988547D01*
X180315984Y-105056214D02*
X180346223Y-105086452D01*
X180346223Y-105086452D02*
X180376461Y-105177166D01*
X180376461Y-105177166D02*
X180376461Y-105237642D01*
X180376461Y-105237642D02*
X180346223Y-105328357D01*
X180346223Y-105328357D02*
X180285746Y-105388833D01*
X180285746Y-105388833D02*
X180225270Y-105419071D01*
X180225270Y-105419071D02*
X180104318Y-105449309D01*
X180104318Y-105449309D02*
X180013603Y-105449309D01*
X180013603Y-105449309D02*
X179892651Y-105419071D01*
X179892651Y-105419071D02*
X179832175Y-105388833D01*
X179832175Y-105388833D02*
X179771699Y-105328357D01*
X179771699Y-105328357D02*
X179741461Y-105237642D01*
X179741461Y-105237642D02*
X179741461Y-105177166D01*
X179741461Y-105177166D02*
X179771699Y-105086452D01*
X179771699Y-105086452D02*
X179801937Y-105056214D01*
X180376461Y-104451452D02*
X180376461Y-104814309D01*
X180376461Y-104632881D02*
X179741461Y-104632881D01*
X179741461Y-104632881D02*
X179832175Y-104693357D01*
X179832175Y-104693357D02*
X179892651Y-104753833D01*
X179892651Y-104753833D02*
X179922889Y-104814309D01*
X179741461Y-104058357D02*
X179741461Y-103997880D01*
X179741461Y-103997880D02*
X179771699Y-103937404D01*
X179771699Y-103937404D02*
X179801937Y-103907166D01*
X179801937Y-103907166D02*
X179862413Y-103876928D01*
X179862413Y-103876928D02*
X179983365Y-103846690D01*
X179983365Y-103846690D02*
X180134556Y-103846690D01*
X180134556Y-103846690D02*
X180255508Y-103876928D01*
X180255508Y-103876928D02*
X180315984Y-103907166D01*
X180315984Y-103907166D02*
X180346223Y-103937404D01*
X180346223Y-103937404D02*
X180376461Y-103997880D01*
X180376461Y-103997880D02*
X180376461Y-104058357D01*
X180376461Y-104058357D02*
X180346223Y-104118833D01*
X180346223Y-104118833D02*
X180315984Y-104149071D01*
X180315984Y-104149071D02*
X180255508Y-104179309D01*
X180255508Y-104179309D02*
X180134556Y-104209547D01*
X180134556Y-104209547D02*
X179983365Y-104209547D01*
X179983365Y-104209547D02*
X179862413Y-104179309D01*
X179862413Y-104179309D02*
X179801937Y-104149071D01*
X179801937Y-104149071D02*
X179771699Y-104118833D01*
X179771699Y-104118833D02*
X179741461Y-104058357D01*
X193142984Y-132996214D02*
X193173223Y-133026452D01*
X193173223Y-133026452D02*
X193203461Y-133117166D01*
X193203461Y-133117166D02*
X193203461Y-133177642D01*
X193203461Y-133177642D02*
X193173223Y-133268357D01*
X193173223Y-133268357D02*
X193112746Y-133328833D01*
X193112746Y-133328833D02*
X193052270Y-133359071D01*
X193052270Y-133359071D02*
X192931318Y-133389309D01*
X192931318Y-133389309D02*
X192840603Y-133389309D01*
X192840603Y-133389309D02*
X192719651Y-133359071D01*
X192719651Y-133359071D02*
X192659175Y-133328833D01*
X192659175Y-133328833D02*
X192598699Y-133268357D01*
X192598699Y-133268357D02*
X192568461Y-133177642D01*
X192568461Y-133177642D02*
X192568461Y-133117166D01*
X192568461Y-133117166D02*
X192598699Y-133026452D01*
X192598699Y-133026452D02*
X192628937Y-132996214D01*
X192628937Y-132754309D02*
X192598699Y-132724071D01*
X192598699Y-132724071D02*
X192568461Y-132663595D01*
X192568461Y-132663595D02*
X192568461Y-132512404D01*
X192568461Y-132512404D02*
X192598699Y-132451928D01*
X192598699Y-132451928D02*
X192628937Y-132421690D01*
X192628937Y-132421690D02*
X192689413Y-132391452D01*
X192689413Y-132391452D02*
X192749889Y-132391452D01*
X192749889Y-132391452D02*
X192840603Y-132421690D01*
X192840603Y-132421690D02*
X193203461Y-132784547D01*
X193203461Y-132784547D02*
X193203461Y-132391452D01*
X192628937Y-132149547D02*
X192598699Y-132119309D01*
X192598699Y-132119309D02*
X192568461Y-132058833D01*
X192568461Y-132058833D02*
X192568461Y-131907642D01*
X192568461Y-131907642D02*
X192598699Y-131847166D01*
X192598699Y-131847166D02*
X192628937Y-131816928D01*
X192628937Y-131816928D02*
X192689413Y-131786690D01*
X192689413Y-131786690D02*
X192749889Y-131786690D01*
X192749889Y-131786690D02*
X192840603Y-131816928D01*
X192840603Y-131816928D02*
X193203461Y-132179785D01*
X193203461Y-132179785D02*
X193203461Y-131786690D01*
X191364984Y-132996214D02*
X191395223Y-133026452D01*
X191395223Y-133026452D02*
X191425461Y-133117166D01*
X191425461Y-133117166D02*
X191425461Y-133177642D01*
X191425461Y-133177642D02*
X191395223Y-133268357D01*
X191395223Y-133268357D02*
X191334746Y-133328833D01*
X191334746Y-133328833D02*
X191274270Y-133359071D01*
X191274270Y-133359071D02*
X191153318Y-133389309D01*
X191153318Y-133389309D02*
X191062603Y-133389309D01*
X191062603Y-133389309D02*
X190941651Y-133359071D01*
X190941651Y-133359071D02*
X190881175Y-133328833D01*
X190881175Y-133328833D02*
X190820699Y-133268357D01*
X190820699Y-133268357D02*
X190790461Y-133177642D01*
X190790461Y-133177642D02*
X190790461Y-133117166D01*
X190790461Y-133117166D02*
X190820699Y-133026452D01*
X190820699Y-133026452D02*
X190850937Y-132996214D01*
X191425461Y-132391452D02*
X191425461Y-132754309D01*
X191425461Y-132572881D02*
X190790461Y-132572881D01*
X190790461Y-132572881D02*
X190881175Y-132633357D01*
X190881175Y-132633357D02*
X190941651Y-132693833D01*
X190941651Y-132693833D02*
X190971889Y-132754309D01*
X190790461Y-131847166D02*
X190790461Y-131968119D01*
X190790461Y-131968119D02*
X190820699Y-132028595D01*
X190820699Y-132028595D02*
X190850937Y-132058833D01*
X190850937Y-132058833D02*
X190941651Y-132119309D01*
X190941651Y-132119309D02*
X191062603Y-132149547D01*
X191062603Y-132149547D02*
X191304508Y-132149547D01*
X191304508Y-132149547D02*
X191364984Y-132119309D01*
X191364984Y-132119309D02*
X191395223Y-132089071D01*
X191395223Y-132089071D02*
X191425461Y-132028595D01*
X191425461Y-132028595D02*
X191425461Y-131907642D01*
X191425461Y-131907642D02*
X191395223Y-131847166D01*
X191395223Y-131847166D02*
X191364984Y-131816928D01*
X191364984Y-131816928D02*
X191304508Y-131786690D01*
X191304508Y-131786690D02*
X191153318Y-131786690D01*
X191153318Y-131786690D02*
X191092842Y-131816928D01*
X191092842Y-131816928D02*
X191062603Y-131847166D01*
X191062603Y-131847166D02*
X191032365Y-131907642D01*
X191032365Y-131907642D02*
X191032365Y-132028595D01*
X191032365Y-132028595D02*
X191062603Y-132089071D01*
X191062603Y-132089071D02*
X191092842Y-132119309D01*
X191092842Y-132119309D02*
X191153318Y-132149547D01*
X184044166Y-95987984D02*
X184013928Y-96018223D01*
X184013928Y-96018223D02*
X183923214Y-96048461D01*
X183923214Y-96048461D02*
X183862738Y-96048461D01*
X183862738Y-96048461D02*
X183772023Y-96018223D01*
X183772023Y-96018223D02*
X183711547Y-95957746D01*
X183711547Y-95957746D02*
X183681309Y-95897270D01*
X183681309Y-95897270D02*
X183651071Y-95776318D01*
X183651071Y-95776318D02*
X183651071Y-95685603D01*
X183651071Y-95685603D02*
X183681309Y-95564651D01*
X183681309Y-95564651D02*
X183711547Y-95504175D01*
X183711547Y-95504175D02*
X183772023Y-95443699D01*
X183772023Y-95443699D02*
X183862738Y-95413461D01*
X183862738Y-95413461D02*
X183923214Y-95413461D01*
X183923214Y-95413461D02*
X184013928Y-95443699D01*
X184013928Y-95443699D02*
X184044166Y-95473937D01*
X184255833Y-95413461D02*
X184648928Y-95413461D01*
X184648928Y-95413461D02*
X184437261Y-95655365D01*
X184437261Y-95655365D02*
X184527976Y-95655365D01*
X184527976Y-95655365D02*
X184588452Y-95685603D01*
X184588452Y-95685603D02*
X184618690Y-95715842D01*
X184618690Y-95715842D02*
X184648928Y-95776318D01*
X184648928Y-95776318D02*
X184648928Y-95927508D01*
X184648928Y-95927508D02*
X184618690Y-95987984D01*
X184618690Y-95987984D02*
X184588452Y-96018223D01*
X184588452Y-96018223D02*
X184527976Y-96048461D01*
X184527976Y-96048461D02*
X184346547Y-96048461D01*
X184346547Y-96048461D02*
X184286071Y-96018223D01*
X184286071Y-96018223D02*
X184255833Y-95987984D01*
X179856190Y-89546461D02*
X179856190Y-88911461D01*
X179856190Y-89213842D02*
X180219047Y-89213842D01*
X180219047Y-89546461D02*
X180219047Y-88911461D01*
X180854047Y-89546461D02*
X180491190Y-89546461D01*
X180672618Y-89546461D02*
X180672618Y-88911461D01*
X180672618Y-88911461D02*
X180612142Y-89002175D01*
X180612142Y-89002175D02*
X180551666Y-89062651D01*
X180551666Y-89062651D02*
X180491190Y-89092889D01*
D12*
%TO.C,U5*%
X196278500Y-89027000D02*
X190563500Y-89027000D01*
X190563500Y-89027000D02*
X190563500Y-92329000D01*
X196278500Y-92329000D02*
X196278500Y-89027000D01*
X190563500Y-92329000D02*
X196278500Y-92329000D01*
D13*
%TO.C,R13*%
X187552359Y-90425000D02*
X187859641Y-90425000D01*
X187552359Y-91185000D02*
X187859641Y-91185000D01*
%TO.C,R8*%
X187552359Y-93092000D02*
X187859641Y-93092000D01*
X187552359Y-93852000D02*
X187859641Y-93852000D01*
%TO.C,C7*%
X188997000Y-114319164D02*
X188997000Y-114534836D01*
X189717000Y-114319164D02*
X189717000Y-114534836D01*
%TO.C,D7*%
X206593000Y-109982000D02*
X206593000Y-109332000D01*
X206593000Y-109982000D02*
X206593000Y-110632000D01*
X209713000Y-109982000D02*
X209713000Y-109332000D01*
X209713000Y-109982000D02*
X209713000Y-110632000D01*
X206643000Y-111144500D02*
X206313000Y-111384500D01*
X206313000Y-110904500D01*
X206643000Y-111144500D01*
G36*
X206643000Y-111144500D02*
G01*
X206313000Y-111384500D01*
X206313000Y-110904500D01*
X206643000Y-111144500D01*
G37*
%TO.C,R12*%
X187707000Y-129005359D02*
X187707000Y-129312641D01*
X188467000Y-129005359D02*
X188467000Y-129312641D01*
%TO.C,C20*%
X199134000Y-128918580D02*
X199134000Y-128637420D01*
X200154000Y-128918580D02*
X200154000Y-128637420D01*
%TO.C,C15*%
X184892836Y-108479000D02*
X184677164Y-108479000D01*
X184892836Y-109199000D02*
X184677164Y-109199000D01*
%TO.C,C5*%
X187813836Y-96795000D02*
X187598164Y-96795000D01*
X187813836Y-97515000D02*
X187598164Y-97515000D01*
%TO.C,J2*%
X202819000Y-93017000D02*
X202819000Y-90117000D01*
X203419000Y-89517000D02*
X202819000Y-90117000D01*
X203419000Y-89517000D02*
X210999000Y-89517000D01*
X203419000Y-93617000D02*
X202819000Y-93017000D01*
X210439000Y-90297000D02*
X211074000Y-90297000D01*
X210999000Y-89517000D02*
X212979000Y-90917000D01*
X210999000Y-93617000D02*
X203419000Y-93617000D01*
X211074000Y-90297000D02*
X211074000Y-90932000D01*
X212979000Y-90917000D02*
X212979000Y-92217000D01*
X212979000Y-92217000D02*
X210999000Y-93617000D01*
%TO.C,D5*%
X189029000Y-124349000D02*
X189029000Y-126349000D01*
X189029000Y-124349000D02*
X193039000Y-124349000D01*
X189029000Y-126349000D02*
X193039000Y-126349000D01*
%TO.C,C24*%
X209530836Y-132355000D02*
X209315164Y-132355000D01*
X209530836Y-133075000D02*
X209315164Y-133075000D01*
%TO.C,Q1*%
X207518000Y-124932000D02*
X206868000Y-124932000D01*
X207518000Y-124932000D02*
X208168000Y-124932000D01*
X207518000Y-128052000D02*
X206868000Y-128052000D01*
X207518000Y-128052000D02*
X208168000Y-128052000D01*
X206355500Y-124982000D02*
X206115500Y-124652000D01*
X206595500Y-124652000D01*
X206355500Y-124982000D01*
G36*
X206355500Y-124982000D02*
G01*
X206115500Y-124652000D01*
X206595500Y-124652000D01*
X206355500Y-124982000D01*
G37*
%TO.C,C12*%
X202457164Y-110130000D02*
X202672836Y-110130000D01*
X202457164Y-110850000D02*
X202672836Y-110850000D01*
%TO.C,C9*%
X185060000Y-99234164D02*
X185060000Y-99449836D01*
X185780000Y-99234164D02*
X185780000Y-99449836D01*
%TO.C,C8*%
X208934164Y-95652000D02*
X209149836Y-95652000D01*
X208934164Y-96372000D02*
X209149836Y-96372000D01*
%TO.C,D4*%
X195596000Y-128958000D02*
X195596000Y-132968000D01*
X197596000Y-128958000D02*
X195596000Y-128958000D01*
X197596000Y-128958000D02*
X197596000Y-132968000D01*
%TO.C,J5*%
X211101000Y-109367000D02*
X211101000Y-110287000D01*
X211101000Y-110287000D02*
X212701000Y-110287000D01*
X211101000Y-118567000D02*
X211101000Y-119487000D01*
X211101000Y-119487000D02*
X218921000Y-119487000D01*
X212701000Y-109367000D02*
X212701000Y-110287000D01*
X212701000Y-110287000D02*
X212701000Y-110567000D01*
X212701000Y-118287000D02*
X211486000Y-118287000D01*
X212701000Y-118287000D02*
X212701000Y-118567000D01*
X212701000Y-118567000D02*
X211101000Y-118567000D01*
X212701000Y-119487000D02*
X212701000Y-118567000D01*
X214561000Y-111927000D02*
X218921000Y-111927000D01*
X214561000Y-116927000D02*
X214561000Y-111927000D01*
X215061000Y-110127000D02*
X216661000Y-110127000D01*
X215061000Y-111127000D02*
X215061000Y-110127000D01*
X215061000Y-117727000D02*
X215061000Y-118727000D01*
X215061000Y-118727000D02*
X216661000Y-118727000D01*
X216661000Y-110127000D02*
X216661000Y-111127000D01*
X216661000Y-111127000D02*
X215061000Y-111127000D01*
X216661000Y-117727000D02*
X215061000Y-117727000D01*
X216661000Y-117727000D02*
X218921000Y-117727000D01*
X216661000Y-118227000D02*
X218921000Y-118227000D01*
X216661000Y-118727000D02*
X216661000Y-117727000D01*
X218921000Y-109367000D02*
X211101000Y-109367000D01*
X218921000Y-116927000D02*
X214561000Y-116927000D01*
X218921000Y-119487000D02*
X218921000Y-109367000D01*
%TO.C,U6*%
X201295000Y-112659000D02*
X199345000Y-112659000D01*
X201295000Y-112659000D02*
X203245000Y-112659000D01*
X201295000Y-121529000D02*
X199345000Y-121529000D01*
X201295000Y-121529000D02*
X203245000Y-121529000D01*
X198595000Y-112724000D02*
X198355000Y-112394000D01*
X198835000Y-112394000D01*
X198595000Y-112724000D01*
G36*
X198595000Y-112724000D02*
G01*
X198355000Y-112394000D01*
X198835000Y-112394000D01*
X198595000Y-112724000D01*
G37*
%TO.C,D6*%
X211000000Y-131715000D02*
X211000000Y-133715000D01*
X211000000Y-131715000D02*
X215010000Y-131715000D01*
X211000000Y-133715000D02*
X215010000Y-133715000D01*
%TO.C,U4*%
X201005000Y-127254000D02*
X201005000Y-126454000D01*
X201005000Y-127254000D02*
X201005000Y-128054000D01*
X204125000Y-127254000D02*
X204125000Y-126454000D01*
X204125000Y-127254000D02*
X204125000Y-128054000D01*
X201055000Y-128554000D02*
X200725000Y-128794000D01*
X200725000Y-128314000D01*
X201055000Y-128554000D01*
G36*
X201055000Y-128554000D02*
G01*
X200725000Y-128794000D01*
X200725000Y-128314000D01*
X201055000Y-128554000D01*
G37*
%TO.C,C6*%
X200044164Y-97811000D02*
X200259836Y-97811000D01*
X200044164Y-98531000D02*
X200259836Y-98531000D01*
%TO.C,C25*%
X207410164Y-118004000D02*
X207625836Y-118004000D01*
X207410164Y-118724000D02*
X207625836Y-118724000D01*
%TO.C,R28*%
X187552359Y-94362000D02*
X187859641Y-94362000D01*
X187552359Y-95122000D02*
X187859641Y-95122000D01*
%TO.C,R7*%
X184684641Y-104141000D02*
X184377359Y-104141000D01*
X184684641Y-104901000D02*
X184377359Y-104901000D01*
%TO.C,R10*%
X179833000Y-112495359D02*
X179833000Y-112802641D01*
X180593000Y-112495359D02*
X180593000Y-112802641D01*
%TO.C,C13*%
X202457164Y-108352000D02*
X202672836Y-108352000D01*
X202457164Y-109072000D02*
X202672836Y-109072000D01*
%TO.C,C1*%
X185173252Y-110390000D02*
X184650748Y-110390000D01*
X185173252Y-111860000D02*
X184650748Y-111860000D01*
%TO.C,D2*%
X181256000Y-107735000D02*
X181256000Y-110020000D01*
X182726000Y-107735000D02*
X181256000Y-107735000D01*
X182726000Y-110020000D02*
X182726000Y-107735000D01*
%TO.C,D1*%
X205158000Y-97298000D02*
X205158000Y-99298000D01*
X205158000Y-97298000D02*
X209168000Y-97298000D01*
X205158000Y-99298000D02*
X209168000Y-99298000D01*
%TO.C,R20*%
X213587359Y-130430000D02*
X213894641Y-130430000D01*
X213587359Y-131190000D02*
X213894641Y-131190000D01*
%TO.C,R1*%
X202835742Y-98029500D02*
X203310258Y-98029500D01*
X202835742Y-99074500D02*
X203310258Y-99074500D01*
%TO.C,R9*%
X181611000Y-112495359D02*
X181611000Y-112802641D01*
X182371000Y-112495359D02*
X182371000Y-112802641D01*
%TO.C,L1*%
X198604000Y-123749000D02*
X195604000Y-123749000D01*
X198604000Y-126949000D02*
X195604000Y-126949000D01*
%TO.C,U1*%
X206629000Y-100675000D02*
X205829000Y-100675000D01*
X206629000Y-100675000D02*
X207429000Y-100675000D01*
X206629000Y-103795000D02*
X205829000Y-103795000D01*
X206629000Y-103795000D02*
X207429000Y-103795000D01*
X208169000Y-104075000D02*
X207689000Y-104075000D01*
X207929000Y-103745000D01*
X208169000Y-104075000D01*
G36*
X208169000Y-104075000D02*
G01*
X207689000Y-104075000D01*
X207929000Y-103745000D01*
X208169000Y-104075000D01*
G37*
%TO.C,C26*%
X195179836Y-118004000D02*
X194964164Y-118004000D01*
X195179836Y-118724000D02*
X194964164Y-118724000D01*
%TO.C,R27*%
X197257641Y-94997000D02*
X196950359Y-94997000D01*
X197257641Y-95757000D02*
X196950359Y-95757000D01*
%TO.C,U2*%
X188311000Y-99284000D02*
X188311000Y-100234000D01*
X188311000Y-109504000D02*
X188311000Y-108554000D01*
X189261000Y-99284000D02*
X188311000Y-99284000D01*
X189261000Y-109504000D02*
X188311000Y-109504000D01*
X197581000Y-99284000D02*
X198531000Y-99284000D01*
X197581000Y-109504000D02*
X198531000Y-109504000D01*
X198531000Y-99284000D02*
X198531000Y-100234000D01*
X198531000Y-109504000D02*
X198531000Y-108554000D01*
X187696000Y-100234000D02*
X187356000Y-99764000D01*
X188036000Y-99764000D01*
X187696000Y-100234000D01*
G36*
X187696000Y-100234000D02*
G01*
X187356000Y-99764000D01*
X188036000Y-99764000D01*
X187696000Y-100234000D01*
G37*
%TO.C,R11*%
X187707000Y-132434359D02*
X187707000Y-132741641D01*
X188467000Y-132434359D02*
X188467000Y-132741641D01*
%TO.C,J4*%
X211101000Y-121908000D02*
X211101000Y-122828000D01*
X211101000Y-122828000D02*
X212701000Y-122828000D01*
X211101000Y-127108000D02*
X211101000Y-128028000D01*
X211101000Y-128028000D02*
X218921000Y-128028000D01*
X212701000Y-121908000D02*
X212701000Y-122828000D01*
X212701000Y-122828000D02*
X212701000Y-123108000D01*
X212701000Y-126828000D02*
X211486000Y-126828000D01*
X212701000Y-126828000D02*
X212701000Y-127108000D01*
X212701000Y-127108000D02*
X211101000Y-127108000D01*
X212701000Y-128028000D02*
X212701000Y-127108000D01*
X214561000Y-124468000D02*
X218921000Y-124468000D01*
X214561000Y-125468000D02*
X214561000Y-124468000D01*
X215061000Y-122668000D02*
X216661000Y-122668000D01*
X215061000Y-123668000D02*
X215061000Y-122668000D01*
X215061000Y-126268000D02*
X215061000Y-127268000D01*
X215061000Y-127268000D02*
X216661000Y-127268000D01*
X216661000Y-122668000D02*
X216661000Y-123668000D01*
X216661000Y-123668000D02*
X215061000Y-123668000D01*
X216661000Y-126268000D02*
X215061000Y-126268000D01*
X216661000Y-126268000D02*
X218921000Y-126268000D01*
X216661000Y-126768000D02*
X218921000Y-126768000D01*
X216661000Y-127268000D02*
X216661000Y-126268000D01*
X218921000Y-121908000D02*
X211101000Y-121908000D01*
X218921000Y-125468000D02*
X214561000Y-125468000D01*
X218921000Y-128028000D02*
X218921000Y-121908000D01*
%TO.C,R3*%
X206528641Y-95632000D02*
X206221359Y-95632000D01*
X206528641Y-96392000D02*
X206221359Y-96392000D01*
%TO.C,R19*%
X211047359Y-130430000D02*
X211354641Y-130430000D01*
X211047359Y-131190000D02*
X211354641Y-131190000D01*
%TO.C,R18*%
X184049641Y-115952000D02*
X183742359Y-115952000D01*
X184049641Y-116712000D02*
X183742359Y-116712000D01*
%TO.C,C4*%
X207758420Y-105408000D02*
X208039580Y-105408000D01*
X207758420Y-106428000D02*
X208039580Y-106428000D01*
%TO.C,D3*%
X179351000Y-107735000D02*
X179351000Y-110020000D01*
X180821000Y-107735000D02*
X179351000Y-107735000D01*
X180821000Y-110020000D02*
X180821000Y-107735000D01*
%TO.C,R5*%
X202337641Y-102617000D02*
X202030359Y-102617000D01*
X202337641Y-103377000D02*
X202030359Y-103377000D01*
%TO.C,C14*%
X194677420Y-113917000D02*
X194958580Y-113917000D01*
X194677420Y-114937000D02*
X194958580Y-114937000D01*
%TO.C,R16*%
X202804500Y-132317258D02*
X202804500Y-131842742D01*
X203849500Y-132317258D02*
X203849500Y-131842742D01*
%TO.C,C2*%
X200044164Y-98954000D02*
X200259836Y-98954000D01*
X200044164Y-99674000D02*
X200259836Y-99674000D01*
%TO.C,C17*%
X179890748Y-118772000D02*
X180413252Y-118772000D01*
X179890748Y-120242000D02*
X180413252Y-120242000D01*
%TO.C,Y1*%
X180245000Y-99188000D02*
X180245000Y-102488000D01*
X180245000Y-102488000D02*
X184245000Y-102488000D01*
%TO.C,U3*%
X180335000Y-121558000D02*
X180335000Y-122818000D01*
X180335000Y-128378000D02*
X180335000Y-127118000D01*
X184095000Y-121558000D02*
X180335000Y-121558000D01*
X184095000Y-128378000D02*
X180335000Y-128378000D01*
X185615000Y-128608000D02*
X185135000Y-128608000D01*
X185375000Y-128278000D01*
X185615000Y-128608000D01*
G36*
X185615000Y-128608000D02*
G01*
X185135000Y-128608000D01*
X185375000Y-128278000D01*
X185615000Y-128608000D01*
G37*
%TO.C,R4*%
X202337641Y-101220000D02*
X202030359Y-101220000D01*
X202337641Y-101980000D02*
X202030359Y-101980000D01*
%TO.C,C23*%
X184003836Y-114448000D02*
X183788164Y-114448000D01*
X184003836Y-115168000D02*
X183788164Y-115168000D01*
%TO.C,R17*%
X186462641Y-115952000D02*
X186155359Y-115952000D01*
X186462641Y-116712000D02*
X186155359Y-116712000D01*
%TO.C,C27*%
X187813836Y-91715000D02*
X187598164Y-91715000D01*
X187813836Y-92435000D02*
X187598164Y-92435000D01*
%TO.C,R6*%
X184555641Y-102871000D02*
X184248359Y-102871000D01*
X184555641Y-103631000D02*
X184248359Y-103631000D01*
%TO.C,C11*%
X190394000Y-114319164D02*
X190394000Y-114534836D01*
X191114000Y-114319164D02*
X191114000Y-114534836D01*
%TO.C,C18*%
X207256748Y-129567000D02*
X207779252Y-129567000D01*
X207256748Y-131037000D02*
X207779252Y-131037000D01*
%TO.C,R15*%
X200391500Y-132317258D02*
X200391500Y-131842742D01*
X201436500Y-132317258D02*
X201436500Y-131842742D01*
%TO.C,R2*%
X211481641Y-95632000D02*
X211174359Y-95632000D01*
X211481641Y-96392000D02*
X211174359Y-96392000D01*
%TO.C,J1*%
X210680000Y-103335000D02*
X210680000Y-103995000D01*
X210880000Y-97975000D02*
X215240000Y-97975000D01*
X210880000Y-100475000D02*
X210880000Y-97975000D01*
X210880000Y-103995000D02*
X210680000Y-103995000D01*
X210880000Y-106495000D02*
X210880000Y-103995000D01*
X210880000Y-106495000D02*
X215240000Y-106495000D01*
%TO.C,C28*%
X198655000Y-90304252D02*
X198655000Y-89781748D01*
X200125000Y-90304252D02*
X200125000Y-89781748D01*
%TO.C,R21*%
X207249500Y-114189742D02*
X207249500Y-114664258D01*
X208294500Y-114189742D02*
X208294500Y-114664258D01*
%TO.C,C10*%
X180742000Y-104854836D02*
X180742000Y-104639164D01*
X181462000Y-104854836D02*
X181462000Y-104639164D01*
%TO.C,C22*%
X192178000Y-128897748D02*
X192178000Y-129420252D01*
X193648000Y-128897748D02*
X193648000Y-129420252D01*
%TO.C,C16*%
X189511000Y-128897748D02*
X189511000Y-129420252D01*
X190981000Y-128897748D02*
X190981000Y-129420252D01*
%TO.C,C3*%
X187813836Y-95652000D02*
X187598164Y-95652000D01*
X187813836Y-96372000D02*
X187598164Y-96372000D01*
D14*
%TO.C,SW1*%
X210629600Y-98126301D02*
G75*
G02*
X209867600Y-98126301I-381000J0D01*
G01*
X209867600Y-98126301D02*
G75*
G02*
X210629600Y-98126301I381000J0D01*
G01*
%TD*%
M02*
