%TF.GenerationSoftware,KiCad,Pcbnew,8.0.6-8.0.6-0~ubuntu24.04.1*%
%TF.CreationDate,2024-11-24T16:01:10-06:00*%
%TF.ProjectId,can_distance_sensor,63616e5f-6469-4737-9461-6e63655f7365,rev?*%
%TF.SameCoordinates,Original*%
%TF.FileFunction,Copper,L3,Inr*%
%TF.FilePolarity,Positive*%
%FSLAX46Y46*%
G04 Gerber Fmt 4.6, Leading zero omitted, Abs format (unit mm)*
G04 Created by KiCad (PCBNEW 8.0.6-8.0.6-0~ubuntu24.04.1) date 2024-11-24 16:01:10*
%MOMM*%
%LPD*%
G01*
G04 APERTURE LIST*
G04 Aperture macros list*
%AMRoundRect*
0 Rectangle with rounded corners*
0 $1 Rounding radius*
0 $2 $3 $4 $5 $6 $7 $8 $9 X,Y pos of 4 corners*
0 Add a 4 corners polygon primitive as box body*
4,1,4,$2,$3,$4,$5,$6,$7,$8,$9,$2,$3,0*
0 Add four circle primitives for the rounded corners*
1,1,$1+$1,$2,$3*
1,1,$1+$1,$4,$5*
1,1,$1+$1,$6,$7*
1,1,$1+$1,$8,$9*
0 Add four rect primitives between the rounded corners*
20,1,$1+$1,$2,$3,$4,$5,0*
20,1,$1+$1,$4,$5,$6,$7,0*
20,1,$1+$1,$6,$7,$8,$9,0*
20,1,$1+$1,$8,$9,$2,$3,0*%
G04 Aperture macros list end*
%TA.AperFunction,ComponentPad*%
%ADD10RoundRect,0.250000X0.625000X-0.350000X0.625000X0.350000X-0.625000X0.350000X-0.625000X-0.350000X0*%
%TD*%
%TA.AperFunction,ComponentPad*%
%ADD11O,1.750000X1.200000*%
%TD*%
%TA.AperFunction,ComponentPad*%
%ADD12O,1.600000X0.900000*%
%TD*%
%TA.AperFunction,ViaPad*%
%ADD13C,0.600000*%
%TD*%
G04 APERTURE END LIST*
D10*
%TO.N,Net-(J5-Pin_1)*%
%TO.C,J5*%
X212561000Y-117427000D03*
D11*
%TO.N,Net-(J5-Pin_2)*%
X212561000Y-115427000D03*
%TO.N,Net-(J5-Pin_1)*%
X212561000Y-113427000D03*
%TO.N,Net-(J5-Pin_2)*%
X212561000Y-111427000D03*
%TD*%
D10*
%TO.N,GND*%
%TO.C,J4*%
X212561000Y-125968000D03*
D11*
%TO.N,/Power/VIN*%
X212561000Y-123968000D03*
%TD*%
D12*
%TO.N,GND*%
%TO.C,J1*%
X214290000Y-105535000D03*
X214290000Y-98935000D03*
%TD*%
D13*
%TO.N,3V3*%
X187071000Y-124079000D03*
%TO.N,BOOT*%
X201295000Y-105918000D03*
X205359000Y-105918000D03*
%TO.N,Net-(D1-A)*%
X210185000Y-99187000D03*
X209613500Y-104330500D03*
%TO.N,GND*%
X211836000Y-107569000D03*
X210240500Y-100076000D03*
%TO.N,3V3*%
X186182000Y-120523000D03*
%TO.N,GND*%
X186182000Y-92075000D03*
%TO.N,3V3*%
X186055000Y-94742000D03*
X186055000Y-93345000D03*
X186690000Y-99441000D03*
%TO.N,GND*%
X185420000Y-98044000D03*
%TO.N,TOF_SCL*%
X194691000Y-95469000D03*
%TO.N,TOF_SDA*%
X190373000Y-95902765D03*
%TO.N,GND*%
X201676000Y-93218000D03*
X214503000Y-129794000D03*
X215519000Y-130937000D03*
%TO.N,VIN_MEAS*%
X187706000Y-111633000D03*
X210566000Y-133604000D03*
%TO.N,GND*%
X182626000Y-114935000D03*
X182372000Y-116205000D03*
X182499000Y-119126000D03*
%TO.N,3V3*%
X179070000Y-117348000D03*
X178943000Y-129413000D03*
%TO.N,GND*%
X186817000Y-133223000D03*
%TO.N,Net-(D5-A)*%
X198501000Y-131826000D03*
X194564000Y-125349000D03*
%TO.N,GND*%
X190246000Y-131826000D03*
X202447669Y-129738500D03*
X207518000Y-132842000D03*
X204724000Y-131445000D03*
X196596000Y-134366000D03*
X193167000Y-131826000D03*
X206375000Y-123571000D03*
X210185000Y-128905000D03*
X209169000Y-118364000D03*
%TO.N,Net-(J5-Pin_2)*%
X206248000Y-115189000D03*
X206248000Y-112522000D03*
%TO.N,GND*%
X208153000Y-107442000D03*
X202692000Y-107442000D03*
X206248000Y-107188000D03*
%TO.N,CAN_EN*%
X196850000Y-119761000D03*
X192659000Y-114427000D03*
%TO.N,CAN_STB*%
X203073000Y-111760000D03*
X193675000Y-111760000D03*
%TO.N,CAN_FAULT*%
X205867000Y-121031000D03*
X194522446Y-112323500D03*
%TO.N,CAN_WAKE*%
X195328459Y-112323500D03*
X205867000Y-119761000D03*
%TO.N,GND*%
X196596000Y-108331000D03*
%TO.N,3V3*%
X200914000Y-110490000D03*
X199263000Y-110490000D03*
%TO.N,VCC*%
X190500000Y-120523000D03*
X205867000Y-118364000D03*
X204089000Y-102235000D03*
X203708000Y-96393000D03*
%TO.N,Net-(R2-Pad2)*%
X208123600Y-98176301D03*
%TO.N,3V3*%
X212979000Y-96012000D03*
%TO.N,GND*%
X210058000Y-95123000D03*
%TO.N,BOOT*%
X207772000Y-95377000D03*
%TO.N,ID*%
X201930000Y-104648000D03*
X202438000Y-99822000D03*
%TO.N,3V3*%
X199517000Y-95377000D03*
X199644000Y-96393000D03*
%TO.N,GND*%
X200787000Y-96520000D03*
X204851000Y-96258000D03*
X206756000Y-104521000D03*
%TO.N,3V3*%
X196469000Y-118364000D03*
%TO.N,GND*%
X193421000Y-118364000D03*
X194926270Y-115070000D03*
X190627000Y-116078000D03*
X189230000Y-115951000D03*
%TO.N,3V3*%
X189484000Y-113030000D03*
X190754000Y-113157000D03*
X190627000Y-111887000D03*
%TO.N,GND*%
X190246000Y-108331000D03*
%TO.N,3V3*%
X185265000Y-107442000D03*
%TO.N,GND*%
X185039000Y-106426000D03*
X181102000Y-106299000D03*
%TO.N,3V3*%
X182880000Y-104521000D03*
%TO.N,GND*%
X184404000Y-107696000D03*
%TO.N,3V3*%
X185907065Y-112541577D03*
%TO.N,GND*%
X183261000Y-112649000D03*
%TO.N,3V3*%
X181864000Y-114173000D03*
X179959000Y-114173000D03*
%TO.N,NRST*%
X194945000Y-100584000D03*
X211074000Y-93345000D03*
%TO.N,SWDIO*%
X209169000Y-89408000D03*
X197695735Y-99778735D03*
%TO.N,3V3*%
X210312000Y-88557000D03*
%TO.N,GND*%
X209169000Y-94142000D03*
X207899000Y-88557000D03*
X205359000Y-88557000D03*
%TO.N,SWCLK*%
X206248000Y-89281000D03*
X197485000Y-97282000D03*
%TO.N,GND*%
X196977000Y-114427000D03*
%TO.N,CAN_TX*%
X192278000Y-101727000D03*
X196850000Y-113284000D03*
%TO.N,CAN_RX*%
X191389000Y-100965000D03*
X192095500Y-117234628D03*
%TO.N,GND*%
X190071000Y-100460344D03*
%TO.N,BOOT*%
X193675000Y-100457000D03*
%TO.N,TOF_RST*%
X193421000Y-96139000D03*
%TO.N,TOF_INT*%
X196088000Y-96393000D03*
%TO.N,TOF_LP*%
X194310000Y-89408000D03*
X196830784Y-96690114D03*
%TO.N,GND*%
X186055000Y-96012000D03*
%TO.N,3V3*%
X189103000Y-97155000D03*
%TO.N,GND*%
X190042338Y-88556999D03*
%TO.N,3V3*%
X197769500Y-92613500D03*
X194310000Y-88557000D03*
X197231000Y-89154000D03*
%TO.N,GND*%
X195734916Y-90183794D03*
%TO.N,TOF_INT*%
X192670999Y-90551000D03*
%TO.N,TOF_RST*%
X190514328Y-90332000D03*
%TO.N,3V3*%
X193613138Y-90897000D03*
X189484000Y-93218000D03*
%TO.N,GND*%
X190810161Y-94693264D03*
X194691000Y-94668997D03*
X195536735Y-94869000D03*
%TD*%
%TA.AperFunction,Conductor*%
%TO.N,3V3*%
G36*
X189198801Y-88277185D02*
G01*
X189244556Y-88329989D01*
X189254982Y-88395383D01*
X189236773Y-88556995D01*
X189236773Y-88557002D01*
X189256968Y-88736248D01*
X189256969Y-88736253D01*
X189316549Y-88906522D01*
X189385617Y-89016442D01*
X189412522Y-89059261D01*
X189540076Y-89186815D01*
X189540078Y-89186816D01*
X189689965Y-89280997D01*
X189692816Y-89282788D01*
X189831673Y-89331376D01*
X189863083Y-89342367D01*
X189863088Y-89342368D01*
X190042334Y-89362564D01*
X190042338Y-89362564D01*
X190042341Y-89362564D01*
X190156351Y-89349718D01*
X190225173Y-89361772D01*
X190266536Y-89399890D01*
X190284215Y-89345860D01*
X190338395Y-89301742D01*
X190345477Y-89299018D01*
X190352250Y-89296648D01*
X190391860Y-89282788D01*
X190544600Y-89186815D01*
X190672154Y-89059261D01*
X190768127Y-88906521D01*
X190827706Y-88736254D01*
X190840508Y-88622631D01*
X190847903Y-88557002D01*
X190847903Y-88556995D01*
X190829694Y-88395383D01*
X190841749Y-88326561D01*
X190889098Y-88275182D01*
X190952914Y-88257500D01*
X204448424Y-88257500D01*
X204515463Y-88277185D01*
X204561218Y-88329989D01*
X204571644Y-88395383D01*
X204553435Y-88556996D01*
X204553435Y-88557003D01*
X204573630Y-88736249D01*
X204573631Y-88736254D01*
X204633211Y-88906523D01*
X204676580Y-88975544D01*
X204729184Y-89059262D01*
X204856738Y-89186816D01*
X204860529Y-89189198D01*
X205009474Y-89282787D01*
X205009478Y-89282789D01*
X205148332Y-89331376D01*
X205179745Y-89342368D01*
X205179750Y-89342369D01*
X205334277Y-89359779D01*
X205355051Y-89362120D01*
X205419465Y-89389186D01*
X205459020Y-89446781D01*
X205462056Y-89457735D01*
X205462629Y-89460245D01*
X205462631Y-89460252D01*
X205462632Y-89460255D01*
X205485789Y-89526435D01*
X205522210Y-89630521D01*
X205567239Y-89702184D01*
X205618184Y-89783262D01*
X205745738Y-89910816D01*
X205898478Y-90006789D01*
X206063724Y-90064611D01*
X206068745Y-90066368D01*
X206068750Y-90066369D01*
X206247996Y-90086565D01*
X206248000Y-90086565D01*
X206248004Y-90086565D01*
X206427249Y-90066369D01*
X206427252Y-90066368D01*
X206427255Y-90066368D01*
X206597522Y-90006789D01*
X206750262Y-89910816D01*
X206877816Y-89783262D01*
X206973789Y-89630522D01*
X207033368Y-89460255D01*
X207038476Y-89414919D01*
X207053565Y-89281003D01*
X207053565Y-89280997D01*
X207036838Y-89132542D01*
X207048892Y-89063720D01*
X207096241Y-89012340D01*
X207163852Y-88994716D01*
X207230258Y-89016442D01*
X207265050Y-89052683D01*
X207269184Y-89059262D01*
X207396738Y-89186816D01*
X207400529Y-89189198D01*
X207549474Y-89282787D01*
X207549478Y-89282789D01*
X207688332Y-89331376D01*
X207719745Y-89342368D01*
X207719750Y-89342369D01*
X207898996Y-89362565D01*
X207899000Y-89362565D01*
X207899004Y-89362565D01*
X208078249Y-89342369D01*
X208078251Y-89342368D01*
X208078255Y-89342368D01*
X208078258Y-89342366D01*
X208078262Y-89342366D01*
X208198737Y-89300210D01*
X208268516Y-89296648D01*
X208329143Y-89331376D01*
X208361371Y-89393370D01*
X208362912Y-89403367D01*
X208383630Y-89587250D01*
X208383631Y-89587254D01*
X208443211Y-89757523D01*
X208488587Y-89829738D01*
X208539184Y-89910262D01*
X208666738Y-90037816D01*
X208709382Y-90064611D01*
X208777564Y-90107453D01*
X208819478Y-90133789D01*
X208942611Y-90176875D01*
X208989745Y-90193368D01*
X208989750Y-90193369D01*
X209168996Y-90213565D01*
X209169000Y-90213565D01*
X209169004Y-90213565D01*
X209348249Y-90193369D01*
X209348252Y-90193368D01*
X209348255Y-90193368D01*
X209518522Y-90133789D01*
X209671262Y-90037816D01*
X209798816Y-89910262D01*
X209894789Y-89757522D01*
X209954368Y-89587255D01*
X209954369Y-89587249D01*
X209974565Y-89408003D01*
X209974565Y-89407996D01*
X209954369Y-89228750D01*
X209954368Y-89228745D01*
X209920705Y-89132542D01*
X209894789Y-89058478D01*
X209891148Y-89052684D01*
X209842677Y-88975543D01*
X209798816Y-88905738D01*
X209671262Y-88778184D01*
X209518523Y-88682211D01*
X209348254Y-88622631D01*
X209348249Y-88622630D01*
X209169004Y-88602435D01*
X209168996Y-88602435D01*
X208989750Y-88622630D01*
X208989742Y-88622632D01*
X208869261Y-88664790D01*
X208799482Y-88668351D01*
X208738855Y-88633622D01*
X208706628Y-88571628D01*
X208705087Y-88561631D01*
X208686356Y-88395383D01*
X208698411Y-88326561D01*
X208745760Y-88275182D01*
X208809576Y-88257500D01*
X215910500Y-88257500D01*
X215977539Y-88277185D01*
X216023294Y-88329989D01*
X216034500Y-88381500D01*
X216034500Y-130094526D01*
X216014815Y-130161565D01*
X215962011Y-130207320D01*
X215892853Y-130217264D01*
X215869546Y-130211568D01*
X215698257Y-130151632D01*
X215698249Y-130151630D01*
X215519004Y-130131435D01*
X215518996Y-130131435D01*
X215417384Y-130142883D01*
X215348562Y-130130828D01*
X215297183Y-130083479D01*
X215279559Y-130015868D01*
X215286461Y-129978704D01*
X215288368Y-129973255D01*
X215288369Y-129973249D01*
X215308565Y-129794003D01*
X215308565Y-129793996D01*
X215288369Y-129614750D01*
X215288368Y-129614745D01*
X215268948Y-129559245D01*
X215228789Y-129444478D01*
X215132816Y-129291738D01*
X215005262Y-129164184D01*
X214852523Y-129068211D01*
X214682254Y-129008631D01*
X214682249Y-129008630D01*
X214503004Y-128988435D01*
X214502996Y-128988435D01*
X214323750Y-129008630D01*
X214323745Y-129008631D01*
X214153476Y-129068211D01*
X214000737Y-129164184D01*
X213873184Y-129291737D01*
X213777211Y-129444476D01*
X213717631Y-129614745D01*
X213717630Y-129614750D01*
X213697435Y-129793996D01*
X213697435Y-129794003D01*
X213717630Y-129973249D01*
X213717631Y-129973254D01*
X213777211Y-130143523D01*
X213788548Y-130161565D01*
X213873184Y-130296262D01*
X214000738Y-130423816D01*
X214153478Y-130519789D01*
X214222855Y-130544065D01*
X214323745Y-130579368D01*
X214323750Y-130579369D01*
X214502996Y-130599565D01*
X214503000Y-130599565D01*
X214503003Y-130599565D01*
X214604614Y-130588116D01*
X214673436Y-130600170D01*
X214724816Y-130647519D01*
X214742440Y-130715130D01*
X214735541Y-130752287D01*
X214733633Y-130757740D01*
X214733630Y-130757750D01*
X214713435Y-130936996D01*
X214713435Y-130937003D01*
X214733630Y-131116249D01*
X214733631Y-131116254D01*
X214793211Y-131286523D01*
X214816595Y-131323738D01*
X214889184Y-131439262D01*
X215016738Y-131566816D01*
X215169478Y-131662789D01*
X215257528Y-131693599D01*
X215339745Y-131722368D01*
X215339750Y-131722369D01*
X215518996Y-131742565D01*
X215519000Y-131742565D01*
X215519004Y-131742565D01*
X215698249Y-131722369D01*
X215698252Y-131722368D01*
X215698255Y-131722368D01*
X215868522Y-131662789D01*
X215868522Y-131662788D01*
X215869545Y-131662431D01*
X215939324Y-131658870D01*
X215999952Y-131693599D01*
X216032179Y-131755592D01*
X216034500Y-131779473D01*
X216034500Y-134757500D01*
X216014815Y-134824539D01*
X215962011Y-134870294D01*
X215910500Y-134881500D01*
X197438473Y-134881500D01*
X197371434Y-134861815D01*
X197325679Y-134809011D01*
X197315735Y-134739853D01*
X197321431Y-134716545D01*
X197381368Y-134545254D01*
X197381369Y-134545249D01*
X197401565Y-134366003D01*
X197401565Y-134365996D01*
X197381369Y-134186750D01*
X197381368Y-134186745D01*
X197321788Y-134016476D01*
X197279257Y-133948789D01*
X197225816Y-133863738D01*
X197098262Y-133736184D01*
X197087588Y-133729477D01*
X196945523Y-133640211D01*
X196775254Y-133580631D01*
X196775249Y-133580630D01*
X196596004Y-133560435D01*
X196595996Y-133560435D01*
X196416750Y-133580630D01*
X196416745Y-133580631D01*
X196246476Y-133640211D01*
X196093737Y-133736184D01*
X195966184Y-133863737D01*
X195870211Y-134016476D01*
X195810631Y-134186745D01*
X195810630Y-134186750D01*
X195790435Y-134365996D01*
X195790435Y-134366003D01*
X195810630Y-134545249D01*
X195810631Y-134545254D01*
X195870569Y-134716545D01*
X195874130Y-134786324D01*
X195839401Y-134846952D01*
X195777408Y-134879179D01*
X195753527Y-134881500D01*
X177789500Y-134881500D01*
X177722461Y-134861815D01*
X177676706Y-134809011D01*
X177665500Y-134757500D01*
X177665500Y-132358648D01*
X179039500Y-132358648D01*
X179039500Y-132563351D01*
X179071522Y-132765534D01*
X179134781Y-132960223D01*
X179227715Y-133142613D01*
X179348028Y-133308213D01*
X179492786Y-133452971D01*
X179640701Y-133560435D01*
X179658390Y-133573287D01*
X179764530Y-133627368D01*
X179840776Y-133666218D01*
X179840778Y-133666218D01*
X179840781Y-133666220D01*
X179945137Y-133700127D01*
X180035465Y-133729477D01*
X180136557Y-133745488D01*
X180237648Y-133761500D01*
X180237649Y-133761500D01*
X180442351Y-133761500D01*
X180442352Y-133761500D01*
X180644534Y-133729477D01*
X180839219Y-133666220D01*
X181021610Y-133573287D01*
X181114590Y-133505732D01*
X181187213Y-133452971D01*
X181187215Y-133452968D01*
X181187219Y-133452966D01*
X181331966Y-133308219D01*
X181331968Y-133308215D01*
X181331971Y-133308213D01*
X181384732Y-133235590D01*
X181393882Y-133222996D01*
X186011435Y-133222996D01*
X186011435Y-133223003D01*
X186031630Y-133402249D01*
X186031631Y-133402254D01*
X186091211Y-133572523D01*
X186150084Y-133666218D01*
X186187184Y-133725262D01*
X186314738Y-133852816D01*
X186467478Y-133948789D01*
X186637745Y-134008368D01*
X186637750Y-134008369D01*
X186816996Y-134028565D01*
X186817000Y-134028565D01*
X186817004Y-134028565D01*
X186996249Y-134008369D01*
X186996252Y-134008368D01*
X186996255Y-134008368D01*
X187166522Y-133948789D01*
X187319262Y-133852816D01*
X187446816Y-133725262D01*
X187542789Y-133572522D01*
X187602368Y-133402255D01*
X187602369Y-133402249D01*
X187622565Y-133223003D01*
X187622565Y-133222996D01*
X187602369Y-133043750D01*
X187602368Y-133043745D01*
X187594496Y-133021249D01*
X187542789Y-132873478D01*
X187523008Y-132841996D01*
X206712435Y-132841996D01*
X206712435Y-132842003D01*
X206732630Y-133021249D01*
X206732631Y-133021254D01*
X206792211Y-133191523D01*
X206831769Y-133254478D01*
X206888184Y-133344262D01*
X207015738Y-133471816D01*
X207168478Y-133567789D01*
X207271952Y-133603996D01*
X207338745Y-133627368D01*
X207338750Y-133627369D01*
X207517996Y-133647565D01*
X207518000Y-133647565D01*
X207518004Y-133647565D01*
X207697249Y-133627369D01*
X207697252Y-133627368D01*
X207697255Y-133627368D01*
X207764048Y-133603996D01*
X209760435Y-133603996D01*
X209760435Y-133604003D01*
X209780630Y-133783249D01*
X209780631Y-133783254D01*
X209840211Y-133953523D01*
X209889204Y-134031494D01*
X209936184Y-134106262D01*
X210063738Y-134233816D01*
X210216478Y-134329789D01*
X210319952Y-134365996D01*
X210386745Y-134389368D01*
X210386750Y-134389369D01*
X210565996Y-134409565D01*
X210566000Y-134409565D01*
X210566004Y-134409565D01*
X210745249Y-134389369D01*
X210745252Y-134389368D01*
X210745255Y-134389368D01*
X210915522Y-134329789D01*
X211068262Y-134233816D01*
X211195816Y-134106262D01*
X211291789Y-133953522D01*
X211351368Y-133783255D01*
X211351369Y-133783249D01*
X211371565Y-133604003D01*
X211371565Y-133603996D01*
X211351369Y-133424750D01*
X211351368Y-133424745D01*
X211310594Y-133308219D01*
X211291789Y-133254478D01*
X211195816Y-133101738D01*
X211068262Y-132974184D01*
X211046037Y-132960219D01*
X210915523Y-132878211D01*
X210745254Y-132818631D01*
X210745249Y-132818630D01*
X210566004Y-132798435D01*
X210565996Y-132798435D01*
X210386750Y-132818630D01*
X210386745Y-132818631D01*
X210216476Y-132878211D01*
X210063737Y-132974184D01*
X209936184Y-133101737D01*
X209840211Y-133254476D01*
X209780631Y-133424745D01*
X209780630Y-133424750D01*
X209760435Y-133603996D01*
X207764048Y-133603996D01*
X207867522Y-133567789D01*
X208020262Y-133471816D01*
X208147816Y-133344262D01*
X208243789Y-133191522D01*
X208303368Y-133021255D01*
X208319485Y-132878211D01*
X208323565Y-132842003D01*
X208323565Y-132841996D01*
X208303369Y-132662750D01*
X208303368Y-132662745D01*
X208285390Y-132611368D01*
X208243789Y-132492478D01*
X208147816Y-132339738D01*
X208020262Y-132212184D01*
X207867523Y-132116211D01*
X207697254Y-132056631D01*
X207697249Y-132056630D01*
X207518004Y-132036435D01*
X207517996Y-132036435D01*
X207338750Y-132056630D01*
X207338745Y-132056631D01*
X207168476Y-132116211D01*
X207015737Y-132212184D01*
X206888184Y-132339737D01*
X206792211Y-132492476D01*
X206732631Y-132662745D01*
X206732630Y-132662750D01*
X206712435Y-132841996D01*
X187523008Y-132841996D01*
X187446816Y-132720738D01*
X187319262Y-132593184D01*
X187271783Y-132563351D01*
X187166523Y-132497211D01*
X186996254Y-132437631D01*
X186996249Y-132437630D01*
X186817004Y-132417435D01*
X186816996Y-132417435D01*
X186637750Y-132437630D01*
X186637745Y-132437631D01*
X186467476Y-132497211D01*
X186314737Y-132593184D01*
X186187184Y-132720737D01*
X186091211Y-132873476D01*
X186031631Y-133043745D01*
X186031630Y-133043750D01*
X186011435Y-133222996D01*
X181393882Y-133222996D01*
X181452287Y-133142610D01*
X181545220Y-132960219D01*
X181608477Y-132765534D01*
X181640500Y-132563352D01*
X181640500Y-132358648D01*
X181617302Y-132212184D01*
X181608477Y-132156465D01*
X181576038Y-132056630D01*
X181545220Y-131961781D01*
X181545218Y-131961778D01*
X181545218Y-131961776D01*
X181511503Y-131895607D01*
X181476034Y-131825996D01*
X189440435Y-131825996D01*
X189440435Y-131826003D01*
X189460630Y-132005249D01*
X189460631Y-132005254D01*
X189520211Y-132175523D01*
X189616184Y-132328262D01*
X189743738Y-132455816D01*
X189896478Y-132551789D01*
X190014778Y-132593184D01*
X190066745Y-132611368D01*
X190066750Y-132611369D01*
X190245996Y-132631565D01*
X190246000Y-132631565D01*
X190246004Y-132631565D01*
X190425249Y-132611369D01*
X190425252Y-132611368D01*
X190425255Y-132611368D01*
X190595522Y-132551789D01*
X190748262Y-132455816D01*
X190875816Y-132328262D01*
X190971789Y-132175522D01*
X191031368Y-132005255D01*
X191031369Y-132005249D01*
X191051565Y-131826003D01*
X191051565Y-131825996D01*
X192361435Y-131825996D01*
X192361435Y-131826003D01*
X192381630Y-132005249D01*
X192381631Y-132005254D01*
X192441211Y-132175523D01*
X192537184Y-132328262D01*
X192664738Y-132455816D01*
X192817478Y-132551789D01*
X192935778Y-132593184D01*
X192987745Y-132611368D01*
X192987750Y-132611369D01*
X193166996Y-132631565D01*
X193167000Y-132631565D01*
X193167004Y-132631565D01*
X193346249Y-132611369D01*
X193346252Y-132611368D01*
X193346255Y-132611368D01*
X193516522Y-132551789D01*
X193669262Y-132455816D01*
X193796816Y-132328262D01*
X193892789Y-132175522D01*
X193952368Y-132005255D01*
X193952369Y-132005249D01*
X193972565Y-131826003D01*
X193972565Y-131825996D01*
X197695435Y-131825996D01*
X197695435Y-131826003D01*
X197715630Y-132005249D01*
X197715631Y-132005254D01*
X197775211Y-132175523D01*
X197871184Y-132328262D01*
X197998738Y-132455816D01*
X198151478Y-132551789D01*
X198269778Y-132593184D01*
X198321745Y-132611368D01*
X198321750Y-132611369D01*
X198500996Y-132631565D01*
X198501000Y-132631565D01*
X198501004Y-132631565D01*
X198680249Y-132611369D01*
X198680252Y-132611368D01*
X198680255Y-132611368D01*
X198850522Y-132551789D01*
X199003262Y-132455816D01*
X199130816Y-132328262D01*
X199226789Y-132175522D01*
X199286368Y-132005255D01*
X199286369Y-132005249D01*
X199306565Y-131826003D01*
X199306565Y-131825996D01*
X199286369Y-131646750D01*
X199286368Y-131646745D01*
X199274833Y-131613781D01*
X199226789Y-131476478D01*
X199207008Y-131444996D01*
X203918435Y-131444996D01*
X203918435Y-131445003D01*
X203938630Y-131624249D01*
X203938631Y-131624254D01*
X203998211Y-131794523D01*
X204094184Y-131947262D01*
X204221738Y-132074816D01*
X204287618Y-132116211D01*
X204351681Y-132156465D01*
X204374478Y-132170789D01*
X204492778Y-132212184D01*
X204544745Y-132230368D01*
X204544750Y-132230369D01*
X204723996Y-132250565D01*
X204724000Y-132250565D01*
X204724004Y-132250565D01*
X204903249Y-132230369D01*
X204903252Y-132230368D01*
X204903255Y-132230368D01*
X205073522Y-132170789D01*
X205226262Y-132074816D01*
X205353816Y-131947262D01*
X205449789Y-131794522D01*
X205509368Y-131624255D01*
X205515840Y-131566815D01*
X205529565Y-131445003D01*
X205529565Y-131444996D01*
X205509369Y-131265750D01*
X205509368Y-131265745D01*
X205505881Y-131255780D01*
X205449789Y-131095478D01*
X205353816Y-130942738D01*
X205226262Y-130815184D01*
X205073523Y-130719211D01*
X204903254Y-130659631D01*
X204903249Y-130659630D01*
X204724004Y-130639435D01*
X204723996Y-130639435D01*
X204544750Y-130659630D01*
X204544745Y-130659631D01*
X204374476Y-130719211D01*
X204221737Y-130815184D01*
X204094184Y-130942737D01*
X203998211Y-131095476D01*
X203938631Y-131265745D01*
X203938630Y-131265750D01*
X203918435Y-131444996D01*
X199207008Y-131444996D01*
X199130816Y-131323738D01*
X199003262Y-131196184D01*
X198997434Y-131192522D01*
X198850523Y-131100211D01*
X198680254Y-131040631D01*
X198680249Y-131040630D01*
X198501004Y-131020435D01*
X198500996Y-131020435D01*
X198321750Y-131040630D01*
X198321745Y-131040631D01*
X198151476Y-131100211D01*
X197998737Y-131196184D01*
X197871184Y-131323737D01*
X197775211Y-131476476D01*
X197715631Y-131646745D01*
X197715630Y-131646750D01*
X197695435Y-131825996D01*
X193972565Y-131825996D01*
X193952369Y-131646750D01*
X193952368Y-131646745D01*
X193940833Y-131613781D01*
X193892789Y-131476478D01*
X193796816Y-131323738D01*
X193669262Y-131196184D01*
X193663434Y-131192522D01*
X193516523Y-131100211D01*
X193346254Y-131040631D01*
X193346249Y-131040630D01*
X193167004Y-131020435D01*
X193166996Y-131020435D01*
X192987750Y-131040630D01*
X192987745Y-131040631D01*
X192817476Y-131100211D01*
X192664737Y-131196184D01*
X192537184Y-131323737D01*
X192441211Y-131476476D01*
X192381631Y-131646745D01*
X192381630Y-131646750D01*
X192361435Y-131825996D01*
X191051565Y-131825996D01*
X191031369Y-131646750D01*
X191031368Y-131646745D01*
X191019833Y-131613781D01*
X190971789Y-131476478D01*
X190875816Y-131323738D01*
X190748262Y-131196184D01*
X190742434Y-131192522D01*
X190595523Y-131100211D01*
X190425254Y-131040631D01*
X190425249Y-131040630D01*
X190246004Y-131020435D01*
X190245996Y-131020435D01*
X190066750Y-131040630D01*
X190066745Y-131040631D01*
X189896476Y-131100211D01*
X189743737Y-131196184D01*
X189616184Y-131323737D01*
X189520211Y-131476476D01*
X189460631Y-131646745D01*
X189460630Y-131646750D01*
X189440435Y-131825996D01*
X181476034Y-131825996D01*
X181452287Y-131779390D01*
X181434997Y-131755592D01*
X181331971Y-131613786D01*
X181187213Y-131469028D01*
X181021613Y-131348715D01*
X181021612Y-131348714D01*
X181021610Y-131348713D01*
X180964653Y-131319691D01*
X180839223Y-131255781D01*
X180644534Y-131192522D01*
X180469995Y-131164878D01*
X180442352Y-131160500D01*
X180237648Y-131160500D01*
X180213329Y-131164351D01*
X180035465Y-131192522D01*
X179840776Y-131255781D01*
X179658386Y-131348715D01*
X179492786Y-131469028D01*
X179348028Y-131613786D01*
X179227715Y-131779386D01*
X179134781Y-131961776D01*
X179071522Y-132156465D01*
X179039500Y-132358648D01*
X177665500Y-132358648D01*
X177665500Y-129738496D01*
X201642104Y-129738496D01*
X201642104Y-129738503D01*
X201662299Y-129917749D01*
X201662300Y-129917754D01*
X201721880Y-130088023D01*
X201768090Y-130161565D01*
X201817853Y-130240762D01*
X201945407Y-130368316D01*
X202098147Y-130464289D01*
X202256754Y-130519788D01*
X202268414Y-130523868D01*
X202268419Y-130523869D01*
X202447665Y-130544065D01*
X202447669Y-130544065D01*
X202447673Y-130544065D01*
X202626918Y-130523869D01*
X202626921Y-130523868D01*
X202626924Y-130523868D01*
X202797191Y-130464289D01*
X202949931Y-130368316D01*
X203077485Y-130240762D01*
X203173458Y-130088022D01*
X203233037Y-129917755D01*
X203233038Y-129917749D01*
X203253234Y-129738503D01*
X203253234Y-129738496D01*
X203233038Y-129559250D01*
X203233037Y-129559245D01*
X203192878Y-129444478D01*
X203173458Y-129388978D01*
X203077485Y-129236238D01*
X202949931Y-129108684D01*
X202885519Y-129068211D01*
X202797192Y-129012711D01*
X202626923Y-128953131D01*
X202626918Y-128953130D01*
X202447673Y-128932935D01*
X202447665Y-128932935D01*
X202268419Y-128953130D01*
X202268414Y-128953131D01*
X202098145Y-129012711D01*
X201945406Y-129108684D01*
X201817853Y-129236237D01*
X201721880Y-129388976D01*
X201662300Y-129559245D01*
X201662299Y-129559250D01*
X201642104Y-129738496D01*
X177665500Y-129738496D01*
X177665500Y-128904996D01*
X209379435Y-128904996D01*
X209379435Y-128905003D01*
X209399630Y-129084249D01*
X209399631Y-129084254D01*
X209459211Y-129254523D01*
X209482595Y-129291738D01*
X209555184Y-129407262D01*
X209682738Y-129534816D01*
X209835478Y-129630789D01*
X210005745Y-129690368D01*
X210005750Y-129690369D01*
X210184996Y-129710565D01*
X210185000Y-129710565D01*
X210185004Y-129710565D01*
X210364249Y-129690369D01*
X210364252Y-129690368D01*
X210364255Y-129690368D01*
X210534522Y-129630789D01*
X210687262Y-129534816D01*
X210814816Y-129407262D01*
X210910789Y-129254522D01*
X210970368Y-129084255D01*
X210978889Y-129008630D01*
X210990565Y-128905003D01*
X210990565Y-128904996D01*
X210970369Y-128725750D01*
X210970368Y-128725745D01*
X210910788Y-128555476D01*
X210814815Y-128402737D01*
X210687262Y-128275184D01*
X210534523Y-128179211D01*
X210364254Y-128119631D01*
X210364249Y-128119630D01*
X210185004Y-128099435D01*
X210184996Y-128099435D01*
X210005750Y-128119630D01*
X210005745Y-128119631D01*
X209835476Y-128179211D01*
X209682737Y-128275184D01*
X209555184Y-128402737D01*
X209459211Y-128555476D01*
X209399631Y-128725745D01*
X209399630Y-128725750D01*
X209379435Y-128904996D01*
X177665500Y-128904996D01*
X177665500Y-125348996D01*
X193758435Y-125348996D01*
X193758435Y-125349003D01*
X193778630Y-125528249D01*
X193778631Y-125528254D01*
X193838211Y-125698523D01*
X193934184Y-125851262D01*
X194061738Y-125978816D01*
X194214478Y-126074789D01*
X194384745Y-126134368D01*
X194384750Y-126134369D01*
X194563996Y-126154565D01*
X194564000Y-126154565D01*
X194564004Y-126154565D01*
X194743249Y-126134369D01*
X194743252Y-126134368D01*
X194743255Y-126134368D01*
X194913522Y-126074789D01*
X195066262Y-125978816D01*
X195193816Y-125851262D01*
X195289789Y-125698522D01*
X195349368Y-125528255D01*
X195356472Y-125465204D01*
X195369565Y-125349003D01*
X195369565Y-125348996D01*
X195349369Y-125169750D01*
X195349368Y-125169745D01*
X195289788Y-124999476D01*
X195230186Y-124904621D01*
X195193816Y-124846738D01*
X195066262Y-124719184D01*
X195011741Y-124684926D01*
X194913523Y-124623211D01*
X194743254Y-124563631D01*
X194743249Y-124563630D01*
X194564004Y-124543435D01*
X194563996Y-124543435D01*
X194384750Y-124563630D01*
X194384745Y-124563631D01*
X194214476Y-124623211D01*
X194061737Y-124719184D01*
X193934184Y-124846737D01*
X193838211Y-124999476D01*
X193778631Y-125169745D01*
X193778630Y-125169750D01*
X193758435Y-125348996D01*
X177665500Y-125348996D01*
X177665500Y-123570996D01*
X205569435Y-123570996D01*
X205569435Y-123571003D01*
X205589630Y-123750249D01*
X205589631Y-123750254D01*
X205649211Y-123920523D01*
X205733464Y-124054610D01*
X205745184Y-124073262D01*
X205872738Y-124200816D01*
X206025478Y-124296789D01*
X206195745Y-124356368D01*
X206195750Y-124356369D01*
X206374996Y-124376565D01*
X206375000Y-124376565D01*
X206375004Y-124376565D01*
X206554249Y-124356369D01*
X206554252Y-124356368D01*
X206554255Y-124356368D01*
X206724522Y-124296789D01*
X206877262Y-124200816D01*
X207004816Y-124073262D01*
X207100789Y-123920522D01*
X207114482Y-123881389D01*
X211185500Y-123881389D01*
X211185500Y-124054610D01*
X211208656Y-124200816D01*
X211212598Y-124225701D01*
X211266127Y-124390445D01*
X211344768Y-124544788D01*
X211446586Y-124684928D01*
X211446588Y-124684930D01*
X211554127Y-124792469D01*
X211587612Y-124853792D01*
X211582628Y-124923484D01*
X211540756Y-124979417D01*
X211531544Y-124985688D01*
X211467344Y-125025287D01*
X211343289Y-125149342D01*
X211251187Y-125298663D01*
X211251186Y-125298666D01*
X211196001Y-125465203D01*
X211196001Y-125465204D01*
X211196000Y-125465204D01*
X211185500Y-125567983D01*
X211185500Y-126368001D01*
X211185501Y-126368019D01*
X211196000Y-126470796D01*
X211196001Y-126470799D01*
X211251185Y-126637331D01*
X211251186Y-126637334D01*
X211343288Y-126786656D01*
X211467344Y-126910712D01*
X211616666Y-127002814D01*
X211783203Y-127057999D01*
X211885991Y-127068500D01*
X213236008Y-127068499D01*
X213338797Y-127057999D01*
X213505334Y-127002814D01*
X213654656Y-126910712D01*
X213778712Y-126786656D01*
X213870814Y-126637334D01*
X213925999Y-126470797D01*
X213936500Y-126368009D01*
X213936499Y-125567992D01*
X213925999Y-125465203D01*
X213870814Y-125298666D01*
X213778712Y-125149344D01*
X213654656Y-125025288D01*
X213654652Y-125025285D01*
X213590456Y-124985688D01*
X213543731Y-124933740D01*
X213532510Y-124864777D01*
X213560353Y-124800695D01*
X213567850Y-124792491D01*
X213675414Y-124684928D01*
X213777232Y-124544788D01*
X213855873Y-124390445D01*
X213909402Y-124225701D01*
X213936500Y-124054611D01*
X213936500Y-123881389D01*
X213909402Y-123710299D01*
X213855873Y-123545555D01*
X213777232Y-123391212D01*
X213675414Y-123251072D01*
X213552928Y-123128586D01*
X213412788Y-123026768D01*
X213258445Y-122948127D01*
X213093701Y-122894598D01*
X213093699Y-122894597D01*
X213093698Y-122894597D01*
X212962271Y-122873781D01*
X212922611Y-122867500D01*
X212199389Y-122867500D01*
X212159728Y-122873781D01*
X212028302Y-122894597D01*
X211863552Y-122948128D01*
X211709211Y-123026768D01*
X211651447Y-123068737D01*
X211569072Y-123128586D01*
X211569070Y-123128588D01*
X211569069Y-123128588D01*
X211446588Y-123251069D01*
X211446588Y-123251070D01*
X211446586Y-123251072D01*
X211402859Y-123311256D01*
X211344768Y-123391211D01*
X211266128Y-123545552D01*
X211212597Y-123710302D01*
X211185500Y-123881389D01*
X207114482Y-123881389D01*
X207160368Y-123750255D01*
X207180565Y-123571000D01*
X207177698Y-123545555D01*
X207160369Y-123391750D01*
X207160368Y-123391745D01*
X207111144Y-123251072D01*
X207100789Y-123221478D01*
X207004816Y-123068738D01*
X206877262Y-122941184D01*
X206803121Y-122894598D01*
X206724523Y-122845211D01*
X206554254Y-122785631D01*
X206554249Y-122785630D01*
X206375004Y-122765435D01*
X206374996Y-122765435D01*
X206195750Y-122785630D01*
X206195745Y-122785631D01*
X206025476Y-122845211D01*
X205872737Y-122941184D01*
X205745184Y-123068737D01*
X205649211Y-123221476D01*
X205589631Y-123391745D01*
X205589630Y-123391750D01*
X205569435Y-123570996D01*
X177665500Y-123570996D01*
X177665500Y-120522996D01*
X189694435Y-120522996D01*
X189694435Y-120523003D01*
X189714630Y-120702249D01*
X189714631Y-120702254D01*
X189774211Y-120872523D01*
X189870184Y-121025262D01*
X189997738Y-121152816D01*
X190150478Y-121248789D01*
X190320745Y-121308368D01*
X190320750Y-121308369D01*
X190499996Y-121328565D01*
X190500000Y-121328565D01*
X190500004Y-121328565D01*
X190679249Y-121308369D01*
X190679252Y-121308368D01*
X190679255Y-121308368D01*
X190849522Y-121248789D01*
X191002262Y-121152816D01*
X191129816Y-121025262D01*
X191225789Y-120872522D01*
X191285368Y-120702255D01*
X191287709Y-120681478D01*
X191305565Y-120523003D01*
X191305565Y-120522996D01*
X191285369Y-120343750D01*
X191285368Y-120343745D01*
X191225788Y-120173476D01*
X191129815Y-120020737D01*
X191002262Y-119893184D01*
X190849523Y-119797211D01*
X190746027Y-119760996D01*
X196044435Y-119760996D01*
X196044435Y-119761003D01*
X196064630Y-119940249D01*
X196064631Y-119940254D01*
X196124211Y-120110523D01*
X196163769Y-120173478D01*
X196220184Y-120263262D01*
X196347738Y-120390816D01*
X196438080Y-120447582D01*
X196495531Y-120483681D01*
X196500478Y-120486789D01*
X196670745Y-120546368D01*
X196670750Y-120546369D01*
X196849996Y-120566565D01*
X196850000Y-120566565D01*
X196850004Y-120566565D01*
X197029249Y-120546369D01*
X197029252Y-120546368D01*
X197029255Y-120546368D01*
X197199522Y-120486789D01*
X197352262Y-120390816D01*
X197479816Y-120263262D01*
X197575789Y-120110522D01*
X197635368Y-119940255D01*
X197655565Y-119761000D01*
X197652932Y-119737632D01*
X197635369Y-119581750D01*
X197635368Y-119581745D01*
X197575788Y-119411476D01*
X197536582Y-119349080D01*
X197479816Y-119258738D01*
X197352262Y-119131184D01*
X197199523Y-119035211D01*
X197029254Y-118975631D01*
X197029249Y-118975630D01*
X196850004Y-118955435D01*
X196849996Y-118955435D01*
X196670750Y-118975630D01*
X196670745Y-118975631D01*
X196500476Y-119035211D01*
X196347737Y-119131184D01*
X196220184Y-119258737D01*
X196124211Y-119411476D01*
X196064631Y-119581745D01*
X196064630Y-119581750D01*
X196044435Y-119760996D01*
X190746027Y-119760996D01*
X190679254Y-119737631D01*
X190679249Y-119737630D01*
X190500004Y-119717435D01*
X190499996Y-119717435D01*
X190320750Y-119737630D01*
X190320745Y-119737631D01*
X190150476Y-119797211D01*
X189997737Y-119893184D01*
X189870184Y-120020737D01*
X189774211Y-120173476D01*
X189714631Y-120343745D01*
X189714630Y-120343750D01*
X189694435Y-120522996D01*
X177665500Y-120522996D01*
X177665500Y-119125996D01*
X181693435Y-119125996D01*
X181693435Y-119126003D01*
X181713630Y-119305249D01*
X181713631Y-119305254D01*
X181773211Y-119475523D01*
X181869184Y-119628262D01*
X181996738Y-119755816D01*
X182149478Y-119851789D01*
X182267778Y-119893184D01*
X182319745Y-119911368D01*
X182319750Y-119911369D01*
X182498996Y-119931565D01*
X182499000Y-119931565D01*
X182499004Y-119931565D01*
X182678249Y-119911369D01*
X182678252Y-119911368D01*
X182678255Y-119911368D01*
X182848522Y-119851789D01*
X183001262Y-119755816D01*
X183128816Y-119628262D01*
X183224789Y-119475522D01*
X183284368Y-119305255D01*
X183289609Y-119258738D01*
X183304565Y-119126003D01*
X183304565Y-119125996D01*
X183284369Y-118946750D01*
X183284368Y-118946745D01*
X183224788Y-118776476D01*
X183128815Y-118623737D01*
X183001262Y-118496184D01*
X182848523Y-118400211D01*
X182678254Y-118340631D01*
X182678249Y-118340630D01*
X182499004Y-118320435D01*
X182498996Y-118320435D01*
X182319750Y-118340630D01*
X182319745Y-118340631D01*
X182149476Y-118400211D01*
X181996737Y-118496184D01*
X181869184Y-118623737D01*
X181773211Y-118776476D01*
X181713631Y-118946745D01*
X181713630Y-118946750D01*
X181693435Y-119125996D01*
X177665500Y-119125996D01*
X177665500Y-117234624D01*
X191289935Y-117234624D01*
X191289935Y-117234631D01*
X191310130Y-117413877D01*
X191310131Y-117413882D01*
X191369711Y-117584151D01*
X191420543Y-117665049D01*
X191465684Y-117736890D01*
X191593238Y-117864444D01*
X191745978Y-117960417D01*
X191916245Y-118019996D01*
X191916250Y-118019997D01*
X192095496Y-118040193D01*
X192095500Y-118040193D01*
X192095504Y-118040193D01*
X192274749Y-118019997D01*
X192274752Y-118019996D01*
X192274755Y-118019996D01*
X192445022Y-117960417D01*
X192489913Y-117932209D01*
X192557149Y-117913209D01*
X192623985Y-117933576D01*
X192669199Y-117986843D01*
X192678438Y-118056100D01*
X192672928Y-118078157D01*
X192635632Y-118184742D01*
X192635630Y-118184750D01*
X192615435Y-118363996D01*
X192615435Y-118364003D01*
X192635630Y-118543249D01*
X192635631Y-118543254D01*
X192695211Y-118713523D01*
X192734769Y-118776478D01*
X192791184Y-118866262D01*
X192918738Y-118993816D01*
X193071478Y-119089789D01*
X193174952Y-119125996D01*
X193241745Y-119149368D01*
X193241750Y-119149369D01*
X193420996Y-119169565D01*
X193421000Y-119169565D01*
X193421004Y-119169565D01*
X193600249Y-119149369D01*
X193600252Y-119149368D01*
X193600255Y-119149368D01*
X193770522Y-119089789D01*
X193923262Y-118993816D01*
X194050816Y-118866262D01*
X194146789Y-118713522D01*
X194206368Y-118543255D01*
X194208143Y-118527500D01*
X194226565Y-118364003D01*
X194226565Y-118363996D01*
X205061435Y-118363996D01*
X205061435Y-118364003D01*
X205081630Y-118543249D01*
X205081631Y-118543254D01*
X205141211Y-118713523D01*
X205237184Y-118866262D01*
X205345741Y-118974819D01*
X205379226Y-119036142D01*
X205374242Y-119105834D01*
X205345741Y-119150181D01*
X205237184Y-119258737D01*
X205141211Y-119411476D01*
X205081631Y-119581745D01*
X205081630Y-119581750D01*
X205061435Y-119760996D01*
X205061435Y-119761003D01*
X205081630Y-119940249D01*
X205081631Y-119940254D01*
X205141211Y-120110523D01*
X205237184Y-120263262D01*
X205237185Y-120263263D01*
X205282241Y-120308320D01*
X205315725Y-120369643D01*
X205310740Y-120439335D01*
X205282241Y-120483680D01*
X205237184Y-120528737D01*
X205141211Y-120681476D01*
X205081631Y-120851745D01*
X205081630Y-120851750D01*
X205061435Y-121030996D01*
X205061435Y-121031003D01*
X205081630Y-121210249D01*
X205081631Y-121210254D01*
X205141211Y-121380523D01*
X205237184Y-121533262D01*
X205364738Y-121660816D01*
X205517478Y-121756789D01*
X205687745Y-121816368D01*
X205687750Y-121816369D01*
X205866996Y-121836565D01*
X205867000Y-121836565D01*
X205867004Y-121836565D01*
X206046249Y-121816369D01*
X206046252Y-121816368D01*
X206046255Y-121816368D01*
X206216522Y-121756789D01*
X206369262Y-121660816D01*
X206496816Y-121533262D01*
X206592789Y-121380522D01*
X206652368Y-121210255D01*
X206672565Y-121031000D01*
X206671918Y-121025262D01*
X206652369Y-120851750D01*
X206652368Y-120851745D01*
X206592788Y-120681476D01*
X206507894Y-120546369D01*
X206496816Y-120528738D01*
X206451758Y-120483680D01*
X206418274Y-120422358D01*
X206423258Y-120352666D01*
X206451759Y-120308319D01*
X206496816Y-120263262D01*
X206592789Y-120110522D01*
X206652368Y-119940255D01*
X206672565Y-119761000D01*
X206669932Y-119737632D01*
X206652369Y-119581750D01*
X206652368Y-119581745D01*
X206592788Y-119411476D01*
X206553582Y-119349080D01*
X206496816Y-119258738D01*
X206388259Y-119150181D01*
X206354774Y-119088858D01*
X206359758Y-119019166D01*
X206388259Y-118974819D01*
X206416333Y-118946745D01*
X206496816Y-118866262D01*
X206592789Y-118713522D01*
X206652368Y-118543255D01*
X206654143Y-118527500D01*
X206672565Y-118364003D01*
X206672565Y-118363996D01*
X208363435Y-118363996D01*
X208363435Y-118364003D01*
X208383630Y-118543249D01*
X208383631Y-118543254D01*
X208443211Y-118713523D01*
X208482769Y-118776478D01*
X208539184Y-118866262D01*
X208666738Y-118993816D01*
X208819478Y-119089789D01*
X208922952Y-119125996D01*
X208989745Y-119149368D01*
X208989750Y-119149369D01*
X209168996Y-119169565D01*
X209169000Y-119169565D01*
X209169004Y-119169565D01*
X209348249Y-119149369D01*
X209348252Y-119149368D01*
X209348255Y-119149368D01*
X209518522Y-119089789D01*
X209671262Y-118993816D01*
X209798816Y-118866262D01*
X209894789Y-118713522D01*
X209954368Y-118543255D01*
X209956143Y-118527500D01*
X209974565Y-118364003D01*
X209974565Y-118363996D01*
X209954369Y-118184750D01*
X209954368Y-118184745D01*
X209923432Y-118096336D01*
X209894789Y-118014478D01*
X209798816Y-117861738D01*
X209671262Y-117734184D01*
X209518523Y-117638211D01*
X209348254Y-117578631D01*
X209348249Y-117578630D01*
X209169004Y-117558435D01*
X209168996Y-117558435D01*
X208989750Y-117578630D01*
X208989745Y-117578631D01*
X208819476Y-117638211D01*
X208666737Y-117734184D01*
X208539184Y-117861737D01*
X208443211Y-118014476D01*
X208383631Y-118184745D01*
X208383630Y-118184750D01*
X208363435Y-118363996D01*
X206672565Y-118363996D01*
X206652369Y-118184750D01*
X206652368Y-118184745D01*
X206621432Y-118096336D01*
X206592789Y-118014478D01*
X206496816Y-117861738D01*
X206369262Y-117734184D01*
X206216523Y-117638211D01*
X206046254Y-117578631D01*
X206046249Y-117578630D01*
X205867004Y-117558435D01*
X205866996Y-117558435D01*
X205687750Y-117578630D01*
X205687745Y-117578631D01*
X205517476Y-117638211D01*
X205364737Y-117734184D01*
X205237184Y-117861737D01*
X205141211Y-118014476D01*
X205081631Y-118184745D01*
X205081630Y-118184750D01*
X205061435Y-118363996D01*
X194226565Y-118363996D01*
X194206369Y-118184750D01*
X194206368Y-118184745D01*
X194175432Y-118096336D01*
X194146789Y-118014478D01*
X194050816Y-117861738D01*
X193923262Y-117734184D01*
X193770523Y-117638211D01*
X193600254Y-117578631D01*
X193600249Y-117578630D01*
X193421004Y-117558435D01*
X193420996Y-117558435D01*
X193241750Y-117578630D01*
X193241745Y-117578631D01*
X193071477Y-117638211D01*
X193026584Y-117666419D01*
X192959347Y-117685418D01*
X192892512Y-117665049D01*
X192847298Y-117611781D01*
X192838062Y-117542525D01*
X192843572Y-117520469D01*
X192880866Y-117413890D01*
X192880869Y-117413877D01*
X192901065Y-117234631D01*
X192901065Y-117234624D01*
X192880869Y-117055378D01*
X192880868Y-117055373D01*
X192834970Y-116924204D01*
X192821289Y-116885106D01*
X192725316Y-116732366D01*
X192597762Y-116604812D01*
X192517728Y-116554523D01*
X192445023Y-116508839D01*
X192274754Y-116449259D01*
X192274749Y-116449258D01*
X192095504Y-116429063D01*
X192095496Y-116429063D01*
X191916250Y-116449258D01*
X191916245Y-116449259D01*
X191745976Y-116508839D01*
X191593237Y-116604812D01*
X191465684Y-116732365D01*
X191369711Y-116885104D01*
X191310131Y-117055373D01*
X191310130Y-117055378D01*
X191289935Y-117234624D01*
X177665500Y-117234624D01*
X177665500Y-116204996D01*
X181566435Y-116204996D01*
X181566435Y-116205003D01*
X181586630Y-116384249D01*
X181586631Y-116384254D01*
X181646211Y-116554523D01*
X181742184Y-116707262D01*
X181869738Y-116834816D01*
X181915178Y-116863368D01*
X182011991Y-116924200D01*
X182022478Y-116930789D01*
X182192745Y-116990368D01*
X182192750Y-116990369D01*
X182371996Y-117010565D01*
X182372000Y-117010565D01*
X182372004Y-117010565D01*
X182551249Y-116990369D01*
X182551252Y-116990368D01*
X182551255Y-116990368D01*
X182721522Y-116930789D01*
X182874262Y-116834816D01*
X183001816Y-116707262D01*
X183097789Y-116554522D01*
X183157368Y-116384255D01*
X183165420Y-116312792D01*
X183177565Y-116205003D01*
X183177565Y-116204996D01*
X183157369Y-116025750D01*
X183157368Y-116025745D01*
X183131212Y-115950996D01*
X188424435Y-115950996D01*
X188424435Y-115951003D01*
X188444630Y-116130249D01*
X188444631Y-116130254D01*
X188504211Y-116300523D01*
X188555711Y-116382484D01*
X188600184Y-116453262D01*
X188727738Y-116580816D01*
X188880478Y-116676789D01*
X188969148Y-116707816D01*
X189050745Y-116736368D01*
X189050750Y-116736369D01*
X189229996Y-116756565D01*
X189230000Y-116756565D01*
X189230004Y-116756565D01*
X189409249Y-116736369D01*
X189409252Y-116736368D01*
X189409255Y-116736368D01*
X189579522Y-116676789D01*
X189732262Y-116580816D01*
X189785222Y-116527855D01*
X189846543Y-116494371D01*
X189916235Y-116499355D01*
X189972168Y-116541226D01*
X189977893Y-116549561D01*
X189997184Y-116580262D01*
X190124738Y-116707816D01*
X190277478Y-116803789D01*
X190366148Y-116834816D01*
X190447745Y-116863368D01*
X190447750Y-116863369D01*
X190626996Y-116883565D01*
X190627000Y-116883565D01*
X190627004Y-116883565D01*
X190806249Y-116863369D01*
X190806252Y-116863368D01*
X190806255Y-116863368D01*
X190976522Y-116803789D01*
X191129262Y-116707816D01*
X191256816Y-116580262D01*
X191352789Y-116427522D01*
X191412368Y-116257255D01*
X191413020Y-116251468D01*
X191432565Y-116078003D01*
X191432565Y-116077996D01*
X191412369Y-115898750D01*
X191412368Y-115898745D01*
X191397228Y-115855478D01*
X191352789Y-115728478D01*
X191336615Y-115702738D01*
X191289189Y-115627260D01*
X191256816Y-115575738D01*
X191129262Y-115448184D01*
X191111880Y-115437262D01*
X190976523Y-115352211D01*
X190806254Y-115292631D01*
X190806249Y-115292630D01*
X190627004Y-115272435D01*
X190626996Y-115272435D01*
X190447750Y-115292630D01*
X190447745Y-115292631D01*
X190277476Y-115352211D01*
X190124737Y-115448184D01*
X190071777Y-115501144D01*
X190010454Y-115534628D01*
X189940762Y-115529643D01*
X189884829Y-115487772D01*
X189879103Y-115479433D01*
X189859818Y-115448740D01*
X189732262Y-115321184D01*
X189579523Y-115225211D01*
X189409254Y-115165631D01*
X189409249Y-115165630D01*
X189230004Y-115145435D01*
X189229996Y-115145435D01*
X189050750Y-115165630D01*
X189050745Y-115165631D01*
X188880476Y-115225211D01*
X188727737Y-115321184D01*
X188600184Y-115448737D01*
X188504211Y-115601476D01*
X188444631Y-115771745D01*
X188444630Y-115771750D01*
X188424435Y-115950996D01*
X183131212Y-115950996D01*
X183097788Y-115855475D01*
X183041448Y-115765812D01*
X183022447Y-115698575D01*
X183042814Y-115631740D01*
X183080465Y-115594848D01*
X183128262Y-115564816D01*
X183255816Y-115437262D01*
X183351789Y-115284522D01*
X183411368Y-115114255D01*
X183416354Y-115070003D01*
X183431565Y-114935003D01*
X183431565Y-114934996D01*
X183411369Y-114755750D01*
X183411368Y-114755745D01*
X183351789Y-114585478D01*
X183335267Y-114559184D01*
X183267684Y-114451626D01*
X183255816Y-114432738D01*
X183250074Y-114426996D01*
X191853435Y-114426996D01*
X191853435Y-114427003D01*
X191873630Y-114606249D01*
X191873631Y-114606254D01*
X191933211Y-114776523D01*
X192004982Y-114890745D01*
X192029184Y-114929262D01*
X192156738Y-115056816D01*
X192309478Y-115152789D01*
X192412952Y-115188996D01*
X192479745Y-115212368D01*
X192479750Y-115212369D01*
X192658996Y-115232565D01*
X192659000Y-115232565D01*
X192659004Y-115232565D01*
X192838249Y-115212369D01*
X192838252Y-115212368D01*
X192838255Y-115212368D01*
X193008522Y-115152789D01*
X193140286Y-115069996D01*
X194120705Y-115069996D01*
X194120705Y-115070003D01*
X194140900Y-115249249D01*
X194140901Y-115249254D01*
X194200481Y-115419523D01*
X194256239Y-115508260D01*
X194296454Y-115572262D01*
X194424008Y-115699816D01*
X194576748Y-115795789D01*
X194730088Y-115849445D01*
X194747015Y-115855368D01*
X194747020Y-115855369D01*
X194926266Y-115875565D01*
X194926270Y-115875565D01*
X194926274Y-115875565D01*
X195105519Y-115855369D01*
X195105522Y-115855368D01*
X195105525Y-115855368D01*
X195275792Y-115795789D01*
X195428532Y-115699816D01*
X195556086Y-115572262D01*
X195652059Y-115419522D01*
X195711638Y-115249255D01*
X195711639Y-115249249D01*
X195731835Y-115070003D01*
X195731835Y-115069996D01*
X195711639Y-114890750D01*
X195711638Y-114890745D01*
X195697455Y-114850212D01*
X195652059Y-114720478D01*
X195645520Y-114710072D01*
X195580284Y-114606249D01*
X195556086Y-114567738D01*
X195428532Y-114440184D01*
X195407550Y-114427000D01*
X195275793Y-114344211D01*
X195105524Y-114284631D01*
X195105519Y-114284630D01*
X194926274Y-114264435D01*
X194926266Y-114264435D01*
X194747020Y-114284630D01*
X194747015Y-114284631D01*
X194576746Y-114344211D01*
X194424007Y-114440184D01*
X194296454Y-114567737D01*
X194200481Y-114720476D01*
X194140901Y-114890745D01*
X194140900Y-114890750D01*
X194120705Y-115069996D01*
X193140286Y-115069996D01*
X193161262Y-115056816D01*
X193288816Y-114929262D01*
X193384789Y-114776522D01*
X193444368Y-114606255D01*
X193444369Y-114606249D01*
X193464565Y-114427003D01*
X193464565Y-114426996D01*
X193444369Y-114247750D01*
X193444368Y-114247745D01*
X193410036Y-114149630D01*
X193384789Y-114077478D01*
X193288816Y-113924738D01*
X193161262Y-113797184D01*
X193143877Y-113786260D01*
X193008523Y-113701211D01*
X192838254Y-113641631D01*
X192838249Y-113641630D01*
X192659004Y-113621435D01*
X192658996Y-113621435D01*
X192479750Y-113641630D01*
X192479745Y-113641631D01*
X192309476Y-113701211D01*
X192156737Y-113797184D01*
X192029184Y-113924737D01*
X191933211Y-114077476D01*
X191873631Y-114247745D01*
X191873630Y-114247750D01*
X191853435Y-114426996D01*
X183250074Y-114426996D01*
X183128262Y-114305184D01*
X183095551Y-114284630D01*
X182975523Y-114209211D01*
X182805254Y-114149631D01*
X182805249Y-114149630D01*
X182626004Y-114129435D01*
X182625996Y-114129435D01*
X182446750Y-114149630D01*
X182446745Y-114149631D01*
X182276476Y-114209211D01*
X182123737Y-114305184D01*
X181996184Y-114432737D01*
X181900211Y-114585476D01*
X181840631Y-114755745D01*
X181840630Y-114755750D01*
X181820435Y-114934996D01*
X181820435Y-114935003D01*
X181840630Y-115114249D01*
X181840631Y-115114254D01*
X181900211Y-115284523D01*
X181956552Y-115374188D01*
X181975552Y-115441424D01*
X181955184Y-115508260D01*
X181917531Y-115545153D01*
X181869739Y-115575182D01*
X181742184Y-115702737D01*
X181646211Y-115855476D01*
X181586631Y-116025745D01*
X181586630Y-116025750D01*
X181566435Y-116204996D01*
X177665500Y-116204996D01*
X177665500Y-112648996D01*
X182455435Y-112648996D01*
X182455435Y-112649003D01*
X182475630Y-112828249D01*
X182475631Y-112828254D01*
X182535211Y-112998523D01*
X182604545Y-113108866D01*
X182631184Y-113151262D01*
X182758738Y-113278816D01*
X182911478Y-113374789D01*
X183081745Y-113434368D01*
X183081750Y-113434369D01*
X183260996Y-113454565D01*
X183261000Y-113454565D01*
X183261004Y-113454565D01*
X183440249Y-113434369D01*
X183440252Y-113434368D01*
X183440255Y-113434368D01*
X183610522Y-113374789D01*
X183763262Y-113278816D01*
X183890816Y-113151262D01*
X183986789Y-112998522D01*
X184046368Y-112828255D01*
X184051609Y-112781738D01*
X184066565Y-112649003D01*
X184066565Y-112648996D01*
X184046369Y-112469750D01*
X184046368Y-112469745D01*
X184022794Y-112402374D01*
X183986789Y-112299478D01*
X183966013Y-112266414D01*
X183947582Y-112237080D01*
X183890816Y-112146738D01*
X183763262Y-112019184D01*
X183610523Y-111923211D01*
X183440254Y-111863631D01*
X183440249Y-111863630D01*
X183261004Y-111843435D01*
X183260996Y-111843435D01*
X183081750Y-111863630D01*
X183081745Y-111863631D01*
X182911476Y-111923211D01*
X182758737Y-112019184D01*
X182631184Y-112146737D01*
X182535211Y-112299476D01*
X182475631Y-112469745D01*
X182475630Y-112469750D01*
X182455435Y-112648996D01*
X177665500Y-112648996D01*
X177665500Y-111632996D01*
X186900435Y-111632996D01*
X186900435Y-111633003D01*
X186920630Y-111812249D01*
X186920631Y-111812254D01*
X186980211Y-111982523D01*
X187003595Y-112019738D01*
X187076184Y-112135262D01*
X187203738Y-112262816D01*
X187356478Y-112358789D01*
X187445148Y-112389816D01*
X187526745Y-112418368D01*
X187526750Y-112418369D01*
X187705996Y-112438565D01*
X187706000Y-112438565D01*
X187706004Y-112438565D01*
X187885249Y-112418369D01*
X187885252Y-112418368D01*
X187885255Y-112418368D01*
X188055522Y-112358789D01*
X188208262Y-112262816D01*
X188335816Y-112135262D01*
X188431789Y-111982522D01*
X188491368Y-111812255D01*
X188493176Y-111796211D01*
X188497256Y-111759996D01*
X192869435Y-111759996D01*
X192869435Y-111760003D01*
X192889630Y-111939249D01*
X192889631Y-111939254D01*
X192949211Y-112109523D01*
X192988769Y-112172478D01*
X193045184Y-112262262D01*
X193172738Y-112389816D01*
X193192724Y-112402374D01*
X193325444Y-112485768D01*
X193325478Y-112485789D01*
X193404446Y-112513421D01*
X193495745Y-112545368D01*
X193495750Y-112545369D01*
X193681920Y-112566345D01*
X193681657Y-112568672D01*
X193738113Y-112585250D01*
X193783868Y-112638054D01*
X193788108Y-112648593D01*
X193796225Y-112671789D01*
X193796658Y-112673025D01*
X193864967Y-112781737D01*
X193892630Y-112825762D01*
X194020184Y-112953316D01*
X194101726Y-113004552D01*
X194171246Y-113048235D01*
X194172924Y-113049289D01*
X194331400Y-113104742D01*
X194343191Y-113108868D01*
X194343196Y-113108869D01*
X194522442Y-113129065D01*
X194522446Y-113129065D01*
X194522450Y-113129065D01*
X194701695Y-113108869D01*
X194701697Y-113108868D01*
X194701701Y-113108868D01*
X194701704Y-113108866D01*
X194701708Y-113108866D01*
X194878541Y-113046989D01*
X194878977Y-113048235D01*
X194940587Y-113038089D01*
X194972227Y-113047378D01*
X194972364Y-113046989D01*
X195149204Y-113108868D01*
X195149209Y-113108869D01*
X195328455Y-113129065D01*
X195328459Y-113129065D01*
X195328463Y-113129065D01*
X195507708Y-113108869D01*
X195507711Y-113108868D01*
X195507714Y-113108868D01*
X195677981Y-113049289D01*
X195830721Y-112953316D01*
X195887891Y-112896145D01*
X195949210Y-112862663D01*
X196018902Y-112867647D01*
X196074836Y-112909518D01*
X196099253Y-112974982D01*
X196092611Y-113024783D01*
X196064632Y-113104742D01*
X196064630Y-113104750D01*
X196044435Y-113283996D01*
X196044435Y-113284003D01*
X196064630Y-113463249D01*
X196064631Y-113463254D01*
X196124211Y-113633523D01*
X196156366Y-113684697D01*
X196220184Y-113786262D01*
X196281689Y-113847767D01*
X196315173Y-113909091D01*
X196310188Y-113978782D01*
X196299001Y-114001420D01*
X196251211Y-114077476D01*
X196191631Y-114247745D01*
X196191630Y-114247750D01*
X196171435Y-114426996D01*
X196171435Y-114427003D01*
X196191630Y-114606249D01*
X196191631Y-114606254D01*
X196251211Y-114776523D01*
X196322982Y-114890745D01*
X196347184Y-114929262D01*
X196474738Y-115056816D01*
X196627478Y-115152789D01*
X196730952Y-115188996D01*
X196797745Y-115212368D01*
X196797750Y-115212369D01*
X196976996Y-115232565D01*
X196977000Y-115232565D01*
X196977004Y-115232565D01*
X197156249Y-115212369D01*
X197156252Y-115212368D01*
X197156255Y-115212368D01*
X197223048Y-115188996D01*
X205442435Y-115188996D01*
X205442435Y-115189003D01*
X205462630Y-115368249D01*
X205462631Y-115368254D01*
X205522211Y-115538523D01*
X205601586Y-115664846D01*
X205618184Y-115691262D01*
X205745738Y-115818816D01*
X205898478Y-115914789D01*
X206001952Y-115950996D01*
X206068745Y-115974368D01*
X206068750Y-115974369D01*
X206247996Y-115994565D01*
X206248000Y-115994565D01*
X206248004Y-115994565D01*
X206427249Y-115974369D01*
X206427252Y-115974368D01*
X206427255Y-115974368D01*
X206597522Y-115914789D01*
X206750262Y-115818816D01*
X206877816Y-115691262D01*
X206973789Y-115538522D01*
X207033368Y-115368255D01*
X207041889Y-115292630D01*
X207053565Y-115189003D01*
X207053565Y-115188996D01*
X207033369Y-115009750D01*
X207033368Y-115009745D01*
X207007215Y-114935003D01*
X206973789Y-114839478D01*
X206877816Y-114686738D01*
X206750262Y-114559184D01*
X206677431Y-114513421D01*
X206597523Y-114463211D01*
X206427254Y-114403631D01*
X206427249Y-114403630D01*
X206248004Y-114383435D01*
X206247996Y-114383435D01*
X206068750Y-114403630D01*
X206068745Y-114403631D01*
X205898476Y-114463211D01*
X205745737Y-114559184D01*
X205618184Y-114686737D01*
X205522211Y-114839476D01*
X205462631Y-115009745D01*
X205462630Y-115009750D01*
X205442435Y-115188996D01*
X197223048Y-115188996D01*
X197326522Y-115152789D01*
X197479262Y-115056816D01*
X197606816Y-114929262D01*
X197702789Y-114776522D01*
X197762368Y-114606255D01*
X197762369Y-114606249D01*
X197782565Y-114427003D01*
X197782565Y-114426996D01*
X197762369Y-114247750D01*
X197762368Y-114247745D01*
X197728036Y-114149630D01*
X197702789Y-114077478D01*
X197606816Y-113924738D01*
X197545311Y-113863233D01*
X197511826Y-113801910D01*
X197516810Y-113732218D01*
X197527999Y-113709579D01*
X197575788Y-113633524D01*
X197580018Y-113621435D01*
X197635368Y-113463255D01*
X197649212Y-113340389D01*
X197655565Y-113284003D01*
X197655565Y-113283996D01*
X197635369Y-113104750D01*
X197635368Y-113104745D01*
X197607206Y-113024262D01*
X197575789Y-112934478D01*
X197479816Y-112781738D01*
X197352262Y-112654184D01*
X197352260Y-112654183D01*
X197199523Y-112558211D01*
X197029254Y-112498631D01*
X197029249Y-112498630D01*
X196850004Y-112478435D01*
X196849996Y-112478435D01*
X196670750Y-112498630D01*
X196670745Y-112498631D01*
X196500476Y-112558211D01*
X196347739Y-112654183D01*
X196290570Y-112711352D01*
X196229246Y-112744836D01*
X196159555Y-112739851D01*
X196103621Y-112697980D01*
X196079205Y-112632515D01*
X196085848Y-112582714D01*
X196113826Y-112502759D01*
X196113828Y-112502749D01*
X196134024Y-112323503D01*
X196134024Y-112323496D01*
X196113828Y-112144250D01*
X196113827Y-112144245D01*
X196057238Y-111982523D01*
X196054248Y-111973978D01*
X196032429Y-111939254D01*
X195984912Y-111863631D01*
X195958275Y-111821238D01*
X195897033Y-111759996D01*
X202267435Y-111759996D01*
X202267435Y-111760003D01*
X202287630Y-111939249D01*
X202287631Y-111939254D01*
X202347211Y-112109523D01*
X202386769Y-112172478D01*
X202443184Y-112262262D01*
X202570738Y-112389816D01*
X202590724Y-112402374D01*
X202723444Y-112485768D01*
X202723478Y-112485789D01*
X202802446Y-112513421D01*
X202893745Y-112545368D01*
X202893750Y-112545369D01*
X203072996Y-112565565D01*
X203073000Y-112565565D01*
X203073004Y-112565565D01*
X203252249Y-112545369D01*
X203252252Y-112545368D01*
X203252255Y-112545368D01*
X203319048Y-112521996D01*
X205442435Y-112521996D01*
X205442435Y-112522003D01*
X205462630Y-112701249D01*
X205462631Y-112701254D01*
X205522211Y-112871523D01*
X205573606Y-112953317D01*
X205618184Y-113024262D01*
X205745738Y-113151816D01*
X205898478Y-113247789D01*
X205987148Y-113278816D01*
X206068745Y-113307368D01*
X206068750Y-113307369D01*
X206247996Y-113327565D01*
X206248000Y-113327565D01*
X206248004Y-113327565D01*
X206427249Y-113307369D01*
X206427252Y-113307368D01*
X206427255Y-113307368D01*
X206597522Y-113247789D01*
X206750262Y-113151816D01*
X206877816Y-113024262D01*
X206973789Y-112871522D01*
X207033368Y-112701255D01*
X207038672Y-112654183D01*
X207053565Y-112522003D01*
X207053565Y-112521996D01*
X207033369Y-112342750D01*
X207033368Y-112342745D01*
X207018228Y-112299478D01*
X206973789Y-112172478D01*
X206957615Y-112146738D01*
X206877815Y-112019737D01*
X206750262Y-111892184D01*
X206597523Y-111796211D01*
X206427254Y-111736631D01*
X206427249Y-111736630D01*
X206248004Y-111716435D01*
X206247996Y-111716435D01*
X206068750Y-111736630D01*
X206068745Y-111736631D01*
X205898476Y-111796211D01*
X205745737Y-111892184D01*
X205618184Y-112019737D01*
X205522211Y-112172476D01*
X205462631Y-112342745D01*
X205462630Y-112342750D01*
X205442435Y-112521996D01*
X203319048Y-112521996D01*
X203422522Y-112485789D01*
X203575262Y-112389816D01*
X203702816Y-112262262D01*
X203798789Y-112109522D01*
X203858368Y-111939255D01*
X203868487Y-111849445D01*
X203878565Y-111760003D01*
X203878565Y-111759996D01*
X203858369Y-111580750D01*
X203858368Y-111580745D01*
X203829502Y-111498250D01*
X203798789Y-111410478D01*
X203754749Y-111340389D01*
X211185500Y-111340389D01*
X211185500Y-111513611D01*
X211212598Y-111684701D01*
X211266127Y-111849445D01*
X211344768Y-112003788D01*
X211446586Y-112143928D01*
X211569072Y-112266414D01*
X211569078Y-112266418D01*
X211652023Y-112326683D01*
X211694689Y-112382013D01*
X211700667Y-112451626D01*
X211668061Y-112513421D01*
X211652023Y-112527317D01*
X211569078Y-112587581D01*
X211569069Y-112587588D01*
X211446588Y-112710069D01*
X211446588Y-112710070D01*
X211446586Y-112710072D01*
X211402859Y-112770256D01*
X211344768Y-112850211D01*
X211266128Y-113004552D01*
X211212597Y-113169302D01*
X211185500Y-113340389D01*
X211185500Y-113513610D01*
X211205776Y-113641632D01*
X211212598Y-113684701D01*
X211266127Y-113849445D01*
X211344768Y-114003788D01*
X211446586Y-114143928D01*
X211569072Y-114266414D01*
X211569078Y-114266418D01*
X211652023Y-114326683D01*
X211694689Y-114382013D01*
X211700667Y-114451626D01*
X211668061Y-114513421D01*
X211652023Y-114527317D01*
X211569078Y-114587581D01*
X211569069Y-114587588D01*
X211446588Y-114710069D01*
X211446588Y-114710070D01*
X211446586Y-114710072D01*
X211439027Y-114720476D01*
X211344768Y-114850211D01*
X211266128Y-115004552D01*
X211212597Y-115169302D01*
X211185500Y-115340389D01*
X211185500Y-115513610D01*
X211208810Y-115660789D01*
X211212598Y-115684701D01*
X211266127Y-115849445D01*
X211344768Y-116003788D01*
X211446586Y-116143928D01*
X211446588Y-116143930D01*
X211554127Y-116251469D01*
X211587612Y-116312792D01*
X211582628Y-116382484D01*
X211540756Y-116438417D01*
X211531544Y-116444688D01*
X211467344Y-116484287D01*
X211343289Y-116608342D01*
X211251187Y-116757663D01*
X211251186Y-116757666D01*
X211196001Y-116924203D01*
X211196001Y-116924204D01*
X211196000Y-116924204D01*
X211185500Y-117026983D01*
X211185500Y-117827001D01*
X211185501Y-117827019D01*
X211196000Y-117929796D01*
X211196001Y-117929799D01*
X211237854Y-118056100D01*
X211251186Y-118096334D01*
X211343288Y-118245656D01*
X211467344Y-118369712D01*
X211616666Y-118461814D01*
X211783203Y-118516999D01*
X211885991Y-118527500D01*
X213236008Y-118527499D01*
X213338797Y-118516999D01*
X213505334Y-118461814D01*
X213654656Y-118369712D01*
X213778712Y-118245656D01*
X213870814Y-118096334D01*
X213925999Y-117929797D01*
X213936500Y-117827009D01*
X213936499Y-117026992D01*
X213925999Y-116924203D01*
X213870814Y-116757666D01*
X213778712Y-116608344D01*
X213654656Y-116484288D01*
X213654652Y-116484285D01*
X213590456Y-116444688D01*
X213543731Y-116392740D01*
X213532510Y-116323777D01*
X213560353Y-116259695D01*
X213567850Y-116251491D01*
X213675414Y-116143928D01*
X213777232Y-116003788D01*
X213855873Y-115849445D01*
X213909402Y-115684701D01*
X213936500Y-115513611D01*
X213936500Y-115340389D01*
X213909402Y-115169299D01*
X213855873Y-115004555D01*
X213777232Y-114850212D01*
X213675414Y-114710072D01*
X213552928Y-114587586D01*
X213469975Y-114527317D01*
X213427311Y-114471988D01*
X213421332Y-114402374D01*
X213453938Y-114340579D01*
X213469976Y-114326682D01*
X213552928Y-114266414D01*
X213675414Y-114143928D01*
X213777232Y-114003788D01*
X213855873Y-113849445D01*
X213909402Y-113684701D01*
X213936500Y-113513611D01*
X213936500Y-113340389D01*
X213909402Y-113169299D01*
X213855873Y-113004555D01*
X213777232Y-112850212D01*
X213675414Y-112710072D01*
X213552928Y-112587586D01*
X213469975Y-112527317D01*
X213427311Y-112471988D01*
X213421332Y-112402374D01*
X213453938Y-112340579D01*
X213469976Y-112326682D01*
X213552928Y-112266414D01*
X213675414Y-112143928D01*
X213777232Y-112003788D01*
X213855873Y-111849445D01*
X213909402Y-111684701D01*
X213936500Y-111513611D01*
X213936500Y-111340389D01*
X213909402Y-111169299D01*
X213855873Y-111004555D01*
X213777232Y-110850212D01*
X213675414Y-110710072D01*
X213552928Y-110587586D01*
X213412788Y-110485768D01*
X213258445Y-110407127D01*
X213093701Y-110353598D01*
X213093699Y-110353597D01*
X213093698Y-110353597D01*
X212962271Y-110332781D01*
X212922611Y-110326500D01*
X212199389Y-110326500D01*
X212159728Y-110332781D01*
X212028302Y-110353597D01*
X211863552Y-110407128D01*
X211709211Y-110485768D01*
X211629256Y-110543859D01*
X211569072Y-110587586D01*
X211569070Y-110587588D01*
X211569069Y-110587588D01*
X211446588Y-110710069D01*
X211446588Y-110710070D01*
X211446586Y-110710072D01*
X211402859Y-110770256D01*
X211344768Y-110850211D01*
X211266128Y-111004552D01*
X211212597Y-111169302D01*
X211194514Y-111283476D01*
X211185500Y-111340389D01*
X203754749Y-111340389D01*
X203702816Y-111257738D01*
X203575262Y-111130184D01*
X203422523Y-111034211D01*
X203252254Y-110974631D01*
X203252249Y-110974630D01*
X203073004Y-110954435D01*
X203072996Y-110954435D01*
X202893750Y-110974630D01*
X202893745Y-110974631D01*
X202723476Y-111034211D01*
X202570737Y-111130184D01*
X202443184Y-111257737D01*
X202347211Y-111410476D01*
X202287631Y-111580745D01*
X202287630Y-111580750D01*
X202267435Y-111759996D01*
X195897033Y-111759996D01*
X195830721Y-111693684D01*
X195734148Y-111633003D01*
X195677982Y-111597711D01*
X195507713Y-111538131D01*
X195507708Y-111538130D01*
X195328463Y-111517935D01*
X195328455Y-111517935D01*
X195149209Y-111538130D01*
X195149196Y-111538133D01*
X194972365Y-111600010D01*
X194971929Y-111598765D01*
X194910309Y-111608910D01*
X194878676Y-111599620D01*
X194878540Y-111600010D01*
X194701708Y-111538133D01*
X194701695Y-111538130D01*
X194515527Y-111517155D01*
X194515789Y-111514827D01*
X194459334Y-111498250D01*
X194413579Y-111445446D01*
X194409331Y-111434889D01*
X194400789Y-111410478D01*
X194356749Y-111340389D01*
X194304816Y-111257738D01*
X194177262Y-111130184D01*
X194024523Y-111034211D01*
X193854254Y-110974631D01*
X193854249Y-110974630D01*
X193675004Y-110954435D01*
X193674996Y-110954435D01*
X193495750Y-110974630D01*
X193495745Y-110974631D01*
X193325476Y-111034211D01*
X193172737Y-111130184D01*
X193045184Y-111257737D01*
X192949211Y-111410476D01*
X192889631Y-111580745D01*
X192889630Y-111580750D01*
X192869435Y-111759996D01*
X188497256Y-111759996D01*
X188511565Y-111633003D01*
X188511565Y-111632996D01*
X188491369Y-111453750D01*
X188491368Y-111453745D01*
X188476228Y-111410478D01*
X188431789Y-111283478D01*
X188415615Y-111257738D01*
X188360047Y-111169302D01*
X188335816Y-111130738D01*
X188208262Y-111003184D01*
X188162822Y-110974632D01*
X188055523Y-110907211D01*
X187885254Y-110847631D01*
X187885249Y-110847630D01*
X187706004Y-110827435D01*
X187705996Y-110827435D01*
X187526750Y-110847630D01*
X187526745Y-110847631D01*
X187356476Y-110907211D01*
X187203737Y-111003184D01*
X187076184Y-111130737D01*
X186980211Y-111283476D01*
X186920631Y-111453745D01*
X186920630Y-111453750D01*
X186900435Y-111632996D01*
X177665500Y-111632996D01*
X177665500Y-107695996D01*
X183598435Y-107695996D01*
X183598435Y-107696003D01*
X183618630Y-107875249D01*
X183618631Y-107875254D01*
X183678211Y-108045523D01*
X183774184Y-108198262D01*
X183901738Y-108325816D01*
X184054478Y-108421789D01*
X184224745Y-108481368D01*
X184224750Y-108481369D01*
X184403996Y-108501565D01*
X184404000Y-108501565D01*
X184404004Y-108501565D01*
X184583249Y-108481369D01*
X184583252Y-108481368D01*
X184583255Y-108481368D01*
X184753522Y-108421789D01*
X184898018Y-108330996D01*
X189440435Y-108330996D01*
X189440435Y-108331003D01*
X189460630Y-108510249D01*
X189460631Y-108510254D01*
X189520211Y-108680523D01*
X189616184Y-108833262D01*
X189743738Y-108960816D01*
X189896478Y-109056789D01*
X190066745Y-109116368D01*
X190066750Y-109116369D01*
X190245996Y-109136565D01*
X190246000Y-109136565D01*
X190246004Y-109136565D01*
X190425249Y-109116369D01*
X190425252Y-109116368D01*
X190425255Y-109116368D01*
X190595522Y-109056789D01*
X190748262Y-108960816D01*
X190875816Y-108833262D01*
X190971789Y-108680522D01*
X191031368Y-108510255D01*
X191041336Y-108421788D01*
X191051565Y-108331003D01*
X191051565Y-108330996D01*
X195790435Y-108330996D01*
X195790435Y-108331003D01*
X195810630Y-108510249D01*
X195810631Y-108510254D01*
X195870211Y-108680523D01*
X195966184Y-108833262D01*
X196093738Y-108960816D01*
X196246478Y-109056789D01*
X196416745Y-109116368D01*
X196416750Y-109116369D01*
X196595996Y-109136565D01*
X196596000Y-109136565D01*
X196596004Y-109136565D01*
X196775249Y-109116369D01*
X196775252Y-109116368D01*
X196775255Y-109116368D01*
X196945522Y-109056789D01*
X197098262Y-108960816D01*
X197225816Y-108833262D01*
X197321789Y-108680522D01*
X197381368Y-108510255D01*
X197391336Y-108421788D01*
X197401565Y-108331003D01*
X197401565Y-108330996D01*
X197381369Y-108151750D01*
X197381368Y-108151745D01*
X197321789Y-107981478D01*
X197225816Y-107828738D01*
X197098262Y-107701184D01*
X196945523Y-107605211D01*
X196775254Y-107545631D01*
X196775249Y-107545630D01*
X196596004Y-107525435D01*
X196595996Y-107525435D01*
X196416750Y-107545630D01*
X196416745Y-107545631D01*
X196246476Y-107605211D01*
X196093737Y-107701184D01*
X195966184Y-107828737D01*
X195870211Y-107981476D01*
X195810631Y-108151745D01*
X195810630Y-108151750D01*
X195790435Y-108330996D01*
X191051565Y-108330996D01*
X191031369Y-108151750D01*
X191031368Y-108151745D01*
X190971789Y-107981478D01*
X190875816Y-107828738D01*
X190748262Y-107701184D01*
X190595523Y-107605211D01*
X190425254Y-107545631D01*
X190425249Y-107545630D01*
X190246004Y-107525435D01*
X190245996Y-107525435D01*
X190066750Y-107545630D01*
X190066745Y-107545631D01*
X189896476Y-107605211D01*
X189743737Y-107701184D01*
X189616184Y-107828737D01*
X189520211Y-107981476D01*
X189460631Y-108151745D01*
X189460630Y-108151750D01*
X189440435Y-108330996D01*
X184898018Y-108330996D01*
X184906262Y-108325816D01*
X185033816Y-108198262D01*
X185129789Y-108045522D01*
X185189368Y-107875255D01*
X185194609Y-107828738D01*
X185209565Y-107696003D01*
X185209565Y-107695996D01*
X185189369Y-107516750D01*
X185189368Y-107516745D01*
X185163212Y-107441996D01*
X201886435Y-107441996D01*
X201886435Y-107442003D01*
X201906630Y-107621249D01*
X201906631Y-107621254D01*
X201966211Y-107791523D01*
X202046010Y-107918522D01*
X202062184Y-107944262D01*
X202189738Y-108071816D01*
X202342478Y-108167789D01*
X202431148Y-108198816D01*
X202512745Y-108227368D01*
X202512750Y-108227369D01*
X202691996Y-108247565D01*
X202692000Y-108247565D01*
X202692004Y-108247565D01*
X202871249Y-108227369D01*
X202871252Y-108227368D01*
X202871255Y-108227368D01*
X203041522Y-108167789D01*
X203194262Y-108071816D01*
X203321816Y-107944262D01*
X203417789Y-107791522D01*
X203477368Y-107621255D01*
X203479176Y-107605211D01*
X203497565Y-107442003D01*
X203497565Y-107441996D01*
X203477369Y-107262750D01*
X203477368Y-107262745D01*
X203462228Y-107219478D01*
X203417789Y-107092478D01*
X203401615Y-107066738D01*
X203375257Y-107024789D01*
X203321816Y-106939738D01*
X203194262Y-106812184D01*
X203148822Y-106783632D01*
X203041523Y-106716211D01*
X202871254Y-106656631D01*
X202871249Y-106656630D01*
X202692004Y-106636435D01*
X202691996Y-106636435D01*
X202512750Y-106656630D01*
X202512745Y-106656631D01*
X202342476Y-106716211D01*
X202189737Y-106812184D01*
X202062184Y-106939737D01*
X201966211Y-107092476D01*
X201906631Y-107262745D01*
X201906630Y-107262750D01*
X201886435Y-107441996D01*
X185163212Y-107441996D01*
X185138273Y-107370726D01*
X185134713Y-107300948D01*
X185169442Y-107240320D01*
X185214362Y-107212730D01*
X185218254Y-107211368D01*
X185218255Y-107211368D01*
X185388522Y-107151789D01*
X185541262Y-107055816D01*
X185668816Y-106928262D01*
X185764789Y-106775522D01*
X185824368Y-106605255D01*
X185837861Y-106485499D01*
X185844565Y-106426003D01*
X185844565Y-106425996D01*
X185824369Y-106246750D01*
X185824368Y-106246745D01*
X185787334Y-106140908D01*
X185764789Y-106076478D01*
X185668816Y-105923738D01*
X185663074Y-105917996D01*
X200489435Y-105917996D01*
X200489435Y-105918003D01*
X200509630Y-106097249D01*
X200509631Y-106097254D01*
X200569211Y-106267523D01*
X200641416Y-106382435D01*
X200665184Y-106420262D01*
X200792738Y-106547816D01*
X200945478Y-106643789D01*
X201115745Y-106703368D01*
X201115750Y-106703369D01*
X201294996Y-106723565D01*
X201295000Y-106723565D01*
X201295004Y-106723565D01*
X201474249Y-106703369D01*
X201474252Y-106703368D01*
X201474255Y-106703368D01*
X201644522Y-106643789D01*
X201797262Y-106547816D01*
X201924816Y-106420262D01*
X202020789Y-106267522D01*
X202080368Y-106097255D01*
X202082709Y-106076478D01*
X202100565Y-105918003D01*
X202100565Y-105917996D01*
X204553435Y-105917996D01*
X204553435Y-105918003D01*
X204573630Y-106097249D01*
X204573631Y-106097254D01*
X204633211Y-106267523D01*
X204705416Y-106382435D01*
X204729184Y-106420262D01*
X204856738Y-106547816D01*
X205009478Y-106643789D01*
X205179745Y-106703368D01*
X205179750Y-106703369D01*
X205358996Y-106723565D01*
X205359000Y-106723565D01*
X205374663Y-106721800D01*
X205443484Y-106733853D01*
X205494865Y-106781202D01*
X205512490Y-106848812D01*
X205505590Y-106885974D01*
X205462632Y-107008742D01*
X205462630Y-107008750D01*
X205442435Y-107187996D01*
X205442435Y-107188003D01*
X205462630Y-107367249D01*
X205462631Y-107367254D01*
X205522211Y-107537523D01*
X205564743Y-107605211D01*
X205618184Y-107690262D01*
X205745738Y-107817816D01*
X205898478Y-107913789D01*
X205985565Y-107944262D01*
X206068745Y-107973368D01*
X206068750Y-107973369D01*
X206247996Y-107993565D01*
X206248000Y-107993565D01*
X206248004Y-107993565D01*
X206427249Y-107973369D01*
X206427252Y-107973368D01*
X206427255Y-107973368D01*
X206597522Y-107913789D01*
X206750262Y-107817816D01*
X206877816Y-107690262D01*
X206973789Y-107537522D01*
X207007215Y-107441996D01*
X207347435Y-107441996D01*
X207347435Y-107442003D01*
X207367630Y-107621249D01*
X207367631Y-107621254D01*
X207427211Y-107791523D01*
X207507010Y-107918522D01*
X207523184Y-107944262D01*
X207650738Y-108071816D01*
X207803478Y-108167789D01*
X207892148Y-108198816D01*
X207973745Y-108227368D01*
X207973750Y-108227369D01*
X208152996Y-108247565D01*
X208153000Y-108247565D01*
X208153004Y-108247565D01*
X208332249Y-108227369D01*
X208332252Y-108227368D01*
X208332255Y-108227368D01*
X208502522Y-108167789D01*
X208655262Y-108071816D01*
X208782816Y-107944262D01*
X208878789Y-107791522D01*
X208938368Y-107621255D01*
X208940176Y-107605211D01*
X208944256Y-107568996D01*
X211030435Y-107568996D01*
X211030435Y-107569003D01*
X211050630Y-107748249D01*
X211050631Y-107748254D01*
X211110211Y-107918523D01*
X211190010Y-108045522D01*
X211206184Y-108071262D01*
X211333738Y-108198816D01*
X211486478Y-108294789D01*
X211575148Y-108325816D01*
X211656745Y-108354368D01*
X211656750Y-108354369D01*
X211835996Y-108374565D01*
X211836000Y-108374565D01*
X211836004Y-108374565D01*
X212015249Y-108354369D01*
X212015252Y-108354368D01*
X212015255Y-108354368D01*
X212185522Y-108294789D01*
X212338262Y-108198816D01*
X212465816Y-108071262D01*
X212561789Y-107918522D01*
X212621368Y-107748255D01*
X212626672Y-107701184D01*
X212641565Y-107569003D01*
X212641565Y-107568996D01*
X212621369Y-107389750D01*
X212621368Y-107389745D01*
X212606228Y-107346478D01*
X212561789Y-107219478D01*
X212545615Y-107193738D01*
X212489584Y-107104565D01*
X212465816Y-107066738D01*
X212338262Y-106939184D01*
X212185523Y-106843211D01*
X212015254Y-106783631D01*
X212015249Y-106783630D01*
X211836004Y-106763435D01*
X211835996Y-106763435D01*
X211656750Y-106783630D01*
X211656745Y-106783631D01*
X211486476Y-106843211D01*
X211333737Y-106939184D01*
X211206184Y-107066737D01*
X211110211Y-107219476D01*
X211050631Y-107389745D01*
X211050630Y-107389750D01*
X211030435Y-107568996D01*
X208944256Y-107568996D01*
X208958565Y-107442003D01*
X208958565Y-107441996D01*
X208938369Y-107262750D01*
X208938368Y-107262745D01*
X208923228Y-107219478D01*
X208878789Y-107092478D01*
X208862615Y-107066738D01*
X208836257Y-107024789D01*
X208782816Y-106939738D01*
X208655262Y-106812184D01*
X208609822Y-106783632D01*
X208502523Y-106716211D01*
X208332254Y-106656631D01*
X208332249Y-106656630D01*
X208153004Y-106636435D01*
X208152996Y-106636435D01*
X207973750Y-106656630D01*
X207973745Y-106656631D01*
X207803476Y-106716211D01*
X207650737Y-106812184D01*
X207523184Y-106939737D01*
X207427211Y-107092476D01*
X207367631Y-107262745D01*
X207367630Y-107262750D01*
X207347435Y-107441996D01*
X207007215Y-107441996D01*
X207033368Y-107367255D01*
X207035709Y-107346478D01*
X207053565Y-107188003D01*
X207053565Y-107187996D01*
X207033369Y-107008750D01*
X207033368Y-107008745D01*
X207009221Y-106939737D01*
X206973789Y-106838478D01*
X206957267Y-106812184D01*
X206888894Y-106703369D01*
X206877816Y-106685738D01*
X206750262Y-106558184D01*
X206597523Y-106462211D01*
X206427254Y-106402631D01*
X206427249Y-106402630D01*
X206248004Y-106382435D01*
X206248000Y-106382435D01*
X206232331Y-106384200D01*
X206163509Y-106372143D01*
X206112131Y-106324792D01*
X206094509Y-106257181D01*
X206101410Y-106220024D01*
X206144366Y-106097262D01*
X206144369Y-106097249D01*
X206164565Y-105918003D01*
X206164565Y-105917996D01*
X206144369Y-105738750D01*
X206144368Y-105738745D01*
X206130884Y-105700211D01*
X206084789Y-105568478D01*
X206004927Y-105441379D01*
X212989500Y-105441379D01*
X212989500Y-105628620D01*
X213026025Y-105812243D01*
X213026027Y-105812251D01*
X213097676Y-105985228D01*
X213097681Y-105985237D01*
X213201697Y-106140907D01*
X213201700Y-106140911D01*
X213334088Y-106273299D01*
X213334092Y-106273302D01*
X213489762Y-106377318D01*
X213489768Y-106377321D01*
X213489769Y-106377322D01*
X213662749Y-106448973D01*
X213809956Y-106478254D01*
X213846379Y-106485499D01*
X213846383Y-106485500D01*
X213846384Y-106485500D01*
X214733617Y-106485500D01*
X214733618Y-106485499D01*
X214917251Y-106448973D01*
X215090231Y-106377322D01*
X215245908Y-106273302D01*
X215378302Y-106140908D01*
X215482322Y-105985231D01*
X215553973Y-105812251D01*
X215590500Y-105628616D01*
X215590500Y-105441384D01*
X215553973Y-105257749D01*
X215495204Y-105115868D01*
X215482323Y-105084771D01*
X215482318Y-105084762D01*
X215378302Y-104929092D01*
X215378299Y-104929088D01*
X215245911Y-104796700D01*
X215245907Y-104796697D01*
X215090237Y-104692681D01*
X215090228Y-104692676D01*
X214917251Y-104621027D01*
X214917243Y-104621025D01*
X214733620Y-104584500D01*
X214733616Y-104584500D01*
X213846384Y-104584500D01*
X213846379Y-104584500D01*
X213662756Y-104621025D01*
X213662748Y-104621027D01*
X213489771Y-104692676D01*
X213489762Y-104692681D01*
X213334092Y-104796697D01*
X213334088Y-104796700D01*
X213201700Y-104929088D01*
X213201697Y-104929092D01*
X213097681Y-105084762D01*
X213097676Y-105084771D01*
X213026027Y-105257748D01*
X213026025Y-105257756D01*
X212989500Y-105441379D01*
X206004927Y-105441379D01*
X205988816Y-105415738D01*
X205861262Y-105288184D01*
X205708523Y-105192211D01*
X205538254Y-105132631D01*
X205538249Y-105132630D01*
X205359004Y-105112435D01*
X205358996Y-105112435D01*
X205179750Y-105132630D01*
X205179745Y-105132631D01*
X205009476Y-105192211D01*
X204856737Y-105288184D01*
X204729184Y-105415737D01*
X204633211Y-105568476D01*
X204573631Y-105738745D01*
X204573630Y-105738750D01*
X204553435Y-105917996D01*
X202100565Y-105917996D01*
X202080369Y-105738750D01*
X202080368Y-105738745D01*
X202041834Y-105628620D01*
X202029273Y-105592726D01*
X202025713Y-105522948D01*
X202060442Y-105462320D01*
X202105362Y-105434730D01*
X202109254Y-105433368D01*
X202109255Y-105433368D01*
X202279522Y-105373789D01*
X202432262Y-105277816D01*
X202559816Y-105150262D01*
X202655789Y-104997522D01*
X202715368Y-104827255D01*
X202718811Y-104796697D01*
X202735565Y-104648003D01*
X202735565Y-104647996D01*
X202721256Y-104520996D01*
X205950435Y-104520996D01*
X205950435Y-104521003D01*
X205970630Y-104700249D01*
X205970631Y-104700254D01*
X206030211Y-104870523D01*
X206086632Y-104960316D01*
X206126184Y-105023262D01*
X206253738Y-105150816D01*
X206406478Y-105246789D01*
X206495148Y-105277816D01*
X206576745Y-105306368D01*
X206576750Y-105306369D01*
X206755996Y-105326565D01*
X206756000Y-105326565D01*
X206756004Y-105326565D01*
X206935249Y-105306369D01*
X206935252Y-105306368D01*
X206935255Y-105306368D01*
X207105522Y-105246789D01*
X207258262Y-105150816D01*
X207385816Y-105023262D01*
X207481789Y-104870522D01*
X207541368Y-104700255D01*
X207541369Y-104700249D01*
X207561565Y-104521003D01*
X207561565Y-104520996D01*
X207541369Y-104341750D01*
X207541368Y-104341745D01*
X207537432Y-104330496D01*
X208807935Y-104330496D01*
X208807935Y-104330503D01*
X208828130Y-104509749D01*
X208828131Y-104509754D01*
X208887711Y-104680023D01*
X208900424Y-104700255D01*
X208983684Y-104832762D01*
X209111238Y-104960316D01*
X209263978Y-105056289D01*
X209345375Y-105084771D01*
X209434245Y-105115868D01*
X209434250Y-105115869D01*
X209613496Y-105136065D01*
X209613500Y-105136065D01*
X209613504Y-105136065D01*
X209792749Y-105115869D01*
X209792752Y-105115868D01*
X209792755Y-105115868D01*
X209963022Y-105056289D01*
X210115762Y-104960316D01*
X210243316Y-104832762D01*
X210339289Y-104680022D01*
X210398868Y-104509755D01*
X210403489Y-104468745D01*
X210419065Y-104330503D01*
X210419065Y-104330496D01*
X210398869Y-104151250D01*
X210398868Y-104151245D01*
X210339288Y-103980976D01*
X210264927Y-103862632D01*
X210243316Y-103828238D01*
X210115762Y-103700684D01*
X209963023Y-103604711D01*
X209792754Y-103545131D01*
X209792749Y-103545130D01*
X209613504Y-103524935D01*
X209613496Y-103524935D01*
X209434250Y-103545130D01*
X209434245Y-103545131D01*
X209263976Y-103604711D01*
X209111237Y-103700684D01*
X208983684Y-103828237D01*
X208887711Y-103980976D01*
X208828131Y-104151245D01*
X208828130Y-104151250D01*
X208807935Y-104330496D01*
X207537432Y-104330496D01*
X207526228Y-104298478D01*
X207481789Y-104171478D01*
X207465615Y-104145738D01*
X207385815Y-104018737D01*
X207258262Y-103891184D01*
X207105523Y-103795211D01*
X206935254Y-103735631D01*
X206935249Y-103735630D01*
X206756004Y-103715435D01*
X206755996Y-103715435D01*
X206576750Y-103735630D01*
X206576745Y-103735631D01*
X206406476Y-103795211D01*
X206253737Y-103891184D01*
X206126184Y-104018737D01*
X206030211Y-104171476D01*
X205970631Y-104341745D01*
X205970630Y-104341750D01*
X205950435Y-104520996D01*
X202721256Y-104520996D01*
X202715369Y-104468750D01*
X202715368Y-104468745D01*
X202655789Y-104298478D01*
X202559816Y-104145738D01*
X202432262Y-104018184D01*
X202373046Y-103980976D01*
X202279523Y-103922211D01*
X202109254Y-103862631D01*
X202109249Y-103862630D01*
X201930004Y-103842435D01*
X201929996Y-103842435D01*
X201750750Y-103862630D01*
X201750745Y-103862631D01*
X201580476Y-103922211D01*
X201427737Y-104018184D01*
X201300184Y-104145737D01*
X201204211Y-104298476D01*
X201144631Y-104468745D01*
X201144630Y-104468750D01*
X201124435Y-104647996D01*
X201124435Y-104648003D01*
X201144630Y-104827249D01*
X201144631Y-104827254D01*
X201195726Y-104973273D01*
X201199287Y-105043052D01*
X201164558Y-105103680D01*
X201119638Y-105131270D01*
X201115745Y-105132631D01*
X201115745Y-105132632D01*
X201105934Y-105136065D01*
X200945478Y-105192210D01*
X200792737Y-105288184D01*
X200665184Y-105415737D01*
X200569211Y-105568476D01*
X200509631Y-105738745D01*
X200509630Y-105738750D01*
X200489435Y-105917996D01*
X185663074Y-105917996D01*
X185541262Y-105796184D01*
X185388523Y-105700211D01*
X185218254Y-105640631D01*
X185218249Y-105640630D01*
X185039004Y-105620435D01*
X185038996Y-105620435D01*
X184859750Y-105640630D01*
X184859745Y-105640631D01*
X184689476Y-105700211D01*
X184536737Y-105796184D01*
X184409184Y-105923737D01*
X184313211Y-106076476D01*
X184253631Y-106246745D01*
X184253630Y-106246750D01*
X184233435Y-106425996D01*
X184233435Y-106426003D01*
X184253630Y-106605249D01*
X184253631Y-106605254D01*
X184304726Y-106751273D01*
X184308287Y-106821052D01*
X184273558Y-106881680D01*
X184228638Y-106909270D01*
X184224745Y-106910631D01*
X184224745Y-106910632D01*
X184197277Y-106920243D01*
X184054478Y-106970210D01*
X183901737Y-107066184D01*
X183774184Y-107193737D01*
X183678211Y-107346476D01*
X183618631Y-107516745D01*
X183618630Y-107516750D01*
X183598435Y-107695996D01*
X177665500Y-107695996D01*
X177665500Y-106298996D01*
X180296435Y-106298996D01*
X180296435Y-106299003D01*
X180316630Y-106478249D01*
X180316631Y-106478254D01*
X180376211Y-106648523D01*
X180429828Y-106733853D01*
X180472184Y-106801262D01*
X180599738Y-106928816D01*
X180752478Y-107024789D01*
X180922745Y-107084368D01*
X180922750Y-107084369D01*
X181101996Y-107104565D01*
X181102000Y-107104565D01*
X181102004Y-107104565D01*
X181281249Y-107084369D01*
X181281252Y-107084368D01*
X181281255Y-107084368D01*
X181451522Y-107024789D01*
X181604262Y-106928816D01*
X181731816Y-106801262D01*
X181827789Y-106648522D01*
X181887368Y-106478255D01*
X181890667Y-106448974D01*
X181907565Y-106299003D01*
X181907565Y-106298996D01*
X181887369Y-106119750D01*
X181887368Y-106119745D01*
X181872228Y-106076478D01*
X181827789Y-105949478D01*
X181811615Y-105923738D01*
X181731815Y-105796737D01*
X181604262Y-105669184D01*
X181451523Y-105573211D01*
X181281254Y-105513631D01*
X181281249Y-105513630D01*
X181102004Y-105493435D01*
X181101996Y-105493435D01*
X180922750Y-105513630D01*
X180922745Y-105513631D01*
X180752476Y-105573211D01*
X180599737Y-105669184D01*
X180472184Y-105796737D01*
X180376211Y-105949476D01*
X180316631Y-106119745D01*
X180316630Y-106119750D01*
X180296435Y-106298996D01*
X177665500Y-106298996D01*
X177665500Y-100460340D01*
X189265435Y-100460340D01*
X189265435Y-100460347D01*
X189285630Y-100639593D01*
X189285631Y-100639598D01*
X189345211Y-100809867D01*
X189428005Y-100941632D01*
X189441184Y-100962606D01*
X189568738Y-101090160D01*
X189721478Y-101186133D01*
X189822917Y-101221628D01*
X189891745Y-101245712D01*
X189891750Y-101245713D01*
X190070996Y-101265909D01*
X190071000Y-101265909D01*
X190071004Y-101265909D01*
X190250249Y-101245713D01*
X190250252Y-101245712D01*
X190250255Y-101245712D01*
X190420522Y-101186133D01*
X190450982Y-101166994D01*
X190518219Y-101147993D01*
X190585054Y-101168360D01*
X190630269Y-101221628D01*
X190633997Y-101231033D01*
X190663210Y-101314521D01*
X190702769Y-101377478D01*
X190759184Y-101467262D01*
X190886738Y-101594816D01*
X191039478Y-101690789D01*
X191209745Y-101750368D01*
X191209750Y-101750369D01*
X191380213Y-101769575D01*
X191444627Y-101796641D01*
X191484182Y-101854236D01*
X191489550Y-101878910D01*
X191492630Y-101906250D01*
X191492631Y-101906254D01*
X191552211Y-102076523D01*
X191648184Y-102229262D01*
X191775738Y-102356816D01*
X191928478Y-102452789D01*
X192098745Y-102512368D01*
X192098750Y-102512369D01*
X192277996Y-102532565D01*
X192278000Y-102532565D01*
X192278004Y-102532565D01*
X192457249Y-102512369D01*
X192457252Y-102512368D01*
X192457255Y-102512368D01*
X192627522Y-102452789D01*
X192780262Y-102356816D01*
X192902082Y-102234996D01*
X203283435Y-102234996D01*
X203283435Y-102235003D01*
X203303630Y-102414249D01*
X203303631Y-102414254D01*
X203363211Y-102584523D01*
X203459184Y-102737262D01*
X203586738Y-102864816D01*
X203739478Y-102960789D01*
X203909745Y-103020368D01*
X203909750Y-103020369D01*
X204088996Y-103040565D01*
X204089000Y-103040565D01*
X204089004Y-103040565D01*
X204268249Y-103020369D01*
X204268252Y-103020368D01*
X204268255Y-103020368D01*
X204438522Y-102960789D01*
X204591262Y-102864816D01*
X204718816Y-102737262D01*
X204814789Y-102584522D01*
X204874368Y-102414255D01*
X204894565Y-102235000D01*
X204893918Y-102229262D01*
X204874369Y-102055750D01*
X204874368Y-102055745D01*
X204814788Y-101885476D01*
X204741962Y-101769575D01*
X204718816Y-101732738D01*
X204591262Y-101605184D01*
X204438523Y-101509211D01*
X204268254Y-101449631D01*
X204268249Y-101449630D01*
X204089004Y-101429435D01*
X204088996Y-101429435D01*
X203909750Y-101449630D01*
X203909745Y-101449631D01*
X203739476Y-101509211D01*
X203586737Y-101605184D01*
X203459184Y-101732737D01*
X203363211Y-101885476D01*
X203303631Y-102055745D01*
X203303630Y-102055750D01*
X203283435Y-102234996D01*
X192902082Y-102234996D01*
X192907816Y-102229262D01*
X193003789Y-102076522D01*
X193063368Y-101906255D01*
X193065709Y-101885478D01*
X193083565Y-101727003D01*
X193083565Y-101726996D01*
X193063369Y-101547750D01*
X193063368Y-101547745D01*
X193029036Y-101449630D01*
X193003789Y-101377478D01*
X192907816Y-101224738D01*
X192780262Y-101097184D01*
X192764624Y-101087358D01*
X192627523Y-101001211D01*
X192457254Y-100941631D01*
X192457250Y-100941630D01*
X192286785Y-100922424D01*
X192222371Y-100895357D01*
X192182816Y-100837763D01*
X192177449Y-100813086D01*
X192174369Y-100785747D01*
X192114789Y-100615478D01*
X192109693Y-100607368D01*
X192018816Y-100462738D01*
X192013074Y-100456996D01*
X192869435Y-100456996D01*
X192869435Y-100457003D01*
X192889630Y-100636249D01*
X192889631Y-100636254D01*
X192949211Y-100806523D01*
X193005030Y-100895357D01*
X193045184Y-100959262D01*
X193172738Y-101086816D01*
X193263080Y-101143582D01*
X193270100Y-101147993D01*
X193325478Y-101182789D01*
X193495745Y-101242368D01*
X193495750Y-101242369D01*
X193674996Y-101262565D01*
X193675000Y-101262565D01*
X193675004Y-101262565D01*
X193854249Y-101242369D01*
X193854252Y-101242368D01*
X193854255Y-101242368D01*
X194024522Y-101182789D01*
X194177262Y-101086816D01*
X194177264Y-101086813D01*
X194178572Y-101085992D01*
X194245809Y-101066991D01*
X194312644Y-101087358D01*
X194332226Y-101103304D01*
X194442738Y-101213816D01*
X194595478Y-101309789D01*
X194765745Y-101369368D01*
X194765750Y-101369369D01*
X194944996Y-101389565D01*
X194945000Y-101389565D01*
X194945004Y-101389565D01*
X195124249Y-101369369D01*
X195124252Y-101369368D01*
X195124255Y-101369368D01*
X195294522Y-101309789D01*
X195447262Y-101213816D01*
X195574816Y-101086262D01*
X195670789Y-100933522D01*
X195730368Y-100763255D01*
X195744301Y-100639598D01*
X195750565Y-100584003D01*
X195750565Y-100583996D01*
X195730369Y-100404750D01*
X195730368Y-100404745D01*
X195713661Y-100357000D01*
X195670789Y-100234478D01*
X195574816Y-100081738D01*
X195447262Y-99954184D01*
X195421020Y-99937695D01*
X195294523Y-99858211D01*
X195124254Y-99798631D01*
X195124249Y-99798630D01*
X194947631Y-99778731D01*
X196890170Y-99778731D01*
X196890170Y-99778738D01*
X196910365Y-99957984D01*
X196910366Y-99957989D01*
X196969946Y-100128258D01*
X197063627Y-100277350D01*
X197065919Y-100280997D01*
X197193473Y-100408551D01*
X197346213Y-100504524D01*
X197516480Y-100564103D01*
X197516485Y-100564104D01*
X197695731Y-100584300D01*
X197695735Y-100584300D01*
X197695739Y-100584300D01*
X197874984Y-100564104D01*
X197874987Y-100564103D01*
X197874990Y-100564103D01*
X198045257Y-100504524D01*
X198197997Y-100408551D01*
X198325551Y-100280997D01*
X198421524Y-100128257D01*
X198481103Y-99957990D01*
X198481439Y-99955008D01*
X198496426Y-99821996D01*
X201632435Y-99821996D01*
X201632435Y-99822003D01*
X201652630Y-100001249D01*
X201652631Y-100001254D01*
X201712211Y-100171523D01*
X201781060Y-100281094D01*
X201808184Y-100324262D01*
X201935738Y-100451816D01*
X202088478Y-100547789D01*
X202258745Y-100607368D01*
X202258750Y-100607369D01*
X202437996Y-100627565D01*
X202438000Y-100627565D01*
X202438004Y-100627565D01*
X202617249Y-100607369D01*
X202617252Y-100607368D01*
X202617255Y-100607368D01*
X202787522Y-100547789D01*
X202940262Y-100451816D01*
X203067816Y-100324262D01*
X203163789Y-100171522D01*
X203223368Y-100001255D01*
X203226438Y-99974008D01*
X203243565Y-99822003D01*
X203243565Y-99821996D01*
X203223369Y-99642750D01*
X203223368Y-99642745D01*
X203163789Y-99472478D01*
X203067816Y-99319738D01*
X202940262Y-99192184D01*
X202932005Y-99186996D01*
X209379435Y-99186996D01*
X209379435Y-99187003D01*
X209399630Y-99366249D01*
X209399631Y-99366254D01*
X209459211Y-99536522D01*
X209505956Y-99610916D01*
X209524956Y-99678152D01*
X209515341Y-99719322D01*
X209517010Y-99719906D01*
X209455133Y-99896737D01*
X209455130Y-99896750D01*
X209434935Y-100075996D01*
X209434935Y-100076003D01*
X209455130Y-100255249D01*
X209455131Y-100255254D01*
X209514711Y-100425523D01*
X209601787Y-100564103D01*
X209610684Y-100578262D01*
X209738238Y-100705816D01*
X209890978Y-100801789D01*
X209993786Y-100837763D01*
X210061245Y-100861368D01*
X210061250Y-100861369D01*
X210240496Y-100881565D01*
X210240500Y-100881565D01*
X210240504Y-100881565D01*
X210419749Y-100861369D01*
X210419752Y-100861368D01*
X210419755Y-100861368D01*
X210590022Y-100801789D01*
X210742762Y-100705816D01*
X210870316Y-100578262D01*
X210966289Y-100425522D01*
X211025868Y-100255255D01*
X211028209Y-100234478D01*
X211046065Y-100076003D01*
X211046065Y-100075996D01*
X211025869Y-99896750D01*
X211025868Y-99896745D01*
X210966288Y-99726475D01*
X210919544Y-99652084D01*
X210900543Y-99584847D01*
X210910172Y-99543683D01*
X210908489Y-99543095D01*
X210970368Y-99366254D01*
X210970369Y-99366249D01*
X210990565Y-99187003D01*
X210990565Y-99186996D01*
X210970369Y-99007750D01*
X210970368Y-99007745D01*
X210915018Y-98849565D01*
X210912154Y-98841379D01*
X212989500Y-98841379D01*
X212989500Y-99028620D01*
X213026025Y-99212243D01*
X213026027Y-99212251D01*
X213097676Y-99385228D01*
X213097681Y-99385237D01*
X213201697Y-99540907D01*
X213201700Y-99540911D01*
X213334088Y-99673299D01*
X213334092Y-99673302D01*
X213489762Y-99777318D01*
X213489771Y-99777323D01*
X213528956Y-99793554D01*
X213662749Y-99848973D01*
X213846379Y-99885499D01*
X213846383Y-99885500D01*
X213846384Y-99885500D01*
X214733617Y-99885500D01*
X214733618Y-99885499D01*
X214917251Y-99848973D01*
X215090231Y-99777322D01*
X215245908Y-99673302D01*
X215378302Y-99540908D01*
X215482322Y-99385231D01*
X215553973Y-99212251D01*
X215590500Y-99028616D01*
X215590500Y-98841384D01*
X215553973Y-98657749D01*
X215482322Y-98484769D01*
X215482321Y-98484768D01*
X215482318Y-98484762D01*
X215378302Y-98329092D01*
X215378299Y-98329088D01*
X215245911Y-98196700D01*
X215245907Y-98196697D01*
X215090237Y-98092681D01*
X215090228Y-98092676D01*
X214917251Y-98021027D01*
X214917243Y-98021025D01*
X214733620Y-97984500D01*
X214733616Y-97984500D01*
X213846384Y-97984500D01*
X213846379Y-97984500D01*
X213662756Y-98021025D01*
X213662748Y-98021027D01*
X213489771Y-98092676D01*
X213489762Y-98092681D01*
X213334092Y-98196697D01*
X213334088Y-98196700D01*
X213201700Y-98329088D01*
X213201697Y-98329092D01*
X213097681Y-98484762D01*
X213097676Y-98484771D01*
X213026027Y-98657748D01*
X213026025Y-98657756D01*
X212989500Y-98841379D01*
X210912154Y-98841379D01*
X210910789Y-98837478D01*
X210814816Y-98684738D01*
X210687262Y-98557184D01*
X210637353Y-98525824D01*
X210534523Y-98461211D01*
X210364254Y-98401631D01*
X210364249Y-98401630D01*
X210185004Y-98381435D01*
X210184996Y-98381435D01*
X210005750Y-98401630D01*
X210005745Y-98401631D01*
X209835476Y-98461211D01*
X209682737Y-98557184D01*
X209555184Y-98684737D01*
X209459211Y-98837476D01*
X209399631Y-99007745D01*
X209399630Y-99007750D01*
X209379435Y-99186996D01*
X202932005Y-99186996D01*
X202787523Y-99096211D01*
X202617254Y-99036631D01*
X202617249Y-99036630D01*
X202438004Y-99016435D01*
X202437996Y-99016435D01*
X202258750Y-99036630D01*
X202258745Y-99036631D01*
X202088476Y-99096211D01*
X201935737Y-99192184D01*
X201808184Y-99319737D01*
X201712211Y-99472476D01*
X201652631Y-99642745D01*
X201652630Y-99642750D01*
X201632435Y-99821996D01*
X198496426Y-99821996D01*
X198501300Y-99778738D01*
X198501300Y-99778731D01*
X198481104Y-99599485D01*
X198481103Y-99599480D01*
X198421523Y-99429211D01*
X198352736Y-99319738D01*
X198325551Y-99276473D01*
X198197997Y-99148919D01*
X198114113Y-99096211D01*
X198045258Y-99052946D01*
X197874989Y-98993366D01*
X197874984Y-98993365D01*
X197695739Y-98973170D01*
X197695731Y-98973170D01*
X197516485Y-98993365D01*
X197516480Y-98993366D01*
X197346211Y-99052946D01*
X197193472Y-99148919D01*
X197065919Y-99276472D01*
X196969946Y-99429211D01*
X196910366Y-99599480D01*
X196910365Y-99599485D01*
X196890170Y-99778731D01*
X194947631Y-99778731D01*
X194945004Y-99778435D01*
X194944996Y-99778435D01*
X194765750Y-99798630D01*
X194765745Y-99798631D01*
X194595476Y-99858211D01*
X194441426Y-99955008D01*
X194374189Y-99974008D01*
X194307354Y-99953640D01*
X194287773Y-99937695D01*
X194177262Y-99827184D01*
X194024523Y-99731211D01*
X193854254Y-99671631D01*
X193854249Y-99671630D01*
X193675004Y-99651435D01*
X193674996Y-99651435D01*
X193495750Y-99671630D01*
X193495745Y-99671631D01*
X193325476Y-99731211D01*
X193172737Y-99827184D01*
X193045184Y-99954737D01*
X192949211Y-100107476D01*
X192889631Y-100277745D01*
X192889630Y-100277750D01*
X192869435Y-100456996D01*
X192013074Y-100456996D01*
X191891262Y-100335184D01*
X191873880Y-100324262D01*
X191738523Y-100239211D01*
X191568254Y-100179631D01*
X191568249Y-100179630D01*
X191389004Y-100159435D01*
X191388996Y-100159435D01*
X191209750Y-100179630D01*
X191209745Y-100179631D01*
X191039477Y-100239211D01*
X191009016Y-100258351D01*
X190941779Y-100277350D01*
X190874944Y-100256981D01*
X190829730Y-100203713D01*
X190826003Y-100194311D01*
X190796788Y-100110820D01*
X190727943Y-100001254D01*
X190700816Y-99958082D01*
X190573262Y-99830528D01*
X190559690Y-99822000D01*
X190420523Y-99734555D01*
X190250254Y-99674975D01*
X190250249Y-99674974D01*
X190071004Y-99654779D01*
X190070996Y-99654779D01*
X189891750Y-99674974D01*
X189891745Y-99674975D01*
X189721476Y-99734555D01*
X189568737Y-99830528D01*
X189441184Y-99958081D01*
X189345211Y-100110820D01*
X189285631Y-100281089D01*
X189285630Y-100281094D01*
X189265435Y-100460340D01*
X177665500Y-100460340D01*
X177665500Y-98043996D01*
X184614435Y-98043996D01*
X184614435Y-98044003D01*
X184634630Y-98223249D01*
X184634631Y-98223254D01*
X184694211Y-98393523D01*
X184777341Y-98525823D01*
X184790184Y-98546262D01*
X184917738Y-98673816D01*
X185070478Y-98769789D01*
X185240745Y-98829368D01*
X185240750Y-98829369D01*
X185419996Y-98849565D01*
X185420000Y-98849565D01*
X185420004Y-98849565D01*
X185599249Y-98829369D01*
X185599252Y-98829368D01*
X185599255Y-98829368D01*
X185769522Y-98769789D01*
X185922262Y-98673816D01*
X186049816Y-98546262D01*
X186145789Y-98393522D01*
X186205368Y-98223255D01*
X186208360Y-98196700D01*
X186210659Y-98176297D01*
X207318035Y-98176297D01*
X207318035Y-98176304D01*
X207338230Y-98355550D01*
X207338231Y-98355555D01*
X207397811Y-98525824D01*
X207417516Y-98557184D01*
X207493784Y-98678563D01*
X207621338Y-98806117D01*
X207774078Y-98902090D01*
X207944345Y-98961669D01*
X207944350Y-98961670D01*
X208123596Y-98981866D01*
X208123600Y-98981866D01*
X208123604Y-98981866D01*
X208302849Y-98961670D01*
X208302852Y-98961669D01*
X208302855Y-98961669D01*
X208473122Y-98902090D01*
X208625862Y-98806117D01*
X208753416Y-98678563D01*
X208849389Y-98525823D01*
X208908968Y-98355556D01*
X208911950Y-98329092D01*
X208929165Y-98176304D01*
X208929165Y-98176297D01*
X208908969Y-97997051D01*
X208908968Y-97997046D01*
X208879144Y-97911815D01*
X208849389Y-97826779D01*
X208753416Y-97674039D01*
X208625862Y-97546485D01*
X208579965Y-97517646D01*
X208473123Y-97450512D01*
X208302854Y-97390932D01*
X208302849Y-97390931D01*
X208123604Y-97370736D01*
X208123596Y-97370736D01*
X207944350Y-97390931D01*
X207944345Y-97390932D01*
X207774076Y-97450512D01*
X207621337Y-97546485D01*
X207493784Y-97674038D01*
X207397811Y-97826777D01*
X207338231Y-97997046D01*
X207338230Y-97997051D01*
X207318035Y-98176297D01*
X186210659Y-98176297D01*
X186225565Y-98044003D01*
X186225565Y-98043996D01*
X186205369Y-97864750D01*
X186205368Y-97864745D01*
X186145788Y-97694476D01*
X186106231Y-97631522D01*
X186049816Y-97541738D01*
X185922262Y-97414184D01*
X185769523Y-97318211D01*
X185599254Y-97258631D01*
X185599249Y-97258630D01*
X185420004Y-97238435D01*
X185419996Y-97238435D01*
X185240750Y-97258630D01*
X185240745Y-97258631D01*
X185070476Y-97318211D01*
X184917737Y-97414184D01*
X184790184Y-97541737D01*
X184694211Y-97694476D01*
X184634631Y-97864745D01*
X184634630Y-97864750D01*
X184614435Y-98043996D01*
X177665500Y-98043996D01*
X177665500Y-96011996D01*
X185249435Y-96011996D01*
X185249435Y-96012003D01*
X185269630Y-96191249D01*
X185269631Y-96191254D01*
X185329211Y-96361523D01*
X185376797Y-96437255D01*
X185425184Y-96514262D01*
X185552738Y-96641816D01*
X185705478Y-96737789D01*
X185875745Y-96797368D01*
X185875750Y-96797369D01*
X186054996Y-96817565D01*
X186055000Y-96817565D01*
X186055004Y-96817565D01*
X186234249Y-96797369D01*
X186234252Y-96797368D01*
X186234255Y-96797368D01*
X186404522Y-96737789D01*
X186557262Y-96641816D01*
X186684816Y-96514262D01*
X186780789Y-96361522D01*
X186840368Y-96191255D01*
X186840369Y-96191249D01*
X186860565Y-96012003D01*
X186860565Y-96011996D01*
X186848257Y-95902761D01*
X189567435Y-95902761D01*
X189567435Y-95902768D01*
X189587630Y-96082014D01*
X189587631Y-96082019D01*
X189647211Y-96252288D01*
X189735623Y-96392994D01*
X189743184Y-96405027D01*
X189870738Y-96532581D01*
X190023478Y-96628554D01*
X190061376Y-96641815D01*
X190193745Y-96688133D01*
X190193750Y-96688134D01*
X190372996Y-96708330D01*
X190373000Y-96708330D01*
X190373004Y-96708330D01*
X190552249Y-96688134D01*
X190552252Y-96688133D01*
X190552255Y-96688133D01*
X190722522Y-96628554D01*
X190875262Y-96532581D01*
X191002816Y-96405027D01*
X191098789Y-96252287D01*
X191138431Y-96138996D01*
X192615435Y-96138996D01*
X192615435Y-96139003D01*
X192635630Y-96318249D01*
X192635631Y-96318254D01*
X192695211Y-96488523D01*
X192722895Y-96532581D01*
X192791184Y-96641262D01*
X192918738Y-96768816D01*
X193071478Y-96864789D01*
X193158565Y-96895262D01*
X193241745Y-96924368D01*
X193241750Y-96924369D01*
X193420996Y-96944565D01*
X193421000Y-96944565D01*
X193421004Y-96944565D01*
X193600249Y-96924369D01*
X193600252Y-96924368D01*
X193600255Y-96924368D01*
X193770522Y-96864789D01*
X193923262Y-96768816D01*
X194050816Y-96641262D01*
X194146789Y-96488522D01*
X194206368Y-96318255D01*
X194207466Y-96308504D01*
X194234531Y-96244091D01*
X194292124Y-96204534D01*
X194361961Y-96202394D01*
X194371642Y-96205344D01*
X194511737Y-96254366D01*
X194511743Y-96254367D01*
X194511745Y-96254368D01*
X194511746Y-96254368D01*
X194511750Y-96254369D01*
X194690996Y-96274565D01*
X194691000Y-96274565D01*
X194691004Y-96274565D01*
X194870249Y-96254369D01*
X194870252Y-96254368D01*
X194870255Y-96254368D01*
X195040522Y-96194789D01*
X195046147Y-96191255D01*
X195092118Y-96162369D01*
X195106878Y-96153094D01*
X195174113Y-96134094D01*
X195240949Y-96154461D01*
X195286163Y-96207729D01*
X195296070Y-96271970D01*
X195282435Y-96392994D01*
X195282435Y-96393003D01*
X195302630Y-96572249D01*
X195302631Y-96572254D01*
X195362211Y-96742523D01*
X195442010Y-96869522D01*
X195458184Y-96895262D01*
X195585738Y-97022816D01*
X195738478Y-97118789D01*
X195827148Y-97149816D01*
X195908745Y-97178368D01*
X195908750Y-97178369D01*
X196087996Y-97198565D01*
X196087999Y-97198565D01*
X196087999Y-97198564D01*
X196088000Y-97198565D01*
X196135751Y-97193184D01*
X196204570Y-97205237D01*
X196237315Y-97228723D01*
X196328522Y-97319930D01*
X196481262Y-97415903D01*
X196651529Y-97475482D01*
X196651530Y-97475482D01*
X196655651Y-97476924D01*
X196712427Y-97517646D01*
X196731738Y-97553010D01*
X196759211Y-97631523D01*
X196759212Y-97631524D01*
X196785926Y-97674039D01*
X196855184Y-97784262D01*
X196982738Y-97911816D01*
X197073080Y-97968582D01*
X197118388Y-97997051D01*
X197135478Y-98007789D01*
X197238952Y-98043996D01*
X197305745Y-98067368D01*
X197305750Y-98067369D01*
X197484996Y-98087565D01*
X197485000Y-98087565D01*
X197485004Y-98087565D01*
X197664249Y-98067369D01*
X197664252Y-98067368D01*
X197664255Y-98067368D01*
X197834522Y-98007789D01*
X197987262Y-97911816D01*
X198114816Y-97784262D01*
X198210789Y-97631522D01*
X198270368Y-97461255D01*
X198270369Y-97461249D01*
X198290565Y-97282003D01*
X198290565Y-97281996D01*
X198270369Y-97102750D01*
X198270368Y-97102745D01*
X198242400Y-97022817D01*
X198210789Y-96932478D01*
X198114816Y-96779738D01*
X197987262Y-96652184D01*
X197834521Y-96556210D01*
X197731045Y-96520003D01*
X197731025Y-96519996D01*
X199981435Y-96519996D01*
X199981435Y-96520003D01*
X200001630Y-96699249D01*
X200001631Y-96699254D01*
X200061211Y-96869523D01*
X200115799Y-96956398D01*
X200157184Y-97022262D01*
X200284738Y-97149816D01*
X200330178Y-97178368D01*
X200410317Y-97228723D01*
X200437478Y-97245789D01*
X200540952Y-97281996D01*
X200607745Y-97305368D01*
X200607750Y-97305369D01*
X200786996Y-97325565D01*
X200787000Y-97325565D01*
X200787004Y-97325565D01*
X200966249Y-97305369D01*
X200966252Y-97305368D01*
X200966255Y-97305368D01*
X201136522Y-97245789D01*
X201289262Y-97149816D01*
X201416816Y-97022262D01*
X201512789Y-96869522D01*
X201572368Y-96699255D01*
X201578840Y-96641815D01*
X201592565Y-96520003D01*
X201592565Y-96519996D01*
X201578256Y-96392996D01*
X202902435Y-96392996D01*
X202902435Y-96393003D01*
X202922630Y-96572249D01*
X202922631Y-96572254D01*
X202982211Y-96742523D01*
X203062010Y-96869522D01*
X203078184Y-96895262D01*
X203205738Y-97022816D01*
X203358478Y-97118789D01*
X203447148Y-97149816D01*
X203528745Y-97178368D01*
X203528750Y-97178369D01*
X203707996Y-97198565D01*
X203708000Y-97198565D01*
X203708004Y-97198565D01*
X203887249Y-97178369D01*
X203887252Y-97178368D01*
X203887255Y-97178368D01*
X204057522Y-97118789D01*
X204210262Y-97022816D01*
X204276682Y-96956395D01*
X204338001Y-96922913D01*
X204407693Y-96927897D01*
X204430332Y-96939085D01*
X204457885Y-96956398D01*
X204501478Y-96983789D01*
X204611428Y-97022262D01*
X204671745Y-97043368D01*
X204671750Y-97043369D01*
X204850996Y-97063565D01*
X204851000Y-97063565D01*
X204851004Y-97063565D01*
X205030249Y-97043369D01*
X205030252Y-97043368D01*
X205030255Y-97043368D01*
X205200522Y-96983789D01*
X205353262Y-96887816D01*
X205480816Y-96760262D01*
X205576789Y-96607522D01*
X205636368Y-96437255D01*
X205636369Y-96437249D01*
X205656565Y-96258003D01*
X205656565Y-96257996D01*
X205636369Y-96078750D01*
X205636368Y-96078745D01*
X205629913Y-96060298D01*
X205576789Y-95908478D01*
X205574443Y-95904745D01*
X205502015Y-95789476D01*
X205480816Y-95755738D01*
X205353262Y-95628184D01*
X205312111Y-95602327D01*
X205200523Y-95532211D01*
X205030254Y-95472631D01*
X205030249Y-95472630D01*
X204851004Y-95452435D01*
X204850996Y-95452435D01*
X204671750Y-95472630D01*
X204671745Y-95472631D01*
X204501476Y-95532211D01*
X204348739Y-95628183D01*
X204282320Y-95694602D01*
X204220996Y-95728086D01*
X204151305Y-95723101D01*
X204128667Y-95711914D01*
X204057523Y-95667211D01*
X203887254Y-95607631D01*
X203887249Y-95607630D01*
X203708004Y-95587435D01*
X203707996Y-95587435D01*
X203528750Y-95607630D01*
X203528745Y-95607631D01*
X203358476Y-95667211D01*
X203205737Y-95763184D01*
X203078184Y-95890737D01*
X202982211Y-96043476D01*
X202922631Y-96213745D01*
X202922630Y-96213750D01*
X202902435Y-96392996D01*
X201578256Y-96392996D01*
X201572369Y-96340750D01*
X201572368Y-96340745D01*
X201561087Y-96308506D01*
X201512789Y-96170478D01*
X201489927Y-96134094D01*
X201470257Y-96102789D01*
X201416816Y-96017738D01*
X201289262Y-95890184D01*
X201232295Y-95854389D01*
X201136523Y-95794211D01*
X200966254Y-95734631D01*
X200966249Y-95734630D01*
X200787004Y-95714435D01*
X200786996Y-95714435D01*
X200607750Y-95734630D01*
X200607745Y-95734631D01*
X200437476Y-95794211D01*
X200284737Y-95890184D01*
X200157184Y-96017737D01*
X200061211Y-96170476D01*
X200001631Y-96340745D01*
X200001630Y-96340750D01*
X199981435Y-96519996D01*
X197731025Y-96519996D01*
X197664255Y-96496632D01*
X197664252Y-96496631D01*
X197660132Y-96495190D01*
X197603356Y-96454468D01*
X197584045Y-96419103D01*
X197563897Y-96361522D01*
X197556574Y-96340593D01*
X197476873Y-96213750D01*
X197460600Y-96187852D01*
X197333046Y-96060298D01*
X197306274Y-96043476D01*
X197180307Y-95964325D01*
X197010038Y-95904745D01*
X197010033Y-95904744D01*
X196830788Y-95884549D01*
X196830787Y-95884549D01*
X196830785Y-95884549D01*
X196830784Y-95884549D01*
X196801344Y-95887865D01*
X196783029Y-95889929D01*
X196714207Y-95877872D01*
X196681467Y-95854389D01*
X196590262Y-95763184D01*
X196437523Y-95667211D01*
X196267254Y-95607631D01*
X196267250Y-95607630D01*
X196220182Y-95602327D01*
X196155768Y-95575260D01*
X196116214Y-95517664D01*
X196114077Y-95447827D01*
X196146386Y-95391426D01*
X196160817Y-95376996D01*
X206966435Y-95376996D01*
X206966435Y-95377003D01*
X206986630Y-95556249D01*
X206986631Y-95556254D01*
X207046211Y-95726523D01*
X207126555Y-95854389D01*
X207142184Y-95879262D01*
X207269738Y-96006816D01*
X207422478Y-96102789D01*
X207475474Y-96121333D01*
X207592745Y-96162368D01*
X207592750Y-96162369D01*
X207771996Y-96182565D01*
X207772000Y-96182565D01*
X207772004Y-96182565D01*
X207951249Y-96162369D01*
X207951252Y-96162368D01*
X207951255Y-96162368D01*
X208121522Y-96102789D01*
X208274262Y-96006816D01*
X208401816Y-95879262D01*
X208497789Y-95726522D01*
X208557368Y-95556255D01*
X208557369Y-95556249D01*
X208577565Y-95377003D01*
X208577565Y-95376996D01*
X208557369Y-95197750D01*
X208557368Y-95197745D01*
X208531215Y-95123003D01*
X208497789Y-95027478D01*
X208401816Y-94874738D01*
X208274262Y-94747184D01*
X208188443Y-94693260D01*
X208121523Y-94651211D01*
X207951254Y-94591631D01*
X207951249Y-94591630D01*
X207772004Y-94571435D01*
X207771996Y-94571435D01*
X207592750Y-94591630D01*
X207592745Y-94591631D01*
X207422476Y-94651211D01*
X207269737Y-94747184D01*
X207142184Y-94874737D01*
X207046211Y-95027476D01*
X206986631Y-95197745D01*
X206986630Y-95197750D01*
X206966435Y-95376996D01*
X196160817Y-95376996D01*
X196166551Y-95371262D01*
X196262524Y-95218522D01*
X196322103Y-95048255D01*
X196322719Y-95042787D01*
X196342300Y-94869003D01*
X196342300Y-94868996D01*
X196322104Y-94689750D01*
X196322103Y-94689745D01*
X196287771Y-94591630D01*
X196262524Y-94519478D01*
X196246002Y-94493184D01*
X196166550Y-94366737D01*
X196038997Y-94239184D01*
X195886258Y-94143211D01*
X195882786Y-94141996D01*
X208363435Y-94141996D01*
X208363435Y-94142003D01*
X208383630Y-94321249D01*
X208383631Y-94321254D01*
X208443211Y-94491523D01*
X208506113Y-94591630D01*
X208539184Y-94644262D01*
X208666738Y-94771816D01*
X208757080Y-94828582D01*
X208788375Y-94848246D01*
X208819478Y-94867789D01*
X208989745Y-94927368D01*
X208989750Y-94927369D01*
X209147687Y-94945164D01*
X209212101Y-94972230D01*
X209251656Y-95029825D01*
X209257024Y-95082267D01*
X209252435Y-95122996D01*
X209252435Y-95123003D01*
X209272630Y-95302249D01*
X209272631Y-95302254D01*
X209332211Y-95472523D01*
X209413773Y-95602327D01*
X209428184Y-95625262D01*
X209555738Y-95752816D01*
X209708478Y-95848789D01*
X209845811Y-95896844D01*
X209878745Y-95908368D01*
X209878750Y-95908369D01*
X210057996Y-95928565D01*
X210058000Y-95928565D01*
X210058004Y-95928565D01*
X210237249Y-95908369D01*
X210237252Y-95908368D01*
X210237255Y-95908368D01*
X210407522Y-95848789D01*
X210560262Y-95752816D01*
X210687816Y-95625262D01*
X210783789Y-95472522D01*
X210843368Y-95302255D01*
X210843369Y-95302249D01*
X210863565Y-95123003D01*
X210863565Y-95122996D01*
X210843369Y-94943750D01*
X210843368Y-94943745D01*
X210818445Y-94872519D01*
X210783789Y-94773478D01*
X210767267Y-94747184D01*
X210718139Y-94668997D01*
X210687816Y-94620738D01*
X210560262Y-94493184D01*
X210554784Y-94489742D01*
X210407523Y-94397211D01*
X210237254Y-94337631D01*
X210237250Y-94337630D01*
X210079311Y-94319835D01*
X210014897Y-94292768D01*
X209975342Y-94235173D01*
X209969975Y-94182733D01*
X209974565Y-94142000D01*
X209973254Y-94130368D01*
X209954369Y-93962750D01*
X209954368Y-93962745D01*
X209947532Y-93943208D01*
X209894789Y-93792478D01*
X209798816Y-93639738D01*
X209671262Y-93512184D01*
X209569060Y-93447966D01*
X209518523Y-93416211D01*
X209348254Y-93356631D01*
X209348249Y-93356630D01*
X209244989Y-93344996D01*
X210268435Y-93344996D01*
X210268435Y-93345003D01*
X210288630Y-93524249D01*
X210288631Y-93524254D01*
X210348211Y-93694523D01*
X210409761Y-93792478D01*
X210444184Y-93847262D01*
X210571738Y-93974816D01*
X210724478Y-94070789D01*
X210849903Y-94114677D01*
X210894745Y-94130368D01*
X210894750Y-94130369D01*
X211073996Y-94150565D01*
X211074000Y-94150565D01*
X211074004Y-94150565D01*
X211253249Y-94130369D01*
X211253252Y-94130368D01*
X211253255Y-94130368D01*
X211423522Y-94070789D01*
X211576262Y-93974816D01*
X211703816Y-93847262D01*
X211799789Y-93694522D01*
X211859368Y-93524255D01*
X211871542Y-93416211D01*
X211879565Y-93345003D01*
X211879565Y-93344996D01*
X211859369Y-93165750D01*
X211859368Y-93165745D01*
X211844572Y-93123460D01*
X211799789Y-92995478D01*
X211703816Y-92842738D01*
X211576262Y-92715184D01*
X211423523Y-92619211D01*
X211253254Y-92559631D01*
X211253249Y-92559630D01*
X211074004Y-92539435D01*
X211073996Y-92539435D01*
X210894750Y-92559630D01*
X210894745Y-92559631D01*
X210724476Y-92619211D01*
X210571737Y-92715184D01*
X210444184Y-92842737D01*
X210348211Y-92995476D01*
X210288631Y-93165745D01*
X210288630Y-93165750D01*
X210268435Y-93344996D01*
X209244989Y-93344996D01*
X209169004Y-93336435D01*
X209168996Y-93336435D01*
X208989750Y-93356630D01*
X208989745Y-93356631D01*
X208819476Y-93416211D01*
X208666737Y-93512184D01*
X208539184Y-93639737D01*
X208443211Y-93792476D01*
X208383631Y-93962745D01*
X208383630Y-93962750D01*
X208363435Y-94141996D01*
X195882786Y-94141996D01*
X195715989Y-94083631D01*
X195715984Y-94083630D01*
X195536739Y-94063435D01*
X195536731Y-94063435D01*
X195357485Y-94083630D01*
X195357471Y-94083633D01*
X195342294Y-94088944D01*
X195272515Y-94092503D01*
X195213663Y-94059582D01*
X195193262Y-94039181D01*
X195040523Y-93943208D01*
X194870254Y-93883628D01*
X194870249Y-93883627D01*
X194691004Y-93863432D01*
X194690996Y-93863432D01*
X194511750Y-93883627D01*
X194511745Y-93883628D01*
X194341476Y-93943208D01*
X194188737Y-94039181D01*
X194061184Y-94166734D01*
X193965211Y-94319473D01*
X193905631Y-94489742D01*
X193905630Y-94489747D01*
X193885435Y-94668993D01*
X193885435Y-94669000D01*
X193905630Y-94848246D01*
X193905633Y-94848259D01*
X193967510Y-95025091D01*
X193965366Y-95025840D01*
X193974960Y-95084158D01*
X193966612Y-95112592D01*
X193967510Y-95112906D01*
X193905633Y-95289737D01*
X193905631Y-95289748D01*
X193904532Y-95299501D01*
X193877463Y-95363914D01*
X193819867Y-95403468D01*
X193750030Y-95405603D01*
X193740357Y-95402655D01*
X193600262Y-95353633D01*
X193600249Y-95353630D01*
X193421004Y-95333435D01*
X193420996Y-95333435D01*
X193241750Y-95353630D01*
X193241745Y-95353631D01*
X193071476Y-95413211D01*
X192918737Y-95509184D01*
X192791184Y-95636737D01*
X192695211Y-95789476D01*
X192635631Y-95959745D01*
X192635630Y-95959750D01*
X192615435Y-96138996D01*
X191138431Y-96138996D01*
X191158368Y-96082020D01*
X191158369Y-96082014D01*
X191178565Y-95902768D01*
X191178565Y-95902761D01*
X191158369Y-95723515D01*
X191158366Y-95723502D01*
X191103933Y-95567943D01*
X191100371Y-95498164D01*
X191135099Y-95437537D01*
X191155002Y-95421994D01*
X191168980Y-95413211D01*
X191312423Y-95323080D01*
X191439977Y-95195526D01*
X191535950Y-95042786D01*
X191595529Y-94872519D01*
X191595925Y-94869003D01*
X191615726Y-94693267D01*
X191615726Y-94693260D01*
X191595530Y-94514014D01*
X191595529Y-94514009D01*
X191587038Y-94489742D01*
X191535950Y-94343742D01*
X191521820Y-94321255D01*
X191470252Y-94239184D01*
X191439977Y-94191002D01*
X191312423Y-94063448D01*
X191306270Y-94059582D01*
X191159684Y-93967475D01*
X190989415Y-93907895D01*
X190989410Y-93907894D01*
X190810165Y-93887699D01*
X190810157Y-93887699D01*
X190630911Y-93907894D01*
X190630906Y-93907895D01*
X190460637Y-93967475D01*
X190307898Y-94063448D01*
X190180345Y-94191001D01*
X190084372Y-94343740D01*
X190024792Y-94514009D01*
X190024791Y-94514014D01*
X190004596Y-94693260D01*
X190004596Y-94693267D01*
X190024791Y-94872513D01*
X190024792Y-94872518D01*
X190059683Y-94972230D01*
X190079015Y-95027478D01*
X190079228Y-95028085D01*
X190082789Y-95097864D01*
X190048060Y-95158492D01*
X190028159Y-95174033D01*
X189870739Y-95272947D01*
X189743184Y-95400502D01*
X189647211Y-95553241D01*
X189587631Y-95723510D01*
X189587630Y-95723515D01*
X189567435Y-95902761D01*
X186848257Y-95902761D01*
X186840369Y-95832750D01*
X186840368Y-95832745D01*
X186825228Y-95789478D01*
X186780789Y-95662478D01*
X186764615Y-95636738D01*
X186721389Y-95567943D01*
X186684816Y-95509738D01*
X186557262Y-95382184D01*
X186404523Y-95286211D01*
X186234254Y-95226631D01*
X186234249Y-95226630D01*
X186055004Y-95206435D01*
X186054996Y-95206435D01*
X185875750Y-95226630D01*
X185875745Y-95226631D01*
X185705476Y-95286211D01*
X185552737Y-95382184D01*
X185425184Y-95509737D01*
X185329211Y-95662476D01*
X185269631Y-95832745D01*
X185269630Y-95832750D01*
X185249435Y-96011996D01*
X177665500Y-96011996D01*
X177665500Y-92353648D01*
X179039500Y-92353648D01*
X179039500Y-92558352D01*
X179039703Y-92559631D01*
X179071522Y-92760534D01*
X179134781Y-92955223D01*
X179177341Y-93038750D01*
X179220503Y-93123460D01*
X179227715Y-93137613D01*
X179348028Y-93303213D01*
X179492786Y-93447971D01*
X179647749Y-93560556D01*
X179658390Y-93568287D01*
X179774607Y-93627503D01*
X179840776Y-93661218D01*
X179840778Y-93661218D01*
X179840781Y-93661220D01*
X179943274Y-93694522D01*
X180035465Y-93724477D01*
X180136557Y-93740488D01*
X180237648Y-93756500D01*
X180237649Y-93756500D01*
X180442351Y-93756500D01*
X180442352Y-93756500D01*
X180644534Y-93724477D01*
X180839219Y-93661220D01*
X181021610Y-93568287D01*
X181114590Y-93500732D01*
X181187213Y-93447971D01*
X181187215Y-93447968D01*
X181187219Y-93447966D01*
X181331966Y-93303219D01*
X181331968Y-93303215D01*
X181331971Y-93303213D01*
X181384732Y-93230590D01*
X181393882Y-93217996D01*
X200870435Y-93217996D01*
X200870435Y-93218003D01*
X200890630Y-93397249D01*
X200890631Y-93397254D01*
X200950211Y-93567523D01*
X200995587Y-93639738D01*
X201046184Y-93720262D01*
X201173738Y-93847816D01*
X201326478Y-93943789D01*
X201415148Y-93974816D01*
X201496745Y-94003368D01*
X201496750Y-94003369D01*
X201675996Y-94023565D01*
X201676000Y-94023565D01*
X201676004Y-94023565D01*
X201855249Y-94003369D01*
X201855252Y-94003368D01*
X201855255Y-94003368D01*
X202025522Y-93943789D01*
X202178262Y-93847816D01*
X202305816Y-93720262D01*
X202401789Y-93567522D01*
X202461368Y-93397255D01*
X202465945Y-93356632D01*
X202481565Y-93218003D01*
X202481565Y-93217996D01*
X202461369Y-93038750D01*
X202461368Y-93038745D01*
X202446228Y-92995478D01*
X202401789Y-92868478D01*
X202385615Y-92842738D01*
X202359257Y-92800789D01*
X202305816Y-92715738D01*
X202178262Y-92588184D01*
X202132822Y-92559632D01*
X202060940Y-92514465D01*
X203393200Y-92514465D01*
X203393200Y-92651534D01*
X203419937Y-92785949D01*
X203419940Y-92785961D01*
X203472386Y-92912578D01*
X203472393Y-92912591D01*
X203548536Y-93026546D01*
X203548539Y-93026550D01*
X203645449Y-93123460D01*
X203645453Y-93123463D01*
X203759408Y-93199606D01*
X203759421Y-93199613D01*
X203886038Y-93252059D01*
X203886043Y-93252061D01*
X204020465Y-93278799D01*
X204020469Y-93278800D01*
X204020470Y-93278800D01*
X204157531Y-93278800D01*
X204157532Y-93278799D01*
X204291957Y-93252061D01*
X204418585Y-93199610D01*
X204532547Y-93123463D01*
X204629463Y-93026547D01*
X204705610Y-92912585D01*
X204758061Y-92785957D01*
X204784800Y-92651530D01*
X204784800Y-92514470D01*
X204758061Y-92380043D01*
X204747128Y-92353648D01*
X204705613Y-92253421D01*
X204705606Y-92253408D01*
X204629463Y-92139453D01*
X204629460Y-92139449D01*
X204532550Y-92042539D01*
X204532546Y-92042536D01*
X204418591Y-91966393D01*
X204418578Y-91966386D01*
X204291961Y-91913940D01*
X204291949Y-91913937D01*
X204157534Y-91887200D01*
X204157530Y-91887200D01*
X204020470Y-91887200D01*
X204020465Y-91887200D01*
X203886050Y-91913937D01*
X203886038Y-91913940D01*
X203759421Y-91966386D01*
X203759408Y-91966393D01*
X203645453Y-92042536D01*
X203645449Y-92042539D01*
X203548539Y-92139449D01*
X203548536Y-92139453D01*
X203472393Y-92253408D01*
X203472386Y-92253421D01*
X203419940Y-92380038D01*
X203419937Y-92380050D01*
X203393200Y-92514465D01*
X202060940Y-92514465D01*
X202025523Y-92492211D01*
X201855254Y-92432631D01*
X201855249Y-92432630D01*
X201676004Y-92412435D01*
X201675996Y-92412435D01*
X201496750Y-92432630D01*
X201496745Y-92432631D01*
X201326476Y-92492211D01*
X201173737Y-92588184D01*
X201046184Y-92715737D01*
X200950211Y-92868476D01*
X200890631Y-93038745D01*
X200890630Y-93038750D01*
X200870435Y-93217996D01*
X181393882Y-93217996D01*
X181452287Y-93137610D01*
X181545220Y-92955219D01*
X181608477Y-92760534D01*
X181640500Y-92558352D01*
X181640500Y-92353648D01*
X181626111Y-92262799D01*
X181608477Y-92151465D01*
X181583630Y-92074996D01*
X185376435Y-92074996D01*
X185376435Y-92075003D01*
X185396630Y-92254249D01*
X185396631Y-92254254D01*
X185456211Y-92424523D01*
X185512729Y-92514470D01*
X185552184Y-92577262D01*
X185679738Y-92704816D01*
X185832478Y-92800789D01*
X186002745Y-92860368D01*
X186002750Y-92860369D01*
X186181996Y-92880565D01*
X186182000Y-92880565D01*
X186182004Y-92880565D01*
X186361249Y-92860369D01*
X186361252Y-92860368D01*
X186361255Y-92860368D01*
X186531522Y-92800789D01*
X186684262Y-92704816D01*
X186811816Y-92577262D01*
X186907789Y-92424522D01*
X186967368Y-92254255D01*
X186967463Y-92253415D01*
X186987565Y-92075003D01*
X186987565Y-92074996D01*
X186967369Y-91895750D01*
X186967368Y-91895745D01*
X186924904Y-91774390D01*
X186907789Y-91725478D01*
X186811816Y-91572738D01*
X186737543Y-91498465D01*
X211013200Y-91498465D01*
X211013200Y-91635534D01*
X211039937Y-91769949D01*
X211039940Y-91769961D01*
X211092386Y-91896578D01*
X211092393Y-91896591D01*
X211168536Y-92010546D01*
X211168539Y-92010550D01*
X211265449Y-92107460D01*
X211265453Y-92107463D01*
X211379408Y-92183606D01*
X211379421Y-92183613D01*
X211506038Y-92236059D01*
X211506043Y-92236061D01*
X211640465Y-92262799D01*
X211640469Y-92262800D01*
X211640470Y-92262800D01*
X211777531Y-92262800D01*
X211777532Y-92262799D01*
X211911957Y-92236061D01*
X212038585Y-92183610D01*
X212152547Y-92107463D01*
X212249463Y-92010547D01*
X212325610Y-91896585D01*
X212378061Y-91769957D01*
X212404800Y-91635530D01*
X212404800Y-91498470D01*
X212378061Y-91364043D01*
X212374964Y-91356565D01*
X212325613Y-91237421D01*
X212325606Y-91237408D01*
X212249463Y-91123453D01*
X212249460Y-91123449D01*
X212152550Y-91026539D01*
X212152546Y-91026536D01*
X212038591Y-90950393D01*
X212038578Y-90950386D01*
X211911961Y-90897940D01*
X211911949Y-90897937D01*
X211777534Y-90871200D01*
X211777530Y-90871200D01*
X211640470Y-90871200D01*
X211640465Y-90871200D01*
X211506050Y-90897937D01*
X211506038Y-90897940D01*
X211379421Y-90950386D01*
X211379408Y-90950393D01*
X211265453Y-91026536D01*
X211265449Y-91026539D01*
X211168539Y-91123449D01*
X211168536Y-91123453D01*
X211092393Y-91237408D01*
X211092386Y-91237421D01*
X211039940Y-91364038D01*
X211039937Y-91364050D01*
X211013200Y-91498465D01*
X186737543Y-91498465D01*
X186684262Y-91445184D01*
X186531523Y-91349211D01*
X186361254Y-91289631D01*
X186361249Y-91289630D01*
X186182004Y-91269435D01*
X186181996Y-91269435D01*
X186002750Y-91289630D01*
X186002745Y-91289631D01*
X185832476Y-91349211D01*
X185679737Y-91445184D01*
X185552184Y-91572737D01*
X185456211Y-91725476D01*
X185396631Y-91895745D01*
X185396630Y-91895750D01*
X185376435Y-92074996D01*
X181583630Y-92074996D01*
X181573083Y-92042536D01*
X181545220Y-91956781D01*
X181545218Y-91956778D01*
X181545218Y-91956776D01*
X181509767Y-91887200D01*
X181452287Y-91774390D01*
X181416751Y-91725478D01*
X181331971Y-91608786D01*
X181187213Y-91464028D01*
X181021613Y-91343715D01*
X181021612Y-91343714D01*
X181021610Y-91343713D01*
X180964653Y-91314691D01*
X180839223Y-91250781D01*
X180644534Y-91187522D01*
X180469995Y-91159878D01*
X180442352Y-91155500D01*
X180237648Y-91155500D01*
X180213329Y-91159351D01*
X180035465Y-91187522D01*
X179840776Y-91250781D01*
X179658386Y-91343715D01*
X179492786Y-91464028D01*
X179348028Y-91608786D01*
X179227715Y-91774386D01*
X179134781Y-91956776D01*
X179071522Y-92151465D01*
X179053889Y-92262799D01*
X179039500Y-92353648D01*
X177665500Y-92353648D01*
X177665500Y-90331996D01*
X189708763Y-90331996D01*
X189708763Y-90332003D01*
X189728958Y-90511249D01*
X189728959Y-90511254D01*
X189788539Y-90681523D01*
X189819156Y-90730249D01*
X189884512Y-90834262D01*
X190012066Y-90961816D01*
X190164806Y-91057789D01*
X190261041Y-91091463D01*
X190335073Y-91117368D01*
X190335078Y-91117369D01*
X190514324Y-91137565D01*
X190514328Y-91137565D01*
X190514332Y-91137565D01*
X190693577Y-91117369D01*
X190693580Y-91117368D01*
X190693583Y-91117368D01*
X190863850Y-91057789D01*
X191016590Y-90961816D01*
X191144144Y-90834262D01*
X191240117Y-90681522D01*
X191285790Y-90550996D01*
X191865434Y-90550996D01*
X191865434Y-90551003D01*
X191885629Y-90730249D01*
X191885630Y-90730254D01*
X191945210Y-90900523D01*
X192024392Y-91026539D01*
X192041183Y-91053262D01*
X192168737Y-91180816D01*
X192231192Y-91220059D01*
X192280085Y-91250781D01*
X192321477Y-91276789D01*
X192491744Y-91336368D01*
X192491749Y-91336369D01*
X192670995Y-91356565D01*
X192670999Y-91356565D01*
X192671003Y-91356565D01*
X192850248Y-91336369D01*
X192850251Y-91336368D01*
X192850254Y-91336368D01*
X193020521Y-91276789D01*
X193173261Y-91180816D01*
X193300815Y-91053262D01*
X193396788Y-90900522D01*
X193456367Y-90730255D01*
X193468842Y-90619534D01*
X193476564Y-90551003D01*
X193476564Y-90550996D01*
X193456368Y-90371750D01*
X193456367Y-90371745D01*
X193396787Y-90201476D01*
X193354256Y-90133789D01*
X193300815Y-90048738D01*
X193173261Y-89921184D01*
X193020522Y-89825211D01*
X192850253Y-89765631D01*
X192850248Y-89765630D01*
X192671003Y-89745435D01*
X192670995Y-89745435D01*
X192491749Y-89765630D01*
X192491744Y-89765631D01*
X192321475Y-89825211D01*
X192168736Y-89921184D01*
X192041183Y-90048737D01*
X191945210Y-90201476D01*
X191885630Y-90371745D01*
X191885629Y-90371750D01*
X191865434Y-90550996D01*
X191285790Y-90550996D01*
X191299696Y-90511255D01*
X191299697Y-90511249D01*
X191319893Y-90332003D01*
X191319893Y-90331996D01*
X191299697Y-90152750D01*
X191299696Y-90152745D01*
X191283846Y-90107449D01*
X191240117Y-89982478D01*
X191144144Y-89829738D01*
X191016590Y-89702184D01*
X190983721Y-89681531D01*
X190863851Y-89606211D01*
X190693582Y-89546631D01*
X190693577Y-89546630D01*
X190514332Y-89526435D01*
X190514324Y-89526435D01*
X190400313Y-89539280D01*
X190331491Y-89527225D01*
X190290128Y-89489106D01*
X190272451Y-89543138D01*
X190218272Y-89587256D01*
X190211191Y-89589979D01*
X190164807Y-89606209D01*
X190012065Y-89702184D01*
X189884512Y-89829737D01*
X189788539Y-89982476D01*
X189728959Y-90152745D01*
X189728958Y-90152750D01*
X189708763Y-90331996D01*
X177665500Y-90331996D01*
X177665500Y-89407996D01*
X193504435Y-89407996D01*
X193504435Y-89408003D01*
X193524630Y-89587249D01*
X193524631Y-89587254D01*
X193584211Y-89757523D01*
X193629587Y-89829738D01*
X193680184Y-89910262D01*
X193807738Y-90037816D01*
X193850382Y-90064611D01*
X193918564Y-90107453D01*
X193960478Y-90133789D01*
X194083611Y-90176875D01*
X194130745Y-90193368D01*
X194130750Y-90193369D01*
X194309996Y-90213565D01*
X194310000Y-90213565D01*
X194310004Y-90213565D01*
X194489249Y-90193369D01*
X194489252Y-90193368D01*
X194489255Y-90193368D01*
X194659522Y-90133789D01*
X194701436Y-90107453D01*
X194739378Y-90083612D01*
X194806615Y-90064611D01*
X194873450Y-90084978D01*
X194918665Y-90138246D01*
X194926901Y-90177063D01*
X194928571Y-90176875D01*
X194949546Y-90363043D01*
X194949547Y-90363048D01*
X195009127Y-90533317D01*
X195063301Y-90619534D01*
X195105100Y-90686056D01*
X195232654Y-90813610D01*
X195322996Y-90870376D01*
X195370973Y-90900522D01*
X195385394Y-90909583D01*
X195534667Y-90961816D01*
X195555661Y-90969162D01*
X195555666Y-90969163D01*
X195734912Y-90989359D01*
X195734916Y-90989359D01*
X195734920Y-90989359D01*
X195914165Y-90969163D01*
X195914168Y-90969162D01*
X195914171Y-90969162D01*
X196084438Y-90909583D01*
X196237178Y-90813610D01*
X196364732Y-90686056D01*
X196460705Y-90533316D01*
X196478499Y-90482465D01*
X203393200Y-90482465D01*
X203393200Y-90619534D01*
X203419937Y-90753949D01*
X203419940Y-90753961D01*
X203472386Y-90880578D01*
X203472393Y-90880591D01*
X203548536Y-90994546D01*
X203548539Y-90994550D01*
X203645449Y-91091460D01*
X203645453Y-91091463D01*
X203759408Y-91167606D01*
X203759421Y-91167613D01*
X203886038Y-91220059D01*
X203886043Y-91220061D01*
X204020465Y-91246799D01*
X204020469Y-91246800D01*
X204020470Y-91246800D01*
X204157531Y-91246800D01*
X204157532Y-91246799D01*
X204291957Y-91220061D01*
X204418585Y-91167610D01*
X204532547Y-91091463D01*
X204629463Y-90994547D01*
X204705610Y-90880585D01*
X204758061Y-90753957D01*
X204784800Y-90619530D01*
X204784800Y-90482470D01*
X204758061Y-90348043D01*
X204751414Y-90331996D01*
X204705613Y-90221421D01*
X204705606Y-90221408D01*
X204629463Y-90107453D01*
X204629460Y-90107449D01*
X204532550Y-90010539D01*
X204532546Y-90010536D01*
X204418591Y-89934393D01*
X204418578Y-89934386D01*
X204291961Y-89881940D01*
X204291949Y-89881937D01*
X204157534Y-89855200D01*
X204157530Y-89855200D01*
X204020470Y-89855200D01*
X204020465Y-89855200D01*
X203886050Y-89881937D01*
X203886038Y-89881940D01*
X203759421Y-89934386D01*
X203759408Y-89934393D01*
X203645453Y-90010536D01*
X203645449Y-90010539D01*
X203548539Y-90107449D01*
X203548536Y-90107453D01*
X203472393Y-90221408D01*
X203472386Y-90221421D01*
X203419940Y-90348038D01*
X203419937Y-90348050D01*
X203393200Y-90482465D01*
X196478499Y-90482465D01*
X196520284Y-90363049D01*
X196521975Y-90348043D01*
X196540481Y-90183797D01*
X196540481Y-90183790D01*
X196520285Y-90004544D01*
X196520284Y-90004539D01*
X196460705Y-89834272D01*
X196457855Y-89829737D01*
X196404885Y-89745435D01*
X196364732Y-89681532D01*
X196237178Y-89553978D01*
X196194601Y-89527225D01*
X196084439Y-89458005D01*
X195914170Y-89398425D01*
X195914165Y-89398424D01*
X195734920Y-89378229D01*
X195734912Y-89378229D01*
X195555666Y-89398424D01*
X195555661Y-89398425D01*
X195385392Y-89458005D01*
X195305537Y-89508182D01*
X195238300Y-89527182D01*
X195171465Y-89506814D01*
X195126251Y-89453546D01*
X195118014Y-89414730D01*
X195116345Y-89414919D01*
X195095369Y-89228750D01*
X195095368Y-89228745D01*
X195061705Y-89132542D01*
X195035789Y-89058478D01*
X195032148Y-89052684D01*
X194983677Y-88975543D01*
X194939816Y-88905738D01*
X194812262Y-88778184D01*
X194659523Y-88682211D01*
X194489254Y-88622631D01*
X194489249Y-88622630D01*
X194310004Y-88602435D01*
X194309996Y-88602435D01*
X194130750Y-88622630D01*
X194130745Y-88622631D01*
X193960476Y-88682211D01*
X193807737Y-88778184D01*
X193680184Y-88905737D01*
X193584211Y-89058476D01*
X193524631Y-89228745D01*
X193524630Y-89228750D01*
X193504435Y-89407996D01*
X177665500Y-89407996D01*
X177665500Y-88381500D01*
X177685185Y-88314461D01*
X177737989Y-88268706D01*
X177789500Y-88257500D01*
X189131762Y-88257500D01*
X189198801Y-88277185D01*
G37*
%TD.AperFunction*%
%TD*%
M02*
