%TF.GenerationSoftware,KiCad,Pcbnew,9.0.5-9.0.5~ubuntu24.04.1*%
%TF.CreationDate,2025-10-22T19:45:33-05:00*%
%TF.ProjectId,can_distance_sensor,63616e5f-6469-4737-9461-6e63655f7365,rev?*%
%TF.SameCoordinates,Original*%
%TF.FileFunction,Soldermask,Top*%
%TF.FilePolarity,Negative*%
%FSLAX46Y46*%
G04 Gerber Fmt 4.6, Leading zero omitted, Abs format (unit mm)*
G04 Created by KiCad (PCBNEW 9.0.5-9.0.5~ubuntu24.04.1) date 2025-10-22 19:45:33*
%MOMM*%
%LPD*%
G01*
G04 APERTURE LIST*
G04 Aperture macros list*
%AMRoundRect*
0 Rectangle with rounded corners*
0 $1 Rounding radius*
0 $2 $3 $4 $5 $6 $7 $8 $9 X,Y pos of 4 corners*
0 Add a 4 corners polygon primitive as box body*
4,1,4,$2,$3,$4,$5,$6,$7,$8,$9,$2,$3,0*
0 Add four circle primitives for the rounded corners*
1,1,$1+$1,$2,$3*
1,1,$1+$1,$4,$5*
1,1,$1+$1,$6,$7*
1,1,$1+$1,$8,$9*
0 Add four rect primitives between the rounded corners*
20,1,$1+$1,$2,$3,$4,$5,0*
20,1,$1+$1,$4,$5,$6,$7,0*
20,1,$1+$1,$6,$7,$8,$9,0*
20,1,$1+$1,$8,$9,$2,$3,0*%
%AMFreePoly0*
4,1,23,0.550000,-0.750000,0.000000,-0.750000,0.000000,-0.745722,-0.065263,-0.745722,-0.191342,-0.711940,-0.304381,-0.646677,-0.396677,-0.554381,-0.461940,-0.441342,-0.495722,-0.315263,-0.495722,-0.250000,-0.500000,-0.250000,-0.500000,0.250000,-0.495722,0.250000,-0.495722,0.315263,-0.461940,0.441342,-0.396677,0.554381,-0.304381,0.646677,-0.191342,0.711940,-0.065263,0.745722,0.000000,0.745722,
0.000000,0.750000,0.550000,0.750000,0.550000,-0.750000,0.550000,-0.750000,$1*%
%AMFreePoly1*
4,1,23,0.000000,0.745722,0.065263,0.745722,0.191342,0.711940,0.304381,0.646677,0.396677,0.554381,0.461940,0.441342,0.495722,0.315263,0.495722,0.250000,0.500000,0.250000,0.500000,-0.250000,0.495722,-0.250000,0.495722,-0.315263,0.461940,-0.441342,0.396677,-0.554381,0.304381,-0.646677,0.191342,-0.711940,0.065263,-0.745722,0.000000,-0.745722,0.000000,-0.750000,-0.550000,-0.750000,
-0.550000,0.750000,0.000000,0.750000,0.000000,0.745722,0.000000,0.745722,$1*%
G04 Aperture macros list end*
%ADD10RoundRect,0.102000X-0.800000X1.500000X-0.800000X-1.500000X0.800000X-1.500000X0.800000X1.500000X0*%
%ADD11RoundRect,0.102000X-3.350000X3.350000X-3.350000X-3.350000X3.350000X-3.350000X3.350000X3.350000X0*%
%ADD12RoundRect,0.150000X0.150000X-0.587500X0.150000X0.587500X-0.150000X0.587500X-0.150000X-0.587500X0*%
%ADD13RoundRect,0.225000X0.375000X-0.225000X0.375000X0.225000X-0.375000X0.225000X-0.375000X-0.225000X0*%
%ADD14RoundRect,0.140000X-0.140000X-0.170000X0.140000X-0.170000X0.140000X0.170000X-0.140000X0.170000X0*%
%ADD15RoundRect,0.150000X-0.587500X-0.150000X0.587500X-0.150000X0.587500X0.150000X-0.587500X0.150000X0*%
%ADD16RoundRect,0.140000X0.170000X-0.140000X0.170000X0.140000X-0.170000X0.140000X-0.170000X-0.140000X0*%
%ADD17R,1.422400X0.431800*%
%ADD18RoundRect,0.140000X-0.170000X0.140000X-0.170000X-0.140000X0.170000X-0.140000X0.170000X0.140000X0*%
%ADD19RoundRect,0.250000X0.625000X-0.350000X0.625000X0.350000X-0.625000X0.350000X-0.625000X-0.350000X0*%
%ADD20O,1.750000X1.200000*%
%ADD21RoundRect,0.225000X0.225000X0.375000X-0.225000X0.375000X-0.225000X-0.375000X0.225000X-0.375000X0*%
%ADD22C,2.200000*%
%ADD23RoundRect,0.225000X-0.250000X0.225000X-0.250000X-0.225000X0.250000X-0.225000X0.250000X0.225000X0*%
%ADD24RoundRect,0.250000X-0.625000X0.350000X-0.625000X-0.350000X0.625000X-0.350000X0.625000X0.350000X0*%
%ADD25RoundRect,0.135000X0.135000X0.185000X-0.135000X0.185000X-0.135000X-0.185000X0.135000X-0.185000X0*%
%ADD26RoundRect,0.135000X-0.135000X-0.185000X0.135000X-0.185000X0.135000X0.185000X-0.135000X0.185000X0*%
%ADD27RoundRect,0.225000X-0.225000X-0.250000X0.225000X-0.250000X0.225000X0.250000X-0.225000X0.250000X0*%
%ADD28RoundRect,0.218750X-0.218750X-0.256250X0.218750X-0.256250X0.218750X0.256250X-0.218750X0.256250X0*%
%ADD29RoundRect,0.150000X-0.512500X-0.150000X0.512500X-0.150000X0.512500X0.150000X-0.512500X0.150000X0*%
%ADD30RoundRect,0.140000X0.140000X0.170000X-0.140000X0.170000X-0.140000X-0.170000X0.140000X-0.170000X0*%
%ADD31RoundRect,0.135000X-0.185000X0.135000X-0.185000X-0.135000X0.185000X-0.135000X0.185000X0.135000X0*%
%ADD32RoundRect,0.225000X0.250000X-0.225000X0.250000X0.225000X-0.250000X0.225000X-0.250000X-0.225000X0*%
%ADD33RoundRect,0.225000X0.225000X0.250000X-0.225000X0.250000X-0.225000X-0.250000X0.225000X-0.250000X0*%
%ADD34O,2.159000X1.168400*%
%ADD35O,2.667000X1.168400*%
%ADD36R,0.762000X0.330200*%
%ADD37R,0.762000X1.041400*%
%ADD38RoundRect,0.062500X0.375000X0.062500X-0.375000X0.062500X-0.375000X-0.062500X0.375000X-0.062500X0*%
%ADD39RoundRect,0.062500X0.062500X0.375000X-0.062500X0.375000X-0.062500X-0.375000X0.062500X-0.375000X0*%
%ADD40R,3.450000X3.450000*%
%ADD41R,1.200000X1.400000*%
%ADD42FreePoly0,180.000000*%
%ADD43R,1.000000X1.500000*%
%ADD44FreePoly1,180.000000*%
%ADD45R,0.508000X0.508000*%
%ADD46RoundRect,0.075000X-0.362500X-0.075000X0.362500X-0.075000X0.362500X0.075000X-0.362500X0.075000X0*%
%ADD47R,1.600000X2.400000*%
%ADD48C,0.990600*%
G04 APERTURE END LIST*
%TO.C,JP1*%
G36*
X178300000Y-106750000D02*
G01*
X176800000Y-106750000D01*
X176800000Y-105250000D01*
X178300000Y-105250000D01*
X178300000Y-106750000D01*
G37*
%TD*%
D10*
%TO.C,U2*%
X207151000Y-109428000D03*
D11*
X204851000Y-116078000D03*
D10*
X202551000Y-109428000D03*
%TD*%
D12*
%TO.C,D7*%
X206830000Y-103255500D03*
X208730000Y-103255500D03*
X207780000Y-101380500D03*
%TD*%
D13*
%TO.C,D5*%
X199144000Y-113112000D03*
X199144000Y-109812000D03*
%TD*%
D14*
%TO.C,C22*%
X181646000Y-115526000D03*
X182606000Y-115526000D03*
%TD*%
D15*
%TO.C,U4*%
X191721500Y-110556000D03*
X191721500Y-112456000D03*
X193596500Y-111506000D03*
%TD*%
%TO.C,D9*%
X175850500Y-108860000D03*
X175850500Y-110760000D03*
X177725500Y-109810000D03*
%TD*%
D16*
%TO.C,C9*%
X203860400Y-98066800D03*
X203860400Y-97106800D03*
%TD*%
D17*
%TO.C,U8*%
X188058300Y-99981001D03*
X188058300Y-100630999D03*
X188058300Y-101281001D03*
X188058300Y-101930999D03*
X192401700Y-101930999D03*
X192401700Y-101281001D03*
X192401700Y-100630999D03*
X192401700Y-99981001D03*
%TD*%
D18*
%TO.C,C8*%
X203716000Y-99806000D03*
X203716000Y-100766000D03*
%TD*%
D19*
%TO.C,J3*%
X212550000Y-103000000D03*
D20*
X212550000Y-101000000D03*
X212550000Y-99000000D03*
X212550000Y-97000000D03*
%TD*%
D21*
%TO.C,D6*%
X185046000Y-117558000D03*
X181746000Y-117558000D03*
%TD*%
D22*
%TO.C,H1*%
X181000000Y-112000000D03*
%TD*%
D23*
%TO.C,C28*%
X188984000Y-111303000D03*
X188984000Y-112853000D03*
%TD*%
D24*
%TO.C,J4*%
X172000000Y-107000000D03*
D20*
X172000000Y-109000000D03*
X172000000Y-111000000D03*
X172000000Y-113000000D03*
X172000000Y-115000000D03*
X172000000Y-117000000D03*
%TD*%
D14*
%TO.C,C23*%
X201966000Y-106636000D03*
X202926000Y-106636000D03*
%TD*%
D25*
%TO.C,R23*%
X196352000Y-101048000D03*
X195332000Y-101048000D03*
%TD*%
D26*
%TO.C,R7*%
X199261000Y-90932000D03*
X200281000Y-90932000D03*
%TD*%
%TO.C,R9*%
X212443500Y-91567000D03*
X213463500Y-91567000D03*
%TD*%
D27*
%TO.C,C1*%
X199504000Y-92964000D03*
X201054000Y-92964000D03*
%TD*%
D28*
%TO.C,D2*%
X209372000Y-93345000D03*
X210947000Y-93345000D03*
%TD*%
D23*
%TO.C,C17*%
X188984000Y-116167000D03*
X188984000Y-117717000D03*
%TD*%
D21*
%TO.C,D1*%
X183895000Y-101838000D03*
X180595000Y-101838000D03*
%TD*%
D25*
%TO.C,R17*%
X185176000Y-115526000D03*
X184156000Y-115526000D03*
%TD*%
D23*
%TO.C,C15*%
X196350000Y-116167000D03*
X196350000Y-117717000D03*
%TD*%
D26*
%TO.C,R8*%
X212443500Y-93345000D03*
X213463500Y-93345000D03*
%TD*%
D25*
%TO.C,R22*%
X196352000Y-102318000D03*
X195332000Y-102318000D03*
%TD*%
D29*
%TO.C,U1*%
X180345500Y-97713000D03*
X180345500Y-98663000D03*
X180345500Y-99613000D03*
X182620500Y-99613000D03*
X182620500Y-98663000D03*
X182620500Y-97713000D03*
%TD*%
D22*
%TO.C,H2*%
X211230000Y-116956000D03*
%TD*%
D30*
%TO.C,C24*%
X205212000Y-106636000D03*
X204252000Y-106636000D03*
%TD*%
D25*
%TO.C,R21*%
X196352000Y-99778000D03*
X195332000Y-99778000D03*
%TD*%
D31*
%TO.C,R3*%
X202446000Y-99776000D03*
X202446000Y-100796000D03*
%TD*%
D15*
%TO.C,Q2*%
X210771500Y-107508000D03*
X210771500Y-109408000D03*
X212646500Y-108458000D03*
%TD*%
%TO.C,U3*%
X191721500Y-115763000D03*
X191721500Y-117663000D03*
X193596500Y-116713000D03*
%TD*%
D26*
%TO.C,R16*%
X184156000Y-114256000D03*
X185176000Y-114256000D03*
%TD*%
D32*
%TO.C,C27*%
X196350000Y-112853000D03*
X196350000Y-111303000D03*
%TD*%
D33*
%TO.C,C4*%
X182131000Y-104124000D03*
X180581000Y-104124000D03*
%TD*%
D28*
%TO.C,D3*%
X209372000Y-91567000D03*
X210947000Y-91567000D03*
%TD*%
D34*
%TO.C,J5*%
X177360700Y-93679998D03*
D35*
X172000700Y-93679998D03*
D34*
X177360700Y-102320002D03*
D35*
X172000700Y-102320002D03*
D36*
X177739701Y-95000000D03*
X177739701Y-95499999D03*
X177739701Y-96000001D03*
X177739701Y-96500000D03*
X177739701Y-96999999D03*
X177739701Y-97500000D03*
X177739701Y-98500000D03*
X177739701Y-99000001D03*
X177739701Y-99500000D03*
X177739701Y-99999999D03*
X177739701Y-100500001D03*
X177739701Y-101000000D03*
D37*
X176439699Y-101100000D03*
D36*
X176439699Y-100250001D03*
X176439699Y-99749999D03*
X176439699Y-99250000D03*
X176439699Y-98750001D03*
X176439699Y-98250000D03*
X176439699Y-97750000D03*
X176439699Y-97249999D03*
X176439699Y-96750000D03*
X176439699Y-96250001D03*
X176439699Y-95749999D03*
D37*
X176439699Y-94900000D03*
%TD*%
D26*
%TO.C,R5*%
X184529000Y-99298000D03*
X185549000Y-99298000D03*
%TD*%
D38*
%TO.C,U9*%
X197172300Y-96492000D03*
X197172300Y-95992000D03*
X197172300Y-95492000D03*
X197172300Y-94992000D03*
X197172300Y-94492000D03*
X197172300Y-93992000D03*
X197172300Y-93492000D03*
X197172300Y-92992000D03*
D39*
X196484800Y-92304500D03*
X195984800Y-92304500D03*
X195484800Y-92304500D03*
X194984800Y-92304500D03*
X194484800Y-92304500D03*
X193984800Y-92304500D03*
X193484800Y-92304500D03*
X192984800Y-92304500D03*
D38*
X192297300Y-92992000D03*
X192297300Y-93492000D03*
X192297300Y-93992000D03*
X192297300Y-94492000D03*
X192297300Y-94992000D03*
X192297300Y-95492000D03*
X192297300Y-95992000D03*
X192297300Y-96492000D03*
D39*
X192984800Y-97179500D03*
X193484800Y-97179500D03*
X193984800Y-97179500D03*
X194484800Y-97179500D03*
X194984800Y-97179500D03*
X195484800Y-97179500D03*
X195984800Y-97179500D03*
X196484800Y-97179500D03*
D40*
X194734800Y-94742000D03*
%TD*%
D26*
%TO.C,R19*%
X187196000Y-106045000D03*
X188216000Y-106045000D03*
%TD*%
D14*
%TO.C,C2*%
X200188000Y-98254000D03*
X201148000Y-98254000D03*
%TD*%
D15*
%TO.C,D8*%
X175850500Y-112924000D03*
X175850500Y-114824000D03*
X177725500Y-113874000D03*
%TD*%
D41*
%TO.C,Y1*%
X203150000Y-92900000D03*
X203150000Y-95100000D03*
X204850000Y-95100000D03*
X204850000Y-92900000D03*
%TD*%
D26*
%TO.C,R4*%
X184529000Y-97901000D03*
X185549000Y-97901000D03*
%TD*%
D42*
%TO.C,JP1*%
X178850000Y-106000000D03*
D43*
X177550000Y-106000000D03*
D44*
X176250000Y-106000000D03*
%TD*%
D14*
%TO.C,C25*%
X196378000Y-106890000D03*
X197338000Y-106890000D03*
%TD*%
D26*
%TO.C,R6*%
X199261000Y-96012000D03*
X200281000Y-96012000D03*
%TD*%
D45*
%TO.C,U7*%
X193599999Y-105799973D03*
X192800001Y-105799973D03*
X192000000Y-105799973D03*
X191199999Y-105799973D03*
X190400001Y-105799973D03*
X190400054Y-105000000D03*
X190400001Y-104200027D03*
X191199999Y-104200027D03*
X192000000Y-104200027D03*
X192800001Y-104200027D03*
X193599999Y-104200027D03*
X193599946Y-105000000D03*
%TD*%
D23*
%TO.C,C16*%
X211082000Y-111195000D03*
X211082000Y-112745000D03*
%TD*%
D25*
%TO.C,R2*%
X206512000Y-99016000D03*
X205492000Y-99016000D03*
%TD*%
D27*
%TO.C,C26*%
X196591000Y-105366000D03*
X198141000Y-105366000D03*
%TD*%
D31*
%TO.C,R18*%
X208940400Y-97330800D03*
X208940400Y-98350800D03*
%TD*%
D30*
%TO.C,C10*%
X204137200Y-90932000D03*
X203177200Y-90932000D03*
%TD*%
D26*
%TO.C,R20*%
X187204000Y-104731000D03*
X188224000Y-104731000D03*
%TD*%
D23*
%TO.C,C20*%
X200160000Y-115005000D03*
X200160000Y-116555000D03*
%TD*%
D14*
%TO.C,C3*%
X199291000Y-94488000D03*
X200251000Y-94488000D03*
%TD*%
D46*
%TO.C,U6*%
X202024500Y-102867000D03*
X202024500Y-103517000D03*
X202024500Y-104167000D03*
X202024500Y-104817000D03*
X204899500Y-104817000D03*
X204899500Y-104167000D03*
X204899500Y-103517000D03*
X204899500Y-102867000D03*
D47*
X203462000Y-103842000D03*
%TD*%
D48*
%TO.C,J2*%
X188810000Y-92865000D03*
X181190000Y-93881000D03*
X181190000Y-91849000D03*
%TD*%
M02*
