%TF.GenerationSoftware,KiCad,Pcbnew,9.0.5-9.0.5~ubuntu24.04.1*%
%TF.CreationDate,2025-10-18T12:27:34-05:00*%
%TF.ProjectId,can_distance_sensor,63616e5f-6469-4737-9461-6e63655f7365,rev?*%
%TF.SameCoordinates,Original*%
%TF.FileFunction,Copper,L2,Inr*%
%TF.FilePolarity,Positive*%
%FSLAX46Y46*%
G04 Gerber Fmt 4.6, Leading zero omitted, Abs format (unit mm)*
G04 Created by KiCad (PCBNEW 9.0.5-9.0.5~ubuntu24.04.1) date 2025-10-18 12:27:34*
%MOMM*%
%LPD*%
G01*
G04 APERTURE LIST*
G04 Aperture macros list*
%AMRoundRect*
0 Rectangle with rounded corners*
0 $1 Rounding radius*
0 $2 $3 $4 $5 $6 $7 $8 $9 X,Y pos of 4 corners*
0 Add a 4 corners polygon primitive as box body*
4,1,4,$2,$3,$4,$5,$6,$7,$8,$9,$2,$3,0*
0 Add four circle primitives for the rounded corners*
1,1,$1+$1,$2,$3*
1,1,$1+$1,$4,$5*
1,1,$1+$1,$6,$7*
1,1,$1+$1,$8,$9*
0 Add four rect primitives between the rounded corners*
20,1,$1+$1,$2,$3,$4,$5,0*
20,1,$1+$1,$4,$5,$6,$7,0*
20,1,$1+$1,$6,$7,$8,$9,0*
20,1,$1+$1,$8,$9,$2,$3,0*%
G04 Aperture macros list end*
%TA.AperFunction,ComponentPad*%
%ADD10RoundRect,0.250000X-0.625000X0.350000X-0.625000X-0.350000X0.625000X-0.350000X0.625000X0.350000X0*%
%TD*%
%TA.AperFunction,ComponentPad*%
%ADD11O,1.750000X1.200000*%
%TD*%
%TA.AperFunction,ComponentPad*%
%ADD12RoundRect,0.250000X0.625000X-0.350000X0.625000X0.350000X-0.625000X0.350000X-0.625000X-0.350000X0*%
%TD*%
%TA.AperFunction,WasherPad*%
%ADD13O,2.667000X1.168400*%
%TD*%
%TA.AperFunction,WasherPad*%
%ADD14O,2.159000X1.168400*%
%TD*%
%TA.AperFunction,ViaPad*%
%ADD15C,0.500000*%
%TD*%
G04 APERTURE END LIST*
D10*
%TO.N,GND*%
%TO.C,J4*%
X172000000Y-107000000D03*
D11*
%TO.N,TB_CLK*%
X172000000Y-109000000D03*
%TO.N,TB_MOSI*%
X172000000Y-111000000D03*
%TO.N,TB_CS*%
X172000000Y-113000000D03*
%TO.N,TB_ABS*%
X172000000Y-115000000D03*
%TO.N,Net-(J4-Pin_6)*%
X172000000Y-117000000D03*
%TD*%
D12*
%TO.N,VIN*%
%TO.C,J3*%
X212550000Y-103000000D03*
D11*
%TO.N,GND*%
X212550000Y-101000000D03*
%TO.N,Net-(J3-Pin_3)*%
X212550000Y-99000000D03*
%TO.N,Net-(J3-Pin_4)*%
X212550000Y-97000000D03*
%TD*%
D13*
%TO.N,*%
%TO.C,J5*%
X172000700Y-102320002D03*
D14*
X177360700Y-102320002D03*
D13*
X172000700Y-93679998D03*
D14*
X177360700Y-93679998D03*
%TD*%
D15*
%TO.N,Net-(R2-Pad2)*%
X204597000Y-99060000D03*
%TO.N,GND*%
X193675000Y-118745000D03*
X192532000Y-110109000D03*
X195834000Y-110109000D03*
%TO.N,TB_ABS*%
X180467000Y-118745000D03*
%TO.N,TB_CS*%
X177648999Y-111862999D03*
%TO.N,TB_CLK*%
X183261000Y-110644171D03*
X183261000Y-112014000D03*
%TO.N,Net-(J4-Pin_6)*%
X174498000Y-107569000D03*
%TO.N,GND*%
X197866000Y-118237000D03*
%TO.N,VCC*%
X194183000Y-114300000D03*
X185801000Y-112268000D03*
X176276000Y-104013000D03*
X183896000Y-103378000D03*
%TO.N,BOOT*%
X184765539Y-111691000D03*
X185039000Y-100584000D03*
X204724000Y-99822000D03*
%TO.N,TB_CS*%
X188849000Y-97663000D03*
X189103000Y-94742000D03*
X189611000Y-99441000D03*
X183339566Y-109948592D03*
%TO.N,TB_CLK*%
X191135000Y-98933000D03*
%TO.N,TB_ABS*%
X191014137Y-100028208D03*
X185928000Y-108712000D03*
X197449500Y-104345153D03*
X186436000Y-117094000D03*
%TO.N,TB_MOSI*%
X196410300Y-99008000D03*
%TO.N,BOOT*%
X184802194Y-96248806D03*
%TO.N,LED1*%
X198114500Y-92517997D03*
X207899000Y-94361000D03*
%TO.N,LED2*%
X191394500Y-93345000D03*
%TO.N,GND*%
X194734800Y-94742000D03*
X194734800Y-94742000D03*
X194734800Y-94742000D03*
X194734800Y-94742000D03*
X194734800Y-94742000D03*
X194734800Y-94742000D03*
X194734800Y-94742000D03*
%TO.N,VIN_MEAS*%
X198114500Y-93218000D03*
%TO.N,GND*%
X198501000Y-94478500D03*
%TO.N,3V3*%
X199771000Y-95250000D03*
%TO.N,GND*%
X197449500Y-108230199D03*
X199141500Y-104775000D03*
X204216000Y-107696000D03*
X202946000Y-107569000D03*
%TO.N,3V3*%
X206375000Y-106299000D03*
X206375000Y-105283000D03*
%TO.N,LED2*%
X207772000Y-91694000D03*
%TO.N,3V3*%
X214376000Y-91567000D03*
X214503000Y-93472000D03*
X206375000Y-96901000D03*
%TO.N,GND*%
X203835000Y-101600000D03*
X201422000Y-100965000D03*
%TO.N,VCC*%
X195199000Y-109220000D03*
X200533000Y-106553000D03*
X200533000Y-104140000D03*
%TO.N,GND*%
X200787000Y-103380500D03*
%TO.N,3V3*%
X178947284Y-107753837D03*
%TO.N,GND*%
X178181000Y-112649000D03*
X178904007Y-108452500D03*
%TO.N,VIN_MEAS*%
X185922500Y-116328015D03*
%TO.N,GND*%
X182626000Y-114681000D03*
%TO.N,+12V*%
X209804000Y-111125000D03*
X184144500Y-113284000D03*
%TO.N,GND*%
X180213000Y-117729000D03*
%TO.N,3V3*%
X185435000Y-109855695D03*
%TO.N,2V8*%
X186952000Y-114764000D03*
%TO.N,GND*%
X188595000Y-118999000D03*
X191643000Y-118745000D03*
X192405000Y-118745000D03*
X192405000Y-113792000D03*
X191643000Y-114300000D03*
X187706000Y-113284000D03*
%TO.N,3V3*%
X190754000Y-109347000D03*
X188976000Y-109982000D03*
%TO.N,GND*%
X189369000Y-105029000D03*
X191135000Y-107188000D03*
X192024000Y-107188000D03*
X192786000Y-107188000D03*
X195326000Y-105029000D03*
%TO.N,TOF_SDA_2V8*%
X191135000Y-101346000D03*
X190053687Y-101629513D03*
%TO.N,GND*%
X186055000Y-101981000D03*
%TO.N,TOF_XSHUT*%
X188341000Y-107061000D03*
%TO.N,TOF_INT*%
X188341000Y-103632000D03*
%TO.N,TOF_SDA*%
X186049500Y-100203000D03*
%TO.N,TOF_SCL*%
X187714000Y-98000000D03*
%TO.N,3V3*%
X190410890Y-100383309D03*
%TO.N,TOF_XSHUT*%
X190881000Y-92202000D03*
%TO.N,TOF_INT*%
X190251500Y-91699500D03*
%TO.N,TOF_SCL*%
X188341000Y-93980000D03*
%TO.N,TOF_SDA*%
X194437000Y-91186000D03*
%TO.N,CAN_STB*%
X206883000Y-90750000D03*
X195961000Y-91186000D03*
%TO.N,GND*%
X182499000Y-94488000D03*
%TO.N,BOOT*%
X187706000Y-97005500D03*
%TO.N,GND*%
X186182000Y-91313000D03*
X184912000Y-94488000D03*
%TO.N,3V3*%
X187706000Y-94488000D03*
%TO.N,SWDIO*%
X187071000Y-96520000D03*
%TO.N,DM*%
X186436000Y-95504000D03*
X186354600Y-97073600D03*
%TO.N,GND*%
X183319162Y-104788691D03*
X179070000Y-94996000D03*
X179324000Y-101092000D03*
X179070000Y-98298000D03*
%TO.N,Net-(J5-D--PadA7)*%
X178988000Y-99613000D03*
X175387000Y-97790000D03*
%TO.N,NRST*%
X198069200Y-90750000D03*
%TO.N,3V3*%
X200304400Y-99212400D03*
X200202800Y-91846400D03*
%TO.N,GND*%
X201168000Y-93929200D03*
X203090828Y-98803500D03*
X205181200Y-90750000D03*
X202266513Y-98803500D03*
X208127600Y-99822000D03*
X209143600Y-107391200D03*
X199034400Y-117805200D03*
X201726800Y-117856000D03*
X205638400Y-116687600D03*
X212344000Y-113233200D03*
X207518000Y-114350800D03*
%TO.N,/Power/PRE_OUT*%
X198882000Y-114909600D03*
X207772000Y-117246400D03*
%TD*%
%TA.AperFunction,Conductor*%
%TO.N,GND*%
G36*
X194227584Y-90520185D02*
G01*
X194273339Y-90572989D01*
X194283283Y-90642147D01*
X194254258Y-90705703D01*
X194222546Y-90731887D01*
X194129686Y-90785500D01*
X194129683Y-90785502D01*
X194036502Y-90878683D01*
X194036500Y-90878686D01*
X193970608Y-90992812D01*
X193953325Y-91057314D01*
X193936500Y-91120108D01*
X193936500Y-91251892D01*
X193949123Y-91299002D01*
X193970608Y-91379187D01*
X193985771Y-91405449D01*
X194036500Y-91493314D01*
X194129686Y-91586500D01*
X194243814Y-91652392D01*
X194371108Y-91686500D01*
X194371110Y-91686500D01*
X194502890Y-91686500D01*
X194502892Y-91686500D01*
X194630186Y-91652392D01*
X194744314Y-91586500D01*
X194837500Y-91493314D01*
X194903392Y-91379186D01*
X194937500Y-91251892D01*
X194937500Y-91120108D01*
X194903392Y-90992814D01*
X194837500Y-90878686D01*
X194744314Y-90785500D01*
X194651454Y-90731887D01*
X194603239Y-90681319D01*
X194590017Y-90612712D01*
X194615985Y-90547848D01*
X194672899Y-90507320D01*
X194713455Y-90500500D01*
X195684545Y-90500500D01*
X195751584Y-90520185D01*
X195797339Y-90572989D01*
X195807283Y-90642147D01*
X195778258Y-90705703D01*
X195746546Y-90731887D01*
X195653686Y-90785500D01*
X195653683Y-90785502D01*
X195560502Y-90878683D01*
X195560500Y-90878686D01*
X195494608Y-90992812D01*
X195477325Y-91057314D01*
X195460500Y-91120108D01*
X195460500Y-91251892D01*
X195473123Y-91299002D01*
X195494608Y-91379187D01*
X195509771Y-91405449D01*
X195560500Y-91493314D01*
X195653686Y-91586500D01*
X195767814Y-91652392D01*
X195895108Y-91686500D01*
X195895110Y-91686500D01*
X196026890Y-91686500D01*
X196026892Y-91686500D01*
X196154186Y-91652392D01*
X196268314Y-91586500D01*
X196361500Y-91493314D01*
X196427392Y-91379186D01*
X196461500Y-91251892D01*
X196461500Y-91120108D01*
X196427392Y-90992814D01*
X196361500Y-90878686D01*
X196268314Y-90785500D01*
X196175454Y-90731887D01*
X196127239Y-90681319D01*
X196114017Y-90612712D01*
X196139985Y-90547848D01*
X196196899Y-90507320D01*
X196237455Y-90500500D01*
X197456298Y-90500500D01*
X197523337Y-90520185D01*
X197569092Y-90572989D01*
X197579036Y-90642147D01*
X197576073Y-90656593D01*
X197568700Y-90684108D01*
X197568700Y-90815891D01*
X197602808Y-90943187D01*
X197631460Y-90992812D01*
X197668700Y-91057314D01*
X197761886Y-91150500D01*
X197876014Y-91216392D01*
X198003308Y-91250500D01*
X198003310Y-91250500D01*
X198135090Y-91250500D01*
X198135092Y-91250500D01*
X198262386Y-91216392D01*
X198376514Y-91150500D01*
X198469700Y-91057314D01*
X198535592Y-90943186D01*
X198569700Y-90815892D01*
X198569700Y-90684108D01*
X198562327Y-90656591D01*
X198563990Y-90586744D01*
X198603152Y-90528881D01*
X198667381Y-90501377D01*
X198682102Y-90500500D01*
X206270098Y-90500500D01*
X206337137Y-90520185D01*
X206382892Y-90572989D01*
X206392836Y-90642147D01*
X206389873Y-90656593D01*
X206382500Y-90684108D01*
X206382500Y-90815891D01*
X206416608Y-90943187D01*
X206445260Y-90992812D01*
X206482500Y-91057314D01*
X206575686Y-91150500D01*
X206689814Y-91216392D01*
X206817108Y-91250500D01*
X206817110Y-91250500D01*
X206948890Y-91250500D01*
X206948892Y-91250500D01*
X207076186Y-91216392D01*
X207190314Y-91150500D01*
X207283500Y-91057314D01*
X207349392Y-90943186D01*
X207383500Y-90815892D01*
X207383500Y-90684108D01*
X207376127Y-90656591D01*
X207377790Y-90586744D01*
X207416952Y-90528881D01*
X207481181Y-90501377D01*
X207495902Y-90500500D01*
X215375500Y-90500500D01*
X215442539Y-90520185D01*
X215488294Y-90572989D01*
X215499500Y-90624500D01*
X215499500Y-119375500D01*
X215479815Y-119442539D01*
X215427011Y-119488294D01*
X215375500Y-119499500D01*
X170624500Y-119499500D01*
X170557461Y-119479815D01*
X170511706Y-119427011D01*
X170500500Y-119375500D01*
X170500500Y-118679108D01*
X179966500Y-118679108D01*
X179966500Y-118810891D01*
X180000608Y-118938187D01*
X180033554Y-118995250D01*
X180066500Y-119052314D01*
X180159686Y-119145500D01*
X180273814Y-119211392D01*
X180401108Y-119245500D01*
X180401110Y-119245500D01*
X180532890Y-119245500D01*
X180532892Y-119245500D01*
X180660186Y-119211392D01*
X180774314Y-119145500D01*
X180867500Y-119052314D01*
X180933392Y-118938186D01*
X180967500Y-118810892D01*
X180967500Y-118679108D01*
X180933392Y-118551814D01*
X180867500Y-118437686D01*
X180774314Y-118344500D01*
X180717250Y-118311554D01*
X180660187Y-118278608D01*
X180577677Y-118256500D01*
X180532892Y-118244500D01*
X180401108Y-118244500D01*
X180273812Y-118278608D01*
X180159686Y-118344500D01*
X180159683Y-118344502D01*
X180066502Y-118437683D01*
X180066500Y-118437686D01*
X180000608Y-118551812D01*
X179966500Y-118679108D01*
X170500500Y-118679108D01*
X170500500Y-116916228D01*
X170874500Y-116916228D01*
X170874500Y-117083771D01*
X170907182Y-117248074D01*
X170907184Y-117248082D01*
X170971295Y-117402860D01*
X171064373Y-117542162D01*
X171182837Y-117660626D01*
X171275494Y-117722537D01*
X171322137Y-117753703D01*
X171476918Y-117817816D01*
X171641228Y-117850499D01*
X171641232Y-117850500D01*
X171641233Y-117850500D01*
X172358768Y-117850500D01*
X172358769Y-117850499D01*
X172523082Y-117817816D01*
X172677863Y-117753703D01*
X172817162Y-117660626D01*
X172935626Y-117542162D01*
X173028703Y-117402863D01*
X173092816Y-117248082D01*
X173125500Y-117083767D01*
X173125500Y-116916233D01*
X173092816Y-116751918D01*
X173028703Y-116597137D01*
X172959313Y-116493288D01*
X172935626Y-116457837D01*
X172817162Y-116339373D01*
X172701548Y-116262123D01*
X185422000Y-116262123D01*
X185422000Y-116393907D01*
X185434519Y-116440630D01*
X185456108Y-116521202D01*
X185476277Y-116556135D01*
X185522000Y-116635329D01*
X185615186Y-116728515D01*
X185729314Y-116794407D01*
X185856608Y-116828515D01*
X185856610Y-116828515D01*
X185860338Y-116829514D01*
X185919999Y-116865879D01*
X185950528Y-116928726D01*
X185948020Y-116981381D01*
X185935500Y-117028106D01*
X185935500Y-117159891D01*
X185969608Y-117287187D01*
X185984102Y-117312290D01*
X186035500Y-117401314D01*
X186128686Y-117494500D01*
X186242814Y-117560392D01*
X186370108Y-117594500D01*
X186370110Y-117594500D01*
X186501890Y-117594500D01*
X186501892Y-117594500D01*
X186629186Y-117560392D01*
X186743314Y-117494500D01*
X186836500Y-117401314D01*
X186902392Y-117287186D01*
X186930976Y-117180508D01*
X207271500Y-117180508D01*
X207271500Y-117312291D01*
X207305608Y-117439587D01*
X207314636Y-117455223D01*
X207371500Y-117553714D01*
X207464686Y-117646900D01*
X207578814Y-117712792D01*
X207706108Y-117746900D01*
X207706110Y-117746900D01*
X207837890Y-117746900D01*
X207837892Y-117746900D01*
X207965186Y-117712792D01*
X208079314Y-117646900D01*
X208172500Y-117553714D01*
X208238392Y-117439586D01*
X208272500Y-117312292D01*
X208272500Y-117180508D01*
X208238392Y-117053214D01*
X208172500Y-116939086D01*
X208087062Y-116853648D01*
X209929500Y-116853648D01*
X209929500Y-117058351D01*
X209961522Y-117260534D01*
X210024781Y-117455223D01*
X210117715Y-117637613D01*
X210238028Y-117803213D01*
X210382786Y-117947971D01*
X210537749Y-118060556D01*
X210548390Y-118068287D01*
X210664607Y-118127503D01*
X210730776Y-118161218D01*
X210730778Y-118161218D01*
X210730781Y-118161220D01*
X210835137Y-118195127D01*
X210925465Y-118224477D01*
X211026557Y-118240488D01*
X211127648Y-118256500D01*
X211127649Y-118256500D01*
X211332351Y-118256500D01*
X211332352Y-118256500D01*
X211534534Y-118224477D01*
X211729219Y-118161220D01*
X211911610Y-118068287D01*
X212004590Y-118000732D01*
X212077213Y-117947971D01*
X212077215Y-117947968D01*
X212077219Y-117947966D01*
X212221966Y-117803219D01*
X212221968Y-117803215D01*
X212221971Y-117803213D01*
X212274732Y-117730590D01*
X212342287Y-117637610D01*
X212435220Y-117455219D01*
X212498477Y-117260534D01*
X212530500Y-117058352D01*
X212530500Y-116853648D01*
X212529273Y-116845900D01*
X212498477Y-116651465D01*
X212435218Y-116456776D01*
X212375398Y-116339374D01*
X212342287Y-116274390D01*
X212333375Y-116262123D01*
X212221971Y-116108786D01*
X212077213Y-115964028D01*
X211911613Y-115843715D01*
X211911612Y-115843714D01*
X211911610Y-115843713D01*
X211854653Y-115814691D01*
X211729223Y-115750781D01*
X211534534Y-115687522D01*
X211359995Y-115659878D01*
X211332352Y-115655500D01*
X211127648Y-115655500D01*
X211103329Y-115659351D01*
X210925465Y-115687522D01*
X210730776Y-115750781D01*
X210548386Y-115843715D01*
X210382786Y-115964028D01*
X210238028Y-116108786D01*
X210117715Y-116274386D01*
X210024781Y-116456776D01*
X209961522Y-116651465D01*
X209929500Y-116853648D01*
X208087062Y-116853648D01*
X208079314Y-116845900D01*
X207990126Y-116794407D01*
X207965187Y-116780008D01*
X207901539Y-116762954D01*
X207837892Y-116745900D01*
X207706108Y-116745900D01*
X207578812Y-116780008D01*
X207464686Y-116845900D01*
X207464683Y-116845902D01*
X207371502Y-116939083D01*
X207371500Y-116939086D01*
X207305608Y-117053212D01*
X207271500Y-117180508D01*
X186930976Y-117180508D01*
X186936500Y-117159892D01*
X186936500Y-117028108D01*
X186902392Y-116900814D01*
X186836500Y-116786686D01*
X186743314Y-116693500D01*
X186629186Y-116627608D01*
X186501892Y-116593500D01*
X186498160Y-116592500D01*
X186438500Y-116556135D01*
X186407971Y-116493288D01*
X186410479Y-116440633D01*
X186423000Y-116393907D01*
X186423000Y-116262123D01*
X186388892Y-116134829D01*
X186323000Y-116020701D01*
X186229814Y-115927515D01*
X186172750Y-115894569D01*
X186115687Y-115861623D01*
X186048844Y-115843713D01*
X185988392Y-115827515D01*
X185856608Y-115827515D01*
X185729312Y-115861623D01*
X185615186Y-115927515D01*
X185615183Y-115927517D01*
X185522002Y-116020698D01*
X185522000Y-116020701D01*
X185456108Y-116134827D01*
X185422000Y-116262123D01*
X172701548Y-116262123D01*
X172677860Y-116246295D01*
X172523082Y-116182184D01*
X172523074Y-116182182D01*
X172358771Y-116149500D01*
X172358767Y-116149500D01*
X171641233Y-116149500D01*
X171641228Y-116149500D01*
X171476925Y-116182182D01*
X171476917Y-116182184D01*
X171322139Y-116246295D01*
X171182837Y-116339373D01*
X171064373Y-116457837D01*
X170971295Y-116597139D01*
X170907184Y-116751917D01*
X170907182Y-116751925D01*
X170874500Y-116916228D01*
X170500500Y-116916228D01*
X170500500Y-114916228D01*
X170874500Y-114916228D01*
X170874500Y-115083771D01*
X170907182Y-115248074D01*
X170907184Y-115248082D01*
X170971295Y-115402860D01*
X171064373Y-115542162D01*
X171182837Y-115660626D01*
X171275494Y-115722537D01*
X171322137Y-115753703D01*
X171476918Y-115817816D01*
X171641228Y-115850499D01*
X171641232Y-115850500D01*
X171641233Y-115850500D01*
X172358768Y-115850500D01*
X172358769Y-115850499D01*
X172523082Y-115817816D01*
X172677863Y-115753703D01*
X172817162Y-115660626D01*
X172935626Y-115542162D01*
X173028703Y-115402863D01*
X173092816Y-115248082D01*
X173125500Y-115083767D01*
X173125500Y-114916233D01*
X173092816Y-114751918D01*
X173070527Y-114698108D01*
X186451500Y-114698108D01*
X186451500Y-114829892D01*
X186468554Y-114893539D01*
X186485608Y-114957187D01*
X186496176Y-114975491D01*
X186551500Y-115071314D01*
X186644686Y-115164500D01*
X186758814Y-115230392D01*
X186886108Y-115264500D01*
X186886110Y-115264500D01*
X187017890Y-115264500D01*
X187017892Y-115264500D01*
X187145186Y-115230392D01*
X187259314Y-115164500D01*
X187352500Y-115071314D01*
X187418392Y-114957186D01*
X187448798Y-114843708D01*
X198381500Y-114843708D01*
X198381500Y-114975491D01*
X198415608Y-115102787D01*
X198448554Y-115159850D01*
X198481500Y-115216914D01*
X198574686Y-115310100D01*
X198688814Y-115375992D01*
X198816108Y-115410100D01*
X198816110Y-115410100D01*
X198947890Y-115410100D01*
X198947892Y-115410100D01*
X199075186Y-115375992D01*
X199189314Y-115310100D01*
X199282500Y-115216914D01*
X199348392Y-115102786D01*
X199382500Y-114975492D01*
X199382500Y-114843708D01*
X199348392Y-114716414D01*
X199282500Y-114602286D01*
X199189314Y-114509100D01*
X199100526Y-114457838D01*
X199075187Y-114443208D01*
X199011539Y-114426154D01*
X198947892Y-114409100D01*
X198816108Y-114409100D01*
X198688812Y-114443208D01*
X198574686Y-114509100D01*
X198574683Y-114509102D01*
X198481502Y-114602283D01*
X198481500Y-114602286D01*
X198415608Y-114716412D01*
X198381500Y-114843708D01*
X187448798Y-114843708D01*
X187452500Y-114829892D01*
X187452500Y-114698108D01*
X187418392Y-114570814D01*
X187352500Y-114456686D01*
X187259314Y-114363500D01*
X187176491Y-114315682D01*
X187145187Y-114297608D01*
X187081539Y-114280554D01*
X187017892Y-114263500D01*
X186886108Y-114263500D01*
X186758812Y-114297608D01*
X186644686Y-114363500D01*
X186644683Y-114363502D01*
X186551502Y-114456683D01*
X186551500Y-114456686D01*
X186485608Y-114570812D01*
X186478554Y-114597139D01*
X186451500Y-114698108D01*
X173070527Y-114698108D01*
X173060836Y-114674712D01*
X173028704Y-114597138D01*
X172935626Y-114457837D01*
X172817162Y-114339373D01*
X172677860Y-114246295D01*
X172648438Y-114234108D01*
X193682500Y-114234108D01*
X193682500Y-114365892D01*
X193699554Y-114429539D01*
X193716608Y-114493187D01*
X193725796Y-114509100D01*
X193782500Y-114607314D01*
X193875686Y-114700500D01*
X193989814Y-114766392D01*
X194117108Y-114800500D01*
X194117110Y-114800500D01*
X194248890Y-114800500D01*
X194248892Y-114800500D01*
X194376186Y-114766392D01*
X194490314Y-114700500D01*
X194583500Y-114607314D01*
X194649392Y-114493186D01*
X194683500Y-114365892D01*
X194683500Y-114234108D01*
X194649392Y-114106814D01*
X194583500Y-113992686D01*
X194490314Y-113899500D01*
X194405442Y-113850499D01*
X194376187Y-113833608D01*
X194312539Y-113816554D01*
X194248892Y-113799500D01*
X194117108Y-113799500D01*
X193989812Y-113833608D01*
X193875686Y-113899500D01*
X193875683Y-113899502D01*
X193782502Y-113992683D01*
X193782500Y-113992686D01*
X193716608Y-114106812D01*
X193705170Y-114149500D01*
X193682500Y-114234108D01*
X172648438Y-114234108D01*
X172523082Y-114182184D01*
X172523074Y-114182182D01*
X172358771Y-114149500D01*
X172358767Y-114149500D01*
X171641233Y-114149500D01*
X171641228Y-114149500D01*
X171476925Y-114182182D01*
X171476917Y-114182184D01*
X171322139Y-114246295D01*
X171182837Y-114339373D01*
X171064373Y-114457837D01*
X170971295Y-114597139D01*
X170907184Y-114751917D01*
X170907182Y-114751925D01*
X170874500Y-114916228D01*
X170500500Y-114916228D01*
X170500500Y-112916228D01*
X170874500Y-112916228D01*
X170874500Y-113083771D01*
X170907182Y-113248074D01*
X170907184Y-113248082D01*
X170971295Y-113402860D01*
X171064373Y-113542162D01*
X171182837Y-113660626D01*
X171275494Y-113722537D01*
X171322137Y-113753703D01*
X171476918Y-113817816D01*
X171641228Y-113850499D01*
X171641232Y-113850500D01*
X171641233Y-113850500D01*
X172358768Y-113850500D01*
X172358769Y-113850499D01*
X172523082Y-113817816D01*
X172677863Y-113753703D01*
X172817162Y-113660626D01*
X172935626Y-113542162D01*
X173028703Y-113402863D01*
X173092816Y-113248082D01*
X173125500Y-113083767D01*
X173125500Y-112916233D01*
X173092816Y-112751918D01*
X173028703Y-112597137D01*
X172997537Y-112550494D01*
X172935626Y-112457837D01*
X172817162Y-112339373D01*
X172677860Y-112246295D01*
X172523082Y-112182184D01*
X172523074Y-112182182D01*
X172358771Y-112149500D01*
X172358767Y-112149500D01*
X171641233Y-112149500D01*
X171641228Y-112149500D01*
X171476925Y-112182182D01*
X171476917Y-112182184D01*
X171322139Y-112246295D01*
X171182837Y-112339373D01*
X171064373Y-112457837D01*
X170971295Y-112597139D01*
X170907184Y-112751917D01*
X170907182Y-112751925D01*
X170874500Y-112916228D01*
X170500500Y-112916228D01*
X170500500Y-110916228D01*
X170874500Y-110916228D01*
X170874500Y-111083771D01*
X170907182Y-111248074D01*
X170907184Y-111248082D01*
X170971295Y-111402860D01*
X171064373Y-111542162D01*
X171182837Y-111660626D01*
X171251767Y-111706683D01*
X171322137Y-111753703D01*
X171476918Y-111817816D01*
X171641228Y-111850499D01*
X171641232Y-111850500D01*
X171641233Y-111850500D01*
X172358768Y-111850500D01*
X172358769Y-111850499D01*
X172523082Y-111817816D01*
X172573077Y-111797107D01*
X177148499Y-111797107D01*
X177148499Y-111928890D01*
X177182607Y-112056186D01*
X177215553Y-112113249D01*
X177248499Y-112170313D01*
X177341685Y-112263499D01*
X177455813Y-112329391D01*
X177583107Y-112363499D01*
X177583109Y-112363499D01*
X177714889Y-112363499D01*
X177714891Y-112363499D01*
X177842185Y-112329391D01*
X177956313Y-112263499D01*
X178049499Y-112170313D01*
X178115391Y-112056185D01*
X178149499Y-111928891D01*
X178149499Y-111897648D01*
X179699500Y-111897648D01*
X179699500Y-112102351D01*
X179731522Y-112304534D01*
X179794781Y-112499223D01*
X179887715Y-112681613D01*
X180008028Y-112847213D01*
X180152786Y-112991971D01*
X180307749Y-113104556D01*
X180318390Y-113112287D01*
X180434607Y-113171503D01*
X180500776Y-113205218D01*
X180500778Y-113205218D01*
X180500781Y-113205220D01*
X180605137Y-113239127D01*
X180695465Y-113268477D01*
X180796557Y-113284488D01*
X180897648Y-113300500D01*
X180897649Y-113300500D01*
X181102351Y-113300500D01*
X181102352Y-113300500D01*
X181304534Y-113268477D01*
X181459554Y-113218108D01*
X183644000Y-113218108D01*
X183644000Y-113349891D01*
X183678108Y-113477187D01*
X183711054Y-113534250D01*
X183744000Y-113591314D01*
X183837186Y-113684500D01*
X183951314Y-113750392D01*
X184078608Y-113784500D01*
X184078610Y-113784500D01*
X184210390Y-113784500D01*
X184210392Y-113784500D01*
X184337686Y-113750392D01*
X184451814Y-113684500D01*
X184545000Y-113591314D01*
X184610892Y-113477186D01*
X184645000Y-113349892D01*
X184645000Y-113218108D01*
X184610892Y-113090814D01*
X184545000Y-112976686D01*
X184451814Y-112883500D01*
X184388963Y-112847213D01*
X184337687Y-112817608D01*
X184274039Y-112800554D01*
X184210392Y-112783500D01*
X184078608Y-112783500D01*
X183951312Y-112817608D01*
X183837186Y-112883500D01*
X183837183Y-112883502D01*
X183744002Y-112976683D01*
X183744000Y-112976686D01*
X183678108Y-113090812D01*
X183644000Y-113218108D01*
X181459554Y-113218108D01*
X181499219Y-113205220D01*
X181681610Y-113112287D01*
X181683635Y-113110815D01*
X181685225Y-113109661D01*
X181685226Y-113109660D01*
X181847212Y-112991971D01*
X181847210Y-112991971D01*
X181847219Y-112991966D01*
X181991966Y-112847219D01*
X181991968Y-112847215D01*
X181991971Y-112847213D01*
X182049159Y-112768499D01*
X182112287Y-112681610D01*
X182205220Y-112499219D01*
X182268477Y-112304534D01*
X182300500Y-112102352D01*
X182300500Y-111948108D01*
X182760500Y-111948108D01*
X182760500Y-112079892D01*
X182766518Y-112102351D01*
X182794608Y-112207187D01*
X182817189Y-112246297D01*
X182860500Y-112321314D01*
X182953686Y-112414500D01*
X183067814Y-112480392D01*
X183195108Y-112514500D01*
X183195110Y-112514500D01*
X183326890Y-112514500D01*
X183326892Y-112514500D01*
X183454186Y-112480392D01*
X183568314Y-112414500D01*
X183661500Y-112321314D01*
X183727392Y-112207186D01*
X183761500Y-112079892D01*
X183761500Y-111948108D01*
X183727392Y-111820814D01*
X183722816Y-111812889D01*
X183690487Y-111756893D01*
X183661500Y-111706686D01*
X183579922Y-111625108D01*
X184265039Y-111625108D01*
X184265039Y-111756892D01*
X184275815Y-111797109D01*
X184299147Y-111884187D01*
X184332093Y-111941250D01*
X184365039Y-111998314D01*
X184458225Y-112091500D01*
X184572353Y-112157392D01*
X184699647Y-112191500D01*
X184699649Y-112191500D01*
X184831429Y-112191500D01*
X184831431Y-112191500D01*
X184958725Y-112157392D01*
X185072853Y-112091500D01*
X185097081Y-112067271D01*
X185158400Y-112033788D01*
X185228092Y-112038772D01*
X185284026Y-112080642D01*
X185308444Y-112146106D01*
X185304536Y-112187043D01*
X185300500Y-112202106D01*
X185300500Y-112333891D01*
X185334608Y-112461187D01*
X185356566Y-112499219D01*
X185400500Y-112575314D01*
X185493686Y-112668500D01*
X185607814Y-112734392D01*
X185735108Y-112768500D01*
X185735110Y-112768500D01*
X185866890Y-112768500D01*
X185866892Y-112768500D01*
X185994186Y-112734392D01*
X186108314Y-112668500D01*
X186201500Y-112575314D01*
X186267392Y-112461186D01*
X186301500Y-112333892D01*
X186301500Y-112202108D01*
X186267392Y-112074814D01*
X186201500Y-111960686D01*
X186108314Y-111867500D01*
X186027452Y-111820814D01*
X185994187Y-111801608D01*
X185930539Y-111784554D01*
X185866892Y-111767500D01*
X185735108Y-111767500D01*
X185607812Y-111801608D01*
X185493686Y-111867500D01*
X185469458Y-111891728D01*
X185408134Y-111925212D01*
X185338443Y-111920226D01*
X185282510Y-111878354D01*
X185258094Y-111812889D01*
X185262004Y-111771950D01*
X185266039Y-111756892D01*
X185266039Y-111625108D01*
X185231931Y-111497814D01*
X185166039Y-111383686D01*
X185072853Y-111290500D01*
X184999369Y-111248074D01*
X184958726Y-111224608D01*
X184895078Y-111207554D01*
X184831431Y-111190500D01*
X184699647Y-111190500D01*
X184572351Y-111224608D01*
X184458225Y-111290500D01*
X184458222Y-111290502D01*
X184365041Y-111383683D01*
X184365039Y-111383686D01*
X184299147Y-111497812D01*
X184274073Y-111591391D01*
X184265039Y-111625108D01*
X183579922Y-111625108D01*
X183568314Y-111613500D01*
X183468171Y-111555682D01*
X183454187Y-111547608D01*
X183371666Y-111525497D01*
X183326892Y-111513500D01*
X183195108Y-111513500D01*
X183067812Y-111547608D01*
X182953686Y-111613500D01*
X182953683Y-111613502D01*
X182860502Y-111706683D01*
X182860500Y-111706686D01*
X182794608Y-111820812D01*
X182767971Y-111920226D01*
X182760500Y-111948108D01*
X182300500Y-111948108D01*
X182300500Y-111897648D01*
X182293032Y-111850499D01*
X182268477Y-111695465D01*
X182220435Y-111547608D01*
X182205220Y-111500781D01*
X182205218Y-111500778D01*
X182205218Y-111500776D01*
X182155328Y-111402863D01*
X182112287Y-111318390D01*
X182061200Y-111248074D01*
X181991971Y-111152786D01*
X181847213Y-111008028D01*
X181681613Y-110887715D01*
X181681612Y-110887714D01*
X181681610Y-110887713D01*
X181624653Y-110858691D01*
X181499223Y-110794781D01*
X181304534Y-110731522D01*
X181129995Y-110703878D01*
X181102352Y-110699500D01*
X180897648Y-110699500D01*
X180873329Y-110703351D01*
X180695465Y-110731522D01*
X180500776Y-110794781D01*
X180318386Y-110887715D01*
X180152786Y-111008028D01*
X180008028Y-111152786D01*
X179887715Y-111318386D01*
X179794781Y-111500776D01*
X179731522Y-111695465D01*
X179699500Y-111897648D01*
X178149499Y-111897648D01*
X178149499Y-111797107D01*
X178115391Y-111669813D01*
X178049499Y-111555685D01*
X177956313Y-111462499D01*
X177853021Y-111402863D01*
X177842186Y-111396607D01*
X177778538Y-111379553D01*
X177714891Y-111362499D01*
X177583107Y-111362499D01*
X177455811Y-111396607D01*
X177341685Y-111462499D01*
X177341682Y-111462501D01*
X177248501Y-111555682D01*
X177248499Y-111555685D01*
X177182607Y-111669811D01*
X177148499Y-111797107D01*
X172573077Y-111797107D01*
X172677863Y-111753703D01*
X172817162Y-111660626D01*
X172935626Y-111542162D01*
X173028703Y-111402863D01*
X173092816Y-111248082D01*
X173125500Y-111083767D01*
X173125500Y-110916233D01*
X173092816Y-110751918D01*
X173028703Y-110597137D01*
X173016102Y-110578279D01*
X182760500Y-110578279D01*
X182760500Y-110710063D01*
X182764369Y-110724502D01*
X182794608Y-110837358D01*
X182823681Y-110887713D01*
X182860500Y-110951485D01*
X182953686Y-111044671D01*
X183067814Y-111110563D01*
X183195108Y-111144671D01*
X183195110Y-111144671D01*
X183326890Y-111144671D01*
X183326892Y-111144671D01*
X183454186Y-111110563D01*
X183543308Y-111059108D01*
X209303500Y-111059108D01*
X209303500Y-111190891D01*
X209337608Y-111318187D01*
X209363192Y-111362499D01*
X209403500Y-111432314D01*
X209496686Y-111525500D01*
X209610814Y-111591392D01*
X209738108Y-111625500D01*
X209738110Y-111625500D01*
X209869890Y-111625500D01*
X209869892Y-111625500D01*
X209997186Y-111591392D01*
X210111314Y-111525500D01*
X210204500Y-111432314D01*
X210270392Y-111318186D01*
X210304500Y-111190892D01*
X210304500Y-111059108D01*
X210270392Y-110931814D01*
X210204500Y-110817686D01*
X210111314Y-110724500D01*
X210054250Y-110691554D01*
X209997187Y-110658608D01*
X209933539Y-110641554D01*
X209869892Y-110624500D01*
X209738108Y-110624500D01*
X209610812Y-110658608D01*
X209496686Y-110724500D01*
X209496683Y-110724502D01*
X209403502Y-110817683D01*
X209403500Y-110817686D01*
X209337608Y-110931812D01*
X209303500Y-111059108D01*
X183543308Y-111059108D01*
X183568314Y-111044671D01*
X183661500Y-110951485D01*
X183727392Y-110837357D01*
X183761500Y-110710063D01*
X183761500Y-110578279D01*
X183727392Y-110450985D01*
X183708200Y-110417744D01*
X183691728Y-110349846D01*
X183714580Y-110283819D01*
X183727907Y-110268064D01*
X183740066Y-110255906D01*
X183805958Y-110141778D01*
X183840066Y-110014484D01*
X183840066Y-109882700D01*
X183815175Y-109789803D01*
X184934500Y-109789803D01*
X184934500Y-109921586D01*
X184968608Y-110048882D01*
X185001554Y-110105945D01*
X185034500Y-110163009D01*
X185127686Y-110256195D01*
X185241814Y-110322087D01*
X185369108Y-110356195D01*
X185369110Y-110356195D01*
X185500890Y-110356195D01*
X185500892Y-110356195D01*
X185628186Y-110322087D01*
X185742314Y-110256195D01*
X185835500Y-110163009D01*
X185901392Y-110048881D01*
X185935500Y-109921587D01*
X185935500Y-109916108D01*
X188475500Y-109916108D01*
X188475500Y-110047892D01*
X188492554Y-110111539D01*
X188509608Y-110175187D01*
X188513647Y-110182182D01*
X188575500Y-110289314D01*
X188668686Y-110382500D01*
X188782814Y-110448392D01*
X188910108Y-110482500D01*
X188910110Y-110482500D01*
X189041890Y-110482500D01*
X189041892Y-110482500D01*
X189169186Y-110448392D01*
X189283314Y-110382500D01*
X189376500Y-110289314D01*
X189442392Y-110175186D01*
X189476500Y-110047892D01*
X189476500Y-109916108D01*
X189442392Y-109788814D01*
X189376500Y-109674686D01*
X189283314Y-109581500D01*
X189189465Y-109527316D01*
X189169187Y-109515608D01*
X189044504Y-109482200D01*
X189041892Y-109481500D01*
X188910108Y-109481500D01*
X188782812Y-109515608D01*
X188668686Y-109581500D01*
X188668683Y-109581502D01*
X188575502Y-109674683D01*
X188575500Y-109674686D01*
X188509608Y-109788812D01*
X188484451Y-109882702D01*
X188475500Y-109916108D01*
X185935500Y-109916108D01*
X185935500Y-109789803D01*
X185901392Y-109662509D01*
X185835500Y-109548381D01*
X185742314Y-109455195D01*
X185740606Y-109454208D01*
X185675749Y-109416762D01*
X185675737Y-109416756D01*
X185628186Y-109389303D01*
X185589919Y-109379049D01*
X185589918Y-109379049D01*
X185549994Y-109368351D01*
X185500892Y-109355195D01*
X185369108Y-109355195D01*
X185241812Y-109389303D01*
X185127686Y-109455195D01*
X185127683Y-109455197D01*
X185034502Y-109548378D01*
X185034500Y-109548381D01*
X184968608Y-109662507D01*
X184934500Y-109789803D01*
X183815175Y-109789803D01*
X183805958Y-109755406D01*
X183740066Y-109641278D01*
X183646880Y-109548092D01*
X183589816Y-109515146D01*
X183532753Y-109482200D01*
X183431974Y-109455197D01*
X183405458Y-109448092D01*
X183273674Y-109448092D01*
X183146378Y-109482200D01*
X183032252Y-109548092D01*
X183032249Y-109548094D01*
X182939068Y-109641275D01*
X182939066Y-109641278D01*
X182873174Y-109755404D01*
X182856451Y-109817816D01*
X182839066Y-109882700D01*
X182839066Y-110014484D01*
X182848017Y-110047891D01*
X182873175Y-110141780D01*
X182873176Y-110141783D01*
X182892363Y-110175015D01*
X182908837Y-110242915D01*
X182885985Y-110308942D01*
X182872661Y-110324695D01*
X182860503Y-110336853D01*
X182860501Y-110336855D01*
X182860500Y-110336857D01*
X182834150Y-110382497D01*
X182794608Y-110450984D01*
X182760500Y-110578279D01*
X173016102Y-110578279D01*
X172952105Y-110482500D01*
X172935626Y-110457837D01*
X172817162Y-110339373D01*
X172677860Y-110246295D01*
X172523082Y-110182184D01*
X172523074Y-110182182D01*
X172358771Y-110149500D01*
X172358767Y-110149500D01*
X171641233Y-110149500D01*
X171641228Y-110149500D01*
X171476925Y-110182182D01*
X171476917Y-110182184D01*
X171322139Y-110246295D01*
X171182837Y-110339373D01*
X171064373Y-110457837D01*
X170971295Y-110597139D01*
X170907184Y-110751917D01*
X170907182Y-110751925D01*
X170874500Y-110916228D01*
X170500500Y-110916228D01*
X170500500Y-107798090D01*
X170520185Y-107731051D01*
X170572989Y-107685296D01*
X170642147Y-107675352D01*
X170705703Y-107704377D01*
X170730039Y-107732994D01*
X170782682Y-107818343D01*
X170906654Y-107942315D01*
X171055875Y-108034356D01*
X171055882Y-108034359D01*
X171205015Y-108083776D01*
X171262460Y-108123548D01*
X171289284Y-108188064D01*
X171276969Y-108256840D01*
X171234904Y-108304583D01*
X171182840Y-108339371D01*
X171182834Y-108339376D01*
X171064373Y-108457837D01*
X170971295Y-108597139D01*
X170907184Y-108751917D01*
X170907182Y-108751925D01*
X170874500Y-108916228D01*
X170874500Y-109083771D01*
X170907182Y-109248074D01*
X170907184Y-109248082D01*
X170971295Y-109402860D01*
X171064373Y-109542162D01*
X171182837Y-109660626D01*
X171221399Y-109686392D01*
X171322137Y-109753703D01*
X171322138Y-109753703D01*
X171322139Y-109753704D01*
X171326248Y-109755406D01*
X171476918Y-109817816D01*
X171626146Y-109847499D01*
X171641228Y-109850499D01*
X171641232Y-109850500D01*
X171641233Y-109850500D01*
X172358768Y-109850500D01*
X172358769Y-109850499D01*
X172523082Y-109817816D01*
X172677863Y-109753703D01*
X172817162Y-109660626D01*
X172935626Y-109542162D01*
X173028703Y-109402863D01*
X173079136Y-109281108D01*
X190253500Y-109281108D01*
X190253500Y-109412892D01*
X190270554Y-109476539D01*
X190287608Y-109540187D01*
X190292339Y-109548381D01*
X190353500Y-109654314D01*
X190446686Y-109747500D01*
X190560814Y-109813392D01*
X190688108Y-109847500D01*
X190688110Y-109847500D01*
X190819890Y-109847500D01*
X190819892Y-109847500D01*
X190947186Y-109813392D01*
X191061314Y-109747500D01*
X191154500Y-109654314D01*
X191220392Y-109540186D01*
X191254500Y-109412892D01*
X191254500Y-109281108D01*
X191220471Y-109154108D01*
X194698500Y-109154108D01*
X194698500Y-109285891D01*
X194732608Y-109413187D01*
X194752761Y-109448092D01*
X194798500Y-109527314D01*
X194891686Y-109620500D01*
X195005814Y-109686392D01*
X195133108Y-109720500D01*
X195133110Y-109720500D01*
X195264890Y-109720500D01*
X195264892Y-109720500D01*
X195392186Y-109686392D01*
X195506314Y-109620500D01*
X195599500Y-109527314D01*
X195665392Y-109413186D01*
X195699500Y-109285892D01*
X195699500Y-109154108D01*
X195665392Y-109026814D01*
X195599500Y-108912686D01*
X195506314Y-108819500D01*
X195434247Y-108777892D01*
X195392187Y-108753608D01*
X195328539Y-108736554D01*
X195264892Y-108719500D01*
X195133108Y-108719500D01*
X195005812Y-108753608D01*
X194891686Y-108819500D01*
X194891683Y-108819502D01*
X194798502Y-108912683D01*
X194798500Y-108912686D01*
X194732608Y-109026812D01*
X194698500Y-109154108D01*
X191220471Y-109154108D01*
X191220392Y-109153814D01*
X191154500Y-109039686D01*
X191061314Y-108946500D01*
X190989756Y-108905186D01*
X190947187Y-108880608D01*
X190883539Y-108863554D01*
X190819892Y-108846500D01*
X190688108Y-108846500D01*
X190560812Y-108880608D01*
X190446686Y-108946500D01*
X190446683Y-108946502D01*
X190353502Y-109039683D01*
X190353500Y-109039686D01*
X190287608Y-109153812D01*
X190271883Y-109212500D01*
X190253500Y-109281108D01*
X173079136Y-109281108D01*
X173092816Y-109248082D01*
X173125500Y-109083767D01*
X173125500Y-108916233D01*
X173092816Y-108751918D01*
X173048988Y-108646108D01*
X185427500Y-108646108D01*
X185427500Y-108777891D01*
X185461608Y-108905187D01*
X185465936Y-108912683D01*
X185527500Y-109019314D01*
X185620686Y-109112500D01*
X185734814Y-109178392D01*
X185862108Y-109212500D01*
X185862111Y-109212500D01*
X185993890Y-109212500D01*
X185993892Y-109212500D01*
X186121186Y-109178392D01*
X186235314Y-109112500D01*
X186328500Y-109019314D01*
X186394392Y-108905186D01*
X186428500Y-108777892D01*
X186428500Y-108646108D01*
X186394392Y-108518814D01*
X186328500Y-108404686D01*
X186235314Y-108311500D01*
X186178250Y-108278554D01*
X186121187Y-108245608D01*
X186026469Y-108220229D01*
X185993892Y-108211500D01*
X185862108Y-108211500D01*
X185734812Y-108245608D01*
X185620686Y-108311500D01*
X185620683Y-108311502D01*
X185527502Y-108404683D01*
X185527500Y-108404686D01*
X185461608Y-108518812D01*
X185427500Y-108646108D01*
X173048988Y-108646108D01*
X173028703Y-108597137D01*
X172976368Y-108518812D01*
X172935626Y-108457837D01*
X172817165Y-108339376D01*
X172817161Y-108339373D01*
X172765097Y-108304585D01*
X172720292Y-108250973D01*
X172711585Y-108181648D01*
X172741739Y-108118621D01*
X172794984Y-108083777D01*
X172944119Y-108034358D01*
X172944124Y-108034356D01*
X173093345Y-107942315D01*
X173217315Y-107818345D01*
X173309356Y-107669124D01*
X173309358Y-107669119D01*
X173364369Y-107503108D01*
X173997500Y-107503108D01*
X173997500Y-107634892D01*
X174000939Y-107647725D01*
X174031608Y-107762187D01*
X174052337Y-107798090D01*
X174097500Y-107876314D01*
X174190686Y-107969500D01*
X174289521Y-108026563D01*
X174303019Y-108034356D01*
X174304814Y-108035392D01*
X174432108Y-108069500D01*
X174432110Y-108069500D01*
X174563890Y-108069500D01*
X174563892Y-108069500D01*
X174691186Y-108035392D01*
X174805314Y-107969500D01*
X174898500Y-107876314D01*
X174964392Y-107762186D01*
X174984285Y-107687945D01*
X178446784Y-107687945D01*
X178446784Y-107819729D01*
X178461946Y-107876314D01*
X178480892Y-107947024D01*
X178493869Y-107969500D01*
X178546784Y-108061151D01*
X178639970Y-108154337D01*
X178754098Y-108220229D01*
X178881392Y-108254337D01*
X178881394Y-108254337D01*
X179013174Y-108254337D01*
X179013176Y-108254337D01*
X179140470Y-108220229D01*
X179254598Y-108154337D01*
X179347784Y-108061151D01*
X179413676Y-107947023D01*
X179447784Y-107819729D01*
X179447784Y-107687945D01*
X179413676Y-107560651D01*
X179347784Y-107446523D01*
X179254598Y-107353337D01*
X179162346Y-107300075D01*
X179140471Y-107287445D01*
X179044335Y-107261686D01*
X179013176Y-107253337D01*
X178881392Y-107253337D01*
X178754096Y-107287445D01*
X178639970Y-107353337D01*
X178639967Y-107353339D01*
X178546786Y-107446520D01*
X178546784Y-107446523D01*
X178480892Y-107560649D01*
X178460999Y-107634892D01*
X178446784Y-107687945D01*
X174984285Y-107687945D01*
X174998500Y-107634892D01*
X174998500Y-107503108D01*
X174964392Y-107375814D01*
X174898500Y-107261686D01*
X174805314Y-107168500D01*
X174733247Y-107126892D01*
X174691187Y-107102608D01*
X174627539Y-107085554D01*
X174563892Y-107068500D01*
X174432108Y-107068500D01*
X174304812Y-107102608D01*
X174190686Y-107168500D01*
X174190683Y-107168502D01*
X174097502Y-107261683D01*
X174097500Y-107261686D01*
X174031608Y-107375812D01*
X173997612Y-107502689D01*
X173997500Y-107503108D01*
X173364369Y-107503108D01*
X173364505Y-107502697D01*
X173364506Y-107502689D01*
X173366582Y-107482378D01*
X173374999Y-107399986D01*
X173375000Y-107399973D01*
X173375000Y-107250000D01*
X172280330Y-107250000D01*
X172300075Y-107230255D01*
X172349444Y-107144745D01*
X172375000Y-107049370D01*
X172375000Y-106995108D01*
X187840500Y-106995108D01*
X187840500Y-107126891D01*
X187874608Y-107254187D01*
X187878936Y-107261683D01*
X187940500Y-107368314D01*
X188033686Y-107461500D01*
X188147814Y-107527392D01*
X188275108Y-107561500D01*
X188275110Y-107561500D01*
X188406890Y-107561500D01*
X188406892Y-107561500D01*
X188534186Y-107527392D01*
X188648314Y-107461500D01*
X188741500Y-107368314D01*
X188807392Y-107254186D01*
X188841500Y-107126892D01*
X188841500Y-106995108D01*
X188807392Y-106867814D01*
X188741500Y-106753686D01*
X188648314Y-106660500D01*
X188576247Y-106618892D01*
X188534187Y-106594608D01*
X188470539Y-106577554D01*
X188406892Y-106560500D01*
X188275108Y-106560500D01*
X188147812Y-106594608D01*
X188033686Y-106660500D01*
X188033683Y-106660502D01*
X187940502Y-106753683D01*
X187940500Y-106753686D01*
X187874608Y-106867812D01*
X187840500Y-106995108D01*
X172375000Y-106995108D01*
X172375000Y-106950630D01*
X172349444Y-106855255D01*
X172300075Y-106769745D01*
X172280330Y-106750000D01*
X173374999Y-106750000D01*
X173374999Y-106600028D01*
X173374998Y-106600013D01*
X173364505Y-106497302D01*
X173361127Y-106487108D01*
X200032500Y-106487108D01*
X200032500Y-106618891D01*
X200066608Y-106746187D01*
X200097388Y-106799499D01*
X200132500Y-106860314D01*
X200225686Y-106953500D01*
X200339814Y-107019392D01*
X200467108Y-107053500D01*
X200467110Y-107053500D01*
X200598890Y-107053500D01*
X200598892Y-107053500D01*
X200726186Y-107019392D01*
X200840314Y-106953500D01*
X200933500Y-106860314D01*
X200999392Y-106746186D01*
X201033500Y-106618892D01*
X201033500Y-106487108D01*
X200999392Y-106359814D01*
X200933500Y-106245686D01*
X200840314Y-106152500D01*
X200759452Y-106105814D01*
X200726187Y-106086608D01*
X200662539Y-106069554D01*
X200598892Y-106052500D01*
X200467108Y-106052500D01*
X200339812Y-106086608D01*
X200225686Y-106152500D01*
X200225683Y-106152502D01*
X200132502Y-106245683D01*
X200132500Y-106245686D01*
X200066608Y-106359812D01*
X200032500Y-106487108D01*
X173361127Y-106487108D01*
X173309358Y-106330880D01*
X173309356Y-106330875D01*
X173217315Y-106181654D01*
X173093345Y-106057684D01*
X172944124Y-105965643D01*
X172944119Y-105965641D01*
X172777697Y-105910494D01*
X172777690Y-105910493D01*
X172674986Y-105900000D01*
X172250000Y-105900000D01*
X172250000Y-106719670D01*
X172230255Y-106699925D01*
X172144745Y-106650556D01*
X172049370Y-106625000D01*
X171950630Y-106625000D01*
X171855255Y-106650556D01*
X171769745Y-106699925D01*
X171750000Y-106719670D01*
X171750000Y-105900000D01*
X171325028Y-105900000D01*
X171325012Y-105900001D01*
X171222302Y-105910494D01*
X171055880Y-105965641D01*
X171055875Y-105965643D01*
X170906654Y-106057684D01*
X170782684Y-106181654D01*
X170730039Y-106267006D01*
X170678091Y-106313730D01*
X170609128Y-106324953D01*
X170545046Y-106297109D01*
X170506190Y-106239040D01*
X170500500Y-106201909D01*
X170500500Y-105217108D01*
X205874500Y-105217108D01*
X205874500Y-105348891D01*
X205908608Y-105476187D01*
X205941554Y-105533250D01*
X205974500Y-105590314D01*
X206067686Y-105683500D01*
X206067689Y-105683501D01*
X206067692Y-105683504D01*
X206067886Y-105683616D01*
X206068016Y-105683753D01*
X206074135Y-105688448D01*
X206073402Y-105689402D01*
X206116099Y-105734185D01*
X206129319Y-105802793D01*
X206103348Y-105867656D01*
X206073866Y-105893201D01*
X206074135Y-105893552D01*
X206068257Y-105898062D01*
X206067886Y-105898384D01*
X206067692Y-105898495D01*
X206067683Y-105898502D01*
X205974502Y-105991683D01*
X205974500Y-105991686D01*
X205908608Y-106105812D01*
X205874500Y-106233108D01*
X205874500Y-106364891D01*
X205908608Y-106492187D01*
X205941554Y-106549250D01*
X205974500Y-106606314D01*
X206067686Y-106699500D01*
X206181814Y-106765392D01*
X206309108Y-106799500D01*
X206309110Y-106799500D01*
X206440890Y-106799500D01*
X206440892Y-106799500D01*
X206568186Y-106765392D01*
X206682314Y-106699500D01*
X206775500Y-106606314D01*
X206841392Y-106492186D01*
X206875500Y-106364892D01*
X206875500Y-106233108D01*
X206841392Y-106105814D01*
X206775500Y-105991686D01*
X206682314Y-105898500D01*
X206682117Y-105898386D01*
X206681987Y-105898250D01*
X206675865Y-105893552D01*
X206676597Y-105892597D01*
X206633903Y-105847822D01*
X206620679Y-105779215D01*
X206646646Y-105714350D01*
X206676133Y-105688798D01*
X206675865Y-105688448D01*
X206681746Y-105683935D01*
X206682116Y-105683613D01*
X206682314Y-105683500D01*
X206775500Y-105590314D01*
X206841392Y-105476186D01*
X206875500Y-105348892D01*
X206875500Y-105217108D01*
X206841392Y-105089814D01*
X206775500Y-104975686D01*
X206682314Y-104882500D01*
X206618492Y-104845652D01*
X206568187Y-104816608D01*
X206504539Y-104799554D01*
X206440892Y-104782500D01*
X206309108Y-104782500D01*
X206181812Y-104816608D01*
X206067686Y-104882500D01*
X206067683Y-104882502D01*
X205974502Y-104975683D01*
X205974500Y-104975686D01*
X205908608Y-105089812D01*
X205874500Y-105217108D01*
X170500500Y-105217108D01*
X170500500Y-103947108D01*
X175775500Y-103947108D01*
X175775500Y-104078891D01*
X175809608Y-104206187D01*
X175811309Y-104209133D01*
X175875500Y-104320314D01*
X175968686Y-104413500D01*
X176082814Y-104479392D01*
X176210108Y-104513500D01*
X176210110Y-104513500D01*
X176341890Y-104513500D01*
X176341892Y-104513500D01*
X176469186Y-104479392D01*
X176583314Y-104413500D01*
X176676500Y-104320314D01*
X176700202Y-104279261D01*
X196949000Y-104279261D01*
X196949000Y-104411044D01*
X196983108Y-104538340D01*
X197016054Y-104595403D01*
X197049000Y-104652467D01*
X197142186Y-104745653D01*
X197256314Y-104811545D01*
X197383608Y-104845653D01*
X197383610Y-104845653D01*
X197515390Y-104845653D01*
X197515392Y-104845653D01*
X197642686Y-104811545D01*
X197756814Y-104745653D01*
X197850000Y-104652467D01*
X197915892Y-104538339D01*
X197950000Y-104411045D01*
X197950000Y-104279261D01*
X197915892Y-104151967D01*
X197873702Y-104078892D01*
X197870940Y-104074108D01*
X200032500Y-104074108D01*
X200032500Y-104205892D01*
X200049554Y-104269539D01*
X200066608Y-104333187D01*
X200099554Y-104390250D01*
X200132500Y-104447314D01*
X200225686Y-104540500D01*
X200339814Y-104606392D01*
X200467108Y-104640500D01*
X200467110Y-104640500D01*
X200598890Y-104640500D01*
X200598892Y-104640500D01*
X200726186Y-104606392D01*
X200840314Y-104540500D01*
X200933500Y-104447314D01*
X200999392Y-104333186D01*
X201033500Y-104205892D01*
X201033500Y-104074108D01*
X200999392Y-103946814D01*
X200998145Y-103944655D01*
X200960101Y-103878761D01*
X200933500Y-103832686D01*
X200840314Y-103739500D01*
X200768247Y-103697892D01*
X200726187Y-103673608D01*
X200662539Y-103656554D01*
X200598892Y-103639500D01*
X200467108Y-103639500D01*
X200339812Y-103673608D01*
X200225686Y-103739500D01*
X200225683Y-103739502D01*
X200132502Y-103832683D01*
X200132500Y-103832686D01*
X200066608Y-103946812D01*
X200043649Y-104032499D01*
X200032500Y-104074108D01*
X197870940Y-104074108D01*
X197850002Y-104037842D01*
X197849997Y-104037836D01*
X197756816Y-103944655D01*
X197756814Y-103944653D01*
X197699750Y-103911707D01*
X197642687Y-103878761D01*
X197579039Y-103861707D01*
X197515392Y-103844653D01*
X197383608Y-103844653D01*
X197256312Y-103878761D01*
X197142186Y-103944653D01*
X197142183Y-103944655D01*
X197049002Y-104037836D01*
X197049000Y-104037839D01*
X196983108Y-104151965D01*
X196949000Y-104279261D01*
X176700202Y-104279261D01*
X176742392Y-104206186D01*
X176776500Y-104078892D01*
X176776500Y-103947108D01*
X176742392Y-103819814D01*
X176676500Y-103705686D01*
X176583314Y-103612500D01*
X176511756Y-103571186D01*
X176469187Y-103546608D01*
X176391857Y-103525888D01*
X176341892Y-103512500D01*
X176210108Y-103512500D01*
X176082812Y-103546608D01*
X175968686Y-103612500D01*
X175968683Y-103612502D01*
X175875502Y-103705683D01*
X175875500Y-103705686D01*
X175809608Y-103819812D01*
X175775500Y-103947108D01*
X170500500Y-103947108D01*
X170500500Y-103312108D01*
X183395500Y-103312108D01*
X183395500Y-103443892D01*
X183399142Y-103457483D01*
X183429608Y-103571187D01*
X183441814Y-103592328D01*
X183495500Y-103685314D01*
X183588686Y-103778500D01*
X183682539Y-103832686D01*
X183702292Y-103844091D01*
X183702814Y-103844392D01*
X183830108Y-103878500D01*
X183830110Y-103878500D01*
X183961890Y-103878500D01*
X183961892Y-103878500D01*
X184089186Y-103844392D01*
X184203314Y-103778500D01*
X184296500Y-103685314D01*
X184362392Y-103571186D01*
X184363753Y-103566108D01*
X187840500Y-103566108D01*
X187840500Y-103697892D01*
X187843086Y-103707544D01*
X187874608Y-103825187D01*
X187889223Y-103850500D01*
X187940500Y-103939314D01*
X188033686Y-104032500D01*
X188147814Y-104098392D01*
X188275108Y-104132500D01*
X188275110Y-104132500D01*
X188406890Y-104132500D01*
X188406892Y-104132500D01*
X188534186Y-104098392D01*
X188648314Y-104032500D01*
X188741500Y-103939314D01*
X188807392Y-103825186D01*
X188841500Y-103697892D01*
X188841500Y-103566108D01*
X188807392Y-103438814D01*
X188741500Y-103324686D01*
X188648314Y-103231500D01*
X188567452Y-103184814D01*
X188534187Y-103165608D01*
X188470539Y-103148554D01*
X188406892Y-103131500D01*
X188275108Y-103131500D01*
X188147812Y-103165608D01*
X188033686Y-103231500D01*
X188033683Y-103231502D01*
X187940502Y-103324683D01*
X187940500Y-103324686D01*
X187874608Y-103438812D01*
X187854864Y-103512500D01*
X187840500Y-103566108D01*
X184363753Y-103566108D01*
X184396500Y-103443892D01*
X184396500Y-103312108D01*
X184362392Y-103184814D01*
X184296500Y-103070686D01*
X184203314Y-102977500D01*
X184146250Y-102944554D01*
X184089187Y-102911608D01*
X184025539Y-102894554D01*
X183961892Y-102877500D01*
X183830108Y-102877500D01*
X183702812Y-102911608D01*
X183588686Y-102977500D01*
X183588683Y-102977502D01*
X183495502Y-103070683D01*
X183495500Y-103070686D01*
X183429608Y-103184812D01*
X183417098Y-103231502D01*
X183395500Y-103312108D01*
X170500500Y-103312108D01*
X170500500Y-103048909D01*
X170520185Y-102981870D01*
X170572989Y-102936115D01*
X170642147Y-102926171D01*
X170705703Y-102955196D01*
X170712181Y-102961228D01*
X170719306Y-102968353D01*
X170719310Y-102968356D01*
X170856014Y-103059700D01*
X170856027Y-103059707D01*
X170969950Y-103106894D01*
X171007927Y-103122625D01*
X171007929Y-103122625D01*
X171007934Y-103122627D01*
X171169184Y-103154701D01*
X171169187Y-103154702D01*
X171169189Y-103154702D01*
X172832213Y-103154702D01*
X172832214Y-103154701D01*
X172885965Y-103144009D01*
X172993465Y-103122627D01*
X172993468Y-103122625D01*
X172993473Y-103122625D01*
X173145379Y-103059704D01*
X173282090Y-102968356D01*
X173398354Y-102852092D01*
X173489702Y-102715381D01*
X173552623Y-102563475D01*
X173584700Y-102402213D01*
X173584700Y-102237791D01*
X173584700Y-102237788D01*
X173584699Y-102237786D01*
X176030700Y-102237786D01*
X176030700Y-102402217D01*
X176062774Y-102563467D01*
X176062777Y-102563476D01*
X176125694Y-102715374D01*
X176125701Y-102715387D01*
X176217045Y-102852091D01*
X176217048Y-102852095D01*
X176333306Y-102968353D01*
X176333310Y-102968356D01*
X176470014Y-103059700D01*
X176470027Y-103059707D01*
X176583950Y-103106894D01*
X176621927Y-103122625D01*
X176621929Y-103122625D01*
X176621934Y-103122627D01*
X176783184Y-103154701D01*
X176783187Y-103154702D01*
X176783189Y-103154702D01*
X177938213Y-103154702D01*
X177938214Y-103154701D01*
X177991965Y-103144009D01*
X178099465Y-103122627D01*
X178099468Y-103122625D01*
X178099473Y-103122625D01*
X178251379Y-103059704D01*
X178388090Y-102968356D01*
X178504354Y-102852092D01*
X178595702Y-102715381D01*
X178658623Y-102563475D01*
X178690700Y-102402213D01*
X178690700Y-102237791D01*
X178690700Y-102237788D01*
X178690699Y-102237786D01*
X178658625Y-102076536D01*
X178658622Y-102076527D01*
X178595705Y-101924629D01*
X178595698Y-101924616D01*
X178504354Y-101787912D01*
X178504351Y-101787908D01*
X178388093Y-101671650D01*
X178388089Y-101671647D01*
X178251385Y-101580303D01*
X178251372Y-101580296D01*
X178211114Y-101563621D01*
X189553187Y-101563621D01*
X189553187Y-101695405D01*
X189566878Y-101746500D01*
X189587295Y-101822700D01*
X189620241Y-101879763D01*
X189653187Y-101936827D01*
X189746373Y-102030013D01*
X189860501Y-102095905D01*
X189987795Y-102130013D01*
X189987797Y-102130013D01*
X190119577Y-102130013D01*
X190119579Y-102130013D01*
X190246873Y-102095905D01*
X190361001Y-102030013D01*
X190454187Y-101936827D01*
X190520079Y-101822699D01*
X190545599Y-101727452D01*
X190581962Y-101667796D01*
X190644809Y-101637266D01*
X190714185Y-101645560D01*
X190753054Y-101671868D01*
X190827686Y-101746500D01*
X190941814Y-101812392D01*
X191069108Y-101846500D01*
X191069110Y-101846500D01*
X191200890Y-101846500D01*
X191200892Y-101846500D01*
X191328186Y-101812392D01*
X191442314Y-101746500D01*
X191535500Y-101653314D01*
X191601392Y-101539186D01*
X191635500Y-101411892D01*
X191635500Y-101280108D01*
X191601392Y-101152814D01*
X191535500Y-101038686D01*
X191442314Y-100945500D01*
X191396727Y-100919180D01*
X191353897Y-100894452D01*
X191353896Y-100894452D01*
X191348464Y-100891316D01*
X191328186Y-100879608D01*
X191200892Y-100845500D01*
X191069108Y-100845500D01*
X190947602Y-100878057D01*
X190925462Y-100877529D01*
X190903721Y-100881720D01*
X190891218Y-100876714D01*
X190877752Y-100876394D01*
X190859412Y-100863981D01*
X190838857Y-100855752D01*
X190831044Y-100844780D01*
X190819890Y-100837231D01*
X190811173Y-100816875D01*
X190798329Y-100798838D01*
X190797688Y-100785384D01*
X190792386Y-100773002D01*
X190796058Y-100751164D01*
X190796003Y-100749999D01*
X211200884Y-100749999D01*
X211200885Y-100750000D01*
X212269670Y-100750000D01*
X212249925Y-100769745D01*
X212200556Y-100855255D01*
X212175000Y-100950630D01*
X212175000Y-101049370D01*
X212200556Y-101144745D01*
X212249925Y-101230255D01*
X212269670Y-101250000D01*
X211200885Y-101250000D01*
X211202085Y-101257584D01*
X211255591Y-101422255D01*
X211334195Y-101576524D01*
X211435967Y-101716602D01*
X211558397Y-101839032D01*
X211698475Y-101940804D01*
X211741162Y-101962554D01*
X211791958Y-102010529D01*
X211808753Y-102078350D01*
X211786216Y-102144485D01*
X211731501Y-102187936D01*
X211728201Y-102189221D01*
X211682670Y-102206203D01*
X211682664Y-102206206D01*
X211567455Y-102292452D01*
X211567452Y-102292455D01*
X211481206Y-102407664D01*
X211481202Y-102407671D01*
X211430908Y-102542517D01*
X211424501Y-102602116D01*
X211424501Y-102602123D01*
X211424500Y-102602135D01*
X211424500Y-103397870D01*
X211424501Y-103397876D01*
X211430908Y-103457483D01*
X211481202Y-103592328D01*
X211481206Y-103592335D01*
X211567452Y-103707544D01*
X211567455Y-103707547D01*
X211682664Y-103793793D01*
X211682671Y-103793797D01*
X211817517Y-103844091D01*
X211817516Y-103844091D01*
X211822744Y-103844653D01*
X211877127Y-103850500D01*
X213222872Y-103850499D01*
X213282483Y-103844091D01*
X213417331Y-103793796D01*
X213532546Y-103707546D01*
X213618796Y-103592331D01*
X213669091Y-103457483D01*
X213675500Y-103397873D01*
X213675499Y-102602128D01*
X213669091Y-102542517D01*
X213618796Y-102407669D01*
X213618795Y-102407668D01*
X213618793Y-102407664D01*
X213532547Y-102292455D01*
X213532544Y-102292452D01*
X213417335Y-102206206D01*
X213417330Y-102206203D01*
X213371798Y-102189221D01*
X213315865Y-102147349D01*
X213291448Y-102081885D01*
X213306300Y-102013612D01*
X213355705Y-101964207D01*
X213358838Y-101962554D01*
X213401522Y-101940805D01*
X213541602Y-101839032D01*
X213664032Y-101716602D01*
X213765804Y-101576524D01*
X213844408Y-101422255D01*
X213897914Y-101257584D01*
X213899115Y-101250000D01*
X212830330Y-101250000D01*
X212850075Y-101230255D01*
X212899444Y-101144745D01*
X212925000Y-101049370D01*
X212925000Y-100950630D01*
X212899444Y-100855255D01*
X212850075Y-100769745D01*
X212830330Y-100750000D01*
X213899115Y-100750000D01*
X213899115Y-100749999D01*
X213897914Y-100742415D01*
X213844408Y-100577744D01*
X213765804Y-100423475D01*
X213664032Y-100283397D01*
X213541602Y-100160967D01*
X213401524Y-100059195D01*
X213247251Y-99980588D01*
X213242760Y-99978729D01*
X213243256Y-99977529D01*
X213190493Y-99941435D01*
X213163307Y-99877071D01*
X213175236Y-99808227D01*
X213222490Y-99756761D01*
X213227807Y-99753739D01*
X213227857Y-99753705D01*
X213227863Y-99753703D01*
X213367162Y-99660626D01*
X213485626Y-99542162D01*
X213578703Y-99402863D01*
X213642816Y-99248082D01*
X213675500Y-99083767D01*
X213675500Y-98916233D01*
X213642816Y-98751918D01*
X213593227Y-98632201D01*
X213578704Y-98597139D01*
X213485626Y-98457837D01*
X213367162Y-98339373D01*
X213227860Y-98246295D01*
X213073082Y-98182184D01*
X213073074Y-98182182D01*
X212908771Y-98149500D01*
X212908767Y-98149500D01*
X212191233Y-98149500D01*
X212191228Y-98149500D01*
X212026925Y-98182182D01*
X212026917Y-98182184D01*
X211872139Y-98246295D01*
X211732837Y-98339373D01*
X211614373Y-98457837D01*
X211521295Y-98597139D01*
X211457184Y-98751917D01*
X211457182Y-98751925D01*
X211424500Y-98916228D01*
X211424500Y-99083771D01*
X211457182Y-99248074D01*
X211457184Y-99248082D01*
X211521295Y-99402860D01*
X211614373Y-99542162D01*
X211732837Y-99660626D01*
X211811070Y-99712899D01*
X211864073Y-99748315D01*
X211877202Y-99757087D01*
X211876526Y-99758097D01*
X211921795Y-99802566D01*
X211937255Y-99870703D01*
X211913423Y-99936383D01*
X211857865Y-99978752D01*
X211853191Y-99980405D01*
X211852748Y-99980588D01*
X211698475Y-100059195D01*
X211558397Y-100160967D01*
X211435967Y-100283397D01*
X211334195Y-100423475D01*
X211255591Y-100577744D01*
X211202085Y-100742415D01*
X211200884Y-100749999D01*
X190796003Y-100749999D01*
X190795005Y-100729047D01*
X190803234Y-100708488D01*
X190803973Y-100704100D01*
X190808122Y-100696281D01*
X190811388Y-100690625D01*
X190811390Y-100690623D01*
X190869077Y-100590705D01*
X190919644Y-100542492D01*
X190976463Y-100528708D01*
X191080027Y-100528708D01*
X191080029Y-100528708D01*
X191207323Y-100494600D01*
X191321451Y-100428708D01*
X191414637Y-100335522D01*
X191480529Y-100221394D01*
X191514637Y-100094100D01*
X191514637Y-99962316D01*
X191480529Y-99835022D01*
X191414637Y-99720894D01*
X191321451Y-99627708D01*
X191317559Y-99625461D01*
X191311761Y-99622113D01*
X191263547Y-99571544D01*
X191250327Y-99502937D01*
X191276297Y-99438073D01*
X191321400Y-99403894D01*
X191321147Y-99403456D01*
X191324643Y-99401437D01*
X191326329Y-99400160D01*
X191328172Y-99399395D01*
X191328186Y-99399392D01*
X191442314Y-99333500D01*
X191535500Y-99240314D01*
X191601392Y-99126186D01*
X191635500Y-98998892D01*
X191635500Y-98942108D01*
X195909800Y-98942108D01*
X195909800Y-99073892D01*
X195920145Y-99112500D01*
X195943908Y-99201187D01*
X195970829Y-99247814D01*
X196009800Y-99315314D01*
X196102986Y-99408500D01*
X196217114Y-99474392D01*
X196344408Y-99508500D01*
X196344410Y-99508500D01*
X196476190Y-99508500D01*
X196476192Y-99508500D01*
X196603486Y-99474392D01*
X196717614Y-99408500D01*
X196810800Y-99315314D01*
X196876692Y-99201186D01*
X196891343Y-99146508D01*
X199803900Y-99146508D01*
X199803900Y-99278292D01*
X199814136Y-99316494D01*
X199838008Y-99405587D01*
X199856764Y-99438073D01*
X199903900Y-99519714D01*
X199997086Y-99612900D01*
X200111214Y-99678792D01*
X200238508Y-99712900D01*
X200238510Y-99712900D01*
X200370290Y-99712900D01*
X200370292Y-99712900D01*
X200497586Y-99678792D01*
X200611714Y-99612900D01*
X200704900Y-99519714D01*
X200770792Y-99405586D01*
X200804900Y-99278292D01*
X200804900Y-99146508D01*
X200770792Y-99019214D01*
X200756297Y-98994108D01*
X204096500Y-98994108D01*
X204096500Y-99125892D01*
X204102024Y-99146508D01*
X204130608Y-99253187D01*
X204145102Y-99278290D01*
X204196500Y-99367314D01*
X204196502Y-99367316D01*
X204263676Y-99434490D01*
X204297161Y-99495813D01*
X204292177Y-99565505D01*
X204283382Y-99584171D01*
X204257609Y-99628810D01*
X204257609Y-99628811D01*
X204257609Y-99628812D01*
X204257608Y-99628814D01*
X204223500Y-99756108D01*
X204223500Y-99887892D01*
X204232187Y-99920313D01*
X204257608Y-100015187D01*
X204283017Y-100059195D01*
X204323500Y-100129314D01*
X204416686Y-100222500D01*
X204530814Y-100288392D01*
X204658108Y-100322500D01*
X204658110Y-100322500D01*
X204789890Y-100322500D01*
X204789892Y-100322500D01*
X204917186Y-100288392D01*
X205031314Y-100222500D01*
X205124500Y-100129314D01*
X205190392Y-100015186D01*
X205224500Y-99887892D01*
X205224500Y-99756108D01*
X205190392Y-99628814D01*
X205189753Y-99627708D01*
X205153840Y-99565505D01*
X205124500Y-99514686D01*
X205057323Y-99447509D01*
X205023838Y-99386186D01*
X205028822Y-99316494D01*
X205037613Y-99297835D01*
X205063392Y-99253186D01*
X205097500Y-99125892D01*
X205097500Y-98994108D01*
X205063392Y-98866814D01*
X204997500Y-98752686D01*
X204904314Y-98659500D01*
X204845741Y-98625683D01*
X204790187Y-98593608D01*
X204726539Y-98576554D01*
X204662892Y-98559500D01*
X204531108Y-98559500D01*
X204403812Y-98593608D01*
X204289686Y-98659500D01*
X204289683Y-98659502D01*
X204196502Y-98752683D01*
X204196500Y-98752686D01*
X204130608Y-98866812D01*
X204101725Y-98974608D01*
X204096500Y-98994108D01*
X200756297Y-98994108D01*
X200704900Y-98905086D01*
X200611714Y-98811900D01*
X200509153Y-98752686D01*
X200497587Y-98746008D01*
X200433939Y-98728954D01*
X200370292Y-98711900D01*
X200238508Y-98711900D01*
X200111212Y-98746008D01*
X199997086Y-98811900D01*
X199997083Y-98811902D01*
X199903902Y-98905083D01*
X199903900Y-98905086D01*
X199838008Y-99019212D01*
X199809424Y-99125891D01*
X199803900Y-99146508D01*
X196891343Y-99146508D01*
X196910800Y-99073892D01*
X196910800Y-98942108D01*
X196876692Y-98814814D01*
X196810800Y-98700686D01*
X196717614Y-98607500D01*
X196634476Y-98559500D01*
X196603487Y-98541608D01*
X196539839Y-98524554D01*
X196476192Y-98507500D01*
X196344408Y-98507500D01*
X196217112Y-98541608D01*
X196102986Y-98607500D01*
X196102983Y-98607502D01*
X196009802Y-98700683D01*
X196009800Y-98700686D01*
X195943908Y-98814812D01*
X195929896Y-98867108D01*
X195909800Y-98942108D01*
X191635500Y-98942108D01*
X191635500Y-98867108D01*
X191601392Y-98739814D01*
X191535500Y-98625686D01*
X191442314Y-98532500D01*
X191385250Y-98499554D01*
X191328187Y-98466608D01*
X191264539Y-98449554D01*
X191200892Y-98432500D01*
X191069108Y-98432500D01*
X190941812Y-98466608D01*
X190827686Y-98532500D01*
X190827683Y-98532502D01*
X190734502Y-98625683D01*
X190734500Y-98625686D01*
X190668608Y-98739812D01*
X190634500Y-98867108D01*
X190634500Y-98998891D01*
X190668608Y-99126187D01*
X190701554Y-99183250D01*
X190734500Y-99240314D01*
X190827686Y-99333500D01*
X190835347Y-99337923D01*
X190837373Y-99339093D01*
X190885588Y-99389661D01*
X190898809Y-99458268D01*
X190872840Y-99523132D01*
X190827737Y-99557315D01*
X190827990Y-99557752D01*
X190824512Y-99559759D01*
X190822822Y-99561041D01*
X190820951Y-99561815D01*
X190706823Y-99627708D01*
X190706820Y-99627710D01*
X190613639Y-99720891D01*
X190613637Y-99720894D01*
X190555950Y-99820810D01*
X190505382Y-99869025D01*
X190448563Y-99882809D01*
X190344998Y-99882809D01*
X190217704Y-99916917D01*
X190217703Y-99916917D01*
X190217701Y-99916918D01*
X190217700Y-99916918D01*
X190155882Y-99952608D01*
X190155874Y-99952614D01*
X190103576Y-99982809D01*
X190021087Y-100065297D01*
X190021075Y-100065308D01*
X190010393Y-100075990D01*
X190010390Y-100075995D01*
X189944498Y-100190121D01*
X189910390Y-100317417D01*
X189910390Y-100449200D01*
X189944498Y-100576496D01*
X189960089Y-100603499D01*
X190010390Y-100690623D01*
X190103576Y-100783809D01*
X190196105Y-100837231D01*
X190209180Y-100844780D01*
X190217704Y-100849701D01*
X190344998Y-100883809D01*
X190345000Y-100883809D01*
X190476779Y-100883809D01*
X190476782Y-100883809D01*
X190598290Y-100851251D01*
X190668136Y-100852914D01*
X190725999Y-100892076D01*
X190753503Y-100956304D01*
X190741917Y-101025207D01*
X190737767Y-101033026D01*
X190668609Y-101152810D01*
X190643088Y-101248057D01*
X190606723Y-101307717D01*
X190543876Y-101338246D01*
X190474500Y-101329951D01*
X190435632Y-101303644D01*
X190361003Y-101229015D01*
X190361001Y-101229013D01*
X190303937Y-101196067D01*
X190246874Y-101163121D01*
X190178292Y-101144745D01*
X190119579Y-101129013D01*
X189987795Y-101129013D01*
X189860499Y-101163121D01*
X189746373Y-101229013D01*
X189746370Y-101229015D01*
X189653189Y-101322196D01*
X189653187Y-101322199D01*
X189587295Y-101436325D01*
X189574172Y-101485302D01*
X189553187Y-101563621D01*
X178211114Y-101563621D01*
X178099474Y-101517379D01*
X178099465Y-101517376D01*
X177938214Y-101485302D01*
X177938211Y-101485302D01*
X176783189Y-101485302D01*
X176783186Y-101485302D01*
X176621934Y-101517376D01*
X176621925Y-101517379D01*
X176470027Y-101580296D01*
X176470014Y-101580303D01*
X176333310Y-101671647D01*
X176333306Y-101671650D01*
X176217048Y-101787908D01*
X176217045Y-101787912D01*
X176125701Y-101924616D01*
X176125694Y-101924629D01*
X176062777Y-102076527D01*
X176062774Y-102076536D01*
X176030700Y-102237786D01*
X173584699Y-102237786D01*
X173552625Y-102076536D01*
X173552622Y-102076527D01*
X173489705Y-101924629D01*
X173489698Y-101924616D01*
X173398354Y-101787912D01*
X173398351Y-101787908D01*
X173282093Y-101671650D01*
X173282089Y-101671647D01*
X173145385Y-101580303D01*
X173145372Y-101580296D01*
X172993474Y-101517379D01*
X172993465Y-101517376D01*
X172832214Y-101485302D01*
X172832211Y-101485302D01*
X171169189Y-101485302D01*
X171169186Y-101485302D01*
X171007934Y-101517376D01*
X171007925Y-101517379D01*
X170856027Y-101580296D01*
X170856014Y-101580303D01*
X170719310Y-101671647D01*
X170719306Y-101671650D01*
X170712181Y-101678776D01*
X170650858Y-101712261D01*
X170581166Y-101707277D01*
X170525233Y-101665405D01*
X170500816Y-101599941D01*
X170500500Y-101591095D01*
X170500500Y-100518108D01*
X184538500Y-100518108D01*
X184538500Y-100649892D01*
X184549414Y-100690623D01*
X184572608Y-100777187D01*
X184605554Y-100834250D01*
X184638500Y-100891314D01*
X184731686Y-100984500D01*
X184845814Y-101050392D01*
X184973108Y-101084500D01*
X184973110Y-101084500D01*
X185104890Y-101084500D01*
X185104892Y-101084500D01*
X185232186Y-101050392D01*
X185346314Y-100984500D01*
X185439500Y-100891314D01*
X185505392Y-100777186D01*
X185536549Y-100660903D01*
X185572913Y-100601246D01*
X185635759Y-100570716D01*
X185705135Y-100579010D01*
X185735148Y-100599324D01*
X185735740Y-100598553D01*
X185742181Y-100603495D01*
X185742186Y-100603500D01*
X185856314Y-100669392D01*
X185983608Y-100703500D01*
X185983610Y-100703500D01*
X186115390Y-100703500D01*
X186115392Y-100703500D01*
X186242686Y-100669392D01*
X186356814Y-100603500D01*
X186450000Y-100510314D01*
X186515892Y-100396186D01*
X186550000Y-100268892D01*
X186550000Y-100137108D01*
X186515892Y-100009814D01*
X186450000Y-99895686D01*
X186356814Y-99802500D01*
X186277592Y-99756761D01*
X186242687Y-99736608D01*
X186179039Y-99719554D01*
X186115392Y-99702500D01*
X185983608Y-99702500D01*
X185856312Y-99736608D01*
X185742186Y-99802500D01*
X185742183Y-99802502D01*
X185649002Y-99895683D01*
X185649000Y-99895686D01*
X185625504Y-99936383D01*
X185583108Y-100009814D01*
X185569877Y-100059195D01*
X185551951Y-100126094D01*
X185515586Y-100185754D01*
X185452738Y-100216283D01*
X185383363Y-100207988D01*
X185353351Y-100187675D01*
X185352760Y-100188447D01*
X185346316Y-100183502D01*
X185346314Y-100183500D01*
X185289250Y-100150554D01*
X185232187Y-100117608D01*
X185144448Y-100094099D01*
X185104892Y-100083500D01*
X184973108Y-100083500D01*
X184845812Y-100117608D01*
X184731686Y-100183500D01*
X184731683Y-100183502D01*
X184638502Y-100276683D01*
X184638500Y-100276686D01*
X184572608Y-100390812D01*
X184556963Y-100449201D01*
X184538500Y-100518108D01*
X170500500Y-100518108D01*
X170500500Y-99547108D01*
X178487500Y-99547108D01*
X178487500Y-99678892D01*
X178498754Y-99720894D01*
X178521608Y-99806187D01*
X178547193Y-99850500D01*
X178587500Y-99920314D01*
X178680686Y-100013500D01*
X178759832Y-100059195D01*
X178788921Y-100075990D01*
X178794814Y-100079392D01*
X178922108Y-100113500D01*
X178922110Y-100113500D01*
X179053890Y-100113500D01*
X179053892Y-100113500D01*
X179181186Y-100079392D01*
X179295314Y-100013500D01*
X179388500Y-99920314D01*
X179454392Y-99806186D01*
X179488500Y-99678892D01*
X179488500Y-99547108D01*
X179454392Y-99419814D01*
X179428581Y-99375108D01*
X189110500Y-99375108D01*
X189110500Y-99506892D01*
X189121276Y-99547108D01*
X189144608Y-99634187D01*
X189170419Y-99678892D01*
X189210500Y-99748314D01*
X189303686Y-99841500D01*
X189397539Y-99895686D01*
X189417810Y-99907390D01*
X189417814Y-99907392D01*
X189545108Y-99941500D01*
X189545110Y-99941500D01*
X189676890Y-99941500D01*
X189676892Y-99941500D01*
X189804186Y-99907392D01*
X189918314Y-99841500D01*
X190011500Y-99748314D01*
X190077392Y-99634186D01*
X190111500Y-99506892D01*
X190111500Y-99375108D01*
X190077392Y-99247814D01*
X190011500Y-99133686D01*
X189918314Y-99040500D01*
X189846247Y-98998892D01*
X189804187Y-98974608D01*
X189740539Y-98957554D01*
X189676892Y-98940500D01*
X189545108Y-98940500D01*
X189417812Y-98974608D01*
X189303686Y-99040500D01*
X189303683Y-99040502D01*
X189210502Y-99133683D01*
X189210500Y-99133686D01*
X189144608Y-99247812D01*
X189121649Y-99333499D01*
X189110500Y-99375108D01*
X179428581Y-99375108D01*
X179388500Y-99305686D01*
X179295314Y-99212500D01*
X179238250Y-99179554D01*
X179181187Y-99146608D01*
X179103868Y-99125891D01*
X179053892Y-99112500D01*
X178922108Y-99112500D01*
X178794812Y-99146608D01*
X178680686Y-99212500D01*
X178680683Y-99212502D01*
X178587502Y-99305683D01*
X178587500Y-99305686D01*
X178521608Y-99419812D01*
X178493924Y-99523132D01*
X178487500Y-99547108D01*
X170500500Y-99547108D01*
X170500500Y-97724108D01*
X174886500Y-97724108D01*
X174886500Y-97855891D01*
X174920608Y-97983187D01*
X174946359Y-98027788D01*
X174986500Y-98097314D01*
X175079686Y-98190500D01*
X175193814Y-98256392D01*
X175321108Y-98290500D01*
X175321110Y-98290500D01*
X175452890Y-98290500D01*
X175452892Y-98290500D01*
X175580186Y-98256392D01*
X175694314Y-98190500D01*
X175787500Y-98097314D01*
X175853392Y-97983186D01*
X175887500Y-97855892D01*
X175887500Y-97724108D01*
X175853392Y-97596814D01*
X175852077Y-97594537D01*
X175833558Y-97562461D01*
X175787500Y-97482686D01*
X175694314Y-97389500D01*
X175635741Y-97355683D01*
X175580187Y-97323608D01*
X175497666Y-97301497D01*
X175452892Y-97289500D01*
X175321108Y-97289500D01*
X175193812Y-97323608D01*
X175079686Y-97389500D01*
X175079683Y-97389502D01*
X174986502Y-97482683D01*
X174986500Y-97482686D01*
X174920608Y-97596812D01*
X174886500Y-97724108D01*
X170500500Y-97724108D01*
X170500500Y-97007708D01*
X185854100Y-97007708D01*
X185854100Y-97139491D01*
X185888208Y-97266787D01*
X185921014Y-97323608D01*
X185954100Y-97380914D01*
X186047286Y-97474100D01*
X186161414Y-97539992D01*
X186288708Y-97574100D01*
X186288710Y-97574100D01*
X186420490Y-97574100D01*
X186420492Y-97574100D01*
X186547786Y-97539992D01*
X186661914Y-97474100D01*
X186755100Y-97380914D01*
X186820992Y-97266786D01*
X186855100Y-97139492D01*
X186855100Y-97139483D01*
X186856161Y-97131432D01*
X186858100Y-97131687D01*
X186874785Y-97074866D01*
X186927589Y-97029111D01*
X186981835Y-97017935D01*
X186996764Y-97018264D01*
X187005108Y-97020500D01*
X187098090Y-97020500D01*
X187099450Y-97020530D01*
X187131501Y-97030714D01*
X187163754Y-97040185D01*
X187164684Y-97041258D01*
X187166039Y-97041689D01*
X187187503Y-97067593D01*
X187209509Y-97092989D01*
X187210246Y-97095040D01*
X187210618Y-97095489D01*
X187210725Y-97096371D01*
X187216490Y-97112407D01*
X187239608Y-97198687D01*
X187268122Y-97248074D01*
X187305500Y-97312814D01*
X187398686Y-97406000D01*
X187398688Y-97406001D01*
X187400567Y-97407443D01*
X187401752Y-97409066D01*
X187404433Y-97411747D01*
X187404015Y-97412164D01*
X187441770Y-97463870D01*
X187445925Y-97533616D01*
X187412253Y-97593573D01*
X187412433Y-97593753D01*
X187411794Y-97594391D01*
X187411713Y-97594537D01*
X187411230Y-97594955D01*
X187313502Y-97692683D01*
X187313500Y-97692686D01*
X187247608Y-97806812D01*
X187213509Y-97934075D01*
X187213500Y-97934108D01*
X187213500Y-98065892D01*
X187221920Y-98097316D01*
X187247608Y-98193187D01*
X187278271Y-98246295D01*
X187313500Y-98307314D01*
X187406686Y-98400500D01*
X187520814Y-98466392D01*
X187648108Y-98500500D01*
X187648110Y-98500500D01*
X187779890Y-98500500D01*
X187779892Y-98500500D01*
X187907186Y-98466392D01*
X188021314Y-98400500D01*
X188114500Y-98307314D01*
X188180392Y-98193186D01*
X188214500Y-98065892D01*
X188214500Y-98027788D01*
X188234185Y-97960749D01*
X188286989Y-97914994D01*
X188356147Y-97905050D01*
X188419703Y-97934075D01*
X188445886Y-97965787D01*
X188448500Y-97970314D01*
X188541686Y-98063500D01*
X188655814Y-98129392D01*
X188783108Y-98163500D01*
X188783110Y-98163500D01*
X188914890Y-98163500D01*
X188914892Y-98163500D01*
X189042186Y-98129392D01*
X189156314Y-98063500D01*
X189249500Y-97970314D01*
X189315392Y-97856186D01*
X189349500Y-97728892D01*
X189349500Y-97597108D01*
X189315392Y-97469814D01*
X189249500Y-97355686D01*
X189156314Y-97262500D01*
X189062465Y-97208316D01*
X189042187Y-97196608D01*
X188978539Y-97179554D01*
X188914892Y-97162500D01*
X188783108Y-97162500D01*
X188655812Y-97196608D01*
X188541686Y-97262500D01*
X188541683Y-97262502D01*
X188448502Y-97355683D01*
X188448500Y-97355686D01*
X188382608Y-97469812D01*
X188348500Y-97597108D01*
X188348500Y-97635211D01*
X188328815Y-97702250D01*
X188276011Y-97748005D01*
X188206853Y-97757949D01*
X188143297Y-97728924D01*
X188134874Y-97720903D01*
X188124567Y-97710123D01*
X188114500Y-97692686D01*
X188021314Y-97599500D01*
X188015701Y-97596259D01*
X188005292Y-97585372D01*
X187993441Y-97562461D01*
X187978228Y-97541626D01*
X187977650Y-97531934D01*
X187973191Y-97523313D01*
X187975607Y-97497633D01*
X187974074Y-97471880D01*
X187978828Y-97463414D01*
X187979738Y-97453751D01*
X187995652Y-97433456D01*
X188007745Y-97411925D01*
X188007567Y-97411747D01*
X188008201Y-97411112D01*
X188008287Y-97410960D01*
X188008780Y-97410533D01*
X188013311Y-97406001D01*
X188013314Y-97406000D01*
X188106500Y-97312814D01*
X188172392Y-97198686D01*
X188206500Y-97071392D01*
X188206500Y-96939608D01*
X188178500Y-96835108D01*
X205874500Y-96835108D01*
X205874500Y-96966891D01*
X205908608Y-97094187D01*
X205919128Y-97112407D01*
X205974500Y-97208314D01*
X206067686Y-97301500D01*
X206181814Y-97367392D01*
X206309108Y-97401500D01*
X206309110Y-97401500D01*
X206440890Y-97401500D01*
X206440892Y-97401500D01*
X206568186Y-97367392D01*
X206682314Y-97301500D01*
X206775500Y-97208314D01*
X206841392Y-97094186D01*
X206875500Y-96966892D01*
X206875500Y-96916228D01*
X211424500Y-96916228D01*
X211424500Y-97083771D01*
X211457182Y-97248074D01*
X211457184Y-97248082D01*
X211521295Y-97402860D01*
X211614373Y-97542162D01*
X211732837Y-97660626D01*
X211780814Y-97692683D01*
X211872137Y-97753703D01*
X211872138Y-97753703D01*
X211872139Y-97753704D01*
X211907201Y-97768227D01*
X212026918Y-97817816D01*
X212191228Y-97850499D01*
X212191232Y-97850500D01*
X212191233Y-97850500D01*
X212908768Y-97850500D01*
X212908769Y-97850499D01*
X213073082Y-97817816D01*
X213227863Y-97753703D01*
X213367162Y-97660626D01*
X213485626Y-97542162D01*
X213578703Y-97402863D01*
X213642816Y-97248082D01*
X213675500Y-97083767D01*
X213675500Y-96916233D01*
X213642816Y-96751918D01*
X213578703Y-96597137D01*
X213517139Y-96505000D01*
X213485626Y-96457837D01*
X213367162Y-96339373D01*
X213227860Y-96246295D01*
X213073082Y-96182184D01*
X213073074Y-96182182D01*
X212908771Y-96149500D01*
X212908767Y-96149500D01*
X212191233Y-96149500D01*
X212191228Y-96149500D01*
X212026925Y-96182182D01*
X212026917Y-96182184D01*
X211872139Y-96246295D01*
X211732837Y-96339373D01*
X211614373Y-96457837D01*
X211521295Y-96597139D01*
X211457184Y-96751917D01*
X211457182Y-96751925D01*
X211424500Y-96916228D01*
X206875500Y-96916228D01*
X206875500Y-96835108D01*
X206841392Y-96707814D01*
X206775500Y-96593686D01*
X206682314Y-96500500D01*
X206615478Y-96461912D01*
X206568187Y-96434608D01*
X206487890Y-96413093D01*
X206440892Y-96400500D01*
X206309108Y-96400500D01*
X206181812Y-96434608D01*
X206067686Y-96500500D01*
X206067683Y-96500502D01*
X205974502Y-96593683D01*
X205974500Y-96593686D01*
X205908608Y-96707812D01*
X205874500Y-96835108D01*
X188178500Y-96835108D01*
X188172392Y-96812314D01*
X188106500Y-96698186D01*
X188013314Y-96605000D01*
X187956250Y-96572054D01*
X187899187Y-96539108D01*
X187823145Y-96518733D01*
X187771892Y-96505000D01*
X187680285Y-96505000D01*
X187613246Y-96485315D01*
X187567491Y-96432511D01*
X187560510Y-96413093D01*
X187537391Y-96326812D01*
X187490904Y-96246295D01*
X187471500Y-96212686D01*
X187378314Y-96119500D01*
X187321250Y-96086554D01*
X187264187Y-96053608D01*
X187198389Y-96035978D01*
X187136892Y-96019500D01*
X187005108Y-96019500D01*
X187005106Y-96019500D01*
X186937401Y-96037641D01*
X186867551Y-96035978D01*
X186809689Y-95996814D01*
X186782186Y-95932585D01*
X186793773Y-95863683D01*
X186817627Y-95830186D01*
X186836500Y-95811314D01*
X186902392Y-95697186D01*
X186936500Y-95569892D01*
X186936500Y-95438108D01*
X186902392Y-95310814D01*
X186836500Y-95196686D01*
X186743314Y-95103500D01*
X186662452Y-95056814D01*
X186629187Y-95037608D01*
X186565539Y-95020554D01*
X186501892Y-95003500D01*
X186370108Y-95003500D01*
X186242812Y-95037608D01*
X186128686Y-95103500D01*
X186128683Y-95103502D01*
X186035502Y-95196683D01*
X186035500Y-95196686D01*
X185969608Y-95310812D01*
X185935500Y-95438108D01*
X185935500Y-95569891D01*
X185969608Y-95697187D01*
X185999122Y-95748306D01*
X186035500Y-95811314D01*
X186128686Y-95904500D01*
X186242814Y-95970392D01*
X186370108Y-96004500D01*
X186370110Y-96004500D01*
X186501889Y-96004500D01*
X186501892Y-96004500D01*
X186569599Y-95986358D01*
X186639446Y-95988021D01*
X186697309Y-96027183D01*
X186724813Y-96091412D01*
X186713227Y-96160314D01*
X186689373Y-96193812D01*
X186670503Y-96212682D01*
X186670500Y-96212686D01*
X186604608Y-96326812D01*
X186570500Y-96454108D01*
X186569439Y-96462168D01*
X186567499Y-96461912D01*
X186550815Y-96518733D01*
X186498011Y-96564488D01*
X186428853Y-96574432D01*
X186425697Y-96573785D01*
X186420493Y-96573100D01*
X186420492Y-96573100D01*
X186288708Y-96573100D01*
X186161412Y-96607208D01*
X186047286Y-96673100D01*
X186047283Y-96673102D01*
X185954102Y-96766283D01*
X185954100Y-96766286D01*
X185888208Y-96880412D01*
X185854100Y-97007708D01*
X170500500Y-97007708D01*
X170500500Y-96182914D01*
X184301694Y-96182914D01*
X184301694Y-96314698D01*
X184308306Y-96339373D01*
X184335802Y-96441993D01*
X184368748Y-96499056D01*
X184401694Y-96556120D01*
X184494880Y-96649306D01*
X184609008Y-96715198D01*
X184736302Y-96749306D01*
X184736304Y-96749306D01*
X184868084Y-96749306D01*
X184868086Y-96749306D01*
X184995380Y-96715198D01*
X185109508Y-96649306D01*
X185202694Y-96556120D01*
X185268586Y-96441992D01*
X185302694Y-96314698D01*
X185302694Y-96182914D01*
X185268586Y-96055620D01*
X185267424Y-96053608D01*
X185247732Y-96019500D01*
X185202694Y-95941492D01*
X185109508Y-95848306D01*
X185045436Y-95811314D01*
X184995381Y-95782414D01*
X184931733Y-95765360D01*
X184868086Y-95748306D01*
X184736302Y-95748306D01*
X184609006Y-95782414D01*
X184494880Y-95848306D01*
X184494877Y-95848308D01*
X184401696Y-95941489D01*
X184401694Y-95941492D01*
X184335802Y-96055618D01*
X184301890Y-96182182D01*
X184301694Y-96182914D01*
X170500500Y-96182914D01*
X170500500Y-94408905D01*
X170520185Y-94341866D01*
X170572989Y-94296111D01*
X170642147Y-94286167D01*
X170705703Y-94315192D01*
X170712181Y-94321224D01*
X170719306Y-94328349D01*
X170719310Y-94328352D01*
X170856014Y-94419696D01*
X170856027Y-94419703D01*
X170955881Y-94461063D01*
X171007927Y-94482621D01*
X171007929Y-94482621D01*
X171007934Y-94482623D01*
X171169184Y-94514697D01*
X171169187Y-94514698D01*
X171169189Y-94514698D01*
X172832213Y-94514698D01*
X172832214Y-94514697D01*
X172888241Y-94503553D01*
X172993465Y-94482623D01*
X172993468Y-94482621D01*
X172993473Y-94482621D01*
X173145379Y-94419700D01*
X173282090Y-94328352D01*
X173398354Y-94212088D01*
X173489702Y-94075377D01*
X173552623Y-93923471D01*
X173554486Y-93914108D01*
X173581297Y-93779316D01*
X173584700Y-93762209D01*
X173584700Y-93597787D01*
X173584700Y-93597784D01*
X173584699Y-93597782D01*
X176030700Y-93597782D01*
X176030700Y-93762213D01*
X176062774Y-93923463D01*
X176062777Y-93923472D01*
X176125694Y-94075370D01*
X176125701Y-94075383D01*
X176217045Y-94212087D01*
X176217048Y-94212091D01*
X176333306Y-94328349D01*
X176333310Y-94328352D01*
X176470014Y-94419696D01*
X176470027Y-94419703D01*
X176569881Y-94461063D01*
X176621927Y-94482621D01*
X176621929Y-94482621D01*
X176621934Y-94482623D01*
X176783184Y-94514697D01*
X176783187Y-94514698D01*
X176783189Y-94514698D01*
X177938213Y-94514698D01*
X177938214Y-94514697D01*
X177994241Y-94503553D01*
X178099465Y-94482623D01*
X178099468Y-94482621D01*
X178099473Y-94482621D01*
X178251379Y-94419700D01*
X178388090Y-94328352D01*
X178504354Y-94212088D01*
X178595702Y-94075377D01*
X178658623Y-93923471D01*
X178660485Y-93914110D01*
X178680704Y-93812465D01*
X180494200Y-93812465D01*
X180494200Y-93949534D01*
X180520937Y-94083949D01*
X180520940Y-94083961D01*
X180573386Y-94210578D01*
X180573393Y-94210591D01*
X180649536Y-94324546D01*
X180649539Y-94324550D01*
X180746449Y-94421460D01*
X180746453Y-94421463D01*
X180860408Y-94497606D01*
X180860421Y-94497613D01*
X180984032Y-94548814D01*
X180987043Y-94550061D01*
X181099380Y-94572406D01*
X181121465Y-94576799D01*
X181121469Y-94576800D01*
X181121470Y-94576800D01*
X181258531Y-94576800D01*
X181258532Y-94576799D01*
X181392957Y-94550061D01*
X181519585Y-94497610D01*
X181632582Y-94422108D01*
X187205500Y-94422108D01*
X187205500Y-94553892D01*
X187216861Y-94596293D01*
X187239608Y-94681187D01*
X187272554Y-94738250D01*
X187305500Y-94795314D01*
X187398686Y-94888500D01*
X187512814Y-94954392D01*
X187640108Y-94988500D01*
X187640110Y-94988500D01*
X187771890Y-94988500D01*
X187771892Y-94988500D01*
X187899186Y-94954392D01*
X188013314Y-94888500D01*
X188106500Y-94795314D01*
X188172392Y-94681186D01*
X188201539Y-94572405D01*
X188212489Y-94554441D01*
X188219003Y-94534440D01*
X188230307Y-94525209D01*
X188237904Y-94512746D01*
X188256827Y-94503553D01*
X188273122Y-94490248D01*
X188292135Y-94486402D01*
X188300751Y-94482217D01*
X188307262Y-94481299D01*
X188314267Y-94480500D01*
X188406892Y-94480500D01*
X188475541Y-94462105D01*
X188484683Y-94461063D01*
X188510395Y-94465530D01*
X188536490Y-94466152D01*
X188544268Y-94471416D01*
X188553521Y-94473024D01*
X188572738Y-94490685D01*
X188594353Y-94505314D01*
X188598049Y-94513946D01*
X188604965Y-94520302D01*
X188611583Y-94545548D01*
X188621858Y-94569542D01*
X188621003Y-94581486D01*
X188622682Y-94587889D01*
X188619944Y-94596293D01*
X188618510Y-94616357D01*
X188602500Y-94676108D01*
X188602500Y-94807891D01*
X188636608Y-94935187D01*
X188667388Y-94988499D01*
X188702500Y-95049314D01*
X188795686Y-95142500D01*
X188909814Y-95208392D01*
X189037108Y-95242500D01*
X189037110Y-95242500D01*
X189168890Y-95242500D01*
X189168892Y-95242500D01*
X189296186Y-95208392D01*
X189338247Y-95184108D01*
X199270500Y-95184108D01*
X199270500Y-95315891D01*
X199304608Y-95443187D01*
X199337554Y-95500250D01*
X199370500Y-95557314D01*
X199463686Y-95650500D01*
X199577814Y-95716392D01*
X199705108Y-95750500D01*
X199705110Y-95750500D01*
X199836890Y-95750500D01*
X199836892Y-95750500D01*
X199964186Y-95716392D01*
X200078314Y-95650500D01*
X200171500Y-95557314D01*
X200237392Y-95443186D01*
X200271500Y-95315892D01*
X200271500Y-95184108D01*
X200237392Y-95056814D01*
X200171500Y-94942686D01*
X200078314Y-94849500D01*
X200006247Y-94807892D01*
X199964187Y-94783608D01*
X199881666Y-94761497D01*
X199836892Y-94749500D01*
X199705108Y-94749500D01*
X199577812Y-94783608D01*
X199463686Y-94849500D01*
X199463683Y-94849502D01*
X199370502Y-94942683D01*
X199370500Y-94942686D01*
X199304608Y-95056812D01*
X199270500Y-95184108D01*
X189338247Y-95184108D01*
X189410314Y-95142500D01*
X189503500Y-95049314D01*
X189569392Y-94935186D01*
X189603500Y-94807892D01*
X189603500Y-94676108D01*
X189569392Y-94548814D01*
X189503500Y-94434686D01*
X189410314Y-94341500D01*
X189353250Y-94308554D01*
X189329961Y-94295108D01*
X207398500Y-94295108D01*
X207398500Y-94426892D01*
X207403725Y-94446392D01*
X207432608Y-94554187D01*
X207465554Y-94611250D01*
X207498500Y-94668314D01*
X207591686Y-94761500D01*
X207705814Y-94827392D01*
X207833108Y-94861500D01*
X207833110Y-94861500D01*
X207964890Y-94861500D01*
X207964892Y-94861500D01*
X208092186Y-94827392D01*
X208206314Y-94761500D01*
X208299500Y-94668314D01*
X208365392Y-94554186D01*
X208399500Y-94426892D01*
X208399500Y-94295108D01*
X208365392Y-94167814D01*
X208299500Y-94053686D01*
X208206314Y-93960500D01*
X208142164Y-93923463D01*
X208092187Y-93894608D01*
X208009666Y-93872497D01*
X207964892Y-93860500D01*
X207833108Y-93860500D01*
X207705812Y-93894608D01*
X207591686Y-93960500D01*
X207591683Y-93960502D01*
X207498502Y-94053683D01*
X207498500Y-94053686D01*
X207432608Y-94167812D01*
X207421146Y-94210591D01*
X207398500Y-94295108D01*
X189329961Y-94295108D01*
X189296187Y-94275608D01*
X189222436Y-94255847D01*
X189168892Y-94241500D01*
X189037108Y-94241500D01*
X188977357Y-94257510D01*
X188907507Y-94255847D01*
X188849644Y-94216684D01*
X188822141Y-94152455D01*
X188825488Y-94105648D01*
X188841500Y-94045892D01*
X188841500Y-93914108D01*
X188807392Y-93786814D01*
X188783909Y-93746141D01*
X188767437Y-93678243D01*
X188790289Y-93612216D01*
X188845210Y-93569025D01*
X188872623Y-93562333D01*
X188872555Y-93561989D01*
X188937376Y-93549094D01*
X189012957Y-93534061D01*
X189139585Y-93481610D01*
X189253547Y-93405463D01*
X189350463Y-93308547D01*
X189370134Y-93279108D01*
X190894000Y-93279108D01*
X190894000Y-93410891D01*
X190928108Y-93538187D01*
X190942049Y-93562333D01*
X190994000Y-93652314D01*
X191087186Y-93745500D01*
X191201314Y-93811392D01*
X191328608Y-93845500D01*
X191328610Y-93845500D01*
X191460390Y-93845500D01*
X191460392Y-93845500D01*
X191587686Y-93811392D01*
X191701814Y-93745500D01*
X191795000Y-93652314D01*
X191860892Y-93538186D01*
X191895000Y-93410892D01*
X191895000Y-93279108D01*
X191860892Y-93151814D01*
X191795000Y-93037686D01*
X191701814Y-92944500D01*
X191643247Y-92910686D01*
X191587687Y-92878608D01*
X191524039Y-92861554D01*
X191460392Y-92844500D01*
X191328608Y-92844500D01*
X191207596Y-92876924D01*
X191207593Y-92876925D01*
X191201314Y-92878608D01*
X191172876Y-92895026D01*
X191172839Y-92895046D01*
X191087189Y-92944498D01*
X191087183Y-92944502D01*
X190994002Y-93037683D01*
X190994000Y-93037686D01*
X190928108Y-93151812D01*
X190894000Y-93279108D01*
X189370134Y-93279108D01*
X189426610Y-93194585D01*
X189479061Y-93067957D01*
X189505800Y-92933530D01*
X189505800Y-92796470D01*
X189479061Y-92662043D01*
X189454398Y-92602501D01*
X189426613Y-92535421D01*
X189426606Y-92535408D01*
X189350463Y-92421453D01*
X189350460Y-92421449D01*
X189253550Y-92324539D01*
X189253546Y-92324536D01*
X189139591Y-92248393D01*
X189139578Y-92248386D01*
X189012961Y-92195940D01*
X189012949Y-92195937D01*
X188878534Y-92169200D01*
X188878530Y-92169200D01*
X188741470Y-92169200D01*
X188741465Y-92169200D01*
X188607050Y-92195937D01*
X188607038Y-92195940D01*
X188480421Y-92248386D01*
X188480408Y-92248393D01*
X188366453Y-92324536D01*
X188366449Y-92324539D01*
X188269539Y-92421449D01*
X188269536Y-92421453D01*
X188193393Y-92535408D01*
X188193386Y-92535421D01*
X188140940Y-92662038D01*
X188140937Y-92662050D01*
X188114200Y-92796465D01*
X188114200Y-92933534D01*
X188140937Y-93067949D01*
X188140940Y-93067961D01*
X188193386Y-93194578D01*
X188193393Y-93194591D01*
X188271127Y-93310927D01*
X188292005Y-93377604D01*
X188273521Y-93444985D01*
X188221542Y-93491675D01*
X188200122Y-93499592D01*
X188147814Y-93513608D01*
X188147813Y-93513608D01*
X188147811Y-93513609D01*
X188033686Y-93579500D01*
X188033683Y-93579502D01*
X187940502Y-93672683D01*
X187940500Y-93672686D01*
X187888813Y-93762211D01*
X187874608Y-93786814D01*
X187854864Y-93860500D01*
X187845461Y-93895594D01*
X187809096Y-93955254D01*
X187746249Y-93985783D01*
X187725686Y-93987500D01*
X187640108Y-93987500D01*
X187512812Y-94021608D01*
X187398686Y-94087500D01*
X187398683Y-94087502D01*
X187305502Y-94180683D01*
X187305500Y-94180686D01*
X187239608Y-94294812D01*
X187216649Y-94380500D01*
X187205500Y-94422108D01*
X181632582Y-94422108D01*
X181633547Y-94421463D01*
X181674510Y-94380500D01*
X181728711Y-94326300D01*
X181730460Y-94324550D01*
X181730463Y-94324547D01*
X181806610Y-94210585D01*
X181859061Y-94083957D01*
X181885800Y-93949530D01*
X181885800Y-93812470D01*
X181859061Y-93678043D01*
X181853736Y-93665187D01*
X181806613Y-93551421D01*
X181806606Y-93551408D01*
X181730463Y-93437453D01*
X181730460Y-93437449D01*
X181633550Y-93340539D01*
X181633546Y-93340536D01*
X181519591Y-93264393D01*
X181519578Y-93264386D01*
X181392961Y-93211940D01*
X181392949Y-93211937D01*
X181258534Y-93185200D01*
X181258530Y-93185200D01*
X181121470Y-93185200D01*
X181121465Y-93185200D01*
X180987050Y-93211937D01*
X180987038Y-93211940D01*
X180860421Y-93264386D01*
X180860408Y-93264393D01*
X180746453Y-93340536D01*
X180746449Y-93340539D01*
X180649539Y-93437449D01*
X180649536Y-93437453D01*
X180573393Y-93551408D01*
X180573386Y-93551421D01*
X180520940Y-93678038D01*
X180520937Y-93678050D01*
X180494200Y-93812465D01*
X178680704Y-93812465D01*
X178686721Y-93782216D01*
X178686726Y-93782188D01*
X178690699Y-93762213D01*
X178690700Y-93762209D01*
X178690700Y-93597787D01*
X178690700Y-93597784D01*
X178690699Y-93597782D01*
X178658625Y-93436532D01*
X178658622Y-93436523D01*
X178648005Y-93410892D01*
X178634217Y-93377604D01*
X178595705Y-93284625D01*
X178595698Y-93284612D01*
X178504354Y-93147908D01*
X178504351Y-93147904D01*
X178388093Y-93031646D01*
X178388089Y-93031643D01*
X178251385Y-92940299D01*
X178251372Y-92940292D01*
X178099474Y-92877375D01*
X178099465Y-92877372D01*
X177938214Y-92845298D01*
X177938211Y-92845298D01*
X176783189Y-92845298D01*
X176783186Y-92845298D01*
X176621934Y-92877372D01*
X176621925Y-92877375D01*
X176470027Y-92940292D01*
X176470014Y-92940299D01*
X176333310Y-93031643D01*
X176333306Y-93031646D01*
X176217048Y-93147904D01*
X176217045Y-93147908D01*
X176125701Y-93284612D01*
X176125694Y-93284625D01*
X176062777Y-93436523D01*
X176062774Y-93436532D01*
X176030700Y-93597782D01*
X173584699Y-93597782D01*
X173552625Y-93436532D01*
X173552622Y-93436523D01*
X173542005Y-93410892D01*
X173528217Y-93377604D01*
X173489705Y-93284625D01*
X173489698Y-93284612D01*
X173398354Y-93147908D01*
X173398351Y-93147904D01*
X173282093Y-93031646D01*
X173282089Y-93031643D01*
X173145385Y-92940299D01*
X173145372Y-92940292D01*
X172993474Y-92877375D01*
X172993465Y-92877372D01*
X172832214Y-92845298D01*
X172832211Y-92845298D01*
X171169189Y-92845298D01*
X171169186Y-92845298D01*
X171007934Y-92877372D01*
X171007925Y-92877375D01*
X170856027Y-92940292D01*
X170856014Y-92940299D01*
X170719310Y-93031643D01*
X170719306Y-93031646D01*
X170712181Y-93038772D01*
X170650858Y-93072257D01*
X170581166Y-93067273D01*
X170525233Y-93025401D01*
X170500816Y-92959937D01*
X170500500Y-92951091D01*
X170500500Y-91780465D01*
X180494200Y-91780465D01*
X180494200Y-91917534D01*
X180520937Y-92051949D01*
X180520940Y-92051961D01*
X180573386Y-92178578D01*
X180573393Y-92178591D01*
X180649536Y-92292546D01*
X180649539Y-92292550D01*
X180746449Y-92389460D01*
X180746453Y-92389463D01*
X180860408Y-92465606D01*
X180860421Y-92465613D01*
X180987038Y-92518059D01*
X180987043Y-92518061D01*
X181121465Y-92544799D01*
X181121469Y-92544800D01*
X181121470Y-92544800D01*
X181258531Y-92544800D01*
X181258532Y-92544799D01*
X181392957Y-92518061D01*
X181519585Y-92465610D01*
X181633547Y-92389463D01*
X181730463Y-92292547D01*
X181806610Y-92178585D01*
X181859061Y-92051957D01*
X181885800Y-91917530D01*
X181885800Y-91780470D01*
X181867108Y-91686499D01*
X181859783Y-91649672D01*
X181859783Y-91649671D01*
X181859782Y-91649668D01*
X181859062Y-91646050D01*
X181859061Y-91646043D01*
X181853910Y-91633608D01*
X189751000Y-91633608D01*
X189751000Y-91765391D01*
X189785108Y-91892687D01*
X189799452Y-91917531D01*
X189851000Y-92006814D01*
X189944186Y-92100000D01*
X190058314Y-92165892D01*
X190185608Y-92200000D01*
X190185610Y-92200000D01*
X190267160Y-92200000D01*
X190334199Y-92219685D01*
X190379954Y-92272489D01*
X190386935Y-92291907D01*
X190414608Y-92395187D01*
X190414609Y-92395188D01*
X190480500Y-92509314D01*
X190573686Y-92602500D01*
X190687814Y-92668392D01*
X190815108Y-92702500D01*
X190815110Y-92702500D01*
X190946889Y-92702500D01*
X190946892Y-92702500D01*
X191074186Y-92668392D01*
X191188314Y-92602500D01*
X191281500Y-92509314D01*
X191314530Y-92452105D01*
X197614000Y-92452105D01*
X197614000Y-92583889D01*
X197645781Y-92702500D01*
X197648109Y-92711185D01*
X197648109Y-92711186D01*
X197702849Y-92805998D01*
X197719322Y-92873898D01*
X197702849Y-92929998D01*
X197648109Y-93024810D01*
X197648109Y-93024811D01*
X197648108Y-93024813D01*
X197648108Y-93024814D01*
X197614000Y-93152108D01*
X197614000Y-93283892D01*
X197629178Y-93340536D01*
X197648108Y-93411187D01*
X197663271Y-93437449D01*
X197714000Y-93525314D01*
X197807186Y-93618500D01*
X197921314Y-93684392D01*
X198048608Y-93718500D01*
X198048610Y-93718500D01*
X198180390Y-93718500D01*
X198180392Y-93718500D01*
X198307686Y-93684392D01*
X198421814Y-93618500D01*
X198515000Y-93525314D01*
X198580892Y-93411186D01*
X198582253Y-93406108D01*
X214002500Y-93406108D01*
X214002500Y-93537892D01*
X214006125Y-93551421D01*
X214036608Y-93665187D01*
X214067388Y-93718499D01*
X214102500Y-93779314D01*
X214195686Y-93872500D01*
X214309814Y-93938392D01*
X214437108Y-93972500D01*
X214437110Y-93972500D01*
X214568890Y-93972500D01*
X214568892Y-93972500D01*
X214696186Y-93938392D01*
X214810314Y-93872500D01*
X214903500Y-93779314D01*
X214969392Y-93665186D01*
X215003500Y-93537892D01*
X215003500Y-93406108D01*
X214969392Y-93278814D01*
X214903500Y-93164686D01*
X214810314Y-93071500D01*
X214741280Y-93031643D01*
X214696187Y-93005608D01*
X214632539Y-92988554D01*
X214568892Y-92971500D01*
X214437108Y-92971500D01*
X214309812Y-93005608D01*
X214195686Y-93071500D01*
X214195683Y-93071502D01*
X214102502Y-93164683D01*
X214102500Y-93164686D01*
X214036608Y-93278812D01*
X214002674Y-93405460D01*
X214002500Y-93406108D01*
X198582253Y-93406108D01*
X198615000Y-93283892D01*
X198615000Y-93152108D01*
X198580892Y-93024814D01*
X198569803Y-93005608D01*
X198526150Y-92929998D01*
X198509677Y-92862098D01*
X198526150Y-92805998D01*
X198580892Y-92711183D01*
X198615000Y-92583889D01*
X198615000Y-92452105D01*
X198580892Y-92324811D01*
X198515000Y-92210683D01*
X198421814Y-92117497D01*
X198335217Y-92067500D01*
X198307687Y-92051605D01*
X198244039Y-92034551D01*
X198180392Y-92017497D01*
X198048608Y-92017497D01*
X197921312Y-92051605D01*
X197807186Y-92117497D01*
X197807183Y-92117499D01*
X197714002Y-92210680D01*
X197714000Y-92210683D01*
X197648108Y-92324809D01*
X197622214Y-92421449D01*
X197614000Y-92452105D01*
X191314530Y-92452105D01*
X191347392Y-92395186D01*
X191381500Y-92267892D01*
X191381500Y-92136108D01*
X191347392Y-92008814D01*
X191346238Y-92006816D01*
X191323539Y-91967500D01*
X191281500Y-91894686D01*
X191188314Y-91801500D01*
X191151955Y-91780508D01*
X199702300Y-91780508D01*
X199702300Y-91912291D01*
X199736408Y-92039587D01*
X199752524Y-92067500D01*
X199802300Y-92153714D01*
X199895486Y-92246900D01*
X200009614Y-92312792D01*
X200136908Y-92346900D01*
X200136910Y-92346900D01*
X200268690Y-92346900D01*
X200268692Y-92346900D01*
X200395986Y-92312792D01*
X200510114Y-92246900D01*
X200603300Y-92153714D01*
X200669192Y-92039586D01*
X200703300Y-91912292D01*
X200703300Y-91780508D01*
X200669192Y-91653214D01*
X200668717Y-91652392D01*
X200654697Y-91628108D01*
X207271500Y-91628108D01*
X207271500Y-91759892D01*
X207277013Y-91780466D01*
X207305608Y-91887187D01*
X207323129Y-91917534D01*
X207371500Y-92001314D01*
X207464686Y-92094500D01*
X207578814Y-92160392D01*
X207706108Y-92194500D01*
X207706110Y-92194500D01*
X207837890Y-92194500D01*
X207837892Y-92194500D01*
X207965186Y-92160392D01*
X208079314Y-92094500D01*
X208172500Y-92001314D01*
X208238392Y-91887186D01*
X208272500Y-91759892D01*
X208272500Y-91628108D01*
X208238471Y-91501108D01*
X213875500Y-91501108D01*
X213875500Y-91632892D01*
X213879024Y-91646043D01*
X213909608Y-91760187D01*
X213921318Y-91780469D01*
X213975500Y-91874314D01*
X214068686Y-91967500D01*
X214182814Y-92033392D01*
X214310108Y-92067500D01*
X214310110Y-92067500D01*
X214441890Y-92067500D01*
X214441892Y-92067500D01*
X214569186Y-92033392D01*
X214683314Y-91967500D01*
X214776500Y-91874314D01*
X214842392Y-91760186D01*
X214876500Y-91632892D01*
X214876500Y-91501108D01*
X214842392Y-91373814D01*
X214776500Y-91259686D01*
X214683314Y-91166500D01*
X214626250Y-91133554D01*
X214569187Y-91100608D01*
X214505539Y-91083554D01*
X214441892Y-91066500D01*
X214310108Y-91066500D01*
X214182812Y-91100608D01*
X214068686Y-91166500D01*
X214068683Y-91166502D01*
X213975502Y-91259683D01*
X213975500Y-91259686D01*
X213909608Y-91373812D01*
X213901130Y-91405453D01*
X213875500Y-91501108D01*
X208238471Y-91501108D01*
X208238392Y-91500814D01*
X208172500Y-91386686D01*
X208079314Y-91293500D01*
X208007247Y-91251892D01*
X207965187Y-91227608D01*
X207858418Y-91199000D01*
X207837892Y-91193500D01*
X207706108Y-91193500D01*
X207578812Y-91227608D01*
X207464686Y-91293500D01*
X207464683Y-91293502D01*
X207371502Y-91386683D01*
X207371500Y-91386686D01*
X207305608Y-91500812D01*
X207282649Y-91586499D01*
X207271500Y-91628108D01*
X200654697Y-91628108D01*
X200644007Y-91609593D01*
X200603300Y-91539086D01*
X200510114Y-91445900D01*
X200407553Y-91386686D01*
X200395987Y-91380008D01*
X200332339Y-91362954D01*
X200268692Y-91345900D01*
X200136908Y-91345900D01*
X200009612Y-91380008D01*
X199895486Y-91445900D01*
X199895483Y-91445902D01*
X199802302Y-91539083D01*
X199802300Y-91539086D01*
X199736408Y-91653212D01*
X199702300Y-91780508D01*
X191151955Y-91780508D01*
X191116247Y-91759892D01*
X191074187Y-91735608D01*
X191009998Y-91718409D01*
X190946892Y-91701500D01*
X190865340Y-91701500D01*
X190798301Y-91681815D01*
X190752546Y-91629011D01*
X190745565Y-91609593D01*
X190717892Y-91506314D01*
X190714887Y-91501110D01*
X190683013Y-91445902D01*
X190652000Y-91392186D01*
X190558814Y-91299000D01*
X190501750Y-91266054D01*
X190444687Y-91233108D01*
X190381039Y-91216054D01*
X190317392Y-91199000D01*
X190185608Y-91199000D01*
X190058312Y-91233108D01*
X189944186Y-91299000D01*
X189944183Y-91299002D01*
X189851002Y-91392183D01*
X189851000Y-91392186D01*
X189785108Y-91506312D01*
X189751000Y-91633608D01*
X181853910Y-91633608D01*
X181843963Y-91609593D01*
X181806613Y-91519421D01*
X181806606Y-91519408D01*
X181730463Y-91405453D01*
X181730460Y-91405449D01*
X181633550Y-91308539D01*
X181633546Y-91308536D01*
X181519591Y-91232393D01*
X181519578Y-91232386D01*
X181392961Y-91179940D01*
X181392949Y-91179937D01*
X181258534Y-91153200D01*
X181258530Y-91153200D01*
X181121470Y-91153200D01*
X181121465Y-91153200D01*
X180987050Y-91179937D01*
X180987038Y-91179940D01*
X180860421Y-91232386D01*
X180860408Y-91232393D01*
X180746453Y-91308536D01*
X180746449Y-91308539D01*
X180649539Y-91405449D01*
X180649536Y-91405453D01*
X180573393Y-91519408D01*
X180573386Y-91519421D01*
X180520940Y-91646038D01*
X180520937Y-91646050D01*
X180494200Y-91780465D01*
X170500500Y-91780465D01*
X170500500Y-90624500D01*
X170520185Y-90557461D01*
X170572989Y-90511706D01*
X170624500Y-90500500D01*
X194160545Y-90500500D01*
X194227584Y-90520185D01*
G37*
%TD.AperFunction*%
%TD*%
M02*
