%TF.GenerationSoftware,KiCad,Pcbnew,8.0.6-8.0.6-0~ubuntu24.04.1*%
%TF.CreationDate,2024-11-24T16:58:16-06:00*%
%TF.ProjectId,can_distance_sensor,63616e5f-6469-4737-9461-6e63655f7365,rev?*%
%TF.SameCoordinates,Original*%
%TF.FileFunction,Profile,NP*%
%FSLAX46Y46*%
G04 Gerber Fmt 4.6, Leading zero omitted, Abs format (unit mm)*
G04 Created by KiCad (PCBNEW 8.0.6-8.0.6-0~ubuntu24.04.1) date 2024-11-24 16:58:16*
%MOMM*%
%LPD*%
G01*
G04 APERTURE LIST*
%TA.AperFunction,Profile*%
%ADD10C,0.050000*%
%TD*%
%ADD11C,0.150000*%
G04 APERTURE END LIST*
D10*
X177165000Y-87757000D02*
X216535000Y-87757000D01*
X216535000Y-135382000D01*
X177165000Y-135382000D01*
X177165000Y-87757000D01*
D11*
X173167820Y-116807595D02*
X173167820Y-117379023D01*
X173167820Y-117093309D02*
X172167820Y-117093309D01*
X172167820Y-117093309D02*
X172310677Y-117188547D01*
X172310677Y-117188547D02*
X172405915Y-117283785D01*
X172405915Y-117283785D02*
X172453534Y-117379023D01*
X172596391Y-116236166D02*
X172548772Y-116331404D01*
X172548772Y-116331404D02*
X172501153Y-116379023D01*
X172501153Y-116379023D02*
X172405915Y-116426642D01*
X172405915Y-116426642D02*
X172358296Y-116426642D01*
X172358296Y-116426642D02*
X172263058Y-116379023D01*
X172263058Y-116379023D02*
X172215439Y-116331404D01*
X172215439Y-116331404D02*
X172167820Y-116236166D01*
X172167820Y-116236166D02*
X172167820Y-116045690D01*
X172167820Y-116045690D02*
X172215439Y-115950452D01*
X172215439Y-115950452D02*
X172263058Y-115902833D01*
X172263058Y-115902833D02*
X172358296Y-115855214D01*
X172358296Y-115855214D02*
X172405915Y-115855214D01*
X172405915Y-115855214D02*
X172501153Y-115902833D01*
X172501153Y-115902833D02*
X172548772Y-115950452D01*
X172548772Y-115950452D02*
X172596391Y-116045690D01*
X172596391Y-116045690D02*
X172596391Y-116236166D01*
X172596391Y-116236166D02*
X172644010Y-116331404D01*
X172644010Y-116331404D02*
X172691629Y-116379023D01*
X172691629Y-116379023D02*
X172786867Y-116426642D01*
X172786867Y-116426642D02*
X172977343Y-116426642D01*
X172977343Y-116426642D02*
X173072581Y-116379023D01*
X173072581Y-116379023D02*
X173120201Y-116331404D01*
X173120201Y-116331404D02*
X173167820Y-116236166D01*
X173167820Y-116236166D02*
X173167820Y-116045690D01*
X173167820Y-116045690D02*
X173120201Y-115950452D01*
X173120201Y-115950452D02*
X173072581Y-115902833D01*
X173072581Y-115902833D02*
X172977343Y-115855214D01*
X172977343Y-115855214D02*
X172786867Y-115855214D01*
X172786867Y-115855214D02*
X172691629Y-115902833D01*
X172691629Y-115902833D02*
X172644010Y-115950452D01*
X172644010Y-115950452D02*
X172596391Y-116045690D01*
X172167820Y-115521880D02*
X172167820Y-114855214D01*
X172167820Y-114855214D02*
X173167820Y-115283785D01*
X172167820Y-113998071D02*
X172167820Y-114474261D01*
X172167820Y-114474261D02*
X172644010Y-114521880D01*
X172644010Y-114521880D02*
X172596391Y-114474261D01*
X172596391Y-114474261D02*
X172548772Y-114379023D01*
X172548772Y-114379023D02*
X172548772Y-114140928D01*
X172548772Y-114140928D02*
X172596391Y-114045690D01*
X172596391Y-114045690D02*
X172644010Y-113998071D01*
X172644010Y-113998071D02*
X172739248Y-113950452D01*
X172739248Y-113950452D02*
X172977343Y-113950452D01*
X172977343Y-113950452D02*
X173072581Y-113998071D01*
X173072581Y-113998071D02*
X173120201Y-114045690D01*
X173120201Y-114045690D02*
X173167820Y-114140928D01*
X173167820Y-114140928D02*
X173167820Y-114379023D01*
X173167820Y-114379023D02*
X173120201Y-114474261D01*
X173120201Y-114474261D02*
X173072581Y-114521880D01*
X173072581Y-113521880D02*
X173120201Y-113474261D01*
X173120201Y-113474261D02*
X173167820Y-113521880D01*
X173167820Y-113521880D02*
X173120201Y-113569499D01*
X173120201Y-113569499D02*
X173072581Y-113521880D01*
X173072581Y-113521880D02*
X173167820Y-113521880D01*
X172167820Y-112855214D02*
X172167820Y-112759976D01*
X172167820Y-112759976D02*
X172215439Y-112664738D01*
X172215439Y-112664738D02*
X172263058Y-112617119D01*
X172263058Y-112617119D02*
X172358296Y-112569500D01*
X172358296Y-112569500D02*
X172548772Y-112521881D01*
X172548772Y-112521881D02*
X172786867Y-112521881D01*
X172786867Y-112521881D02*
X172977343Y-112569500D01*
X172977343Y-112569500D02*
X173072581Y-112617119D01*
X173072581Y-112617119D02*
X173120201Y-112664738D01*
X173120201Y-112664738D02*
X173167820Y-112759976D01*
X173167820Y-112759976D02*
X173167820Y-112855214D01*
X173167820Y-112855214D02*
X173120201Y-112950452D01*
X173120201Y-112950452D02*
X173072581Y-112998071D01*
X173072581Y-112998071D02*
X172977343Y-113045690D01*
X172977343Y-113045690D02*
X172786867Y-113093309D01*
X172786867Y-113093309D02*
X172548772Y-113093309D01*
X172548772Y-113093309D02*
X172358296Y-113045690D01*
X172358296Y-113045690D02*
X172263058Y-112998071D01*
X172263058Y-112998071D02*
X172215439Y-112950452D01*
X172215439Y-112950452D02*
X172167820Y-112855214D01*
X172167820Y-111902833D02*
X172167820Y-111807595D01*
X172167820Y-111807595D02*
X172215439Y-111712357D01*
X172215439Y-111712357D02*
X172263058Y-111664738D01*
X172263058Y-111664738D02*
X172358296Y-111617119D01*
X172358296Y-111617119D02*
X172548772Y-111569500D01*
X172548772Y-111569500D02*
X172786867Y-111569500D01*
X172786867Y-111569500D02*
X172977343Y-111617119D01*
X172977343Y-111617119D02*
X173072581Y-111664738D01*
X173072581Y-111664738D02*
X173120201Y-111712357D01*
X173120201Y-111712357D02*
X173167820Y-111807595D01*
X173167820Y-111807595D02*
X173167820Y-111902833D01*
X173167820Y-111902833D02*
X173120201Y-111998071D01*
X173120201Y-111998071D02*
X173072581Y-112045690D01*
X173072581Y-112045690D02*
X172977343Y-112093309D01*
X172977343Y-112093309D02*
X172786867Y-112140928D01*
X172786867Y-112140928D02*
X172548772Y-112140928D01*
X172548772Y-112140928D02*
X172358296Y-112093309D01*
X172358296Y-112093309D02*
X172263058Y-112045690D01*
X172263058Y-112045690D02*
X172215439Y-111998071D01*
X172215439Y-111998071D02*
X172167820Y-111902833D01*
X172167820Y-110950452D02*
X172167820Y-110855214D01*
X172167820Y-110855214D02*
X172215439Y-110759976D01*
X172215439Y-110759976D02*
X172263058Y-110712357D01*
X172263058Y-110712357D02*
X172358296Y-110664738D01*
X172358296Y-110664738D02*
X172548772Y-110617119D01*
X172548772Y-110617119D02*
X172786867Y-110617119D01*
X172786867Y-110617119D02*
X172977343Y-110664738D01*
X172977343Y-110664738D02*
X173072581Y-110712357D01*
X173072581Y-110712357D02*
X173120201Y-110759976D01*
X173120201Y-110759976D02*
X173167820Y-110855214D01*
X173167820Y-110855214D02*
X173167820Y-110950452D01*
X173167820Y-110950452D02*
X173120201Y-111045690D01*
X173120201Y-111045690D02*
X173072581Y-111093309D01*
X173072581Y-111093309D02*
X172977343Y-111140928D01*
X172977343Y-111140928D02*
X172786867Y-111188547D01*
X172786867Y-111188547D02*
X172548772Y-111188547D01*
X172548772Y-111188547D02*
X172358296Y-111140928D01*
X172358296Y-111140928D02*
X172263058Y-111093309D01*
X172263058Y-111093309D02*
X172215439Y-111045690D01*
X172215439Y-111045690D02*
X172167820Y-110950452D01*
X172167820Y-109998071D02*
X172167820Y-109902833D01*
X172167820Y-109902833D02*
X172215439Y-109807595D01*
X172215439Y-109807595D02*
X172263058Y-109759976D01*
X172263058Y-109759976D02*
X172358296Y-109712357D01*
X172358296Y-109712357D02*
X172548772Y-109664738D01*
X172548772Y-109664738D02*
X172786867Y-109664738D01*
X172786867Y-109664738D02*
X172977343Y-109712357D01*
X172977343Y-109712357D02*
X173072581Y-109759976D01*
X173072581Y-109759976D02*
X173120201Y-109807595D01*
X173120201Y-109807595D02*
X173167820Y-109902833D01*
X173167820Y-109902833D02*
X173167820Y-109998071D01*
X173167820Y-109998071D02*
X173120201Y-110093309D01*
X173120201Y-110093309D02*
X173072581Y-110140928D01*
X173072581Y-110140928D02*
X172977343Y-110188547D01*
X172977343Y-110188547D02*
X172786867Y-110236166D01*
X172786867Y-110236166D02*
X172548772Y-110236166D01*
X172548772Y-110236166D02*
X172358296Y-110188547D01*
X172358296Y-110188547D02*
X172263058Y-110140928D01*
X172263058Y-110140928D02*
X172215439Y-110093309D01*
X172215439Y-110093309D02*
X172167820Y-109998071D01*
X173167820Y-108474261D02*
X172501153Y-108474261D01*
X172596391Y-108474261D02*
X172548772Y-108426642D01*
X172548772Y-108426642D02*
X172501153Y-108331404D01*
X172501153Y-108331404D02*
X172501153Y-108188547D01*
X172501153Y-108188547D02*
X172548772Y-108093309D01*
X172548772Y-108093309D02*
X172644010Y-108045690D01*
X172644010Y-108045690D02*
X173167820Y-108045690D01*
X172644010Y-108045690D02*
X172548772Y-107998071D01*
X172548772Y-107998071D02*
X172501153Y-107902833D01*
X172501153Y-107902833D02*
X172501153Y-107759976D01*
X172501153Y-107759976D02*
X172548772Y-107664737D01*
X172548772Y-107664737D02*
X172644010Y-107617118D01*
X172644010Y-107617118D02*
X173167820Y-107617118D01*
X173167820Y-107140928D02*
X172501153Y-107140928D01*
X172167820Y-107140928D02*
X172215439Y-107188547D01*
X172215439Y-107188547D02*
X172263058Y-107140928D01*
X172263058Y-107140928D02*
X172215439Y-107093309D01*
X172215439Y-107093309D02*
X172167820Y-107140928D01*
X172167820Y-107140928D02*
X172263058Y-107140928D01*
X173167820Y-106521881D02*
X173120201Y-106617119D01*
X173120201Y-106617119D02*
X173024962Y-106664738D01*
X173024962Y-106664738D02*
X172167820Y-106664738D01*
X173120201Y-106188547D02*
X173167820Y-106093309D01*
X173167820Y-106093309D02*
X173167820Y-105902833D01*
X173167820Y-105902833D02*
X173120201Y-105807595D01*
X173120201Y-105807595D02*
X173024962Y-105759976D01*
X173024962Y-105759976D02*
X172977343Y-105759976D01*
X172977343Y-105759976D02*
X172882105Y-105807595D01*
X172882105Y-105807595D02*
X172834486Y-105902833D01*
X172834486Y-105902833D02*
X172834486Y-106045690D01*
X172834486Y-106045690D02*
X172786867Y-106140928D01*
X172786867Y-106140928D02*
X172691629Y-106188547D01*
X172691629Y-106188547D02*
X172644010Y-106188547D01*
X172644010Y-106188547D02*
X172548772Y-106140928D01*
X172548772Y-106140928D02*
X172501153Y-106045690D01*
X172501153Y-106045690D02*
X172501153Y-105902833D01*
X172501153Y-105902833D02*
X172548772Y-105807595D01*
D10*
X176665000Y-87757000D02*
X173276581Y-87757000D01*
X176665000Y-135382000D02*
X173276581Y-135382000D01*
X173863001Y-87757000D02*
X173863001Y-135382000D01*
X173863001Y-87757000D02*
X173863001Y-135382000D01*
X173863001Y-87757000D02*
X174449422Y-88883504D01*
X173863001Y-87757000D02*
X173276580Y-88883504D01*
X173863001Y-135382000D02*
X173276580Y-134255496D01*
X173863001Y-135382000D02*
X174449422Y-134255496D01*
D11*
X191611904Y-85156819D02*
X191040476Y-85156819D01*
X191326190Y-85156819D02*
X191326190Y-84156819D01*
X191326190Y-84156819D02*
X191230952Y-84299676D01*
X191230952Y-84299676D02*
X191135714Y-84394914D01*
X191135714Y-84394914D02*
X191040476Y-84442533D01*
X192516666Y-84156819D02*
X192040476Y-84156819D01*
X192040476Y-84156819D02*
X191992857Y-84633009D01*
X191992857Y-84633009D02*
X192040476Y-84585390D01*
X192040476Y-84585390D02*
X192135714Y-84537771D01*
X192135714Y-84537771D02*
X192373809Y-84537771D01*
X192373809Y-84537771D02*
X192469047Y-84585390D01*
X192469047Y-84585390D02*
X192516666Y-84633009D01*
X192516666Y-84633009D02*
X192564285Y-84728247D01*
X192564285Y-84728247D02*
X192564285Y-84966342D01*
X192564285Y-84966342D02*
X192516666Y-85061580D01*
X192516666Y-85061580D02*
X192469047Y-85109200D01*
X192469047Y-85109200D02*
X192373809Y-85156819D01*
X192373809Y-85156819D02*
X192135714Y-85156819D01*
X192135714Y-85156819D02*
X192040476Y-85109200D01*
X192040476Y-85109200D02*
X191992857Y-85061580D01*
X193469047Y-84156819D02*
X192992857Y-84156819D01*
X192992857Y-84156819D02*
X192945238Y-84633009D01*
X192945238Y-84633009D02*
X192992857Y-84585390D01*
X192992857Y-84585390D02*
X193088095Y-84537771D01*
X193088095Y-84537771D02*
X193326190Y-84537771D01*
X193326190Y-84537771D02*
X193421428Y-84585390D01*
X193421428Y-84585390D02*
X193469047Y-84633009D01*
X193469047Y-84633009D02*
X193516666Y-84728247D01*
X193516666Y-84728247D02*
X193516666Y-84966342D01*
X193516666Y-84966342D02*
X193469047Y-85061580D01*
X193469047Y-85061580D02*
X193421428Y-85109200D01*
X193421428Y-85109200D02*
X193326190Y-85156819D01*
X193326190Y-85156819D02*
X193088095Y-85156819D01*
X193088095Y-85156819D02*
X192992857Y-85109200D01*
X192992857Y-85109200D02*
X192945238Y-85061580D01*
X194135714Y-84156819D02*
X194230952Y-84156819D01*
X194230952Y-84156819D02*
X194326190Y-84204438D01*
X194326190Y-84204438D02*
X194373809Y-84252057D01*
X194373809Y-84252057D02*
X194421428Y-84347295D01*
X194421428Y-84347295D02*
X194469047Y-84537771D01*
X194469047Y-84537771D02*
X194469047Y-84775866D01*
X194469047Y-84775866D02*
X194421428Y-84966342D01*
X194421428Y-84966342D02*
X194373809Y-85061580D01*
X194373809Y-85061580D02*
X194326190Y-85109200D01*
X194326190Y-85109200D02*
X194230952Y-85156819D01*
X194230952Y-85156819D02*
X194135714Y-85156819D01*
X194135714Y-85156819D02*
X194040476Y-85109200D01*
X194040476Y-85109200D02*
X193992857Y-85061580D01*
X193992857Y-85061580D02*
X193945238Y-84966342D01*
X193945238Y-84966342D02*
X193897619Y-84775866D01*
X193897619Y-84775866D02*
X193897619Y-84537771D01*
X193897619Y-84537771D02*
X193945238Y-84347295D01*
X193945238Y-84347295D02*
X193992857Y-84252057D01*
X193992857Y-84252057D02*
X194040476Y-84204438D01*
X194040476Y-84204438D02*
X194135714Y-84156819D01*
X194897619Y-85061580D02*
X194945238Y-85109200D01*
X194945238Y-85109200D02*
X194897619Y-85156819D01*
X194897619Y-85156819D02*
X194850000Y-85109200D01*
X194850000Y-85109200D02*
X194897619Y-85061580D01*
X194897619Y-85061580D02*
X194897619Y-85156819D01*
X195564285Y-84156819D02*
X195659523Y-84156819D01*
X195659523Y-84156819D02*
X195754761Y-84204438D01*
X195754761Y-84204438D02*
X195802380Y-84252057D01*
X195802380Y-84252057D02*
X195849999Y-84347295D01*
X195849999Y-84347295D02*
X195897618Y-84537771D01*
X195897618Y-84537771D02*
X195897618Y-84775866D01*
X195897618Y-84775866D02*
X195849999Y-84966342D01*
X195849999Y-84966342D02*
X195802380Y-85061580D01*
X195802380Y-85061580D02*
X195754761Y-85109200D01*
X195754761Y-85109200D02*
X195659523Y-85156819D01*
X195659523Y-85156819D02*
X195564285Y-85156819D01*
X195564285Y-85156819D02*
X195469047Y-85109200D01*
X195469047Y-85109200D02*
X195421428Y-85061580D01*
X195421428Y-85061580D02*
X195373809Y-84966342D01*
X195373809Y-84966342D02*
X195326190Y-84775866D01*
X195326190Y-84775866D02*
X195326190Y-84537771D01*
X195326190Y-84537771D02*
X195373809Y-84347295D01*
X195373809Y-84347295D02*
X195421428Y-84252057D01*
X195421428Y-84252057D02*
X195469047Y-84204438D01*
X195469047Y-84204438D02*
X195564285Y-84156819D01*
X196516666Y-84156819D02*
X196611904Y-84156819D01*
X196611904Y-84156819D02*
X196707142Y-84204438D01*
X196707142Y-84204438D02*
X196754761Y-84252057D01*
X196754761Y-84252057D02*
X196802380Y-84347295D01*
X196802380Y-84347295D02*
X196849999Y-84537771D01*
X196849999Y-84537771D02*
X196849999Y-84775866D01*
X196849999Y-84775866D02*
X196802380Y-84966342D01*
X196802380Y-84966342D02*
X196754761Y-85061580D01*
X196754761Y-85061580D02*
X196707142Y-85109200D01*
X196707142Y-85109200D02*
X196611904Y-85156819D01*
X196611904Y-85156819D02*
X196516666Y-85156819D01*
X196516666Y-85156819D02*
X196421428Y-85109200D01*
X196421428Y-85109200D02*
X196373809Y-85061580D01*
X196373809Y-85061580D02*
X196326190Y-84966342D01*
X196326190Y-84966342D02*
X196278571Y-84775866D01*
X196278571Y-84775866D02*
X196278571Y-84537771D01*
X196278571Y-84537771D02*
X196326190Y-84347295D01*
X196326190Y-84347295D02*
X196373809Y-84252057D01*
X196373809Y-84252057D02*
X196421428Y-84204438D01*
X196421428Y-84204438D02*
X196516666Y-84156819D01*
X197469047Y-84156819D02*
X197564285Y-84156819D01*
X197564285Y-84156819D02*
X197659523Y-84204438D01*
X197659523Y-84204438D02*
X197707142Y-84252057D01*
X197707142Y-84252057D02*
X197754761Y-84347295D01*
X197754761Y-84347295D02*
X197802380Y-84537771D01*
X197802380Y-84537771D02*
X197802380Y-84775866D01*
X197802380Y-84775866D02*
X197754761Y-84966342D01*
X197754761Y-84966342D02*
X197707142Y-85061580D01*
X197707142Y-85061580D02*
X197659523Y-85109200D01*
X197659523Y-85109200D02*
X197564285Y-85156819D01*
X197564285Y-85156819D02*
X197469047Y-85156819D01*
X197469047Y-85156819D02*
X197373809Y-85109200D01*
X197373809Y-85109200D02*
X197326190Y-85061580D01*
X197326190Y-85061580D02*
X197278571Y-84966342D01*
X197278571Y-84966342D02*
X197230952Y-84775866D01*
X197230952Y-84775866D02*
X197230952Y-84537771D01*
X197230952Y-84537771D02*
X197278571Y-84347295D01*
X197278571Y-84347295D02*
X197326190Y-84252057D01*
X197326190Y-84252057D02*
X197373809Y-84204438D01*
X197373809Y-84204438D02*
X197469047Y-84156819D01*
X198421428Y-84156819D02*
X198516666Y-84156819D01*
X198516666Y-84156819D02*
X198611904Y-84204438D01*
X198611904Y-84204438D02*
X198659523Y-84252057D01*
X198659523Y-84252057D02*
X198707142Y-84347295D01*
X198707142Y-84347295D02*
X198754761Y-84537771D01*
X198754761Y-84537771D02*
X198754761Y-84775866D01*
X198754761Y-84775866D02*
X198707142Y-84966342D01*
X198707142Y-84966342D02*
X198659523Y-85061580D01*
X198659523Y-85061580D02*
X198611904Y-85109200D01*
X198611904Y-85109200D02*
X198516666Y-85156819D01*
X198516666Y-85156819D02*
X198421428Y-85156819D01*
X198421428Y-85156819D02*
X198326190Y-85109200D01*
X198326190Y-85109200D02*
X198278571Y-85061580D01*
X198278571Y-85061580D02*
X198230952Y-84966342D01*
X198230952Y-84966342D02*
X198183333Y-84775866D01*
X198183333Y-84775866D02*
X198183333Y-84537771D01*
X198183333Y-84537771D02*
X198230952Y-84347295D01*
X198230952Y-84347295D02*
X198278571Y-84252057D01*
X198278571Y-84252057D02*
X198326190Y-84204438D01*
X198326190Y-84204438D02*
X198421428Y-84156819D01*
X199945238Y-85156819D02*
X199945238Y-84490152D01*
X199945238Y-84585390D02*
X199992857Y-84537771D01*
X199992857Y-84537771D02*
X200088095Y-84490152D01*
X200088095Y-84490152D02*
X200230952Y-84490152D01*
X200230952Y-84490152D02*
X200326190Y-84537771D01*
X200326190Y-84537771D02*
X200373809Y-84633009D01*
X200373809Y-84633009D02*
X200373809Y-85156819D01*
X200373809Y-84633009D02*
X200421428Y-84537771D01*
X200421428Y-84537771D02*
X200516666Y-84490152D01*
X200516666Y-84490152D02*
X200659523Y-84490152D01*
X200659523Y-84490152D02*
X200754762Y-84537771D01*
X200754762Y-84537771D02*
X200802381Y-84633009D01*
X200802381Y-84633009D02*
X200802381Y-85156819D01*
X201278571Y-85156819D02*
X201278571Y-84490152D01*
X201278571Y-84156819D02*
X201230952Y-84204438D01*
X201230952Y-84204438D02*
X201278571Y-84252057D01*
X201278571Y-84252057D02*
X201326190Y-84204438D01*
X201326190Y-84204438D02*
X201278571Y-84156819D01*
X201278571Y-84156819D02*
X201278571Y-84252057D01*
X201897618Y-85156819D02*
X201802380Y-85109200D01*
X201802380Y-85109200D02*
X201754761Y-85013961D01*
X201754761Y-85013961D02*
X201754761Y-84156819D01*
X202230952Y-85109200D02*
X202326190Y-85156819D01*
X202326190Y-85156819D02*
X202516666Y-85156819D01*
X202516666Y-85156819D02*
X202611904Y-85109200D01*
X202611904Y-85109200D02*
X202659523Y-85013961D01*
X202659523Y-85013961D02*
X202659523Y-84966342D01*
X202659523Y-84966342D02*
X202611904Y-84871104D01*
X202611904Y-84871104D02*
X202516666Y-84823485D01*
X202516666Y-84823485D02*
X202373809Y-84823485D01*
X202373809Y-84823485D02*
X202278571Y-84775866D01*
X202278571Y-84775866D02*
X202230952Y-84680628D01*
X202230952Y-84680628D02*
X202230952Y-84633009D01*
X202230952Y-84633009D02*
X202278571Y-84537771D01*
X202278571Y-84537771D02*
X202373809Y-84490152D01*
X202373809Y-84490152D02*
X202516666Y-84490152D01*
X202516666Y-84490152D02*
X202611904Y-84537771D01*
D10*
X177165000Y-87257000D02*
X177165000Y-85265580D01*
X216535000Y-87257000D02*
X216535000Y-85265580D01*
X177165000Y-85852000D02*
X216535000Y-85852000D01*
X177165000Y-85852000D02*
X216535000Y-85852000D01*
X177165000Y-85852000D02*
X178291504Y-85265579D01*
X177165000Y-85852000D02*
X178291504Y-86438421D01*
X216535000Y-85852000D02*
X215408496Y-86438421D01*
X216535000Y-85852000D02*
X215408496Y-85265579D01*
M02*
