M48
; DRILL file {KiCad 9.0.5-9.0.5~ubuntu24.04.1} date 2025-10-18T12:27:38-0500
; FORMAT={-:-/ absolute / metric / decimal}
; #@! TF.CreationDate,2025-10-18T12:27:38-05:00
; #@! TF.GenerationSoftware,Kicad,Pcbnew,9.0.5-9.0.5~ubuntu24.04.1
; #@! TF.FileFunction,Plated,1,4,PTH
FMAT,2
METRIC
; #@! TA.AperFunction,Plated,PTH,ViaDrill
T1C0.200
; #@! TA.AperFunction,Plated,PTH,ComponentDrill
T2C0.750
%
G90
G05
T1
X174.498Y-107.569
X175.387Y-97.79
X176.276Y-104.013
X177.649Y-111.863
X178.181Y-112.649
X178.904Y-108.453
X178.947Y-107.754
X178.988Y-99.613
X179.07Y-94.996
X179.07Y-98.298
X179.324Y-101.092
X180.213Y-117.729
X180.467Y-118.745
X182.499Y-94.488
X182.626Y-114.681
X183.261Y-110.644
X183.261Y-112.014
X183.319Y-104.789
X183.34Y-109.949
X183.896Y-103.378
X184.144Y-113.284
X184.766Y-111.691
X184.802Y-96.249
X184.912Y-94.488
X185.039Y-100.584
X185.435Y-109.856
X185.801Y-112.268
X185.922Y-116.328
X185.928Y-108.712
X186.049Y-100.203
X186.055Y-101.981
X186.182Y-91.313
X186.355Y-97.074
X186.436Y-95.504
X186.436Y-117.094
X186.952Y-114.764
X187.071Y-96.52
X187.706Y-94.488
X187.706Y-97.005
X187.706Y-113.284
X187.714Y-98.0
X188.341Y-93.98
X188.341Y-103.632
X188.341Y-107.061
X188.595Y-118.999
X188.849Y-97.663
X188.976Y-109.982
X189.103Y-94.742
X189.369Y-105.029
X189.611Y-99.441
X190.054Y-101.63
X190.251Y-91.7
X190.411Y-100.383
X190.754Y-109.347
X190.881Y-92.202
X191.014Y-100.028
X191.135Y-98.933
X191.135Y-101.346
X191.135Y-107.188
X191.394Y-93.345
X191.643Y-114.3
X191.643Y-118.745
X192.024Y-107.188
X192.405Y-113.792
X192.405Y-118.745
X192.532Y-110.109
X192.786Y-107.188
X193.675Y-118.745
X194.183Y-114.3
X194.437Y-91.186
X194.735Y-94.742
X194.735Y-94.742
X194.735Y-94.742
X194.735Y-94.742
X194.735Y-94.742
X194.735Y-94.742
X194.735Y-94.742
X195.199Y-109.22
X195.326Y-105.029
X195.834Y-110.109
X195.961Y-91.186
X196.41Y-99.008
X197.45Y-104.345
X197.45Y-108.23
X197.866Y-118.237
X198.069Y-90.75
X198.114Y-92.518
X198.114Y-93.218
X198.501Y-94.478
X198.882Y-114.91
X199.034Y-117.805
X199.141Y-104.775
X199.771Y-95.25
X200.203Y-91.846
X200.304Y-99.212
X200.533Y-104.14
X200.533Y-106.553
X200.787Y-103.38
X201.168Y-93.929
X201.422Y-100.965
X201.727Y-117.856
X202.267Y-98.803
X202.946Y-107.569
X203.091Y-98.803
X203.835Y-101.6
X204.216Y-107.696
X204.597Y-99.06
X204.724Y-99.822
X205.181Y-90.75
X205.638Y-116.688
X206.375Y-96.901
X206.375Y-105.283
X206.375Y-106.299
X206.883Y-90.75
X207.518Y-114.351
X207.772Y-91.694
X207.772Y-117.246
X207.899Y-94.361
X208.128Y-99.822
X209.144Y-107.391
X209.804Y-111.125
X212.344Y-113.233
X214.376Y-91.567
X214.503Y-93.472
T2
X172.0Y-107.0
X172.0Y-109.0
X172.0Y-111.0
X172.0Y-113.0
X172.0Y-115.0
X172.0Y-117.0
X212.55Y-97.0
X212.55Y-99.0
X212.55Y-101.0
X212.55Y-103.0
M30
