%TF.GenerationSoftware,KiCad,Pcbnew,9.0.5-9.0.5~ubuntu24.04.1*%
%TF.CreationDate,2025-10-18T12:27:34-05:00*%
%TF.ProjectId,can_distance_sensor,63616e5f-6469-4737-9461-6e63655f7365,rev?*%
%TF.SameCoordinates,Original*%
%TF.FileFunction,Soldermask,Bot*%
%TF.FilePolarity,Negative*%
%FSLAX46Y46*%
G04 Gerber Fmt 4.6, Leading zero omitted, Abs format (unit mm)*
G04 Created by KiCad (PCBNEW 9.0.5-9.0.5~ubuntu24.04.1) date 2025-10-18 12:27:34*
%MOMM*%
%LPD*%
G01*
G04 APERTURE LIST*
G04 Aperture macros list*
%AMRoundRect*
0 Rectangle with rounded corners*
0 $1 Rounding radius*
0 $2 $3 $4 $5 $6 $7 $8 $9 X,Y pos of 4 corners*
0 Add a 4 corners polygon primitive as box body*
4,1,4,$2,$3,$4,$5,$6,$7,$8,$9,$2,$3,0*
0 Add four circle primitives for the rounded corners*
1,1,$1+$1,$2,$3*
1,1,$1+$1,$4,$5*
1,1,$1+$1,$6,$7*
1,1,$1+$1,$8,$9*
0 Add four rect primitives between the rounded corners*
20,1,$1+$1,$2,$3,$4,$5,0*
20,1,$1+$1,$4,$5,$6,$7,0*
20,1,$1+$1,$6,$7,$8,$9,0*
20,1,$1+$1,$8,$9,$2,$3,0*%
G04 Aperture macros list end*
%ADD10C,2.200000*%
%ADD11C,1.000000*%
%ADD12RoundRect,0.250000X-0.625000X0.350000X-0.625000X-0.350000X0.625000X-0.350000X0.625000X0.350000X0*%
%ADD13O,1.750000X1.200000*%
%ADD14RoundRect,0.250000X0.625000X-0.350000X0.625000X0.350000X-0.625000X0.350000X-0.625000X-0.350000X0*%
%ADD15C,0.990600*%
%ADD16C,0.787400*%
%ADD17R,1.549400X1.295400*%
%ADD18O,2.667000X1.168400*%
%ADD19O,2.159000X1.168400*%
G04 APERTURE END LIST*
D10*
%TO.C,H2*%
X211230000Y-116956000D03*
%TD*%
%TO.C,H1*%
X181000000Y-112000000D03*
%TD*%
D11*
%TO.C,TP14*%
X206002000Y-91904000D03*
%TD*%
%TO.C,TP13*%
X206002000Y-94444000D03*
%TD*%
%TO.C,TP12*%
X178308000Y-115570000D03*
%TD*%
%TO.C,TP11*%
X175641000Y-118110000D03*
%TD*%
%TO.C,TP10*%
X175641000Y-115570000D03*
%TD*%
%TO.C,TP9*%
X178308000Y-118110000D03*
%TD*%
%TO.C,TP8*%
X190000000Y-98000000D03*
%TD*%
%TO.C,TP7*%
X187714000Y-98000000D03*
%TD*%
%TO.C,TP6*%
X192286000Y-98000000D03*
%TD*%
%TO.C,TP5*%
X194826000Y-98000000D03*
%TD*%
%TO.C,TP4*%
X186952000Y-114764000D03*
%TD*%
%TO.C,TP3*%
X186952000Y-109938000D03*
%TD*%
%TO.C,TP2*%
X194064000Y-109176000D03*
%TD*%
%TO.C,TP1*%
X208288000Y-108922000D03*
%TD*%
D12*
%TO.C,J4*%
X172000000Y-107000000D03*
D13*
X172000000Y-109000000D03*
X172000000Y-111000000D03*
X172000000Y-113000000D03*
X172000000Y-115000000D03*
X172000000Y-117000000D03*
%TD*%
D14*
%TO.C,J3*%
X212550000Y-103000000D03*
D13*
X212550000Y-101000000D03*
X212550000Y-99000000D03*
X212550000Y-97000000D03*
%TD*%
D15*
%TO.C,J2*%
X188810000Y-92865000D03*
X181190000Y-93881000D03*
X181190000Y-91849000D03*
D16*
X187540000Y-93500000D03*
X186270000Y-93500000D03*
X185000000Y-93500000D03*
X183730000Y-93500000D03*
X182460000Y-93500000D03*
X182460000Y-92230000D03*
X183730000Y-92230000D03*
X185000000Y-92230000D03*
X186270000Y-92230000D03*
X187540000Y-92230000D03*
%TD*%
D17*
%TO.C,SW1*%
X197963000Y-102790001D03*
X205913000Y-102790001D03*
X197963000Y-98289999D03*
X205913000Y-98290000D03*
%TD*%
D18*
%TO.C,J5*%
X172000700Y-102320002D03*
D19*
X177360700Y-102320002D03*
D18*
X172000700Y-93679998D03*
D19*
X177360700Y-93679998D03*
%TD*%
M02*
