%TF.GenerationSoftware,KiCad,Pcbnew,9.0.5-9.0.5~ubuntu24.04.1*%
%TF.CreationDate,2025-10-22T19:45:32-05:00*%
%TF.ProjectId,can_distance_sensor,63616e5f-6469-4737-9461-6e63655f7365,rev?*%
%TF.SameCoordinates,Original*%
%TF.FileFunction,Copper,L4,Bot*%
%TF.FilePolarity,Positive*%
%FSLAX46Y46*%
G04 Gerber Fmt 4.6, Leading zero omitted, Abs format (unit mm)*
G04 Created by KiCad (PCBNEW 9.0.5-9.0.5~ubuntu24.04.1) date 2025-10-22 19:45:32*
%MOMM*%
%LPD*%
G01*
G04 APERTURE LIST*
G04 Aperture macros list*
%AMRoundRect*
0 Rectangle with rounded corners*
0 $1 Rounding radius*
0 $2 $3 $4 $5 $6 $7 $8 $9 X,Y pos of 4 corners*
0 Add a 4 corners polygon primitive as box body*
4,1,4,$2,$3,$4,$5,$6,$7,$8,$9,$2,$3,0*
0 Add four circle primitives for the rounded corners*
1,1,$1+$1,$2,$3*
1,1,$1+$1,$4,$5*
1,1,$1+$1,$6,$7*
1,1,$1+$1,$8,$9*
0 Add four rect primitives between the rounded corners*
20,1,$1+$1,$2,$3,$4,$5,0*
20,1,$1+$1,$4,$5,$6,$7,0*
20,1,$1+$1,$6,$7,$8,$9,0*
20,1,$1+$1,$8,$9,$2,$3,0*%
G04 Aperture macros list end*
%TA.AperFunction,ComponentPad*%
%ADD10RoundRect,0.250000X0.625000X-0.350000X0.625000X0.350000X-0.625000X0.350000X-0.625000X-0.350000X0*%
%TD*%
%TA.AperFunction,ComponentPad*%
%ADD11O,1.750000X1.200000*%
%TD*%
%TA.AperFunction,ComponentPad*%
%ADD12RoundRect,0.250000X-0.625000X0.350000X-0.625000X-0.350000X0.625000X-0.350000X0.625000X0.350000X0*%
%TD*%
%TA.AperFunction,WasherPad*%
%ADD13O,2.159000X1.168400*%
%TD*%
%TA.AperFunction,WasherPad*%
%ADD14O,2.667000X1.168400*%
%TD*%
%TA.AperFunction,ConnectorPad*%
%ADD15C,0.787400*%
%TD*%
%TA.AperFunction,SMDPad,CuDef*%
%ADD16C,1.000000*%
%TD*%
%TA.AperFunction,SMDPad,CuDef*%
%ADD17R,1.549400X1.295400*%
%TD*%
%TA.AperFunction,ViaPad*%
%ADD18C,0.600000*%
%TD*%
%TA.AperFunction,ViaPad*%
%ADD19C,0.500000*%
%TD*%
%TA.AperFunction,Conductor*%
%ADD20C,0.254000*%
%TD*%
%TA.AperFunction,Conductor*%
%ADD21C,0.127000*%
%TD*%
G04 APERTURE END LIST*
D10*
%TO.P,J3,1,Pin_1*%
%TO.N,VIN*%
X212550000Y-103000000D03*
D11*
%TO.P,J3,2,Pin_2*%
%TO.N,GND*%
X212550000Y-101000000D03*
%TO.P,J3,3,Pin_3*%
%TO.N,Net-(J3-Pin_3)*%
X212550000Y-99000000D03*
%TO.P,J3,4,Pin_4*%
%TO.N,Net-(J3-Pin_4)*%
X212550000Y-97000000D03*
%TD*%
D12*
%TO.P,J4,1,Pin_1*%
%TO.N,GND*%
X172000000Y-107000000D03*
D11*
%TO.P,J4,2,Pin_2*%
%TO.N,TB_CLK*%
X172000000Y-109000000D03*
%TO.P,J4,3,Pin_3*%
%TO.N,TB_MOSI*%
X172000000Y-111000000D03*
%TO.P,J4,4,Pin_4*%
%TO.N,TB_CS*%
X172000000Y-113000000D03*
%TO.P,J4,5,Pin_5*%
%TO.N,TB_ABS*%
X172000000Y-115000000D03*
%TO.P,J4,6,Pin_6*%
%TO.N,Net-(J4-Pin_6)*%
X172000000Y-117000000D03*
%TD*%
D13*
%TO.P,J5,*%
%TO.N,*%
X177360700Y-93679998D03*
D14*
X172000700Y-93679998D03*
D13*
X177360700Y-102320002D03*
D14*
X172000700Y-102320002D03*
%TD*%
D15*
%TO.P,J2,1,VTref*%
%TO.N,3V3*%
X187540000Y-93500000D03*
%TO.P,J2,2,SWDIO/TMS*%
%TO.N,SWDIO*%
X186270000Y-93500000D03*
%TO.P,J2,3,GND*%
%TO.N,GND*%
X185000000Y-93500000D03*
%TO.P,J2,4,SWCLK/TCK*%
%TO.N,BOOT*%
X183730000Y-93500000D03*
%TO.P,J2,5,GND*%
%TO.N,GND*%
X182460000Y-93500000D03*
%TO.P,J2,6,SWO/TDO*%
%TO.N,unconnected-(J2-SWO{slash}TDO-Pad6)*%
X182460000Y-92230000D03*
%TO.P,J2,7,KEY*%
%TO.N,unconnected-(J2-KEY-Pad7)*%
X183730000Y-92230000D03*
%TO.P,J2,8,NC/TDI*%
%TO.N,unconnected-(J2-NC{slash}TDI-Pad8)*%
X185000000Y-92230000D03*
%TO.P,J2,9,GNDDetect*%
%TO.N,GND*%
X186270000Y-92230000D03*
%TO.P,J2,10,~{RESET}*%
%TO.N,NRST*%
X187540000Y-92230000D03*
%TD*%
D16*
%TO.P,TP5,1,1*%
%TO.N,TOF_XSHUT*%
X194826000Y-98000000D03*
%TD*%
%TO.P,TP2,1,1*%
%TO.N,VCC*%
X194064000Y-109176000D03*
%TD*%
%TO.P,TP1,1,1*%
%TO.N,GND*%
X208288000Y-108922000D03*
%TD*%
%TO.P,TP7,1,1*%
%TO.N,TOF_SCL*%
X187714000Y-98000000D03*
%TD*%
%TO.P,TP9,1,1*%
%TO.N,TB_CS*%
X178308000Y-118110000D03*
%TD*%
%TO.P,TP11,1,1*%
%TO.N,TB_ABS*%
X175641000Y-118110000D03*
%TD*%
%TO.P,TP8,1,1*%
%TO.N,TOF_SDA*%
X190000000Y-98000000D03*
%TD*%
%TO.P,TP13,1,1*%
%TO.N,LED1*%
X206002000Y-94444000D03*
%TD*%
%TO.P,TP6,1,1*%
%TO.N,TOF_INT*%
X192286000Y-98000000D03*
%TD*%
%TO.P,TP10,1,1*%
%TO.N,TB_MOSI*%
X175641000Y-115570000D03*
%TD*%
%TO.P,TP3,1,1*%
%TO.N,3V3*%
X186952000Y-109938000D03*
%TD*%
%TO.P,TP12,1,1*%
%TO.N,TB_CLK*%
X178308000Y-115570000D03*
%TD*%
%TO.P,TP14,1,1*%
%TO.N,LED2*%
X206002000Y-91904000D03*
%TD*%
%TO.P,TP4,1,1*%
%TO.N,2V8*%
X186952000Y-114764000D03*
%TD*%
D17*
%TO.P,SW1,1,1*%
%TO.N,Net-(R2-Pad2)*%
X205913000Y-98290000D03*
%TO.P,SW1,2,2*%
X197963000Y-98289999D03*
%TO.P,SW1,3,3*%
%TO.N,BOOT*%
X205913000Y-102790001D03*
%TO.P,SW1,4,4*%
X197963000Y-102790001D03*
%TD*%
D18*
%TO.N,GND*%
X204470000Y-107696000D03*
X203454000Y-105918000D03*
X213995000Y-111252000D03*
X207780000Y-105918000D03*
X202184000Y-97586800D03*
X209169000Y-95758000D03*
X172720000Y-95885000D03*
X172720000Y-99568000D03*
X176276000Y-116840000D03*
X181991000Y-106807000D03*
X188468000Y-114554000D03*
X194310000Y-113792000D03*
X204851000Y-118123000D03*
X206883000Y-118123000D03*
X202438000Y-118110000D03*
X204851000Y-115837000D03*
X206883000Y-115837000D03*
X202438000Y-115824000D03*
X206883000Y-113678000D03*
X204851000Y-113678000D03*
X202438000Y-113665000D03*
X198247000Y-115189000D03*
D19*
%TO.N,3V3*%
X199771000Y-95250000D03*
X185435000Y-109860500D03*
X188976000Y-109982000D03*
X206375000Y-96901000D03*
X206375000Y-105283000D03*
X200304400Y-99212400D03*
X187706000Y-94488000D03*
X206375000Y-106299000D03*
X214376000Y-91567000D03*
X178947284Y-107753837D03*
X200202800Y-91846400D03*
X214503000Y-93472000D03*
X190410890Y-100383309D03*
%TO.N,GND*%
X200787000Y-103380500D03*
X199141500Y-104775000D03*
X212344000Y-113233200D03*
X182499000Y-94488000D03*
X201168000Y-93929200D03*
X186182000Y-91313000D03*
X202266513Y-98803500D03*
X201422000Y-100965000D03*
X182626000Y-114681000D03*
X194734800Y-94742000D03*
X205181200Y-90750000D03*
X194734800Y-94742000D03*
X197866000Y-118237000D03*
X194734800Y-94742000D03*
X209143600Y-107391200D03*
D18*
X190246000Y-109347000D03*
D19*
X192786000Y-107188000D03*
X179070000Y-94996000D03*
X198501000Y-94478500D03*
X194734800Y-94742000D03*
X179324000Y-101092000D03*
X188595000Y-118999000D03*
X184912000Y-94488000D03*
X197449500Y-108230199D03*
X183319162Y-104788691D03*
D18*
X190246000Y-114300000D03*
D19*
X194734800Y-94742000D03*
X187706000Y-113284000D03*
X178181000Y-112649000D03*
X194734800Y-94742000D03*
X195326000Y-105029000D03*
X189369000Y-105029000D03*
X203090828Y-98803500D03*
X208127600Y-99822000D03*
X199034400Y-117805200D03*
X179070000Y-98298000D03*
X194734800Y-94742000D03*
X192024000Y-107188000D03*
X178904007Y-108452500D03*
X186055000Y-101981000D03*
X180213000Y-117729000D03*
X191135000Y-107188000D03*
X195834000Y-110109000D03*
X203835000Y-101600000D03*
%TO.N,BOOT*%
X204724000Y-99822000D03*
X184794834Y-111735035D03*
X185039000Y-100584000D03*
X184802194Y-96248806D03*
X187706000Y-97005500D03*
%TO.N,VCC*%
X176276000Y-104013000D03*
X195199000Y-109220000D03*
X200533000Y-106553000D03*
X183896000Y-103378000D03*
X200533000Y-104140000D03*
D18*
X183916566Y-110744000D03*
D19*
%TO.N,+12V*%
X184144500Y-113284000D03*
X209804000Y-111125000D03*
%TO.N,VIN_MEAS*%
X185922500Y-116328015D03*
X198114500Y-93218000D03*
%TO.N,LED1*%
X207899000Y-94361000D03*
X198114500Y-92517997D03*
%TO.N,LED2*%
X191394500Y-93345000D03*
X207772000Y-91694000D03*
%TO.N,TB_MOSI*%
X196410300Y-99008000D03*
%TO.N,SWDIO*%
X187071000Y-96520000D03*
%TO.N,NRST*%
X198069200Y-90750000D03*
%TO.N,TB_CLK*%
X183261000Y-112014000D03*
X191135000Y-98933000D03*
X183175111Y-110631092D03*
%TO.N,TB_CS*%
X189103000Y-94742000D03*
X183250883Y-109886573D03*
X189611000Y-99441000D03*
X188849000Y-97663000D03*
X177648999Y-111862999D03*
%TO.N,Net-(R2-Pad2)*%
X204597000Y-99060000D03*
%TO.N,DM*%
X186354600Y-97073600D03*
X186436000Y-95504000D03*
%TO.N,2V8*%
X186952000Y-114764000D03*
%TO.N,TOF_INT*%
X188341000Y-103632000D03*
X190251500Y-91699500D03*
%TO.N,TOF_XSHUT*%
X188341000Y-107061000D03*
X190881000Y-92202000D03*
%TO.N,TOF_SCL*%
X188341000Y-93980000D03*
X187714000Y-98000000D03*
%TO.N,TOF_SDA*%
X194437000Y-91186000D03*
X186049500Y-100203000D03*
%TO.N,CAN_STB*%
X195961000Y-91186000D03*
X206883000Y-90750000D03*
%TO.N,TOF_SDA_2V8*%
X190053687Y-101629513D03*
X191135000Y-101346000D03*
%TO.N,Net-(J5-D--PadA7)*%
X178988000Y-99613000D03*
X175387000Y-97790000D03*
%TO.N,Net-(J4-Pin_6)*%
X174498000Y-107569000D03*
%TO.N,TB_ABS*%
X180467000Y-118745000D03*
X197449500Y-104345153D03*
X186436000Y-117094000D03*
X185928000Y-108712000D03*
X191014137Y-100028208D03*
%TD*%
D20*
%TO.N,3V3*%
X185512500Y-109938000D02*
X185435000Y-109860500D01*
X186952000Y-109938000D02*
X185512500Y-109938000D01*
D21*
X187540000Y-93500000D02*
X187540000Y-94322000D01*
X187540000Y-94322000D02*
X187706000Y-94488000D01*
%TO.N,GND*%
X185000000Y-94400000D02*
X184912000Y-94488000D01*
X182460000Y-93500000D02*
X182460000Y-94449000D01*
X209143600Y-108066400D02*
X209143600Y-107391200D01*
X185000000Y-93500000D02*
X185000000Y-94400000D01*
X208288000Y-108922000D02*
X209143600Y-108066400D01*
X186270000Y-92230000D02*
X186270000Y-91401000D01*
X182460000Y-94449000D02*
X182499000Y-94488000D01*
X186270000Y-91401000D02*
X186182000Y-91313000D01*
%TO.N,BOOT*%
X183730000Y-95176613D02*
X183730000Y-93500000D01*
X184802194Y-96248806D02*
X183730000Y-95176613D01*
X186869100Y-97286713D02*
X186567713Y-97588100D01*
X185039000Y-96485612D02*
X184802194Y-96248806D01*
X184658000Y-111871869D02*
X184794834Y-111735035D01*
X187424787Y-97286713D02*
X186869100Y-97286713D01*
X185039000Y-100584000D02*
X185039000Y-96485612D01*
X184658000Y-116205000D02*
X184658000Y-111871869D01*
X205913000Y-101011000D02*
X204724000Y-99822000D01*
X197963000Y-102790001D02*
X197963000Y-112679000D01*
X187706000Y-97005500D02*
X187424787Y-97286713D01*
X186182000Y-117729000D02*
X184658000Y-116205000D01*
X186141487Y-97588100D02*
X184802194Y-96248806D01*
X205913000Y-102790001D02*
X205913000Y-101011000D01*
X186567713Y-97588100D02*
X186141487Y-97588100D01*
X197963000Y-102790001D02*
X205913000Y-102790001D01*
X197963000Y-112679000D02*
X192913000Y-117729000D01*
X192913000Y-117729000D02*
X186182000Y-117729000D01*
%TO.N,VCC*%
X188341000Y-108839000D02*
X186969833Y-108839000D01*
X195155000Y-109176000D02*
X195199000Y-109220000D01*
X194064000Y-109176000D02*
X195155000Y-109176000D01*
X194064000Y-109176000D02*
X191091000Y-109176000D01*
X191091000Y-109176000D02*
X190500000Y-108585000D01*
X188595000Y-108585000D02*
X188341000Y-108839000D01*
D20*
X176276000Y-104013000D02*
X183261000Y-104013000D01*
X183261000Y-104013000D02*
X183896000Y-103378000D01*
D21*
X190500000Y-108585000D02*
X188595000Y-108585000D01*
X184658000Y-110002566D02*
X183916566Y-110744000D01*
X184658000Y-109347000D02*
X184658000Y-110002566D01*
X186969833Y-108839000D02*
X186461833Y-109347000D01*
X186461833Y-109347000D02*
X184658000Y-109347000D01*
X200533000Y-104140000D02*
X200533000Y-106553000D01*
%TO.N,+12V*%
X184150000Y-118491000D02*
X184150000Y-113289500D01*
X188808113Y-118484500D02*
X185045500Y-118484500D01*
X184150000Y-113289500D02*
X184144500Y-113284000D01*
X208915000Y-119380000D02*
X189703613Y-119380000D01*
X208915000Y-112014000D02*
X208915000Y-119380000D01*
X185045500Y-118484500D02*
X184150000Y-118491000D01*
X209804000Y-111125000D02*
X208915000Y-112014000D01*
X189703613Y-119380000D02*
X188808113Y-118484500D01*
%TO.N,VIN_MEAS*%
X196850000Y-95225599D02*
X196923800Y-95299399D01*
X196609000Y-107882052D02*
X196609000Y-108578346D01*
X186045515Y-116205000D02*
X185922500Y-116328015D01*
X196923800Y-101280599D02*
X196850000Y-101354399D01*
X196923800Y-95299399D02*
X196923800Y-101280599D01*
X196850000Y-112694552D02*
X193339552Y-116205000D01*
X193339552Y-116205000D02*
X186045515Y-116205000D01*
X197993000Y-94361000D02*
X196850000Y-94361000D01*
X196850000Y-94361000D02*
X196850000Y-95225599D01*
X196850000Y-108819346D02*
X196850000Y-112694552D01*
X198114500Y-93218000D02*
X197993000Y-93339500D01*
X197993000Y-93339500D02*
X197993000Y-94361000D01*
X196850000Y-101354399D02*
X196850000Y-107641052D01*
X196850000Y-107641052D02*
X196609000Y-107882052D01*
X196609000Y-108578346D02*
X196850000Y-108819346D01*
%TO.N,LED1*%
X207816000Y-94444000D02*
X206002000Y-94444000D01*
X204246900Y-92688900D02*
X206002000Y-94444000D01*
X207899000Y-94361000D02*
X207816000Y-94444000D01*
X198285403Y-92688900D02*
X204246900Y-92688900D01*
X198114500Y-92517997D02*
X198285403Y-92688900D01*
%TO.N,LED2*%
X196850000Y-93345000D02*
X196850000Y-91659900D01*
X199989687Y-92360900D02*
X205545100Y-92360900D01*
X199288687Y-91659900D02*
X199989687Y-92360900D01*
X191394500Y-93345000D02*
X196850000Y-93345000D01*
X205545100Y-92360900D02*
X206002000Y-91904000D01*
X196850000Y-91659900D02*
X199288687Y-91659900D01*
X207562000Y-91904000D02*
X207772000Y-91694000D01*
X206002000Y-91904000D02*
X207562000Y-91904000D01*
%TO.N,TB_MOSI*%
X183015630Y-111125000D02*
X183198130Y-111307500D01*
X175514000Y-110635500D02*
X181565194Y-110635500D01*
X196522000Y-111125000D02*
X196522000Y-108953794D01*
X181565194Y-110635500D02*
X182054694Y-111125000D01*
X183198130Y-111307500D02*
X184510410Y-111307500D01*
X175641000Y-110762500D02*
X175514000Y-110635500D01*
X196522000Y-107506604D02*
X196522000Y-99119700D01*
X184510410Y-111307500D02*
X184692910Y-111125000D01*
X172000000Y-111000000D02*
X172364500Y-110635500D01*
X184692910Y-111125000D02*
X196522000Y-111125000D01*
X196282000Y-107746604D02*
X196522000Y-107506604D01*
X172364500Y-110635500D02*
X175514000Y-110635500D01*
X196522000Y-99119700D02*
X196410300Y-99008000D01*
X196522000Y-108953794D02*
X196282000Y-108713794D01*
X175641000Y-115570000D02*
X175641000Y-110762500D01*
X182054694Y-111125000D02*
X183015630Y-111125000D01*
X196282000Y-108713794D02*
X196282000Y-107746604D01*
%TO.N,SWDIO*%
X187071000Y-96520000D02*
X187071000Y-94301000D01*
X187071000Y-94301000D02*
X186270000Y-93500000D01*
%TO.N,NRST*%
X187540000Y-92230000D02*
X187540000Y-91619500D01*
X187540000Y-91619500D02*
X188488000Y-90671500D01*
X197967700Y-90851500D02*
X196469000Y-90851500D01*
X198069200Y-90750000D02*
X197967700Y-90851500D01*
X196469000Y-90851500D02*
X196289000Y-90671500D01*
X196289000Y-90671500D02*
X188488000Y-90671500D01*
%TO.N,TB_CLK*%
X191135000Y-98933000D02*
X184196743Y-105871257D01*
X172000000Y-109000000D02*
X181544019Y-109000000D01*
X179705000Y-115570000D02*
X183261000Y-112014000D01*
X178308000Y-115570000D02*
X179705000Y-115570000D01*
X181544019Y-109000000D02*
X183175111Y-110631092D01*
X184196743Y-105871257D02*
X184196743Y-109666913D01*
X183232564Y-110631092D02*
X183175111Y-110631092D01*
X184196743Y-109666913D02*
X183232564Y-110631092D01*
%TO.N,TB_CS*%
X178308000Y-118110000D02*
X177165000Y-116967000D01*
X183401585Y-109886573D02*
X183250883Y-109886573D01*
X177165000Y-116967000D02*
X177165000Y-111887000D01*
X177165000Y-111887000D02*
X177624998Y-111887000D01*
X189611000Y-99441000D02*
X183866249Y-105185751D01*
X177624998Y-111887000D02*
X177648999Y-111862999D01*
X183866249Y-105185751D02*
X183866249Y-109421909D01*
X188849000Y-97282000D02*
X188849000Y-97663000D01*
X183866249Y-109421909D02*
X183401585Y-109886573D01*
X188849000Y-94996000D02*
X188849000Y-97282000D01*
X189103000Y-94742000D02*
X188849000Y-94996000D01*
%TO.N,Net-(R2-Pad2)*%
X205367000Y-98290000D02*
X204597000Y-99060000D01*
X197963000Y-98289999D02*
X205913000Y-98290000D01*
X205913000Y-98290000D02*
X205367000Y-98290000D01*
%TO.N,DM*%
X186354600Y-95585400D02*
X186436000Y-95504000D01*
X186354600Y-97073600D02*
X186354600Y-95585400D01*
%TO.N,TOF_INT*%
X188549448Y-102870000D02*
X188341000Y-103078448D01*
X192286000Y-98000000D02*
X192286000Y-102862000D01*
X192278000Y-102870000D02*
X188549448Y-102870000D01*
X192286000Y-102862000D02*
X192278000Y-102870000D01*
X190933000Y-96647000D02*
X192286000Y-98000000D01*
X190246000Y-91705000D02*
X190246000Y-96647000D01*
X190246000Y-96647000D02*
X190933000Y-96647000D01*
X188341000Y-103078448D02*
X188341000Y-103632000D01*
X190251500Y-91699500D02*
X190246000Y-91705000D01*
%TO.N,TOF_XSHUT*%
X194826000Y-100785862D02*
X194826000Y-98000000D01*
X192413862Y-103198000D02*
X194826000Y-100785862D01*
X193145000Y-96319000D02*
X194826000Y-98000000D01*
X188855500Y-106546500D02*
X188855500Y-103661396D01*
X188855500Y-103661396D02*
X189318896Y-103198000D01*
X190881000Y-92202000D02*
X190881000Y-96319000D01*
X188341000Y-107061000D02*
X188855500Y-106546500D01*
X190881000Y-96319000D02*
X193145000Y-96319000D01*
X189318896Y-103198000D02*
X192413862Y-103198000D01*
%TO.N,TOF_SCL*%
X188341000Y-93980000D02*
X188341000Y-97373000D01*
X188341000Y-97373000D02*
X187714000Y-98000000D01*
%TO.N,TOF_SDA*%
X194437000Y-91186000D02*
X189738000Y-91186000D01*
X190000000Y-97163000D02*
X190000000Y-98000000D01*
X189194000Y-98806000D02*
X190000000Y-98000000D01*
X186182000Y-98806000D02*
X189194000Y-98806000D01*
X189738000Y-96901000D02*
X190000000Y-97163000D01*
X186182000Y-100070500D02*
X186182000Y-98806000D01*
X186049500Y-100203000D02*
X186182000Y-100070500D01*
X189738000Y-91186000D02*
X189738000Y-96901000D01*
%TO.N,CAN_STB*%
X205908813Y-90750000D02*
X205326913Y-91331900D01*
X195967500Y-91179500D02*
X197679500Y-91179500D01*
X205326913Y-91331900D02*
X204348733Y-91331900D01*
X206883000Y-90750000D02*
X205908813Y-90750000D01*
X195961000Y-91186000D02*
X195967500Y-91179500D01*
X197831900Y-91331900D02*
X204348733Y-91331900D01*
X197679500Y-91179500D02*
X197831900Y-91331900D01*
%TO.N,TOF_SDA_2V8*%
X191135000Y-101346000D02*
X190188997Y-101346000D01*
X190053687Y-101481310D02*
X190053687Y-101629513D01*
X190188997Y-101346000D02*
X190053687Y-101481310D01*
%TO.N,Net-(J5-D--PadA7)*%
X175387000Y-97790000D02*
X175387000Y-99060000D01*
X175641000Y-99314000D02*
X178689000Y-99314000D01*
X178689000Y-99314000D02*
X178943000Y-99568000D01*
X175387000Y-99060000D02*
X175641000Y-99314000D01*
D20*
%TO.N,Net-(J4-Pin_6)*%
X171353000Y-116078000D02*
X170688000Y-116078000D01*
X170628000Y-116018000D02*
X170628000Y-105029000D01*
X170628000Y-105029000D02*
X174498000Y-105029000D01*
X170688000Y-116078000D02*
X170628000Y-116018000D01*
X172000000Y-116725000D02*
X171353000Y-116078000D01*
X172000000Y-117000000D02*
X172000000Y-116725000D01*
X174498000Y-105029000D02*
X174498000Y-107569000D01*
D21*
%TO.N,TB_ABS*%
X186436000Y-117094000D02*
X186690000Y-116840000D01*
X197612000Y-109118898D02*
X196936000Y-108442898D01*
X186690000Y-116840000D02*
X193167000Y-116840000D01*
X196936000Y-108442898D02*
X196936000Y-108017500D01*
X197449500Y-107504000D02*
X197449500Y-104345153D01*
X191014137Y-100506261D02*
X191014137Y-100028208D01*
X176530000Y-118999000D02*
X180213000Y-118999000D01*
X197612000Y-112395000D02*
X197612000Y-109118898D01*
X186055000Y-108585000D02*
X186055000Y-104902000D01*
X193167000Y-116840000D02*
X197612000Y-112395000D01*
X190060191Y-100896809D02*
X190623589Y-100896809D01*
X186055000Y-104902000D02*
X190060191Y-100896809D01*
X185928000Y-108712000D02*
X186055000Y-108585000D01*
X190623589Y-100896809D02*
X191014137Y-100506261D01*
X172531000Y-115000000D02*
X172000000Y-115000000D01*
X180213000Y-118999000D02*
X180467000Y-118745000D01*
X175641000Y-118110000D02*
X176530000Y-118999000D01*
X175641000Y-118110000D02*
X172531000Y-115000000D01*
X196936000Y-108017500D02*
X197449500Y-107504000D01*
%TD*%
M02*
