%TF.GenerationSoftware,KiCad,Pcbnew,9.0.5-9.0.5~ubuntu24.04.1*%
%TF.CreationDate,2025-10-22T19:45:32-05:00*%
%TF.ProjectId,can_distance_sensor,63616e5f-6469-4737-9461-6e63655f7365,rev?*%
%TF.SameCoordinates,Original*%
%TF.FileFunction,Copper,L1,Top*%
%TF.FilePolarity,Positive*%
%FSLAX46Y46*%
G04 Gerber Fmt 4.6, Leading zero omitted, Abs format (unit mm)*
G04 Created by KiCad (PCBNEW 9.0.5-9.0.5~ubuntu24.04.1) date 2025-10-22 19:45:32*
%MOMM*%
%LPD*%
G01*
G04 APERTURE LIST*
G04 Aperture macros list*
%AMRoundRect*
0 Rectangle with rounded corners*
0 $1 Rounding radius*
0 $2 $3 $4 $5 $6 $7 $8 $9 X,Y pos of 4 corners*
0 Add a 4 corners polygon primitive as box body*
4,1,4,$2,$3,$4,$5,$6,$7,$8,$9,$2,$3,0*
0 Add four circle primitives for the rounded corners*
1,1,$1+$1,$2,$3*
1,1,$1+$1,$4,$5*
1,1,$1+$1,$6,$7*
1,1,$1+$1,$8,$9*
0 Add four rect primitives between the rounded corners*
20,1,$1+$1,$2,$3,$4,$5,0*
20,1,$1+$1,$4,$5,$6,$7,0*
20,1,$1+$1,$6,$7,$8,$9,0*
20,1,$1+$1,$8,$9,$2,$3,0*%
%AMFreePoly0*
4,1,23,0.550000,-0.750000,0.000000,-0.750000,0.000000,-0.745722,-0.065263,-0.745722,-0.191342,-0.711940,-0.304381,-0.646677,-0.396677,-0.554381,-0.461940,-0.441342,-0.495722,-0.315263,-0.495722,-0.250000,-0.500000,-0.250000,-0.500000,0.250000,-0.495722,0.250000,-0.495722,0.315263,-0.461940,0.441342,-0.396677,0.554381,-0.304381,0.646677,-0.191342,0.711940,-0.065263,0.745722,0.000000,0.745722,
0.000000,0.750000,0.550000,0.750000,0.550000,-0.750000,0.550000,-0.750000,$1*%
%AMFreePoly1*
4,1,23,0.000000,0.745722,0.065263,0.745722,0.191342,0.711940,0.304381,0.646677,0.396677,0.554381,0.461940,0.441342,0.495722,0.315263,0.495722,0.250000,0.500000,0.250000,0.500000,-0.250000,0.495722,-0.250000,0.495722,-0.315263,0.461940,-0.441342,0.396677,-0.554381,0.304381,-0.646677,0.191342,-0.711940,0.065263,-0.745722,0.000000,-0.745722,0.000000,-0.750000,-0.550000,-0.750000,
-0.550000,0.750000,0.000000,0.750000,0.000000,0.745722,0.000000,0.745722,$1*%
G04 Aperture macros list end*
%TA.AperFunction,EtchedComponent*%
%ADD10C,0.000000*%
%TD*%
%TA.AperFunction,SMDPad,CuDef*%
%ADD11R,1.600000X3.000000*%
%TD*%
%TA.AperFunction,SMDPad,CuDef*%
%ADD12R,6.700000X6.700000*%
%TD*%
%TA.AperFunction,SMDPad,CuDef*%
%ADD13RoundRect,0.150000X0.150000X-0.587500X0.150000X0.587500X-0.150000X0.587500X-0.150000X-0.587500X0*%
%TD*%
%TA.AperFunction,SMDPad,CuDef*%
%ADD14RoundRect,0.225000X0.375000X-0.225000X0.375000X0.225000X-0.375000X0.225000X-0.375000X-0.225000X0*%
%TD*%
%TA.AperFunction,SMDPad,CuDef*%
%ADD15RoundRect,0.140000X-0.140000X-0.170000X0.140000X-0.170000X0.140000X0.170000X-0.140000X0.170000X0*%
%TD*%
%TA.AperFunction,SMDPad,CuDef*%
%ADD16RoundRect,0.150000X-0.587500X-0.150000X0.587500X-0.150000X0.587500X0.150000X-0.587500X0.150000X0*%
%TD*%
%TA.AperFunction,SMDPad,CuDef*%
%ADD17RoundRect,0.140000X0.170000X-0.140000X0.170000X0.140000X-0.170000X0.140000X-0.170000X-0.140000X0*%
%TD*%
%TA.AperFunction,SMDPad,CuDef*%
%ADD18R,1.422400X0.431800*%
%TD*%
%TA.AperFunction,SMDPad,CuDef*%
%ADD19RoundRect,0.140000X-0.170000X0.140000X-0.170000X-0.140000X0.170000X-0.140000X0.170000X0.140000X0*%
%TD*%
%TA.AperFunction,ComponentPad*%
%ADD20RoundRect,0.250000X0.625000X-0.350000X0.625000X0.350000X-0.625000X0.350000X-0.625000X-0.350000X0*%
%TD*%
%TA.AperFunction,ComponentPad*%
%ADD21O,1.750000X1.200000*%
%TD*%
%TA.AperFunction,SMDPad,CuDef*%
%ADD22RoundRect,0.225000X0.225000X0.375000X-0.225000X0.375000X-0.225000X-0.375000X0.225000X-0.375000X0*%
%TD*%
%TA.AperFunction,SMDPad,CuDef*%
%ADD23RoundRect,0.225000X-0.250000X0.225000X-0.250000X-0.225000X0.250000X-0.225000X0.250000X0.225000X0*%
%TD*%
%TA.AperFunction,ComponentPad*%
%ADD24RoundRect,0.250000X-0.625000X0.350000X-0.625000X-0.350000X0.625000X-0.350000X0.625000X0.350000X0*%
%TD*%
%TA.AperFunction,SMDPad,CuDef*%
%ADD25RoundRect,0.135000X0.135000X0.185000X-0.135000X0.185000X-0.135000X-0.185000X0.135000X-0.185000X0*%
%TD*%
%TA.AperFunction,SMDPad,CuDef*%
%ADD26RoundRect,0.135000X-0.135000X-0.185000X0.135000X-0.185000X0.135000X0.185000X-0.135000X0.185000X0*%
%TD*%
%TA.AperFunction,SMDPad,CuDef*%
%ADD27RoundRect,0.225000X-0.225000X-0.250000X0.225000X-0.250000X0.225000X0.250000X-0.225000X0.250000X0*%
%TD*%
%TA.AperFunction,SMDPad,CuDef*%
%ADD28RoundRect,0.218750X-0.218750X-0.256250X0.218750X-0.256250X0.218750X0.256250X-0.218750X0.256250X0*%
%TD*%
%TA.AperFunction,SMDPad,CuDef*%
%ADD29RoundRect,0.150000X-0.512500X-0.150000X0.512500X-0.150000X0.512500X0.150000X-0.512500X0.150000X0*%
%TD*%
%TA.AperFunction,SMDPad,CuDef*%
%ADD30RoundRect,0.140000X0.140000X0.170000X-0.140000X0.170000X-0.140000X-0.170000X0.140000X-0.170000X0*%
%TD*%
%TA.AperFunction,SMDPad,CuDef*%
%ADD31RoundRect,0.135000X-0.185000X0.135000X-0.185000X-0.135000X0.185000X-0.135000X0.185000X0.135000X0*%
%TD*%
%TA.AperFunction,SMDPad,CuDef*%
%ADD32RoundRect,0.225000X0.250000X-0.225000X0.250000X0.225000X-0.250000X0.225000X-0.250000X-0.225000X0*%
%TD*%
%TA.AperFunction,SMDPad,CuDef*%
%ADD33RoundRect,0.225000X0.225000X0.250000X-0.225000X0.250000X-0.225000X-0.250000X0.225000X-0.250000X0*%
%TD*%
%TA.AperFunction,WasherPad*%
%ADD34O,2.159000X1.168400*%
%TD*%
%TA.AperFunction,WasherPad*%
%ADD35O,2.667000X1.168400*%
%TD*%
%TA.AperFunction,SMDPad,CuDef*%
%ADD36R,0.762000X0.330200*%
%TD*%
%TA.AperFunction,SMDPad,CuDef*%
%ADD37R,0.762000X1.041400*%
%TD*%
%TA.AperFunction,SMDPad,CuDef*%
%ADD38RoundRect,0.062500X0.375000X0.062500X-0.375000X0.062500X-0.375000X-0.062500X0.375000X-0.062500X0*%
%TD*%
%TA.AperFunction,SMDPad,CuDef*%
%ADD39RoundRect,0.062500X0.062500X0.375000X-0.062500X0.375000X-0.062500X-0.375000X0.062500X-0.375000X0*%
%TD*%
%TA.AperFunction,HeatsinkPad*%
%ADD40R,3.450000X3.450000*%
%TD*%
%TA.AperFunction,SMDPad,CuDef*%
%ADD41R,1.200000X1.400000*%
%TD*%
%TA.AperFunction,SMDPad,CuDef*%
%ADD42FreePoly0,180.000000*%
%TD*%
%TA.AperFunction,SMDPad,CuDef*%
%ADD43R,1.000000X1.500000*%
%TD*%
%TA.AperFunction,SMDPad,CuDef*%
%ADD44FreePoly1,180.000000*%
%TD*%
%TA.AperFunction,SMDPad,CuDef*%
%ADD45R,0.508000X0.508000*%
%TD*%
%TA.AperFunction,SMDPad,CuDef*%
%ADD46RoundRect,0.075000X-0.362500X-0.075000X0.362500X-0.075000X0.362500X0.075000X-0.362500X0.075000X0*%
%TD*%
%TA.AperFunction,HeatsinkPad*%
%ADD47R,1.600000X2.400000*%
%TD*%
%TA.AperFunction,ViaPad*%
%ADD48C,0.600000*%
%TD*%
%TA.AperFunction,ViaPad*%
%ADD49C,0.500000*%
%TD*%
%TA.AperFunction,Conductor*%
%ADD50C,0.254000*%
%TD*%
%TA.AperFunction,Conductor*%
%ADD51C,0.127000*%
%TD*%
%TA.AperFunction,Conductor*%
%ADD52C,0.200000*%
%TD*%
G04 APERTURE END LIST*
D10*
%TA.AperFunction,EtchedComponent*%
%TO.C,JP1*%
G36*
X178450000Y-105800000D02*
G01*
X177950000Y-105800000D01*
X177950000Y-105400000D01*
X178450000Y-105400000D01*
X178450000Y-105800000D01*
G37*
%TD.AperFunction*%
%TA.AperFunction,EtchedComponent*%
G36*
X178450000Y-106600000D02*
G01*
X177950000Y-106600000D01*
X177950000Y-106200000D01*
X178450000Y-106200000D01*
X178450000Y-106600000D01*
G37*
%TD.AperFunction*%
%TD*%
D11*
%TO.P,U2,1,IN*%
%TO.N,+12V*%
X207151000Y-109428000D03*
D12*
%TO.P,U2,2,GND*%
%TO.N,GND*%
X204851000Y-116078000D03*
D11*
%TO.P,U2,3,OUT*%
%TO.N,/Power/PRE_OUT*%
X202551000Y-109428000D03*
%TD*%
D13*
%TO.P,D7,1,K*%
%TO.N,Net-(J3-Pin_4)*%
X206830000Y-103255500D03*
%TO.P,D7,2,K*%
%TO.N,Net-(J3-Pin_3)*%
X208730000Y-103255500D03*
%TO.P,D7,3,A*%
%TO.N,GND*%
X207780000Y-101380500D03*
%TD*%
D14*
%TO.P,D5,1,K*%
%TO.N,VCC*%
X199144000Y-113112000D03*
%TO.P,D5,2,A*%
%TO.N,/Power/PRE_OUT*%
X199144000Y-109812000D03*
%TD*%
D15*
%TO.P,C22,1*%
%TO.N,VIN_MEAS*%
X181646000Y-115526000D03*
%TO.P,C22,2*%
%TO.N,GND*%
X182606000Y-115526000D03*
%TD*%
D16*
%TO.P,U4,1,GND*%
%TO.N,GND*%
X191721500Y-110556000D03*
%TO.P,U4,2,VO*%
%TO.N,3V3*%
X191721500Y-112456000D03*
%TO.P,U4,3,VI*%
%TO.N,VCC*%
X193596500Y-111506000D03*
%TD*%
%TO.P,D9,1,K*%
%TO.N,TB_CLK*%
X175850500Y-108860000D03*
%TO.P,D9,2,K*%
%TO.N,TB_MOSI*%
X175850500Y-110760000D03*
%TO.P,D9,3,A*%
%TO.N,GND*%
X177725500Y-109810000D03*
%TD*%
D17*
%TO.P,C9,1*%
%TO.N,GND*%
X203860400Y-98066800D03*
%TO.P,C9,2*%
%TO.N,/STM32/OSC_IN*%
X203860400Y-97106800D03*
%TD*%
D18*
%TO.P,U8,1,VCCA*%
%TO.N,3V3*%
X188058300Y-99981001D03*
%TO.P,U8,2,SCLA*%
%TO.N,TOF_SCL*%
X188058300Y-100630999D03*
%TO.P,U8,3,SDAA*%
%TO.N,TOF_SDA*%
X188058300Y-101281001D03*
%TO.P,U8,4,GND*%
%TO.N,GND*%
X188058300Y-101930999D03*
%TO.P,U8,5,EN*%
%TO.N,Net-(U8-EN)*%
X192401700Y-101930999D03*
%TO.P,U8,6,SDAB*%
%TO.N,TOF_SDA_2V8*%
X192401700Y-101281001D03*
%TO.P,U8,7,SCLB*%
%TO.N,TOF_SCL_2V8*%
X192401700Y-100630999D03*
%TO.P,U8,8,VCCB*%
%TO.N,2V8*%
X192401700Y-99981001D03*
%TD*%
D19*
%TO.P,C8,1*%
%TO.N,BOOT*%
X203716000Y-99806000D03*
%TO.P,C8,2*%
%TO.N,GND*%
X203716000Y-100766000D03*
%TD*%
D20*
%TO.P,J3,1,Pin_1*%
%TO.N,VIN*%
X212550000Y-103000000D03*
D21*
%TO.P,J3,2,Pin_2*%
%TO.N,GND*%
X212550000Y-101000000D03*
%TO.P,J3,3,Pin_3*%
%TO.N,Net-(J3-Pin_3)*%
X212550000Y-99000000D03*
%TO.P,J3,4,Pin_4*%
%TO.N,Net-(J3-Pin_4)*%
X212550000Y-97000000D03*
%TD*%
D22*
%TO.P,D6,1,K*%
%TO.N,VIN_MEAS*%
X185046000Y-117558000D03*
%TO.P,D6,2,A*%
%TO.N,GND*%
X181746000Y-117558000D03*
%TD*%
D23*
%TO.P,C28,1*%
%TO.N,3V3*%
X188984000Y-111303000D03*
%TO.P,C28,2*%
%TO.N,GND*%
X188984000Y-112853000D03*
%TD*%
D24*
%TO.P,J4,1,Pin_1*%
%TO.N,GND*%
X172000000Y-107000000D03*
D21*
%TO.P,J4,2,Pin_2*%
%TO.N,TB_CLK*%
X172000000Y-109000000D03*
%TO.P,J4,3,Pin_3*%
%TO.N,TB_MOSI*%
X172000000Y-111000000D03*
%TO.P,J4,4,Pin_4*%
%TO.N,TB_CS*%
X172000000Y-113000000D03*
%TO.P,J4,5,Pin_5*%
%TO.N,TB_ABS*%
X172000000Y-115000000D03*
%TO.P,J4,6,Pin_6*%
%TO.N,Net-(J4-Pin_6)*%
X172000000Y-117000000D03*
%TD*%
D15*
%TO.P,C23,1*%
%TO.N,VCC*%
X201966000Y-106636000D03*
%TO.P,C23,2*%
%TO.N,GND*%
X202926000Y-106636000D03*
%TD*%
D25*
%TO.P,R23,1*%
%TO.N,2V8*%
X196352000Y-101048000D03*
%TO.P,R23,2*%
%TO.N,TOF_SDA_2V8*%
X195332000Y-101048000D03*
%TD*%
D26*
%TO.P,R7,1*%
%TO.N,NRST*%
X199261000Y-90932000D03*
%TO.P,R7,2*%
%TO.N,3V3*%
X200281000Y-90932000D03*
%TD*%
%TO.P,R9,1*%
%TO.N,Net-(D3-A)*%
X212443500Y-91567000D03*
%TO.P,R9,2*%
%TO.N,3V3*%
X213463500Y-91567000D03*
%TD*%
D27*
%TO.P,C1,1*%
%TO.N,3V3*%
X199504000Y-92964000D03*
%TO.P,C1,2*%
%TO.N,GND*%
X201054000Y-92964000D03*
%TD*%
D28*
%TO.P,D2,1,K*%
%TO.N,LED1*%
X209372000Y-93345000D03*
%TO.P,D2,2,A*%
%TO.N,Net-(D2-A)*%
X210947000Y-93345000D03*
%TD*%
D23*
%TO.P,C17,1*%
%TO.N,2V8*%
X188984000Y-116167000D03*
%TO.P,C17,2*%
%TO.N,GND*%
X188984000Y-117717000D03*
%TD*%
D22*
%TO.P,D1,1,K*%
%TO.N,VCC*%
X183895000Y-101838000D03*
%TO.P,D1,2,A*%
%TO.N,Net-(D1-A)*%
X180595000Y-101838000D03*
%TD*%
D25*
%TO.P,R17,1*%
%TO.N,VIN_MEAS*%
X185176000Y-115526000D03*
%TO.P,R17,2*%
%TO.N,GND*%
X184156000Y-115526000D03*
%TD*%
D23*
%TO.P,C15,1*%
%TO.N,VCC*%
X196350000Y-116167000D03*
%TO.P,C15,2*%
%TO.N,GND*%
X196350000Y-117717000D03*
%TD*%
D26*
%TO.P,R8,1*%
%TO.N,Net-(D2-A)*%
X212443500Y-93345000D03*
%TO.P,R8,2*%
%TO.N,3V3*%
X213463500Y-93345000D03*
%TD*%
D25*
%TO.P,R22,1*%
%TO.N,2V8*%
X196352000Y-102318000D03*
%TO.P,R22,2*%
%TO.N,Net-(U8-EN)*%
X195332000Y-102318000D03*
%TD*%
D29*
%TO.P,U1,1,I/O1*%
%TO.N,Net-(J5-D+-PadA6)*%
X180345500Y-97713000D03*
%TO.P,U1,2,GND*%
%TO.N,GND*%
X180345500Y-98663000D03*
%TO.P,U1,3,I/O2*%
%TO.N,Net-(J5-D--PadA7)*%
X180345500Y-99613000D03*
%TO.P,U1,4,I/O2*%
%TO.N,Net-(R5-Pad1)*%
X182620500Y-99613000D03*
%TO.P,U1,5,VBUS*%
%TO.N,VCC*%
X182620500Y-98663000D03*
%TO.P,U1,6,I/O1*%
%TO.N,Net-(R4-Pad1)*%
X182620500Y-97713000D03*
%TD*%
D30*
%TO.P,C24,1*%
%TO.N,3V3*%
X205212000Y-106636000D03*
%TO.P,C24,2*%
%TO.N,GND*%
X204252000Y-106636000D03*
%TD*%
D25*
%TO.P,R21,1*%
%TO.N,2V8*%
X196352000Y-99778000D03*
%TO.P,R21,2*%
%TO.N,TOF_SCL_2V8*%
X195332000Y-99778000D03*
%TD*%
D31*
%TO.P,R3,1*%
%TO.N,BOOT*%
X202446000Y-99776000D03*
%TO.P,R3,2*%
%TO.N,GND*%
X202446000Y-100796000D03*
%TD*%
D16*
%TO.P,Q2,1,G*%
%TO.N,GND*%
X210771500Y-107508000D03*
%TO.P,Q2,2,S*%
%TO.N,+12V*%
X210771500Y-109408000D03*
%TO.P,Q2,3,D*%
%TO.N,VIN*%
X212646500Y-108458000D03*
%TD*%
%TO.P,U3,1,GND*%
%TO.N,GND*%
X191721500Y-115763000D03*
%TO.P,U3,2,VO*%
%TO.N,2V8*%
X191721500Y-117663000D03*
%TO.P,U3,3,VI*%
%TO.N,VCC*%
X193596500Y-116713000D03*
%TD*%
D26*
%TO.P,R16,1*%
%TO.N,+12V*%
X184156000Y-114256000D03*
%TO.P,R16,2*%
%TO.N,VIN_MEAS*%
X185176000Y-114256000D03*
%TD*%
D32*
%TO.P,C27,1*%
%TO.N,VCC*%
X196350000Y-112853000D03*
%TO.P,C27,2*%
%TO.N,GND*%
X196350000Y-111303000D03*
%TD*%
D33*
%TO.P,C4,1*%
%TO.N,GND*%
X182131000Y-104124000D03*
%TO.P,C4,2*%
%TO.N,Net-(D1-A)*%
X180581000Y-104124000D03*
%TD*%
D28*
%TO.P,D3,1,K*%
%TO.N,LED2*%
X209372000Y-91567000D03*
%TO.P,D3,2,A*%
%TO.N,Net-(D3-A)*%
X210947000Y-91567000D03*
%TD*%
D34*
%TO.P,J5,*%
%TO.N,*%
X177360700Y-93679998D03*
D35*
X172000700Y-93679998D03*
D34*
X177360700Y-102320002D03*
D35*
X172000700Y-102320002D03*
D36*
%TO.P,J5,A1,GND*%
%TO.N,GND*%
X177739701Y-95000000D03*
%TO.P,J5,A2,TX1+*%
%TO.N,unconnected-(J5-TX1+-PadA2)*%
X177739701Y-95499999D03*
%TO.P,J5,A3,TX1-*%
%TO.N,unconnected-(J5-TX1--PadA3)*%
X177739701Y-96000001D03*
%TO.P,J5,A4,VBUS*%
%TO.N,Net-(D1-A)*%
X177739701Y-96500000D03*
%TO.P,J5,A5,CC1*%
%TO.N,unconnected-(J5-CC1-PadA5)*%
X177739701Y-96999999D03*
%TO.P,J5,A6,D+*%
%TO.N,Net-(J5-D+-PadA6)*%
X177739701Y-97500000D03*
%TO.P,J5,A7,D-*%
%TO.N,Net-(J5-D--PadA7)*%
X177739701Y-98500000D03*
%TO.P,J5,A8,SBU1*%
%TO.N,unconnected-(J5-SBU1-PadA8)*%
X177739701Y-99000001D03*
%TO.P,J5,A9,VBUS*%
%TO.N,Net-(D1-A)*%
X177739701Y-99500000D03*
%TO.P,J5,A10,RX2-*%
%TO.N,unconnected-(J5-RX2--PadA10)*%
X177739701Y-99999999D03*
%TO.P,J5,A11,RX2+*%
%TO.N,unconnected-(J5-RX2+-PadA11)*%
X177739701Y-100500001D03*
%TO.P,J5,A12,GND*%
%TO.N,GND*%
X177739701Y-101000000D03*
D37*
%TO.P,J5,B1,GND*%
X176439699Y-101100000D03*
D36*
%TO.P,J5,B2,TX2+*%
%TO.N,unconnected-(J5-TX2+-PadB2)*%
X176439699Y-100250001D03*
%TO.P,J5,B3,TX2-*%
%TO.N,unconnected-(J5-TX2--PadB3)*%
X176439699Y-99749999D03*
%TO.P,J5,B4,VBUS*%
%TO.N,Net-(D1-A)*%
X176439699Y-99250000D03*
%TO.P,J5,B5,CC2*%
%TO.N,unconnected-(J5-CC2-PadB5)*%
X176439699Y-98750001D03*
%TO.P,J5,B6,D+*%
%TO.N,Net-(J5-D+-PadA6)*%
X176439699Y-98250000D03*
%TO.P,J5,B7,D-*%
%TO.N,Net-(J5-D--PadA7)*%
X176439699Y-97750000D03*
%TO.P,J5,B8,SBU2*%
%TO.N,unconnected-(J5-SBU2-PadB8)*%
X176439699Y-97249999D03*
%TO.P,J5,B9,VBUS*%
%TO.N,Net-(D1-A)*%
X176439699Y-96750000D03*
%TO.P,J5,B10,RX1-*%
%TO.N,unconnected-(J5-RX1--PadB10)*%
X176439699Y-96250001D03*
%TO.P,J5,B11,RX1+*%
%TO.N,unconnected-(J5-RX1+-PadB11)*%
X176439699Y-95749999D03*
D37*
%TO.P,J5,B12,GND*%
%TO.N,GND*%
X176439699Y-94900000D03*
%TD*%
D26*
%TO.P,R5,1*%
%TO.N,Net-(R5-Pad1)*%
X184529000Y-99298000D03*
%TO.P,R5,2*%
%TO.N,DM*%
X185549000Y-99298000D03*
%TD*%
D38*
%TO.P,U9,1,PB9*%
%TO.N,CAN_TX*%
X197172300Y-96492000D03*
%TO.P,U9,2,PC14*%
%TO.N,/STM32/OSC_IN*%
X197172300Y-95992000D03*
%TO.P,U9,3,PC15*%
%TO.N,Net-(U9-PC15)*%
X197172300Y-95492000D03*
%TO.P,U9,4,VDD*%
%TO.N,3V3*%
X197172300Y-94992000D03*
%TO.P,U9,5,VSS*%
%TO.N,GND*%
X197172300Y-94492000D03*
%TO.P,U9,6,PF2*%
%TO.N,NRST*%
X197172300Y-93992000D03*
%TO.P,U9,7,PA0*%
%TO.N,VIN_MEAS*%
X197172300Y-93492000D03*
%TO.P,U9,8,PA1*%
%TO.N,LED1*%
X197172300Y-92992000D03*
D39*
%TO.P,U9,9,PA2*%
%TO.N,BOOT*%
X196484800Y-92304500D03*
%TO.P,U9,10,PA3*%
%TO.N,CAN_STB*%
X195984800Y-92304500D03*
%TO.P,U9,11,PA4*%
%TO.N,unconnected-(U9-PA4-Pad11)*%
X195484800Y-92304500D03*
%TO.P,U9,12,PA5*%
%TO.N,unconnected-(U9-PA5-Pad12)*%
X194984800Y-92304500D03*
%TO.P,U9,13,PA6*%
%TO.N,TOF_SDA*%
X194484800Y-92304500D03*
%TO.P,U9,14,PA7*%
%TO.N,unconnected-(U9-PA7-Pad14)*%
X193984800Y-92304500D03*
%TO.P,U9,15,PB0*%
%TO.N,TOF_INT*%
X193484800Y-92304500D03*
%TO.P,U9,16,PB1*%
%TO.N,TOF_XSHUT*%
X192984800Y-92304500D03*
D38*
%TO.P,U9,17,PB2*%
%TO.N,unconnected-(U9-PB2-Pad17)*%
X192297300Y-92992000D03*
%TO.P,U9,18,PA8*%
%TO.N,LED2*%
X192297300Y-93492000D03*
%TO.P,U9,19,PA9/UCPD1_DBCC1*%
%TO.N,TOF_SCL*%
X192297300Y-93992000D03*
%TO.P,U9,20,PC6*%
%TO.N,TB_CS*%
X192297300Y-94492000D03*
%TO.P,U9,21,PA10/UCPD1_DBCC2*%
%TO.N,unconnected-(U9-PA10{slash}UCPD1_DBCC2-Pad21)*%
X192297300Y-94992000D03*
%TO.P,U9,22,PA9/PA11*%
%TO.N,DM*%
X192297300Y-95492000D03*
%TO.P,U9,23,PA10/PA12*%
%TO.N,DP*%
X192297300Y-95992000D03*
%TO.P,U9,24,PA13*%
%TO.N,SWDIO*%
X192297300Y-96492000D03*
D39*
%TO.P,U9,25,PA14*%
%TO.N,BOOT*%
X192984800Y-97179500D03*
%TO.P,U9,26,PA15*%
%TO.N,TB_CS*%
X193484800Y-97179500D03*
%TO.P,U9,27,PB3*%
%TO.N,TB_CLK*%
X193984800Y-97179500D03*
%TO.P,U9,28,PB4*%
%TO.N,TB_ABS*%
X194484800Y-97179500D03*
%TO.P,U9,29,PB5*%
%TO.N,TB_MOSI*%
X194984800Y-97179500D03*
%TO.P,U9,30,PB6*%
%TO.N,TB_ABS*%
X195484800Y-97179500D03*
%TO.P,U9,31,PB7*%
%TO.N,unconnected-(U9-PB7-Pad31)*%
X195984800Y-97179500D03*
%TO.P,U9,32,PB8*%
%TO.N,CAN_RX*%
X196484800Y-97179500D03*
D40*
%TO.P,U9,33,VSS*%
%TO.N,GND*%
X194734800Y-94742000D03*
%TD*%
D26*
%TO.P,R19,1*%
%TO.N,2V8*%
X187196000Y-106045000D03*
%TO.P,R19,2*%
%TO.N,TOF_XSHUT*%
X188216000Y-106045000D03*
%TD*%
D15*
%TO.P,C2,1*%
%TO.N,3V3*%
X200188000Y-98254000D03*
%TO.P,C2,2*%
%TO.N,GND*%
X201148000Y-98254000D03*
%TD*%
D16*
%TO.P,D8,1,K*%
%TO.N,TB_CS*%
X175850500Y-112924000D03*
%TO.P,D8,2,K*%
%TO.N,TB_ABS*%
X175850500Y-114824000D03*
%TO.P,D8,3,A*%
%TO.N,GND*%
X177725500Y-113874000D03*
%TD*%
D41*
%TO.P,Y1,1,1*%
%TO.N,/STM32/OSC_OUT*%
X203150000Y-92900000D03*
%TO.P,Y1,2,2*%
%TO.N,unconnected-(Y1-Pad2)*%
X203150000Y-95100000D03*
%TO.P,Y1,3,3*%
%TO.N,/STM32/OSC_IN*%
X204850000Y-95100000D03*
%TO.P,Y1,4,4*%
%TO.N,unconnected-(Y1-Pad4)*%
X204850000Y-92900000D03*
%TD*%
D26*
%TO.P,R4,1*%
%TO.N,Net-(R4-Pad1)*%
X184529000Y-97901000D03*
%TO.P,R4,2*%
%TO.N,DP*%
X185549000Y-97901000D03*
%TD*%
D42*
%TO.P,JP1,1,A*%
%TO.N,3V3*%
X178850000Y-106000000D03*
D43*
%TO.P,JP1,2,C*%
%TO.N,Net-(J4-Pin_6)*%
X177550000Y-106000000D03*
D44*
%TO.P,JP1,3,B*%
%TO.N,VCC*%
X176250000Y-106000000D03*
%TD*%
D15*
%TO.P,C25,1*%
%TO.N,2V8*%
X196378000Y-106890000D03*
%TO.P,C25,2*%
%TO.N,GND*%
X197338000Y-106890000D03*
%TD*%
D26*
%TO.P,R6,1*%
%TO.N,Net-(U9-PC15)*%
X199261000Y-96012000D03*
%TO.P,R6,2*%
%TO.N,/STM32/OSC_OUT*%
X200281000Y-96012000D03*
%TD*%
D45*
%TO.P,U7,1,AVDDVCSEL*%
%TO.N,2V8*%
X193599999Y-105799973D03*
%TO.P,U7,2,AVSSVCSEL*%
%TO.N,GND*%
X192800001Y-105799973D03*
%TO.P,U7,3,GND*%
X192000000Y-105799973D03*
%TO.P,U7,4,GND2*%
X191199999Y-105799973D03*
%TO.P,U7,5,XSHUT*%
%TO.N,TOF_XSHUT*%
X190400001Y-105799973D03*
%TO.P,U7,6,GND3*%
%TO.N,GND*%
X190400054Y-105000000D03*
%TO.P,U7,7,GPIO1*%
%TO.N,TOF_INT*%
X190400001Y-104200027D03*
%TO.P,U7,8,DNC*%
%TO.N,unconnected-(U7-DNC-Pad8)*%
X191199999Y-104200027D03*
%TO.P,U7,9,SDA*%
%TO.N,TOF_SDA_2V8*%
X192000000Y-104200027D03*
%TO.P,U7,10,SCL*%
%TO.N,TOF_SCL_2V8*%
X192800001Y-104200027D03*
%TO.P,U7,11,AVDD*%
%TO.N,2V8*%
X193599999Y-104200027D03*
%TO.P,U7,12,GND4*%
%TO.N,GND*%
X193599946Y-105000000D03*
%TD*%
D23*
%TO.P,C16,1*%
%TO.N,+12V*%
X211082000Y-111195000D03*
%TO.P,C16,2*%
%TO.N,GND*%
X211082000Y-112745000D03*
%TD*%
D25*
%TO.P,R2,1*%
%TO.N,3V3*%
X206512000Y-99016000D03*
%TO.P,R2,2*%
%TO.N,Net-(R2-Pad2)*%
X205492000Y-99016000D03*
%TD*%
D27*
%TO.P,C26,1*%
%TO.N,2V8*%
X196591000Y-105366000D03*
%TO.P,C26,2*%
%TO.N,GND*%
X198141000Y-105366000D03*
%TD*%
D31*
%TO.P,R18,1*%
%TO.N,Net-(J3-Pin_4)*%
X208940400Y-97330800D03*
%TO.P,R18,2*%
%TO.N,Net-(J3-Pin_3)*%
X208940400Y-98350800D03*
%TD*%
D30*
%TO.P,C10,1*%
%TO.N,GND*%
X204137200Y-90932000D03*
%TO.P,C10,2*%
%TO.N,/STM32/OSC_OUT*%
X203177200Y-90932000D03*
%TD*%
D26*
%TO.P,R20,1*%
%TO.N,2V8*%
X187204000Y-104731000D03*
%TO.P,R20,2*%
%TO.N,TOF_INT*%
X188224000Y-104731000D03*
%TD*%
D23*
%TO.P,C20,1*%
%TO.N,/Power/PRE_OUT*%
X200160000Y-115005000D03*
%TO.P,C20,2*%
%TO.N,GND*%
X200160000Y-116555000D03*
%TD*%
D15*
%TO.P,C3,1*%
%TO.N,3V3*%
X199291000Y-94488000D03*
%TO.P,C3,2*%
%TO.N,GND*%
X200251000Y-94488000D03*
%TD*%
D46*
%TO.P,U6,1,TXD*%
%TO.N,CAN_TX*%
X202024500Y-102867000D03*
%TO.P,U6,2,GND*%
%TO.N,GND*%
X202024500Y-103517000D03*
%TO.P,U6,3,VCC*%
%TO.N,VCC*%
X202024500Y-104167000D03*
%TO.P,U6,4,RXD*%
%TO.N,CAN_RX*%
X202024500Y-104817000D03*
%TO.P,U6,5,VIO*%
%TO.N,3V3*%
X204899500Y-104817000D03*
%TO.P,U6,6,CANL*%
%TO.N,Net-(J3-Pin_3)*%
X204899500Y-104167000D03*
%TO.P,U6,7,CANH*%
%TO.N,Net-(J3-Pin_4)*%
X204899500Y-103517000D03*
%TO.P,U6,8,~{STB}*%
%TO.N,CAN_STB*%
X204899500Y-102867000D03*
D47*
%TO.P,U6,9*%
%TO.N,N/C*%
X203462000Y-103842000D03*
%TD*%
D48*
%TO.N,GND*%
X204470000Y-107696000D03*
X203454000Y-105918000D03*
X213995000Y-111252000D03*
X207780000Y-105918000D03*
X202184000Y-97586800D03*
X209169000Y-95758000D03*
X172720000Y-95885000D03*
X172720000Y-99568000D03*
X176276000Y-116840000D03*
X181991000Y-106807000D03*
X188468000Y-114554000D03*
X194310000Y-113792000D03*
X204851000Y-118123000D03*
X206883000Y-118123000D03*
X202438000Y-118110000D03*
X204851000Y-115837000D03*
X206883000Y-115837000D03*
X202438000Y-115824000D03*
X206883000Y-113678000D03*
X204851000Y-113678000D03*
X202438000Y-113665000D03*
X198247000Y-115189000D03*
D49*
%TO.N,3V3*%
X199771000Y-95250000D03*
X185435000Y-109860500D03*
X188976000Y-109982000D03*
X206375000Y-96901000D03*
X206375000Y-105283000D03*
X200304400Y-99212400D03*
X187706000Y-94488000D03*
X206375000Y-106299000D03*
X214376000Y-91567000D03*
X178947284Y-107753837D03*
X200202800Y-91846400D03*
X214503000Y-93472000D03*
X190410890Y-100383309D03*
%TO.N,GND*%
X200787000Y-103380500D03*
X199141500Y-104775000D03*
X212344000Y-113233200D03*
X182499000Y-94488000D03*
X201168000Y-93929200D03*
X186182000Y-91313000D03*
X202266513Y-98803500D03*
X201422000Y-100965000D03*
X182626000Y-114681000D03*
X194734800Y-94742000D03*
X205181200Y-90750000D03*
X194734800Y-94742000D03*
X197866000Y-118237000D03*
X194734800Y-94742000D03*
X209143600Y-107391200D03*
D48*
X190246000Y-109347000D03*
D49*
X192786000Y-107188000D03*
X179070000Y-94996000D03*
X198501000Y-94478500D03*
X194734800Y-94742000D03*
X179324000Y-101092000D03*
X188595000Y-118999000D03*
X184912000Y-94488000D03*
X197449500Y-108230199D03*
X183319162Y-104788691D03*
D48*
X190246000Y-114300000D03*
D49*
X194734800Y-94742000D03*
X187706000Y-113284000D03*
X178181000Y-112649000D03*
X194734800Y-94742000D03*
X195326000Y-105029000D03*
X189369000Y-105029000D03*
X203090828Y-98803500D03*
X208127600Y-99822000D03*
X199034400Y-117805200D03*
X179070000Y-98298000D03*
X194734800Y-94742000D03*
X192024000Y-107188000D03*
X178904007Y-108452500D03*
X186055000Y-101981000D03*
X180213000Y-117729000D03*
X191135000Y-107188000D03*
X195834000Y-110109000D03*
X203835000Y-101600000D03*
%TO.N,BOOT*%
X204724000Y-99822000D03*
X184794834Y-111735035D03*
X185039000Y-100584000D03*
X184802194Y-96248806D03*
X187706000Y-97005500D03*
%TO.N,VCC*%
X176276000Y-104013000D03*
X195199000Y-109220000D03*
X200533000Y-106553000D03*
X183896000Y-103378000D03*
X200533000Y-104140000D03*
D48*
X183916566Y-110744000D03*
D49*
%TO.N,+12V*%
X184144500Y-113284000D03*
X209804000Y-111125000D03*
%TO.N,VIN_MEAS*%
X185922500Y-116328015D03*
X198114500Y-93218000D03*
%TO.N,LED1*%
X207899000Y-94361000D03*
X198114500Y-92517997D03*
%TO.N,LED2*%
X191394500Y-93345000D03*
X207772000Y-91694000D03*
%TO.N,TB_MOSI*%
X196410300Y-99008000D03*
%TO.N,SWDIO*%
X187071000Y-96520000D03*
%TO.N,NRST*%
X198069200Y-90750000D03*
%TO.N,TB_CLK*%
X183261000Y-112014000D03*
X191135000Y-98933000D03*
X183175111Y-110631092D03*
%TO.N,TB_CS*%
X189103000Y-94742000D03*
X183250883Y-109886573D03*
X189611000Y-99441000D03*
X188849000Y-97663000D03*
X177648999Y-111862999D03*
%TO.N,Net-(R2-Pad2)*%
X204597000Y-99060000D03*
%TO.N,DM*%
X186354600Y-97073600D03*
X186436000Y-95504000D03*
%TO.N,2V8*%
X186952000Y-114764000D03*
%TO.N,TOF_INT*%
X188341000Y-103632000D03*
X190251500Y-91699500D03*
%TO.N,TOF_XSHUT*%
X188341000Y-107061000D03*
X190881000Y-92202000D03*
%TO.N,TOF_SCL*%
X188341000Y-93980000D03*
X187714000Y-98000000D03*
%TO.N,TOF_SDA*%
X194437000Y-91186000D03*
X186049500Y-100203000D03*
%TO.N,CAN_STB*%
X195961000Y-91186000D03*
X206883000Y-90750000D03*
%TO.N,TOF_SDA_2V8*%
X190053687Y-101629513D03*
X191135000Y-101346000D03*
%TO.N,Net-(J5-D--PadA7)*%
X178988000Y-99613000D03*
X175387000Y-97790000D03*
%TO.N,Net-(J4-Pin_6)*%
X174498000Y-107569000D03*
%TO.N,TB_ABS*%
X180467000Y-118745000D03*
X197449500Y-104345153D03*
X186436000Y-117094000D03*
X185928000Y-108712000D03*
X191014137Y-100028208D03*
%TD*%
D50*
%TO.N,+12V*%
X210771500Y-109408000D02*
X210771500Y-110884500D01*
X210771500Y-110884500D02*
X211082000Y-111195000D01*
%TO.N,VCC*%
X193596500Y-111506000D02*
X195199000Y-109903500D01*
X195199000Y-109903500D02*
X195199000Y-109220000D01*
D51*
%TO.N,GND*%
X204252000Y-106636000D02*
X204252000Y-107478000D01*
X204252000Y-107478000D02*
X204470000Y-107696000D01*
X202926000Y-106636000D02*
X202926000Y-106446000D01*
X202926000Y-106446000D02*
X203454000Y-105918000D01*
D50*
%TO.N,/Power/PRE_OUT*%
X200160000Y-115005000D02*
X200160000Y-114165000D01*
X200160000Y-114165000D02*
X200533000Y-113792000D01*
X200533000Y-113792000D02*
X200533000Y-109428000D01*
X202551000Y-109428000D02*
X200533000Y-109428000D01*
X200533000Y-109428000D02*
X199528000Y-109428000D01*
X199528000Y-109428000D02*
X199144000Y-109812000D01*
%TO.N,+12V*%
X210771500Y-109408000D02*
X207171000Y-109408000D01*
X207171000Y-109408000D02*
X207151000Y-109428000D01*
D51*
%TO.N,3V3*%
X199504000Y-92964000D02*
X199504000Y-92545200D01*
X214376000Y-93345000D02*
X214503000Y-93472000D01*
X199504000Y-92545200D02*
X200202800Y-91846400D01*
X178850000Y-106000000D02*
X178850000Y-107656553D01*
X199291000Y-94488000D02*
X199291000Y-93177000D01*
X204899500Y-104817000D02*
X205909000Y-104817000D01*
X213463500Y-91567000D02*
X214376000Y-91567000D01*
X213463500Y-93345000D02*
X214376000Y-93345000D01*
X199291000Y-94770000D02*
X199771000Y-95250000D01*
X200281000Y-91768200D02*
X200202800Y-91846400D01*
X199291000Y-93177000D02*
X199504000Y-92964000D01*
X200188000Y-99096000D02*
X200304400Y-99212400D01*
X206512000Y-97038000D02*
X206375000Y-96901000D01*
X205909000Y-104817000D02*
X206375000Y-105283000D01*
D50*
X188984000Y-109990000D02*
X188976000Y-109982000D01*
D51*
X206038000Y-106636000D02*
X206375000Y-106299000D01*
X198787000Y-94992000D02*
X199291000Y-94488000D01*
X188058300Y-99981001D02*
X190008582Y-99981001D01*
X200281000Y-90932000D02*
X200281000Y-91768200D01*
D52*
X190137000Y-112456000D02*
X188984000Y-111303000D01*
D51*
X178850000Y-107656553D02*
X178947284Y-107753837D01*
X190008582Y-99981001D02*
X190410890Y-100383309D01*
X200188000Y-98254000D02*
X200188000Y-99096000D01*
D52*
X191721500Y-112456000D02*
X190137000Y-112456000D01*
D51*
X197172300Y-94992000D02*
X198787000Y-94992000D01*
X206512000Y-99016000D02*
X206512000Y-97038000D01*
X199291000Y-94488000D02*
X199291000Y-94770000D01*
X205212000Y-106636000D02*
X206038000Y-106636000D01*
D50*
X188984000Y-111303000D02*
X188984000Y-109990000D01*
D51*
%TO.N,GND*%
X209216400Y-107464000D02*
X209143600Y-107391200D01*
X177639701Y-94900000D02*
X177739701Y-95000000D01*
X189398000Y-105000000D02*
X189369000Y-105029000D01*
X182606000Y-115526000D02*
X182606000Y-114701000D01*
X198257000Y-104775000D02*
X199141500Y-104775000D01*
X201591000Y-100796000D02*
X201422000Y-100965000D01*
X193599946Y-105000000D02*
X195297000Y-105000000D01*
D50*
X191721500Y-115763000D02*
X191709000Y-115763000D01*
D51*
X200160000Y-116679600D02*
X199034400Y-117805200D01*
X177639701Y-101100000D02*
X177739701Y-101000000D01*
X191199999Y-107123001D02*
X191135000Y-107188000D01*
X188058300Y-101930999D02*
X186105001Y-101930999D01*
D52*
X191455000Y-110556000D02*
X190246000Y-109347000D01*
D51*
X201054000Y-92964000D02*
X201054000Y-93815200D01*
X203716000Y-101481000D02*
X203835000Y-101600000D01*
X211082000Y-112745000D02*
X211855800Y-112745000D01*
X203716000Y-100766000D02*
X203716000Y-101481000D01*
X203860400Y-98066800D02*
X203527528Y-98066800D01*
X195297000Y-105000000D02*
X195326000Y-105029000D01*
D50*
X188137000Y-112853000D02*
X187706000Y-113284000D01*
D51*
X198141000Y-105366000D02*
X198141000Y-104891000D01*
X210652500Y-107464000D02*
X209216400Y-107464000D01*
X201054000Y-93815200D02*
X201168000Y-93929200D01*
X184156000Y-115526000D02*
X182606000Y-115526000D01*
X192000000Y-105799973D02*
X192000000Y-107164000D01*
X177743701Y-94996000D02*
X179070000Y-94996000D01*
X197172300Y-94492000D02*
X198487500Y-94492000D01*
X191199999Y-105799973D02*
X191199999Y-107123001D01*
X204999200Y-90932000D02*
X205181200Y-90750000D01*
X178181000Y-113418500D02*
X178181000Y-112649000D01*
X182606000Y-114701000D02*
X182626000Y-114681000D01*
X176439699Y-101100000D02*
X177639701Y-101100000D01*
X180345500Y-98663000D02*
X179435000Y-98663000D01*
X180384000Y-117558000D02*
X180213000Y-117729000D01*
X177739701Y-101000000D02*
X179232000Y-101000000D01*
X197338000Y-106890000D02*
X197338000Y-108118699D01*
X176439699Y-94900000D02*
X177639701Y-94900000D01*
D50*
X188984000Y-112853000D02*
X188137000Y-112853000D01*
D51*
X192000000Y-107164000D02*
X192024000Y-107188000D01*
X202024500Y-103517000D02*
X200923500Y-103517000D01*
X201148000Y-98254000D02*
X201717013Y-98254000D01*
X207780000Y-101380500D02*
X207780000Y-100169600D01*
X192800001Y-105799973D02*
X192800001Y-107173999D01*
X203527528Y-98066800D02*
X203090828Y-98503500D01*
X192800001Y-107173999D02*
X192786000Y-107188000D01*
X207780000Y-100169600D02*
X208127600Y-99822000D01*
X197338000Y-108118699D02*
X197449500Y-108230199D01*
D52*
X191721500Y-110556000D02*
X191455000Y-110556000D01*
D51*
X200923500Y-103517000D02*
X200787000Y-103380500D01*
X198141000Y-104891000D02*
X198257000Y-104775000D01*
D50*
X188984000Y-118610000D02*
X188595000Y-118999000D01*
D51*
X200160000Y-116555000D02*
X200160000Y-116679600D01*
D50*
X197346000Y-117717000D02*
X197866000Y-118237000D01*
D51*
X196350000Y-110625000D02*
X195834000Y-110109000D01*
X179435000Y-98663000D02*
X179070000Y-98298000D01*
X182654471Y-104124000D02*
X183319162Y-104788691D01*
X200251000Y-94488000D02*
X200609200Y-94488000D01*
D50*
X188984000Y-117717000D02*
X188984000Y-118610000D01*
D51*
X201717013Y-98254000D02*
X202266513Y-98803500D01*
X198487500Y-94492000D02*
X198501000Y-94478500D01*
X182131000Y-104124000D02*
X182654471Y-104124000D01*
X200609200Y-94488000D02*
X201168000Y-93929200D01*
X186105001Y-101930999D02*
X186055000Y-101981000D01*
X177725500Y-109810000D02*
X178904007Y-108631493D01*
X190400054Y-105000000D02*
X189398000Y-105000000D01*
X202446000Y-100796000D02*
X201591000Y-100796000D01*
X177739701Y-95000000D02*
X177743701Y-94996000D01*
X204137200Y-90932000D02*
X204999200Y-90932000D01*
X211855800Y-112745000D02*
X212344000Y-113233200D01*
X178904007Y-108631493D02*
X178904007Y-108452500D01*
X196350000Y-111303000D02*
X196350000Y-110625000D01*
X181746000Y-117558000D02*
X180384000Y-117558000D01*
D50*
X196350000Y-117717000D02*
X197346000Y-117717000D01*
D51*
X179232000Y-101000000D02*
X179324000Y-101092000D01*
D50*
X191709000Y-115763000D02*
X190246000Y-114300000D01*
D51*
X177725500Y-113874000D02*
X178181000Y-113418500D01*
X203090828Y-98503500D02*
X203090828Y-98803500D01*
%TO.N,Net-(D1-A)*%
X177739701Y-96500000D02*
X177231701Y-96500000D01*
X174498000Y-99060000D02*
X174688000Y-99250000D01*
X174498000Y-96774000D02*
X174498000Y-99060000D01*
X178314802Y-99500000D02*
X178473500Y-99658698D01*
X178473500Y-99826113D02*
X179224887Y-100577500D01*
X180581000Y-101852000D02*
X180595000Y-101838000D01*
X176981701Y-96750000D02*
X176439699Y-96750000D01*
X177231701Y-96500000D02*
X176981701Y-96750000D01*
X177739701Y-99500000D02*
X178314802Y-99500000D01*
X180595000Y-101238000D02*
X180595000Y-101838000D01*
X176439699Y-96750000D02*
X174522000Y-96750000D01*
X180581000Y-104124000D02*
X180581000Y-101852000D01*
X179224887Y-100577500D02*
X179934500Y-100577500D01*
X178473500Y-99658698D02*
X178473500Y-99826113D01*
X174522000Y-96750000D02*
X174498000Y-96774000D01*
X176947699Y-99250000D02*
X177197699Y-99500000D01*
X176439699Y-99250000D02*
X176947699Y-99250000D01*
X174688000Y-99250000D02*
X176439699Y-99250000D01*
X177197699Y-99500000D02*
X177739701Y-99500000D01*
X179934500Y-100577500D02*
X180595000Y-101238000D01*
%TO.N,BOOT*%
X184785000Y-96266000D02*
X184802194Y-96248806D01*
X192810800Y-97005500D02*
X187706000Y-97005500D01*
X180086000Y-90805000D02*
X180086000Y-95758000D01*
X184658000Y-110328090D02*
X184840500Y-110510590D01*
X180594000Y-96266000D02*
X184785000Y-96266000D01*
X184840500Y-110510590D02*
X184840500Y-111689369D01*
X185039000Y-100584000D02*
X184658000Y-100965000D01*
X203716000Y-99806000D02*
X202476000Y-99806000D01*
X184840500Y-111689369D02*
X184794834Y-111735035D01*
X192984800Y-97179500D02*
X192810800Y-97005500D01*
X196484800Y-90982187D02*
X196174113Y-90671500D01*
X184658000Y-100965000D02*
X184658000Y-110328090D01*
X196484800Y-92304500D02*
X196484800Y-90982187D01*
X204724000Y-99822000D02*
X203732000Y-99822000D01*
X203732000Y-99822000D02*
X203716000Y-99806000D01*
X180219500Y-90671500D02*
X180086000Y-90805000D01*
X180086000Y-95758000D02*
X180594000Y-96266000D01*
X202476000Y-99806000D02*
X202446000Y-99776000D01*
X196174113Y-90671500D02*
X180219500Y-90671500D01*
%TO.N,/STM32/OSC_IN*%
X203860400Y-97106800D02*
X204515600Y-97106800D01*
X204515600Y-97106800D02*
X204848400Y-96774000D01*
X204848400Y-96774000D02*
X204848400Y-95101600D01*
X198628000Y-96723200D02*
X203476800Y-96723200D01*
X203476800Y-96723200D02*
X203860400Y-97106800D01*
X197896800Y-95992000D02*
X198628000Y-96723200D01*
X204848400Y-95101600D02*
X204850000Y-95100000D01*
X197172300Y-95992000D02*
X197896800Y-95992000D01*
%TO.N,/STM32/OSC_OUT*%
X203150000Y-90959200D02*
X203177200Y-90932000D01*
X200281000Y-96012000D02*
X200355200Y-96012000D01*
X203150000Y-93217200D02*
X203150000Y-92900000D01*
X200355200Y-96012000D02*
X203150000Y-93217200D01*
X203150000Y-92900000D02*
X203150000Y-90959200D01*
D50*
%TO.N,VCC*%
X176250000Y-104039000D02*
X176276000Y-104013000D01*
X182620500Y-98663000D02*
X181958001Y-98663000D01*
X183445000Y-101838000D02*
X183895000Y-101838000D01*
D51*
X195453000Y-108966000D02*
X195199000Y-109220000D01*
D50*
X194142500Y-116167000D02*
X193596500Y-116713000D01*
D51*
X197612987Y-108966000D02*
X195453000Y-108966000D01*
D50*
X196609000Y-113112000D02*
X196350000Y-112853000D01*
X181630000Y-100023000D02*
X183445000Y-101838000D01*
D51*
X200616000Y-106636000D02*
X201966000Y-106636000D01*
D50*
X181958001Y-98663000D02*
X181630000Y-98991001D01*
X199144000Y-113112000D02*
X196609000Y-113112000D01*
D51*
X199771000Y-106553000D02*
X198225294Y-108098706D01*
X200533000Y-106553000D02*
X199771000Y-106553000D01*
D50*
X183896000Y-103378000D02*
X183896000Y-109689024D01*
D51*
X198225294Y-108098706D02*
X198225294Y-108353693D01*
D50*
X194818500Y-112728000D02*
X193596500Y-111506000D01*
X196350000Y-114427000D02*
X196350000Y-112853000D01*
X196225000Y-112728000D02*
X194818500Y-112728000D01*
D51*
X200560000Y-104167000D02*
X200533000Y-104140000D01*
D50*
X181630000Y-98991001D02*
X181630000Y-100023000D01*
X183896000Y-109689024D02*
X183916566Y-109709590D01*
X196350000Y-116167000D02*
X196350000Y-114427000D01*
D51*
X198225294Y-108353693D02*
X197612987Y-108966000D01*
D50*
X183896000Y-101839000D02*
X183895000Y-101838000D01*
X176250000Y-106000000D02*
X176250000Y-104039000D01*
X196350000Y-112853000D02*
X196225000Y-112728000D01*
X183896000Y-103378000D02*
X183896000Y-101839000D01*
X183916566Y-109709590D02*
X183916566Y-110744000D01*
D51*
X202024500Y-104167000D02*
X200560000Y-104167000D01*
D50*
X196350000Y-116167000D02*
X194142500Y-116167000D01*
D51*
X200533000Y-106553000D02*
X200616000Y-106636000D01*
%TO.N,+12V*%
X209804000Y-111125000D02*
X209874000Y-111195000D01*
X209874000Y-111195000D02*
X211082000Y-111195000D01*
X184156000Y-113295500D02*
X184144500Y-113284000D01*
X184156000Y-114256000D02*
X184156000Y-113295500D01*
%TO.N,VIN_MEAS*%
X181646000Y-114518000D02*
X183461465Y-112702535D01*
X197840500Y-93492000D02*
X198114500Y-93218000D01*
X185176000Y-112913000D02*
X185176000Y-114256000D01*
X185922500Y-116290447D02*
X185922500Y-116328015D01*
X185046000Y-116205000D02*
X185837053Y-116205000D01*
X181646000Y-115526000D02*
X181646000Y-114518000D01*
X184965535Y-112702535D02*
X185176000Y-112913000D01*
X185837053Y-116205000D02*
X185922500Y-116290447D01*
X185176000Y-115526000D02*
X185176000Y-114256000D01*
X185046000Y-115656000D02*
X185176000Y-115526000D01*
X197172300Y-93492000D02*
X197840500Y-93492000D01*
X183461465Y-112702535D02*
X184965535Y-112702535D01*
X185046000Y-117558000D02*
X185046000Y-116205000D01*
X185046000Y-116205000D02*
X185046000Y-115656000D01*
%TO.N,LED1*%
X208915000Y-93345000D02*
X207899000Y-94361000D01*
X209372000Y-93345000D02*
X208915000Y-93345000D01*
X197646303Y-92517997D02*
X198114500Y-92517997D01*
X197172300Y-92992000D02*
X197646303Y-92517997D01*
%TO.N,Net-(D2-A)*%
X210947000Y-93345000D02*
X212443500Y-93345000D01*
%TO.N,LED2*%
X191541500Y-93492000D02*
X191394500Y-93345000D01*
X192297300Y-93492000D02*
X191541500Y-93492000D01*
X207772000Y-91694000D02*
X207899000Y-91567000D01*
X207899000Y-91567000D02*
X209372000Y-91567000D01*
%TO.N,Net-(D3-A)*%
X210947000Y-91567000D02*
X212443500Y-91567000D01*
%TO.N,Net-(J3-Pin_3)*%
X208940400Y-98350800D02*
X211900800Y-98350800D01*
X211900800Y-98350800D02*
X212550000Y-99000000D01*
X208730000Y-103255500D02*
X208730000Y-98561200D01*
X208737200Y-104343200D02*
X208730000Y-104336000D01*
X208737200Y-104444800D02*
X208737200Y-104343200D01*
X205447004Y-104444800D02*
X208737200Y-104444800D01*
X208730000Y-98561200D02*
X208940400Y-98350800D01*
X205169204Y-104167000D02*
X205447004Y-104444800D01*
X204899500Y-104167000D02*
X205169204Y-104167000D01*
X208730000Y-104336000D02*
X208730000Y-103255500D01*
%TO.N,Net-(J3-Pin_4)*%
X204899500Y-103517000D02*
X206568500Y-103517000D01*
X206830000Y-103255500D02*
X206830000Y-100306800D01*
X208940400Y-97330800D02*
X212219200Y-97330800D01*
X212219200Y-97330800D02*
X212550000Y-97000000D01*
X207568800Y-97434400D02*
X207672400Y-97330800D01*
X207568800Y-99568000D02*
X207568800Y-97434400D01*
X207672400Y-97330800D02*
X208940400Y-97330800D01*
X206568500Y-103517000D02*
X206830000Y-103255500D01*
X206830000Y-100306800D02*
X207568800Y-99568000D01*
%TO.N,TB_MOSI*%
X172240000Y-110760000D02*
X172000000Y-111000000D01*
X175850500Y-110760000D02*
X172240000Y-110760000D01*
X194984800Y-97616999D02*
X196375801Y-99008000D01*
X196375801Y-99008000D02*
X196410300Y-99008000D01*
X194984800Y-97179500D02*
X194984800Y-97616999D01*
%TO.N,SWDIO*%
X187099000Y-96492000D02*
X187071000Y-96520000D01*
X192297300Y-96492000D02*
X187099000Y-96492000D01*
%TO.N,NRST*%
X198628000Y-93853000D02*
X198628000Y-90932000D01*
X197172300Y-93992000D02*
X197609799Y-93992000D01*
X198526400Y-90932000D02*
X198628000Y-90932000D01*
X198251200Y-90932000D02*
X198526400Y-90932000D01*
X197609799Y-93992000D02*
X197748799Y-93853000D01*
X197748799Y-93853000D02*
X198628000Y-93853000D01*
X198755000Y-90932000D02*
X199261000Y-90932000D01*
X198628000Y-90932000D02*
X198755000Y-90932000D01*
X198069200Y-90750000D02*
X198251200Y-90932000D01*
%TO.N,TB_CLK*%
X183261000Y-110716981D02*
X183175111Y-110631092D01*
X172140000Y-108860000D02*
X172000000Y-109000000D01*
X193984800Y-97179500D02*
X193984800Y-97581180D01*
X193984800Y-97581180D02*
X192632980Y-98933000D01*
X183261000Y-112014000D02*
X183261000Y-110716981D01*
X192632980Y-98933000D02*
X191135000Y-98933000D01*
X175850500Y-108860000D02*
X172140000Y-108860000D01*
D50*
%TO.N,VIN*%
X212527500Y-104133500D02*
X212527500Y-108414000D01*
X212550000Y-104111000D02*
X212550000Y-103000000D01*
X212527500Y-104133500D02*
X212550000Y-104111000D01*
D51*
%TO.N,TB_CS*%
X193484800Y-97616999D02*
X192803799Y-98298000D01*
X192293300Y-94488000D02*
X189357000Y-94488000D01*
X175774500Y-113000000D02*
X175850500Y-112924000D01*
X176587999Y-112924000D02*
X177648999Y-111862999D01*
X177648999Y-111862999D02*
X180013748Y-109498251D01*
X188849000Y-97663000D02*
X188849000Y-98171000D01*
X180013748Y-109498251D02*
X182889225Y-109498251D01*
X189357000Y-94488000D02*
X189103000Y-94742000D01*
X193484800Y-97179500D02*
X193484800Y-97616999D01*
X192297300Y-94492000D02*
X192293300Y-94488000D01*
X192803799Y-98298000D02*
X188976000Y-98298000D01*
X188849000Y-98171000D02*
X188976000Y-98298000D01*
X172000000Y-113000000D02*
X175774500Y-113000000D01*
X182889225Y-109498251D02*
X183250883Y-109859909D01*
X175850500Y-112924000D02*
X176587999Y-112924000D01*
X188976000Y-98298000D02*
X188976000Y-98806000D01*
X183250883Y-109859909D02*
X183250883Y-109886573D01*
X188976000Y-98806000D02*
X189611000Y-99441000D01*
%TO.N,Net-(R2-Pad2)*%
X205448000Y-99060000D02*
X205492000Y-99016000D01*
X204597000Y-99060000D02*
X205448000Y-99060000D01*
%TO.N,Net-(R4-Pad1)*%
X184341000Y-97713000D02*
X184529000Y-97901000D01*
X182620500Y-97713000D02*
X184341000Y-97713000D01*
%TO.N,DP*%
X186710000Y-95992000D02*
X192297300Y-95992000D01*
X185549000Y-97153000D02*
X186710000Y-95992000D01*
X185549000Y-97901000D02*
X185549000Y-97153000D01*
%TO.N,Net-(R5-Pad1)*%
X184214000Y-99613000D02*
X184529000Y-99298000D01*
X182620500Y-99613000D02*
X184214000Y-99613000D01*
%TO.N,DM*%
X186436000Y-95504000D02*
X186448000Y-95492000D01*
X186354600Y-98492400D02*
X186354600Y-97073600D01*
X185549000Y-99298000D02*
X186354600Y-98492400D01*
X186448000Y-95492000D02*
X192297300Y-95492000D01*
D50*
%TO.N,2V8*%
X192401700Y-99981001D02*
X192897000Y-99981001D01*
X196378000Y-106890000D02*
X196378000Y-107787000D01*
X193599999Y-104200027D02*
X196402027Y-104200027D01*
X190480000Y-117663000D02*
X188984000Y-116167000D01*
X196352000Y-99778000D02*
X196352000Y-101048000D01*
X193599999Y-105799973D02*
X194826973Y-105799973D01*
X191721500Y-117663000D02*
X190480000Y-117663000D01*
X196352000Y-101048000D02*
X196352000Y-102318000D01*
X195917000Y-106890000D02*
X196378000Y-106890000D01*
X196352000Y-102318000D02*
X196352000Y-104150000D01*
X196378000Y-105579000D02*
X196591000Y-105366000D01*
X187204000Y-106037000D02*
X187196000Y-106045000D01*
X196378000Y-106890000D02*
X196378000Y-105579000D01*
X196215000Y-107950000D02*
X187325000Y-107950000D01*
X196378000Y-107787000D02*
X196215000Y-107950000D01*
X196402027Y-104200027D02*
X196591000Y-104389000D01*
X196352000Y-104150000D02*
X196402027Y-104200027D01*
X193945001Y-98933000D02*
X195507000Y-98933000D01*
X195507000Y-98933000D02*
X196352000Y-99778000D01*
X187204000Y-104731000D02*
X187204000Y-106037000D01*
X187325000Y-107950000D02*
X187196000Y-107821000D01*
X188984000Y-116167000D02*
X188355000Y-116167000D01*
X186952000Y-108323000D02*
X187325000Y-107950000D01*
X187196000Y-107821000D02*
X187196000Y-106045000D01*
X188355000Y-116167000D02*
X186952000Y-114764000D01*
X186952000Y-114764000D02*
X186952000Y-108323000D01*
X194826973Y-105799973D02*
X195917000Y-106890000D01*
X196591000Y-104389000D02*
X196591000Y-105366000D01*
X192897000Y-99981001D02*
X193945001Y-98933000D01*
D51*
%TO.N,TOF_INT*%
X188341000Y-103632000D02*
X188341000Y-104140000D01*
X188401027Y-104200027D02*
X188341000Y-104140000D01*
X193484800Y-92304500D02*
X193484800Y-91902820D01*
X188341000Y-104140000D02*
X188341000Y-104614000D01*
X193484800Y-91902820D02*
X193184480Y-91602500D01*
X190400001Y-104200027D02*
X188401027Y-104200027D01*
X190348500Y-91602500D02*
X190251500Y-91699500D01*
X188341000Y-104614000D02*
X188224000Y-104731000D01*
X193184480Y-91602500D02*
X190348500Y-91602500D01*
%TO.N,TOF_XSHUT*%
X192984800Y-92304500D02*
X190983500Y-92304500D01*
X188216000Y-106936000D02*
X188341000Y-107061000D01*
X188461027Y-105799973D02*
X188216000Y-106045000D01*
X190400001Y-105799973D02*
X188461027Y-105799973D01*
X190983500Y-92304500D02*
X190881000Y-92202000D01*
X188216000Y-106045000D02*
X188216000Y-106936000D01*
%TO.N,TOF_SCL*%
X188353000Y-93992000D02*
X188341000Y-93980000D01*
X186817000Y-98298000D02*
X187115000Y-98000000D01*
X187115000Y-98000000D02*
X187714000Y-98000000D01*
X188058300Y-100630999D02*
X186609999Y-100630999D01*
X186817000Y-98806000D02*
X186817000Y-98298000D01*
X192297300Y-93992000D02*
X188353000Y-93992000D01*
X186563000Y-100584000D02*
X186563000Y-99060000D01*
X186563000Y-99060000D02*
X186817000Y-98806000D01*
X186609999Y-100630999D02*
X186563000Y-100584000D01*
%TO.N,TOF_SDA*%
X194484800Y-92304500D02*
X194484800Y-91233800D01*
X186244001Y-101281001D02*
X186182000Y-101219000D01*
X186182000Y-101219000D02*
X186182000Y-100335500D01*
X194484800Y-91233800D02*
X194437000Y-91186000D01*
X188058300Y-101281001D02*
X186244001Y-101281001D01*
X186182000Y-100335500D02*
X186049500Y-100203000D01*
%TO.N,CAN_TX*%
X202024500Y-102867000D02*
X200530000Y-102867000D01*
X200530000Y-102867000D02*
X199390000Y-101727000D01*
X197172300Y-96492000D02*
X199390000Y-98709700D01*
X199390000Y-98709700D02*
X199390000Y-101727000D01*
%TO.N,CAN_STB*%
X207137000Y-99279720D02*
X207137000Y-91004000D01*
X207137000Y-91004000D02*
X206883000Y-90750000D01*
X195984800Y-91209800D02*
X195961000Y-91186000D01*
X205613000Y-100076000D02*
X206340720Y-100076000D01*
X206340720Y-100076000D02*
X207137000Y-99279720D01*
X205613000Y-102153500D02*
X205613000Y-100076000D01*
X195984800Y-92304500D02*
X195984800Y-91209800D01*
X204899500Y-102867000D02*
X205613000Y-102153500D01*
%TO.N,CAN_RX*%
X197939000Y-98633700D02*
X196484800Y-97179500D01*
X197939000Y-102273613D02*
X197939000Y-98633700D01*
X202024500Y-104817000D02*
X200482387Y-104817000D01*
X200482387Y-104817000D02*
X197939000Y-102273613D01*
%TO.N,TOF_SCL_2V8*%
X190567187Y-101406599D02*
X190500000Y-101339412D01*
X192401700Y-100630999D02*
X194009001Y-100630999D01*
X192800001Y-102884001D02*
X192659000Y-102743000D01*
X194009001Y-100630999D02*
X194862000Y-99778000D01*
X190889399Y-100630999D02*
X192401700Y-100630999D01*
X190500000Y-102743000D02*
X190500000Y-101909399D01*
X190500000Y-101339412D02*
X190500000Y-101020398D01*
X190500000Y-101909399D02*
X190567187Y-101842212D01*
X194862000Y-99778000D02*
X195332000Y-99778000D01*
X192800001Y-104200027D02*
X192800001Y-102884001D01*
X192659000Y-102743000D02*
X190500000Y-102743000D01*
X190567187Y-101842212D02*
X190567187Y-101406599D01*
X190500000Y-101020398D02*
X190889399Y-100630999D01*
%TO.N,TOF_SDA_2V8*%
X192401700Y-101281001D02*
X195098999Y-101281001D01*
X190417138Y-103124000D02*
X189986500Y-102693362D01*
X189986500Y-102693362D02*
X189986500Y-101696700D01*
X192000000Y-104200027D02*
X192000000Y-103227000D01*
X189986500Y-101696700D02*
X190053687Y-101629513D01*
X191135000Y-101346000D02*
X192336701Y-101346000D01*
X192000000Y-103227000D02*
X191897000Y-103124000D01*
X195098999Y-101281001D02*
X195332000Y-101048000D01*
X192336701Y-101346000D02*
X192401700Y-101281001D01*
X191897000Y-103124000D02*
X190417138Y-103124000D01*
%TO.N,Net-(U8-EN)*%
X194944999Y-101930999D02*
X195332000Y-102318000D01*
X192401700Y-101930999D02*
X194944999Y-101930999D01*
%TO.N,Net-(U9-PC15)*%
X198741000Y-95492000D02*
X199261000Y-96012000D01*
X197172300Y-95492000D02*
X198741000Y-95492000D01*
%TO.N,Net-(J5-D--PadA7)*%
X177739701Y-98500000D02*
X178314800Y-98500000D01*
X178943000Y-99568000D02*
X178988000Y-99613000D01*
X178988000Y-99613000D02*
X180345500Y-99613000D01*
X178314800Y-98500000D02*
X178943000Y-99128200D01*
X178943000Y-99128200D02*
X178943000Y-99568000D01*
X176439699Y-97750000D02*
X175427000Y-97750000D01*
X175427000Y-97750000D02*
X175387000Y-97790000D01*
%TO.N,Net-(J5-D+-PadA6)*%
X177739701Y-97525098D02*
X177739701Y-97500000D01*
X176439699Y-98250000D02*
X177014799Y-98250000D01*
X177739701Y-97500000D02*
X180132500Y-97500000D01*
X180132500Y-97500000D02*
X180345500Y-97713000D01*
X177014799Y-98250000D02*
X177739701Y-97525098D01*
D50*
%TO.N,Net-(J4-Pin_6)*%
X177550000Y-107004000D02*
X177550000Y-106000000D01*
X174498000Y-107569000D02*
X176985000Y-107569000D01*
X176985000Y-107569000D02*
X177550000Y-107004000D01*
D51*
%TO.N,TB_ABS*%
X196900722Y-98494500D02*
X197612000Y-99205778D01*
X185928000Y-108712000D02*
X186436000Y-109220000D01*
X197612000Y-104182653D02*
X197449500Y-104345153D01*
X191014137Y-99942863D02*
X191014137Y-100028208D01*
X194484800Y-97179500D02*
X194484800Y-97616999D01*
X197612000Y-99205778D02*
X197612000Y-104182653D01*
X186436000Y-109220000D02*
X186436000Y-117094000D01*
X194484800Y-97616999D02*
X192601198Y-99500601D01*
X196362301Y-98494500D02*
X196900722Y-98494500D01*
X195484800Y-97616999D02*
X196362301Y-98494500D01*
X191456399Y-99500601D02*
X191014137Y-99942863D01*
X186436000Y-117466492D02*
X185157492Y-118745000D01*
X186436000Y-117094000D02*
X186436000Y-117466492D01*
X175674500Y-115000000D02*
X175850500Y-114824000D01*
X185157492Y-118745000D02*
X180467000Y-118745000D01*
X195484800Y-97179500D02*
X195484800Y-97616999D01*
X172000000Y-115000000D02*
X175674500Y-115000000D01*
X192601198Y-99500601D02*
X191456399Y-99500601D01*
%TD*%
M02*
