M48
; DRILL file {KiCad 8.0.6-8.0.6-0~ubuntu24.04.1} date 2024-11-29T10:46:20-0600
; FORMAT={-:-/ absolute / inch / decimal}
; #@! TF.CreationDate,2024-11-29T10:46:20-06:00
; #@! TF.GenerationSoftware,Kicad,Pcbnew,8.0.6-8.0.6-0~ubuntu24.04.1
; #@! TF.FileFunction,Plated,1,4,PTH
FMAT,2
INCH
; #@! TA.AperFunction,Plated,PTH,ViaDrill
T1C0.0118
; #@! TA.AperFunction,Plated,PTH,ComponentDrill
T2C0.0197
; #@! TA.AperFunction,Plated,PTH,ComponentDrill
T3C0.0295
%
G90
G05
T1
X6.963Y-3.7966
X7.025Y-4.355
X7.03Y-4.5
X7.065Y-4.385
X7.095Y-4.155
X7.1Y-4.075
X7.1Y-4.64
X7.1323Y-3.8377
X7.135Y-3.71
X7.15Y-4.4
X7.165Y-4.06
X7.21Y-3.56
X7.23Y-4.78
X7.255Y-4.25
X7.26Y-4.025
X7.28Y-3.79
X7.3Y-4.805
X7.315Y-4.16
X7.355Y-3.475
X7.365Y-3.92
X7.3944Y-3.7983
X7.395Y-4.065
X7.405Y-3.5449
X7.41Y-4.7
X7.415Y-3.965
X7.4238Y-3.7761
X7.45Y-3.865
X7.465Y-4.085
X7.465Y-4.38
X7.475Y-3.885
X7.485Y-3.455
X7.485Y-4.165
X7.5065Y-3.8848
X7.51Y-4.24
X7.5165Y-4.1657
X7.53Y-3.495
X7.54Y-3.605
X7.54Y-3.69
X7.54Y-3.76
X7.55Y-3.915
X7.57Y-3.505
X7.585Y-4.485
X7.585Y-4.85
X7.595Y-3.485
X7.61Y-3.88
X7.62Y-3.605
X7.62Y-3.69
X7.62Y-3.76
X7.625Y-3.495
X7.64Y-4.235
X7.645Y-3.88
X7.645Y-4.775
X7.695Y-3.605
X7.695Y-3.69
X7.695Y-3.76
X7.725Y-3.93
X7.725Y-4.07
X7.785Y-4.175
X7.7886Y-3.82
X7.8Y-4.745
X7.81Y-3.555
X7.82Y-3.645
X7.82Y-4.1
X7.835Y-3.79
X7.845Y-3.5872
X7.855Y-3.955
X7.88Y-4.1
X7.8994Y-3.9452
X7.915Y-4.185
X7.93Y-4.67
X7.945Y-4.575
X8.0Y-3.495
X8.0Y-3.815
X8.02Y-3.965
X8.04Y-4.59
X8.045Y-3.845
X8.08Y-4.175
X8.085Y-4.11
X8.1Y-3.78
X8.165Y-3.9166
X8.195Y-3.735
X8.23Y-4.49
X8.27Y-3.72
T3
X8.3035Y-4.0419
X8.3035Y-4.1206
X8.3035Y-4.1994
X8.3035Y-4.2781
T2
G00X6.9062Y-4.0301
M15
G01X6.9338Y-4.0301
M16
G05
G00X6.9062Y-4.2899
M15
G01X6.9338Y-4.2899
M16
G05
M30
