%TF.GenerationSoftware,KiCad,Pcbnew,8.0.6-8.0.6-0~ubuntu24.04.1*%
%TF.CreationDate,2024-11-24T16:01:10-06:00*%
%TF.ProjectId,can_distance_sensor,63616e5f-6469-4737-9461-6e63655f7365,rev?*%
%TF.SameCoordinates,Original*%
%TF.FileFunction,Legend,Bot*%
%TF.FilePolarity,Positive*%
%FSLAX46Y46*%
G04 Gerber Fmt 4.6, Leading zero omitted, Abs format (unit mm)*
G04 Created by KiCad (PCBNEW 8.0.6-8.0.6-0~ubuntu24.04.1) date 2024-11-24 16:01:10*
%MOMM*%
%LPD*%
G01*
G04 APERTURE LIST*
%ADD10C,0.076200*%
%ADD11C,0.150000*%
%ADD12C,0.120000*%
%ADD13C,0.152400*%
%ADD14C,0.508000*%
G04 APERTURE END LIST*
D10*
X207951678Y-125121383D02*
X207951678Y-124486383D01*
X207619059Y-124486383D02*
X207679535Y-124607335D01*
X207346916Y-125121383D02*
X207346916Y-124698049D01*
X207346916Y-124758525D02*
X207316678Y-124728287D01*
X207316678Y-124728287D02*
X207256202Y-124698049D01*
X207256202Y-124698049D02*
X207165487Y-124698049D01*
X207165487Y-124698049D02*
X207105011Y-124728287D01*
X207105011Y-124728287D02*
X207074773Y-124788764D01*
X207074773Y-124788764D02*
X207074773Y-125121383D01*
X207074773Y-124788764D02*
X207044535Y-124728287D01*
X207044535Y-124728287D02*
X206984059Y-124698049D01*
X206984059Y-124698049D02*
X206893345Y-124698049D01*
X206893345Y-124698049D02*
X206832868Y-124728287D01*
X206832868Y-124728287D02*
X206802630Y-124788764D01*
X206802630Y-124788764D02*
X206802630Y-125121383D01*
X206016439Y-125121383D02*
X206016439Y-124486383D01*
X206016439Y-124486383D02*
X205653582Y-125121383D01*
X205653582Y-125121383D02*
X205653582Y-124486383D01*
X205260487Y-125121383D02*
X205320963Y-125091145D01*
X205320963Y-125091145D02*
X205351201Y-125060906D01*
X205351201Y-125060906D02*
X205381439Y-125000430D01*
X205381439Y-125000430D02*
X205381439Y-124819002D01*
X205381439Y-124819002D02*
X205351201Y-124758525D01*
X205351201Y-124758525D02*
X205320963Y-124728287D01*
X205320963Y-124728287D02*
X205260487Y-124698049D01*
X205260487Y-124698049D02*
X205169772Y-124698049D01*
X205169772Y-124698049D02*
X205109296Y-124728287D01*
X205109296Y-124728287D02*
X205079058Y-124758525D01*
X205079058Y-124758525D02*
X205048820Y-124819002D01*
X205048820Y-124819002D02*
X205048820Y-125000430D01*
X205048820Y-125000430D02*
X205079058Y-125060906D01*
X205079058Y-125060906D02*
X205109296Y-125091145D01*
X205109296Y-125091145D02*
X205169772Y-125121383D01*
X205169772Y-125121383D02*
X205260487Y-125121383D01*
X204867391Y-124698049D02*
X204625487Y-124698049D01*
X204776677Y-124486383D02*
X204776677Y-125030668D01*
X204776677Y-125030668D02*
X204746439Y-125091145D01*
X204746439Y-125091145D02*
X204685963Y-125121383D01*
X204685963Y-125121383D02*
X204625487Y-125121383D01*
X204020724Y-124486383D02*
X203657867Y-124486383D01*
X203839296Y-125121383D02*
X203839296Y-124486383D01*
X203355486Y-125121383D02*
X203415962Y-125091145D01*
X203415962Y-125091145D02*
X203446200Y-125060906D01*
X203446200Y-125060906D02*
X203476438Y-125000430D01*
X203476438Y-125000430D02*
X203476438Y-124819002D01*
X203476438Y-124819002D02*
X203446200Y-124758525D01*
X203446200Y-124758525D02*
X203415962Y-124728287D01*
X203415962Y-124728287D02*
X203355486Y-124698049D01*
X203355486Y-124698049D02*
X203264771Y-124698049D01*
X203264771Y-124698049D02*
X203204295Y-124728287D01*
X203204295Y-124728287D02*
X203174057Y-124758525D01*
X203174057Y-124758525D02*
X203143819Y-124819002D01*
X203143819Y-124819002D02*
X203143819Y-125000430D01*
X203143819Y-125000430D02*
X203174057Y-125060906D01*
X203174057Y-125060906D02*
X203204295Y-125091145D01*
X203204295Y-125091145D02*
X203264771Y-125121383D01*
X203264771Y-125121383D02*
X203355486Y-125121383D01*
X202599533Y-124698049D02*
X202599533Y-125121383D01*
X202871676Y-124698049D02*
X202871676Y-125030668D01*
X202871676Y-125030668D02*
X202841438Y-125091145D01*
X202841438Y-125091145D02*
X202780962Y-125121383D01*
X202780962Y-125121383D02*
X202690247Y-125121383D01*
X202690247Y-125121383D02*
X202629771Y-125091145D01*
X202629771Y-125091145D02*
X202599533Y-125060906D01*
X202025009Y-125091145D02*
X202085485Y-125121383D01*
X202085485Y-125121383D02*
X202206438Y-125121383D01*
X202206438Y-125121383D02*
X202266914Y-125091145D01*
X202266914Y-125091145D02*
X202297152Y-125060906D01*
X202297152Y-125060906D02*
X202327390Y-125000430D01*
X202327390Y-125000430D02*
X202327390Y-124819002D01*
X202327390Y-124819002D02*
X202297152Y-124758525D01*
X202297152Y-124758525D02*
X202266914Y-124728287D01*
X202266914Y-124728287D02*
X202206438Y-124698049D01*
X202206438Y-124698049D02*
X202085485Y-124698049D01*
X202085485Y-124698049D02*
X202025009Y-124728287D01*
X201752866Y-125121383D02*
X201752866Y-124486383D01*
X201480723Y-125121383D02*
X201480723Y-124788764D01*
X201480723Y-124788764D02*
X201510961Y-124728287D01*
X201510961Y-124728287D02*
X201571437Y-124698049D01*
X201571437Y-124698049D02*
X201662152Y-124698049D01*
X201662152Y-124698049D02*
X201722628Y-124728287D01*
X201722628Y-124728287D02*
X201752866Y-124758525D01*
X201178342Y-125121383D02*
X201178342Y-124698049D01*
X201178342Y-124486383D02*
X201208580Y-124516621D01*
X201208580Y-124516621D02*
X201178342Y-124546859D01*
X201178342Y-124546859D02*
X201148104Y-124516621D01*
X201148104Y-124516621D02*
X201178342Y-124486383D01*
X201178342Y-124486383D02*
X201178342Y-124546859D01*
X200875961Y-124698049D02*
X200875961Y-125121383D01*
X200875961Y-124758525D02*
X200845723Y-124728287D01*
X200845723Y-124728287D02*
X200785247Y-124698049D01*
X200785247Y-124698049D02*
X200694532Y-124698049D01*
X200694532Y-124698049D02*
X200634056Y-124728287D01*
X200634056Y-124728287D02*
X200603818Y-124788764D01*
X200603818Y-124788764D02*
X200603818Y-125121383D01*
X200029294Y-124698049D02*
X200029294Y-125212097D01*
X200029294Y-125212097D02*
X200059532Y-125272573D01*
X200059532Y-125272573D02*
X200089770Y-125302811D01*
X200089770Y-125302811D02*
X200150247Y-125333049D01*
X200150247Y-125333049D02*
X200240961Y-125333049D01*
X200240961Y-125333049D02*
X200301437Y-125302811D01*
X200029294Y-125091145D02*
X200089770Y-125121383D01*
X200089770Y-125121383D02*
X200210723Y-125121383D01*
X200210723Y-125121383D02*
X200271199Y-125091145D01*
X200271199Y-125091145D02*
X200301437Y-125060906D01*
X200301437Y-125060906D02*
X200331675Y-125000430D01*
X200331675Y-125000430D02*
X200331675Y-124819002D01*
X200331675Y-124819002D02*
X200301437Y-124758525D01*
X200301437Y-124758525D02*
X200271199Y-124728287D01*
X200271199Y-124728287D02*
X200210723Y-124698049D01*
X200210723Y-124698049D02*
X200089770Y-124698049D01*
X200089770Y-124698049D02*
X200029294Y-124728287D01*
X199122151Y-124819002D02*
X199122151Y-125121383D01*
X199333817Y-124486383D02*
X199122151Y-124819002D01*
X199122151Y-124819002D02*
X198910484Y-124486383D01*
X198608103Y-125121383D02*
X198668579Y-125091145D01*
X198668579Y-125091145D02*
X198698817Y-125060906D01*
X198698817Y-125060906D02*
X198729055Y-125000430D01*
X198729055Y-125000430D02*
X198729055Y-124819002D01*
X198729055Y-124819002D02*
X198698817Y-124758525D01*
X198698817Y-124758525D02*
X198668579Y-124728287D01*
X198668579Y-124728287D02*
X198608103Y-124698049D01*
X198608103Y-124698049D02*
X198517388Y-124698049D01*
X198517388Y-124698049D02*
X198456912Y-124728287D01*
X198456912Y-124728287D02*
X198426674Y-124758525D01*
X198426674Y-124758525D02*
X198396436Y-124819002D01*
X198396436Y-124819002D02*
X198396436Y-125000430D01*
X198396436Y-125000430D02*
X198426674Y-125060906D01*
X198426674Y-125060906D02*
X198456912Y-125091145D01*
X198456912Y-125091145D02*
X198517388Y-125121383D01*
X198517388Y-125121383D02*
X198608103Y-125121383D01*
X197852150Y-124698049D02*
X197852150Y-125121383D01*
X198124293Y-124698049D02*
X198124293Y-125030668D01*
X198124293Y-125030668D02*
X198094055Y-125091145D01*
X198094055Y-125091145D02*
X198033579Y-125121383D01*
X198033579Y-125121383D02*
X197942864Y-125121383D01*
X197942864Y-125121383D02*
X197882388Y-125091145D01*
X197882388Y-125091145D02*
X197852150Y-125060906D01*
X207588821Y-126143697D02*
X207800488Y-125841316D01*
X207951678Y-126143697D02*
X207951678Y-125508697D01*
X207951678Y-125508697D02*
X207709773Y-125508697D01*
X207709773Y-125508697D02*
X207649297Y-125538935D01*
X207649297Y-125538935D02*
X207619059Y-125569173D01*
X207619059Y-125569173D02*
X207588821Y-125629649D01*
X207588821Y-125629649D02*
X207588821Y-125720363D01*
X207588821Y-125720363D02*
X207619059Y-125780839D01*
X207619059Y-125780839D02*
X207649297Y-125811078D01*
X207649297Y-125811078D02*
X207709773Y-125841316D01*
X207709773Y-125841316D02*
X207951678Y-125841316D01*
X207074773Y-126113459D02*
X207135249Y-126143697D01*
X207135249Y-126143697D02*
X207256202Y-126143697D01*
X207256202Y-126143697D02*
X207316678Y-126113459D01*
X207316678Y-126113459D02*
X207346916Y-126052982D01*
X207346916Y-126052982D02*
X207346916Y-125811078D01*
X207346916Y-125811078D02*
X207316678Y-125750601D01*
X207316678Y-125750601D02*
X207256202Y-125720363D01*
X207256202Y-125720363D02*
X207135249Y-125720363D01*
X207135249Y-125720363D02*
X207074773Y-125750601D01*
X207074773Y-125750601D02*
X207044535Y-125811078D01*
X207044535Y-125811078D02*
X207044535Y-125871554D01*
X207044535Y-125871554D02*
X207346916Y-125932030D01*
X206832868Y-125720363D02*
X206681678Y-126143697D01*
X206681678Y-126143697D02*
X206530487Y-125720363D01*
X205835010Y-125962268D02*
X205532629Y-125962268D01*
X205895486Y-126143697D02*
X205683820Y-125508697D01*
X205683820Y-125508697D02*
X205472153Y-126143697D01*
X207588821Y-127105534D02*
X207619059Y-127135773D01*
X207619059Y-127135773D02*
X207709773Y-127166011D01*
X207709773Y-127166011D02*
X207770249Y-127166011D01*
X207770249Y-127166011D02*
X207860964Y-127135773D01*
X207860964Y-127135773D02*
X207921440Y-127075296D01*
X207921440Y-127075296D02*
X207951678Y-127014820D01*
X207951678Y-127014820D02*
X207981916Y-126893868D01*
X207981916Y-126893868D02*
X207981916Y-126803153D01*
X207981916Y-126803153D02*
X207951678Y-126682201D01*
X207951678Y-126682201D02*
X207921440Y-126621725D01*
X207921440Y-126621725D02*
X207860964Y-126561249D01*
X207860964Y-126561249D02*
X207770249Y-126531011D01*
X207770249Y-126531011D02*
X207709773Y-126531011D01*
X207709773Y-126531011D02*
X207619059Y-126561249D01*
X207619059Y-126561249D02*
X207588821Y-126591487D01*
X207225964Y-127166011D02*
X207286440Y-127135773D01*
X207286440Y-127135773D02*
X207316678Y-127105534D01*
X207316678Y-127105534D02*
X207346916Y-127045058D01*
X207346916Y-127045058D02*
X207346916Y-126863630D01*
X207346916Y-126863630D02*
X207316678Y-126803153D01*
X207316678Y-126803153D02*
X207286440Y-126772915D01*
X207286440Y-126772915D02*
X207225964Y-126742677D01*
X207225964Y-126742677D02*
X207135249Y-126742677D01*
X207135249Y-126742677D02*
X207074773Y-126772915D01*
X207074773Y-126772915D02*
X207044535Y-126803153D01*
X207044535Y-126803153D02*
X207014297Y-126863630D01*
X207014297Y-126863630D02*
X207014297Y-127045058D01*
X207014297Y-127045058D02*
X207044535Y-127105534D01*
X207044535Y-127105534D02*
X207074773Y-127135773D01*
X207074773Y-127135773D02*
X207135249Y-127166011D01*
X207135249Y-127166011D02*
X207225964Y-127166011D01*
X206742154Y-126742677D02*
X206742154Y-127377677D01*
X206742154Y-126772915D02*
X206681678Y-126742677D01*
X206681678Y-126742677D02*
X206560725Y-126742677D01*
X206560725Y-126742677D02*
X206500249Y-126772915D01*
X206500249Y-126772915D02*
X206470011Y-126803153D01*
X206470011Y-126803153D02*
X206439773Y-126863630D01*
X206439773Y-126863630D02*
X206439773Y-127045058D01*
X206439773Y-127045058D02*
X206470011Y-127105534D01*
X206470011Y-127105534D02*
X206500249Y-127135773D01*
X206500249Y-127135773D02*
X206560725Y-127166011D01*
X206560725Y-127166011D02*
X206681678Y-127166011D01*
X206681678Y-127166011D02*
X206742154Y-127135773D01*
X206228106Y-126742677D02*
X206076916Y-127166011D01*
X205925725Y-126742677D02*
X206076916Y-127166011D01*
X206076916Y-127166011D02*
X206137392Y-127317201D01*
X206137392Y-127317201D02*
X206167630Y-127347439D01*
X206167630Y-127347439D02*
X206228106Y-127377677D01*
X205683820Y-127166011D02*
X205683820Y-126742677D01*
X205683820Y-126863630D02*
X205653582Y-126803153D01*
X205653582Y-126803153D02*
X205623344Y-126772915D01*
X205623344Y-126772915D02*
X205562868Y-126742677D01*
X205562868Y-126742677D02*
X205502391Y-126742677D01*
X205290725Y-127166011D02*
X205290725Y-126742677D01*
X205290725Y-126531011D02*
X205320963Y-126561249D01*
X205320963Y-126561249D02*
X205290725Y-126591487D01*
X205290725Y-126591487D02*
X205260487Y-126561249D01*
X205260487Y-126561249D02*
X205290725Y-126531011D01*
X205290725Y-126531011D02*
X205290725Y-126591487D01*
X204716201Y-126742677D02*
X204716201Y-127256725D01*
X204716201Y-127256725D02*
X204746439Y-127317201D01*
X204746439Y-127317201D02*
X204776677Y-127347439D01*
X204776677Y-127347439D02*
X204837154Y-127377677D01*
X204837154Y-127377677D02*
X204927868Y-127377677D01*
X204927868Y-127377677D02*
X204988344Y-127347439D01*
X204716201Y-127135773D02*
X204776677Y-127166011D01*
X204776677Y-127166011D02*
X204897630Y-127166011D01*
X204897630Y-127166011D02*
X204958106Y-127135773D01*
X204958106Y-127135773D02*
X204988344Y-127105534D01*
X204988344Y-127105534D02*
X205018582Y-127045058D01*
X205018582Y-127045058D02*
X205018582Y-126863630D01*
X205018582Y-126863630D02*
X204988344Y-126803153D01*
X204988344Y-126803153D02*
X204958106Y-126772915D01*
X204958106Y-126772915D02*
X204897630Y-126742677D01*
X204897630Y-126742677D02*
X204776677Y-126742677D01*
X204776677Y-126742677D02*
X204716201Y-126772915D01*
X204413820Y-127166011D02*
X204413820Y-126531011D01*
X204141677Y-127166011D02*
X204141677Y-126833392D01*
X204141677Y-126833392D02*
X204171915Y-126772915D01*
X204171915Y-126772915D02*
X204232391Y-126742677D01*
X204232391Y-126742677D02*
X204323106Y-126742677D01*
X204323106Y-126742677D02*
X204383582Y-126772915D01*
X204383582Y-126772915D02*
X204413820Y-126803153D01*
X203930010Y-126742677D02*
X203688106Y-126742677D01*
X203839296Y-126531011D02*
X203839296Y-127075296D01*
X203839296Y-127075296D02*
X203809058Y-127135773D01*
X203809058Y-127135773D02*
X203748582Y-127166011D01*
X203748582Y-127166011D02*
X203688106Y-127166011D01*
X203022867Y-126591487D02*
X202992629Y-126561249D01*
X202992629Y-126561249D02*
X202932153Y-126531011D01*
X202932153Y-126531011D02*
X202780962Y-126531011D01*
X202780962Y-126531011D02*
X202720486Y-126561249D01*
X202720486Y-126561249D02*
X202690248Y-126591487D01*
X202690248Y-126591487D02*
X202660010Y-126651963D01*
X202660010Y-126651963D02*
X202660010Y-126712439D01*
X202660010Y-126712439D02*
X202690248Y-126803153D01*
X202690248Y-126803153D02*
X203053105Y-127166011D01*
X203053105Y-127166011D02*
X202660010Y-127166011D01*
X202266915Y-126531011D02*
X202206438Y-126531011D01*
X202206438Y-126531011D02*
X202145962Y-126561249D01*
X202145962Y-126561249D02*
X202115724Y-126591487D01*
X202115724Y-126591487D02*
X202085486Y-126651963D01*
X202085486Y-126651963D02*
X202055248Y-126772915D01*
X202055248Y-126772915D02*
X202055248Y-126924106D01*
X202055248Y-126924106D02*
X202085486Y-127045058D01*
X202085486Y-127045058D02*
X202115724Y-127105534D01*
X202115724Y-127105534D02*
X202145962Y-127135773D01*
X202145962Y-127135773D02*
X202206438Y-127166011D01*
X202206438Y-127166011D02*
X202266915Y-127166011D01*
X202266915Y-127166011D02*
X202327391Y-127135773D01*
X202327391Y-127135773D02*
X202357629Y-127105534D01*
X202357629Y-127105534D02*
X202387867Y-127045058D01*
X202387867Y-127045058D02*
X202418105Y-126924106D01*
X202418105Y-126924106D02*
X202418105Y-126772915D01*
X202418105Y-126772915D02*
X202387867Y-126651963D01*
X202387867Y-126651963D02*
X202357629Y-126591487D01*
X202357629Y-126591487D02*
X202327391Y-126561249D01*
X202327391Y-126561249D02*
X202266915Y-126531011D01*
X201813343Y-126591487D02*
X201783105Y-126561249D01*
X201783105Y-126561249D02*
X201722629Y-126531011D01*
X201722629Y-126531011D02*
X201571438Y-126531011D01*
X201571438Y-126531011D02*
X201510962Y-126561249D01*
X201510962Y-126561249D02*
X201480724Y-126591487D01*
X201480724Y-126591487D02*
X201450486Y-126651963D01*
X201450486Y-126651963D02*
X201450486Y-126712439D01*
X201450486Y-126712439D02*
X201480724Y-126803153D01*
X201480724Y-126803153D02*
X201843581Y-127166011D01*
X201843581Y-127166011D02*
X201450486Y-127166011D01*
X200906200Y-126742677D02*
X200906200Y-127166011D01*
X201057391Y-126500773D02*
X201208581Y-126954344D01*
X201208581Y-126954344D02*
X200815486Y-126954344D01*
X208042392Y-127553325D02*
X207679535Y-127553325D01*
X207860964Y-128188325D02*
X207860964Y-127553325D01*
X207225963Y-128158087D02*
X207286439Y-128188325D01*
X207286439Y-128188325D02*
X207407392Y-128188325D01*
X207407392Y-128188325D02*
X207467868Y-128158087D01*
X207467868Y-128158087D02*
X207498106Y-128097610D01*
X207498106Y-128097610D02*
X207498106Y-127855706D01*
X207498106Y-127855706D02*
X207467868Y-127795229D01*
X207467868Y-127795229D02*
X207407392Y-127764991D01*
X207407392Y-127764991D02*
X207286439Y-127764991D01*
X207286439Y-127764991D02*
X207225963Y-127795229D01*
X207225963Y-127795229D02*
X207195725Y-127855706D01*
X207195725Y-127855706D02*
X207195725Y-127916182D01*
X207195725Y-127916182D02*
X207498106Y-127976658D01*
X206651439Y-128188325D02*
X206651439Y-127855706D01*
X206651439Y-127855706D02*
X206681677Y-127795229D01*
X206681677Y-127795229D02*
X206742153Y-127764991D01*
X206742153Y-127764991D02*
X206863106Y-127764991D01*
X206863106Y-127764991D02*
X206923582Y-127795229D01*
X206651439Y-128158087D02*
X206711915Y-128188325D01*
X206711915Y-128188325D02*
X206863106Y-128188325D01*
X206863106Y-128188325D02*
X206923582Y-128158087D01*
X206923582Y-128158087D02*
X206953820Y-128097610D01*
X206953820Y-128097610D02*
X206953820Y-128037134D01*
X206953820Y-128037134D02*
X206923582Y-127976658D01*
X206923582Y-127976658D02*
X206863106Y-127946420D01*
X206863106Y-127946420D02*
X206711915Y-127946420D01*
X206711915Y-127946420D02*
X206651439Y-127916182D01*
X206349058Y-128188325D02*
X206349058Y-127764991D01*
X206349058Y-127825467D02*
X206318820Y-127795229D01*
X206318820Y-127795229D02*
X206258344Y-127764991D01*
X206258344Y-127764991D02*
X206167629Y-127764991D01*
X206167629Y-127764991D02*
X206107153Y-127795229D01*
X206107153Y-127795229D02*
X206076915Y-127855706D01*
X206076915Y-127855706D02*
X206076915Y-128188325D01*
X206076915Y-127855706D02*
X206046677Y-127795229D01*
X206046677Y-127795229D02*
X205986201Y-127764991D01*
X205986201Y-127764991D02*
X205895487Y-127764991D01*
X205895487Y-127764991D02*
X205835010Y-127795229D01*
X205835010Y-127795229D02*
X205804772Y-127855706D01*
X205804772Y-127855706D02*
X205804772Y-128188325D01*
X205079057Y-127553325D02*
X204655724Y-127553325D01*
X204655724Y-127553325D02*
X204927867Y-128188325D01*
X204292867Y-127553325D02*
X204232390Y-127553325D01*
X204232390Y-127553325D02*
X204171914Y-127583563D01*
X204171914Y-127583563D02*
X204141676Y-127613801D01*
X204141676Y-127613801D02*
X204111438Y-127674277D01*
X204111438Y-127674277D02*
X204081200Y-127795229D01*
X204081200Y-127795229D02*
X204081200Y-127946420D01*
X204081200Y-127946420D02*
X204111438Y-128067372D01*
X204111438Y-128067372D02*
X204141676Y-128127848D01*
X204141676Y-128127848D02*
X204171914Y-128158087D01*
X204171914Y-128158087D02*
X204232390Y-128188325D01*
X204232390Y-128188325D02*
X204292867Y-128188325D01*
X204292867Y-128188325D02*
X204353343Y-128158087D01*
X204353343Y-128158087D02*
X204383581Y-128127848D01*
X204383581Y-128127848D02*
X204413819Y-128067372D01*
X204413819Y-128067372D02*
X204444057Y-127946420D01*
X204444057Y-127946420D02*
X204444057Y-127795229D01*
X204444057Y-127795229D02*
X204413819Y-127674277D01*
X204413819Y-127674277D02*
X204383581Y-127613801D01*
X204383581Y-127613801D02*
X204353343Y-127583563D01*
X204353343Y-127583563D02*
X204292867Y-127553325D01*
X203536914Y-127764991D02*
X203536914Y-128188325D01*
X203688105Y-127523087D02*
X203839295Y-127976658D01*
X203839295Y-127976658D02*
X203446200Y-127976658D01*
X203113581Y-127825467D02*
X203174057Y-127795229D01*
X203174057Y-127795229D02*
X203204295Y-127764991D01*
X203204295Y-127764991D02*
X203234533Y-127704515D01*
X203234533Y-127704515D02*
X203234533Y-127674277D01*
X203234533Y-127674277D02*
X203204295Y-127613801D01*
X203204295Y-127613801D02*
X203174057Y-127583563D01*
X203174057Y-127583563D02*
X203113581Y-127553325D01*
X203113581Y-127553325D02*
X202992628Y-127553325D01*
X202992628Y-127553325D02*
X202932152Y-127583563D01*
X202932152Y-127583563D02*
X202901914Y-127613801D01*
X202901914Y-127613801D02*
X202871676Y-127674277D01*
X202871676Y-127674277D02*
X202871676Y-127704515D01*
X202871676Y-127704515D02*
X202901914Y-127764991D01*
X202901914Y-127764991D02*
X202932152Y-127795229D01*
X202932152Y-127795229D02*
X202992628Y-127825467D01*
X202992628Y-127825467D02*
X203113581Y-127825467D01*
X203113581Y-127825467D02*
X203174057Y-127855706D01*
X203174057Y-127855706D02*
X203204295Y-127885944D01*
X203204295Y-127885944D02*
X203234533Y-127946420D01*
X203234533Y-127946420D02*
X203234533Y-128067372D01*
X203234533Y-128067372D02*
X203204295Y-128127848D01*
X203204295Y-128127848D02*
X203174057Y-128158087D01*
X203174057Y-128158087D02*
X203113581Y-128188325D01*
X203113581Y-128188325D02*
X202992628Y-128188325D01*
X202992628Y-128188325D02*
X202932152Y-128158087D01*
X202932152Y-128158087D02*
X202901914Y-128127848D01*
X202901914Y-128127848D02*
X202871676Y-128067372D01*
X202871676Y-128067372D02*
X202871676Y-127946420D01*
X202871676Y-127946420D02*
X202901914Y-127885944D01*
X202901914Y-127885944D02*
X202932152Y-127855706D01*
X202932152Y-127855706D02*
X202992628Y-127825467D01*
X201601675Y-128188325D02*
X201631914Y-128188325D01*
X201631914Y-128188325D02*
X201692390Y-128158087D01*
X201692390Y-128158087D02*
X201783104Y-128067372D01*
X201783104Y-128067372D02*
X201934294Y-127885944D01*
X201934294Y-127885944D02*
X201994771Y-127795229D01*
X201994771Y-127795229D02*
X202025009Y-127704515D01*
X202025009Y-127704515D02*
X202025009Y-127644039D01*
X202025009Y-127644039D02*
X201994771Y-127583563D01*
X201994771Y-127583563D02*
X201934294Y-127553325D01*
X201934294Y-127553325D02*
X201904056Y-127553325D01*
X201904056Y-127553325D02*
X201843580Y-127583563D01*
X201843580Y-127583563D02*
X201813342Y-127644039D01*
X201813342Y-127644039D02*
X201813342Y-127674277D01*
X201813342Y-127674277D02*
X201843580Y-127734753D01*
X201843580Y-127734753D02*
X201873818Y-127764991D01*
X201873818Y-127764991D02*
X202055247Y-127885944D01*
X202055247Y-127885944D02*
X202085485Y-127916182D01*
X202085485Y-127916182D02*
X202115723Y-127976658D01*
X202115723Y-127976658D02*
X202115723Y-128067372D01*
X202115723Y-128067372D02*
X202085485Y-128127848D01*
X202085485Y-128127848D02*
X202055247Y-128158087D01*
X202055247Y-128158087D02*
X201994771Y-128188325D01*
X201994771Y-128188325D02*
X201904056Y-128188325D01*
X201904056Y-128188325D02*
X201843580Y-128158087D01*
X201843580Y-128158087D02*
X201813342Y-128127848D01*
X201813342Y-128127848D02*
X201722628Y-128006896D01*
X201722628Y-128006896D02*
X201692390Y-127916182D01*
X201692390Y-127916182D02*
X201692390Y-127855706D01*
X200573580Y-127764991D02*
X200573580Y-128188325D01*
X200724771Y-127523087D02*
X200875961Y-127976658D01*
X200875961Y-127976658D02*
X200482866Y-127976658D01*
X200301437Y-127553325D02*
X199908342Y-127553325D01*
X199908342Y-127553325D02*
X200120009Y-127795229D01*
X200120009Y-127795229D02*
X200029294Y-127795229D01*
X200029294Y-127795229D02*
X199968818Y-127825467D01*
X199968818Y-127825467D02*
X199938580Y-127855706D01*
X199938580Y-127855706D02*
X199908342Y-127916182D01*
X199908342Y-127916182D02*
X199908342Y-128067372D01*
X199908342Y-128067372D02*
X199938580Y-128127848D01*
X199938580Y-128127848D02*
X199968818Y-128158087D01*
X199968818Y-128158087D02*
X200029294Y-128188325D01*
X200029294Y-128188325D02*
X200210723Y-128188325D01*
X200210723Y-128188325D02*
X200271199Y-128158087D01*
X200271199Y-128158087D02*
X200301437Y-128127848D01*
X199364056Y-127553325D02*
X199485009Y-127553325D01*
X199485009Y-127553325D02*
X199545485Y-127583563D01*
X199545485Y-127583563D02*
X199575723Y-127613801D01*
X199575723Y-127613801D02*
X199636199Y-127704515D01*
X199636199Y-127704515D02*
X199666437Y-127825467D01*
X199666437Y-127825467D02*
X199666437Y-128067372D01*
X199666437Y-128067372D02*
X199636199Y-128127848D01*
X199636199Y-128127848D02*
X199605961Y-128158087D01*
X199605961Y-128158087D02*
X199545485Y-128188325D01*
X199545485Y-128188325D02*
X199424532Y-128188325D01*
X199424532Y-128188325D02*
X199364056Y-128158087D01*
X199364056Y-128158087D02*
X199333818Y-128127848D01*
X199333818Y-128127848D02*
X199303580Y-128067372D01*
X199303580Y-128067372D02*
X199303580Y-127916182D01*
X199303580Y-127916182D02*
X199333818Y-127855706D01*
X199333818Y-127855706D02*
X199364056Y-127825467D01*
X199364056Y-127825467D02*
X199424532Y-127795229D01*
X199424532Y-127795229D02*
X199545485Y-127795229D01*
X199545485Y-127795229D02*
X199605961Y-127825467D01*
X199605961Y-127825467D02*
X199636199Y-127855706D01*
X199636199Y-127855706D02*
X199666437Y-127916182D01*
X198910485Y-127553325D02*
X198850008Y-127553325D01*
X198850008Y-127553325D02*
X198789532Y-127583563D01*
X198789532Y-127583563D02*
X198759294Y-127613801D01*
X198759294Y-127613801D02*
X198729056Y-127674277D01*
X198729056Y-127674277D02*
X198698818Y-127795229D01*
X198698818Y-127795229D02*
X198698818Y-127946420D01*
X198698818Y-127946420D02*
X198729056Y-128067372D01*
X198729056Y-128067372D02*
X198759294Y-128127848D01*
X198759294Y-128127848D02*
X198789532Y-128158087D01*
X198789532Y-128158087D02*
X198850008Y-128188325D01*
X198850008Y-128188325D02*
X198910485Y-128188325D01*
X198910485Y-128188325D02*
X198970961Y-128158087D01*
X198970961Y-128158087D02*
X199001199Y-128127848D01*
X199001199Y-128127848D02*
X199031437Y-128067372D01*
X199031437Y-128067372D02*
X199061675Y-127946420D01*
X199061675Y-127946420D02*
X199061675Y-127795229D01*
X199061675Y-127795229D02*
X199031437Y-127674277D01*
X199031437Y-127674277D02*
X199001199Y-127613801D01*
X199001199Y-127613801D02*
X198970961Y-127583563D01*
X198970961Y-127583563D02*
X198910485Y-127553325D01*
X185944392Y-96019441D02*
X185581535Y-96019441D01*
X185762964Y-96654441D02*
X185762964Y-96019441D01*
X185369868Y-96654441D02*
X185369868Y-96019441D01*
X185369868Y-96019441D02*
X185127963Y-96019441D01*
X185127963Y-96019441D02*
X185067487Y-96049679D01*
X185067487Y-96049679D02*
X185037249Y-96079917D01*
X185037249Y-96079917D02*
X185007011Y-96140393D01*
X185007011Y-96140393D02*
X185007011Y-96231107D01*
X185007011Y-96231107D02*
X185037249Y-96291583D01*
X185037249Y-96291583D02*
X185067487Y-96321822D01*
X185067487Y-96321822D02*
X185127963Y-96352060D01*
X185127963Y-96352060D02*
X185369868Y-96352060D01*
X184402249Y-96654441D02*
X184765106Y-96654441D01*
X184583678Y-96654441D02*
X184583678Y-96019441D01*
X184583678Y-96019441D02*
X184644154Y-96110155D01*
X184644154Y-96110155D02*
X184704630Y-96170631D01*
X184704630Y-96170631D02*
X184765106Y-96200869D01*
X183646296Y-96321822D02*
X183162487Y-96321822D01*
X183162487Y-96503250D02*
X183646296Y-96503250D01*
X182436772Y-96019441D02*
X182043677Y-96019441D01*
X182043677Y-96019441D02*
X182255344Y-96261345D01*
X182255344Y-96261345D02*
X182164629Y-96261345D01*
X182164629Y-96261345D02*
X182104153Y-96291583D01*
X182104153Y-96291583D02*
X182073915Y-96321822D01*
X182073915Y-96321822D02*
X182043677Y-96382298D01*
X182043677Y-96382298D02*
X182043677Y-96533488D01*
X182043677Y-96533488D02*
X182073915Y-96593964D01*
X182073915Y-96593964D02*
X182104153Y-96624203D01*
X182104153Y-96624203D02*
X182164629Y-96654441D01*
X182164629Y-96654441D02*
X182346058Y-96654441D01*
X182346058Y-96654441D02*
X182406534Y-96624203D01*
X182406534Y-96624203D02*
X182436772Y-96593964D01*
X181771534Y-96593964D02*
X181741296Y-96624203D01*
X181741296Y-96624203D02*
X181771534Y-96654441D01*
X181771534Y-96654441D02*
X181801772Y-96624203D01*
X181801772Y-96624203D02*
X181771534Y-96593964D01*
X181771534Y-96593964D02*
X181771534Y-96654441D01*
X181529629Y-96019441D02*
X181136534Y-96019441D01*
X181136534Y-96019441D02*
X181348201Y-96261345D01*
X181348201Y-96261345D02*
X181257486Y-96261345D01*
X181257486Y-96261345D02*
X181197010Y-96291583D01*
X181197010Y-96291583D02*
X181166772Y-96321822D01*
X181166772Y-96321822D02*
X181136534Y-96382298D01*
X181136534Y-96382298D02*
X181136534Y-96533488D01*
X181136534Y-96533488D02*
X181166772Y-96593964D01*
X181166772Y-96593964D02*
X181197010Y-96624203D01*
X181197010Y-96624203D02*
X181257486Y-96654441D01*
X181257486Y-96654441D02*
X181438915Y-96654441D01*
X181438915Y-96654441D02*
X181499391Y-96624203D01*
X181499391Y-96624203D02*
X181529629Y-96593964D01*
X180955105Y-96019441D02*
X180743439Y-96654441D01*
X180743439Y-96654441D02*
X180531772Y-96019441D01*
X185944392Y-97041755D02*
X185581535Y-97041755D01*
X185762964Y-97676755D02*
X185762964Y-97041755D01*
X185369868Y-97676755D02*
X185369868Y-97041755D01*
X185369868Y-97041755D02*
X185127963Y-97041755D01*
X185127963Y-97041755D02*
X185067487Y-97071993D01*
X185067487Y-97071993D02*
X185037249Y-97102231D01*
X185037249Y-97102231D02*
X185007011Y-97162707D01*
X185007011Y-97162707D02*
X185007011Y-97253421D01*
X185007011Y-97253421D02*
X185037249Y-97313897D01*
X185037249Y-97313897D02*
X185067487Y-97344136D01*
X185067487Y-97344136D02*
X185127963Y-97374374D01*
X185127963Y-97374374D02*
X185369868Y-97374374D01*
X184765106Y-97102231D02*
X184734868Y-97071993D01*
X184734868Y-97071993D02*
X184674392Y-97041755D01*
X184674392Y-97041755D02*
X184523201Y-97041755D01*
X184523201Y-97041755D02*
X184462725Y-97071993D01*
X184462725Y-97071993D02*
X184432487Y-97102231D01*
X184432487Y-97102231D02*
X184402249Y-97162707D01*
X184402249Y-97162707D02*
X184402249Y-97223183D01*
X184402249Y-97223183D02*
X184432487Y-97313897D01*
X184432487Y-97313897D02*
X184795344Y-97676755D01*
X184795344Y-97676755D02*
X184402249Y-97676755D01*
X183646296Y-97344136D02*
X183162487Y-97344136D01*
X183162487Y-97525564D02*
X183646296Y-97525564D01*
X182467010Y-97041755D02*
X182104153Y-97041755D01*
X182285582Y-97676755D02*
X182285582Y-97041755D01*
X181771534Y-97041755D02*
X181650581Y-97041755D01*
X181650581Y-97041755D02*
X181590105Y-97071993D01*
X181590105Y-97071993D02*
X181529629Y-97132469D01*
X181529629Y-97132469D02*
X181499391Y-97253421D01*
X181499391Y-97253421D02*
X181499391Y-97465088D01*
X181499391Y-97465088D02*
X181529629Y-97586040D01*
X181529629Y-97586040D02*
X181590105Y-97646517D01*
X181590105Y-97646517D02*
X181650581Y-97676755D01*
X181650581Y-97676755D02*
X181771534Y-97676755D01*
X181771534Y-97676755D02*
X181832010Y-97646517D01*
X181832010Y-97646517D02*
X181892486Y-97586040D01*
X181892486Y-97586040D02*
X181922724Y-97465088D01*
X181922724Y-97465088D02*
X181922724Y-97253421D01*
X181922724Y-97253421D02*
X181892486Y-97132469D01*
X181892486Y-97132469D02*
X181832010Y-97071993D01*
X181832010Y-97071993D02*
X181771534Y-97041755D01*
X181015581Y-97344136D02*
X181227248Y-97344136D01*
X181227248Y-97676755D02*
X181227248Y-97041755D01*
X181227248Y-97041755D02*
X180924867Y-97041755D01*
X180834153Y-97737231D02*
X180350343Y-97737231D01*
X180229390Y-97646517D02*
X180138676Y-97676755D01*
X180138676Y-97676755D02*
X179987485Y-97676755D01*
X179987485Y-97676755D02*
X179927009Y-97646517D01*
X179927009Y-97646517D02*
X179896771Y-97616278D01*
X179896771Y-97616278D02*
X179866533Y-97555802D01*
X179866533Y-97555802D02*
X179866533Y-97495326D01*
X179866533Y-97495326D02*
X179896771Y-97434850D01*
X179896771Y-97434850D02*
X179927009Y-97404612D01*
X179927009Y-97404612D02*
X179987485Y-97374374D01*
X179987485Y-97374374D02*
X180108438Y-97344136D01*
X180108438Y-97344136D02*
X180168914Y-97313897D01*
X180168914Y-97313897D02*
X180199152Y-97283659D01*
X180199152Y-97283659D02*
X180229390Y-97223183D01*
X180229390Y-97223183D02*
X180229390Y-97162707D01*
X180229390Y-97162707D02*
X180199152Y-97102231D01*
X180199152Y-97102231D02*
X180168914Y-97071993D01*
X180168914Y-97071993D02*
X180108438Y-97041755D01*
X180108438Y-97041755D02*
X179957247Y-97041755D01*
X179957247Y-97041755D02*
X179866533Y-97071993D01*
X179594390Y-97676755D02*
X179594390Y-97041755D01*
X179594390Y-97041755D02*
X179443200Y-97041755D01*
X179443200Y-97041755D02*
X179352485Y-97071993D01*
X179352485Y-97071993D02*
X179292009Y-97132469D01*
X179292009Y-97132469D02*
X179261771Y-97192945D01*
X179261771Y-97192945D02*
X179231533Y-97313897D01*
X179231533Y-97313897D02*
X179231533Y-97404612D01*
X179231533Y-97404612D02*
X179261771Y-97525564D01*
X179261771Y-97525564D02*
X179292009Y-97586040D01*
X179292009Y-97586040D02*
X179352485Y-97646517D01*
X179352485Y-97646517D02*
X179443200Y-97676755D01*
X179443200Y-97676755D02*
X179594390Y-97676755D01*
X178989628Y-97495326D02*
X178687247Y-97495326D01*
X179050104Y-97676755D02*
X178838438Y-97041755D01*
X178838438Y-97041755D02*
X178626771Y-97676755D01*
X185944392Y-98064069D02*
X185581535Y-98064069D01*
X185762964Y-98699069D02*
X185762964Y-98064069D01*
X185369868Y-98699069D02*
X185369868Y-98064069D01*
X185369868Y-98064069D02*
X185127963Y-98064069D01*
X185127963Y-98064069D02*
X185067487Y-98094307D01*
X185067487Y-98094307D02*
X185037249Y-98124545D01*
X185037249Y-98124545D02*
X185007011Y-98185021D01*
X185007011Y-98185021D02*
X185007011Y-98275735D01*
X185007011Y-98275735D02*
X185037249Y-98336211D01*
X185037249Y-98336211D02*
X185067487Y-98366450D01*
X185067487Y-98366450D02*
X185127963Y-98396688D01*
X185127963Y-98396688D02*
X185369868Y-98396688D01*
X184795344Y-98064069D02*
X184402249Y-98064069D01*
X184402249Y-98064069D02*
X184613916Y-98305973D01*
X184613916Y-98305973D02*
X184523201Y-98305973D01*
X184523201Y-98305973D02*
X184462725Y-98336211D01*
X184462725Y-98336211D02*
X184432487Y-98366450D01*
X184432487Y-98366450D02*
X184402249Y-98426926D01*
X184402249Y-98426926D02*
X184402249Y-98578116D01*
X184402249Y-98578116D02*
X184432487Y-98638592D01*
X184432487Y-98638592D02*
X184462725Y-98668831D01*
X184462725Y-98668831D02*
X184523201Y-98699069D01*
X184523201Y-98699069D02*
X184704630Y-98699069D01*
X184704630Y-98699069D02*
X184765106Y-98668831D01*
X184765106Y-98668831D02*
X184795344Y-98638592D01*
X183646296Y-98366450D02*
X183162487Y-98366450D01*
X183162487Y-98547878D02*
X183646296Y-98547878D01*
X182467010Y-98064069D02*
X182255344Y-98699069D01*
X182255344Y-98699069D02*
X182043677Y-98064069D01*
X181469153Y-98638592D02*
X181499391Y-98668831D01*
X181499391Y-98668831D02*
X181590105Y-98699069D01*
X181590105Y-98699069D02*
X181650581Y-98699069D01*
X181650581Y-98699069D02*
X181741296Y-98668831D01*
X181741296Y-98668831D02*
X181801772Y-98608354D01*
X181801772Y-98608354D02*
X181832010Y-98547878D01*
X181832010Y-98547878D02*
X181862248Y-98426926D01*
X181862248Y-98426926D02*
X181862248Y-98336211D01*
X181862248Y-98336211D02*
X181832010Y-98215259D01*
X181832010Y-98215259D02*
X181801772Y-98154783D01*
X181801772Y-98154783D02*
X181741296Y-98094307D01*
X181741296Y-98094307D02*
X181650581Y-98064069D01*
X181650581Y-98064069D02*
X181590105Y-98064069D01*
X181590105Y-98064069D02*
X181499391Y-98094307D01*
X181499391Y-98094307D02*
X181469153Y-98124545D01*
X180834153Y-98638592D02*
X180864391Y-98668831D01*
X180864391Y-98668831D02*
X180955105Y-98699069D01*
X180955105Y-98699069D02*
X181015581Y-98699069D01*
X181015581Y-98699069D02*
X181106296Y-98668831D01*
X181106296Y-98668831D02*
X181166772Y-98608354D01*
X181166772Y-98608354D02*
X181197010Y-98547878D01*
X181197010Y-98547878D02*
X181227248Y-98426926D01*
X181227248Y-98426926D02*
X181227248Y-98336211D01*
X181227248Y-98336211D02*
X181197010Y-98215259D01*
X181197010Y-98215259D02*
X181166772Y-98154783D01*
X181166772Y-98154783D02*
X181106296Y-98094307D01*
X181106296Y-98094307D02*
X181015581Y-98064069D01*
X181015581Y-98064069D02*
X180955105Y-98064069D01*
X180955105Y-98064069D02*
X180864391Y-98094307D01*
X180864391Y-98094307D02*
X180834153Y-98124545D01*
X185944392Y-99086383D02*
X185581535Y-99086383D01*
X185762964Y-99721383D02*
X185762964Y-99086383D01*
X185369868Y-99721383D02*
X185369868Y-99086383D01*
X185369868Y-99086383D02*
X185127963Y-99086383D01*
X185127963Y-99086383D02*
X185067487Y-99116621D01*
X185067487Y-99116621D02*
X185037249Y-99146859D01*
X185037249Y-99146859D02*
X185007011Y-99207335D01*
X185007011Y-99207335D02*
X185007011Y-99298049D01*
X185007011Y-99298049D02*
X185037249Y-99358525D01*
X185037249Y-99358525D02*
X185067487Y-99388764D01*
X185067487Y-99388764D02*
X185127963Y-99419002D01*
X185127963Y-99419002D02*
X185369868Y-99419002D01*
X184462725Y-99298049D02*
X184462725Y-99721383D01*
X184613916Y-99056145D02*
X184765106Y-99509716D01*
X184765106Y-99509716D02*
X184372011Y-99509716D01*
X183646296Y-99388764D02*
X183162487Y-99388764D01*
X183162487Y-99570192D02*
X183646296Y-99570192D01*
X182467010Y-99086383D02*
X182104153Y-99086383D01*
X182285582Y-99721383D02*
X182285582Y-99086383D01*
X181771534Y-99086383D02*
X181650581Y-99086383D01*
X181650581Y-99086383D02*
X181590105Y-99116621D01*
X181590105Y-99116621D02*
X181529629Y-99177097D01*
X181529629Y-99177097D02*
X181499391Y-99298049D01*
X181499391Y-99298049D02*
X181499391Y-99509716D01*
X181499391Y-99509716D02*
X181529629Y-99630668D01*
X181529629Y-99630668D02*
X181590105Y-99691145D01*
X181590105Y-99691145D02*
X181650581Y-99721383D01*
X181650581Y-99721383D02*
X181771534Y-99721383D01*
X181771534Y-99721383D02*
X181832010Y-99691145D01*
X181832010Y-99691145D02*
X181892486Y-99630668D01*
X181892486Y-99630668D02*
X181922724Y-99509716D01*
X181922724Y-99509716D02*
X181922724Y-99298049D01*
X181922724Y-99298049D02*
X181892486Y-99177097D01*
X181892486Y-99177097D02*
X181832010Y-99116621D01*
X181832010Y-99116621D02*
X181771534Y-99086383D01*
X181015581Y-99388764D02*
X181227248Y-99388764D01*
X181227248Y-99721383D02*
X181227248Y-99086383D01*
X181227248Y-99086383D02*
X180924867Y-99086383D01*
X180834153Y-99781859D02*
X180350343Y-99781859D01*
X180229390Y-99691145D02*
X180138676Y-99721383D01*
X180138676Y-99721383D02*
X179987485Y-99721383D01*
X179987485Y-99721383D02*
X179927009Y-99691145D01*
X179927009Y-99691145D02*
X179896771Y-99660906D01*
X179896771Y-99660906D02*
X179866533Y-99600430D01*
X179866533Y-99600430D02*
X179866533Y-99539954D01*
X179866533Y-99539954D02*
X179896771Y-99479478D01*
X179896771Y-99479478D02*
X179927009Y-99449240D01*
X179927009Y-99449240D02*
X179987485Y-99419002D01*
X179987485Y-99419002D02*
X180108438Y-99388764D01*
X180108438Y-99388764D02*
X180168914Y-99358525D01*
X180168914Y-99358525D02*
X180199152Y-99328287D01*
X180199152Y-99328287D02*
X180229390Y-99267811D01*
X180229390Y-99267811D02*
X180229390Y-99207335D01*
X180229390Y-99207335D02*
X180199152Y-99146859D01*
X180199152Y-99146859D02*
X180168914Y-99116621D01*
X180168914Y-99116621D02*
X180108438Y-99086383D01*
X180108438Y-99086383D02*
X179957247Y-99086383D01*
X179957247Y-99086383D02*
X179866533Y-99116621D01*
X179231533Y-99660906D02*
X179261771Y-99691145D01*
X179261771Y-99691145D02*
X179352485Y-99721383D01*
X179352485Y-99721383D02*
X179412961Y-99721383D01*
X179412961Y-99721383D02*
X179503676Y-99691145D01*
X179503676Y-99691145D02*
X179564152Y-99630668D01*
X179564152Y-99630668D02*
X179594390Y-99570192D01*
X179594390Y-99570192D02*
X179624628Y-99449240D01*
X179624628Y-99449240D02*
X179624628Y-99358525D01*
X179624628Y-99358525D02*
X179594390Y-99237573D01*
X179594390Y-99237573D02*
X179564152Y-99177097D01*
X179564152Y-99177097D02*
X179503676Y-99116621D01*
X179503676Y-99116621D02*
X179412961Y-99086383D01*
X179412961Y-99086383D02*
X179352485Y-99086383D01*
X179352485Y-99086383D02*
X179261771Y-99116621D01*
X179261771Y-99116621D02*
X179231533Y-99146859D01*
X178657009Y-99721383D02*
X178959390Y-99721383D01*
X178959390Y-99721383D02*
X178959390Y-99086383D01*
X185944392Y-100108697D02*
X185581535Y-100108697D01*
X185762964Y-100743697D02*
X185762964Y-100108697D01*
X185369868Y-100743697D02*
X185369868Y-100108697D01*
X185369868Y-100108697D02*
X185127963Y-100108697D01*
X185127963Y-100108697D02*
X185067487Y-100138935D01*
X185067487Y-100138935D02*
X185037249Y-100169173D01*
X185037249Y-100169173D02*
X185007011Y-100229649D01*
X185007011Y-100229649D02*
X185007011Y-100320363D01*
X185007011Y-100320363D02*
X185037249Y-100380839D01*
X185037249Y-100380839D02*
X185067487Y-100411078D01*
X185067487Y-100411078D02*
X185127963Y-100441316D01*
X185127963Y-100441316D02*
X185369868Y-100441316D01*
X184432487Y-100108697D02*
X184734868Y-100108697D01*
X184734868Y-100108697D02*
X184765106Y-100411078D01*
X184765106Y-100411078D02*
X184734868Y-100380839D01*
X184734868Y-100380839D02*
X184674392Y-100350601D01*
X184674392Y-100350601D02*
X184523201Y-100350601D01*
X184523201Y-100350601D02*
X184462725Y-100380839D01*
X184462725Y-100380839D02*
X184432487Y-100411078D01*
X184432487Y-100411078D02*
X184402249Y-100471554D01*
X184402249Y-100471554D02*
X184402249Y-100622744D01*
X184402249Y-100622744D02*
X184432487Y-100683220D01*
X184432487Y-100683220D02*
X184462725Y-100713459D01*
X184462725Y-100713459D02*
X184523201Y-100743697D01*
X184523201Y-100743697D02*
X184674392Y-100743697D01*
X184674392Y-100743697D02*
X184734868Y-100713459D01*
X184734868Y-100713459D02*
X184765106Y-100683220D01*
X183646296Y-100411078D02*
X183162487Y-100411078D01*
X183162487Y-100592506D02*
X183646296Y-100592506D01*
X182467010Y-100108697D02*
X182104153Y-100108697D01*
X182285582Y-100743697D02*
X182285582Y-100108697D01*
X181771534Y-100108697D02*
X181650581Y-100108697D01*
X181650581Y-100108697D02*
X181590105Y-100138935D01*
X181590105Y-100138935D02*
X181529629Y-100199411D01*
X181529629Y-100199411D02*
X181499391Y-100320363D01*
X181499391Y-100320363D02*
X181499391Y-100532030D01*
X181499391Y-100532030D02*
X181529629Y-100652982D01*
X181529629Y-100652982D02*
X181590105Y-100713459D01*
X181590105Y-100713459D02*
X181650581Y-100743697D01*
X181650581Y-100743697D02*
X181771534Y-100743697D01*
X181771534Y-100743697D02*
X181832010Y-100713459D01*
X181832010Y-100713459D02*
X181892486Y-100652982D01*
X181892486Y-100652982D02*
X181922724Y-100532030D01*
X181922724Y-100532030D02*
X181922724Y-100320363D01*
X181922724Y-100320363D02*
X181892486Y-100199411D01*
X181892486Y-100199411D02*
X181832010Y-100138935D01*
X181832010Y-100138935D02*
X181771534Y-100108697D01*
X181015581Y-100411078D02*
X181227248Y-100411078D01*
X181227248Y-100743697D02*
X181227248Y-100108697D01*
X181227248Y-100108697D02*
X180924867Y-100108697D01*
X180834153Y-100804173D02*
X180350343Y-100804173D01*
X180199152Y-100743697D02*
X180199152Y-100108697D01*
X179896771Y-100743697D02*
X179896771Y-100108697D01*
X179896771Y-100108697D02*
X179533914Y-100743697D01*
X179533914Y-100743697D02*
X179533914Y-100108697D01*
X179322247Y-100108697D02*
X178959390Y-100108697D01*
X179140819Y-100743697D02*
X179140819Y-100108697D01*
X185944392Y-101131011D02*
X185581535Y-101131011D01*
X185762964Y-101766011D02*
X185762964Y-101131011D01*
X185369868Y-101766011D02*
X185369868Y-101131011D01*
X185369868Y-101131011D02*
X185127963Y-101131011D01*
X185127963Y-101131011D02*
X185067487Y-101161249D01*
X185067487Y-101161249D02*
X185037249Y-101191487D01*
X185037249Y-101191487D02*
X185007011Y-101251963D01*
X185007011Y-101251963D02*
X185007011Y-101342677D01*
X185007011Y-101342677D02*
X185037249Y-101403153D01*
X185037249Y-101403153D02*
X185067487Y-101433392D01*
X185067487Y-101433392D02*
X185127963Y-101463630D01*
X185127963Y-101463630D02*
X185369868Y-101463630D01*
X184462725Y-101131011D02*
X184583678Y-101131011D01*
X184583678Y-101131011D02*
X184644154Y-101161249D01*
X184644154Y-101161249D02*
X184674392Y-101191487D01*
X184674392Y-101191487D02*
X184734868Y-101282201D01*
X184734868Y-101282201D02*
X184765106Y-101403153D01*
X184765106Y-101403153D02*
X184765106Y-101645058D01*
X184765106Y-101645058D02*
X184734868Y-101705534D01*
X184734868Y-101705534D02*
X184704630Y-101735773D01*
X184704630Y-101735773D02*
X184644154Y-101766011D01*
X184644154Y-101766011D02*
X184523201Y-101766011D01*
X184523201Y-101766011D02*
X184462725Y-101735773D01*
X184462725Y-101735773D02*
X184432487Y-101705534D01*
X184432487Y-101705534D02*
X184402249Y-101645058D01*
X184402249Y-101645058D02*
X184402249Y-101493868D01*
X184402249Y-101493868D02*
X184432487Y-101433392D01*
X184432487Y-101433392D02*
X184462725Y-101403153D01*
X184462725Y-101403153D02*
X184523201Y-101372915D01*
X184523201Y-101372915D02*
X184644154Y-101372915D01*
X184644154Y-101372915D02*
X184704630Y-101403153D01*
X184704630Y-101403153D02*
X184734868Y-101433392D01*
X184734868Y-101433392D02*
X184765106Y-101493868D01*
X183646296Y-101433392D02*
X183162487Y-101433392D01*
X183162487Y-101614820D02*
X183646296Y-101614820D01*
X182467010Y-101131011D02*
X182104153Y-101131011D01*
X182285582Y-101766011D02*
X182285582Y-101131011D01*
X181771534Y-101131011D02*
X181650581Y-101131011D01*
X181650581Y-101131011D02*
X181590105Y-101161249D01*
X181590105Y-101161249D02*
X181529629Y-101221725D01*
X181529629Y-101221725D02*
X181499391Y-101342677D01*
X181499391Y-101342677D02*
X181499391Y-101554344D01*
X181499391Y-101554344D02*
X181529629Y-101675296D01*
X181529629Y-101675296D02*
X181590105Y-101735773D01*
X181590105Y-101735773D02*
X181650581Y-101766011D01*
X181650581Y-101766011D02*
X181771534Y-101766011D01*
X181771534Y-101766011D02*
X181832010Y-101735773D01*
X181832010Y-101735773D02*
X181892486Y-101675296D01*
X181892486Y-101675296D02*
X181922724Y-101554344D01*
X181922724Y-101554344D02*
X181922724Y-101342677D01*
X181922724Y-101342677D02*
X181892486Y-101221725D01*
X181892486Y-101221725D02*
X181832010Y-101161249D01*
X181832010Y-101161249D02*
X181771534Y-101131011D01*
X181015581Y-101433392D02*
X181227248Y-101433392D01*
X181227248Y-101766011D02*
X181227248Y-101131011D01*
X181227248Y-101131011D02*
X180924867Y-101131011D01*
X180834153Y-101826487D02*
X180350343Y-101826487D01*
X179836295Y-101766011D02*
X180047962Y-101463630D01*
X180199152Y-101766011D02*
X180199152Y-101131011D01*
X180199152Y-101131011D02*
X179957247Y-101131011D01*
X179957247Y-101131011D02*
X179896771Y-101161249D01*
X179896771Y-101161249D02*
X179866533Y-101191487D01*
X179866533Y-101191487D02*
X179836295Y-101251963D01*
X179836295Y-101251963D02*
X179836295Y-101342677D01*
X179836295Y-101342677D02*
X179866533Y-101403153D01*
X179866533Y-101403153D02*
X179896771Y-101433392D01*
X179896771Y-101433392D02*
X179957247Y-101463630D01*
X179957247Y-101463630D02*
X180199152Y-101463630D01*
X179594390Y-101735773D02*
X179503676Y-101766011D01*
X179503676Y-101766011D02*
X179352485Y-101766011D01*
X179352485Y-101766011D02*
X179292009Y-101735773D01*
X179292009Y-101735773D02*
X179261771Y-101705534D01*
X179261771Y-101705534D02*
X179231533Y-101645058D01*
X179231533Y-101645058D02*
X179231533Y-101584582D01*
X179231533Y-101584582D02*
X179261771Y-101524106D01*
X179261771Y-101524106D02*
X179292009Y-101493868D01*
X179292009Y-101493868D02*
X179352485Y-101463630D01*
X179352485Y-101463630D02*
X179473438Y-101433392D01*
X179473438Y-101433392D02*
X179533914Y-101403153D01*
X179533914Y-101403153D02*
X179564152Y-101372915D01*
X179564152Y-101372915D02*
X179594390Y-101312439D01*
X179594390Y-101312439D02*
X179594390Y-101251963D01*
X179594390Y-101251963D02*
X179564152Y-101191487D01*
X179564152Y-101191487D02*
X179533914Y-101161249D01*
X179533914Y-101161249D02*
X179473438Y-101131011D01*
X179473438Y-101131011D02*
X179322247Y-101131011D01*
X179322247Y-101131011D02*
X179231533Y-101161249D01*
X179050104Y-101131011D02*
X178687247Y-101131011D01*
X178868676Y-101766011D02*
X178868676Y-101131011D01*
X185944392Y-102153325D02*
X185581535Y-102153325D01*
X185762964Y-102788325D02*
X185762964Y-102153325D01*
X185369868Y-102788325D02*
X185369868Y-102153325D01*
X185369868Y-102153325D02*
X185127963Y-102153325D01*
X185127963Y-102153325D02*
X185067487Y-102183563D01*
X185067487Y-102183563D02*
X185037249Y-102213801D01*
X185037249Y-102213801D02*
X185007011Y-102274277D01*
X185007011Y-102274277D02*
X185007011Y-102364991D01*
X185007011Y-102364991D02*
X185037249Y-102425467D01*
X185037249Y-102425467D02*
X185067487Y-102455706D01*
X185067487Y-102455706D02*
X185127963Y-102485944D01*
X185127963Y-102485944D02*
X185369868Y-102485944D01*
X184795344Y-102153325D02*
X184372011Y-102153325D01*
X184372011Y-102153325D02*
X184644154Y-102788325D01*
X183646296Y-102455706D02*
X183162487Y-102455706D01*
X183162487Y-102637134D02*
X183646296Y-102637134D01*
X182043677Y-102183563D02*
X182104153Y-102153325D01*
X182104153Y-102153325D02*
X182194867Y-102153325D01*
X182194867Y-102153325D02*
X182285582Y-102183563D01*
X182285582Y-102183563D02*
X182346058Y-102244039D01*
X182346058Y-102244039D02*
X182376296Y-102304515D01*
X182376296Y-102304515D02*
X182406534Y-102425467D01*
X182406534Y-102425467D02*
X182406534Y-102516182D01*
X182406534Y-102516182D02*
X182376296Y-102637134D01*
X182376296Y-102637134D02*
X182346058Y-102697610D01*
X182346058Y-102697610D02*
X182285582Y-102758087D01*
X182285582Y-102758087D02*
X182194867Y-102788325D01*
X182194867Y-102788325D02*
X182134391Y-102788325D01*
X182134391Y-102788325D02*
X182043677Y-102758087D01*
X182043677Y-102758087D02*
X182013439Y-102727848D01*
X182013439Y-102727848D02*
X182013439Y-102516182D01*
X182013439Y-102516182D02*
X182134391Y-102516182D01*
X181741296Y-102788325D02*
X181741296Y-102153325D01*
X181741296Y-102153325D02*
X181378439Y-102788325D01*
X181378439Y-102788325D02*
X181378439Y-102153325D01*
X181076058Y-102788325D02*
X181076058Y-102153325D01*
X181076058Y-102153325D02*
X180924868Y-102153325D01*
X180924868Y-102153325D02*
X180834153Y-102183563D01*
X180834153Y-102183563D02*
X180773677Y-102244039D01*
X180773677Y-102244039D02*
X180743439Y-102304515D01*
X180743439Y-102304515D02*
X180713201Y-102425467D01*
X180713201Y-102425467D02*
X180713201Y-102516182D01*
X180713201Y-102516182D02*
X180743439Y-102637134D01*
X180743439Y-102637134D02*
X180773677Y-102697610D01*
X180773677Y-102697610D02*
X180834153Y-102758087D01*
X180834153Y-102758087D02*
X180924868Y-102788325D01*
X180924868Y-102788325D02*
X181076058Y-102788325D01*
D11*
X198031819Y-91956095D02*
X198031819Y-92527523D01*
X199031819Y-92241809D02*
X198031819Y-92241809D01*
X199031819Y-92860857D02*
X198031819Y-92860857D01*
X198031819Y-92860857D02*
X198031819Y-93241809D01*
X198031819Y-93241809D02*
X198079438Y-93337047D01*
X198079438Y-93337047D02*
X198127057Y-93384666D01*
X198127057Y-93384666D02*
X198222295Y-93432285D01*
X198222295Y-93432285D02*
X198365152Y-93432285D01*
X198365152Y-93432285D02*
X198460390Y-93384666D01*
X198460390Y-93384666D02*
X198508009Y-93337047D01*
X198508009Y-93337047D02*
X198555628Y-93241809D01*
X198555628Y-93241809D02*
X198555628Y-92860857D01*
X198031819Y-93765619D02*
X198031819Y-94432285D01*
X198031819Y-94432285D02*
X199031819Y-94003714D01*
X186427904Y-88481819D02*
X185856476Y-88481819D01*
X186142190Y-89481819D02*
X186142190Y-88481819D01*
X185523142Y-89481819D02*
X185523142Y-88481819D01*
X185523142Y-88481819D02*
X185142190Y-88481819D01*
X185142190Y-88481819D02*
X185046952Y-88529438D01*
X185046952Y-88529438D02*
X184999333Y-88577057D01*
X184999333Y-88577057D02*
X184951714Y-88672295D01*
X184951714Y-88672295D02*
X184951714Y-88815152D01*
X184951714Y-88815152D02*
X184999333Y-88910390D01*
X184999333Y-88910390D02*
X185046952Y-88958009D01*
X185046952Y-88958009D02*
X185142190Y-89005628D01*
X185142190Y-89005628D02*
X185523142Y-89005628D01*
X184094571Y-88481819D02*
X184285047Y-88481819D01*
X184285047Y-88481819D02*
X184380285Y-88529438D01*
X184380285Y-88529438D02*
X184427904Y-88577057D01*
X184427904Y-88577057D02*
X184523142Y-88719914D01*
X184523142Y-88719914D02*
X184570761Y-88910390D01*
X184570761Y-88910390D02*
X184570761Y-89291342D01*
X184570761Y-89291342D02*
X184523142Y-89386580D01*
X184523142Y-89386580D02*
X184475523Y-89434200D01*
X184475523Y-89434200D02*
X184380285Y-89481819D01*
X184380285Y-89481819D02*
X184189809Y-89481819D01*
X184189809Y-89481819D02*
X184094571Y-89434200D01*
X184094571Y-89434200D02*
X184046952Y-89386580D01*
X184046952Y-89386580D02*
X183999333Y-89291342D01*
X183999333Y-89291342D02*
X183999333Y-89053247D01*
X183999333Y-89053247D02*
X184046952Y-88958009D01*
X184046952Y-88958009D02*
X184094571Y-88910390D01*
X184094571Y-88910390D02*
X184189809Y-88862771D01*
X184189809Y-88862771D02*
X184380285Y-88862771D01*
X184380285Y-88862771D02*
X184475523Y-88910390D01*
X184475523Y-88910390D02*
X184523142Y-88958009D01*
X184523142Y-88958009D02*
X184570761Y-89053247D01*
X186808904Y-90386819D02*
X186237476Y-90386819D01*
X186523190Y-91386819D02*
X186523190Y-90386819D01*
X185904142Y-91386819D02*
X185904142Y-90386819D01*
X185904142Y-90386819D02*
X185523190Y-90386819D01*
X185523190Y-90386819D02*
X185427952Y-90434438D01*
X185427952Y-90434438D02*
X185380333Y-90482057D01*
X185380333Y-90482057D02*
X185332714Y-90577295D01*
X185332714Y-90577295D02*
X185332714Y-90720152D01*
X185332714Y-90720152D02*
X185380333Y-90815390D01*
X185380333Y-90815390D02*
X185427952Y-90863009D01*
X185427952Y-90863009D02*
X185523190Y-90910628D01*
X185523190Y-90910628D02*
X185904142Y-90910628D01*
X184427952Y-90386819D02*
X184904142Y-90386819D01*
X184904142Y-90386819D02*
X184951761Y-90863009D01*
X184951761Y-90863009D02*
X184904142Y-90815390D01*
X184904142Y-90815390D02*
X184808904Y-90767771D01*
X184808904Y-90767771D02*
X184570809Y-90767771D01*
X184570809Y-90767771D02*
X184475571Y-90815390D01*
X184475571Y-90815390D02*
X184427952Y-90863009D01*
X184427952Y-90863009D02*
X184380333Y-90958247D01*
X184380333Y-90958247D02*
X184380333Y-91196342D01*
X184380333Y-91196342D02*
X184427952Y-91291580D01*
X184427952Y-91291580D02*
X184475571Y-91339200D01*
X184475571Y-91339200D02*
X184570809Y-91386819D01*
X184570809Y-91386819D02*
X184808904Y-91386819D01*
X184808904Y-91386819D02*
X184904142Y-91339200D01*
X184904142Y-91339200D02*
X184951761Y-91291580D01*
X194301904Y-97752819D02*
X193730476Y-97752819D01*
X194016190Y-98752819D02*
X194016190Y-97752819D01*
X193397142Y-98752819D02*
X193397142Y-97752819D01*
X193397142Y-97752819D02*
X193016190Y-97752819D01*
X193016190Y-97752819D02*
X192920952Y-97800438D01*
X192920952Y-97800438D02*
X192873333Y-97848057D01*
X192873333Y-97848057D02*
X192825714Y-97943295D01*
X192825714Y-97943295D02*
X192825714Y-98086152D01*
X192825714Y-98086152D02*
X192873333Y-98181390D01*
X192873333Y-98181390D02*
X192920952Y-98229009D01*
X192920952Y-98229009D02*
X193016190Y-98276628D01*
X193016190Y-98276628D02*
X193397142Y-98276628D01*
X191968571Y-98086152D02*
X191968571Y-98752819D01*
X192206666Y-97705200D02*
X192444761Y-98419485D01*
X192444761Y-98419485D02*
X191825714Y-98419485D01*
X189094904Y-95720819D02*
X188523476Y-95720819D01*
X188809190Y-96720819D02*
X188809190Y-95720819D01*
X188190142Y-96720819D02*
X188190142Y-95720819D01*
X188190142Y-95720819D02*
X187809190Y-95720819D01*
X187809190Y-95720819D02*
X187713952Y-95768438D01*
X187713952Y-95768438D02*
X187666333Y-95816057D01*
X187666333Y-95816057D02*
X187618714Y-95911295D01*
X187618714Y-95911295D02*
X187618714Y-96054152D01*
X187618714Y-96054152D02*
X187666333Y-96149390D01*
X187666333Y-96149390D02*
X187713952Y-96197009D01*
X187713952Y-96197009D02*
X187809190Y-96244628D01*
X187809190Y-96244628D02*
X188190142Y-96244628D01*
X187237761Y-95816057D02*
X187190142Y-95768438D01*
X187190142Y-95768438D02*
X187094904Y-95720819D01*
X187094904Y-95720819D02*
X186856809Y-95720819D01*
X186856809Y-95720819D02*
X186761571Y-95768438D01*
X186761571Y-95768438D02*
X186713952Y-95816057D01*
X186713952Y-95816057D02*
X186666333Y-95911295D01*
X186666333Y-95911295D02*
X186666333Y-96006533D01*
X186666333Y-96006533D02*
X186713952Y-96149390D01*
X186713952Y-96149390D02*
X187285380Y-96720819D01*
X187285380Y-96720819D02*
X186666333Y-96720819D01*
X185919904Y-118656819D02*
X185348476Y-118656819D01*
X185634190Y-119656819D02*
X185634190Y-118656819D01*
X185015142Y-119656819D02*
X185015142Y-118656819D01*
X185015142Y-118656819D02*
X184634190Y-118656819D01*
X184634190Y-118656819D02*
X184538952Y-118704438D01*
X184538952Y-118704438D02*
X184491333Y-118752057D01*
X184491333Y-118752057D02*
X184443714Y-118847295D01*
X184443714Y-118847295D02*
X184443714Y-118990152D01*
X184443714Y-118990152D02*
X184491333Y-119085390D01*
X184491333Y-119085390D02*
X184538952Y-119133009D01*
X184538952Y-119133009D02*
X184634190Y-119180628D01*
X184634190Y-119180628D02*
X185015142Y-119180628D01*
X183491333Y-119656819D02*
X184062761Y-119656819D01*
X183777047Y-119656819D02*
X183777047Y-118656819D01*
X183777047Y-118656819D02*
X183872285Y-118799676D01*
X183872285Y-118799676D02*
X183967523Y-118894914D01*
X183967523Y-118894914D02*
X184062761Y-118942533D01*
X189856904Y-118529819D02*
X189285476Y-118529819D01*
X189571190Y-119529819D02*
X189571190Y-118529819D01*
X188952142Y-119529819D02*
X188952142Y-118529819D01*
X188952142Y-118529819D02*
X188571190Y-118529819D01*
X188571190Y-118529819D02*
X188475952Y-118577438D01*
X188475952Y-118577438D02*
X188428333Y-118625057D01*
X188428333Y-118625057D02*
X188380714Y-118720295D01*
X188380714Y-118720295D02*
X188380714Y-118863152D01*
X188380714Y-118863152D02*
X188428333Y-118958390D01*
X188428333Y-118958390D02*
X188475952Y-119006009D01*
X188475952Y-119006009D02*
X188571190Y-119053628D01*
X188571190Y-119053628D02*
X188952142Y-119053628D01*
X188047380Y-118529819D02*
X187428333Y-118529819D01*
X187428333Y-118529819D02*
X187761666Y-118910771D01*
X187761666Y-118910771D02*
X187618809Y-118910771D01*
X187618809Y-118910771D02*
X187523571Y-118958390D01*
X187523571Y-118958390D02*
X187475952Y-119006009D01*
X187475952Y-119006009D02*
X187428333Y-119101247D01*
X187428333Y-119101247D02*
X187428333Y-119339342D01*
X187428333Y-119339342D02*
X187475952Y-119434580D01*
X187475952Y-119434580D02*
X187523571Y-119482200D01*
X187523571Y-119482200D02*
X187618809Y-119529819D01*
X187618809Y-119529819D02*
X187904523Y-119529819D01*
X187904523Y-119529819D02*
X187999761Y-119482200D01*
X187999761Y-119482200D02*
X188047380Y-119434580D01*
X205481932Y-100833501D02*
X205339075Y-100881120D01*
X205339075Y-100881120D02*
X205100980Y-100881120D01*
X205100980Y-100881120D02*
X205005742Y-100833501D01*
X205005742Y-100833501D02*
X204958123Y-100785881D01*
X204958123Y-100785881D02*
X204910504Y-100690643D01*
X204910504Y-100690643D02*
X204910504Y-100595405D01*
X204910504Y-100595405D02*
X204958123Y-100500167D01*
X204958123Y-100500167D02*
X205005742Y-100452548D01*
X205005742Y-100452548D02*
X205100980Y-100404929D01*
X205100980Y-100404929D02*
X205291456Y-100357310D01*
X205291456Y-100357310D02*
X205386694Y-100309691D01*
X205386694Y-100309691D02*
X205434313Y-100262072D01*
X205434313Y-100262072D02*
X205481932Y-100166834D01*
X205481932Y-100166834D02*
X205481932Y-100071596D01*
X205481932Y-100071596D02*
X205434313Y-99976358D01*
X205434313Y-99976358D02*
X205386694Y-99928739D01*
X205386694Y-99928739D02*
X205291456Y-99881120D01*
X205291456Y-99881120D02*
X205053361Y-99881120D01*
X205053361Y-99881120D02*
X204910504Y-99928739D01*
X204577170Y-99881120D02*
X204339075Y-100881120D01*
X204339075Y-100881120D02*
X204148599Y-100166834D01*
X204148599Y-100166834D02*
X203958123Y-100881120D01*
X203958123Y-100881120D02*
X203720028Y-99881120D01*
X202815266Y-100881120D02*
X203386694Y-100881120D01*
X203100980Y-100881120D02*
X203100980Y-99881120D01*
X203100980Y-99881120D02*
X203196218Y-100023977D01*
X203196218Y-100023977D02*
X203291456Y-100119215D01*
X203291456Y-100119215D02*
X203386694Y-100166834D01*
D12*
%TO.C,TP7*%
X200725000Y-93218000D02*
G75*
G02*
X199325000Y-93218000I-700000J0D01*
G01*
X199325000Y-93218000D02*
G75*
G02*
X200725000Y-93218000I700000J0D01*
G01*
%TO.C,TP6*%
X189295000Y-88900000D02*
G75*
G02*
X187895000Y-88900000I-700000J0D01*
G01*
X187895000Y-88900000D02*
G75*
G02*
X189295000Y-88900000I700000J0D01*
G01*
%TO.C,TP5*%
X189803000Y-90932000D02*
G75*
G02*
X188403000Y-90932000I-700000J0D01*
G01*
X188403000Y-90932000D02*
G75*
G02*
X189803000Y-90932000I700000J0D01*
G01*
%TO.C,TP4*%
X195391000Y-96647000D02*
G75*
G02*
X193991000Y-96647000I-700000J0D01*
G01*
X193991000Y-96647000D02*
G75*
G02*
X195391000Y-96647000I700000J0D01*
G01*
%TO.C,TP2*%
X191073000Y-96266000D02*
G75*
G02*
X189673000Y-96266000I-700000J0D01*
G01*
X189673000Y-96266000D02*
G75*
G02*
X191073000Y-96266000I700000J0D01*
G01*
%TO.C,J2*%
X202429000Y-89027000D02*
X213369000Y-89027000D01*
X202429000Y-94107000D02*
X202429000Y-89027000D01*
X213369000Y-89027000D02*
X213369000Y-94107000D01*
X213369000Y-94107000D02*
X202429000Y-94107000D01*
%TO.C,TP1*%
X185358000Y-120650000D02*
G75*
G02*
X183958000Y-120650000I-700000J0D01*
G01*
X183958000Y-120650000D02*
G75*
G02*
X185358000Y-120650000I700000J0D01*
G01*
%TO.C,TP3*%
X189295000Y-120523000D02*
G75*
G02*
X187895000Y-120523000I-700000J0D01*
G01*
X187895000Y-120523000D02*
G75*
G02*
X189295000Y-120523000I700000J0D01*
G01*
D13*
%TO.C,SW1*%
X207272800Y-101695862D02*
X207272800Y-99156740D01*
X201917049Y-103550501D02*
X206380151Y-103550501D01*
X206380151Y-97302101D02*
X201917049Y-97302101D01*
X201024400Y-99156740D02*
X201024400Y-101695862D01*
D14*
X209881641Y-98023821D02*
G75*
G02*
X209881641Y-98228782I366959J-102480D01*
G01*
%TD*%
M02*
