%TF.GenerationSoftware,KiCad,Pcbnew,9.0.5-9.0.5~ubuntu24.04.1*%
%TF.CreationDate,2025-10-18T12:27:34-05:00*%
%TF.ProjectId,can_distance_sensor,63616e5f-6469-4737-9461-6e63655f7365,rev?*%
%TF.SameCoordinates,Original*%
%TF.FileFunction,Paste,Top*%
%TF.FilePolarity,Positive*%
%FSLAX46Y46*%
G04 Gerber Fmt 4.6, Leading zero omitted, Abs format (unit mm)*
G04 Created by KiCad (PCBNEW 9.0.5-9.0.5~ubuntu24.04.1) date 2025-10-18 12:27:34*
%MOMM*%
%LPD*%
G01*
G04 APERTURE LIST*
G04 Aperture macros list*
%AMRoundRect*
0 Rectangle with rounded corners*
0 $1 Rounding radius*
0 $2 $3 $4 $5 $6 $7 $8 $9 X,Y pos of 4 corners*
0 Add a 4 corners polygon primitive as box body*
4,1,4,$2,$3,$4,$5,$6,$7,$8,$9,$2,$3,0*
0 Add four circle primitives for the rounded corners*
1,1,$1+$1,$2,$3*
1,1,$1+$1,$4,$5*
1,1,$1+$1,$6,$7*
1,1,$1+$1,$8,$9*
0 Add four rect primitives between the rounded corners*
20,1,$1+$1,$2,$3,$4,$5,0*
20,1,$1+$1,$4,$5,$6,$7,0*
20,1,$1+$1,$6,$7,$8,$9,0*
20,1,$1+$1,$8,$9,$2,$3,0*%
G04 Aperture macros list end*
%ADD10RoundRect,0.232500X0.232500X0.232500X-0.232500X0.232500X-0.232500X-0.232500X0.232500X-0.232500X0*%
%ADD11RoundRect,0.062500X0.375000X0.062500X-0.375000X0.062500X-0.375000X-0.062500X0.375000X-0.062500X0*%
%ADD12RoundRect,0.062500X0.062500X0.375000X-0.062500X0.375000X-0.062500X-0.375000X0.062500X-0.375000X0*%
%ADD13RoundRect,0.150000X-0.587500X-0.150000X0.587500X-0.150000X0.587500X0.150000X-0.587500X0.150000X0*%
%ADD14RoundRect,0.150000X0.150000X-0.587500X0.150000X0.587500X-0.150000X0.587500X-0.150000X-0.587500X0*%
%ADD15RoundRect,0.225000X0.250000X-0.225000X0.250000X0.225000X-0.250000X0.225000X-0.250000X-0.225000X0*%
%ADD16RoundRect,0.135000X-0.185000X0.135000X-0.185000X-0.135000X0.185000X-0.135000X0.185000X0.135000X0*%
%ADD17RoundRect,0.225000X0.375000X-0.225000X0.375000X0.225000X-0.375000X0.225000X-0.375000X-0.225000X0*%
%ADD18RoundRect,0.140000X-0.140000X-0.170000X0.140000X-0.170000X0.140000X0.170000X-0.140000X0.170000X0*%
%ADD19RoundRect,0.140000X0.170000X-0.140000X0.170000X0.140000X-0.170000X0.140000X-0.170000X-0.140000X0*%
%ADD20RoundRect,0.160000X-0.245000X-0.160000X0.245000X-0.160000X0.245000X0.160000X-0.245000X0.160000X0*%
%ADD21RoundRect,0.093750X-0.093750X-0.106250X0.093750X-0.106250X0.093750X0.106250X-0.093750X0.106250X0*%
%ADD22R,1.422400X0.431800*%
%ADD23RoundRect,0.140000X-0.170000X0.140000X-0.170000X-0.140000X0.170000X-0.140000X0.170000X0.140000X0*%
%ADD24RoundRect,0.225000X-0.375000X0.225000X-0.375000X-0.225000X0.375000X-0.225000X0.375000X0.225000X0*%
%ADD25RoundRect,0.225000X0.225000X0.375000X-0.225000X0.375000X-0.225000X-0.375000X0.225000X-0.375000X0*%
%ADD26RoundRect,0.225000X-0.250000X0.225000X-0.250000X-0.225000X0.250000X-0.225000X0.250000X0.225000X0*%
%ADD27RoundRect,0.150000X0.150000X-0.512500X0.150000X0.512500X-0.150000X0.512500X-0.150000X-0.512500X0*%
%ADD28RoundRect,0.135000X0.135000X0.185000X-0.135000X0.185000X-0.135000X-0.185000X0.135000X-0.185000X0*%
%ADD29RoundRect,0.135000X-0.135000X-0.185000X0.135000X-0.185000X0.135000X0.185000X-0.135000X0.185000X0*%
%ADD30RoundRect,0.225000X-0.225000X-0.250000X0.225000X-0.250000X0.225000X0.250000X-0.225000X0.250000X0*%
%ADD31RoundRect,0.218750X-0.218750X-0.256250X0.218750X-0.256250X0.218750X0.256250X-0.218750X0.256250X0*%
%ADD32RoundRect,0.250000X0.375000X1.075000X-0.375000X1.075000X-0.375000X-1.075000X0.375000X-1.075000X0*%
%ADD33RoundRect,0.140000X0.140000X0.170000X-0.140000X0.170000X-0.140000X-0.170000X0.140000X-0.170000X0*%
%ADD34R,1.200000X1.400000*%
%ADD35R,0.508000X0.508000*%
%ADD36RoundRect,0.135000X0.185000X-0.135000X0.185000X0.135000X-0.185000X0.135000X-0.185000X-0.135000X0*%
%ADD37RoundRect,0.075000X-0.362500X-0.075000X0.362500X-0.075000X0.362500X0.075000X-0.362500X0.075000X0*%
%ADD38RoundRect,0.249999X-0.395001X-0.715001X0.395001X-0.715001X0.395001X0.715001X-0.395001X0.715001X0*%
%ADD39RoundRect,0.225000X0.225000X0.250000X-0.225000X0.250000X-0.225000X-0.250000X0.225000X-0.250000X0*%
%ADD40R,0.762000X1.041400*%
%ADD41R,0.762000X0.330200*%
%ADD42RoundRect,0.150000X-0.512500X-0.150000X0.512500X-0.150000X0.512500X0.150000X-0.512500X0.150000X0*%
G04 APERTURE END LIST*
D10*
%TO.C,U9*%
X195884800Y-95892000D03*
X195884800Y-94742000D03*
X195884800Y-93592000D03*
X194734800Y-95892000D03*
X194734800Y-94742000D03*
X194734800Y-93592000D03*
X193584800Y-95892000D03*
X193584800Y-94742000D03*
X193584800Y-93592000D03*
D11*
X197172300Y-96492000D03*
X197172300Y-95992000D03*
X197172300Y-95492000D03*
X197172300Y-94992000D03*
X197172300Y-94492000D03*
X197172300Y-93992000D03*
X197172300Y-93492000D03*
X197172300Y-92992000D03*
D12*
X196484800Y-92304500D03*
X195984800Y-92304500D03*
X195484800Y-92304500D03*
X194984800Y-92304500D03*
X194484800Y-92304500D03*
X193984800Y-92304500D03*
X193484800Y-92304500D03*
X192984800Y-92304500D03*
D11*
X192297300Y-92992000D03*
X192297300Y-93492000D03*
X192297300Y-93992000D03*
X192297300Y-94492000D03*
X192297300Y-94992000D03*
X192297300Y-95492000D03*
X192297300Y-95992000D03*
X192297300Y-96492000D03*
D12*
X192984800Y-97179500D03*
X193484800Y-97179500D03*
X193984800Y-97179500D03*
X194484800Y-97179500D03*
X194984800Y-97179500D03*
X195484800Y-97179500D03*
X195984800Y-97179500D03*
X196484800Y-97179500D03*
%TD*%
D13*
%TO.C,D9*%
X175850500Y-108860000D03*
X175850500Y-110760000D03*
X177725500Y-109810000D03*
%TD*%
%TO.C,D8*%
X175850500Y-112924000D03*
X175850500Y-114824000D03*
X177725500Y-113874000D03*
%TD*%
D14*
%TO.C,D7*%
X206830000Y-103255500D03*
X208730000Y-103255500D03*
X207780000Y-101380500D03*
%TD*%
D15*
%TO.C,C18*%
X204732000Y-115031000D03*
X204732000Y-113481000D03*
%TD*%
D16*
%TO.C,R14*%
X190762000Y-115416000D03*
X190762000Y-116436000D03*
%TD*%
D17*
%TO.C,D5*%
X199144000Y-113112000D03*
X199144000Y-109812000D03*
%TD*%
D18*
%TO.C,C22*%
X181646000Y-115526000D03*
X182606000Y-115526000D03*
%TD*%
D13*
%TO.C,Q1*%
X212527500Y-108414000D03*
X210652500Y-109364000D03*
X210652500Y-107464000D03*
%TD*%
D19*
%TO.C,C9*%
X203860400Y-97106800D03*
X203860400Y-98066800D03*
%TD*%
D20*
%TO.C,U5*%
X193302000Y-116542000D03*
X193302000Y-117342000D03*
D21*
X192414500Y-116292000D03*
X192414500Y-116942000D03*
X192414500Y-117592000D03*
X194189500Y-117592000D03*
X194189500Y-116942000D03*
X194189500Y-116292000D03*
%TD*%
D22*
%TO.C,U8*%
X188058300Y-99981001D03*
X188058300Y-100630999D03*
X188058300Y-101281001D03*
X188058300Y-101930999D03*
X192401700Y-101930999D03*
X192401700Y-101281001D03*
X192401700Y-100630999D03*
X192401700Y-99981001D03*
%TD*%
D23*
%TO.C,C8*%
X203716000Y-100766000D03*
X203716000Y-99806000D03*
%TD*%
D24*
%TO.C,D4*%
X202446000Y-113368000D03*
X202446000Y-116668000D03*
%TD*%
D25*
%TO.C,D6*%
X185046000Y-117558000D03*
X181746000Y-117558000D03*
%TD*%
D26*
%TO.C,C28*%
X188984000Y-111303000D03*
X188984000Y-112853000D03*
%TD*%
D27*
%TO.C,U4*%
X206830000Y-113107500D03*
X207780000Y-113107500D03*
X208730000Y-113107500D03*
X208730000Y-110832500D03*
X207780000Y-110832500D03*
X206830000Y-110832500D03*
%TD*%
D18*
%TO.C,C23*%
X202926000Y-106636000D03*
X201966000Y-106636000D03*
%TD*%
D28*
%TO.C,R23*%
X195332000Y-101048000D03*
X196352000Y-101048000D03*
%TD*%
D29*
%TO.C,R7*%
X200281000Y-90932000D03*
X199261000Y-90932000D03*
%TD*%
%TO.C,R9*%
X213463500Y-91567000D03*
X212443500Y-91567000D03*
%TD*%
D30*
%TO.C,C1*%
X201054000Y-92964000D03*
X199504000Y-92964000D03*
%TD*%
D31*
%TO.C,D2*%
X210947000Y-93345000D03*
X209372000Y-93345000D03*
%TD*%
D26*
%TO.C,C17*%
X188984000Y-116167000D03*
X188984000Y-117717000D03*
%TD*%
D28*
%TO.C,R17*%
X185176000Y-115526000D03*
X184156000Y-115526000D03*
%TD*%
D26*
%TO.C,C15*%
X196350000Y-116167000D03*
X196350000Y-117717000D03*
%TD*%
D29*
%TO.C,R8*%
X213463500Y-93345000D03*
X212443500Y-93345000D03*
%TD*%
D28*
%TO.C,R22*%
X195332000Y-102318000D03*
X196352000Y-102318000D03*
%TD*%
D32*
%TO.C,L1*%
X204354000Y-110446000D03*
X201554000Y-110446000D03*
%TD*%
D33*
%TO.C,C24*%
X204252000Y-106636000D03*
X205212000Y-106636000D03*
%TD*%
D28*
%TO.C,R21*%
X195332000Y-99778000D03*
X196352000Y-99778000D03*
%TD*%
D16*
%TO.C,R3*%
X202446000Y-100796000D03*
X202446000Y-99776000D03*
%TD*%
D29*
%TO.C,R16*%
X184156000Y-114256000D03*
X185176000Y-114256000D03*
%TD*%
D15*
%TO.C,C27*%
X196350000Y-112853000D03*
X196350000Y-111303000D03*
%TD*%
D31*
%TO.C,D3*%
X210947000Y-91567000D03*
X209372000Y-91567000D03*
%TD*%
D20*
%TO.C,U3*%
X193302000Y-111678000D03*
X193302000Y-112478000D03*
D21*
X192414500Y-111428000D03*
X192414500Y-112078000D03*
X192414500Y-112728000D03*
X194189500Y-112728000D03*
X194189500Y-112078000D03*
X194189500Y-111428000D03*
%TD*%
D16*
%TO.C,R15*%
X190762000Y-117702000D03*
X190762000Y-118722000D03*
%TD*%
%TO.C,R13*%
X206510000Y-115270000D03*
X206510000Y-116290000D03*
%TD*%
D29*
%TO.C,R19*%
X187196000Y-106045000D03*
X188216000Y-106045000D03*
%TD*%
D18*
%TO.C,C2*%
X201148000Y-98254000D03*
X200188000Y-98254000D03*
%TD*%
D34*
%TO.C,Y1*%
X204850000Y-92900000D03*
X204850000Y-95100000D03*
X203150000Y-95100000D03*
X203150000Y-92900000D03*
%TD*%
D16*
%TO.C,R11*%
X190762000Y-112584000D03*
X190762000Y-113604000D03*
%TD*%
D18*
%TO.C,C25*%
X197338000Y-106890000D03*
X196378000Y-106890000D03*
%TD*%
D29*
%TO.C,R6*%
X200281000Y-96012000D03*
X199261000Y-96012000D03*
%TD*%
D35*
%TO.C,U7*%
X193599999Y-105799973D03*
X192800001Y-105799973D03*
X192000000Y-105799973D03*
X191199999Y-105799973D03*
X190400001Y-105799973D03*
X190400054Y-105000000D03*
X190400001Y-104200027D03*
X191199999Y-104200027D03*
X192000000Y-104200027D03*
X192800001Y-104200027D03*
X193599999Y-104200027D03*
X193599946Y-105000000D03*
%TD*%
D26*
%TO.C,C16*%
X211082000Y-111195000D03*
X211082000Y-112745000D03*
%TD*%
D36*
%TO.C,R12*%
X207780000Y-116290000D03*
X207780000Y-115270000D03*
%TD*%
D28*
%TO.C,R2*%
X205492000Y-99016000D03*
X206512000Y-99016000D03*
%TD*%
D30*
%TO.C,C26*%
X198141000Y-105366000D03*
X196591000Y-105366000D03*
%TD*%
D16*
%TO.C,R18*%
X208940400Y-98350800D03*
X208940400Y-97330800D03*
%TD*%
D33*
%TO.C,C10*%
X203177200Y-90932000D03*
X204137200Y-90932000D03*
%TD*%
D29*
%TO.C,R20*%
X187204000Y-104731000D03*
X188224000Y-104731000D03*
%TD*%
D26*
%TO.C,C20*%
X200160000Y-115005000D03*
X200160000Y-116555000D03*
%TD*%
D18*
%TO.C,C3*%
X200251000Y-94488000D03*
X199291000Y-94488000D03*
%TD*%
D16*
%TO.C,R10*%
X190762000Y-110298000D03*
X190762000Y-111318000D03*
%TD*%
D37*
%TO.C,U6*%
X204899500Y-102867000D03*
X204899500Y-103517000D03*
X204899500Y-104167000D03*
X204899500Y-104817000D03*
X202024500Y-104817000D03*
X202024500Y-104167000D03*
X202024500Y-103517000D03*
X202024500Y-102867000D03*
D38*
X203462000Y-103842000D03*
%TD*%
D25*
%TO.C,D1*%
X180595000Y-101838000D03*
X183895000Y-101838000D03*
%TD*%
D29*
%TO.C,R5*%
X185549000Y-99298000D03*
X184529000Y-99298000D03*
%TD*%
D39*
%TO.C,C4*%
X180581000Y-104124000D03*
X182131000Y-104124000D03*
%TD*%
D40*
%TO.C,J5*%
X176439699Y-94900000D03*
D41*
X176439699Y-95749999D03*
X176439699Y-96250001D03*
X176439699Y-96750000D03*
X176439699Y-97249999D03*
X176439699Y-97750000D03*
X176439699Y-98250000D03*
X176439699Y-98750001D03*
X176439699Y-99250000D03*
X176439699Y-99749999D03*
X176439699Y-100250001D03*
D40*
X176439699Y-101100000D03*
D41*
X177739701Y-101000000D03*
X177739701Y-100500001D03*
X177739701Y-99999999D03*
X177739701Y-99500000D03*
X177739701Y-99000001D03*
X177739701Y-98500000D03*
X177739701Y-97500000D03*
X177739701Y-96999999D03*
X177739701Y-96500000D03*
X177739701Y-96000001D03*
X177739701Y-95499999D03*
X177739701Y-95000000D03*
%TD*%
D29*
%TO.C,R4*%
X185549000Y-97901000D03*
X184529000Y-97901000D03*
%TD*%
D42*
%TO.C,U1*%
X182620500Y-97713000D03*
X182620500Y-98663000D03*
X182620500Y-99613000D03*
X180345500Y-99613000D03*
X180345500Y-98663000D03*
X180345500Y-97713000D03*
%TD*%
M02*
