%TF.GenerationSoftware,KiCad,Pcbnew,8.0.6-8.0.6-0~ubuntu24.04.1*%
%TF.CreationDate,2024-11-24T16:01:10-06:00*%
%TF.ProjectId,can_distance_sensor,63616e5f-6469-4737-9461-6e63655f7365,rev?*%
%TF.SameCoordinates,Original*%
%TF.FileFunction,Profile,NP*%
%FSLAX46Y46*%
G04 Gerber Fmt 4.6, Leading zero omitted, Abs format (unit mm)*
G04 Created by KiCad (PCBNEW 8.0.6-8.0.6-0~ubuntu24.04.1) date 2024-11-24 16:01:10*
%MOMM*%
%LPD*%
G01*
G04 APERTURE LIST*
%ADD10C,0.150000*%
%TA.AperFunction,Profile*%
%ADD11C,0.050000*%
%TD*%
G04 APERTURE END LIST*
D10*
X193921428Y-85156819D02*
X193350000Y-85156819D01*
X193635714Y-85156819D02*
X193635714Y-84156819D01*
X193635714Y-84156819D02*
X193540476Y-84299676D01*
X193540476Y-84299676D02*
X193445238Y-84394914D01*
X193445238Y-84394914D02*
X193350000Y-84442533D01*
X194350000Y-85061580D02*
X194397619Y-85109200D01*
X194397619Y-85109200D02*
X194350000Y-85156819D01*
X194350000Y-85156819D02*
X194302381Y-85109200D01*
X194302381Y-85109200D02*
X194350000Y-85061580D01*
X194350000Y-85061580D02*
X194350000Y-85156819D01*
X195302380Y-84156819D02*
X194826190Y-84156819D01*
X194826190Y-84156819D02*
X194778571Y-84633009D01*
X194778571Y-84633009D02*
X194826190Y-84585390D01*
X194826190Y-84585390D02*
X194921428Y-84537771D01*
X194921428Y-84537771D02*
X195159523Y-84537771D01*
X195159523Y-84537771D02*
X195254761Y-84585390D01*
X195254761Y-84585390D02*
X195302380Y-84633009D01*
X195302380Y-84633009D02*
X195349999Y-84728247D01*
X195349999Y-84728247D02*
X195349999Y-84966342D01*
X195349999Y-84966342D02*
X195302380Y-85061580D01*
X195302380Y-85061580D02*
X195254761Y-85109200D01*
X195254761Y-85109200D02*
X195159523Y-85156819D01*
X195159523Y-85156819D02*
X194921428Y-85156819D01*
X194921428Y-85156819D02*
X194826190Y-85109200D01*
X194826190Y-85109200D02*
X194778571Y-85061580D01*
X196254761Y-84156819D02*
X195778571Y-84156819D01*
X195778571Y-84156819D02*
X195730952Y-84633009D01*
X195730952Y-84633009D02*
X195778571Y-84585390D01*
X195778571Y-84585390D02*
X195873809Y-84537771D01*
X195873809Y-84537771D02*
X196111904Y-84537771D01*
X196111904Y-84537771D02*
X196207142Y-84585390D01*
X196207142Y-84585390D02*
X196254761Y-84633009D01*
X196254761Y-84633009D02*
X196302380Y-84728247D01*
X196302380Y-84728247D02*
X196302380Y-84966342D01*
X196302380Y-84966342D02*
X196254761Y-85061580D01*
X196254761Y-85061580D02*
X196207142Y-85109200D01*
X196207142Y-85109200D02*
X196111904Y-85156819D01*
X196111904Y-85156819D02*
X195873809Y-85156819D01*
X195873809Y-85156819D02*
X195778571Y-85109200D01*
X195778571Y-85109200D02*
X195730952Y-85061580D01*
X196921428Y-84156819D02*
X197016666Y-84156819D01*
X197016666Y-84156819D02*
X197111904Y-84204438D01*
X197111904Y-84204438D02*
X197159523Y-84252057D01*
X197159523Y-84252057D02*
X197207142Y-84347295D01*
X197207142Y-84347295D02*
X197254761Y-84537771D01*
X197254761Y-84537771D02*
X197254761Y-84775866D01*
X197254761Y-84775866D02*
X197207142Y-84966342D01*
X197207142Y-84966342D02*
X197159523Y-85061580D01*
X197159523Y-85061580D02*
X197111904Y-85109200D01*
X197111904Y-85109200D02*
X197016666Y-85156819D01*
X197016666Y-85156819D02*
X196921428Y-85156819D01*
X196921428Y-85156819D02*
X196826190Y-85109200D01*
X196826190Y-85109200D02*
X196778571Y-85061580D01*
X196778571Y-85061580D02*
X196730952Y-84966342D01*
X196730952Y-84966342D02*
X196683333Y-84775866D01*
X196683333Y-84775866D02*
X196683333Y-84537771D01*
X196683333Y-84537771D02*
X196730952Y-84347295D01*
X196730952Y-84347295D02*
X196778571Y-84252057D01*
X196778571Y-84252057D02*
X196826190Y-84204438D01*
X196826190Y-84204438D02*
X196921428Y-84156819D01*
X197873809Y-84156819D02*
X197969047Y-84156819D01*
X197969047Y-84156819D02*
X198064285Y-84204438D01*
X198064285Y-84204438D02*
X198111904Y-84252057D01*
X198111904Y-84252057D02*
X198159523Y-84347295D01*
X198159523Y-84347295D02*
X198207142Y-84537771D01*
X198207142Y-84537771D02*
X198207142Y-84775866D01*
X198207142Y-84775866D02*
X198159523Y-84966342D01*
X198159523Y-84966342D02*
X198111904Y-85061580D01*
X198111904Y-85061580D02*
X198064285Y-85109200D01*
X198064285Y-85109200D02*
X197969047Y-85156819D01*
X197969047Y-85156819D02*
X197873809Y-85156819D01*
X197873809Y-85156819D02*
X197778571Y-85109200D01*
X197778571Y-85109200D02*
X197730952Y-85061580D01*
X197730952Y-85061580D02*
X197683333Y-84966342D01*
X197683333Y-84966342D02*
X197635714Y-84775866D01*
X197635714Y-84775866D02*
X197635714Y-84537771D01*
X197635714Y-84537771D02*
X197683333Y-84347295D01*
X197683333Y-84347295D02*
X197730952Y-84252057D01*
X197730952Y-84252057D02*
X197778571Y-84204438D01*
X197778571Y-84204438D02*
X197873809Y-84156819D01*
X199397619Y-85156819D02*
X199397619Y-84490152D01*
X199397619Y-84156819D02*
X199350000Y-84204438D01*
X199350000Y-84204438D02*
X199397619Y-84252057D01*
X199397619Y-84252057D02*
X199445238Y-84204438D01*
X199445238Y-84204438D02*
X199397619Y-84156819D01*
X199397619Y-84156819D02*
X199397619Y-84252057D01*
X199873809Y-84490152D02*
X199873809Y-85156819D01*
X199873809Y-84585390D02*
X199921428Y-84537771D01*
X199921428Y-84537771D02*
X200016666Y-84490152D01*
X200016666Y-84490152D02*
X200159523Y-84490152D01*
X200159523Y-84490152D02*
X200254761Y-84537771D01*
X200254761Y-84537771D02*
X200302380Y-84633009D01*
X200302380Y-84633009D02*
X200302380Y-85156819D01*
D11*
X177165000Y-87257000D02*
X177165000Y-85265580D01*
X216535000Y-87257000D02*
X216535000Y-85265580D01*
X177165000Y-85852000D02*
X216535000Y-85852000D01*
X177165000Y-85852000D02*
X216535000Y-85852000D01*
X177165000Y-85852000D02*
X178291504Y-85265579D01*
X177165000Y-85852000D02*
X178291504Y-86438421D01*
X216535000Y-85852000D02*
X215408496Y-86438421D01*
X216535000Y-85852000D02*
X215408496Y-85265579D01*
D10*
X173167820Y-114498071D02*
X173167820Y-115069499D01*
X173167820Y-114783785D02*
X172167820Y-114783785D01*
X172167820Y-114783785D02*
X172310677Y-114879023D01*
X172310677Y-114879023D02*
X172405915Y-114974261D01*
X172405915Y-114974261D02*
X172453534Y-115069499D01*
X173072581Y-114069499D02*
X173120201Y-114021880D01*
X173120201Y-114021880D02*
X173167820Y-114069499D01*
X173167820Y-114069499D02*
X173120201Y-114117118D01*
X173120201Y-114117118D02*
X173072581Y-114069499D01*
X173072581Y-114069499D02*
X173167820Y-114069499D01*
X172596391Y-113450452D02*
X172548772Y-113545690D01*
X172548772Y-113545690D02*
X172501153Y-113593309D01*
X172501153Y-113593309D02*
X172405915Y-113640928D01*
X172405915Y-113640928D02*
X172358296Y-113640928D01*
X172358296Y-113640928D02*
X172263058Y-113593309D01*
X172263058Y-113593309D02*
X172215439Y-113545690D01*
X172215439Y-113545690D02*
X172167820Y-113450452D01*
X172167820Y-113450452D02*
X172167820Y-113259976D01*
X172167820Y-113259976D02*
X172215439Y-113164738D01*
X172215439Y-113164738D02*
X172263058Y-113117119D01*
X172263058Y-113117119D02*
X172358296Y-113069500D01*
X172358296Y-113069500D02*
X172405915Y-113069500D01*
X172405915Y-113069500D02*
X172501153Y-113117119D01*
X172501153Y-113117119D02*
X172548772Y-113164738D01*
X172548772Y-113164738D02*
X172596391Y-113259976D01*
X172596391Y-113259976D02*
X172596391Y-113450452D01*
X172596391Y-113450452D02*
X172644010Y-113545690D01*
X172644010Y-113545690D02*
X172691629Y-113593309D01*
X172691629Y-113593309D02*
X172786867Y-113640928D01*
X172786867Y-113640928D02*
X172977343Y-113640928D01*
X172977343Y-113640928D02*
X173072581Y-113593309D01*
X173072581Y-113593309D02*
X173120201Y-113545690D01*
X173120201Y-113545690D02*
X173167820Y-113450452D01*
X173167820Y-113450452D02*
X173167820Y-113259976D01*
X173167820Y-113259976D02*
X173120201Y-113164738D01*
X173120201Y-113164738D02*
X173072581Y-113117119D01*
X173072581Y-113117119D02*
X172977343Y-113069500D01*
X172977343Y-113069500D02*
X172786867Y-113069500D01*
X172786867Y-113069500D02*
X172691629Y-113117119D01*
X172691629Y-113117119D02*
X172644010Y-113164738D01*
X172644010Y-113164738D02*
X172596391Y-113259976D01*
X172167820Y-112736166D02*
X172167820Y-112069500D01*
X172167820Y-112069500D02*
X173167820Y-112498071D01*
X172167820Y-111212357D02*
X172167820Y-111688547D01*
X172167820Y-111688547D02*
X172644010Y-111736166D01*
X172644010Y-111736166D02*
X172596391Y-111688547D01*
X172596391Y-111688547D02*
X172548772Y-111593309D01*
X172548772Y-111593309D02*
X172548772Y-111355214D01*
X172548772Y-111355214D02*
X172596391Y-111259976D01*
X172596391Y-111259976D02*
X172644010Y-111212357D01*
X172644010Y-111212357D02*
X172739248Y-111164738D01*
X172739248Y-111164738D02*
X172977343Y-111164738D01*
X172977343Y-111164738D02*
X173072581Y-111212357D01*
X173072581Y-111212357D02*
X173120201Y-111259976D01*
X173120201Y-111259976D02*
X173167820Y-111355214D01*
X173167820Y-111355214D02*
X173167820Y-111593309D01*
X173167820Y-111593309D02*
X173120201Y-111688547D01*
X173120201Y-111688547D02*
X173072581Y-111736166D01*
X172167820Y-110545690D02*
X172167820Y-110450452D01*
X172167820Y-110450452D02*
X172215439Y-110355214D01*
X172215439Y-110355214D02*
X172263058Y-110307595D01*
X172263058Y-110307595D02*
X172358296Y-110259976D01*
X172358296Y-110259976D02*
X172548772Y-110212357D01*
X172548772Y-110212357D02*
X172786867Y-110212357D01*
X172786867Y-110212357D02*
X172977343Y-110259976D01*
X172977343Y-110259976D02*
X173072581Y-110307595D01*
X173072581Y-110307595D02*
X173120201Y-110355214D01*
X173120201Y-110355214D02*
X173167820Y-110450452D01*
X173167820Y-110450452D02*
X173167820Y-110545690D01*
X173167820Y-110545690D02*
X173120201Y-110640928D01*
X173120201Y-110640928D02*
X173072581Y-110688547D01*
X173072581Y-110688547D02*
X172977343Y-110736166D01*
X172977343Y-110736166D02*
X172786867Y-110783785D01*
X172786867Y-110783785D02*
X172548772Y-110783785D01*
X172548772Y-110783785D02*
X172358296Y-110736166D01*
X172358296Y-110736166D02*
X172263058Y-110688547D01*
X172263058Y-110688547D02*
X172215439Y-110640928D01*
X172215439Y-110640928D02*
X172167820Y-110545690D01*
X173167820Y-109021880D02*
X172501153Y-109021880D01*
X172167820Y-109021880D02*
X172215439Y-109069499D01*
X172215439Y-109069499D02*
X172263058Y-109021880D01*
X172263058Y-109021880D02*
X172215439Y-108974261D01*
X172215439Y-108974261D02*
X172167820Y-109021880D01*
X172167820Y-109021880D02*
X172263058Y-109021880D01*
X172501153Y-108545690D02*
X173167820Y-108545690D01*
X172596391Y-108545690D02*
X172548772Y-108498071D01*
X172548772Y-108498071D02*
X172501153Y-108402833D01*
X172501153Y-108402833D02*
X172501153Y-108259976D01*
X172501153Y-108259976D02*
X172548772Y-108164738D01*
X172548772Y-108164738D02*
X172644010Y-108117119D01*
X172644010Y-108117119D02*
X173167820Y-108117119D01*
D11*
X176665000Y-87757000D02*
X173276581Y-87757000D01*
X176665000Y-135382000D02*
X173276581Y-135382000D01*
X173863001Y-87757000D02*
X173863001Y-135382000D01*
X173863001Y-87757000D02*
X173863001Y-135382000D01*
X173863001Y-87757000D02*
X174449422Y-88883504D01*
X173863001Y-87757000D02*
X173276580Y-88883504D01*
X173863001Y-135382000D02*
X173276580Y-134255496D01*
X173863001Y-135382000D02*
X174449422Y-134255496D01*
X177165000Y-87757000D02*
X216535000Y-87757000D01*
X216535000Y-135382000D01*
X177165000Y-135382000D01*
X177165000Y-87757000D01*
M02*
