%TF.GenerationSoftware,KiCad,Pcbnew,8.0.6-8.0.6-0~ubuntu24.04.1*%
%TF.CreationDate,2024-11-24T16:58:16-06:00*%
%TF.ProjectId,can_distance_sensor,63616e5f-6469-4737-9461-6e63655f7365,rev?*%
%TF.SameCoordinates,Original*%
%TF.FileFunction,Soldermask,Top*%
%TF.FilePolarity,Negative*%
%FSLAX46Y46*%
G04 Gerber Fmt 4.6, Leading zero omitted, Abs format (unit mm)*
G04 Created by KiCad (PCBNEW 8.0.6-8.0.6-0~ubuntu24.04.1) date 2024-11-24 16:58:16*
%MOMM*%
%LPD*%
G01*
G04 APERTURE LIST*
G04 Aperture macros list*
%AMRoundRect*
0 Rectangle with rounded corners*
0 $1 Rounding radius*
0 $2 $3 $4 $5 $6 $7 $8 $9 X,Y pos of 4 corners*
0 Add a 4 corners polygon primitive as box body*
4,1,4,$2,$3,$4,$5,$6,$7,$8,$9,$2,$3,0*
0 Add four circle primitives for the rounded corners*
1,1,$1+$1,$2,$3*
1,1,$1+$1,$4,$5*
1,1,$1+$1,$6,$7*
1,1,$1+$1,$8,$9*
0 Add four rect primitives between the rounded corners*
20,1,$1+$1,$2,$3,$4,$5,0*
20,1,$1+$1,$4,$5,$6,$7,0*
20,1,$1+$1,$6,$7,$8,$9,0*
20,1,$1+$1,$8,$9,$2,$3,0*%
G04 Aperture macros list end*
%ADD10R,0.508000X0.508000*%
%ADD11RoundRect,0.135000X-0.135000X-0.185000X0.135000X-0.185000X0.135000X0.185000X-0.135000X0.185000X0*%
%ADD12RoundRect,0.140000X-0.170000X0.140000X-0.170000X-0.140000X0.170000X-0.140000X0.170000X0.140000X0*%
%ADD13RoundRect,0.150000X0.150000X-0.587500X0.150000X0.587500X-0.150000X0.587500X-0.150000X-0.587500X0*%
%ADD14RoundRect,0.135000X-0.185000X0.135000X-0.185000X-0.135000X0.185000X-0.135000X0.185000X0.135000X0*%
%ADD15RoundRect,0.225000X0.250000X-0.225000X0.250000X0.225000X-0.250000X0.225000X-0.250000X-0.225000X0*%
%ADD16RoundRect,0.140000X0.140000X0.170000X-0.140000X0.170000X-0.140000X-0.170000X0.140000X-0.170000X0*%
%ADD17C,0.990600*%
%ADD18C,0.787400*%
%ADD19RoundRect,0.225000X-0.225000X-0.375000X0.225000X-0.375000X0.225000X0.375000X-0.225000X0.375000X0*%
%ADD20RoundRect,0.150000X-0.587500X-0.150000X0.587500X-0.150000X0.587500X0.150000X-0.587500X0.150000X0*%
%ADD21RoundRect,0.140000X-0.140000X-0.170000X0.140000X-0.170000X0.140000X0.170000X-0.140000X0.170000X0*%
%ADD22RoundRect,0.225000X-0.375000X0.225000X-0.375000X-0.225000X0.375000X-0.225000X0.375000X0.225000X0*%
%ADD23RoundRect,0.250000X0.625000X-0.350000X0.625000X0.350000X-0.625000X0.350000X-0.625000X-0.350000X0*%
%ADD24O,1.750000X1.200000*%
%ADD25RoundRect,0.150000X-0.825000X-0.150000X0.825000X-0.150000X0.825000X0.150000X-0.825000X0.150000X0*%
%ADD26RoundRect,0.150000X0.150000X-0.512500X0.150000X0.512500X-0.150000X0.512500X-0.150000X-0.512500X0*%
%ADD27RoundRect,0.135000X0.135000X0.185000X-0.135000X0.185000X-0.135000X-0.185000X0.135000X-0.185000X0*%
%ADD28RoundRect,0.250000X0.250000X0.475000X-0.250000X0.475000X-0.250000X-0.475000X0.250000X-0.475000X0*%
%ADD29RoundRect,0.218750X-0.256250X0.218750X-0.256250X-0.218750X0.256250X-0.218750X0.256250X0.218750X0*%
%ADD30RoundRect,0.200000X-0.200000X-0.275000X0.200000X-0.275000X0.200000X0.275000X-0.200000X0.275000X0*%
%ADD31R,0.800000X2.700000*%
%ADD32RoundRect,0.150000X0.512500X0.150000X-0.512500X0.150000X-0.512500X-0.150000X0.512500X-0.150000X0*%
%ADD33RoundRect,0.075000X-0.700000X-0.075000X0.700000X-0.075000X0.700000X0.075000X-0.700000X0.075000X0*%
%ADD34RoundRect,0.075000X-0.075000X-0.700000X0.075000X-0.700000X0.075000X0.700000X-0.075000X0.700000X0*%
%ADD35C,2.200000*%
%ADD36RoundRect,0.225000X-0.225000X-0.250000X0.225000X-0.250000X0.225000X0.250000X-0.225000X0.250000X0*%
%ADD37RoundRect,0.200000X0.275000X-0.200000X0.275000X0.200000X-0.275000X0.200000X-0.275000X-0.200000X0*%
%ADD38RoundRect,0.250000X-0.250000X-0.475000X0.250000X-0.475000X0.250000X0.475000X-0.250000X0.475000X0*%
%ADD39R,1.400000X1.200000*%
%ADD40RoundRect,0.375000X0.625000X0.375000X-0.625000X0.375000X-0.625000X-0.375000X0.625000X-0.375000X0*%
%ADD41RoundRect,0.500000X0.500000X1.400000X-0.500000X1.400000X-0.500000X-1.400000X0.500000X-1.400000X0*%
%ADD42RoundRect,0.100000X0.575000X-0.100000X0.575000X0.100000X-0.575000X0.100000X-0.575000X-0.100000X0*%
%ADD43O,1.600000X0.900000*%
%ADD44RoundRect,0.250000X0.450000X-0.550000X0.450000X0.550000X-0.450000X0.550000X-0.450000X-0.550000X0*%
%ADD45RoundRect,0.250000X0.700000X-0.700000X0.700000X0.700000X-0.700000X0.700000X-0.700000X-0.700000X0*%
%ADD46RoundRect,0.250000X0.475000X-0.250000X0.475000X0.250000X-0.475000X0.250000X-0.475000X-0.250000X0*%
%ADD47RoundRect,0.200000X-0.275000X0.200000X-0.275000X-0.200000X0.275000X-0.200000X0.275000X0.200000X0*%
%ADD48RoundRect,0.140000X0.170000X-0.140000X0.170000X0.140000X-0.170000X0.140000X-0.170000X-0.140000X0*%
%ADD49RoundRect,0.250000X-0.475000X0.250000X-0.475000X-0.250000X0.475000X-0.250000X0.475000X0.250000X0*%
G04 APERTURE END LIST*
D10*
%TO.C,U5*%
X195020999Y-91477973D03*
X194221001Y-91477973D03*
X193421000Y-91477973D03*
X192620999Y-91477973D03*
X191821001Y-91477973D03*
X191821054Y-90678000D03*
X191821001Y-89878027D03*
X192620999Y-89878027D03*
X193421000Y-89878027D03*
X194221001Y-89878027D03*
X195020999Y-89878027D03*
X195020946Y-90678000D03*
%TD*%
D11*
%TO.C,R13*%
X187196000Y-90805000D03*
X188216000Y-90805000D03*
%TD*%
%TO.C,R8*%
X187196000Y-93472000D03*
X188216000Y-93472000D03*
%TD*%
D12*
%TO.C,C7*%
X189357000Y-113947000D03*
X189357000Y-114907000D03*
%TD*%
D13*
%TO.C,D7*%
X207203000Y-110919500D03*
X209103000Y-110919500D03*
X208153000Y-109044500D03*
%TD*%
D14*
%TO.C,R12*%
X188087000Y-128649000D03*
X188087000Y-129669000D03*
%TD*%
D15*
%TO.C,C20*%
X199644000Y-129553000D03*
X199644000Y-128003000D03*
%TD*%
D16*
%TO.C,C15*%
X185265000Y-108839000D03*
X184305000Y-108839000D03*
%TD*%
%TO.C,C5*%
X188186000Y-97155000D03*
X187226000Y-97155000D03*
%TD*%
D17*
%TO.C,J2*%
X211709000Y-91567000D03*
X204089000Y-92583000D03*
X204089000Y-90551000D03*
D18*
X210439000Y-90932000D03*
X209169000Y-90932000D03*
X207899000Y-90932000D03*
X206629000Y-90932000D03*
X205359000Y-90932000D03*
X205359000Y-92202000D03*
X206629000Y-92202000D03*
X207899000Y-92202000D03*
X209169000Y-92202000D03*
X210439000Y-92202000D03*
%TD*%
D19*
%TO.C,D5*%
X189739000Y-125349000D03*
X193039000Y-125349000D03*
%TD*%
D16*
%TO.C,C24*%
X209903000Y-132715000D03*
X208943000Y-132715000D03*
%TD*%
D20*
%TO.C,Q1*%
X206580500Y-125542000D03*
X206580500Y-127442000D03*
X208455500Y-126492000D03*
%TD*%
D21*
%TO.C,C12*%
X202085000Y-110490000D03*
X203045000Y-110490000D03*
%TD*%
D12*
%TO.C,C9*%
X185420000Y-98862000D03*
X185420000Y-99822000D03*
%TD*%
D21*
%TO.C,C8*%
X208562000Y-96012000D03*
X209522000Y-96012000D03*
%TD*%
D22*
%TO.C,D4*%
X196596000Y-129668000D03*
X196596000Y-132968000D03*
%TD*%
D23*
%TO.C,J5*%
X212561000Y-117427000D03*
D24*
X212561000Y-115427000D03*
X212561000Y-113427000D03*
X212561000Y-111427000D03*
%TD*%
D25*
%TO.C,U6*%
X198820000Y-113284000D03*
X198820000Y-114554000D03*
X198820000Y-115824000D03*
X198820000Y-117094000D03*
X198820000Y-118364000D03*
X198820000Y-119634000D03*
X198820000Y-120904000D03*
X203770000Y-120904000D03*
X203770000Y-119634000D03*
X203770000Y-118364000D03*
X203770000Y-117094000D03*
X203770000Y-115824000D03*
X203770000Y-114554000D03*
X203770000Y-113284000D03*
%TD*%
D19*
%TO.C,D6*%
X211710000Y-132715000D03*
X215010000Y-132715000D03*
%TD*%
D26*
%TO.C,U4*%
X201615000Y-128391500D03*
X202565000Y-128391500D03*
X203515000Y-128391500D03*
X203515000Y-126116500D03*
X202565000Y-126116500D03*
X201615000Y-126116500D03*
%TD*%
D21*
%TO.C,C6*%
X199672000Y-98171000D03*
X200632000Y-98171000D03*
%TD*%
%TO.C,C25*%
X207038000Y-118364000D03*
X207998000Y-118364000D03*
%TD*%
D11*
%TO.C,R28*%
X187196000Y-94742000D03*
X188216000Y-94742000D03*
%TD*%
D27*
%TO.C,R7*%
X185041000Y-104521000D03*
X184021000Y-104521000D03*
%TD*%
D14*
%TO.C,R10*%
X180213000Y-112139000D03*
X180213000Y-113159000D03*
%TD*%
D21*
%TO.C,C13*%
X202085000Y-108712000D03*
X203045000Y-108712000D03*
%TD*%
D28*
%TO.C,C1*%
X185862000Y-111125000D03*
X183962000Y-111125000D03*
%TD*%
D29*
%TO.C,D2*%
X181991000Y-108432500D03*
X181991000Y-110007500D03*
%TD*%
D19*
%TO.C,D1*%
X205868000Y-98298000D03*
X209168000Y-98298000D03*
%TD*%
D11*
%TO.C,R20*%
X213231000Y-130810000D03*
X214251000Y-130810000D03*
%TD*%
D30*
%TO.C,R1*%
X202248000Y-98552000D03*
X203898000Y-98552000D03*
%TD*%
D14*
%TO.C,R9*%
X181991000Y-112139000D03*
X181991000Y-113159000D03*
%TD*%
D31*
%TO.C,L1*%
X198204000Y-125349000D03*
X196004000Y-125349000D03*
%TD*%
D32*
%TO.C,U1*%
X207766500Y-103185000D03*
X207766500Y-102235000D03*
X207766500Y-101285000D03*
X205491500Y-101285000D03*
X205491500Y-102235000D03*
X205491500Y-103185000D03*
%TD*%
D16*
%TO.C,C26*%
X195552000Y-118364000D03*
X194592000Y-118364000D03*
%TD*%
D27*
%TO.C,R27*%
X197614000Y-95377000D03*
X196594000Y-95377000D03*
%TD*%
D33*
%TO.C,U2*%
X187746000Y-100644000D03*
X187746000Y-101144000D03*
X187746000Y-101644000D03*
X187746000Y-102144000D03*
X187746000Y-102644000D03*
X187746000Y-103144000D03*
X187746000Y-103644000D03*
X187746000Y-104144000D03*
X187746000Y-104644000D03*
X187746000Y-105144000D03*
X187746000Y-105644000D03*
X187746000Y-106144000D03*
X187746000Y-106644000D03*
X187746000Y-107144000D03*
X187746000Y-107644000D03*
X187746000Y-108144000D03*
D34*
X189671000Y-110069000D03*
X190171000Y-110069000D03*
X190671000Y-110069000D03*
X191171000Y-110069000D03*
X191671000Y-110069000D03*
X192171000Y-110069000D03*
X192671000Y-110069000D03*
X193171000Y-110069000D03*
X193671000Y-110069000D03*
X194171000Y-110069000D03*
X194671000Y-110069000D03*
X195171000Y-110069000D03*
X195671000Y-110069000D03*
X196171000Y-110069000D03*
X196671000Y-110069000D03*
X197171000Y-110069000D03*
D33*
X199096000Y-108144000D03*
X199096000Y-107644000D03*
X199096000Y-107144000D03*
X199096000Y-106644000D03*
X199096000Y-106144000D03*
X199096000Y-105644000D03*
X199096000Y-105144000D03*
X199096000Y-104644000D03*
X199096000Y-104144000D03*
X199096000Y-103644000D03*
X199096000Y-103144000D03*
X199096000Y-102644000D03*
X199096000Y-102144000D03*
X199096000Y-101644000D03*
X199096000Y-101144000D03*
X199096000Y-100644000D03*
D34*
X197171000Y-98719000D03*
X196671000Y-98719000D03*
X196171000Y-98719000D03*
X195671000Y-98719000D03*
X195171000Y-98719000D03*
X194671000Y-98719000D03*
X194171000Y-98719000D03*
X193671000Y-98719000D03*
X193171000Y-98719000D03*
X192671000Y-98719000D03*
X192171000Y-98719000D03*
X191671000Y-98719000D03*
X191171000Y-98719000D03*
X190671000Y-98719000D03*
X190171000Y-98719000D03*
X189671000Y-98719000D03*
%TD*%
D14*
%TO.C,R11*%
X188087000Y-132078000D03*
X188087000Y-133098000D03*
%TD*%
D35*
%TO.C,H2*%
X180340000Y-132461000D03*
%TD*%
D23*
%TO.C,J4*%
X212561000Y-125968000D03*
D24*
X212561000Y-123968000D03*
%TD*%
D27*
%TO.C,R3*%
X206885000Y-96012000D03*
X205865000Y-96012000D03*
%TD*%
D11*
%TO.C,R19*%
X210691000Y-130810000D03*
X211711000Y-130810000D03*
%TD*%
D27*
%TO.C,R18*%
X184406000Y-116332000D03*
X183386000Y-116332000D03*
%TD*%
D36*
%TO.C,C4*%
X207124000Y-105918000D03*
X208674000Y-105918000D03*
%TD*%
D29*
%TO.C,D3*%
X180086000Y-108432500D03*
X180086000Y-110007500D03*
%TD*%
D27*
%TO.C,R5*%
X202694000Y-102997000D03*
X201674000Y-102997000D03*
%TD*%
D36*
%TO.C,C14*%
X194043000Y-114427000D03*
X195593000Y-114427000D03*
%TD*%
D37*
%TO.C,R16*%
X203327000Y-132905000D03*
X203327000Y-131255000D03*
%TD*%
D21*
%TO.C,C2*%
X199672000Y-99314000D03*
X200632000Y-99314000D03*
%TD*%
D38*
%TO.C,C17*%
X179202000Y-119507000D03*
X181102000Y-119507000D03*
%TD*%
D39*
%TO.C,Y1*%
X181145000Y-101688000D03*
X183345000Y-101688000D03*
X183345000Y-99988000D03*
X181145000Y-99988000D03*
%TD*%
D40*
%TO.C,U3*%
X185395000Y-127268000D03*
X185395000Y-124968000D03*
D41*
X179095000Y-124968000D03*
D40*
X185395000Y-122668000D03*
%TD*%
D27*
%TO.C,R4*%
X202694000Y-101600000D03*
X201674000Y-101600000D03*
%TD*%
D16*
%TO.C,C23*%
X184376000Y-114808000D03*
X183416000Y-114808000D03*
%TD*%
D27*
%TO.C,R17*%
X186819000Y-116332000D03*
X185799000Y-116332000D03*
%TD*%
D16*
%TO.C,C27*%
X188186000Y-92075000D03*
X187226000Y-92075000D03*
%TD*%
D27*
%TO.C,R6*%
X184912000Y-103251000D03*
X183892000Y-103251000D03*
%TD*%
D12*
%TO.C,C11*%
X190754000Y-113947000D03*
X190754000Y-114907000D03*
%TD*%
D38*
%TO.C,C18*%
X206568000Y-130302000D03*
X208468000Y-130302000D03*
%TD*%
D37*
%TO.C,R15*%
X200914000Y-132905000D03*
X200914000Y-131255000D03*
%TD*%
D27*
%TO.C,R2*%
X211838000Y-96012000D03*
X210818000Y-96012000D03*
%TD*%
D42*
%TO.C,J1*%
X211615000Y-103535000D03*
X211615000Y-102885000D03*
X211615000Y-102235000D03*
X211615000Y-101585000D03*
X211615000Y-100935000D03*
D43*
X214290000Y-105535000D03*
D44*
X211840000Y-105435000D03*
D45*
X214290000Y-103435000D03*
X214290000Y-101035000D03*
D44*
X211840000Y-99035000D03*
D43*
X214290000Y-98935000D03*
%TD*%
D46*
%TO.C,C28*%
X199390000Y-90993000D03*
X199390000Y-89093000D03*
%TD*%
D47*
%TO.C,R21*%
X207772000Y-113602000D03*
X207772000Y-115252000D03*
%TD*%
D48*
%TO.C,C10*%
X181102000Y-105227000D03*
X181102000Y-104267000D03*
%TD*%
D49*
%TO.C,C22*%
X192913000Y-128209000D03*
X192913000Y-130109000D03*
%TD*%
%TO.C,C16*%
X190246000Y-128209000D03*
X190246000Y-130109000D03*
%TD*%
D16*
%TO.C,C3*%
X188186000Y-96012000D03*
X187226000Y-96012000D03*
%TD*%
D35*
%TO.C,H1*%
X180340000Y-92456000D03*
%TD*%
M02*
