%TF.GenerationSoftware,KiCad,Pcbnew,9.0.5-9.0.5~ubuntu24.04.1*%
%TF.CreationDate,2025-10-18T12:27:34-05:00*%
%TF.ProjectId,can_distance_sensor,63616e5f-6469-4737-9461-6e63655f7365,rev?*%
%TF.SameCoordinates,Original*%
%TF.FileFunction,Legend,Bot*%
%TF.FilePolarity,Positive*%
%FSLAX46Y46*%
G04 Gerber Fmt 4.6, Leading zero omitted, Abs format (unit mm)*
G04 Created by KiCad (PCBNEW 9.0.5-9.0.5~ubuntu24.04.1) date 2025-10-18 12:27:34*
%MOMM*%
%LPD*%
G01*
G04 APERTURE LIST*
%ADD10C,0.076200*%
%ADD11C,0.125000*%
%ADD12C,0.120000*%
%ADD13C,0.508000*%
%ADD14C,0.152400*%
G04 APERTURE END LIST*
D10*
X183531392Y-103658383D02*
X183168535Y-103658383D01*
X183349964Y-104293383D02*
X183349964Y-103658383D01*
X182835916Y-103658383D02*
X182714963Y-103658383D01*
X182714963Y-103658383D02*
X182654487Y-103688621D01*
X182654487Y-103688621D02*
X182594011Y-103749097D01*
X182594011Y-103749097D02*
X182563773Y-103870049D01*
X182563773Y-103870049D02*
X182563773Y-104081716D01*
X182563773Y-104081716D02*
X182594011Y-104202668D01*
X182594011Y-104202668D02*
X182654487Y-104263145D01*
X182654487Y-104263145D02*
X182714963Y-104293383D01*
X182714963Y-104293383D02*
X182835916Y-104293383D01*
X182835916Y-104293383D02*
X182896392Y-104263145D01*
X182896392Y-104263145D02*
X182956868Y-104202668D01*
X182956868Y-104202668D02*
X182987106Y-104081716D01*
X182987106Y-104081716D02*
X182987106Y-103870049D01*
X182987106Y-103870049D02*
X182956868Y-103749097D01*
X182956868Y-103749097D02*
X182896392Y-103688621D01*
X182896392Y-103688621D02*
X182835916Y-103658383D01*
X182079963Y-103960764D02*
X182291630Y-103960764D01*
X182291630Y-104293383D02*
X182291630Y-103658383D01*
X182291630Y-103658383D02*
X181989249Y-103658383D01*
X181263534Y-103658383D02*
X181263534Y-104172430D01*
X181263534Y-104172430D02*
X181233296Y-104232906D01*
X181233296Y-104232906D02*
X181203058Y-104263145D01*
X181203058Y-104263145D02*
X181142582Y-104293383D01*
X181142582Y-104293383D02*
X181021629Y-104293383D01*
X181021629Y-104293383D02*
X180961153Y-104263145D01*
X180961153Y-104263145D02*
X180930915Y-104232906D01*
X180930915Y-104232906D02*
X180900677Y-104172430D01*
X180900677Y-104172430D02*
X180900677Y-103658383D01*
X180689010Y-103870049D02*
X180447106Y-103870049D01*
X180598296Y-103658383D02*
X180598296Y-104202668D01*
X180598296Y-104202668D02*
X180568058Y-104263145D01*
X180568058Y-104263145D02*
X180507582Y-104293383D01*
X180507582Y-104293383D02*
X180447106Y-104293383D01*
X180235439Y-104293383D02*
X180235439Y-103870049D01*
X180235439Y-103658383D02*
X180265677Y-103688621D01*
X180265677Y-103688621D02*
X180235439Y-103718859D01*
X180235439Y-103718859D02*
X180205201Y-103688621D01*
X180205201Y-103688621D02*
X180235439Y-103658383D01*
X180235439Y-103658383D02*
X180235439Y-103718859D01*
X179842344Y-104293383D02*
X179902820Y-104263145D01*
X179902820Y-104263145D02*
X179933058Y-104202668D01*
X179933058Y-104202668D02*
X179933058Y-103658383D01*
X179600439Y-104293383D02*
X179600439Y-103870049D01*
X179600439Y-103658383D02*
X179630677Y-103688621D01*
X179630677Y-103688621D02*
X179600439Y-103718859D01*
X179600439Y-103718859D02*
X179570201Y-103688621D01*
X179570201Y-103688621D02*
X179600439Y-103658383D01*
X179600439Y-103658383D02*
X179600439Y-103718859D01*
X179388772Y-103870049D02*
X179146868Y-103870049D01*
X179298058Y-103658383D02*
X179298058Y-104202668D01*
X179298058Y-104202668D02*
X179267820Y-104263145D01*
X179267820Y-104263145D02*
X179207344Y-104293383D01*
X179207344Y-104293383D02*
X179146868Y-104293383D01*
X178995677Y-103870049D02*
X178844487Y-104293383D01*
X178693296Y-103870049D02*
X178844487Y-104293383D01*
X178844487Y-104293383D02*
X178904963Y-104444573D01*
X178904963Y-104444573D02*
X178935201Y-104474811D01*
X178935201Y-104474811D02*
X178995677Y-104505049D01*
X183077821Y-105315697D02*
X183289488Y-105013316D01*
X183440678Y-105315697D02*
X183440678Y-104680697D01*
X183440678Y-104680697D02*
X183198773Y-104680697D01*
X183198773Y-104680697D02*
X183138297Y-104710935D01*
X183138297Y-104710935D02*
X183108059Y-104741173D01*
X183108059Y-104741173D02*
X183077821Y-104801649D01*
X183077821Y-104801649D02*
X183077821Y-104892363D01*
X183077821Y-104892363D02*
X183108059Y-104952839D01*
X183108059Y-104952839D02*
X183138297Y-104983078D01*
X183138297Y-104983078D02*
X183198773Y-105013316D01*
X183198773Y-105013316D02*
X183440678Y-105013316D01*
X182563773Y-105285459D02*
X182624249Y-105315697D01*
X182624249Y-105315697D02*
X182745202Y-105315697D01*
X182745202Y-105315697D02*
X182805678Y-105285459D01*
X182805678Y-105285459D02*
X182835916Y-105224982D01*
X182835916Y-105224982D02*
X182835916Y-104983078D01*
X182835916Y-104983078D02*
X182805678Y-104922601D01*
X182805678Y-104922601D02*
X182745202Y-104892363D01*
X182745202Y-104892363D02*
X182624249Y-104892363D01*
X182624249Y-104892363D02*
X182563773Y-104922601D01*
X182563773Y-104922601D02*
X182533535Y-104983078D01*
X182533535Y-104983078D02*
X182533535Y-105043554D01*
X182533535Y-105043554D02*
X182835916Y-105104030D01*
X182321868Y-104892363D02*
X182170678Y-105315697D01*
X182170678Y-105315697D02*
X182019487Y-104892363D01*
X181082105Y-104983078D02*
X180991391Y-105013316D01*
X180991391Y-105013316D02*
X180961153Y-105043554D01*
X180961153Y-105043554D02*
X180930915Y-105104030D01*
X180930915Y-105104030D02*
X180930915Y-105194744D01*
X180930915Y-105194744D02*
X180961153Y-105255220D01*
X180961153Y-105255220D02*
X180991391Y-105285459D01*
X180991391Y-105285459D02*
X181051867Y-105315697D01*
X181051867Y-105315697D02*
X181293772Y-105315697D01*
X181293772Y-105315697D02*
X181293772Y-104680697D01*
X181293772Y-104680697D02*
X181082105Y-104680697D01*
X181082105Y-104680697D02*
X181021629Y-104710935D01*
X181021629Y-104710935D02*
X180991391Y-104741173D01*
X180991391Y-104741173D02*
X180961153Y-104801649D01*
X180961153Y-104801649D02*
X180961153Y-104862125D01*
X180961153Y-104862125D02*
X180991391Y-104922601D01*
X180991391Y-104922601D02*
X181021629Y-104952839D01*
X181021629Y-104952839D02*
X181082105Y-104983078D01*
X181082105Y-104983078D02*
X181293772Y-104983078D01*
X183077821Y-106277534D02*
X183108059Y-106307773D01*
X183108059Y-106307773D02*
X183198773Y-106338011D01*
X183198773Y-106338011D02*
X183259249Y-106338011D01*
X183259249Y-106338011D02*
X183349964Y-106307773D01*
X183349964Y-106307773D02*
X183410440Y-106247296D01*
X183410440Y-106247296D02*
X183440678Y-106186820D01*
X183440678Y-106186820D02*
X183470916Y-106065868D01*
X183470916Y-106065868D02*
X183470916Y-105975153D01*
X183470916Y-105975153D02*
X183440678Y-105854201D01*
X183440678Y-105854201D02*
X183410440Y-105793725D01*
X183410440Y-105793725D02*
X183349964Y-105733249D01*
X183349964Y-105733249D02*
X183259249Y-105703011D01*
X183259249Y-105703011D02*
X183198773Y-105703011D01*
X183198773Y-105703011D02*
X183108059Y-105733249D01*
X183108059Y-105733249D02*
X183077821Y-105763487D01*
X182714964Y-106338011D02*
X182775440Y-106307773D01*
X182775440Y-106307773D02*
X182805678Y-106277534D01*
X182805678Y-106277534D02*
X182835916Y-106217058D01*
X182835916Y-106217058D02*
X182835916Y-106035630D01*
X182835916Y-106035630D02*
X182805678Y-105975153D01*
X182805678Y-105975153D02*
X182775440Y-105944915D01*
X182775440Y-105944915D02*
X182714964Y-105914677D01*
X182714964Y-105914677D02*
X182624249Y-105914677D01*
X182624249Y-105914677D02*
X182563773Y-105944915D01*
X182563773Y-105944915D02*
X182533535Y-105975153D01*
X182533535Y-105975153D02*
X182503297Y-106035630D01*
X182503297Y-106035630D02*
X182503297Y-106217058D01*
X182503297Y-106217058D02*
X182533535Y-106277534D01*
X182533535Y-106277534D02*
X182563773Y-106307773D01*
X182563773Y-106307773D02*
X182624249Y-106338011D01*
X182624249Y-106338011D02*
X182714964Y-106338011D01*
X182231154Y-105914677D02*
X182231154Y-106549677D01*
X182231154Y-105944915D02*
X182170678Y-105914677D01*
X182170678Y-105914677D02*
X182049725Y-105914677D01*
X182049725Y-105914677D02*
X181989249Y-105944915D01*
X181989249Y-105944915D02*
X181959011Y-105975153D01*
X181959011Y-105975153D02*
X181928773Y-106035630D01*
X181928773Y-106035630D02*
X181928773Y-106217058D01*
X181928773Y-106217058D02*
X181959011Y-106277534D01*
X181959011Y-106277534D02*
X181989249Y-106307773D01*
X181989249Y-106307773D02*
X182049725Y-106338011D01*
X182049725Y-106338011D02*
X182170678Y-106338011D01*
X182170678Y-106338011D02*
X182231154Y-106307773D01*
X181717106Y-105914677D02*
X181565916Y-106338011D01*
X181414725Y-105914677D02*
X181565916Y-106338011D01*
X181565916Y-106338011D02*
X181626392Y-106489201D01*
X181626392Y-106489201D02*
X181656630Y-106519439D01*
X181656630Y-106519439D02*
X181717106Y-106549677D01*
X181172820Y-106338011D02*
X181172820Y-105914677D01*
X181172820Y-106035630D02*
X181142582Y-105975153D01*
X181142582Y-105975153D02*
X181112344Y-105944915D01*
X181112344Y-105944915D02*
X181051868Y-105914677D01*
X181051868Y-105914677D02*
X180991391Y-105914677D01*
X180779725Y-106338011D02*
X180779725Y-105914677D01*
X180779725Y-105703011D02*
X180809963Y-105733249D01*
X180809963Y-105733249D02*
X180779725Y-105763487D01*
X180779725Y-105763487D02*
X180749487Y-105733249D01*
X180749487Y-105733249D02*
X180779725Y-105703011D01*
X180779725Y-105703011D02*
X180779725Y-105763487D01*
X180205201Y-105914677D02*
X180205201Y-106428725D01*
X180205201Y-106428725D02*
X180235439Y-106489201D01*
X180235439Y-106489201D02*
X180265677Y-106519439D01*
X180265677Y-106519439D02*
X180326154Y-106549677D01*
X180326154Y-106549677D02*
X180416868Y-106549677D01*
X180416868Y-106549677D02*
X180477344Y-106519439D01*
X180205201Y-106307773D02*
X180265677Y-106338011D01*
X180265677Y-106338011D02*
X180386630Y-106338011D01*
X180386630Y-106338011D02*
X180447106Y-106307773D01*
X180447106Y-106307773D02*
X180477344Y-106277534D01*
X180477344Y-106277534D02*
X180507582Y-106217058D01*
X180507582Y-106217058D02*
X180507582Y-106035630D01*
X180507582Y-106035630D02*
X180477344Y-105975153D01*
X180477344Y-105975153D02*
X180447106Y-105944915D01*
X180447106Y-105944915D02*
X180386630Y-105914677D01*
X180386630Y-105914677D02*
X180265677Y-105914677D01*
X180265677Y-105914677D02*
X180205201Y-105944915D01*
X179902820Y-106338011D02*
X179902820Y-105703011D01*
X179630677Y-106338011D02*
X179630677Y-106005392D01*
X179630677Y-106005392D02*
X179660915Y-105944915D01*
X179660915Y-105944915D02*
X179721391Y-105914677D01*
X179721391Y-105914677D02*
X179812106Y-105914677D01*
X179812106Y-105914677D02*
X179872582Y-105944915D01*
X179872582Y-105944915D02*
X179902820Y-105975153D01*
X179419010Y-105914677D02*
X179177106Y-105914677D01*
X179328296Y-105703011D02*
X179328296Y-106247296D01*
X179328296Y-106247296D02*
X179298058Y-106307773D01*
X179298058Y-106307773D02*
X179237582Y-106338011D01*
X179237582Y-106338011D02*
X179177106Y-106338011D01*
X178511867Y-105763487D02*
X178481629Y-105733249D01*
X178481629Y-105733249D02*
X178421153Y-105703011D01*
X178421153Y-105703011D02*
X178269962Y-105703011D01*
X178269962Y-105703011D02*
X178209486Y-105733249D01*
X178209486Y-105733249D02*
X178179248Y-105763487D01*
X178179248Y-105763487D02*
X178149010Y-105823963D01*
X178149010Y-105823963D02*
X178149010Y-105884439D01*
X178149010Y-105884439D02*
X178179248Y-105975153D01*
X178179248Y-105975153D02*
X178542105Y-106338011D01*
X178542105Y-106338011D02*
X178149010Y-106338011D01*
X177755915Y-105703011D02*
X177695438Y-105703011D01*
X177695438Y-105703011D02*
X177634962Y-105733249D01*
X177634962Y-105733249D02*
X177604724Y-105763487D01*
X177604724Y-105763487D02*
X177574486Y-105823963D01*
X177574486Y-105823963D02*
X177544248Y-105944915D01*
X177544248Y-105944915D02*
X177544248Y-106096106D01*
X177544248Y-106096106D02*
X177574486Y-106217058D01*
X177574486Y-106217058D02*
X177604724Y-106277534D01*
X177604724Y-106277534D02*
X177634962Y-106307773D01*
X177634962Y-106307773D02*
X177695438Y-106338011D01*
X177695438Y-106338011D02*
X177755915Y-106338011D01*
X177755915Y-106338011D02*
X177816391Y-106307773D01*
X177816391Y-106307773D02*
X177846629Y-106277534D01*
X177846629Y-106277534D02*
X177876867Y-106217058D01*
X177876867Y-106217058D02*
X177907105Y-106096106D01*
X177907105Y-106096106D02*
X177907105Y-105944915D01*
X177907105Y-105944915D02*
X177876867Y-105823963D01*
X177876867Y-105823963D02*
X177846629Y-105763487D01*
X177846629Y-105763487D02*
X177816391Y-105733249D01*
X177816391Y-105733249D02*
X177755915Y-105703011D01*
X177302343Y-105763487D02*
X177272105Y-105733249D01*
X177272105Y-105733249D02*
X177211629Y-105703011D01*
X177211629Y-105703011D02*
X177060438Y-105703011D01*
X177060438Y-105703011D02*
X176999962Y-105733249D01*
X176999962Y-105733249D02*
X176969724Y-105763487D01*
X176969724Y-105763487D02*
X176939486Y-105823963D01*
X176939486Y-105823963D02*
X176939486Y-105884439D01*
X176939486Y-105884439D02*
X176969724Y-105975153D01*
X176969724Y-105975153D02*
X177332581Y-106338011D01*
X177332581Y-106338011D02*
X176939486Y-106338011D01*
X176364962Y-105703011D02*
X176667343Y-105703011D01*
X176667343Y-105703011D02*
X176697581Y-106005392D01*
X176697581Y-106005392D02*
X176667343Y-105975153D01*
X176667343Y-105975153D02*
X176606867Y-105944915D01*
X176606867Y-105944915D02*
X176455676Y-105944915D01*
X176455676Y-105944915D02*
X176395200Y-105975153D01*
X176395200Y-105975153D02*
X176364962Y-106005392D01*
X176364962Y-106005392D02*
X176334724Y-106065868D01*
X176334724Y-106065868D02*
X176334724Y-106217058D01*
X176334724Y-106217058D02*
X176364962Y-106277534D01*
X176364962Y-106277534D02*
X176395200Y-106307773D01*
X176395200Y-106307773D02*
X176455676Y-106338011D01*
X176455676Y-106338011D02*
X176606867Y-106338011D01*
X176606867Y-106338011D02*
X176667343Y-106307773D01*
X176667343Y-106307773D02*
X176697581Y-106277534D01*
X183531392Y-106725325D02*
X183168535Y-106725325D01*
X183349964Y-107360325D02*
X183349964Y-106725325D01*
X182714963Y-107330087D02*
X182775439Y-107360325D01*
X182775439Y-107360325D02*
X182896392Y-107360325D01*
X182896392Y-107360325D02*
X182956868Y-107330087D01*
X182956868Y-107330087D02*
X182987106Y-107269610D01*
X182987106Y-107269610D02*
X182987106Y-107027706D01*
X182987106Y-107027706D02*
X182956868Y-106967229D01*
X182956868Y-106967229D02*
X182896392Y-106936991D01*
X182896392Y-106936991D02*
X182775439Y-106936991D01*
X182775439Y-106936991D02*
X182714963Y-106967229D01*
X182714963Y-106967229D02*
X182684725Y-107027706D01*
X182684725Y-107027706D02*
X182684725Y-107088182D01*
X182684725Y-107088182D02*
X182987106Y-107148658D01*
X182140439Y-107360325D02*
X182140439Y-107027706D01*
X182140439Y-107027706D02*
X182170677Y-106967229D01*
X182170677Y-106967229D02*
X182231153Y-106936991D01*
X182231153Y-106936991D02*
X182352106Y-106936991D01*
X182352106Y-106936991D02*
X182412582Y-106967229D01*
X182140439Y-107330087D02*
X182200915Y-107360325D01*
X182200915Y-107360325D02*
X182352106Y-107360325D01*
X182352106Y-107360325D02*
X182412582Y-107330087D01*
X182412582Y-107330087D02*
X182442820Y-107269610D01*
X182442820Y-107269610D02*
X182442820Y-107209134D01*
X182442820Y-107209134D02*
X182412582Y-107148658D01*
X182412582Y-107148658D02*
X182352106Y-107118420D01*
X182352106Y-107118420D02*
X182200915Y-107118420D01*
X182200915Y-107118420D02*
X182140439Y-107088182D01*
X181838058Y-107360325D02*
X181838058Y-106936991D01*
X181838058Y-106997467D02*
X181807820Y-106967229D01*
X181807820Y-106967229D02*
X181747344Y-106936991D01*
X181747344Y-106936991D02*
X181656629Y-106936991D01*
X181656629Y-106936991D02*
X181596153Y-106967229D01*
X181596153Y-106967229D02*
X181565915Y-107027706D01*
X181565915Y-107027706D02*
X181565915Y-107360325D01*
X181565915Y-107027706D02*
X181535677Y-106967229D01*
X181535677Y-106967229D02*
X181475201Y-106936991D01*
X181475201Y-106936991D02*
X181384487Y-106936991D01*
X181384487Y-106936991D02*
X181324010Y-106967229D01*
X181324010Y-106967229D02*
X181293772Y-107027706D01*
X181293772Y-107027706D02*
X181293772Y-107360325D01*
X180568057Y-106725325D02*
X180144724Y-106725325D01*
X180144724Y-106725325D02*
X180416867Y-107360325D01*
X179781867Y-106725325D02*
X179721390Y-106725325D01*
X179721390Y-106725325D02*
X179660914Y-106755563D01*
X179660914Y-106755563D02*
X179630676Y-106785801D01*
X179630676Y-106785801D02*
X179600438Y-106846277D01*
X179600438Y-106846277D02*
X179570200Y-106967229D01*
X179570200Y-106967229D02*
X179570200Y-107118420D01*
X179570200Y-107118420D02*
X179600438Y-107239372D01*
X179600438Y-107239372D02*
X179630676Y-107299848D01*
X179630676Y-107299848D02*
X179660914Y-107330087D01*
X179660914Y-107330087D02*
X179721390Y-107360325D01*
X179721390Y-107360325D02*
X179781867Y-107360325D01*
X179781867Y-107360325D02*
X179842343Y-107330087D01*
X179842343Y-107330087D02*
X179872581Y-107299848D01*
X179872581Y-107299848D02*
X179902819Y-107239372D01*
X179902819Y-107239372D02*
X179933057Y-107118420D01*
X179933057Y-107118420D02*
X179933057Y-106967229D01*
X179933057Y-106967229D02*
X179902819Y-106846277D01*
X179902819Y-106846277D02*
X179872581Y-106785801D01*
X179872581Y-106785801D02*
X179842343Y-106755563D01*
X179842343Y-106755563D02*
X179781867Y-106725325D01*
X179025914Y-106936991D02*
X179025914Y-107360325D01*
X179177105Y-106695087D02*
X179328295Y-107148658D01*
X179328295Y-107148658D02*
X178935200Y-107148658D01*
X178602581Y-106997467D02*
X178663057Y-106967229D01*
X178663057Y-106967229D02*
X178693295Y-106936991D01*
X178693295Y-106936991D02*
X178723533Y-106876515D01*
X178723533Y-106876515D02*
X178723533Y-106846277D01*
X178723533Y-106846277D02*
X178693295Y-106785801D01*
X178693295Y-106785801D02*
X178663057Y-106755563D01*
X178663057Y-106755563D02*
X178602581Y-106725325D01*
X178602581Y-106725325D02*
X178481628Y-106725325D01*
X178481628Y-106725325D02*
X178421152Y-106755563D01*
X178421152Y-106755563D02*
X178390914Y-106785801D01*
X178390914Y-106785801D02*
X178360676Y-106846277D01*
X178360676Y-106846277D02*
X178360676Y-106876515D01*
X178360676Y-106876515D02*
X178390914Y-106936991D01*
X178390914Y-106936991D02*
X178421152Y-106967229D01*
X178421152Y-106967229D02*
X178481628Y-106997467D01*
X178481628Y-106997467D02*
X178602581Y-106997467D01*
X178602581Y-106997467D02*
X178663057Y-107027706D01*
X178663057Y-107027706D02*
X178693295Y-107057944D01*
X178693295Y-107057944D02*
X178723533Y-107118420D01*
X178723533Y-107118420D02*
X178723533Y-107239372D01*
X178723533Y-107239372D02*
X178693295Y-107299848D01*
X178693295Y-107299848D02*
X178663057Y-107330087D01*
X178663057Y-107330087D02*
X178602581Y-107360325D01*
X178602581Y-107360325D02*
X178481628Y-107360325D01*
X178481628Y-107360325D02*
X178421152Y-107330087D01*
X178421152Y-107330087D02*
X178390914Y-107299848D01*
X178390914Y-107299848D02*
X178360676Y-107239372D01*
X178360676Y-107239372D02*
X178360676Y-107118420D01*
X178360676Y-107118420D02*
X178390914Y-107057944D01*
X178390914Y-107057944D02*
X178421152Y-107027706D01*
X178421152Y-107027706D02*
X178481628Y-106997467D01*
X177090675Y-107360325D02*
X177120914Y-107360325D01*
X177120914Y-107360325D02*
X177181390Y-107330087D01*
X177181390Y-107330087D02*
X177272104Y-107239372D01*
X177272104Y-107239372D02*
X177423294Y-107057944D01*
X177423294Y-107057944D02*
X177483771Y-106967229D01*
X177483771Y-106967229D02*
X177514009Y-106876515D01*
X177514009Y-106876515D02*
X177514009Y-106816039D01*
X177514009Y-106816039D02*
X177483771Y-106755563D01*
X177483771Y-106755563D02*
X177423294Y-106725325D01*
X177423294Y-106725325D02*
X177393056Y-106725325D01*
X177393056Y-106725325D02*
X177332580Y-106755563D01*
X177332580Y-106755563D02*
X177302342Y-106816039D01*
X177302342Y-106816039D02*
X177302342Y-106846277D01*
X177302342Y-106846277D02*
X177332580Y-106906753D01*
X177332580Y-106906753D02*
X177362818Y-106936991D01*
X177362818Y-106936991D02*
X177544247Y-107057944D01*
X177544247Y-107057944D02*
X177574485Y-107088182D01*
X177574485Y-107088182D02*
X177604723Y-107148658D01*
X177604723Y-107148658D02*
X177604723Y-107239372D01*
X177604723Y-107239372D02*
X177574485Y-107299848D01*
X177574485Y-107299848D02*
X177544247Y-107330087D01*
X177544247Y-107330087D02*
X177483771Y-107360325D01*
X177483771Y-107360325D02*
X177393056Y-107360325D01*
X177393056Y-107360325D02*
X177332580Y-107330087D01*
X177332580Y-107330087D02*
X177302342Y-107299848D01*
X177302342Y-107299848D02*
X177211628Y-107178896D01*
X177211628Y-107178896D02*
X177181390Y-107088182D01*
X177181390Y-107088182D02*
X177181390Y-107027706D01*
X176062580Y-106936991D02*
X176062580Y-107360325D01*
X176213771Y-106695087D02*
X176364961Y-107148658D01*
X176364961Y-107148658D02*
X175971866Y-107148658D01*
X175790437Y-106725325D02*
X175397342Y-106725325D01*
X175397342Y-106725325D02*
X175609009Y-106967229D01*
X175609009Y-106967229D02*
X175518294Y-106967229D01*
X175518294Y-106967229D02*
X175457818Y-106997467D01*
X175457818Y-106997467D02*
X175427580Y-107027706D01*
X175427580Y-107027706D02*
X175397342Y-107088182D01*
X175397342Y-107088182D02*
X175397342Y-107239372D01*
X175397342Y-107239372D02*
X175427580Y-107299848D01*
X175427580Y-107299848D02*
X175457818Y-107330087D01*
X175457818Y-107330087D02*
X175518294Y-107360325D01*
X175518294Y-107360325D02*
X175699723Y-107360325D01*
X175699723Y-107360325D02*
X175760199Y-107330087D01*
X175760199Y-107330087D02*
X175790437Y-107299848D01*
X174853056Y-106725325D02*
X174974009Y-106725325D01*
X174974009Y-106725325D02*
X175034485Y-106755563D01*
X175034485Y-106755563D02*
X175064723Y-106785801D01*
X175064723Y-106785801D02*
X175125199Y-106876515D01*
X175125199Y-106876515D02*
X175155437Y-106997467D01*
X175155437Y-106997467D02*
X175155437Y-107239372D01*
X175155437Y-107239372D02*
X175125199Y-107299848D01*
X175125199Y-107299848D02*
X175094961Y-107330087D01*
X175094961Y-107330087D02*
X175034485Y-107360325D01*
X175034485Y-107360325D02*
X174913532Y-107360325D01*
X174913532Y-107360325D02*
X174853056Y-107330087D01*
X174853056Y-107330087D02*
X174822818Y-107299848D01*
X174822818Y-107299848D02*
X174792580Y-107239372D01*
X174792580Y-107239372D02*
X174792580Y-107088182D01*
X174792580Y-107088182D02*
X174822818Y-107027706D01*
X174822818Y-107027706D02*
X174853056Y-106997467D01*
X174853056Y-106997467D02*
X174913532Y-106967229D01*
X174913532Y-106967229D02*
X175034485Y-106967229D01*
X175034485Y-106967229D02*
X175094961Y-106997467D01*
X175094961Y-106997467D02*
X175125199Y-107027706D01*
X175125199Y-107027706D02*
X175155437Y-107088182D01*
X174399485Y-106725325D02*
X174339008Y-106725325D01*
X174339008Y-106725325D02*
X174278532Y-106755563D01*
X174278532Y-106755563D02*
X174248294Y-106785801D01*
X174248294Y-106785801D02*
X174218056Y-106846277D01*
X174218056Y-106846277D02*
X174187818Y-106967229D01*
X174187818Y-106967229D02*
X174187818Y-107118420D01*
X174187818Y-107118420D02*
X174218056Y-107239372D01*
X174218056Y-107239372D02*
X174248294Y-107299848D01*
X174248294Y-107299848D02*
X174278532Y-107330087D01*
X174278532Y-107330087D02*
X174339008Y-107360325D01*
X174339008Y-107360325D02*
X174399485Y-107360325D01*
X174399485Y-107360325D02*
X174459961Y-107330087D01*
X174459961Y-107330087D02*
X174490199Y-107299848D01*
X174490199Y-107299848D02*
X174520437Y-107239372D01*
X174520437Y-107239372D02*
X174550675Y-107118420D01*
X174550675Y-107118420D02*
X174550675Y-106967229D01*
X174550675Y-106967229D02*
X174520437Y-106846277D01*
X174520437Y-106846277D02*
X174490199Y-106785801D01*
X174490199Y-106785801D02*
X174459961Y-106755563D01*
X174459961Y-106755563D02*
X174399485Y-106725325D01*
X205756392Y-106401871D02*
X205393535Y-106401871D01*
X205574964Y-107036871D02*
X205574964Y-106401871D01*
X205181868Y-107036871D02*
X205181868Y-106401871D01*
X205181868Y-106401871D02*
X204939963Y-106401871D01*
X204939963Y-106401871D02*
X204879487Y-106432109D01*
X204879487Y-106432109D02*
X204849249Y-106462347D01*
X204849249Y-106462347D02*
X204819011Y-106522823D01*
X204819011Y-106522823D02*
X204819011Y-106613537D01*
X204819011Y-106613537D02*
X204849249Y-106674013D01*
X204849249Y-106674013D02*
X204879487Y-106704252D01*
X204879487Y-106704252D02*
X204939963Y-106734490D01*
X204939963Y-106734490D02*
X205181868Y-106734490D01*
X204214249Y-107036871D02*
X204577106Y-107036871D01*
X204395678Y-107036871D02*
X204395678Y-106401871D01*
X204395678Y-106401871D02*
X204456154Y-106492585D01*
X204456154Y-106492585D02*
X204516630Y-106553061D01*
X204516630Y-106553061D02*
X204577106Y-106583299D01*
X202974486Y-106704252D02*
X202490677Y-106704252D01*
X202490677Y-106885680D02*
X202974486Y-106885680D01*
X201371867Y-106432109D02*
X201432343Y-106401871D01*
X201432343Y-106401871D02*
X201523057Y-106401871D01*
X201523057Y-106401871D02*
X201613772Y-106432109D01*
X201613772Y-106432109D02*
X201674248Y-106492585D01*
X201674248Y-106492585D02*
X201704486Y-106553061D01*
X201704486Y-106553061D02*
X201734724Y-106674013D01*
X201734724Y-106674013D02*
X201734724Y-106764728D01*
X201734724Y-106764728D02*
X201704486Y-106885680D01*
X201704486Y-106885680D02*
X201674248Y-106946156D01*
X201674248Y-106946156D02*
X201613772Y-107006633D01*
X201613772Y-107006633D02*
X201523057Y-107036871D01*
X201523057Y-107036871D02*
X201462581Y-107036871D01*
X201462581Y-107036871D02*
X201371867Y-107006633D01*
X201371867Y-107006633D02*
X201341629Y-106976394D01*
X201341629Y-106976394D02*
X201341629Y-106764728D01*
X201341629Y-106764728D02*
X201462581Y-106764728D01*
X201069486Y-107036871D02*
X201069486Y-106401871D01*
X201069486Y-106401871D02*
X200706629Y-107036871D01*
X200706629Y-107036871D02*
X200706629Y-106401871D01*
X200404248Y-107036871D02*
X200404248Y-106401871D01*
X200404248Y-106401871D02*
X200253058Y-106401871D01*
X200253058Y-106401871D02*
X200162343Y-106432109D01*
X200162343Y-106432109D02*
X200101867Y-106492585D01*
X200101867Y-106492585D02*
X200071629Y-106553061D01*
X200071629Y-106553061D02*
X200041391Y-106674013D01*
X200041391Y-106674013D02*
X200041391Y-106764728D01*
X200041391Y-106764728D02*
X200071629Y-106885680D01*
X200071629Y-106885680D02*
X200101867Y-106946156D01*
X200101867Y-106946156D02*
X200162343Y-107006633D01*
X200162343Y-107006633D02*
X200253058Y-107036871D01*
X200253058Y-107036871D02*
X200404248Y-107036871D01*
X205756392Y-107424185D02*
X205393535Y-107424185D01*
X205574964Y-108059185D02*
X205574964Y-107424185D01*
X205181868Y-108059185D02*
X205181868Y-107424185D01*
X205181868Y-107424185D02*
X204939963Y-107424185D01*
X204939963Y-107424185D02*
X204879487Y-107454423D01*
X204879487Y-107454423D02*
X204849249Y-107484661D01*
X204849249Y-107484661D02*
X204819011Y-107545137D01*
X204819011Y-107545137D02*
X204819011Y-107635851D01*
X204819011Y-107635851D02*
X204849249Y-107696327D01*
X204849249Y-107696327D02*
X204879487Y-107726566D01*
X204879487Y-107726566D02*
X204939963Y-107756804D01*
X204939963Y-107756804D02*
X205181868Y-107756804D01*
X204577106Y-107484661D02*
X204546868Y-107454423D01*
X204546868Y-107454423D02*
X204486392Y-107424185D01*
X204486392Y-107424185D02*
X204335201Y-107424185D01*
X204335201Y-107424185D02*
X204274725Y-107454423D01*
X204274725Y-107454423D02*
X204244487Y-107484661D01*
X204244487Y-107484661D02*
X204214249Y-107545137D01*
X204214249Y-107545137D02*
X204214249Y-107605613D01*
X204214249Y-107605613D02*
X204244487Y-107696327D01*
X204244487Y-107696327D02*
X204607344Y-108059185D01*
X204607344Y-108059185D02*
X204214249Y-108059185D01*
X202974486Y-107726566D02*
X202490677Y-107726566D01*
X202490677Y-107907994D02*
X202974486Y-107907994D01*
X201704486Y-107817280D02*
X201220677Y-107817280D01*
X201462581Y-108059185D02*
X201462581Y-107575375D01*
X200615915Y-107424185D02*
X200918296Y-107424185D01*
X200918296Y-107424185D02*
X200948534Y-107726566D01*
X200948534Y-107726566D02*
X200918296Y-107696327D01*
X200918296Y-107696327D02*
X200857820Y-107666089D01*
X200857820Y-107666089D02*
X200706629Y-107666089D01*
X200706629Y-107666089D02*
X200646153Y-107696327D01*
X200646153Y-107696327D02*
X200615915Y-107726566D01*
X200615915Y-107726566D02*
X200585677Y-107787042D01*
X200585677Y-107787042D02*
X200585677Y-107938232D01*
X200585677Y-107938232D02*
X200615915Y-107998708D01*
X200615915Y-107998708D02*
X200646153Y-108028947D01*
X200646153Y-108028947D02*
X200706629Y-108059185D01*
X200706629Y-108059185D02*
X200857820Y-108059185D01*
X200857820Y-108059185D02*
X200918296Y-108028947D01*
X200918296Y-108028947D02*
X200948534Y-107998708D01*
X200404248Y-107424185D02*
X200192582Y-108059185D01*
X200192582Y-108059185D02*
X199980915Y-107424185D01*
X205756392Y-108446499D02*
X205393535Y-108446499D01*
X205574964Y-109081499D02*
X205574964Y-108446499D01*
X205181868Y-109081499D02*
X205181868Y-108446499D01*
X205181868Y-108446499D02*
X204939963Y-108446499D01*
X204939963Y-108446499D02*
X204879487Y-108476737D01*
X204879487Y-108476737D02*
X204849249Y-108506975D01*
X204849249Y-108506975D02*
X204819011Y-108567451D01*
X204819011Y-108567451D02*
X204819011Y-108658165D01*
X204819011Y-108658165D02*
X204849249Y-108718641D01*
X204849249Y-108718641D02*
X204879487Y-108748880D01*
X204879487Y-108748880D02*
X204939963Y-108779118D01*
X204939963Y-108779118D02*
X205181868Y-108779118D01*
X204607344Y-108446499D02*
X204214249Y-108446499D01*
X204214249Y-108446499D02*
X204425916Y-108688403D01*
X204425916Y-108688403D02*
X204335201Y-108688403D01*
X204335201Y-108688403D02*
X204274725Y-108718641D01*
X204274725Y-108718641D02*
X204244487Y-108748880D01*
X204244487Y-108748880D02*
X204214249Y-108809356D01*
X204214249Y-108809356D02*
X204214249Y-108960546D01*
X204214249Y-108960546D02*
X204244487Y-109021022D01*
X204244487Y-109021022D02*
X204274725Y-109051261D01*
X204274725Y-109051261D02*
X204335201Y-109081499D01*
X204335201Y-109081499D02*
X204516630Y-109081499D01*
X204516630Y-109081499D02*
X204577106Y-109051261D01*
X204577106Y-109051261D02*
X204607344Y-109021022D01*
X202974486Y-108748880D02*
X202490677Y-108748880D01*
X202490677Y-108930308D02*
X202974486Y-108930308D01*
X201704486Y-108839594D02*
X201220677Y-108839594D01*
X201462581Y-109081499D02*
X201462581Y-108597689D01*
X200978772Y-108446499D02*
X200585677Y-108446499D01*
X200585677Y-108446499D02*
X200797344Y-108688403D01*
X200797344Y-108688403D02*
X200706629Y-108688403D01*
X200706629Y-108688403D02*
X200646153Y-108718641D01*
X200646153Y-108718641D02*
X200615915Y-108748880D01*
X200615915Y-108748880D02*
X200585677Y-108809356D01*
X200585677Y-108809356D02*
X200585677Y-108960546D01*
X200585677Y-108960546D02*
X200615915Y-109021022D01*
X200615915Y-109021022D02*
X200646153Y-109051261D01*
X200646153Y-109051261D02*
X200706629Y-109081499D01*
X200706629Y-109081499D02*
X200888058Y-109081499D01*
X200888058Y-109081499D02*
X200948534Y-109051261D01*
X200948534Y-109051261D02*
X200978772Y-109021022D01*
X200313534Y-109021022D02*
X200283296Y-109051261D01*
X200283296Y-109051261D02*
X200313534Y-109081499D01*
X200313534Y-109081499D02*
X200343772Y-109051261D01*
X200343772Y-109051261D02*
X200313534Y-109021022D01*
X200313534Y-109021022D02*
X200313534Y-109081499D01*
X200071629Y-108446499D02*
X199678534Y-108446499D01*
X199678534Y-108446499D02*
X199890201Y-108688403D01*
X199890201Y-108688403D02*
X199799486Y-108688403D01*
X199799486Y-108688403D02*
X199739010Y-108718641D01*
X199739010Y-108718641D02*
X199708772Y-108748880D01*
X199708772Y-108748880D02*
X199678534Y-108809356D01*
X199678534Y-108809356D02*
X199678534Y-108960546D01*
X199678534Y-108960546D02*
X199708772Y-109021022D01*
X199708772Y-109021022D02*
X199739010Y-109051261D01*
X199739010Y-109051261D02*
X199799486Y-109081499D01*
X199799486Y-109081499D02*
X199980915Y-109081499D01*
X199980915Y-109081499D02*
X200041391Y-109051261D01*
X200041391Y-109051261D02*
X200071629Y-109021022D01*
X199497105Y-108446499D02*
X199285439Y-109081499D01*
X199285439Y-109081499D02*
X199073772Y-108446499D01*
X205756392Y-109468813D02*
X205393535Y-109468813D01*
X205574964Y-110103813D02*
X205574964Y-109468813D01*
X205181868Y-110103813D02*
X205181868Y-109468813D01*
X205181868Y-109468813D02*
X204939963Y-109468813D01*
X204939963Y-109468813D02*
X204879487Y-109499051D01*
X204879487Y-109499051D02*
X204849249Y-109529289D01*
X204849249Y-109529289D02*
X204819011Y-109589765D01*
X204819011Y-109589765D02*
X204819011Y-109680479D01*
X204819011Y-109680479D02*
X204849249Y-109740955D01*
X204849249Y-109740955D02*
X204879487Y-109771194D01*
X204879487Y-109771194D02*
X204939963Y-109801432D01*
X204939963Y-109801432D02*
X205181868Y-109801432D01*
X204274725Y-109680479D02*
X204274725Y-110103813D01*
X204425916Y-109438575D02*
X204577106Y-109892146D01*
X204577106Y-109892146D02*
X204184011Y-109892146D01*
X202974486Y-109771194D02*
X202490677Y-109771194D01*
X202490677Y-109952622D02*
X202974486Y-109952622D01*
X201734724Y-109529289D02*
X201704486Y-109499051D01*
X201704486Y-109499051D02*
X201644010Y-109468813D01*
X201644010Y-109468813D02*
X201492819Y-109468813D01*
X201492819Y-109468813D02*
X201432343Y-109499051D01*
X201432343Y-109499051D02*
X201402105Y-109529289D01*
X201402105Y-109529289D02*
X201371867Y-109589765D01*
X201371867Y-109589765D02*
X201371867Y-109650241D01*
X201371867Y-109650241D02*
X201402105Y-109740955D01*
X201402105Y-109740955D02*
X201764962Y-110103813D01*
X201764962Y-110103813D02*
X201371867Y-110103813D01*
X201099724Y-110043336D02*
X201069486Y-110073575D01*
X201069486Y-110073575D02*
X201099724Y-110103813D01*
X201099724Y-110103813D02*
X201129962Y-110073575D01*
X201129962Y-110073575D02*
X201099724Y-110043336D01*
X201099724Y-110043336D02*
X201099724Y-110103813D01*
X200706629Y-109740955D02*
X200767105Y-109710717D01*
X200767105Y-109710717D02*
X200797343Y-109680479D01*
X200797343Y-109680479D02*
X200827581Y-109620003D01*
X200827581Y-109620003D02*
X200827581Y-109589765D01*
X200827581Y-109589765D02*
X200797343Y-109529289D01*
X200797343Y-109529289D02*
X200767105Y-109499051D01*
X200767105Y-109499051D02*
X200706629Y-109468813D01*
X200706629Y-109468813D02*
X200585676Y-109468813D01*
X200585676Y-109468813D02*
X200525200Y-109499051D01*
X200525200Y-109499051D02*
X200494962Y-109529289D01*
X200494962Y-109529289D02*
X200464724Y-109589765D01*
X200464724Y-109589765D02*
X200464724Y-109620003D01*
X200464724Y-109620003D02*
X200494962Y-109680479D01*
X200494962Y-109680479D02*
X200525200Y-109710717D01*
X200525200Y-109710717D02*
X200585676Y-109740955D01*
X200585676Y-109740955D02*
X200706629Y-109740955D01*
X200706629Y-109740955D02*
X200767105Y-109771194D01*
X200767105Y-109771194D02*
X200797343Y-109801432D01*
X200797343Y-109801432D02*
X200827581Y-109861908D01*
X200827581Y-109861908D02*
X200827581Y-109982860D01*
X200827581Y-109982860D02*
X200797343Y-110043336D01*
X200797343Y-110043336D02*
X200767105Y-110073575D01*
X200767105Y-110073575D02*
X200706629Y-110103813D01*
X200706629Y-110103813D02*
X200585676Y-110103813D01*
X200585676Y-110103813D02*
X200525200Y-110073575D01*
X200525200Y-110073575D02*
X200494962Y-110043336D01*
X200494962Y-110043336D02*
X200464724Y-109982860D01*
X200464724Y-109982860D02*
X200464724Y-109861908D01*
X200464724Y-109861908D02*
X200494962Y-109801432D01*
X200494962Y-109801432D02*
X200525200Y-109771194D01*
X200525200Y-109771194D02*
X200585676Y-109740955D01*
X200283295Y-109468813D02*
X200071629Y-110103813D01*
X200071629Y-110103813D02*
X199859962Y-109468813D01*
X205756392Y-110491127D02*
X205393535Y-110491127D01*
X205574964Y-111126127D02*
X205574964Y-110491127D01*
X205181868Y-111126127D02*
X205181868Y-110491127D01*
X205181868Y-110491127D02*
X204939963Y-110491127D01*
X204939963Y-110491127D02*
X204879487Y-110521365D01*
X204879487Y-110521365D02*
X204849249Y-110551603D01*
X204849249Y-110551603D02*
X204819011Y-110612079D01*
X204819011Y-110612079D02*
X204819011Y-110702793D01*
X204819011Y-110702793D02*
X204849249Y-110763269D01*
X204849249Y-110763269D02*
X204879487Y-110793508D01*
X204879487Y-110793508D02*
X204939963Y-110823746D01*
X204939963Y-110823746D02*
X205181868Y-110823746D01*
X204244487Y-110491127D02*
X204546868Y-110491127D01*
X204546868Y-110491127D02*
X204577106Y-110793508D01*
X204577106Y-110793508D02*
X204546868Y-110763269D01*
X204546868Y-110763269D02*
X204486392Y-110733031D01*
X204486392Y-110733031D02*
X204335201Y-110733031D01*
X204335201Y-110733031D02*
X204274725Y-110763269D01*
X204274725Y-110763269D02*
X204244487Y-110793508D01*
X204244487Y-110793508D02*
X204214249Y-110853984D01*
X204214249Y-110853984D02*
X204214249Y-111005174D01*
X204214249Y-111005174D02*
X204244487Y-111065650D01*
X204244487Y-111065650D02*
X204274725Y-111095889D01*
X204274725Y-111095889D02*
X204335201Y-111126127D01*
X204335201Y-111126127D02*
X204486392Y-111126127D01*
X204486392Y-111126127D02*
X204546868Y-111095889D01*
X204546868Y-111095889D02*
X204577106Y-111065650D01*
X202974486Y-110793508D02*
X202490677Y-110793508D01*
X202490677Y-110974936D02*
X202974486Y-110974936D01*
X201795200Y-110491127D02*
X201432343Y-110491127D01*
X201613772Y-111126127D02*
X201613772Y-110491127D01*
X201099724Y-110491127D02*
X200978771Y-110491127D01*
X200978771Y-110491127D02*
X200918295Y-110521365D01*
X200918295Y-110521365D02*
X200857819Y-110581841D01*
X200857819Y-110581841D02*
X200827581Y-110702793D01*
X200827581Y-110702793D02*
X200827581Y-110914460D01*
X200827581Y-110914460D02*
X200857819Y-111035412D01*
X200857819Y-111035412D02*
X200918295Y-111095889D01*
X200918295Y-111095889D02*
X200978771Y-111126127D01*
X200978771Y-111126127D02*
X201099724Y-111126127D01*
X201099724Y-111126127D02*
X201160200Y-111095889D01*
X201160200Y-111095889D02*
X201220676Y-111035412D01*
X201220676Y-111035412D02*
X201250914Y-110914460D01*
X201250914Y-110914460D02*
X201250914Y-110702793D01*
X201250914Y-110702793D02*
X201220676Y-110581841D01*
X201220676Y-110581841D02*
X201160200Y-110521365D01*
X201160200Y-110521365D02*
X201099724Y-110491127D01*
X200343771Y-110793508D02*
X200555438Y-110793508D01*
X200555438Y-111126127D02*
X200555438Y-110491127D01*
X200555438Y-110491127D02*
X200253057Y-110491127D01*
X200162343Y-111186603D02*
X199678533Y-111186603D01*
X199587818Y-110491127D02*
X199164485Y-111126127D01*
X199164485Y-110491127D02*
X199587818Y-111126127D01*
X198952818Y-111095889D02*
X198862104Y-111126127D01*
X198862104Y-111126127D02*
X198710913Y-111126127D01*
X198710913Y-111126127D02*
X198650437Y-111095889D01*
X198650437Y-111095889D02*
X198620199Y-111065650D01*
X198620199Y-111065650D02*
X198589961Y-111005174D01*
X198589961Y-111005174D02*
X198589961Y-110944698D01*
X198589961Y-110944698D02*
X198620199Y-110884222D01*
X198620199Y-110884222D02*
X198650437Y-110853984D01*
X198650437Y-110853984D02*
X198710913Y-110823746D01*
X198710913Y-110823746D02*
X198831866Y-110793508D01*
X198831866Y-110793508D02*
X198892342Y-110763269D01*
X198892342Y-110763269D02*
X198922580Y-110733031D01*
X198922580Y-110733031D02*
X198952818Y-110672555D01*
X198952818Y-110672555D02*
X198952818Y-110612079D01*
X198952818Y-110612079D02*
X198922580Y-110551603D01*
X198922580Y-110551603D02*
X198892342Y-110521365D01*
X198892342Y-110521365D02*
X198831866Y-110491127D01*
X198831866Y-110491127D02*
X198680675Y-110491127D01*
X198680675Y-110491127D02*
X198589961Y-110521365D01*
X198317818Y-111126127D02*
X198317818Y-110491127D01*
X198317818Y-110793508D02*
X197954961Y-110793508D01*
X197954961Y-111126127D02*
X197954961Y-110491127D01*
X197652580Y-110491127D02*
X197652580Y-111005174D01*
X197652580Y-111005174D02*
X197622342Y-111065650D01*
X197622342Y-111065650D02*
X197592104Y-111095889D01*
X197592104Y-111095889D02*
X197531628Y-111126127D01*
X197531628Y-111126127D02*
X197410675Y-111126127D01*
X197410675Y-111126127D02*
X197350199Y-111095889D01*
X197350199Y-111095889D02*
X197319961Y-111065650D01*
X197319961Y-111065650D02*
X197289723Y-111005174D01*
X197289723Y-111005174D02*
X197289723Y-110491127D01*
X197078056Y-110491127D02*
X196715199Y-110491127D01*
X196896628Y-111126127D02*
X196896628Y-110491127D01*
X205756392Y-111513441D02*
X205393535Y-111513441D01*
X205574964Y-112148441D02*
X205574964Y-111513441D01*
X205181868Y-112148441D02*
X205181868Y-111513441D01*
X205181868Y-111513441D02*
X204939963Y-111513441D01*
X204939963Y-111513441D02*
X204879487Y-111543679D01*
X204879487Y-111543679D02*
X204849249Y-111573917D01*
X204849249Y-111573917D02*
X204819011Y-111634393D01*
X204819011Y-111634393D02*
X204819011Y-111725107D01*
X204819011Y-111725107D02*
X204849249Y-111785583D01*
X204849249Y-111785583D02*
X204879487Y-111815822D01*
X204879487Y-111815822D02*
X204939963Y-111846060D01*
X204939963Y-111846060D02*
X205181868Y-111846060D01*
X204274725Y-111513441D02*
X204395678Y-111513441D01*
X204395678Y-111513441D02*
X204456154Y-111543679D01*
X204456154Y-111543679D02*
X204486392Y-111573917D01*
X204486392Y-111573917D02*
X204546868Y-111664631D01*
X204546868Y-111664631D02*
X204577106Y-111785583D01*
X204577106Y-111785583D02*
X204577106Y-112027488D01*
X204577106Y-112027488D02*
X204546868Y-112087964D01*
X204546868Y-112087964D02*
X204516630Y-112118203D01*
X204516630Y-112118203D02*
X204456154Y-112148441D01*
X204456154Y-112148441D02*
X204335201Y-112148441D01*
X204335201Y-112148441D02*
X204274725Y-112118203D01*
X204274725Y-112118203D02*
X204244487Y-112087964D01*
X204244487Y-112087964D02*
X204214249Y-112027488D01*
X204214249Y-112027488D02*
X204214249Y-111876298D01*
X204214249Y-111876298D02*
X204244487Y-111815822D01*
X204244487Y-111815822D02*
X204274725Y-111785583D01*
X204274725Y-111785583D02*
X204335201Y-111755345D01*
X204335201Y-111755345D02*
X204456154Y-111755345D01*
X204456154Y-111755345D02*
X204516630Y-111785583D01*
X204516630Y-111785583D02*
X204546868Y-111815822D01*
X204546868Y-111815822D02*
X204577106Y-111876298D01*
X202974486Y-111815822D02*
X202490677Y-111815822D01*
X202490677Y-111997250D02*
X202974486Y-111997250D01*
X201795200Y-111513441D02*
X201432343Y-111513441D01*
X201613772Y-112148441D02*
X201613772Y-111513441D01*
X201099724Y-111513441D02*
X200978771Y-111513441D01*
X200978771Y-111513441D02*
X200918295Y-111543679D01*
X200918295Y-111543679D02*
X200857819Y-111604155D01*
X200857819Y-111604155D02*
X200827581Y-111725107D01*
X200827581Y-111725107D02*
X200827581Y-111936774D01*
X200827581Y-111936774D02*
X200857819Y-112057726D01*
X200857819Y-112057726D02*
X200918295Y-112118203D01*
X200918295Y-112118203D02*
X200978771Y-112148441D01*
X200978771Y-112148441D02*
X201099724Y-112148441D01*
X201099724Y-112148441D02*
X201160200Y-112118203D01*
X201160200Y-112118203D02*
X201220676Y-112057726D01*
X201220676Y-112057726D02*
X201250914Y-111936774D01*
X201250914Y-111936774D02*
X201250914Y-111725107D01*
X201250914Y-111725107D02*
X201220676Y-111604155D01*
X201220676Y-111604155D02*
X201160200Y-111543679D01*
X201160200Y-111543679D02*
X201099724Y-111513441D01*
X200343771Y-111815822D02*
X200555438Y-111815822D01*
X200555438Y-112148441D02*
X200555438Y-111513441D01*
X200555438Y-111513441D02*
X200253057Y-111513441D01*
X200162343Y-112208917D02*
X199678533Y-112208917D01*
X199527342Y-112148441D02*
X199527342Y-111513441D01*
X199224961Y-112148441D02*
X199224961Y-111513441D01*
X199224961Y-111513441D02*
X198862104Y-112148441D01*
X198862104Y-112148441D02*
X198862104Y-111513441D01*
X198650437Y-111513441D02*
X198287580Y-111513441D01*
X198469009Y-112148441D02*
X198469009Y-111513441D01*
X205756392Y-112535755D02*
X205393535Y-112535755D01*
X205574964Y-113170755D02*
X205574964Y-112535755D01*
X205181868Y-113170755D02*
X205181868Y-112535755D01*
X205181868Y-112535755D02*
X204939963Y-112535755D01*
X204939963Y-112535755D02*
X204879487Y-112565993D01*
X204879487Y-112565993D02*
X204849249Y-112596231D01*
X204849249Y-112596231D02*
X204819011Y-112656707D01*
X204819011Y-112656707D02*
X204819011Y-112747421D01*
X204819011Y-112747421D02*
X204849249Y-112807897D01*
X204849249Y-112807897D02*
X204879487Y-112838136D01*
X204879487Y-112838136D02*
X204939963Y-112868374D01*
X204939963Y-112868374D02*
X205181868Y-112868374D01*
X204607344Y-112535755D02*
X204184011Y-112535755D01*
X204184011Y-112535755D02*
X204456154Y-113170755D01*
X202974486Y-112838136D02*
X202490677Y-112838136D01*
X202490677Y-113019564D02*
X202974486Y-113019564D01*
X201795200Y-112535755D02*
X201432343Y-112535755D01*
X201613772Y-113170755D02*
X201613772Y-112535755D01*
X201099724Y-112535755D02*
X200978771Y-112535755D01*
X200978771Y-112535755D02*
X200918295Y-112565993D01*
X200918295Y-112565993D02*
X200857819Y-112626469D01*
X200857819Y-112626469D02*
X200827581Y-112747421D01*
X200827581Y-112747421D02*
X200827581Y-112959088D01*
X200827581Y-112959088D02*
X200857819Y-113080040D01*
X200857819Y-113080040D02*
X200918295Y-113140517D01*
X200918295Y-113140517D02*
X200978771Y-113170755D01*
X200978771Y-113170755D02*
X201099724Y-113170755D01*
X201099724Y-113170755D02*
X201160200Y-113140517D01*
X201160200Y-113140517D02*
X201220676Y-113080040D01*
X201220676Y-113080040D02*
X201250914Y-112959088D01*
X201250914Y-112959088D02*
X201250914Y-112747421D01*
X201250914Y-112747421D02*
X201220676Y-112626469D01*
X201220676Y-112626469D02*
X201160200Y-112565993D01*
X201160200Y-112565993D02*
X201099724Y-112535755D01*
X200343771Y-112838136D02*
X200555438Y-112838136D01*
X200555438Y-113170755D02*
X200555438Y-112535755D01*
X200555438Y-112535755D02*
X200253057Y-112535755D01*
X200162343Y-113231231D02*
X199678533Y-113231231D01*
X199557580Y-113140517D02*
X199466866Y-113170755D01*
X199466866Y-113170755D02*
X199315675Y-113170755D01*
X199315675Y-113170755D02*
X199255199Y-113140517D01*
X199255199Y-113140517D02*
X199224961Y-113110278D01*
X199224961Y-113110278D02*
X199194723Y-113049802D01*
X199194723Y-113049802D02*
X199194723Y-112989326D01*
X199194723Y-112989326D02*
X199224961Y-112928850D01*
X199224961Y-112928850D02*
X199255199Y-112898612D01*
X199255199Y-112898612D02*
X199315675Y-112868374D01*
X199315675Y-112868374D02*
X199436628Y-112838136D01*
X199436628Y-112838136D02*
X199497104Y-112807897D01*
X199497104Y-112807897D02*
X199527342Y-112777659D01*
X199527342Y-112777659D02*
X199557580Y-112717183D01*
X199557580Y-112717183D02*
X199557580Y-112656707D01*
X199557580Y-112656707D02*
X199527342Y-112596231D01*
X199527342Y-112596231D02*
X199497104Y-112565993D01*
X199497104Y-112565993D02*
X199436628Y-112535755D01*
X199436628Y-112535755D02*
X199285437Y-112535755D01*
X199285437Y-112535755D02*
X199194723Y-112565993D01*
X198559723Y-113110278D02*
X198589961Y-113140517D01*
X198589961Y-113140517D02*
X198680675Y-113170755D01*
X198680675Y-113170755D02*
X198741151Y-113170755D01*
X198741151Y-113170755D02*
X198831866Y-113140517D01*
X198831866Y-113140517D02*
X198892342Y-113080040D01*
X198892342Y-113080040D02*
X198922580Y-113019564D01*
X198922580Y-113019564D02*
X198952818Y-112898612D01*
X198952818Y-112898612D02*
X198952818Y-112807897D01*
X198952818Y-112807897D02*
X198922580Y-112686945D01*
X198922580Y-112686945D02*
X198892342Y-112626469D01*
X198892342Y-112626469D02*
X198831866Y-112565993D01*
X198831866Y-112565993D02*
X198741151Y-112535755D01*
X198741151Y-112535755D02*
X198680675Y-112535755D01*
X198680675Y-112535755D02*
X198589961Y-112565993D01*
X198589961Y-112565993D02*
X198559723Y-112596231D01*
X197985199Y-113170755D02*
X198287580Y-113170755D01*
X198287580Y-113170755D02*
X198287580Y-112535755D01*
X205756392Y-113558069D02*
X205393535Y-113558069D01*
X205574964Y-114193069D02*
X205574964Y-113558069D01*
X205181868Y-114193069D02*
X205181868Y-113558069D01*
X205181868Y-113558069D02*
X204939963Y-113558069D01*
X204939963Y-113558069D02*
X204879487Y-113588307D01*
X204879487Y-113588307D02*
X204849249Y-113618545D01*
X204849249Y-113618545D02*
X204819011Y-113679021D01*
X204819011Y-113679021D02*
X204819011Y-113769735D01*
X204819011Y-113769735D02*
X204849249Y-113830211D01*
X204849249Y-113830211D02*
X204879487Y-113860450D01*
X204879487Y-113860450D02*
X204939963Y-113890688D01*
X204939963Y-113890688D02*
X205181868Y-113890688D01*
X204456154Y-113830211D02*
X204516630Y-113799973D01*
X204516630Y-113799973D02*
X204546868Y-113769735D01*
X204546868Y-113769735D02*
X204577106Y-113709259D01*
X204577106Y-113709259D02*
X204577106Y-113679021D01*
X204577106Y-113679021D02*
X204546868Y-113618545D01*
X204546868Y-113618545D02*
X204516630Y-113588307D01*
X204516630Y-113588307D02*
X204456154Y-113558069D01*
X204456154Y-113558069D02*
X204335201Y-113558069D01*
X204335201Y-113558069D02*
X204274725Y-113588307D01*
X204274725Y-113588307D02*
X204244487Y-113618545D01*
X204244487Y-113618545D02*
X204214249Y-113679021D01*
X204214249Y-113679021D02*
X204214249Y-113709259D01*
X204214249Y-113709259D02*
X204244487Y-113769735D01*
X204244487Y-113769735D02*
X204274725Y-113799973D01*
X204274725Y-113799973D02*
X204335201Y-113830211D01*
X204335201Y-113830211D02*
X204456154Y-113830211D01*
X204456154Y-113830211D02*
X204516630Y-113860450D01*
X204516630Y-113860450D02*
X204546868Y-113890688D01*
X204546868Y-113890688D02*
X204577106Y-113951164D01*
X204577106Y-113951164D02*
X204577106Y-114072116D01*
X204577106Y-114072116D02*
X204546868Y-114132592D01*
X204546868Y-114132592D02*
X204516630Y-114162831D01*
X204516630Y-114162831D02*
X204456154Y-114193069D01*
X204456154Y-114193069D02*
X204335201Y-114193069D01*
X204335201Y-114193069D02*
X204274725Y-114162831D01*
X204274725Y-114162831D02*
X204244487Y-114132592D01*
X204244487Y-114132592D02*
X204214249Y-114072116D01*
X204214249Y-114072116D02*
X204214249Y-113951164D01*
X204214249Y-113951164D02*
X204244487Y-113890688D01*
X204244487Y-113890688D02*
X204274725Y-113860450D01*
X204274725Y-113860450D02*
X204335201Y-113830211D01*
X202974486Y-113860450D02*
X202490677Y-113860450D01*
X202490677Y-114041878D02*
X202974486Y-114041878D01*
X201795200Y-113558069D02*
X201432343Y-113558069D01*
X201613772Y-114193069D02*
X201613772Y-113558069D01*
X201099724Y-113558069D02*
X200978771Y-113558069D01*
X200978771Y-113558069D02*
X200918295Y-113588307D01*
X200918295Y-113588307D02*
X200857819Y-113648783D01*
X200857819Y-113648783D02*
X200827581Y-113769735D01*
X200827581Y-113769735D02*
X200827581Y-113981402D01*
X200827581Y-113981402D02*
X200857819Y-114102354D01*
X200857819Y-114102354D02*
X200918295Y-114162831D01*
X200918295Y-114162831D02*
X200978771Y-114193069D01*
X200978771Y-114193069D02*
X201099724Y-114193069D01*
X201099724Y-114193069D02*
X201160200Y-114162831D01*
X201160200Y-114162831D02*
X201220676Y-114102354D01*
X201220676Y-114102354D02*
X201250914Y-113981402D01*
X201250914Y-113981402D02*
X201250914Y-113769735D01*
X201250914Y-113769735D02*
X201220676Y-113648783D01*
X201220676Y-113648783D02*
X201160200Y-113588307D01*
X201160200Y-113588307D02*
X201099724Y-113558069D01*
X200343771Y-113860450D02*
X200555438Y-113860450D01*
X200555438Y-114193069D02*
X200555438Y-113558069D01*
X200555438Y-113558069D02*
X200253057Y-113558069D01*
X200162343Y-114253545D02*
X199678533Y-114253545D01*
X199557580Y-114162831D02*
X199466866Y-114193069D01*
X199466866Y-114193069D02*
X199315675Y-114193069D01*
X199315675Y-114193069D02*
X199255199Y-114162831D01*
X199255199Y-114162831D02*
X199224961Y-114132592D01*
X199224961Y-114132592D02*
X199194723Y-114072116D01*
X199194723Y-114072116D02*
X199194723Y-114011640D01*
X199194723Y-114011640D02*
X199224961Y-113951164D01*
X199224961Y-113951164D02*
X199255199Y-113920926D01*
X199255199Y-113920926D02*
X199315675Y-113890688D01*
X199315675Y-113890688D02*
X199436628Y-113860450D01*
X199436628Y-113860450D02*
X199497104Y-113830211D01*
X199497104Y-113830211D02*
X199527342Y-113799973D01*
X199527342Y-113799973D02*
X199557580Y-113739497D01*
X199557580Y-113739497D02*
X199557580Y-113679021D01*
X199557580Y-113679021D02*
X199527342Y-113618545D01*
X199527342Y-113618545D02*
X199497104Y-113588307D01*
X199497104Y-113588307D02*
X199436628Y-113558069D01*
X199436628Y-113558069D02*
X199285437Y-113558069D01*
X199285437Y-113558069D02*
X199194723Y-113588307D01*
X198922580Y-114193069D02*
X198922580Y-113558069D01*
X198922580Y-113558069D02*
X198771390Y-113558069D01*
X198771390Y-113558069D02*
X198680675Y-113588307D01*
X198680675Y-113588307D02*
X198620199Y-113648783D01*
X198620199Y-113648783D02*
X198589961Y-113709259D01*
X198589961Y-113709259D02*
X198559723Y-113830211D01*
X198559723Y-113830211D02*
X198559723Y-113920926D01*
X198559723Y-113920926D02*
X198589961Y-114041878D01*
X198589961Y-114041878D02*
X198620199Y-114102354D01*
X198620199Y-114102354D02*
X198680675Y-114162831D01*
X198680675Y-114162831D02*
X198771390Y-114193069D01*
X198771390Y-114193069D02*
X198922580Y-114193069D01*
X198317818Y-114011640D02*
X198015437Y-114011640D01*
X198378294Y-114193069D02*
X198166628Y-113558069D01*
X198166628Y-113558069D02*
X197954961Y-114193069D01*
X205756392Y-114580383D02*
X205393535Y-114580383D01*
X205574964Y-115215383D02*
X205574964Y-114580383D01*
X205181868Y-115215383D02*
X205181868Y-114580383D01*
X205181868Y-114580383D02*
X204939963Y-114580383D01*
X204939963Y-114580383D02*
X204879487Y-114610621D01*
X204879487Y-114610621D02*
X204849249Y-114640859D01*
X204849249Y-114640859D02*
X204819011Y-114701335D01*
X204819011Y-114701335D02*
X204819011Y-114792049D01*
X204819011Y-114792049D02*
X204849249Y-114852525D01*
X204849249Y-114852525D02*
X204879487Y-114882764D01*
X204879487Y-114882764D02*
X204939963Y-114913002D01*
X204939963Y-114913002D02*
X205181868Y-114913002D01*
X204516630Y-115215383D02*
X204395678Y-115215383D01*
X204395678Y-115215383D02*
X204335201Y-115185145D01*
X204335201Y-115185145D02*
X204304963Y-115154906D01*
X204304963Y-115154906D02*
X204244487Y-115064192D01*
X204244487Y-115064192D02*
X204214249Y-114943240D01*
X204214249Y-114943240D02*
X204214249Y-114701335D01*
X204214249Y-114701335D02*
X204244487Y-114640859D01*
X204244487Y-114640859D02*
X204274725Y-114610621D01*
X204274725Y-114610621D02*
X204335201Y-114580383D01*
X204335201Y-114580383D02*
X204456154Y-114580383D01*
X204456154Y-114580383D02*
X204516630Y-114610621D01*
X204516630Y-114610621D02*
X204546868Y-114640859D01*
X204546868Y-114640859D02*
X204577106Y-114701335D01*
X204577106Y-114701335D02*
X204577106Y-114852525D01*
X204577106Y-114852525D02*
X204546868Y-114913002D01*
X204546868Y-114913002D02*
X204516630Y-114943240D01*
X204516630Y-114943240D02*
X204456154Y-114973478D01*
X204456154Y-114973478D02*
X204335201Y-114973478D01*
X204335201Y-114973478D02*
X204274725Y-114943240D01*
X204274725Y-114943240D02*
X204244487Y-114913002D01*
X204244487Y-114913002D02*
X204214249Y-114852525D01*
X202974486Y-114882764D02*
X202490677Y-114882764D01*
X202490677Y-115064192D02*
X202974486Y-115064192D01*
X201795200Y-114580383D02*
X201432343Y-114580383D01*
X201613772Y-115215383D02*
X201613772Y-114580383D01*
X201009009Y-114882764D02*
X200918295Y-114913002D01*
X200918295Y-114913002D02*
X200888057Y-114943240D01*
X200888057Y-114943240D02*
X200857819Y-115003716D01*
X200857819Y-115003716D02*
X200857819Y-115094430D01*
X200857819Y-115094430D02*
X200888057Y-115154906D01*
X200888057Y-115154906D02*
X200918295Y-115185145D01*
X200918295Y-115185145D02*
X200978771Y-115215383D01*
X200978771Y-115215383D02*
X201220676Y-115215383D01*
X201220676Y-115215383D02*
X201220676Y-114580383D01*
X201220676Y-114580383D02*
X201009009Y-114580383D01*
X201009009Y-114580383D02*
X200948533Y-114610621D01*
X200948533Y-114610621D02*
X200918295Y-114640859D01*
X200918295Y-114640859D02*
X200888057Y-114701335D01*
X200888057Y-114701335D02*
X200888057Y-114761811D01*
X200888057Y-114761811D02*
X200918295Y-114822287D01*
X200918295Y-114822287D02*
X200948533Y-114852525D01*
X200948533Y-114852525D02*
X201009009Y-114882764D01*
X201009009Y-114882764D02*
X201220676Y-114882764D01*
X200736867Y-115275859D02*
X200253057Y-115275859D01*
X199739009Y-115154906D02*
X199769247Y-115185145D01*
X199769247Y-115185145D02*
X199859961Y-115215383D01*
X199859961Y-115215383D02*
X199920437Y-115215383D01*
X199920437Y-115215383D02*
X200011152Y-115185145D01*
X200011152Y-115185145D02*
X200071628Y-115124668D01*
X200071628Y-115124668D02*
X200101866Y-115064192D01*
X200101866Y-115064192D02*
X200132104Y-114943240D01*
X200132104Y-114943240D02*
X200132104Y-114852525D01*
X200132104Y-114852525D02*
X200101866Y-114731573D01*
X200101866Y-114731573D02*
X200071628Y-114671097D01*
X200071628Y-114671097D02*
X200011152Y-114610621D01*
X200011152Y-114610621D02*
X199920437Y-114580383D01*
X199920437Y-114580383D02*
X199859961Y-114580383D01*
X199859961Y-114580383D02*
X199769247Y-114610621D01*
X199769247Y-114610621D02*
X199739009Y-114640859D01*
X199497104Y-115185145D02*
X199406390Y-115215383D01*
X199406390Y-115215383D02*
X199255199Y-115215383D01*
X199255199Y-115215383D02*
X199194723Y-115185145D01*
X199194723Y-115185145D02*
X199164485Y-115154906D01*
X199164485Y-115154906D02*
X199134247Y-115094430D01*
X199134247Y-115094430D02*
X199134247Y-115033954D01*
X199134247Y-115033954D02*
X199164485Y-114973478D01*
X199164485Y-114973478D02*
X199194723Y-114943240D01*
X199194723Y-114943240D02*
X199255199Y-114913002D01*
X199255199Y-114913002D02*
X199376152Y-114882764D01*
X199376152Y-114882764D02*
X199436628Y-114852525D01*
X199436628Y-114852525D02*
X199466866Y-114822287D01*
X199466866Y-114822287D02*
X199497104Y-114761811D01*
X199497104Y-114761811D02*
X199497104Y-114701335D01*
X199497104Y-114701335D02*
X199466866Y-114640859D01*
X199466866Y-114640859D02*
X199436628Y-114610621D01*
X199436628Y-114610621D02*
X199376152Y-114580383D01*
X199376152Y-114580383D02*
X199224961Y-114580383D01*
X199224961Y-114580383D02*
X199134247Y-114610621D01*
X205756392Y-115602697D02*
X205393535Y-115602697D01*
X205574964Y-116237697D02*
X205574964Y-115602697D01*
X205181868Y-116237697D02*
X205181868Y-115602697D01*
X205181868Y-115602697D02*
X204939963Y-115602697D01*
X204939963Y-115602697D02*
X204879487Y-115632935D01*
X204879487Y-115632935D02*
X204849249Y-115663173D01*
X204849249Y-115663173D02*
X204819011Y-115723649D01*
X204819011Y-115723649D02*
X204819011Y-115814363D01*
X204819011Y-115814363D02*
X204849249Y-115874839D01*
X204849249Y-115874839D02*
X204879487Y-115905078D01*
X204879487Y-115905078D02*
X204939963Y-115935316D01*
X204939963Y-115935316D02*
X205181868Y-115935316D01*
X204214249Y-116237697D02*
X204577106Y-116237697D01*
X204395678Y-116237697D02*
X204395678Y-115602697D01*
X204395678Y-115602697D02*
X204456154Y-115693411D01*
X204456154Y-115693411D02*
X204516630Y-115753887D01*
X204516630Y-115753887D02*
X204577106Y-115784125D01*
X203821154Y-115602697D02*
X203760677Y-115602697D01*
X203760677Y-115602697D02*
X203700201Y-115632935D01*
X203700201Y-115632935D02*
X203669963Y-115663173D01*
X203669963Y-115663173D02*
X203639725Y-115723649D01*
X203639725Y-115723649D02*
X203609487Y-115844601D01*
X203609487Y-115844601D02*
X203609487Y-115995792D01*
X203609487Y-115995792D02*
X203639725Y-116116744D01*
X203639725Y-116116744D02*
X203669963Y-116177220D01*
X203669963Y-116177220D02*
X203700201Y-116207459D01*
X203700201Y-116207459D02*
X203760677Y-116237697D01*
X203760677Y-116237697D02*
X203821154Y-116237697D01*
X203821154Y-116237697D02*
X203881630Y-116207459D01*
X203881630Y-116207459D02*
X203911868Y-116177220D01*
X203911868Y-116177220D02*
X203942106Y-116116744D01*
X203942106Y-116116744D02*
X203972344Y-115995792D01*
X203972344Y-115995792D02*
X203972344Y-115844601D01*
X203972344Y-115844601D02*
X203942106Y-115723649D01*
X203942106Y-115723649D02*
X203911868Y-115663173D01*
X203911868Y-115663173D02*
X203881630Y-115632935D01*
X203881630Y-115632935D02*
X203821154Y-115602697D01*
X202853534Y-115905078D02*
X202369725Y-115905078D01*
X202369725Y-116086506D02*
X202853534Y-116086506D01*
X201674248Y-115602697D02*
X201311391Y-115602697D01*
X201492820Y-116237697D02*
X201492820Y-115602697D01*
X200888057Y-115905078D02*
X200797343Y-115935316D01*
X200797343Y-115935316D02*
X200767105Y-115965554D01*
X200767105Y-115965554D02*
X200736867Y-116026030D01*
X200736867Y-116026030D02*
X200736867Y-116116744D01*
X200736867Y-116116744D02*
X200767105Y-116177220D01*
X200767105Y-116177220D02*
X200797343Y-116207459D01*
X200797343Y-116207459D02*
X200857819Y-116237697D01*
X200857819Y-116237697D02*
X201099724Y-116237697D01*
X201099724Y-116237697D02*
X201099724Y-115602697D01*
X201099724Y-115602697D02*
X200888057Y-115602697D01*
X200888057Y-115602697D02*
X200827581Y-115632935D01*
X200827581Y-115632935D02*
X200797343Y-115663173D01*
X200797343Y-115663173D02*
X200767105Y-115723649D01*
X200767105Y-115723649D02*
X200767105Y-115784125D01*
X200767105Y-115784125D02*
X200797343Y-115844601D01*
X200797343Y-115844601D02*
X200827581Y-115874839D01*
X200827581Y-115874839D02*
X200888057Y-115905078D01*
X200888057Y-115905078D02*
X201099724Y-115905078D01*
X200615915Y-116298173D02*
X200132105Y-116298173D01*
X199980914Y-116237697D02*
X199980914Y-115602697D01*
X199980914Y-115602697D02*
X199769247Y-116056268D01*
X199769247Y-116056268D02*
X199557581Y-115602697D01*
X199557581Y-115602697D02*
X199557581Y-116237697D01*
X199134248Y-115602697D02*
X199013295Y-115602697D01*
X199013295Y-115602697D02*
X198952819Y-115632935D01*
X198952819Y-115632935D02*
X198892343Y-115693411D01*
X198892343Y-115693411D02*
X198862105Y-115814363D01*
X198862105Y-115814363D02*
X198862105Y-116026030D01*
X198862105Y-116026030D02*
X198892343Y-116146982D01*
X198892343Y-116146982D02*
X198952819Y-116207459D01*
X198952819Y-116207459D02*
X199013295Y-116237697D01*
X199013295Y-116237697D02*
X199134248Y-116237697D01*
X199134248Y-116237697D02*
X199194724Y-116207459D01*
X199194724Y-116207459D02*
X199255200Y-116146982D01*
X199255200Y-116146982D02*
X199285438Y-116026030D01*
X199285438Y-116026030D02*
X199285438Y-115814363D01*
X199285438Y-115814363D02*
X199255200Y-115693411D01*
X199255200Y-115693411D02*
X199194724Y-115632935D01*
X199194724Y-115632935D02*
X199134248Y-115602697D01*
X198620200Y-116207459D02*
X198529486Y-116237697D01*
X198529486Y-116237697D02*
X198378295Y-116237697D01*
X198378295Y-116237697D02*
X198317819Y-116207459D01*
X198317819Y-116207459D02*
X198287581Y-116177220D01*
X198287581Y-116177220D02*
X198257343Y-116116744D01*
X198257343Y-116116744D02*
X198257343Y-116056268D01*
X198257343Y-116056268D02*
X198287581Y-115995792D01*
X198287581Y-115995792D02*
X198317819Y-115965554D01*
X198317819Y-115965554D02*
X198378295Y-115935316D01*
X198378295Y-115935316D02*
X198499248Y-115905078D01*
X198499248Y-115905078D02*
X198559724Y-115874839D01*
X198559724Y-115874839D02*
X198589962Y-115844601D01*
X198589962Y-115844601D02*
X198620200Y-115784125D01*
X198620200Y-115784125D02*
X198620200Y-115723649D01*
X198620200Y-115723649D02*
X198589962Y-115663173D01*
X198589962Y-115663173D02*
X198559724Y-115632935D01*
X198559724Y-115632935D02*
X198499248Y-115602697D01*
X198499248Y-115602697D02*
X198348057Y-115602697D01*
X198348057Y-115602697D02*
X198257343Y-115632935D01*
X197985200Y-116237697D02*
X197985200Y-115602697D01*
X205756392Y-116625011D02*
X205393535Y-116625011D01*
X205574964Y-117260011D02*
X205574964Y-116625011D01*
X205181868Y-117260011D02*
X205181868Y-116625011D01*
X205181868Y-116625011D02*
X204939963Y-116625011D01*
X204939963Y-116625011D02*
X204879487Y-116655249D01*
X204879487Y-116655249D02*
X204849249Y-116685487D01*
X204849249Y-116685487D02*
X204819011Y-116745963D01*
X204819011Y-116745963D02*
X204819011Y-116836677D01*
X204819011Y-116836677D02*
X204849249Y-116897153D01*
X204849249Y-116897153D02*
X204879487Y-116927392D01*
X204879487Y-116927392D02*
X204939963Y-116957630D01*
X204939963Y-116957630D02*
X205181868Y-116957630D01*
X204214249Y-117260011D02*
X204577106Y-117260011D01*
X204395678Y-117260011D02*
X204395678Y-116625011D01*
X204395678Y-116625011D02*
X204456154Y-116715725D01*
X204456154Y-116715725D02*
X204516630Y-116776201D01*
X204516630Y-116776201D02*
X204577106Y-116806439D01*
X203609487Y-117260011D02*
X203972344Y-117260011D01*
X203790916Y-117260011D02*
X203790916Y-116625011D01*
X203790916Y-116625011D02*
X203851392Y-116715725D01*
X203851392Y-116715725D02*
X203911868Y-116776201D01*
X203911868Y-116776201D02*
X203972344Y-116806439D01*
X202853534Y-116927392D02*
X202369725Y-116927392D01*
X202369725Y-117108820D02*
X202853534Y-117108820D01*
X201674248Y-116625011D02*
X201311391Y-116625011D01*
X201492820Y-117260011D02*
X201492820Y-116625011D01*
X200888057Y-116927392D02*
X200797343Y-116957630D01*
X200797343Y-116957630D02*
X200767105Y-116987868D01*
X200767105Y-116987868D02*
X200736867Y-117048344D01*
X200736867Y-117048344D02*
X200736867Y-117139058D01*
X200736867Y-117139058D02*
X200767105Y-117199534D01*
X200767105Y-117199534D02*
X200797343Y-117229773D01*
X200797343Y-117229773D02*
X200857819Y-117260011D01*
X200857819Y-117260011D02*
X201099724Y-117260011D01*
X201099724Y-117260011D02*
X201099724Y-116625011D01*
X201099724Y-116625011D02*
X200888057Y-116625011D01*
X200888057Y-116625011D02*
X200827581Y-116655249D01*
X200827581Y-116655249D02*
X200797343Y-116685487D01*
X200797343Y-116685487D02*
X200767105Y-116745963D01*
X200767105Y-116745963D02*
X200767105Y-116806439D01*
X200767105Y-116806439D02*
X200797343Y-116866915D01*
X200797343Y-116866915D02*
X200827581Y-116897153D01*
X200827581Y-116897153D02*
X200888057Y-116927392D01*
X200888057Y-116927392D02*
X201099724Y-116927392D01*
X200615915Y-117320487D02*
X200132105Y-117320487D01*
X199980914Y-117260011D02*
X199980914Y-116625011D01*
X199980914Y-116625011D02*
X199769247Y-117078582D01*
X199769247Y-117078582D02*
X199557581Y-116625011D01*
X199557581Y-116625011D02*
X199557581Y-117260011D01*
X199255200Y-117260011D02*
X199255200Y-116625011D01*
X198983057Y-117229773D02*
X198892343Y-117260011D01*
X198892343Y-117260011D02*
X198741152Y-117260011D01*
X198741152Y-117260011D02*
X198680676Y-117229773D01*
X198680676Y-117229773D02*
X198650438Y-117199534D01*
X198650438Y-117199534D02*
X198620200Y-117139058D01*
X198620200Y-117139058D02*
X198620200Y-117078582D01*
X198620200Y-117078582D02*
X198650438Y-117018106D01*
X198650438Y-117018106D02*
X198680676Y-116987868D01*
X198680676Y-116987868D02*
X198741152Y-116957630D01*
X198741152Y-116957630D02*
X198862105Y-116927392D01*
X198862105Y-116927392D02*
X198922581Y-116897153D01*
X198922581Y-116897153D02*
X198952819Y-116866915D01*
X198952819Y-116866915D02*
X198983057Y-116806439D01*
X198983057Y-116806439D02*
X198983057Y-116745963D01*
X198983057Y-116745963D02*
X198952819Y-116685487D01*
X198952819Y-116685487D02*
X198922581Y-116655249D01*
X198922581Y-116655249D02*
X198862105Y-116625011D01*
X198862105Y-116625011D02*
X198710914Y-116625011D01*
X198710914Y-116625011D02*
X198620200Y-116655249D01*
X198227105Y-116625011D02*
X198106152Y-116625011D01*
X198106152Y-116625011D02*
X198045676Y-116655249D01*
X198045676Y-116655249D02*
X197985200Y-116715725D01*
X197985200Y-116715725D02*
X197954962Y-116836677D01*
X197954962Y-116836677D02*
X197954962Y-117048344D01*
X197954962Y-117048344D02*
X197985200Y-117169296D01*
X197985200Y-117169296D02*
X198045676Y-117229773D01*
X198045676Y-117229773D02*
X198106152Y-117260011D01*
X198106152Y-117260011D02*
X198227105Y-117260011D01*
X198227105Y-117260011D02*
X198287581Y-117229773D01*
X198287581Y-117229773D02*
X198348057Y-117169296D01*
X198348057Y-117169296D02*
X198378295Y-117048344D01*
X198378295Y-117048344D02*
X198378295Y-116836677D01*
X198378295Y-116836677D02*
X198348057Y-116715725D01*
X198348057Y-116715725D02*
X198287581Y-116655249D01*
X198287581Y-116655249D02*
X198227105Y-116625011D01*
X205756392Y-117647325D02*
X205393535Y-117647325D01*
X205574964Y-118282325D02*
X205574964Y-117647325D01*
X205181868Y-118282325D02*
X205181868Y-117647325D01*
X205181868Y-117647325D02*
X204939963Y-117647325D01*
X204939963Y-117647325D02*
X204879487Y-117677563D01*
X204879487Y-117677563D02*
X204849249Y-117707801D01*
X204849249Y-117707801D02*
X204819011Y-117768277D01*
X204819011Y-117768277D02*
X204819011Y-117858991D01*
X204819011Y-117858991D02*
X204849249Y-117919467D01*
X204849249Y-117919467D02*
X204879487Y-117949706D01*
X204879487Y-117949706D02*
X204939963Y-117979944D01*
X204939963Y-117979944D02*
X205181868Y-117979944D01*
X204214249Y-118282325D02*
X204577106Y-118282325D01*
X204395678Y-118282325D02*
X204395678Y-117647325D01*
X204395678Y-117647325D02*
X204456154Y-117738039D01*
X204456154Y-117738039D02*
X204516630Y-117798515D01*
X204516630Y-117798515D02*
X204577106Y-117828753D01*
X203972344Y-117707801D02*
X203942106Y-117677563D01*
X203942106Y-117677563D02*
X203881630Y-117647325D01*
X203881630Y-117647325D02*
X203730439Y-117647325D01*
X203730439Y-117647325D02*
X203669963Y-117677563D01*
X203669963Y-117677563D02*
X203639725Y-117707801D01*
X203639725Y-117707801D02*
X203609487Y-117768277D01*
X203609487Y-117768277D02*
X203609487Y-117828753D01*
X203609487Y-117828753D02*
X203639725Y-117919467D01*
X203639725Y-117919467D02*
X204002582Y-118282325D01*
X204002582Y-118282325D02*
X203609487Y-118282325D01*
X202853534Y-117949706D02*
X202369725Y-117949706D01*
X202369725Y-118131134D02*
X202853534Y-118131134D01*
X201674248Y-117647325D02*
X201311391Y-117647325D01*
X201492820Y-118282325D02*
X201492820Y-117647325D01*
X200888057Y-117949706D02*
X200797343Y-117979944D01*
X200797343Y-117979944D02*
X200767105Y-118010182D01*
X200767105Y-118010182D02*
X200736867Y-118070658D01*
X200736867Y-118070658D02*
X200736867Y-118161372D01*
X200736867Y-118161372D02*
X200767105Y-118221848D01*
X200767105Y-118221848D02*
X200797343Y-118252087D01*
X200797343Y-118252087D02*
X200857819Y-118282325D01*
X200857819Y-118282325D02*
X201099724Y-118282325D01*
X201099724Y-118282325D02*
X201099724Y-117647325D01*
X201099724Y-117647325D02*
X200888057Y-117647325D01*
X200888057Y-117647325D02*
X200827581Y-117677563D01*
X200827581Y-117677563D02*
X200797343Y-117707801D01*
X200797343Y-117707801D02*
X200767105Y-117768277D01*
X200767105Y-117768277D02*
X200767105Y-117828753D01*
X200767105Y-117828753D02*
X200797343Y-117889229D01*
X200797343Y-117889229D02*
X200827581Y-117919467D01*
X200827581Y-117919467D02*
X200888057Y-117949706D01*
X200888057Y-117949706D02*
X201099724Y-117949706D01*
X200615915Y-118342801D02*
X200132105Y-118342801D01*
X199618057Y-118221848D02*
X199648295Y-118252087D01*
X199648295Y-118252087D02*
X199739009Y-118282325D01*
X199739009Y-118282325D02*
X199799485Y-118282325D01*
X199799485Y-118282325D02*
X199890200Y-118252087D01*
X199890200Y-118252087D02*
X199950676Y-118191610D01*
X199950676Y-118191610D02*
X199980914Y-118131134D01*
X199980914Y-118131134D02*
X200011152Y-118010182D01*
X200011152Y-118010182D02*
X200011152Y-117919467D01*
X200011152Y-117919467D02*
X199980914Y-117798515D01*
X199980914Y-117798515D02*
X199950676Y-117738039D01*
X199950676Y-117738039D02*
X199890200Y-117677563D01*
X199890200Y-117677563D02*
X199799485Y-117647325D01*
X199799485Y-117647325D02*
X199739009Y-117647325D01*
X199739009Y-117647325D02*
X199648295Y-117677563D01*
X199648295Y-117677563D02*
X199618057Y-117707801D01*
X199043533Y-118282325D02*
X199345914Y-118282325D01*
X199345914Y-118282325D02*
X199345914Y-117647325D01*
X198831866Y-118282325D02*
X198831866Y-117647325D01*
X198469009Y-118282325D02*
X198741152Y-117919467D01*
X198469009Y-117647325D02*
X198831866Y-118010182D01*
D11*
X206871046Y-90180809D02*
X206585332Y-90180809D01*
X206728189Y-90680809D02*
X206728189Y-90180809D01*
X206418666Y-90680809D02*
X206418666Y-90180809D01*
X206418666Y-90180809D02*
X206228190Y-90180809D01*
X206228190Y-90180809D02*
X206180571Y-90204619D01*
X206180571Y-90204619D02*
X206156761Y-90228428D01*
X206156761Y-90228428D02*
X206132952Y-90276047D01*
X206132952Y-90276047D02*
X206132952Y-90347476D01*
X206132952Y-90347476D02*
X206156761Y-90395095D01*
X206156761Y-90395095D02*
X206180571Y-90418904D01*
X206180571Y-90418904D02*
X206228190Y-90442714D01*
X206228190Y-90442714D02*
X206418666Y-90442714D01*
X205656761Y-90680809D02*
X205942475Y-90680809D01*
X205799618Y-90680809D02*
X205799618Y-90180809D01*
X205799618Y-90180809D02*
X205847237Y-90252238D01*
X205847237Y-90252238D02*
X205894856Y-90299857D01*
X205894856Y-90299857D02*
X205942475Y-90323666D01*
X205228190Y-90347476D02*
X205228190Y-90680809D01*
X205347238Y-90157000D02*
X205466285Y-90514142D01*
X205466285Y-90514142D02*
X205156762Y-90514142D01*
X206871046Y-92720809D02*
X206585332Y-92720809D01*
X206728189Y-93220809D02*
X206728189Y-92720809D01*
X206418666Y-93220809D02*
X206418666Y-92720809D01*
X206418666Y-92720809D02*
X206228190Y-92720809D01*
X206228190Y-92720809D02*
X206180571Y-92744619D01*
X206180571Y-92744619D02*
X206156761Y-92768428D01*
X206156761Y-92768428D02*
X206132952Y-92816047D01*
X206132952Y-92816047D02*
X206132952Y-92887476D01*
X206132952Y-92887476D02*
X206156761Y-92935095D01*
X206156761Y-92935095D02*
X206180571Y-92958904D01*
X206180571Y-92958904D02*
X206228190Y-92982714D01*
X206228190Y-92982714D02*
X206418666Y-92982714D01*
X205656761Y-93220809D02*
X205942475Y-93220809D01*
X205799618Y-93220809D02*
X205799618Y-92720809D01*
X205799618Y-92720809D02*
X205847237Y-92792238D01*
X205847237Y-92792238D02*
X205894856Y-92839857D01*
X205894856Y-92839857D02*
X205942475Y-92863666D01*
X205490095Y-92720809D02*
X205180571Y-92720809D01*
X205180571Y-92720809D02*
X205347238Y-92911285D01*
X205347238Y-92911285D02*
X205275809Y-92911285D01*
X205275809Y-92911285D02*
X205228190Y-92935095D01*
X205228190Y-92935095D02*
X205204381Y-92958904D01*
X205204381Y-92958904D02*
X205180571Y-93006523D01*
X205180571Y-93006523D02*
X205180571Y-93125571D01*
X205180571Y-93125571D02*
X205204381Y-93173190D01*
X205204381Y-93173190D02*
X205228190Y-93197000D01*
X205228190Y-93197000D02*
X205275809Y-93220809D01*
X205275809Y-93220809D02*
X205418666Y-93220809D01*
X205418666Y-93220809D02*
X205466285Y-93197000D01*
X205466285Y-93197000D02*
X205490095Y-93173190D01*
X179177046Y-113846809D02*
X178891332Y-113846809D01*
X179034189Y-114346809D02*
X179034189Y-113846809D01*
X178724666Y-114346809D02*
X178724666Y-113846809D01*
X178724666Y-113846809D02*
X178534190Y-113846809D01*
X178534190Y-113846809D02*
X178486571Y-113870619D01*
X178486571Y-113870619D02*
X178462761Y-113894428D01*
X178462761Y-113894428D02*
X178438952Y-113942047D01*
X178438952Y-113942047D02*
X178438952Y-114013476D01*
X178438952Y-114013476D02*
X178462761Y-114061095D01*
X178462761Y-114061095D02*
X178486571Y-114084904D01*
X178486571Y-114084904D02*
X178534190Y-114108714D01*
X178534190Y-114108714D02*
X178724666Y-114108714D01*
X177962761Y-114346809D02*
X178248475Y-114346809D01*
X178105618Y-114346809D02*
X178105618Y-113846809D01*
X178105618Y-113846809D02*
X178153237Y-113918238D01*
X178153237Y-113918238D02*
X178200856Y-113965857D01*
X178200856Y-113965857D02*
X178248475Y-113989666D01*
X177772285Y-113894428D02*
X177748476Y-113870619D01*
X177748476Y-113870619D02*
X177700857Y-113846809D01*
X177700857Y-113846809D02*
X177581809Y-113846809D01*
X177581809Y-113846809D02*
X177534190Y-113870619D01*
X177534190Y-113870619D02*
X177510381Y-113894428D01*
X177510381Y-113894428D02*
X177486571Y-113942047D01*
X177486571Y-113942047D02*
X177486571Y-113989666D01*
X177486571Y-113989666D02*
X177510381Y-114061095D01*
X177510381Y-114061095D02*
X177796095Y-114346809D01*
X177796095Y-114346809D02*
X177486571Y-114346809D01*
X176510046Y-116386809D02*
X176224332Y-116386809D01*
X176367189Y-116886809D02*
X176367189Y-116386809D01*
X176057666Y-116886809D02*
X176057666Y-116386809D01*
X176057666Y-116386809D02*
X175867190Y-116386809D01*
X175867190Y-116386809D02*
X175819571Y-116410619D01*
X175819571Y-116410619D02*
X175795761Y-116434428D01*
X175795761Y-116434428D02*
X175771952Y-116482047D01*
X175771952Y-116482047D02*
X175771952Y-116553476D01*
X175771952Y-116553476D02*
X175795761Y-116601095D01*
X175795761Y-116601095D02*
X175819571Y-116624904D01*
X175819571Y-116624904D02*
X175867190Y-116648714D01*
X175867190Y-116648714D02*
X176057666Y-116648714D01*
X175295761Y-116886809D02*
X175581475Y-116886809D01*
X175438618Y-116886809D02*
X175438618Y-116386809D01*
X175438618Y-116386809D02*
X175486237Y-116458238D01*
X175486237Y-116458238D02*
X175533856Y-116505857D01*
X175533856Y-116505857D02*
X175581475Y-116529666D01*
X174819571Y-116886809D02*
X175105285Y-116886809D01*
X174962428Y-116886809D02*
X174962428Y-116386809D01*
X174962428Y-116386809D02*
X175010047Y-116458238D01*
X175010047Y-116458238D02*
X175057666Y-116505857D01*
X175057666Y-116505857D02*
X175105285Y-116529666D01*
X176510046Y-113846809D02*
X176224332Y-113846809D01*
X176367189Y-114346809D02*
X176367189Y-113846809D01*
X176057666Y-114346809D02*
X176057666Y-113846809D01*
X176057666Y-113846809D02*
X175867190Y-113846809D01*
X175867190Y-113846809D02*
X175819571Y-113870619D01*
X175819571Y-113870619D02*
X175795761Y-113894428D01*
X175795761Y-113894428D02*
X175771952Y-113942047D01*
X175771952Y-113942047D02*
X175771952Y-114013476D01*
X175771952Y-114013476D02*
X175795761Y-114061095D01*
X175795761Y-114061095D02*
X175819571Y-114084904D01*
X175819571Y-114084904D02*
X175867190Y-114108714D01*
X175867190Y-114108714D02*
X176057666Y-114108714D01*
X175295761Y-114346809D02*
X175581475Y-114346809D01*
X175438618Y-114346809D02*
X175438618Y-113846809D01*
X175438618Y-113846809D02*
X175486237Y-113918238D01*
X175486237Y-113918238D02*
X175533856Y-113965857D01*
X175533856Y-113965857D02*
X175581475Y-113989666D01*
X174986238Y-113846809D02*
X174938619Y-113846809D01*
X174938619Y-113846809D02*
X174891000Y-113870619D01*
X174891000Y-113870619D02*
X174867190Y-113894428D01*
X174867190Y-113894428D02*
X174843381Y-113942047D01*
X174843381Y-113942047D02*
X174819571Y-114037285D01*
X174819571Y-114037285D02*
X174819571Y-114156333D01*
X174819571Y-114156333D02*
X174843381Y-114251571D01*
X174843381Y-114251571D02*
X174867190Y-114299190D01*
X174867190Y-114299190D02*
X174891000Y-114323000D01*
X174891000Y-114323000D02*
X174938619Y-114346809D01*
X174938619Y-114346809D02*
X174986238Y-114346809D01*
X174986238Y-114346809D02*
X175033857Y-114323000D01*
X175033857Y-114323000D02*
X175057666Y-114299190D01*
X175057666Y-114299190D02*
X175081476Y-114251571D01*
X175081476Y-114251571D02*
X175105285Y-114156333D01*
X175105285Y-114156333D02*
X175105285Y-114037285D01*
X175105285Y-114037285D02*
X175081476Y-113942047D01*
X175081476Y-113942047D02*
X175057666Y-113894428D01*
X175057666Y-113894428D02*
X175033857Y-113870619D01*
X175033857Y-113870619D02*
X174986238Y-113846809D01*
X178938951Y-116386809D02*
X178653237Y-116386809D01*
X178796094Y-116886809D02*
X178796094Y-116386809D01*
X178486571Y-116886809D02*
X178486571Y-116386809D01*
X178486571Y-116386809D02*
X178296095Y-116386809D01*
X178296095Y-116386809D02*
X178248476Y-116410619D01*
X178248476Y-116410619D02*
X178224666Y-116434428D01*
X178224666Y-116434428D02*
X178200857Y-116482047D01*
X178200857Y-116482047D02*
X178200857Y-116553476D01*
X178200857Y-116553476D02*
X178224666Y-116601095D01*
X178224666Y-116601095D02*
X178248476Y-116624904D01*
X178248476Y-116624904D02*
X178296095Y-116648714D01*
X178296095Y-116648714D02*
X178486571Y-116648714D01*
X177962761Y-116886809D02*
X177867523Y-116886809D01*
X177867523Y-116886809D02*
X177819904Y-116863000D01*
X177819904Y-116863000D02*
X177796095Y-116839190D01*
X177796095Y-116839190D02*
X177748476Y-116767761D01*
X177748476Y-116767761D02*
X177724666Y-116672523D01*
X177724666Y-116672523D02*
X177724666Y-116482047D01*
X177724666Y-116482047D02*
X177748476Y-116434428D01*
X177748476Y-116434428D02*
X177772285Y-116410619D01*
X177772285Y-116410619D02*
X177819904Y-116386809D01*
X177819904Y-116386809D02*
X177915142Y-116386809D01*
X177915142Y-116386809D02*
X177962761Y-116410619D01*
X177962761Y-116410619D02*
X177986571Y-116434428D01*
X177986571Y-116434428D02*
X178010380Y-116482047D01*
X178010380Y-116482047D02*
X178010380Y-116601095D01*
X178010380Y-116601095D02*
X177986571Y-116648714D01*
X177986571Y-116648714D02*
X177962761Y-116672523D01*
X177962761Y-116672523D02*
X177915142Y-116696333D01*
X177915142Y-116696333D02*
X177819904Y-116696333D01*
X177819904Y-116696333D02*
X177772285Y-116672523D01*
X177772285Y-116672523D02*
X177748476Y-116648714D01*
X177748476Y-116648714D02*
X177724666Y-116601095D01*
X190630951Y-96276809D02*
X190345237Y-96276809D01*
X190488094Y-96776809D02*
X190488094Y-96276809D01*
X190178571Y-96776809D02*
X190178571Y-96276809D01*
X190178571Y-96276809D02*
X189988095Y-96276809D01*
X189988095Y-96276809D02*
X189940476Y-96300619D01*
X189940476Y-96300619D02*
X189916666Y-96324428D01*
X189916666Y-96324428D02*
X189892857Y-96372047D01*
X189892857Y-96372047D02*
X189892857Y-96443476D01*
X189892857Y-96443476D02*
X189916666Y-96491095D01*
X189916666Y-96491095D02*
X189940476Y-96514904D01*
X189940476Y-96514904D02*
X189988095Y-96538714D01*
X189988095Y-96538714D02*
X190178571Y-96538714D01*
X189607142Y-96491095D02*
X189654761Y-96467285D01*
X189654761Y-96467285D02*
X189678571Y-96443476D01*
X189678571Y-96443476D02*
X189702380Y-96395857D01*
X189702380Y-96395857D02*
X189702380Y-96372047D01*
X189702380Y-96372047D02*
X189678571Y-96324428D01*
X189678571Y-96324428D02*
X189654761Y-96300619D01*
X189654761Y-96300619D02*
X189607142Y-96276809D01*
X189607142Y-96276809D02*
X189511904Y-96276809D01*
X189511904Y-96276809D02*
X189464285Y-96300619D01*
X189464285Y-96300619D02*
X189440476Y-96324428D01*
X189440476Y-96324428D02*
X189416666Y-96372047D01*
X189416666Y-96372047D02*
X189416666Y-96395857D01*
X189416666Y-96395857D02*
X189440476Y-96443476D01*
X189440476Y-96443476D02*
X189464285Y-96467285D01*
X189464285Y-96467285D02*
X189511904Y-96491095D01*
X189511904Y-96491095D02*
X189607142Y-96491095D01*
X189607142Y-96491095D02*
X189654761Y-96514904D01*
X189654761Y-96514904D02*
X189678571Y-96538714D01*
X189678571Y-96538714D02*
X189702380Y-96586333D01*
X189702380Y-96586333D02*
X189702380Y-96681571D01*
X189702380Y-96681571D02*
X189678571Y-96729190D01*
X189678571Y-96729190D02*
X189654761Y-96753000D01*
X189654761Y-96753000D02*
X189607142Y-96776809D01*
X189607142Y-96776809D02*
X189511904Y-96776809D01*
X189511904Y-96776809D02*
X189464285Y-96753000D01*
X189464285Y-96753000D02*
X189440476Y-96729190D01*
X189440476Y-96729190D02*
X189416666Y-96681571D01*
X189416666Y-96681571D02*
X189416666Y-96586333D01*
X189416666Y-96586333D02*
X189440476Y-96538714D01*
X189440476Y-96538714D02*
X189464285Y-96514904D01*
X189464285Y-96514904D02*
X189511904Y-96491095D01*
X188344951Y-96276809D02*
X188059237Y-96276809D01*
X188202094Y-96776809D02*
X188202094Y-96276809D01*
X187892571Y-96776809D02*
X187892571Y-96276809D01*
X187892571Y-96276809D02*
X187702095Y-96276809D01*
X187702095Y-96276809D02*
X187654476Y-96300619D01*
X187654476Y-96300619D02*
X187630666Y-96324428D01*
X187630666Y-96324428D02*
X187606857Y-96372047D01*
X187606857Y-96372047D02*
X187606857Y-96443476D01*
X187606857Y-96443476D02*
X187630666Y-96491095D01*
X187630666Y-96491095D02*
X187654476Y-96514904D01*
X187654476Y-96514904D02*
X187702095Y-96538714D01*
X187702095Y-96538714D02*
X187892571Y-96538714D01*
X187440190Y-96276809D02*
X187106857Y-96276809D01*
X187106857Y-96276809D02*
X187321142Y-96776809D01*
X192916951Y-96276809D02*
X192631237Y-96276809D01*
X192774094Y-96776809D02*
X192774094Y-96276809D01*
X192464571Y-96776809D02*
X192464571Y-96276809D01*
X192464571Y-96276809D02*
X192274095Y-96276809D01*
X192274095Y-96276809D02*
X192226476Y-96300619D01*
X192226476Y-96300619D02*
X192202666Y-96324428D01*
X192202666Y-96324428D02*
X192178857Y-96372047D01*
X192178857Y-96372047D02*
X192178857Y-96443476D01*
X192178857Y-96443476D02*
X192202666Y-96491095D01*
X192202666Y-96491095D02*
X192226476Y-96514904D01*
X192226476Y-96514904D02*
X192274095Y-96538714D01*
X192274095Y-96538714D02*
X192464571Y-96538714D01*
X191750285Y-96276809D02*
X191845523Y-96276809D01*
X191845523Y-96276809D02*
X191893142Y-96300619D01*
X191893142Y-96300619D02*
X191916952Y-96324428D01*
X191916952Y-96324428D02*
X191964571Y-96395857D01*
X191964571Y-96395857D02*
X191988380Y-96491095D01*
X191988380Y-96491095D02*
X191988380Y-96681571D01*
X191988380Y-96681571D02*
X191964571Y-96729190D01*
X191964571Y-96729190D02*
X191940761Y-96753000D01*
X191940761Y-96753000D02*
X191893142Y-96776809D01*
X191893142Y-96776809D02*
X191797904Y-96776809D01*
X191797904Y-96776809D02*
X191750285Y-96753000D01*
X191750285Y-96753000D02*
X191726476Y-96729190D01*
X191726476Y-96729190D02*
X191702666Y-96681571D01*
X191702666Y-96681571D02*
X191702666Y-96562523D01*
X191702666Y-96562523D02*
X191726476Y-96514904D01*
X191726476Y-96514904D02*
X191750285Y-96491095D01*
X191750285Y-96491095D02*
X191797904Y-96467285D01*
X191797904Y-96467285D02*
X191893142Y-96467285D01*
X191893142Y-96467285D02*
X191940761Y-96491095D01*
X191940761Y-96491095D02*
X191964571Y-96514904D01*
X191964571Y-96514904D02*
X191988380Y-96562523D01*
X195456951Y-96276809D02*
X195171237Y-96276809D01*
X195314094Y-96776809D02*
X195314094Y-96276809D01*
X195004571Y-96776809D02*
X195004571Y-96276809D01*
X195004571Y-96276809D02*
X194814095Y-96276809D01*
X194814095Y-96276809D02*
X194766476Y-96300619D01*
X194766476Y-96300619D02*
X194742666Y-96324428D01*
X194742666Y-96324428D02*
X194718857Y-96372047D01*
X194718857Y-96372047D02*
X194718857Y-96443476D01*
X194718857Y-96443476D02*
X194742666Y-96491095D01*
X194742666Y-96491095D02*
X194766476Y-96514904D01*
X194766476Y-96514904D02*
X194814095Y-96538714D01*
X194814095Y-96538714D02*
X195004571Y-96538714D01*
X194266476Y-96276809D02*
X194504571Y-96276809D01*
X194504571Y-96276809D02*
X194528380Y-96514904D01*
X194528380Y-96514904D02*
X194504571Y-96491095D01*
X194504571Y-96491095D02*
X194456952Y-96467285D01*
X194456952Y-96467285D02*
X194337904Y-96467285D01*
X194337904Y-96467285D02*
X194290285Y-96491095D01*
X194290285Y-96491095D02*
X194266476Y-96514904D01*
X194266476Y-96514904D02*
X194242666Y-96562523D01*
X194242666Y-96562523D02*
X194242666Y-96681571D01*
X194242666Y-96681571D02*
X194266476Y-96729190D01*
X194266476Y-96729190D02*
X194290285Y-96753000D01*
X194290285Y-96753000D02*
X194337904Y-96776809D01*
X194337904Y-96776809D02*
X194456952Y-96776809D01*
X194456952Y-96776809D02*
X194504571Y-96753000D01*
X194504571Y-96753000D02*
X194528380Y-96729190D01*
X187582951Y-113040809D02*
X187297237Y-113040809D01*
X187440094Y-113540809D02*
X187440094Y-113040809D01*
X187130571Y-113540809D02*
X187130571Y-113040809D01*
X187130571Y-113040809D02*
X186940095Y-113040809D01*
X186940095Y-113040809D02*
X186892476Y-113064619D01*
X186892476Y-113064619D02*
X186868666Y-113088428D01*
X186868666Y-113088428D02*
X186844857Y-113136047D01*
X186844857Y-113136047D02*
X186844857Y-113207476D01*
X186844857Y-113207476D02*
X186868666Y-113255095D01*
X186868666Y-113255095D02*
X186892476Y-113278904D01*
X186892476Y-113278904D02*
X186940095Y-113302714D01*
X186940095Y-113302714D02*
X187130571Y-113302714D01*
X186416285Y-113207476D02*
X186416285Y-113540809D01*
X186535333Y-113017000D02*
X186654380Y-113374142D01*
X186654380Y-113374142D02*
X186344857Y-113374142D01*
X187582951Y-108214809D02*
X187297237Y-108214809D01*
X187440094Y-108714809D02*
X187440094Y-108214809D01*
X187130571Y-108714809D02*
X187130571Y-108214809D01*
X187130571Y-108214809D02*
X186940095Y-108214809D01*
X186940095Y-108214809D02*
X186892476Y-108238619D01*
X186892476Y-108238619D02*
X186868666Y-108262428D01*
X186868666Y-108262428D02*
X186844857Y-108310047D01*
X186844857Y-108310047D02*
X186844857Y-108381476D01*
X186844857Y-108381476D02*
X186868666Y-108429095D01*
X186868666Y-108429095D02*
X186892476Y-108452904D01*
X186892476Y-108452904D02*
X186940095Y-108476714D01*
X186940095Y-108476714D02*
X187130571Y-108476714D01*
X186678190Y-108214809D02*
X186368666Y-108214809D01*
X186368666Y-108214809D02*
X186535333Y-108405285D01*
X186535333Y-108405285D02*
X186463904Y-108405285D01*
X186463904Y-108405285D02*
X186416285Y-108429095D01*
X186416285Y-108429095D02*
X186392476Y-108452904D01*
X186392476Y-108452904D02*
X186368666Y-108500523D01*
X186368666Y-108500523D02*
X186368666Y-108619571D01*
X186368666Y-108619571D02*
X186392476Y-108667190D01*
X186392476Y-108667190D02*
X186416285Y-108691000D01*
X186416285Y-108691000D02*
X186463904Y-108714809D01*
X186463904Y-108714809D02*
X186606761Y-108714809D01*
X186606761Y-108714809D02*
X186654380Y-108691000D01*
X186654380Y-108691000D02*
X186678190Y-108667190D01*
X194694951Y-107452809D02*
X194409237Y-107452809D01*
X194552094Y-107952809D02*
X194552094Y-107452809D01*
X194242571Y-107952809D02*
X194242571Y-107452809D01*
X194242571Y-107452809D02*
X194052095Y-107452809D01*
X194052095Y-107452809D02*
X194004476Y-107476619D01*
X194004476Y-107476619D02*
X193980666Y-107500428D01*
X193980666Y-107500428D02*
X193956857Y-107548047D01*
X193956857Y-107548047D02*
X193956857Y-107619476D01*
X193956857Y-107619476D02*
X193980666Y-107667095D01*
X193980666Y-107667095D02*
X194004476Y-107690904D01*
X194004476Y-107690904D02*
X194052095Y-107714714D01*
X194052095Y-107714714D02*
X194242571Y-107714714D01*
X193766380Y-107500428D02*
X193742571Y-107476619D01*
X193742571Y-107476619D02*
X193694952Y-107452809D01*
X193694952Y-107452809D02*
X193575904Y-107452809D01*
X193575904Y-107452809D02*
X193528285Y-107476619D01*
X193528285Y-107476619D02*
X193504476Y-107500428D01*
X193504476Y-107500428D02*
X193480666Y-107548047D01*
X193480666Y-107548047D02*
X193480666Y-107595666D01*
X193480666Y-107595666D02*
X193504476Y-107667095D01*
X193504476Y-107667095D02*
X193790190Y-107952809D01*
X193790190Y-107952809D02*
X193480666Y-107952809D01*
X208918951Y-107198809D02*
X208633237Y-107198809D01*
X208776094Y-107698809D02*
X208776094Y-107198809D01*
X208466571Y-107698809D02*
X208466571Y-107198809D01*
X208466571Y-107198809D02*
X208276095Y-107198809D01*
X208276095Y-107198809D02*
X208228476Y-107222619D01*
X208228476Y-107222619D02*
X208204666Y-107246428D01*
X208204666Y-107246428D02*
X208180857Y-107294047D01*
X208180857Y-107294047D02*
X208180857Y-107365476D01*
X208180857Y-107365476D02*
X208204666Y-107413095D01*
X208204666Y-107413095D02*
X208228476Y-107436904D01*
X208228476Y-107436904D02*
X208276095Y-107460714D01*
X208276095Y-107460714D02*
X208466571Y-107460714D01*
X207704666Y-107698809D02*
X207990380Y-107698809D01*
X207847523Y-107698809D02*
X207847523Y-107198809D01*
X207847523Y-107198809D02*
X207895142Y-107270238D01*
X207895142Y-107270238D02*
X207942761Y-107317857D01*
X207942761Y-107317857D02*
X207990380Y-107341666D01*
X185166666Y-95489809D02*
X185166666Y-95846952D01*
X185166666Y-95846952D02*
X185190475Y-95918380D01*
X185190475Y-95918380D02*
X185238094Y-95966000D01*
X185238094Y-95966000D02*
X185309523Y-95989809D01*
X185309523Y-95989809D02*
X185357142Y-95989809D01*
X184952380Y-95537428D02*
X184928571Y-95513619D01*
X184928571Y-95513619D02*
X184880952Y-95489809D01*
X184880952Y-95489809D02*
X184761904Y-95489809D01*
X184761904Y-95489809D02*
X184714285Y-95513619D01*
X184714285Y-95513619D02*
X184690476Y-95537428D01*
X184690476Y-95537428D02*
X184666666Y-95585047D01*
X184666666Y-95585047D02*
X184666666Y-95632666D01*
X184666666Y-95632666D02*
X184690476Y-95704095D01*
X184690476Y-95704095D02*
X184976190Y-95989809D01*
X184976190Y-95989809D02*
X184666666Y-95989809D01*
X202604665Y-100741000D02*
X202533237Y-100764809D01*
X202533237Y-100764809D02*
X202414189Y-100764809D01*
X202414189Y-100764809D02*
X202366570Y-100741000D01*
X202366570Y-100741000D02*
X202342761Y-100717190D01*
X202342761Y-100717190D02*
X202318951Y-100669571D01*
X202318951Y-100669571D02*
X202318951Y-100621952D01*
X202318951Y-100621952D02*
X202342761Y-100574333D01*
X202342761Y-100574333D02*
X202366570Y-100550523D01*
X202366570Y-100550523D02*
X202414189Y-100526714D01*
X202414189Y-100526714D02*
X202509427Y-100502904D01*
X202509427Y-100502904D02*
X202557046Y-100479095D01*
X202557046Y-100479095D02*
X202580856Y-100455285D01*
X202580856Y-100455285D02*
X202604665Y-100407666D01*
X202604665Y-100407666D02*
X202604665Y-100360047D01*
X202604665Y-100360047D02*
X202580856Y-100312428D01*
X202580856Y-100312428D02*
X202557046Y-100288619D01*
X202557046Y-100288619D02*
X202509427Y-100264809D01*
X202509427Y-100264809D02*
X202390380Y-100264809D01*
X202390380Y-100264809D02*
X202318951Y-100288619D01*
X202152285Y-100264809D02*
X202033237Y-100764809D01*
X202033237Y-100764809D02*
X201937999Y-100407666D01*
X201937999Y-100407666D02*
X201842761Y-100764809D01*
X201842761Y-100764809D02*
X201723714Y-100264809D01*
X201271332Y-100764809D02*
X201557046Y-100764809D01*
X201414189Y-100764809D02*
X201414189Y-100264809D01*
X201414189Y-100264809D02*
X201461808Y-100336238D01*
X201461808Y-100336238D02*
X201509427Y-100383857D01*
X201509427Y-100383857D02*
X201557046Y-100407666D01*
D12*
%TO.C,TP14*%
X206702000Y-91904000D02*
G75*
G02*
X205302000Y-91904000I-700000J0D01*
G01*
X205302000Y-91904000D02*
G75*
G02*
X206702000Y-91904000I700000J0D01*
G01*
%TO.C,TP13*%
X206702000Y-94444000D02*
G75*
G02*
X205302000Y-94444000I-700000J0D01*
G01*
X205302000Y-94444000D02*
G75*
G02*
X206702000Y-94444000I700000J0D01*
G01*
%TO.C,TP12*%
X179008000Y-115570000D02*
G75*
G02*
X177608000Y-115570000I-700000J0D01*
G01*
X177608000Y-115570000D02*
G75*
G02*
X179008000Y-115570000I700000J0D01*
G01*
%TO.C,TP11*%
X176341000Y-118110000D02*
G75*
G02*
X174941000Y-118110000I-700000J0D01*
G01*
X174941000Y-118110000D02*
G75*
G02*
X176341000Y-118110000I700000J0D01*
G01*
%TO.C,TP10*%
X176341000Y-115570000D02*
G75*
G02*
X174941000Y-115570000I-700000J0D01*
G01*
X174941000Y-115570000D02*
G75*
G02*
X176341000Y-115570000I700000J0D01*
G01*
%TO.C,TP9*%
X179008000Y-118110000D02*
G75*
G02*
X177608000Y-118110000I-700000J0D01*
G01*
X177608000Y-118110000D02*
G75*
G02*
X179008000Y-118110000I700000J0D01*
G01*
%TO.C,TP8*%
X190700000Y-98000000D02*
G75*
G02*
X189300000Y-98000000I-700000J0D01*
G01*
X189300000Y-98000000D02*
G75*
G02*
X190700000Y-98000000I700000J0D01*
G01*
%TO.C,TP7*%
X188414000Y-98000000D02*
G75*
G02*
X187014000Y-98000000I-700000J0D01*
G01*
X187014000Y-98000000D02*
G75*
G02*
X188414000Y-98000000I700000J0D01*
G01*
%TO.C,TP6*%
X192986000Y-98000000D02*
G75*
G02*
X191586000Y-98000000I-700000J0D01*
G01*
X191586000Y-98000000D02*
G75*
G02*
X192986000Y-98000000I700000J0D01*
G01*
%TO.C,TP5*%
X195526000Y-98000000D02*
G75*
G02*
X194126000Y-98000000I-700000J0D01*
G01*
X194126000Y-98000000D02*
G75*
G02*
X195526000Y-98000000I700000J0D01*
G01*
%TO.C,TP4*%
X187652000Y-114764000D02*
G75*
G02*
X186252000Y-114764000I-700000J0D01*
G01*
X186252000Y-114764000D02*
G75*
G02*
X187652000Y-114764000I700000J0D01*
G01*
%TO.C,TP3*%
X187652000Y-109938000D02*
G75*
G02*
X186252000Y-109938000I-700000J0D01*
G01*
X186252000Y-109938000D02*
G75*
G02*
X187652000Y-109938000I700000J0D01*
G01*
%TO.C,TP2*%
X194764000Y-109176000D02*
G75*
G02*
X193364000Y-109176000I-700000J0D01*
G01*
X193364000Y-109176000D02*
G75*
G02*
X194764000Y-109176000I700000J0D01*
G01*
%TO.C,TP1*%
X208988000Y-108922000D02*
G75*
G02*
X207588000Y-108922000I-700000J0D01*
G01*
X207588000Y-108922000D02*
G75*
G02*
X208988000Y-108922000I700000J0D01*
G01*
%TO.C,J2*%
X188100000Y-94915000D02*
X180520000Y-94915000D01*
X179920000Y-94315000D02*
X180520000Y-94915000D01*
X179920000Y-94315000D02*
X179920000Y-91415000D01*
X188175000Y-94135000D02*
X187540000Y-94135000D01*
X190080000Y-93515000D02*
X188100000Y-94915000D01*
X188175000Y-93500000D02*
X188175000Y-94135000D01*
X190080000Y-92215000D02*
X190080000Y-93515000D01*
X179920000Y-91415000D02*
X180520000Y-90815000D01*
X180520000Y-90815000D02*
X188100000Y-90815000D01*
X188100000Y-90815000D02*
X190080000Y-92215000D01*
D13*
%TO.C,SW1*%
X207671041Y-98137520D02*
G75*
G02*
X207671041Y-98342481I366959J-102480D01*
G01*
D14*
X205062200Y-101809561D02*
X205062200Y-99270439D01*
X204169551Y-97415800D02*
X199706449Y-97415800D01*
X199706449Y-103664200D02*
X204169551Y-103664200D01*
X198813800Y-99270439D02*
X198813800Y-101809561D01*
D13*
%TO.C,J5*%
X178330700Y-92079799D02*
G75*
G02*
X177568700Y-92079799I-381000J0D01*
G01*
X177568700Y-92079799D02*
G75*
G02*
X178330700Y-92079799I381000J0D01*
G01*
%TD*%
M02*
